<?xml version="1.0" encoding="utf-8" standalone="no"?>
<!DOCTYPE svg PUBLIC "-//W3C//DTD SVG 1.1//EN"
  "http://www.w3.org/Graphics/SVG/1.1/DTD/svg11.dtd">
<svg xmlns:xlink="http://www.w3.org/1999/xlink" width="280.057692pt" height="347.359688pt" viewBox="0 0 280.057692 347.359688" xmlns="http://www.w3.org/2000/svg" version="1.1">
 <metadata>
  <rdf:RDF xmlns:dc="http://purl.org/dc/elements/1.1/" xmlns:cc="http://creativecommons.org/ns#" xmlns:rdf="http://www.w3.org/1999/02/22-rdf-syntax-ns#">
   <cc:Work>
    <dc:type rdf:resource="http://purl.org/dc/dcmitype/StillImage"/>
    <dc:date>2023-08-26T07:59:35.084738</dc:date>
    <dc:format>image/svg+xml</dc:format>
    <dc:creator>
     <cc:Agent>
      <dc:title>Matplotlib v3.7.2, https://matplotlib.org/</dc:title>
     </cc:Agent>
    </dc:creator>
   </cc:Work>
  </rdf:RDF>
 </metadata>
 <defs>
  <style type="text/css">*{stroke-linejoin: round; stroke-linecap: butt}</style>
 </defs>
 <g id="figure_1">
  <g id="patch_1">
   <path d="M 0 347.359688 
L 280.057692 347.359688 
L 280.057692 0 
L 0 0 
z
" style="fill: #ffffff"/>
  </g>
  <g id="axes_1">
   <g id="patch_2">
    <path d="M 78.16375 284.4 
L 272.857692 284.4 
L 272.857692 7.2 
L 78.16375 7.2 
z
" style="fill: #ffffff"/>
   </g>
   <g id="matplotlib.axis_1">
    <g id="xtick_1">
     <g id="line2d_1">
      <path d="M 80.205994 284.4 
L 80.205994 7.2 
" clip-path="url(#p0a04308320)" style="fill: none; stroke: #d3d3d3; stroke-linecap: round"/>
     </g>
     <g id="text_1">
      <!-- $\mathdefault{10^{0}}$ -->
      <g style="fill: #262626" transform="translate(70.525994 322.258281) scale(0.11 -0.11)">
       <defs>
        <path id="DejaVuSans-31" d="M 794 531 
L 1825 531 
L 1825 4091 
L 703 3866 
L 703 4441 
L 1819 4666 
L 2450 4666 
L 2450 531 
L 3481 531 
L 3481 0 
L 794 0 
L 794 531 
z
" transform="scale(0.015625)"/>
        <path id="DejaVuSans-30" d="M 2034 4250 
Q 1547 4250 1301 3770 
Q 1056 3291 1056 2328 
Q 1056 1369 1301 889 
Q 1547 409 2034 409 
Q 2525 409 2770 889 
Q 3016 1369 3016 2328 
Q 3016 3291 2770 3770 
Q 2525 4250 2034 4250 
z
M 2034 4750 
Q 2819 4750 3233 4129 
Q 3647 3509 3647 2328 
Q 3647 1150 3233 529 
Q 2819 -91 2034 -91 
Q 1250 -91 836 529 
Q 422 1150 422 2328 
Q 422 3509 836 4129 
Q 1250 4750 2034 4750 
z
" transform="scale(0.015625)"/>
       </defs>
       <use xlink:href="#DejaVuSans-31" transform="translate(0 0.765625)"/>
       <use xlink:href="#DejaVuSans-30" transform="translate(63.623047 0.765625)"/>
       <use xlink:href="#DejaVuSans-30" transform="translate(128.203125 39.046875) scale(0.7)"/>
      </g>
     </g>
    </g>
    <g id="xtick_2">
     <g id="line2d_2">
      <path d="M 144.877059 284.4 
L 144.877059 7.2 
" clip-path="url(#p0a04308320)" style="fill: none; stroke: #d3d3d3; stroke-linecap: round"/>
     </g>
     <g id="text_2">
      <!-- $\mathdefault{10^{1}}$ -->
      <g style="fill: #262626" transform="translate(135.197059 322.258281) scale(0.11 -0.11)">
       <use xlink:href="#DejaVuSans-31" transform="translate(0 0.684375)"/>
       <use xlink:href="#DejaVuSans-30" transform="translate(63.623047 0.684375)"/>
       <use xlink:href="#DejaVuSans-31" transform="translate(128.203125 38.965625) scale(0.7)"/>
      </g>
     </g>
    </g>
    <g id="xtick_3">
     <g id="line2d_3">
      <path d="M 209.548123 284.4 
L 209.548123 7.2 
" clip-path="url(#p0a04308320)" style="fill: none; stroke: #d3d3d3; stroke-linecap: round"/>
     </g>
     <g id="text_3">
      <!-- $\mathdefault{10^{2}}$ -->
      <g style="fill: #262626" transform="translate(199.868123 322.258281) scale(0.11 -0.11)">
       <defs>
        <path id="DejaVuSans-32" d="M 1228 531 
L 3431 531 
L 3431 0 
L 469 0 
L 469 531 
Q 828 903 1448 1529 
Q 2069 2156 2228 2338 
Q 2531 2678 2651 2914 
Q 2772 3150 2772 3378 
Q 2772 3750 2511 3984 
Q 2250 4219 1831 4219 
Q 1534 4219 1204 4116 
Q 875 4013 500 3803 
L 500 4441 
Q 881 4594 1212 4672 
Q 1544 4750 1819 4750 
Q 2544 4750 2975 4387 
Q 3406 4025 3406 3419 
Q 3406 3131 3298 2873 
Q 3191 2616 2906 2266 
Q 2828 2175 2409 1742 
Q 1991 1309 1228 531 
z
" transform="scale(0.015625)"/>
       </defs>
       <use xlink:href="#DejaVuSans-31" transform="translate(0 0.765625)"/>
       <use xlink:href="#DejaVuSans-30" transform="translate(63.623047 0.765625)"/>
       <use xlink:href="#DejaVuSans-32" transform="translate(128.203125 39.046875) scale(0.7)"/>
      </g>
     </g>
    </g>
    <g id="xtick_4">
     <g id="line2d_4">
      <path d="M 99.673924 284.4 
L 99.673924 7.2 
" clip-path="url(#p0a04308320)" style="fill: none; stroke: #f5f5f5; stroke-linecap: round"/>
     </g>
    </g>
    <g id="xtick_5">
     <g id="line2d_5">
      <path d="M 111.061934 284.4 
L 111.061934 7.2 
" clip-path="url(#p0a04308320)" style="fill: none; stroke: #f5f5f5; stroke-linecap: round"/>
     </g>
    </g>
    <g id="xtick_6">
     <g id="line2d_6">
      <path d="M 119.141855 284.4 
L 119.141855 7.2 
" clip-path="url(#p0a04308320)" style="fill: none; stroke: #f5f5f5; stroke-linecap: round"/>
     </g>
    </g>
    <g id="xtick_7">
     <g id="line2d_7">
      <path d="M 125.409128 284.4 
L 125.409128 7.2 
" clip-path="url(#p0a04308320)" style="fill: none; stroke: #f5f5f5; stroke-linecap: round"/>
     </g>
    </g>
    <g id="xtick_8">
     <g id="line2d_8">
      <path d="M 130.529864 284.4 
L 130.529864 7.2 
" clip-path="url(#p0a04308320)" style="fill: none; stroke: #f5f5f5; stroke-linecap: round"/>
     </g>
    </g>
    <g id="xtick_9">
     <g id="line2d_9">
      <path d="M 134.859384 284.4 
L 134.859384 7.2 
" clip-path="url(#p0a04308320)" style="fill: none; stroke: #f5f5f5; stroke-linecap: round"/>
     </g>
    </g>
    <g id="xtick_10">
     <g id="line2d_10">
      <path d="M 138.609785 284.4 
L 138.609785 7.2 
" clip-path="url(#p0a04308320)" style="fill: none; stroke: #f5f5f5; stroke-linecap: round"/>
     </g>
    </g>
    <g id="xtick_11">
     <g id="line2d_11">
      <path d="M 141.917873 284.4 
L 141.917873 7.2 
" clip-path="url(#p0a04308320)" style="fill: none; stroke: #f5f5f5; stroke-linecap: round"/>
     </g>
    </g>
    <g id="xtick_12">
     <g id="line2d_12">
      <path d="M 164.344989 284.4 
L 164.344989 7.2 
" clip-path="url(#p0a04308320)" style="fill: none; stroke: #f5f5f5; stroke-linecap: round"/>
     </g>
    </g>
    <g id="xtick_13">
     <g id="line2d_13">
      <path d="M 175.732998 284.4 
L 175.732998 7.2 
" clip-path="url(#p0a04308320)" style="fill: none; stroke: #f5f5f5; stroke-linecap: round"/>
     </g>
    </g>
    <g id="xtick_14">
     <g id="line2d_14">
      <path d="M 183.812919 284.4 
L 183.812919 7.2 
" clip-path="url(#p0a04308320)" style="fill: none; stroke: #f5f5f5; stroke-linecap: round"/>
     </g>
    </g>
    <g id="xtick_15">
     <g id="line2d_15">
      <path d="M 190.080193 284.4 
L 190.080193 7.2 
" clip-path="url(#p0a04308320)" style="fill: none; stroke: #f5f5f5; stroke-linecap: round"/>
     </g>
    </g>
    <g id="xtick_16">
     <g id="line2d_16">
      <path d="M 195.200929 284.4 
L 195.200929 7.2 
" clip-path="url(#p0a04308320)" style="fill: none; stroke: #f5f5f5; stroke-linecap: round"/>
     </g>
    </g>
    <g id="xtick_17">
     <g id="line2d_17">
      <path d="M 199.530449 284.4 
L 199.530449 7.2 
" clip-path="url(#p0a04308320)" style="fill: none; stroke: #f5f5f5; stroke-linecap: round"/>
     </g>
    </g>
    <g id="xtick_18">
     <g id="line2d_18">
      <path d="M 203.28085 284.4 
L 203.28085 7.2 
" clip-path="url(#p0a04308320)" style="fill: none; stroke: #f5f5f5; stroke-linecap: round"/>
     </g>
    </g>
    <g id="xtick_19">
     <g id="line2d_19">
      <path d="M 206.588938 284.4 
L 206.588938 7.2 
" clip-path="url(#p0a04308320)" style="fill: none; stroke: #f5f5f5; stroke-linecap: round"/>
     </g>
    </g>
    <g id="xtick_20">
     <g id="line2d_20">
      <path d="M 229.016054 284.4 
L 229.016054 7.2 
" clip-path="url(#p0a04308320)" style="fill: none; stroke: #f5f5f5; stroke-linecap: round"/>
     </g>
    </g>
    <g id="xtick_21">
     <g id="line2d_21">
      <path d="M 240.404063 284.4 
L 240.404063 7.2 
" clip-path="url(#p0a04308320)" style="fill: none; stroke: #f5f5f5; stroke-linecap: round"/>
     </g>
    </g>
    <g id="xtick_22">
     <g id="line2d_22">
      <path d="M 248.483984 284.4 
L 248.483984 7.2 
" clip-path="url(#p0a04308320)" style="fill: none; stroke: #f5f5f5; stroke-linecap: round"/>
     </g>
    </g>
    <g id="xtick_23">
     <g id="line2d_23">
      <path d="M 254.751258 284.4 
L 254.751258 7.2 
" clip-path="url(#p0a04308320)" style="fill: none; stroke: #f5f5f5; stroke-linecap: round"/>
     </g>
    </g>
    <g id="xtick_24">
     <g id="line2d_24">
      <path d="M 259.871993 284.4 
L 259.871993 7.2 
" clip-path="url(#p0a04308320)" style="fill: none; stroke: #f5f5f5; stroke-linecap: round"/>
     </g>
    </g>
    <g id="xtick_25">
     <g id="line2d_25">
      <path d="M 264.201513 284.4 
L 264.201513 7.2 
" clip-path="url(#p0a04308320)" style="fill: none; stroke: #f5f5f5; stroke-linecap: round"/>
     </g>
    </g>
    <g id="xtick_26">
     <g id="line2d_26">
      <path d="M 267.951914 284.4 
L 267.951914 7.2 
" clip-path="url(#p0a04308320)" style="fill: none; stroke: #f5f5f5; stroke-linecap: round"/>
     </g>
    </g>
    <g id="xtick_27">
     <g id="line2d_27">
      <path d="M 271.260002 284.4 
L 271.260002 7.2 
" clip-path="url(#p0a04308320)" style="fill: none; stroke: #f5f5f5; stroke-linecap: round"/>
     </g>
    </g>
    <g id="text_4">
     <!-- rank -->
     <g style="fill: #262626" transform="translate(162.090408 337.664062) scale(0.12 -0.12)">
      <defs>
       <path id="DejaVuSans-72" d="M 2631 2963 
Q 2534 3019 2420 3045 
Q 2306 3072 2169 3072 
Q 1681 3072 1420 2755 
Q 1159 2438 1159 1844 
L 1159 0 
L 581 0 
L 581 3500 
L 1159 3500 
L 1159 2956 
Q 1341 3275 1631 3429 
Q 1922 3584 2338 3584 
Q 2397 3584 2469 3576 
Q 2541 3569 2628 3553 
L 2631 2963 
z
" transform="scale(0.015625)"/>
       <path id="DejaVuSans-61" d="M 2194 1759 
Q 1497 1759 1228 1600 
Q 959 1441 959 1056 
Q 959 750 1161 570 
Q 1363 391 1709 391 
Q 2188 391 2477 730 
Q 2766 1069 2766 1631 
L 2766 1759 
L 2194 1759 
z
M 3341 1997 
L 3341 0 
L 2766 0 
L 2766 531 
Q 2569 213 2275 61 
Q 1981 -91 1556 -91 
Q 1019 -91 701 211 
Q 384 513 384 1019 
Q 384 1609 779 1909 
Q 1175 2209 1959 2209 
L 2766 2209 
L 2766 2266 
Q 2766 2663 2505 2880 
Q 2244 3097 1772 3097 
Q 1472 3097 1187 3025 
Q 903 2953 641 2809 
L 641 3341 
Q 956 3463 1253 3523 
Q 1550 3584 1831 3584 
Q 2591 3584 2966 3190 
Q 3341 2797 3341 1997 
z
" transform="scale(0.015625)"/>
       <path id="DejaVuSans-6e" d="M 3513 2113 
L 3513 0 
L 2938 0 
L 2938 2094 
Q 2938 2591 2744 2837 
Q 2550 3084 2163 3084 
Q 1697 3084 1428 2787 
Q 1159 2491 1159 1978 
L 1159 0 
L 581 0 
L 581 3500 
L 1159 3500 
L 1159 2956 
Q 1366 3272 1645 3428 
Q 1925 3584 2291 3584 
Q 2894 3584 3203 3211 
Q 3513 2838 3513 2113 
z
" transform="scale(0.015625)"/>
       <path id="DejaVuSans-6b" d="M 581 4863 
L 1159 4863 
L 1159 1991 
L 2875 3500 
L 3609 3500 
L 1753 1863 
L 3688 0 
L 2938 0 
L 1159 1709 
L 1159 0 
L 581 0 
L 581 4863 
z
" transform="scale(0.015625)"/>
      </defs>
      <use xlink:href="#DejaVuSans-72"/>
      <use xlink:href="#DejaVuSans-61" x="41.113281"/>
      <use xlink:href="#DejaVuSans-6e" x="102.392578"/>
      <use xlink:href="#DejaVuSans-6b" x="165.771484"/>
     </g>
    </g>
   </g>
   <g id="matplotlib.axis_2">
    <g id="ytick_1">
     <g id="line2d_28">
      <path d="M 78.16375 264.496788 
L 272.857692 264.496788 
" clip-path="url(#p0a04308320)" style="fill: none; stroke: #d3d3d3; stroke-linecap: round"/>
     </g>
     <g id="text_5">
      <!-- $\mathdefault{10^{-1}}$ -->
      <g style="fill: #262626" transform="translate(22.81375 268.675929) scale(0.11 -0.11)">
       <defs>
        <path id="DejaVuSans-2212" d="M 678 2272 
L 4684 2272 
L 4684 1741 
L 678 1741 
L 678 2272 
z
" transform="scale(0.015625)"/>
       </defs>
       <use xlink:href="#DejaVuSans-31" transform="translate(0 0.684375)"/>
       <use xlink:href="#DejaVuSans-30" transform="translate(63.623047 0.684375)"/>
       <use xlink:href="#DejaVuSans-2212" transform="translate(128.203125 38.965625) scale(0.7)"/>
       <use xlink:href="#DejaVuSans-31" transform="translate(186.855469 38.965625) scale(0.7)"/>
      </g>
     </g>
    </g>
    <g id="ytick_2">
     <g id="line2d_29">
      <path d="M 78.16375 199.825723 
L 272.857692 199.825723 
" clip-path="url(#p0a04308320)" style="fill: none; stroke: #d3d3d3; stroke-linecap: round"/>
     </g>
     <g id="text_6">
      <!-- $\mathdefault{10^{0}}$ -->
      <g style="fill: #262626" transform="translate(29.30375 204.004864) scale(0.11 -0.11)">
       <use xlink:href="#DejaVuSans-31" transform="translate(0 0.765625)"/>
       <use xlink:href="#DejaVuSans-30" transform="translate(63.623047 0.765625)"/>
       <use xlink:href="#DejaVuSans-30" transform="translate(128.203125 39.046875) scale(0.7)"/>
      </g>
     </g>
    </g>
    <g id="ytick_3">
     <g id="line2d_30">
      <path d="M 78.16375 135.154659 
L 272.857692 135.154659 
" clip-path="url(#p0a04308320)" style="fill: none; stroke: #d3d3d3; stroke-linecap: round"/>
     </g>
     <g id="text_7">
      <!-- $\mathdefault{10^{1}}$ -->
      <g style="fill: #262626" transform="translate(29.30375 139.333799) scale(0.11 -0.11)">
       <use xlink:href="#DejaVuSans-31" transform="translate(0 0.684375)"/>
       <use xlink:href="#DejaVuSans-30" transform="translate(63.623047 0.684375)"/>
       <use xlink:href="#DejaVuSans-31" transform="translate(128.203125 38.965625) scale(0.7)"/>
      </g>
     </g>
    </g>
    <g id="ytick_4">
     <g id="line2d_31">
      <path d="M 78.16375 70.483594 
L 272.857692 70.483594 
" clip-path="url(#p0a04308320)" style="fill: none; stroke: #d3d3d3; stroke-linecap: round"/>
     </g>
     <g id="text_8">
      <!-- $\mathdefault{10^{2}}$ -->
      <g style="fill: #262626" transform="translate(29.30375 74.662735) scale(0.11 -0.11)">
       <use xlink:href="#DejaVuSans-31" transform="translate(0 0.765625)"/>
       <use xlink:href="#DejaVuSans-30" transform="translate(63.623047 0.765625)"/>
       <use xlink:href="#DejaVuSans-32" transform="translate(128.203125 39.046875) scale(0.7)"/>
      </g>
     </g>
    </g>
    <g id="ytick_5">
     <g id="line2d_32">
      <path d="M 78.16375 283.964718 
L 272.857692 283.964718 
" clip-path="url(#p0a04308320)" style="fill: none; stroke: #f5f5f5; stroke-linecap: round"/>
     </g>
    </g>
    <g id="ytick_6">
     <g id="line2d_33">
      <path d="M 78.16375 278.843983 
L 272.857692 278.843983 
" clip-path="url(#p0a04308320)" style="fill: none; stroke: #f5f5f5; stroke-linecap: round"/>
     </g>
    </g>
    <g id="ytick_7">
     <g id="line2d_34">
      <path d="M 78.16375 274.514463 
L 272.857692 274.514463 
" clip-path="url(#p0a04308320)" style="fill: none; stroke: #f5f5f5; stroke-linecap: round"/>
     </g>
    </g>
    <g id="ytick_8">
     <g id="line2d_35">
      <path d="M 78.16375 270.764062 
L 272.857692 270.764062 
" clip-path="url(#p0a04308320)" style="fill: none; stroke: #f5f5f5; stroke-linecap: round"/>
     </g>
    </g>
    <g id="ytick_9">
     <g id="line2d_36">
      <path d="M 78.16375 267.455974 
L 272.857692 267.455974 
" clip-path="url(#p0a04308320)" style="fill: none; stroke: #f5f5f5; stroke-linecap: round"/>
     </g>
    </g>
    <g id="ytick_10">
     <g id="line2d_37">
      <path d="M 78.16375 245.028858 
L 272.857692 245.028858 
" clip-path="url(#p0a04308320)" style="fill: none; stroke: #f5f5f5; stroke-linecap: round"/>
     </g>
    </g>
    <g id="ytick_11">
     <g id="line2d_38">
      <path d="M 78.16375 233.640849 
L 272.857692 233.640849 
" clip-path="url(#p0a04308320)" style="fill: none; stroke: #f5f5f5; stroke-linecap: round"/>
     </g>
    </g>
    <g id="ytick_12">
     <g id="line2d_39">
      <path d="M 78.16375 225.560927 
L 272.857692 225.560927 
" clip-path="url(#p0a04308320)" style="fill: none; stroke: #f5f5f5; stroke-linecap: round"/>
     </g>
    </g>
    <g id="ytick_13">
     <g id="line2d_40">
      <path d="M 78.16375 219.293654 
L 272.857692 219.293654 
" clip-path="url(#p0a04308320)" style="fill: none; stroke: #f5f5f5; stroke-linecap: round"/>
     </g>
    </g>
    <g id="ytick_14">
     <g id="line2d_41">
      <path d="M 78.16375 214.172918 
L 272.857692 214.172918 
" clip-path="url(#p0a04308320)" style="fill: none; stroke: #f5f5f5; stroke-linecap: round"/>
     </g>
    </g>
    <g id="ytick_15">
     <g id="line2d_42">
      <path d="M 78.16375 209.843398 
L 272.857692 209.843398 
" clip-path="url(#p0a04308320)" style="fill: none; stroke: #f5f5f5; stroke-linecap: round"/>
     </g>
    </g>
    <g id="ytick_16">
     <g id="line2d_43">
      <path d="M 78.16375 206.092997 
L 272.857692 206.092997 
" clip-path="url(#p0a04308320)" style="fill: none; stroke: #f5f5f5; stroke-linecap: round"/>
     </g>
    </g>
    <g id="ytick_17">
     <g id="line2d_44">
      <path d="M 78.16375 202.784909 
L 272.857692 202.784909 
" clip-path="url(#p0a04308320)" style="fill: none; stroke: #f5f5f5; stroke-linecap: round"/>
     </g>
    </g>
    <g id="ytick_18">
     <g id="line2d_45">
      <path d="M 78.16375 180.357793 
L 272.857692 180.357793 
" clip-path="url(#p0a04308320)" style="fill: none; stroke: #f5f5f5; stroke-linecap: round"/>
     </g>
    </g>
    <g id="ytick_19">
     <g id="line2d_46">
      <path d="M 78.16375 168.969784 
L 272.857692 168.969784 
" clip-path="url(#p0a04308320)" style="fill: none; stroke: #f5f5f5; stroke-linecap: round"/>
     </g>
    </g>
    <g id="ytick_20">
     <g id="line2d_47">
      <path d="M 78.16375 160.889863 
L 272.857692 160.889863 
" clip-path="url(#p0a04308320)" style="fill: none; stroke: #f5f5f5; stroke-linecap: round"/>
     </g>
    </g>
    <g id="ytick_21">
     <g id="line2d_48">
      <path d="M 78.16375 154.622589 
L 272.857692 154.622589 
" clip-path="url(#p0a04308320)" style="fill: none; stroke: #f5f5f5; stroke-linecap: round"/>
     </g>
    </g>
    <g id="ytick_22">
     <g id="line2d_49">
      <path d="M 78.16375 149.501854 
L 272.857692 149.501854 
" clip-path="url(#p0a04308320)" style="fill: none; stroke: #f5f5f5; stroke-linecap: round"/>
     </g>
    </g>
    <g id="ytick_23">
     <g id="line2d_50">
      <path d="M 78.16375 145.172333 
L 272.857692 145.172333 
" clip-path="url(#p0a04308320)" style="fill: none; stroke: #f5f5f5; stroke-linecap: round"/>
     </g>
    </g>
    <g id="ytick_24">
     <g id="line2d_51">
      <path d="M 78.16375 141.421933 
L 272.857692 141.421933 
" clip-path="url(#p0a04308320)" style="fill: none; stroke: #f5f5f5; stroke-linecap: round"/>
     </g>
    </g>
    <g id="ytick_25">
     <g id="line2d_52">
      <path d="M 78.16375 138.113844 
L 272.857692 138.113844 
" clip-path="url(#p0a04308320)" style="fill: none; stroke: #f5f5f5; stroke-linecap: round"/>
     </g>
    </g>
    <g id="ytick_26">
     <g id="line2d_53">
      <path d="M 78.16375 115.686729 
L 272.857692 115.686729 
" clip-path="url(#p0a04308320)" style="fill: none; stroke: #f5f5f5; stroke-linecap: round"/>
     </g>
    </g>
    <g id="ytick_27">
     <g id="line2d_54">
      <path d="M 78.16375 104.298719 
L 272.857692 104.298719 
" clip-path="url(#p0a04308320)" style="fill: none; stroke: #f5f5f5; stroke-linecap: round"/>
     </g>
    </g>
    <g id="ytick_28">
     <g id="line2d_55">
      <path d="M 78.16375 96.218798 
L 272.857692 96.218798 
" clip-path="url(#p0a04308320)" style="fill: none; stroke: #f5f5f5; stroke-linecap: round"/>
     </g>
    </g>
    <g id="ytick_29">
     <g id="line2d_56">
      <path d="M 78.16375 89.951524 
L 272.857692 89.951524 
" clip-path="url(#p0a04308320)" style="fill: none; stroke: #f5f5f5; stroke-linecap: round"/>
     </g>
    </g>
    <g id="ytick_30">
     <g id="line2d_57">
      <path d="M 78.16375 84.830789 
L 272.857692 84.830789 
" clip-path="url(#p0a04308320)" style="fill: none; stroke: #f5f5f5; stroke-linecap: round"/>
     </g>
    </g>
    <g id="ytick_31">
     <g id="line2d_58">
      <path d="M 78.16375 80.501269 
L 272.857692 80.501269 
" clip-path="url(#p0a04308320)" style="fill: none; stroke: #f5f5f5; stroke-linecap: round"/>
     </g>
    </g>
    <g id="ytick_32">
     <g id="line2d_59">
      <path d="M 78.16375 76.750868 
L 272.857692 76.750868 
" clip-path="url(#p0a04308320)" style="fill: none; stroke: #f5f5f5; stroke-linecap: round"/>
     </g>
    </g>
    <g id="ytick_33">
     <g id="line2d_60">
      <path d="M 78.16375 73.44278 
L 272.857692 73.44278 
" clip-path="url(#p0a04308320)" style="fill: none; stroke: #f5f5f5; stroke-linecap: round"/>
     </g>
    </g>
    <g id="ytick_34">
     <g id="line2d_61">
      <path d="M 78.16375 51.015664 
L 272.857692 51.015664 
" clip-path="url(#p0a04308320)" style="fill: none; stroke: #f5f5f5; stroke-linecap: round"/>
     </g>
    </g>
    <g id="ytick_35">
     <g id="line2d_62">
      <path d="M 78.16375 39.627655 
L 272.857692 39.627655 
" clip-path="url(#p0a04308320)" style="fill: none; stroke: #f5f5f5; stroke-linecap: round"/>
     </g>
    </g>
    <g id="ytick_36">
     <g id="line2d_63">
      <path d="M 78.16375 31.547734 
L 272.857692 31.547734 
" clip-path="url(#p0a04308320)" style="fill: none; stroke: #f5f5f5; stroke-linecap: round"/>
     </g>
    </g>
    <g id="ytick_37">
     <g id="line2d_64">
      <path d="M 78.16375 25.28046 
L 272.857692 25.28046 
" clip-path="url(#p0a04308320)" style="fill: none; stroke: #f5f5f5; stroke-linecap: round"/>
     </g>
    </g>
    <g id="ytick_38">
     <g id="line2d_65">
      <path d="M 78.16375 20.159724 
L 272.857692 20.159724 
" clip-path="url(#p0a04308320)" style="fill: none; stroke: #f5f5f5; stroke-linecap: round"/>
     </g>
    </g>
    <g id="ytick_39">
     <g id="line2d_66">
      <path d="M 78.16375 15.830204 
L 272.857692 15.830204 
" clip-path="url(#p0a04308320)" style="fill: none; stroke: #f5f5f5; stroke-linecap: round"/>
     </g>
    </g>
    <g id="ytick_40">
     <g id="line2d_67">
      <path d="M 78.16375 12.079803 
L 272.857692 12.079803 
" clip-path="url(#p0a04308320)" style="fill: none; stroke: #f5f5f5; stroke-linecap: round"/>
     </g>
    </g>
    <g id="ytick_41">
     <g id="line2d_68">
      <path d="M 78.16375 8.771715 
L 272.857692 8.771715 
" clip-path="url(#p0a04308320)" style="fill: none; stroke: #f5f5f5; stroke-linecap: round"/>
     </g>
    </g>
    <g id="text_9">
     <!-- cross-validated eigenvalue -->
     <g style="fill: #262626" transform="translate(16.318125 226.219687) rotate(-90) scale(0.12 -0.12)">
      <defs>
       <path id="DejaVuSans-63" d="M 3122 3366 
L 3122 2828 
Q 2878 2963 2633 3030 
Q 2388 3097 2138 3097 
Q 1578 3097 1268 2742 
Q 959 2388 959 1747 
Q 959 1106 1268 751 
Q 1578 397 2138 397 
Q 2388 397 2633 464 
Q 2878 531 3122 666 
L 3122 134 
Q 2881 22 2623 -34 
Q 2366 -91 2075 -91 
Q 1284 -91 818 406 
Q 353 903 353 1747 
Q 353 2603 823 3093 
Q 1294 3584 2113 3584 
Q 2378 3584 2631 3529 
Q 2884 3475 3122 3366 
z
" transform="scale(0.015625)"/>
       <path id="DejaVuSans-6f" d="M 1959 3097 
Q 1497 3097 1228 2736 
Q 959 2375 959 1747 
Q 959 1119 1226 758 
Q 1494 397 1959 397 
Q 2419 397 2687 759 
Q 2956 1122 2956 1747 
Q 2956 2369 2687 2733 
Q 2419 3097 1959 3097 
z
M 1959 3584 
Q 2709 3584 3137 3096 
Q 3566 2609 3566 1747 
Q 3566 888 3137 398 
Q 2709 -91 1959 -91 
Q 1206 -91 779 398 
Q 353 888 353 1747 
Q 353 2609 779 3096 
Q 1206 3584 1959 3584 
z
" transform="scale(0.015625)"/>
       <path id="DejaVuSans-73" d="M 2834 3397 
L 2834 2853 
Q 2591 2978 2328 3040 
Q 2066 3103 1784 3103 
Q 1356 3103 1142 2972 
Q 928 2841 928 2578 
Q 928 2378 1081 2264 
Q 1234 2150 1697 2047 
L 1894 2003 
Q 2506 1872 2764 1633 
Q 3022 1394 3022 966 
Q 3022 478 2636 193 
Q 2250 -91 1575 -91 
Q 1294 -91 989 -36 
Q 684 19 347 128 
L 347 722 
Q 666 556 975 473 
Q 1284 391 1588 391 
Q 1994 391 2212 530 
Q 2431 669 2431 922 
Q 2431 1156 2273 1281 
Q 2116 1406 1581 1522 
L 1381 1569 
Q 847 1681 609 1914 
Q 372 2147 372 2553 
Q 372 3047 722 3315 
Q 1072 3584 1716 3584 
Q 2034 3584 2315 3537 
Q 2597 3491 2834 3397 
z
" transform="scale(0.015625)"/>
       <path id="DejaVuSans-2d" d="M 313 2009 
L 1997 2009 
L 1997 1497 
L 313 1497 
L 313 2009 
z
" transform="scale(0.015625)"/>
       <path id="DejaVuSans-76" d="M 191 3500 
L 800 3500 
L 1894 563 
L 2988 3500 
L 3597 3500 
L 2284 0 
L 1503 0 
L 191 3500 
z
" transform="scale(0.015625)"/>
       <path id="DejaVuSans-6c" d="M 603 4863 
L 1178 4863 
L 1178 0 
L 603 0 
L 603 4863 
z
" transform="scale(0.015625)"/>
       <path id="DejaVuSans-69" d="M 603 3500 
L 1178 3500 
L 1178 0 
L 603 0 
L 603 3500 
z
M 603 4863 
L 1178 4863 
L 1178 4134 
L 603 4134 
L 603 4863 
z
" transform="scale(0.015625)"/>
       <path id="DejaVuSans-64" d="M 2906 2969 
L 2906 4863 
L 3481 4863 
L 3481 0 
L 2906 0 
L 2906 525 
Q 2725 213 2448 61 
Q 2172 -91 1784 -91 
Q 1150 -91 751 415 
Q 353 922 353 1747 
Q 353 2572 751 3078 
Q 1150 3584 1784 3584 
Q 2172 3584 2448 3432 
Q 2725 3281 2906 2969 
z
M 947 1747 
Q 947 1113 1208 752 
Q 1469 391 1925 391 
Q 2381 391 2643 752 
Q 2906 1113 2906 1747 
Q 2906 2381 2643 2742 
Q 2381 3103 1925 3103 
Q 1469 3103 1208 2742 
Q 947 2381 947 1747 
z
" transform="scale(0.015625)"/>
       <path id="DejaVuSans-74" d="M 1172 4494 
L 1172 3500 
L 2356 3500 
L 2356 3053 
L 1172 3053 
L 1172 1153 
Q 1172 725 1289 603 
Q 1406 481 1766 481 
L 2356 481 
L 2356 0 
L 1766 0 
Q 1100 0 847 248 
Q 594 497 594 1153 
L 594 3053 
L 172 3053 
L 172 3500 
L 594 3500 
L 594 4494 
L 1172 4494 
z
" transform="scale(0.015625)"/>
       <path id="DejaVuSans-65" d="M 3597 1894 
L 3597 1613 
L 953 1613 
Q 991 1019 1311 708 
Q 1631 397 2203 397 
Q 2534 397 2845 478 
Q 3156 559 3463 722 
L 3463 178 
Q 3153 47 2828 -22 
Q 2503 -91 2169 -91 
Q 1331 -91 842 396 
Q 353 884 353 1716 
Q 353 2575 817 3079 
Q 1281 3584 2069 3584 
Q 2775 3584 3186 3129 
Q 3597 2675 3597 1894 
z
M 3022 2063 
Q 3016 2534 2758 2815 
Q 2500 3097 2075 3097 
Q 1594 3097 1305 2825 
Q 1016 2553 972 2059 
L 3022 2063 
z
" transform="scale(0.015625)"/>
       <path id="DejaVuSans-20" transform="scale(0.015625)"/>
       <path id="DejaVuSans-67" d="M 2906 1791 
Q 2906 2416 2648 2759 
Q 2391 3103 1925 3103 
Q 1463 3103 1205 2759 
Q 947 2416 947 1791 
Q 947 1169 1205 825 
Q 1463 481 1925 481 
Q 2391 481 2648 825 
Q 2906 1169 2906 1791 
z
M 3481 434 
Q 3481 -459 3084 -895 
Q 2688 -1331 1869 -1331 
Q 1566 -1331 1297 -1286 
Q 1028 -1241 775 -1147 
L 775 -588 
Q 1028 -725 1275 -790 
Q 1522 -856 1778 -856 
Q 2344 -856 2625 -561 
Q 2906 -266 2906 331 
L 2906 616 
Q 2728 306 2450 153 
Q 2172 0 1784 0 
Q 1141 0 747 490 
Q 353 981 353 1791 
Q 353 2603 747 3093 
Q 1141 3584 1784 3584 
Q 2172 3584 2450 3431 
Q 2728 3278 2906 2969 
L 2906 3500 
L 3481 3500 
L 3481 434 
z
" transform="scale(0.015625)"/>
       <path id="DejaVuSans-75" d="M 544 1381 
L 544 3500 
L 1119 3500 
L 1119 1403 
Q 1119 906 1312 657 
Q 1506 409 1894 409 
Q 2359 409 2629 706 
Q 2900 1003 2900 1516 
L 2900 3500 
L 3475 3500 
L 3475 0 
L 2900 0 
L 2900 538 
Q 2691 219 2414 64 
Q 2138 -91 1772 -91 
Q 1169 -91 856 284 
Q 544 659 544 1381 
z
M 1991 3584 
L 1991 3584 
z
" transform="scale(0.015625)"/>
      </defs>
      <use xlink:href="#DejaVuSans-63"/>
      <use xlink:href="#DejaVuSans-72" x="54.980469"/>
      <use xlink:href="#DejaVuSans-6f" x="93.84375"/>
      <use xlink:href="#DejaVuSans-73" x="155.025391"/>
      <use xlink:href="#DejaVuSans-73" x="207.125"/>
      <use xlink:href="#DejaVuSans-2d" x="259.224609"/>
      <use xlink:href="#DejaVuSans-76" x="292.683594"/>
      <use xlink:href="#DejaVuSans-61" x="351.863281"/>
      <use xlink:href="#DejaVuSans-6c" x="413.142578"/>
      <use xlink:href="#DejaVuSans-69" x="440.925781"/>
      <use xlink:href="#DejaVuSans-64" x="468.708984"/>
      <use xlink:href="#DejaVuSans-61" x="532.185547"/>
      <use xlink:href="#DejaVuSans-74" x="593.464844"/>
      <use xlink:href="#DejaVuSans-65" x="632.673828"/>
      <use xlink:href="#DejaVuSans-64" x="694.197266"/>
      <use xlink:href="#DejaVuSans-20" x="757.673828"/>
      <use xlink:href="#DejaVuSans-65" x="789.460938"/>
      <use xlink:href="#DejaVuSans-69" x="850.984375"/>
      <use xlink:href="#DejaVuSans-67" x="878.767578"/>
      <use xlink:href="#DejaVuSans-65" x="942.244141"/>
      <use xlink:href="#DejaVuSans-6e" x="1003.767578"/>
      <use xlink:href="#DejaVuSans-76" x="1067.146484"/>
      <use xlink:href="#DejaVuSans-61" x="1126.326172"/>
      <use xlink:href="#DejaVuSans-6c" x="1187.605469"/>
      <use xlink:href="#DejaVuSans-75" x="1215.388672"/>
      <use xlink:href="#DejaVuSans-65" x="1278.767578"/>
     </g>
    </g>
   </g>
   <g id="line2d_69">
    <defs>
     <path id="m07d8069d45" d="M 0 3 
C 0.795609 3 1.55874 2.683901 2.12132 2.12132 
C 2.683901 1.55874 3 0.795609 3 0 
C 3 -0.795609 2.683901 -1.55874 2.12132 -2.12132 
C 1.55874 -2.683901 0.795609 -3 0 -3 
C -0.795609 -3 -1.55874 -2.683901 -2.12132 -2.12132 
C -2.683901 -1.55874 -3 -0.795609 -3 0 
C -3 0.795609 -2.683901 1.55874 -2.12132 2.12132 
C -1.55874 2.683901 -0.795609 3 0 3 
z
" style="stroke: #ffffff; stroke-width: 0.75"/>
    </defs>
    <g clip-path="url(#p0a04308320)">
     <use xlink:href="#m07d8069d45" x="87.013475" y="42.387537" style="fill: #4c72b0; stroke: #ffffff; stroke-width: 0.75"/>
     <use xlink:href="#m07d8069d45" x="100.628436" y="29.73754" style="fill: #4c72b0; stroke: #ffffff; stroke-width: 0.75"/>
     <use xlink:href="#m07d8069d45" x="114.243397" y="60.488473" style="fill: #4c72b0; stroke: #ffffff; stroke-width: 0.75"/>
     <use xlink:href="#m07d8069d45" x="127.858358" y="74.62884" style="fill: #4c72b0; stroke: #ffffff; stroke-width: 0.75"/>
     <use xlink:href="#m07d8069d45" x="141.473319" y="99.324611" style="fill: #4c72b0; stroke: #ffffff; stroke-width: 0.75"/>
     <use xlink:href="#m07d8069d45" x="155.088279" y="102.335596" style="fill: #4c72b0; stroke: #ffffff; stroke-width: 0.75"/>
     <use xlink:href="#m07d8069d45" x="168.70324" y="127.556007" style="fill: #4c72b0; stroke: #ffffff; stroke-width: 0.75"/>
     <use xlink:href="#m07d8069d45" x="182.318201" y="141.531155" style="fill: #4c72b0; stroke: #ffffff; stroke-width: 0.75"/>
     <use xlink:href="#m07d8069d45" x="195.933162" y="162.33429" style="fill: #4c72b0; stroke: #ffffff; stroke-width: 0.75"/>
     <use xlink:href="#m07d8069d45" x="209.548123" y="177.198151" style="fill: #4c72b0; stroke: #ffffff; stroke-width: 0.75"/>
     <use xlink:href="#m07d8069d45" x="223.163084" y="196.779408" style="fill: #4c72b0; stroke: #ffffff; stroke-width: 0.75"/>
     <use xlink:href="#m07d8069d45" x="236.778045" y="213.765831" style="fill: #4c72b0; stroke: #ffffff; stroke-width: 0.75"/>
     <use xlink:href="#m07d8069d45" x="250.393006" y="232.213946" style="fill: #4c72b0; stroke: #ffffff; stroke-width: 0.75"/>
     <use xlink:href="#m07d8069d45" x="264.007967" y="246.693741" style="fill: #4c72b0; stroke: #ffffff; stroke-width: 0.75"/>
    </g>
   </g>
   <g id="LineCollection_1">
    <path clip-path="url(#p0a04308320)" style="fill: none; stroke: #4c72b0; stroke-width: 1.5; stroke-linecap: round"/>
    <path clip-path="url(#p0a04308320)" style="fill: none; stroke: #4c72b0; stroke-width: 1.5; stroke-linecap: round"/>
    <path d="M 114.243397 62.060588 
L 114.243397 58.999711 
" clip-path="url(#p0a04308320)" style="fill: none; stroke: #4c72b0; stroke-width: 1.5; stroke-linecap: round"/>
    <path d="M 127.858358 93.249795 
L 127.858358 63.528929 
" clip-path="url(#p0a04308320)" style="fill: none; stroke: #4c72b0; stroke-width: 1.5; stroke-linecap: round"/>
    <path d="M 141.473319 112.79664 
L 141.473319 90.257939 
" clip-path="url(#p0a04308320)" style="fill: none; stroke: #4c72b0; stroke-width: 1.5; stroke-linecap: round"/>
    <path d="M 155.088279 124.864061 
L 155.088279 89.997287 
" clip-path="url(#p0a04308320)" style="fill: none; stroke: #4c72b0; stroke-width: 1.5; stroke-linecap: round"/>
    <path d="M 168.70324 137.505155 
L 168.70324 120.224137 
" clip-path="url(#p0a04308320)" style="fill: none; stroke: #4c72b0; stroke-width: 1.5; stroke-linecap: round"/>
    <path d="M 182.318201 151.959309 
L 182.318201 133.943749 
" clip-path="url(#p0a04308320)" style="fill: none; stroke: #4c72b0; stroke-width: 1.5; stroke-linecap: round"/>
    <path d="M 195.933162 178.104083 
L 195.933162 152.295737 
" clip-path="url(#p0a04308320)" style="fill: none; stroke: #4c72b0; stroke-width: 1.5; stroke-linecap: round"/>
    <path d="M 209.548123 186.937795 
L 209.548123 169.98017 
" clip-path="url(#p0a04308320)" style="fill: none; stroke: #4c72b0; stroke-width: 1.5; stroke-linecap: round"/>
    <path d="M 223.163084 207.224708 
L 223.163084 189.182979 
" clip-path="url(#p0a04308320)" style="fill: none; stroke: #4c72b0; stroke-width: 1.5; stroke-linecap: round"/>
    <path d="M 236.778045 224.81666 
L 236.778045 205.85603 
" clip-path="url(#p0a04308320)" style="fill: none; stroke: #4c72b0; stroke-width: 1.5; stroke-linecap: round"/>
    <path d="M 250.393006 251.216926 
L 250.393006 220.982647 
" clip-path="url(#p0a04308320)" style="fill: none; stroke: #4c72b0; stroke-width: 1.5; stroke-linecap: round"/>
    <path d="M 264.007967 272.273216 
L 264.007967 233.532152 
" clip-path="url(#p0a04308320)" style="fill: none; stroke: #4c72b0; stroke-width: 1.5; stroke-linecap: round"/>
   </g>
   <g id="line2d_70">
    <path clip-path="url(#p0a04308320)" style="fill: none; stroke-dasharray: 5.55,2.4; stroke-dashoffset: 0; stroke: #808080; stroke-width: 1.5"/>
   </g>
   <g id="line2d_71"/>
  </g>
 </g>
 <defs>
  <clipPath id="p0a04308320">
   <rect x="78.16375" y="7.2" width="194.693942" height="277.2"/>
  </clipPath>
 </defs>
</svg>
