<?xml version="1.0" encoding="utf-8" standalone="no"?>
<!DOCTYPE svg PUBLIC "-//W3C//DTD SVG 1.1//EN"
  "http://www.w3.org/Graphics/SVG/1.1/DTD/svg11.dtd">
<svg xmlns:xlink="http://www.w3.org/1999/xlink" width="467.607187pt" height="347.359688pt" viewBox="0 0 467.607187 347.359688" xmlns="http://www.w3.org/2000/svg" version="1.1">
 <metadata>
  <rdf:RDF xmlns:dc="http://purl.org/dc/elements/1.1/" xmlns:cc="http://creativecommons.org/ns#" xmlns:rdf="http://www.w3.org/1999/02/22-rdf-syntax-ns#">
   <cc:Work>
    <dc:type rdf:resource="http://purl.org/dc/dcmitype/StillImage"/>
    <dc:date>2023-08-25T05:40:27.516302</dc:date>
    <dc:format>image/svg+xml</dc:format>
    <dc:creator>
     <cc:Agent>
      <dc:title>Matplotlib v3.7.2, https://matplotlib.org/</dc:title>
     </cc:Agent>
    </dc:creator>
   </cc:Work>
  </rdf:RDF>
 </metadata>
 <defs>
  <style type="text/css">*{stroke-linejoin: round; stroke-linecap: butt}</style>
 </defs>
 <g id="figure_1">
  <g id="patch_1">
   <path d="M 0 347.359688 
L 467.607187 347.359688 
L 467.607187 0 
L 0 0 
z
" style="fill: #ffffff"/>
  </g>
  <g id="axes_1">
   <g id="patch_2">
    <path d="M 69.807187 284.4 
L 460.407188 284.4 
L 460.407188 7.2 
L 69.807187 7.2 
z
" style="fill: #ffffff"/>
   </g>
   <g id="matplotlib.axis_1">
    <g id="xtick_1">
     <g id="text_1">
      <!-- 0 -->
      <g style="fill: #262626" transform="translate(83.350753 322.258281) scale(0.11 -0.11)">
       <defs>
        <path id="DejaVuSans-30" d="M 2034 4250 
Q 1547 4250 1301 3770 
Q 1056 3291 1056 2328 
Q 1056 1369 1301 889 
Q 1547 409 2034 409 
Q 2525 409 2770 889 
Q 3016 1369 3016 2328 
Q 3016 3291 2770 3770 
Q 2525 4250 2034 4250 
z
M 2034 4750 
Q 2819 4750 3233 4129 
Q 3647 3509 3647 2328 
Q 3647 1150 3233 529 
Q 2819 -91 2034 -91 
Q 1250 -91 836 529 
Q 422 1150 422 2328 
Q 422 3509 836 4129 
Q 1250 4750 2034 4750 
z
" transform="scale(0.015625)"/>
       </defs>
       <use xlink:href="#DejaVuSans-30"/>
      </g>
     </g>
    </g>
    <g id="xtick_2">
     <g id="text_2">
      <!-- 100 -->
      <g style="fill: #262626" transform="translate(147.512506 322.258281) scale(0.11 -0.11)">
       <defs>
        <path id="DejaVuSans-31" d="M 794 531 
L 1825 531 
L 1825 4091 
L 703 3866 
L 703 4441 
L 1819 4666 
L 2450 4666 
L 2450 531 
L 3481 531 
L 3481 0 
L 794 0 
L 794 531 
z
" transform="scale(0.015625)"/>
       </defs>
       <use xlink:href="#DejaVuSans-31"/>
       <use xlink:href="#DejaVuSans-30" x="63.623047"/>
       <use xlink:href="#DejaVuSans-30" x="127.246094"/>
      </g>
     </g>
    </g>
    <g id="xtick_3">
     <g id="text_3">
      <!-- 200 -->
      <g style="fill: #262626" transform="translate(218.673009 322.258281) scale(0.11 -0.11)">
       <defs>
        <path id="DejaVuSans-32" d="M 1228 531 
L 3431 531 
L 3431 0 
L 469 0 
L 469 531 
Q 828 903 1448 1529 
Q 2069 2156 2228 2338 
Q 2531 2678 2651 2914 
Q 2772 3150 2772 3378 
Q 2772 3750 2511 3984 
Q 2250 4219 1831 4219 
Q 1534 4219 1204 4116 
Q 875 4013 500 3803 
L 500 4441 
Q 881 4594 1212 4672 
Q 1544 4750 1819 4750 
Q 2544 4750 2975 4387 
Q 3406 4025 3406 3419 
Q 3406 3131 3298 2873 
Q 3191 2616 2906 2266 
Q 2828 2175 2409 1742 
Q 1991 1309 1228 531 
z
" transform="scale(0.015625)"/>
       </defs>
       <use xlink:href="#DejaVuSans-32"/>
       <use xlink:href="#DejaVuSans-30" x="63.623047"/>
       <use xlink:href="#DejaVuSans-30" x="127.246094"/>
      </g>
     </g>
    </g>
    <g id="xtick_4">
     <g id="text_4">
      <!-- 300 -->
      <g style="fill: #262626" transform="translate(289.833511 322.258281) scale(0.11 -0.11)">
       <defs>
        <path id="DejaVuSans-33" d="M 2597 2516 
Q 3050 2419 3304 2112 
Q 3559 1806 3559 1356 
Q 3559 666 3084 287 
Q 2609 -91 1734 -91 
Q 1441 -91 1130 -33 
Q 819 25 488 141 
L 488 750 
Q 750 597 1062 519 
Q 1375 441 1716 441 
Q 2309 441 2620 675 
Q 2931 909 2931 1356 
Q 2931 1769 2642 2001 
Q 2353 2234 1838 2234 
L 1294 2234 
L 1294 2753 
L 1863 2753 
Q 2328 2753 2575 2939 
Q 2822 3125 2822 3475 
Q 2822 3834 2567 4026 
Q 2313 4219 1838 4219 
Q 1578 4219 1281 4162 
Q 984 4106 628 3988 
L 628 4550 
Q 988 4650 1302 4700 
Q 1616 4750 1894 4750 
Q 2613 4750 3031 4423 
Q 3450 4097 3450 3541 
Q 3450 3153 3228 2886 
Q 3006 2619 2597 2516 
z
" transform="scale(0.015625)"/>
       </defs>
       <use xlink:href="#DejaVuSans-33"/>
       <use xlink:href="#DejaVuSans-30" x="63.623047"/>
       <use xlink:href="#DejaVuSans-30" x="127.246094"/>
      </g>
     </g>
    </g>
    <g id="xtick_5">
     <g id="text_5">
      <!-- 400 -->
      <g style="fill: #262626" transform="translate(360.994014 322.258281) scale(0.11 -0.11)">
       <defs>
        <path id="DejaVuSans-34" d="M 2419 4116 
L 825 1625 
L 2419 1625 
L 2419 4116 
z
M 2253 4666 
L 3047 4666 
L 3047 1625 
L 3713 1625 
L 3713 1100 
L 3047 1100 
L 3047 0 
L 2419 0 
L 2419 1100 
L 313 1100 
L 313 1709 
L 2253 4666 
z
" transform="scale(0.015625)"/>
       </defs>
       <use xlink:href="#DejaVuSans-34"/>
       <use xlink:href="#DejaVuSans-30" x="63.623047"/>
       <use xlink:href="#DejaVuSans-30" x="127.246094"/>
      </g>
     </g>
    </g>
    <g id="xtick_6">
     <g id="text_6">
      <!-- 500 -->
      <g style="fill: #262626" transform="translate(432.154517 322.258281) scale(0.11 -0.11)">
       <defs>
        <path id="DejaVuSans-35" d="M 691 4666 
L 3169 4666 
L 3169 4134 
L 1269 4134 
L 1269 2991 
Q 1406 3038 1543 3061 
Q 1681 3084 1819 3084 
Q 2600 3084 3056 2656 
Q 3513 2228 3513 1497 
Q 3513 744 3044 326 
Q 2575 -91 1722 -91 
Q 1428 -91 1123 -41 
Q 819 9 494 109 
L 494 744 
Q 775 591 1075 516 
Q 1375 441 1709 441 
Q 2250 441 2565 725 
Q 2881 1009 2881 1497 
Q 2881 1984 2565 2268 
Q 2250 2553 1709 2553 
Q 1456 2553 1204 2497 
Q 953 2441 691 2322 
L 691 4666 
z
" transform="scale(0.015625)"/>
       </defs>
       <use xlink:href="#DejaVuSans-35"/>
       <use xlink:href="#DejaVuSans-30" x="63.623047"/>
       <use xlink:href="#DejaVuSans-30" x="127.246094"/>
      </g>
     </g>
    </g>
    <g id="text_7">
     <!-- rank -->
     <g style="fill: #262626" transform="translate(251.686875 337.664062) scale(0.12 -0.12)">
      <defs>
       <path id="DejaVuSans-72" d="M 2631 2963 
Q 2534 3019 2420 3045 
Q 2306 3072 2169 3072 
Q 1681 3072 1420 2755 
Q 1159 2438 1159 1844 
L 1159 0 
L 581 0 
L 581 3500 
L 1159 3500 
L 1159 2956 
Q 1341 3275 1631 3429 
Q 1922 3584 2338 3584 
Q 2397 3584 2469 3576 
Q 2541 3569 2628 3553 
L 2631 2963 
z
" transform="scale(0.015625)"/>
       <path id="DejaVuSans-61" d="M 2194 1759 
Q 1497 1759 1228 1600 
Q 959 1441 959 1056 
Q 959 750 1161 570 
Q 1363 391 1709 391 
Q 2188 391 2477 730 
Q 2766 1069 2766 1631 
L 2766 1759 
L 2194 1759 
z
M 3341 1997 
L 3341 0 
L 2766 0 
L 2766 531 
Q 2569 213 2275 61 
Q 1981 -91 1556 -91 
Q 1019 -91 701 211 
Q 384 513 384 1019 
Q 384 1609 779 1909 
Q 1175 2209 1959 2209 
L 2766 2209 
L 2766 2266 
Q 2766 2663 2505 2880 
Q 2244 3097 1772 3097 
Q 1472 3097 1187 3025 
Q 903 2953 641 2809 
L 641 3341 
Q 956 3463 1253 3523 
Q 1550 3584 1831 3584 
Q 2591 3584 2966 3190 
Q 3341 2797 3341 1997 
z
" transform="scale(0.015625)"/>
       <path id="DejaVuSans-6e" d="M 3513 2113 
L 3513 0 
L 2938 0 
L 2938 2094 
Q 2938 2591 2744 2837 
Q 2550 3084 2163 3084 
Q 1697 3084 1428 2787 
Q 1159 2491 1159 1978 
L 1159 0 
L 581 0 
L 581 3500 
L 1159 3500 
L 1159 2956 
Q 1366 3272 1645 3428 
Q 1925 3584 2291 3584 
Q 2894 3584 3203 3211 
Q 3513 2838 3513 2113 
z
" transform="scale(0.015625)"/>
       <path id="DejaVuSans-6b" d="M 581 4863 
L 1159 4863 
L 1159 1991 
L 2875 3500 
L 3609 3500 
L 1753 1863 
L 3688 0 
L 2938 0 
L 1159 1709 
L 1159 0 
L 581 0 
L 581 4863 
z
" transform="scale(0.015625)"/>
      </defs>
      <use xlink:href="#DejaVuSans-72"/>
      <use xlink:href="#DejaVuSans-61" x="41.113281"/>
      <use xlink:href="#DejaVuSans-6e" x="102.392578"/>
      <use xlink:href="#DejaVuSans-6b" x="165.771484"/>
     </g>
    </g>
   </g>
   <g id="matplotlib.axis_2">
    <g id="ytick_1">
     <g id="text_8">
      <!-- 0.0 -->
      <g style="fill: #262626" transform="translate(22.81375 275.979141) scale(0.11 -0.11)">
       <defs>
        <path id="DejaVuSans-2e" d="M 684 794 
L 1344 794 
L 1344 0 
L 684 0 
L 684 794 
z
" transform="scale(0.015625)"/>
       </defs>
       <use xlink:href="#DejaVuSans-30"/>
       <use xlink:href="#DejaVuSans-2e" x="63.623047"/>
       <use xlink:href="#DejaVuSans-30" x="95.410156"/>
      </g>
     </g>
    </g>
    <g id="ytick_2">
     <g id="text_9">
      <!-- 0.5 -->
      <g style="fill: #262626" transform="translate(22.81375 243.761578) scale(0.11 -0.11)">
       <use xlink:href="#DejaVuSans-30"/>
       <use xlink:href="#DejaVuSans-2e" x="63.623047"/>
       <use xlink:href="#DejaVuSans-35" x="95.410156"/>
      </g>
     </g>
    </g>
    <g id="ytick_3">
     <g id="text_10">
      <!-- 1.0 -->
      <g style="fill: #262626" transform="translate(22.81375 211.544016) scale(0.11 -0.11)">
       <use xlink:href="#DejaVuSans-31"/>
       <use xlink:href="#DejaVuSans-2e" x="63.623047"/>
       <use xlink:href="#DejaVuSans-30" x="95.410156"/>
      </g>
     </g>
    </g>
    <g id="ytick_4">
     <g id="text_11">
      <!-- 1.5 -->
      <g style="fill: #262626" transform="translate(22.81375 179.326454) scale(0.11 -0.11)">
       <use xlink:href="#DejaVuSans-31"/>
       <use xlink:href="#DejaVuSans-2e" x="63.623047"/>
       <use xlink:href="#DejaVuSans-35" x="95.410156"/>
      </g>
     </g>
    </g>
    <g id="ytick_5">
     <g id="text_12">
      <!-- 2.0 -->
      <g style="fill: #262626" transform="translate(22.81375 147.108892) scale(0.11 -0.11)">
       <use xlink:href="#DejaVuSans-32"/>
       <use xlink:href="#DejaVuSans-2e" x="63.623047"/>
       <use xlink:href="#DejaVuSans-30" x="95.410156"/>
      </g>
     </g>
    </g>
    <g id="ytick_6">
     <g id="text_13">
      <!-- 2.5 -->
      <g style="fill: #262626" transform="translate(22.81375 114.891329) scale(0.11 -0.11)">
       <use xlink:href="#DejaVuSans-32"/>
       <use xlink:href="#DejaVuSans-2e" x="63.623047"/>
       <use xlink:href="#DejaVuSans-35" x="95.410156"/>
      </g>
     </g>
    </g>
    <g id="ytick_7">
     <g id="text_14">
      <!-- 3.0 -->
      <g style="fill: #262626" transform="translate(22.81375 82.673767) scale(0.11 -0.11)">
       <use xlink:href="#DejaVuSans-33"/>
       <use xlink:href="#DejaVuSans-2e" x="63.623047"/>
       <use xlink:href="#DejaVuSans-30" x="95.410156"/>
      </g>
     </g>
    </g>
    <g id="ytick_8">
     <g id="text_15">
      <!-- 3.5 -->
      <g style="fill: #262626" transform="translate(22.81375 50.456205) scale(0.11 -0.11)">
       <use xlink:href="#DejaVuSans-33"/>
       <use xlink:href="#DejaVuSans-2e" x="63.623047"/>
       <use xlink:href="#DejaVuSans-35" x="95.410156"/>
      </g>
     </g>
    </g>
    <g id="ytick_9">
     <g id="text_16">
      <!-- 4.0 -->
      <g style="fill: #262626" transform="translate(22.81375 18.238642) scale(0.11 -0.11)">
       <use xlink:href="#DejaVuSans-34"/>
       <use xlink:href="#DejaVuSans-2e" x="63.623047"/>
       <use xlink:href="#DejaVuSans-30" x="95.410156"/>
      </g>
     </g>
    </g>
    <g id="text_17">
     <!-- eigenvalue -->
     <g style="fill: #262626" transform="translate(16.318125 178.851562) rotate(-90) scale(0.12 -0.12)">
      <defs>
       <path id="DejaVuSans-65" d="M 3597 1894 
L 3597 1613 
L 953 1613 
Q 991 1019 1311 708 
Q 1631 397 2203 397 
Q 2534 397 2845 478 
Q 3156 559 3463 722 
L 3463 178 
Q 3153 47 2828 -22 
Q 2503 -91 2169 -91 
Q 1331 -91 842 396 
Q 353 884 353 1716 
Q 353 2575 817 3079 
Q 1281 3584 2069 3584 
Q 2775 3584 3186 3129 
Q 3597 2675 3597 1894 
z
M 3022 2063 
Q 3016 2534 2758 2815 
Q 2500 3097 2075 3097 
Q 1594 3097 1305 2825 
Q 1016 2553 972 2059 
L 3022 2063 
z
" transform="scale(0.015625)"/>
       <path id="DejaVuSans-69" d="M 603 3500 
L 1178 3500 
L 1178 0 
L 603 0 
L 603 3500 
z
M 603 4863 
L 1178 4863 
L 1178 4134 
L 603 4134 
L 603 4863 
z
" transform="scale(0.015625)"/>
       <path id="DejaVuSans-67" d="M 2906 1791 
Q 2906 2416 2648 2759 
Q 2391 3103 1925 3103 
Q 1463 3103 1205 2759 
Q 947 2416 947 1791 
Q 947 1169 1205 825 
Q 1463 481 1925 481 
Q 2391 481 2648 825 
Q 2906 1169 2906 1791 
z
M 3481 434 
Q 3481 -459 3084 -895 
Q 2688 -1331 1869 -1331 
Q 1566 -1331 1297 -1286 
Q 1028 -1241 775 -1147 
L 775 -588 
Q 1028 -725 1275 -790 
Q 1522 -856 1778 -856 
Q 2344 -856 2625 -561 
Q 2906 -266 2906 331 
L 2906 616 
Q 2728 306 2450 153 
Q 2172 0 1784 0 
Q 1141 0 747 490 
Q 353 981 353 1791 
Q 353 2603 747 3093 
Q 1141 3584 1784 3584 
Q 2172 3584 2450 3431 
Q 2728 3278 2906 2969 
L 2906 3500 
L 3481 3500 
L 3481 434 
z
" transform="scale(0.015625)"/>
       <path id="DejaVuSans-76" d="M 191 3500 
L 800 3500 
L 1894 563 
L 2988 3500 
L 3597 3500 
L 2284 0 
L 1503 0 
L 191 3500 
z
" transform="scale(0.015625)"/>
       <path id="DejaVuSans-6c" d="M 603 4863 
L 1178 4863 
L 1178 0 
L 603 0 
L 603 4863 
z
" transform="scale(0.015625)"/>
       <path id="DejaVuSans-75" d="M 544 1381 
L 544 3500 
L 1119 3500 
L 1119 1403 
Q 1119 906 1312 657 
Q 1506 409 1894 409 
Q 2359 409 2629 706 
Q 2900 1003 2900 1516 
L 2900 3500 
L 3475 3500 
L 3475 0 
L 2900 0 
L 2900 538 
Q 2691 219 2414 64 
Q 2138 -91 1772 -91 
Q 1169 -91 856 284 
Q 544 659 544 1381 
z
M 1991 3584 
L 1991 3584 
z
" transform="scale(0.015625)"/>
      </defs>
      <use xlink:href="#DejaVuSans-65"/>
      <use xlink:href="#DejaVuSans-69" x="61.523438"/>
      <use xlink:href="#DejaVuSans-67" x="89.306641"/>
      <use xlink:href="#DejaVuSans-65" x="152.783203"/>
      <use xlink:href="#DejaVuSans-6e" x="214.306641"/>
      <use xlink:href="#DejaVuSans-76" x="277.685547"/>
      <use xlink:href="#DejaVuSans-61" x="336.865234"/>
      <use xlink:href="#DejaVuSans-6c" x="398.144531"/>
      <use xlink:href="#DejaVuSans-75" x="425.927734"/>
      <use xlink:href="#DejaVuSans-65" x="489.306641"/>
     </g>
    </g>
   </g>
   <g id="PolyCollection_1"/>
   <g id="line2d_1">
    <path d="M 87.561733 19.8 
L 88.273338 21.984357 
L 88.984943 26.198778 
L 89.696548 27.021963 
L 90.408153 29.26647 
L 91.119758 34.619438 
L 92.542968 40.676162 
L 93.254573 41.033368 
L 93.966178 44.440606 
L 94.677783 46.605878 
L 95.389388 49.533688 
L 96.100993 50.529557 
L 96.812598 51.013856 
L 97.524203 53.727716 
L 98.235808 54.255858 
L 98.947413 56.128867 
L 99.659018 57.166349 
L 100.370623 58.568913 
L 101.793834 63.973895 
L 102.505439 64.758631 
L 103.928649 68.62498 
L 104.640254 70.103834 
L 105.351859 72.92933 
L 106.063464 73.762472 
L 106.775069 74.983489 
L 107.486674 76.713721 
L 108.198279 77.995685 
L 108.909884 79.754485 
L 109.621489 82.689079 
L 110.333094 83.118621 
L 111.044699 85.774941 
L 111.756304 87.306534 
L 112.467909 88.268996 
L 113.179514 88.520473 
L 116.025934 93.269946 
L 116.737539 95.308824 
L 117.449144 96.862045 
L 118.160749 97.957845 
L 118.872354 98.615079 
L 119.583959 100.08121 
L 121.007169 101.855803 
L 122.430379 103.699568 
L 123.853589 106.656382 
L 124.565194 106.75306 
L 125.276799 109.237518 
L 127.411615 111.825159 
L 128.12322 112.058751 
L 128.834825 113.333542 
L 129.54643 114.217616 
L 130.258035 116.862164 
L 131.681245 118.111673 
L 132.39285 119.875948 
L 133.104455 120.48752 
L 133.81606 120.885303 
L 135.23927 122.93691 
L 135.950875 123.366581 
L 136.66248 124.731573 
L 137.374085 124.868564 
L 138.08569 126.502845 
L 138.797295 127.45595 
L 139.5089 128.749536 
L 140.220505 129.761143 
L 140.93211 130.208342 
L 141.643715 130.454922 
L 142.35532 131.807066 
L 143.77853 133.796855 
L 144.490135 134.599109 
L 145.20174 134.990892 
L 145.913345 135.741343 
L 146.62495 137.019263 
L 149.47137 140.124569 
L 150.182975 140.759479 
L 150.89458 141.733225 
L 151.606185 142.490644 
L 152.317791 144.501832 
L 153.741001 146.053403 
L 155.164211 147.038421 
L 155.875816 147.312747 
L 156.587421 148.535243 
L 157.299026 149.136527 
L 158.010631 149.52726 
L 158.722236 150.676863 
L 159.433841 151.092389 
L 160.145446 151.778772 
L 160.857051 153.0108 
L 162.280261 155.032711 
L 162.991866 155.431212 
L 163.703471 156.041584 
L 164.415076 156.335243 
L 165.126681 156.841375 
L 165.838286 157.169064 
L 166.549891 158.113503 
L 167.261496 160.293131 
L 167.973101 160.698875 
L 168.684706 161.432718 
L 169.396311 161.77025 
L 170.819521 162.829278 
L 171.531126 163.940517 
L 172.242731 164.70774 
L 172.954336 165.752753 
L 173.665941 165.789182 
L 174.377546 166.379458 
L 177.223967 169.29635 
L 177.935572 169.450421 
L 178.647177 169.943667 
L 180.070387 171.527911 
L 180.781992 172.101551 
L 181.493597 172.916544 
L 182.205202 174.380546 
L 182.916807 174.462402 
L 184.340017 175.838749 
L 187.186437 178.268746 
L 187.898042 179.13171 
L 188.609647 179.334555 
L 189.321252 179.854544 
L 190.032857 180.092846 
L 190.744462 181.167681 
L 191.456067 181.542775 
L 192.167672 182.20157 
L 192.879277 182.265946 
L 194.302487 183.221622 
L 195.014092 184.069716 
L 195.725697 184.43082 
L 197.860512 186.508224 
L 198.572117 187.065198 
L 199.283722 188.467464 
L 199.995327 189.012437 
L 202.130143 189.700839 
L 202.841748 190.053013 
L 203.553353 190.721929 
L 204.264958 191.906036 
L 204.976563 192.104821 
L 205.688168 192.608872 
L 206.399773 193.633811 
L 207.111378 193.940446 
L 210.669403 196.216905 
L 211.381008 196.500626 
L 212.092613 197.249205 
L 212.804218 197.540743 
L 213.515823 198.391444 
L 214.939033 199.359451 
L 215.650638 199.604147 
L 217.785453 201.836641 
L 218.497058 202.016911 
L 219.208663 202.877281 
L 219.920268 203.504935 
L 222.055083 204.780648 
L 222.766688 204.890928 
L 223.478293 205.4907 
L 224.901503 206.425718 
L 225.613108 206.573212 
L 226.324713 207.494834 
L 227.747924 208.139846 
L 228.459529 208.783819 
L 229.171134 209.004473 
L 229.882739 209.682662 
L 230.594344 209.902938 
L 231.305949 210.559411 
L 233.440764 211.357087 
L 234.863974 212.480304 
L 235.575579 212.975865 
L 236.287184 213.079618 
L 237.710394 214.288449 
L 239.133604 215.817185 
L 239.845209 216.191537 
L 240.556814 216.387417 
L 241.268419 216.864194 
L 241.980024 217.154467 
L 245.538049 219.364904 
L 246.249654 219.496982 
L 247.672864 220.119886 
L 249.096074 220.750019 
L 249.807679 221.38346 
L 251.942494 222.703684 
L 252.6541 222.86401 
L 253.365705 223.569036 
L 254.07731 223.748477 
L 255.50052 225.008514 
L 256.212125 225.416624 
L 256.92373 225.49906 
L 257.635335 225.783747 
L 258.34694 226.314458 
L 259.058545 226.524072 
L 259.77015 226.857168 
L 260.481755 227.384201 
L 261.19336 227.672631 
L 261.904965 228.233723 
L 263.328175 228.656299 
L 264.03978 229.337483 
L 264.751385 229.65619 
L 266.174595 229.9503 
L 266.8862 230.4695 
L 267.597805 230.811425 
L 268.30941 230.83385 
L 269.021015 231.290206 
L 269.73262 231.905789 
L 270.444225 232.000269 
L 271.867435 233.030278 
L 272.57904 233.210045 
L 273.290645 233.752866 
L 274.00225 233.895325 
L 274.713855 234.480899 
L 276.137065 234.926211 
L 279.695091 236.867283 
L 281.829906 237.550231 
L 283.253116 238.224546 
L 284.676326 239.018708 
L 285.387931 239.469229 
L 286.099536 239.61177 
L 286.811141 239.920883 
L 287.522746 240.104661 
L 288.234351 240.426487 
L 289.657561 240.666251 
L 290.369166 241.202915 
L 293.215586 242.318908 
L 294.638796 242.762446 
L 295.350401 243.262404 
L 296.062006 243.314389 
L 296.773611 243.505125 
L 299.620031 245.131671 
L 300.331636 245.200488 
L 301.754846 245.629803 
L 302.466451 246.142652 
L 303.178057 246.489919 
L 304.601267 246.846824 
L 305.312872 247.419339 
L 306.024477 247.428519 
L 306.736082 247.638055 
L 307.447687 248.021087 
L 308.159292 248.270842 
L 308.870897 248.704033 
L 309.582502 248.86058 
L 310.294107 249.17956 
L 311.005712 249.37653 
L 311.717317 249.857702 
L 312.428922 249.901932 
L 313.140527 250.319789 
L 315.275342 250.805368 
L 315.986947 251.187822 
L 318.121762 251.614922 
L 320.968182 252.550478 
L 322.391392 252.799184 
L 323.102997 253.185963 
L 325.237812 253.813316 
L 326.661022 254.095324 
L 327.372627 254.470857 
L 330.219048 255.173311 
L 330.930653 255.574765 
L 333.065468 256.091078 
L 333.777073 256.358266 
L 334.488678 256.502654 
L 335.200283 256.80625 
L 336.623493 257.245212 
L 338.758308 257.859591 
L 339.469913 257.971755 
L 340.181518 258.240938 
L 340.893123 258.260076 
L 341.604728 258.501239 
L 343.027938 258.674034 
L 343.739543 258.926035 
L 344.451148 258.962835 
L 345.162753 259.260599 
L 345.874358 259.768049 
L 355.836829 262.001557 
L 357.260039 262.2989 
L 357.971644 262.33992 
L 359.394854 262.907863 
L 360.106459 262.949275 
L 365.087694 264.005772 
L 365.799299 264.042924 
L 366.510904 264.412103 
L 368.645719 264.67933 
L 370.780534 265.228087 
L 371.492139 265.240964 
L 374.338559 265.898386 
L 377.184979 266.353099 
L 377.896584 266.542018 
L 381.45461 266.947738 
L 382.87782 267.190825 
L 385.012635 267.415293 
L 385.72424 267.689915 
L 387.859055 267.8215 
L 388.57066 268.096282 
L 393.551895 268.649218 
L 394.975105 268.802124 
L 396.398315 268.963352 
L 398.53313 269.280055 
L 399.95634 269.506338 
L 409.207206 270.368214 
L 422.727701 271.320758 
L 427.708936 271.507213 
L 431.266962 271.64096 
L 442.652642 271.8 
L 442.652642 271.8 
" clip-path="url(#pe29ce0a974)" style="fill: none; stroke: #4c72b0; stroke-width: 1.5; stroke-linecap: round"/>
   </g>
   <g id="patch_3">
    <path d="M 49.807187 284.4 
L 49.807187 7.2 
" style="fill: none; stroke: #262626; stroke-width: 1.25; stroke-linejoin: miter; stroke-linecap: square"/>
   </g>
   <g id="patch_4">
    <path d="M 69.807187 304.4 
L 460.407187 304.4 
" style="fill: none; stroke: #262626; stroke-width: 1.25; stroke-linejoin: miter; stroke-linecap: square"/>
   </g>
  </g>
 </g>
 <defs>
  <clipPath id="pe29ce0a974">
   <rect x="69.807187" y="7.2" width="390.6" height="277.2"/>
  </clipPath>
 </defs>
</svg>
