<?xml version="1.0" encoding="utf-8" standalone="no"?>
<!DOCTYPE svg PUBLIC "-//W3C//DTD SVG 1.1//EN"
  "http://www.w3.org/Graphics/SVG/1.1/DTD/svg11.dtd">
<svg xmlns:xlink="http://www.w3.org/1999/xlink" width="455.96375pt" height="327.359688pt" viewBox="0 0 455.96375 327.359688" xmlns="http://www.w3.org/2000/svg" version="1.1">
 <metadata>
  <rdf:RDF xmlns:dc="http://purl.org/dc/elements/1.1/" xmlns:cc="http://creativecommons.org/ns#" xmlns:rdf="http://www.w3.org/1999/02/22-rdf-syntax-ns#">
   <cc:Work>
    <dc:type rdf:resource="http://purl.org/dc/dcmitype/StillImage"/>
    <dc:date>2023-08-15T23:45:15.583879</dc:date>
    <dc:format>image/svg+xml</dc:format>
    <dc:creator>
     <cc:Agent>
      <dc:title>Matplotlib v3.7.2, https://matplotlib.org/</dc:title>
     </cc:Agent>
    </dc:creator>
   </cc:Work>
  </rdf:RDF>
 </metadata>
 <defs>
  <style type="text/css">*{stroke-linejoin: round; stroke-linecap: butt}</style>
 </defs>
 <g id="figure_1">
  <g id="patch_1">
   <path d="M 0 327.359688 
L 455.96375 327.359688 
L 455.96375 0 
L 0 0 
z
" style="fill: #ffffff"/>
  </g>
  <g id="axes_1">
   <g id="patch_2">
    <path d="M 58.16375 284.4 
L 448.76375 284.4 
L 448.76375 7.2 
L 58.16375 7.2 
z
" style="fill: #ffffff"/>
   </g>
   <g id="matplotlib.axis_1">
    <g id="xtick_1">
     <g id="text_1">
      <!-- $\mathdefault{10^{0}}$ -->
      <g style="fill: #262626" transform="translate(48.48375 302.258281) scale(0.11 -0.11)">
       <defs>
        <path id="DejaVuSans-31" d="M 794 531 
L 1825 531 
L 1825 4091 
L 703 3866 
L 703 4441 
L 1819 4666 
L 2450 4666 
L 2450 531 
L 3481 531 
L 3481 0 
L 794 0 
L 794 531 
z
" transform="scale(0.015625)"/>
        <path id="DejaVuSans-30" d="M 2034 4250 
Q 1547 4250 1301 3770 
Q 1056 3291 1056 2328 
Q 1056 1369 1301 889 
Q 1547 409 2034 409 
Q 2525 409 2770 889 
Q 3016 1369 3016 2328 
Q 3016 3291 2770 3770 
Q 2525 4250 2034 4250 
z
M 2034 4750 
Q 2819 4750 3233 4129 
Q 3647 3509 3647 2328 
Q 3647 1150 3233 529 
Q 2819 -91 2034 -91 
Q 1250 -91 836 529 
Q 422 1150 422 2328 
Q 422 3509 836 4129 
Q 1250 4750 2034 4750 
z
" transform="scale(0.015625)"/>
       </defs>
       <use xlink:href="#DejaVuSans-31" transform="translate(0 0.765625)"/>
       <use xlink:href="#DejaVuSans-30" transform="translate(63.623047 0.765625)"/>
       <use xlink:href="#DejaVuSans-30" transform="translate(128.203125 39.046875) scale(0.7)"/>
      </g>
     </g>
    </g>
    <g id="xtick_2">
     <g id="text_2">
      <!-- $\mathdefault{10^{1}}$ -->
      <g style="fill: #262626" transform="translate(184.788528 302.258281) scale(0.11 -0.11)">
       <use xlink:href="#DejaVuSans-31" transform="translate(0 0.684375)"/>
       <use xlink:href="#DejaVuSans-30" transform="translate(63.623047 0.684375)"/>
       <use xlink:href="#DejaVuSans-31" transform="translate(128.203125 38.965625) scale(0.7)"/>
      </g>
     </g>
    </g>
    <g id="xtick_3">
     <g id="text_3">
      <!-- $\mathdefault{10^{2}}$ -->
      <g style="fill: #262626" transform="translate(321.093306 302.258281) scale(0.11 -0.11)">
       <defs>
        <path id="DejaVuSans-32" d="M 1228 531 
L 3431 531 
L 3431 0 
L 469 0 
L 469 531 
Q 828 903 1448 1529 
Q 2069 2156 2228 2338 
Q 2531 2678 2651 2914 
Q 2772 3150 2772 3378 
Q 2772 3750 2511 3984 
Q 2250 4219 1831 4219 
Q 1534 4219 1204 4116 
Q 875 4013 500 3803 
L 500 4441 
Q 881 4594 1212 4672 
Q 1544 4750 1819 4750 
Q 2544 4750 2975 4387 
Q 3406 4025 3406 3419 
Q 3406 3131 3298 2873 
Q 3191 2616 2906 2266 
Q 2828 2175 2409 1742 
Q 1991 1309 1228 531 
z
" transform="scale(0.015625)"/>
       </defs>
       <use xlink:href="#DejaVuSans-31" transform="translate(0 0.765625)"/>
       <use xlink:href="#DejaVuSans-30" transform="translate(63.623047 0.765625)"/>
       <use xlink:href="#DejaVuSans-32" transform="translate(128.203125 39.046875) scale(0.7)"/>
      </g>
     </g>
    </g>
    <g id="xtick_4"/>
    <g id="xtick_5"/>
    <g id="xtick_6"/>
    <g id="xtick_7"/>
    <g id="xtick_8"/>
    <g id="xtick_9"/>
    <g id="xtick_10"/>
    <g id="xtick_11"/>
    <g id="xtick_12"/>
    <g id="xtick_13"/>
    <g id="xtick_14"/>
    <g id="xtick_15"/>
    <g id="xtick_16"/>
    <g id="xtick_17"/>
    <g id="xtick_18"/>
    <g id="xtick_19"/>
    <g id="xtick_20"/>
    <g id="xtick_21"/>
    <g id="xtick_22"/>
    <g id="xtick_23"/>
    <g id="xtick_24"/>
    <g id="xtick_25"/>
    <g id="text_4">
     <!-- rank -->
     <g style="fill: #262626" transform="translate(240.043438 317.664062) scale(0.12 -0.12)">
      <defs>
       <path id="DejaVuSans-72" d="M 2631 2963 
Q 2534 3019 2420 3045 
Q 2306 3072 2169 3072 
Q 1681 3072 1420 2755 
Q 1159 2438 1159 1844 
L 1159 0 
L 581 0 
L 581 3500 
L 1159 3500 
L 1159 2956 
Q 1341 3275 1631 3429 
Q 1922 3584 2338 3584 
Q 2397 3584 2469 3576 
Q 2541 3569 2628 3553 
L 2631 2963 
z
" transform="scale(0.015625)"/>
       <path id="DejaVuSans-61" d="M 2194 1759 
Q 1497 1759 1228 1600 
Q 959 1441 959 1056 
Q 959 750 1161 570 
Q 1363 391 1709 391 
Q 2188 391 2477 730 
Q 2766 1069 2766 1631 
L 2766 1759 
L 2194 1759 
z
M 3341 1997 
L 3341 0 
L 2766 0 
L 2766 531 
Q 2569 213 2275 61 
Q 1981 -91 1556 -91 
Q 1019 -91 701 211 
Q 384 513 384 1019 
Q 384 1609 779 1909 
Q 1175 2209 1959 2209 
L 2766 2209 
L 2766 2266 
Q 2766 2663 2505 2880 
Q 2244 3097 1772 3097 
Q 1472 3097 1187 3025 
Q 903 2953 641 2809 
L 641 3341 
Q 956 3463 1253 3523 
Q 1550 3584 1831 3584 
Q 2591 3584 2966 3190 
Q 3341 2797 3341 1997 
z
" transform="scale(0.015625)"/>
       <path id="DejaVuSans-6e" d="M 3513 2113 
L 3513 0 
L 2938 0 
L 2938 2094 
Q 2938 2591 2744 2837 
Q 2550 3084 2163 3084 
Q 1697 3084 1428 2787 
Q 1159 2491 1159 1978 
L 1159 0 
L 581 0 
L 581 3500 
L 1159 3500 
L 1159 2956 
Q 1366 3272 1645 3428 
Q 1925 3584 2291 3584 
Q 2894 3584 3203 3211 
Q 3513 2838 3513 2113 
z
" transform="scale(0.015625)"/>
       <path id="DejaVuSans-6b" d="M 581 4863 
L 1159 4863 
L 1159 1991 
L 2875 3500 
L 3609 3500 
L 1753 1863 
L 3688 0 
L 2938 0 
L 1159 1709 
L 1159 0 
L 581 0 
L 581 4863 
z
" transform="scale(0.015625)"/>
      </defs>
      <use xlink:href="#DejaVuSans-72"/>
      <use xlink:href="#DejaVuSans-61" x="41.113281"/>
      <use xlink:href="#DejaVuSans-6e" x="102.392578"/>
      <use xlink:href="#DejaVuSans-6b" x="165.771484"/>
     </g>
    </g>
   </g>
   <g id="matplotlib.axis_2">
    <g id="ytick_1">
     <g id="text_5">
      <!-- $\mathdefault{10^{-2}}$ -->
      <g style="fill: #262626" transform="translate(22.81375 288.579141) scale(0.11 -0.11)">
       <defs>
        <path id="DejaVuSans-2212" d="M 678 2272 
L 4684 2272 
L 4684 1741 
L 678 1741 
L 678 2272 
z
" transform="scale(0.015625)"/>
       </defs>
       <use xlink:href="#DejaVuSans-31" transform="translate(0 0.765625)"/>
       <use xlink:href="#DejaVuSans-30" transform="translate(63.623047 0.765625)"/>
       <use xlink:href="#DejaVuSans-2212" transform="translate(128.203125 39.046875) scale(0.7)"/>
       <use xlink:href="#DejaVuSans-32" transform="translate(186.855469 39.046875) scale(0.7)"/>
      </g>
     </g>
    </g>
    <g id="ytick_2">
     <g id="text_6">
      <!-- $\mathdefault{10^{-1}}$ -->
      <g style="fill: #262626" transform="translate(22.81375 234.943671) scale(0.11 -0.11)">
       <use xlink:href="#DejaVuSans-31" transform="translate(0 0.684375)"/>
       <use xlink:href="#DejaVuSans-30" transform="translate(63.623047 0.684375)"/>
       <use xlink:href="#DejaVuSans-2212" transform="translate(128.203125 38.965625) scale(0.7)"/>
       <use xlink:href="#DejaVuSans-31" transform="translate(186.855469 38.965625) scale(0.7)"/>
      </g>
     </g>
    </g>
    <g id="ytick_3">
     <g id="text_7">
      <!-- $\mathdefault{10^{0}}$ -->
      <g style="fill: #262626" transform="translate(29.30375 181.308201) scale(0.11 -0.11)">
       <use xlink:href="#DejaVuSans-31" transform="translate(0 0.765625)"/>
       <use xlink:href="#DejaVuSans-30" transform="translate(63.623047 0.765625)"/>
       <use xlink:href="#DejaVuSans-30" transform="translate(128.203125 39.046875) scale(0.7)"/>
      </g>
     </g>
    </g>
    <g id="ytick_4">
     <g id="text_8">
      <!-- $\mathdefault{10^{1}}$ -->
      <g style="fill: #262626" transform="translate(29.30375 127.672731) scale(0.11 -0.11)">
       <use xlink:href="#DejaVuSans-31" transform="translate(0 0.684375)"/>
       <use xlink:href="#DejaVuSans-30" transform="translate(63.623047 0.684375)"/>
       <use xlink:href="#DejaVuSans-31" transform="translate(128.203125 38.965625) scale(0.7)"/>
      </g>
     </g>
    </g>
    <g id="ytick_5">
     <g id="text_9">
      <!-- $\mathdefault{10^{2}}$ -->
      <g style="fill: #262626" transform="translate(29.30375 74.037261) scale(0.11 -0.11)">
       <use xlink:href="#DejaVuSans-31" transform="translate(0 0.765625)"/>
       <use xlink:href="#DejaVuSans-30" transform="translate(63.623047 0.765625)"/>
       <use xlink:href="#DejaVuSans-32" transform="translate(128.203125 39.046875) scale(0.7)"/>
      </g>
     </g>
    </g>
    <g id="ytick_6">
     <g id="text_10">
      <!-- $\mathdefault{10^{3}}$ -->
      <g style="fill: #262626" transform="translate(29.30375 20.401791) scale(0.11 -0.11)">
       <defs>
        <path id="DejaVuSans-33" d="M 2597 2516 
Q 3050 2419 3304 2112 
Q 3559 1806 3559 1356 
Q 3559 666 3084 287 
Q 2609 -91 1734 -91 
Q 1441 -91 1130 -33 
Q 819 25 488 141 
L 488 750 
Q 750 597 1062 519 
Q 1375 441 1716 441 
Q 2309 441 2620 675 
Q 2931 909 2931 1356 
Q 2931 1769 2642 2001 
Q 2353 2234 1838 2234 
L 1294 2234 
L 1294 2753 
L 1863 2753 
Q 2328 2753 2575 2939 
Q 2822 3125 2822 3475 
Q 2822 3834 2567 4026 
Q 2313 4219 1838 4219 
Q 1578 4219 1281 4162 
Q 984 4106 628 3988 
L 628 4550 
Q 988 4650 1302 4700 
Q 1616 4750 1894 4750 
Q 2613 4750 3031 4423 
Q 3450 4097 3450 3541 
Q 3450 3153 3228 2886 
Q 3006 2619 2597 2516 
z
" transform="scale(0.015625)"/>
       </defs>
       <use xlink:href="#DejaVuSans-31" transform="translate(0 0.765625)"/>
       <use xlink:href="#DejaVuSans-30" transform="translate(63.623047 0.765625)"/>
       <use xlink:href="#DejaVuSans-33" transform="translate(128.203125 39.046875) scale(0.7)"/>
      </g>
     </g>
    </g>
    <g id="ytick_7"/>
    <g id="ytick_8"/>
    <g id="ytick_9"/>
    <g id="ytick_10"/>
    <g id="ytick_11"/>
    <g id="ytick_12"/>
    <g id="ytick_13"/>
    <g id="ytick_14"/>
    <g id="ytick_15"/>
    <g id="ytick_16"/>
    <g id="ytick_17"/>
    <g id="ytick_18"/>
    <g id="ytick_19"/>
    <g id="ytick_20"/>
    <g id="ytick_21"/>
    <g id="ytick_22"/>
    <g id="ytick_23"/>
    <g id="ytick_24"/>
    <g id="ytick_25"/>
    <g id="ytick_26"/>
    <g id="ytick_27"/>
    <g id="ytick_28"/>
    <g id="ytick_29"/>
    <g id="ytick_30"/>
    <g id="ytick_31"/>
    <g id="ytick_32"/>
    <g id="ytick_33"/>
    <g id="ytick_34"/>
    <g id="ytick_35"/>
    <g id="ytick_36"/>
    <g id="ytick_37"/>
    <g id="ytick_38"/>
    <g id="ytick_39"/>
    <g id="ytick_40"/>
    <g id="ytick_41"/>
    <g id="ytick_42"/>
    <g id="ytick_43"/>
    <g id="ytick_44"/>
    <g id="ytick_45"/>
    <g id="ytick_46"/>
    <g id="text_11">
     <!-- eigenvalue -->
     <g style="fill: #262626" transform="translate(16.318125 178.851562) rotate(-90) scale(0.12 -0.12)">
      <defs>
       <path id="DejaVuSans-65" d="M 3597 1894 
L 3597 1613 
L 953 1613 
Q 991 1019 1311 708 
Q 1631 397 2203 397 
Q 2534 397 2845 478 
Q 3156 559 3463 722 
L 3463 178 
Q 3153 47 2828 -22 
Q 2503 -91 2169 -91 
Q 1331 -91 842 396 
Q 353 884 353 1716 
Q 353 2575 817 3079 
Q 1281 3584 2069 3584 
Q 2775 3584 3186 3129 
Q 3597 2675 3597 1894 
z
M 3022 2063 
Q 3016 2534 2758 2815 
Q 2500 3097 2075 3097 
Q 1594 3097 1305 2825 
Q 1016 2553 972 2059 
L 3022 2063 
z
" transform="scale(0.015625)"/>
       <path id="DejaVuSans-69" d="M 603 3500 
L 1178 3500 
L 1178 0 
L 603 0 
L 603 3500 
z
M 603 4863 
L 1178 4863 
L 1178 4134 
L 603 4134 
L 603 4863 
z
" transform="scale(0.015625)"/>
       <path id="DejaVuSans-67" d="M 2906 1791 
Q 2906 2416 2648 2759 
Q 2391 3103 1925 3103 
Q 1463 3103 1205 2759 
Q 947 2416 947 1791 
Q 947 1169 1205 825 
Q 1463 481 1925 481 
Q 2391 481 2648 825 
Q 2906 1169 2906 1791 
z
M 3481 434 
Q 3481 -459 3084 -895 
Q 2688 -1331 1869 -1331 
Q 1566 -1331 1297 -1286 
Q 1028 -1241 775 -1147 
L 775 -588 
Q 1028 -725 1275 -790 
Q 1522 -856 1778 -856 
Q 2344 -856 2625 -561 
Q 2906 -266 2906 331 
L 2906 616 
Q 2728 306 2450 153 
Q 2172 0 1784 0 
Q 1141 0 747 490 
Q 353 981 353 1791 
Q 353 2603 747 3093 
Q 1141 3584 1784 3584 
Q 2172 3584 2450 3431 
Q 2728 3278 2906 2969 
L 2906 3500 
L 3481 3500 
L 3481 434 
z
" transform="scale(0.015625)"/>
       <path id="DejaVuSans-76" d="M 191 3500 
L 800 3500 
L 1894 563 
L 2988 3500 
L 3597 3500 
L 2284 0 
L 1503 0 
L 191 3500 
z
" transform="scale(0.015625)"/>
       <path id="DejaVuSans-6c" d="M 603 4863 
L 1178 4863 
L 1178 0 
L 603 0 
L 603 4863 
z
" transform="scale(0.015625)"/>
       <path id="DejaVuSans-75" d="M 544 1381 
L 544 3500 
L 1119 3500 
L 1119 1403 
Q 1119 906 1312 657 
Q 1506 409 1894 409 
Q 2359 409 2629 706 
Q 2900 1003 2900 1516 
L 2900 3500 
L 3475 3500 
L 3475 0 
L 2900 0 
L 2900 538 
Q 2691 219 2414 64 
Q 2138 -91 1772 -91 
Q 1169 -91 856 284 
Q 544 659 544 1381 
z
M 1991 3584 
L 1991 3584 
z
" transform="scale(0.015625)"/>
      </defs>
      <use xlink:href="#DejaVuSans-65"/>
      <use xlink:href="#DejaVuSans-69" x="61.523438"/>
      <use xlink:href="#DejaVuSans-67" x="89.306641"/>
      <use xlink:href="#DejaVuSans-65" x="152.783203"/>
      <use xlink:href="#DejaVuSans-6e" x="214.306641"/>
      <use xlink:href="#DejaVuSans-76" x="277.685547"/>
      <use xlink:href="#DejaVuSans-61" x="336.865234"/>
      <use xlink:href="#DejaVuSans-6c" x="398.144531"/>
      <use xlink:href="#DejaVuSans-75" x="425.927734"/>
      <use xlink:href="#DejaVuSans-65" x="489.306641"/>
     </g>
    </g>
   </g>
   <g id="PolyCollection_1"/>
   <g id="PolyCollection_2"/>
   <g id="line2d_1">
    <path d="M 58.16375 46.556428 
L 99.195577 36.06505 
L 123.197657 60.688781 
L 140.227404 62.482929 
L 153.436701 83.071381 
L 164.229483 66.431294 
L 173.354651 92.928391 
L 181.25923 92.604366 
L 188.231563 85.128247 
L 194.468528 115.589298 
L 200.110549 92.212185 
L 205.26131 84.640992 
L 209.999551 89.105515 
L 214.386478 95.010032 
L 218.470608 86.07796 
L 222.291057 121.630872 
L 225.879817 103.754205 
L 229.26339 122.476435 
L 232.463976 126.27191 
L 235.500355 109.634872 
L 238.388558 115.714772 
L 241.142376 122.830101 
L 243.77376 109.254434 
L 246.293137 113.694734 
L 248.709653 115.638002 
L 251.031378 112.263826 
L 253.26547 133.109652 
L 255.418304 125.585772 
L 257.495585 116.861331 
L 259.502435 116.701695 
L 261.443475 130.327679 
L 263.322884 124.617518 
L 265.144456 120.346619 
L 266.911644 123.344762 
L 268.627602 135.675397 
L 270.295217 123.048671 
L 271.917138 127.441964 
L 273.495803 123.694459 
L 276.532182 126.668915 
L 277.993896 136.964124 
L 279.420384 131.099479 
L 282.174202 147.237085 
L 283.504515 132.410479 
L 284.805587 130.585191 
L 286.078677 137.335321 
L 287.324964 136.085587 
L 288.545552 132.070671 
L 289.741479 132.201863 
L 290.913724 140.931917 
L 292.063205 136.422817 
L 293.19079 138.468011 
L 294.297297 132.423672 
L 295.3835 139.272411 
L 296.450131 166.705436 
L 297.497883 140.670143 
L 298.527411 143.998532 
L 299.53934 156.716118 
L 300.534262 134.150593 
L 301.512737 154.926074 
L 302.475301 151.968452 
L 303.422464 150.872752 
L 304.354711 137.720905 
L 305.272503 158.752999 
L 306.176282 153.474469 
L 307.066471 149.375643 
L 307.943471 149.366412 
L 308.807667 148.741362 
L 309.659429 153.468872 
L 310.499108 146.83206 
L 311.327044 179.881652 
L 312.143559 155.337397 
L 312.948965 147.895107 
L 313.743559 148.783901 
L 314.527629 157.851955 
L 315.30145 156.857715 
L 316.065285 152.163249 
L 316.81939 161.749814 
L 317.564008 150.422412 
L 318.299377 155.376973 
L 319.025722 153.892691 
L 319.743263 149.313958 
L 320.452211 147.747209 
L 321.152768 149.830422 
L 321.845132 148.496424 
L 322.529491 159.656045 
L 323.206029 153.189671 
L 323.874922 160.294993 
L 324.536342 152.402921 
L 325.190452 149.783986 
L 325.837414 152.972449 
L 326.477381 160.473051 
L 327.110504 154.295022 
L 327.736927 149.596587 
L 328.35679 158.895713 
L 328.97023 163.948092 
L 329.577378 151.157128 
L 330.178362 156.029031 
L 330.773306 158.584066 
L 331.36233 164.911897 
L 331.945551 159.437756 
L 332.523081 157.491358 
L 333.095032 173.405355 
L 333.661509 158.495404 
L 334.222616 158.114659 
L 334.778455 154.292421 
L 335.329124 158.26694 
L 335.874717 157.210032 
L 336.415327 158.973002 
L 336.951045 165.620972 
L 337.481958 184.69029 
L 338.008152 165.317548 
L 338.529709 161.650213 
L 339.046712 155.711723 
L 339.559238 157.676816 
L 340.067365 170.393271 
L 340.571167 159.334654 
L 341.070718 175.340576 
L 341.566088 162.832787 
L 342.057348 164.435089 
L 342.544564 168.449031 
L 343.507128 161.553211 
L 343.982604 165.993976 
L 344.454291 158.482167 
L 344.922249 173.451528 
L 345.386537 161.131667 
L 345.847212 176.945768 
L 346.304329 178.999808 
L 346.757944 183.348503 
L 347.208109 162.535883 
L 347.654877 165.558788 
L 348.098297 171.084098 
L 348.538422 166.92903 
L 349.408973 172.268294 
L 349.839494 159.866335 
L 350.266907 167.838236 
L 350.691256 166.918675 
L 351.112584 170.111342 
L 351.530935 168.214242 
L 351.94635 169.371659 
L 352.35887 171.798232 
L 352.768536 165.496456 
L 353.175386 164.562789 
L 353.579458 177.514017 
L 353.980791 169.339379 
L 354.379422 182.79209 
L 354.775386 189.191903 
L 355.559456 170.454295 
L 355.947631 168.837716 
L 356.333276 168.856001 
L 356.716426 170.964621 
L 357.097112 174.944769 
L 357.475365 181.355744 
L 357.851216 179.132099 
L 358.224696 186.434875 
L 358.595835 168.789382 
L 358.964661 178.8709 
L 359.331204 175.752888 
L 359.69549 167.478998 
L 360.057549 171.743068 
L 360.417407 169.637008 
L 360.77509 169.946149 
L 361.130625 184.385589 
L 361.484038 172.430944 
L 361.835353 171.742601 
L 362.184595 170.793491 
L 362.531789 183.829738 
L 362.876959 172.580418 
L 363.220127 172.606427 
L 363.561318 175.906828 
L 363.900553 174.411422 
L 364.237856 183.820567 
L 364.573247 178.809937 
L 364.906749 176.401689 
L 365.238382 175.290289 
L 365.568168 181.755114 
L 365.896127 175.022711 
L 366.222279 182.842784 
L 366.546644 182.95987 
L 366.869241 190.376072 
L 367.509208 174.660926 
L 367.826616 186.493612 
L 368.142331 176.084908 
L 368.456371 174.684124 
L 368.768754 184.36322 
L 369.079497 188.916213 
L 369.388617 169.578684 
L 369.696132 178.177612 
L 370.002057 170.453151 
L 370.306409 185.685087 
L 370.609205 177.55958 
L 370.91046 177.791873 
L 371.210189 185.243725 
L 371.508408 173.364275 
L 371.805133 171.5523 
L 372.100377 178.795425 
L 372.394157 176.30625 
L 372.686485 183.779488 
L 372.977377 187.596538 
L 373.266847 199.666966 
L 373.554908 182.142518 
L 373.841574 184.255738 
L 374.126858 195.666887 
L 374.410775 182.755138 
L 374.693336 187.782591 
L 374.974554 180.722407 
L 375.254443 186.19576 
L 375.533015 186.846521 
L 375.810282 172.761296 
L 376.086257 171.962329 
L 376.36095 186.329981 
L 376.634375 189.234797 
L 376.906543 185.37711 
L 377.177466 185.856141 
L 377.447154 184.722274 
L 377.715619 197.12535 
L 378.248923 178.411966 
L 378.777466 191.85792 
L 379.039978 185.112163 
L 379.301332 207.101208 
L 379.561536 181.82305 
L 379.820602 186.898782 
L 380.078539 184.159519 
L 380.335356 188.826302 
L 380.591065 187.83105 
L 380.845673 188.295708 
L 381.099192 182.901601 
L 381.351629 195.118812 
L 381.602994 188.441754 
L 381.853296 176.889159 
L 382.102545 177.937181 
L 382.350748 176.96167 
L 382.844054 193.308057 
L 383.089174 243.772677 
L 383.333284 193.50693 
L 383.57639 181.592835 
L 383.818503 190.445011 
L 384.059629 181.53122 
L 384.299777 186.71819 
L 384.538955 196.239417 
L 384.77717 181.975814 
L 385.014431 188.619729 
L 385.250744 187.031842 
L 385.486118 186.884357 
L 385.720559 186.185471 
L 385.954076 201.194028 
L 386.418364 190.785396 
L 386.64915 190.561045 
L 386.879039 192.049329 
L 387.108039 179.887535 
L 387.336156 199.839183 
L 387.563398 186.267338 
L 387.789771 182.470513 
L 388.015281 183.343318 
L 388.239936 190.131006 
L 388.463741 185.641812 
L 388.686703 185.345897 
L 388.908829 182.265267 
L 389.130124 184.524015 
L 389.350595 188.057058 
L 389.570248 196.701317 
L 389.789089 184.945247 
L 390.007124 186.532463 
L 390.224359 185.730939 
L 390.440799 183.039269 
L 390.656451 182.900225 
L 390.871321 202.275071 
L 391.085413 192.953549 
L 391.298733 202.27047 
L 391.511288 187.712734 
L 391.723082 203.452492 
L 391.934121 180.069667 
L 392.144411 190.404897 
L 392.353956 181.196086 
L 392.562762 183.148614 
L 392.770834 182.091639 
L 392.978177 192.803176 
L 393.184796 190.496559 
L 393.390697 185.513643 
L 393.595884 208.234865 
L 393.800363 190.646699 
L 394.004137 200.994245 
L 394.207212 188.039001 
L 394.409594 196.348847 
L 394.611285 181.892466 
L 395.012618 195.947562 
L 395.212269 179.277576 
L 395.609562 205.434993 
L 395.807213 188.423016 
L 396.004206 199.617775 
L 396.396237 182.23525 
L 396.785688 192.181083 
L 396.979457 192.521789 
L 397.172594 211.024291 
L 397.365103 188.113052 
L 397.556988 185.550501 
L 397.748253 185.282624 
L 397.938902 196.485842 
L 398.128938 193.822873 
L 398.507192 182.41633 
L 398.695416 195.519352 
L 398.883043 242.586701 
L 399.070078 186.011647 
L 399.256523 191.676163 
L 399.442383 191.677658 
L 399.627662 198.921058 
L 399.812362 198.200876 
L 399.996488 190.263961 
L 400.36303 196.948914 
L 400.727317 193.297467 
L 400.908623 197.878339 
L 401.089376 205.621157 
L 401.269578 186.514795 
L 401.449234 214.757737 
L 401.628345 189.724014 
L 401.806917 181.592659 
L 401.984951 193.666062 
L 402.162452 193.75884 
L 402.339422 195.667748 
L 402.515865 187.658069 
L 402.86718 196.13821 
L 403.042058 209.099565 
L 403.216422 188.885986 
L 403.390274 191.669212 
L 403.563616 206.774435 
L 403.736452 191.83289 
L 403.908786 215.81391 
L 404.080619 191.069164 
L 404.251954 207.590517 
L 404.422795 198.509217 
L 404.593145 213.893514 
L 404.763005 185.091731 
L 404.93238 198.609254 
L 405.101272 199.904487 
L 405.269683 192.804947 
L 405.437616 197.955461 
L 405.605074 194.234969 
L 405.605492 328.359688 
M 405.938186 328.359688 
L 405.938576 202.731436 
L 406.104625 201.136799 
L 406.270209 215.760089 
L 406.599995 198.878862 
L 406.764202 202.668778 
L 406.927954 192.421075 
L 407.091254 194.118355 
L 407.254106 198.483861 
L 407.41651 206.355389 
L 407.739989 189.903475 
L 408.061709 216.877428 
L 408.221916 192.261698 
L 408.541035 201.630027 
L 408.699952 244.545716 
L 408.858443 199.730403 
L 409.016511 202.258693 
L 409.174158 187.197413 
L 409.331386 192.52453 
L 409.488198 193.04546 
L 409.644595 190.45589 
L 409.800581 221.171019 
L 409.956156 190.008119 
L 410.266086 199.704376 
L 410.420444 200.846065 
L 410.574401 228.539933 
L 410.881119 199.027754 
L 411.033884 245.97065 
L 411.186256 192.9088 
L 411.338236 207.63781 
L 411.489828 203.502353 
L 411.641032 214.473142 
L 411.791851 193.838797 
L 411.942286 193.996886 
L 412.092341 204.428352 
L 412.242016 197.356221 
L 412.391313 196.958909 
L 412.540235 194.301002 
L 412.688783 195.197035 
L 412.83696 192.496148 
L 412.984766 200.518454 
L 413.132204 191.492265 
L 413.279276 201.110424 
L 413.425984 194.486247 
L 413.572328 194.166522 
L 413.863937 216.338491 
L 414.009204 212.375128 
L 414.154116 193.365726 
L 414.298674 206.004299 
L 414.442879 201.721104 
L 414.586735 189.916185 
L 414.730241 211.463384 
L 414.873401 193.675413 
L 415.016215 204.688817 
L 415.158685 202.407367 
L 415.442601 259.614889 
L 415.58405 204.843084 
L 415.725162 203.144056 
L 416.006381 190.236497 
L 416.146491 195.788125 
L 416.28627 208.355689 
L 416.564842 209.291499 
L 416.703638 206.885394 
L 416.842109 211.172321 
L 416.980257 205.535435 
L 417.118083 194.498017 
L 417.25559 219.85528 
L 417.392777 202.955008 
L 417.666202 214.400508 
L 417.802443 239.507985 
L 417.93837 191.559903 
L 418.073986 195.80235 
L 418.209292 185.350929 
L 418.34429 205.715797 
L 418.47898 198.58887 
L 418.613365 199.214462 
L 418.613688 328.359688 
M 418.880918 328.359688 
L 418.881223 206.307085 
L 419.014698 192.8329 
L 419.147874 214.219764 
L 419.28075 197.981367 
L 419.413329 225.853724 
L 419.545611 206.602082 
L 419.809293 213.726958 
L 419.940694 237.567502 
L 420.202626 190.934651 
L 420.333158 201.090754 
L 420.463404 201.887777 
L 420.723037 195.289981 
L 420.852428 195.235573 
L 420.981537 213.733876 
L 421.110365 204.03563 
L 421.238913 242.912617 
L 421.367183 204.256332 
L 421.495175 213.940155 
L 421.622892 200.455829 
L 421.750333 207.753831 
L 421.8775 198.612125 
L 422.004395 208.609613 
L 422.131018 207.005435 
L 422.509272 190.567434 
L 422.760104 198.836154 
L 423.009878 195.03158 
L 423.134371 208.731691 
L 423.258603 191.457946 
L 423.382575 203.254264 
L 423.506287 186.024538 
L 423.629742 231.907533 
L 423.752939 234.110895 
L 423.875881 191.56168 
L 423.998568 222.166948 
L 424.121001 193.994628 
L 424.243182 225.310471 
L 424.36511 216.63185 
L 424.486789 195.202503 
L 424.608217 210.671012 
L 424.729397 201.460407 
L 424.85033 251.539204 
L 425.091456 222.990545 
L 425.211652 213.184282 
L 425.451314 217.511999 
L 425.570782 214.122661 
L 425.690009 196.942203 
L 425.808997 214.734307 
L 425.927746 206.61951 
L 426.164532 212.290134 
L 426.282571 246.37804 
L 426.517945 207.442789 
L 426.635281 220.256894 
L 426.752386 211.335641 
L 426.86926 221.051717 
L 426.985903 221.028195 
L 427.102317 202.137482 
L 427.33446 235.914433 
L 427.565696 210.182165 
L 427.680976 204.371811 
L 427.796033 210.062299 
L 427.910866 204.866113 
L 428.025476 224.071878 
L 428.139866 224.214757 
L 428.254034 195.728709 
L 428.367983 216.304369 
L 428.481713 211.0265 
L 428.595225 229.982321 
L 428.708519 203.833273 
L 428.93446 207.10303 
L 429.047108 209.601827 
L 429.159542 310.110914 
L 429.383771 205.863762 
L 429.495568 229.637917 
L 429.607154 206.130599 
L 429.829697 217.631588 
L 429.940656 218.724054 
L 430.051407 205.914003 
L 430.161951 223.615928 
L 430.272289 221.990119 
L 430.382422 210.809474 
L 430.382663 328.359688 
M 430.601824 328.359688 
L 430.602075 205.754882 
L 430.711597 210.237448 
L 430.820916 216.302744 
L 430.930034 241.005136 
L 431.147668 206.012649 
L 431.256186 201.901947 
L 431.364505 201.919227 
L 431.58055 214.787463 
L 431.688278 206.58651 
L 431.79581 214.57661 
L 431.903147 232.213131 
L 432.01029 201.366192 
L 432.11724 207.215309 
L 432.204484 328.359688 
M 432.243348 328.359688 
L 432.436933 200.579005 
L 432.543115 209.163919 
L 432.649107 202.668343 
L 432.754909 210.106641 
L 432.860523 257.922488 
L 432.965948 203.048608 
L 433.071186 225.384756 
L 433.176238 222.718638 
L 433.385783 206.048822 
L 433.490278 200.375221 
L 433.594589 207.575139 
L 433.698716 202.904503 
L 433.802661 207.518794 
L 434.010004 204.137061 
L 434.113404 239.007939 
L 434.319663 204.476618 
L 434.422524 197.751414 
L 434.627711 218.759016 
L 434.730039 232.111956 
L 434.934164 198.195626 
L 435.035964 198.70001 
L 435.137589 218.101066 
L 435.239039 212.738927 
L 435.340316 197.830416 
L 435.44142 237.988196 
L 435.542352 220.106153 
L 435.7437 249.354121 
L 435.844119 196.393531 
L 436.044445 207.082819 
L 436.144355 204.742352 
L 436.244096 232.808205 
L 436.343669 224.025029 
L 436.443076 204.663023 
L 436.542315 308.048559 
L 436.641389 206.0796 
L 436.740297 237.858633 
L 436.83904 222.76895 
L 437.036033 260.030783 
L 437.134284 216.353561 
L 437.330299 238.549858 
L 437.428064 212.640481 
L 437.525667 215.570023 
L 437.62311 264.480788 
L 437.817515 205.102504 
L 437.914479 221.87251 
L 438.011284 211.455578 
L 438.011495 328.359688 
M 438.204248 328.359688 
L 438.300754 195.596701 
L 438.39693 270.516043 
L 438.588815 203.221787 
L 438.78008 218.56448 
L 438.970728 209.628158 
L 439.160765 215.925906 
L 439.444681 201.187871 
L 439.539018 229.147437 
L 439.727242 203.880063 
L 439.72746 328.359688 
M 439.914694 328.359688 
L 440.008461 219.090192 
L 440.101904 212.558944 
L 440.28835 218.606207 
L 440.381353 207.02694 
L 440.566922 221.910478 
L 440.659489 210.066922 
L 440.751911 248.838292 
L 440.936323 211.303195 
L 441.120163 227.387799 
L 441.120336 328.359688 
M 441.303237 328.359688 
L 441.394857 212.761956 
L 441.486139 220.919373 
L 441.577281 209.109111 
L 441.668282 246.506463 
L 441.759144 214.305286 
L 441.849866 219.06117 
L 441.94045 198.154701 
L 442.211372 219.012314 
L 442.301405 216.67344 
L 442.391301 209.199879 
L 442.48106 227.452311 
L 442.570684 224.111479 
L 442.660172 203.893335 
L 442.749525 241.307482 
L 442.838744 221.802001 
L 442.927828 239.825068 
L 443.016778 211.521965 
L 443.194279 264.826491 
L 443.28283 258.850264 
L 443.459536 202.459865 
L 443.547691 210.74764 
L 443.635716 229.987313 
L 443.723609 221.833275 
L 443.811373 230.263267 
L 443.899006 200.450415 
L 443.98651 227.249044 
L 444.073885 206.179563 
L 444.161131 223.101696 
L 444.248249 219.251891 
L 444.335238 229.955391 
L 444.4221 218.45636 
L 444.508835 245.795251 
L 444.595443 208.150003 
L 444.681924 245.519941 
L 444.682058 328.359688 
M 444.854389 328.359688 
L 444.940612 227.525479 
L 444.940774 328.359688 
M 445.112267 328.359688 
L 445.112445 217.072667 
L 445.198175 221.85848 
L 445.283781 216.756161 
L 445.369263 217.882236 
L 445.454622 231.730919 
L 445.539858 213.949647 
L 445.709963 240.341839 
L 445.794832 209.548761 
L 445.79502 328.359688 
L 445.79502 328.359688 
" clip-path="url(#p7b506d01f1)" style="fill: none; stroke: #4c72b0; stroke-width: 1.5; stroke-linecap: round"/>
   </g>
   <g id="line2d_2">
    <path d="M 58.16375 8.336553 
L 99.195577 28.369267 
L 123.197657 30.39119 
L 140.227404 43.036522 
L 153.436701 45.847074 
L 164.229483 50.201862 
L 173.354651 51.330321 
L 181.25923 57.665425 
L 188.231563 59.063301 
L 194.468528 61.37 
L 200.110549 62.636656 
L 205.26131 64.408648 
L 209.999551 65.420535 
L 214.386478 66.836347 
L 218.470608 69.17254 
L 222.291057 70.891357 
L 225.879817 72.250713 
L 229.26339 73.933664 
L 232.463976 74.693819 
L 235.500355 76.22413 
L 238.388558 77.050011 
L 241.142376 77.523718 
L 243.77376 78.425499 
L 246.293137 78.735184 
L 248.709653 79.379036 
L 251.031378 79.66369 
L 253.26547 80.939069 
L 255.418304 81.595312 
L 259.502435 82.447837 
L 261.443475 83.2358 
L 265.144456 84.280032 
L 266.911644 85.051965 
L 268.627602 85.098797 
L 270.295217 85.583511 
L 271.917138 86.358068 
L 275.033458 87.000592 
L 276.532182 87.566427 
L 277.993896 87.875417 
L 282.174202 89.125155 
L 289.741479 91.154983 
L 290.913724 91.535192 
L 292.063205 91.615267 
L 293.19079 92.174328 
L 295.3835 92.483228 
L 296.450131 93.021049 
L 299.53934 93.72692 
L 300.534262 93.822518 
L 302.475301 94.494278 
L 303.422464 95.101065 
L 304.354711 95.139929 
L 305.272503 95.342737 
L 307.943471 96.332731 
L 310.499108 96.718572 
L 312.948965 97.403251 
L 313.743559 97.786069 
L 317.564008 98.801922 
L 318.299377 99.082687 
L 319.743263 99.266165 
L 321.152768 99.689967 
L 321.845132 99.74149 
L 322.529491 100.171218 
L 327.110504 101.266461 
L 328.35679 101.443406 
L 328.97023 101.68938 
L 330.773306 102.037932 
L 331.36233 102.288998 
L 332.523081 102.56017 
L 333.095032 102.932181 
L 335.874717 103.341241 
L 340.067365 104.32297 
L 341.070718 104.667143 
L 342.057348 104.979373 
L 343.027802 105.04842 
L 343.507128 105.304826 
L 343.982604 105.324382 
L 345.386537 105.712565 
L 348.098297 106.253029 
L 348.975297 106.638745 
L 351.112584 106.954913 
L 352.768536 107.381451 
L 353.579458 107.556127 
L 355.559456 108.020157 
L 357.475365 108.473935 
L 359.331204 108.89938 
L 360.77509 109.154781 
L 361.484038 109.313367 
L 363.220127 109.737672 
L 364.573247 109.969942 
L 365.896127 110.268849 
L 368.142331 110.794668 
L 368.768754 110.914667 
L 370.306409 111.22839 
L 372.394157 111.611392 
L 372.977377 111.765206 
L 374.126858 111.970765 
L 379.301332 113.08416 
L 380.335356 113.316405 
L 381.351629 113.542777 
L 381.853296 113.641415 
L 382.350748 113.828687 
L 383.333284 113.990714 
L 387.108039 114.744751 
L 387.563398 114.925489 
L 388.239936 115.044086 
L 390.656451 115.550204 
L 390.871321 115.554507 
L 391.298733 115.719012 
L 396.004206 116.758087 
L 397.938902 117.213288 
L 398.318367 117.348834 
L 399.070078 117.491445 
L 401.806917 118.148673 
L 402.86718 118.398534 
L 403.736452 118.638979 
L 406.764202 119.360284 
L 408.221916 119.775833 
L 410.111324 120.246039 
L 410.574401 120.376063 
L 413.718312 121.238871 
L 414.009204 121.348194 
L 414.730241 121.539019 
L 415.300813 121.704898 
L 417.118083 122.16084 
L 417.529648 122.350945 
L 418.34429 122.541434 
L 418.881223 122.714439 
L 426.164532 125.119648 
L 426.86926 125.352153 
L 427.102317 125.44345 
L 427.796033 125.729052 
L 429.047108 126.146728 
L 429.607154 126.349234 
L 430.272289 126.577949 
L 430.602075 126.706259 
L 431.038951 126.835376 
L 431.79581 127.172192 
L 432.11724 127.341819 
L 433.176238 127.712506 
L 433.594589 127.882097 
L 438.49295 130.269825 
L 439.255555 130.697488 
L 439.444681 130.771131 
L 439.633205 130.955107 
L 440.28835 131.274045 
L 440.47421 131.409685 
L 443.105595 133.170306 
L 443.547691 133.562949 
L 443.899006 133.883609 
L 444.508835 134.530409 
L 444.854508 135.116076 
L 445.112445 135.381777 
L 445.369263 135.833512 
L 445.794832 136.966934 
L 445.87958 139.001339 
L 445.87958 139.001339 
" clip-path="url(#p7b506d01f1)" style="fill: none; stroke: #dd8452; stroke-width: 1.5; stroke-linecap: round"/>
   </g>
   <g id="line2d_3"/>
   <g id="line2d_4"/>
   <g id="line2d_5">
    <path clip-path="url(#p7b506d01f1)" style="fill: none; stroke-dasharray: 5.55,2.4; stroke-dashoffset: 0; stroke: #808080; stroke-width: 1.5"/>
   </g>
   <g id="patch_3">
    <path d="M 58.16375 284.4 
L 58.16375 7.2 
" style="fill: none; stroke: #262626; stroke-width: 1.25; stroke-linejoin: miter; stroke-linecap: square"/>
   </g>
   <g id="patch_4">
    <path d="M 58.16375 284.4 
L 448.76375 284.4 
" style="fill: none; stroke: #262626; stroke-width: 1.25; stroke-linejoin: miter; stroke-linecap: square"/>
   </g>
   <g id="legend_1">
    <g id="patch_5">
     <path d="M 322.518125 65.405625 
L 441.06375 65.405625 
Q 443.26375 65.405625 443.26375 63.205625 
L 443.26375 14.9 
Q 443.26375 12.7 441.06375 12.7 
L 322.518125 12.7 
Q 320.318125 12.7 320.318125 14.9 
L 320.318125 63.205625 
Q 320.318125 65.405625 322.518125 65.405625 
z
" style="fill: #ffffff; opacity: 0.8"/>
    </g>
    <g id="text_12">
     <!-- spectrum -->
     <g style="fill: #262626" transform="translate(353.399687 26.218125) scale(0.12 -0.12)">
      <defs>
       <path id="DejaVuSans-73" d="M 2834 3397 
L 2834 2853 
Q 2591 2978 2328 3040 
Q 2066 3103 1784 3103 
Q 1356 3103 1142 2972 
Q 928 2841 928 2578 
Q 928 2378 1081 2264 
Q 1234 2150 1697 2047 
L 1894 2003 
Q 2506 1872 2764 1633 
Q 3022 1394 3022 966 
Q 3022 478 2636 193 
Q 2250 -91 1575 -91 
Q 1294 -91 989 -36 
Q 684 19 347 128 
L 347 722 
Q 666 556 975 473 
Q 1284 391 1588 391 
Q 1994 391 2212 530 
Q 2431 669 2431 922 
Q 2431 1156 2273 1281 
Q 2116 1406 1581 1522 
L 1381 1569 
Q 847 1681 609 1914 
Q 372 2147 372 2553 
Q 372 3047 722 3315 
Q 1072 3584 1716 3584 
Q 2034 3584 2315 3537 
Q 2597 3491 2834 3397 
z
" transform="scale(0.015625)"/>
       <path id="DejaVuSans-70" d="M 1159 525 
L 1159 -1331 
L 581 -1331 
L 581 3500 
L 1159 3500 
L 1159 2969 
Q 1341 3281 1617 3432 
Q 1894 3584 2278 3584 
Q 2916 3584 3314 3078 
Q 3713 2572 3713 1747 
Q 3713 922 3314 415 
Q 2916 -91 2278 -91 
Q 1894 -91 1617 61 
Q 1341 213 1159 525 
z
M 3116 1747 
Q 3116 2381 2855 2742 
Q 2594 3103 2138 3103 
Q 1681 3103 1420 2742 
Q 1159 2381 1159 1747 
Q 1159 1113 1420 752 
Q 1681 391 2138 391 
Q 2594 391 2855 752 
Q 3116 1113 3116 1747 
z
" transform="scale(0.015625)"/>
       <path id="DejaVuSans-63" d="M 3122 3366 
L 3122 2828 
Q 2878 2963 2633 3030 
Q 2388 3097 2138 3097 
Q 1578 3097 1268 2742 
Q 959 2388 959 1747 
Q 959 1106 1268 751 
Q 1578 397 2138 397 
Q 2388 397 2633 464 
Q 2878 531 3122 666 
L 3122 134 
Q 2881 22 2623 -34 
Q 2366 -91 2075 -91 
Q 1284 -91 818 406 
Q 353 903 353 1747 
Q 353 2603 823 3093 
Q 1294 3584 2113 3584 
Q 2378 3584 2631 3529 
Q 2884 3475 3122 3366 
z
" transform="scale(0.015625)"/>
       <path id="DejaVuSans-74" d="M 1172 4494 
L 1172 3500 
L 2356 3500 
L 2356 3053 
L 1172 3053 
L 1172 1153 
Q 1172 725 1289 603 
Q 1406 481 1766 481 
L 2356 481 
L 2356 0 
L 1766 0 
Q 1100 0 847 248 
Q 594 497 594 1153 
L 594 3053 
L 172 3053 
L 172 3500 
L 594 3500 
L 594 4494 
L 1172 4494 
z
" transform="scale(0.015625)"/>
       <path id="DejaVuSans-6d" d="M 3328 2828 
Q 3544 3216 3844 3400 
Q 4144 3584 4550 3584 
Q 5097 3584 5394 3201 
Q 5691 2819 5691 2113 
L 5691 0 
L 5113 0 
L 5113 2094 
Q 5113 2597 4934 2840 
Q 4756 3084 4391 3084 
Q 3944 3084 3684 2787 
Q 3425 2491 3425 1978 
L 3425 0 
L 2847 0 
L 2847 2094 
Q 2847 2600 2669 2842 
Q 2491 3084 2119 3084 
Q 1678 3084 1418 2786 
Q 1159 2488 1159 1978 
L 1159 0 
L 581 0 
L 581 3500 
L 1159 3500 
L 1159 2956 
Q 1356 3278 1631 3431 
Q 1906 3584 2284 3584 
Q 2666 3584 2933 3390 
Q 3200 3197 3328 2828 
z
" transform="scale(0.015625)"/>
      </defs>
      <use xlink:href="#DejaVuSans-73"/>
      <use xlink:href="#DejaVuSans-70" x="52.099609"/>
      <use xlink:href="#DejaVuSans-65" x="115.576172"/>
      <use xlink:href="#DejaVuSans-63" x="177.099609"/>
      <use xlink:href="#DejaVuSans-74" x="232.080078"/>
      <use xlink:href="#DejaVuSans-72" x="271.289062"/>
      <use xlink:href="#DejaVuSans-75" x="312.402344"/>
      <use xlink:href="#DejaVuSans-6d" x="375.78125"/>
     </g>
    </g>
    <g id="line2d_6">
     <path d="M 324.718125 38.722031 
L 335.718125 38.722031 
L 346.718125 38.722031 
" style="fill: none; stroke: #4c72b0; stroke-width: 1.5; stroke-linecap: round"/>
    </g>
    <g id="text_13">
     <!-- cross-validated -->
     <g style="fill: #262626" transform="translate(355.518125 42.572031) scale(0.11 -0.11)">
      <defs>
       <path id="DejaVuSans-6f" d="M 1959 3097 
Q 1497 3097 1228 2736 
Q 959 2375 959 1747 
Q 959 1119 1226 758 
Q 1494 397 1959 397 
Q 2419 397 2687 759 
Q 2956 1122 2956 1747 
Q 2956 2369 2687 2733 
Q 2419 3097 1959 3097 
z
M 1959 3584 
Q 2709 3584 3137 3096 
Q 3566 2609 3566 1747 
Q 3566 888 3137 398 
Q 2709 -91 1959 -91 
Q 1206 -91 779 398 
Q 353 888 353 1747 
Q 353 2609 779 3096 
Q 1206 3584 1959 3584 
z
" transform="scale(0.015625)"/>
       <path id="DejaVuSans-2d" d="M 313 2009 
L 1997 2009 
L 1997 1497 
L 313 1497 
L 313 2009 
z
" transform="scale(0.015625)"/>
       <path id="DejaVuSans-64" d="M 2906 2969 
L 2906 4863 
L 3481 4863 
L 3481 0 
L 2906 0 
L 2906 525 
Q 2725 213 2448 61 
Q 2172 -91 1784 -91 
Q 1150 -91 751 415 
Q 353 922 353 1747 
Q 353 2572 751 3078 
Q 1150 3584 1784 3584 
Q 2172 3584 2448 3432 
Q 2725 3281 2906 2969 
z
M 947 1747 
Q 947 1113 1208 752 
Q 1469 391 1925 391 
Q 2381 391 2643 752 
Q 2906 1113 2906 1747 
Q 2906 2381 2643 2742 
Q 2381 3103 1925 3103 
Q 1469 3103 1208 2742 
Q 947 2381 947 1747 
z
" transform="scale(0.015625)"/>
      </defs>
      <use xlink:href="#DejaVuSans-63"/>
      <use xlink:href="#DejaVuSans-72" x="54.980469"/>
      <use xlink:href="#DejaVuSans-6f" x="93.84375"/>
      <use xlink:href="#DejaVuSans-73" x="155.025391"/>
      <use xlink:href="#DejaVuSans-73" x="207.125"/>
      <use xlink:href="#DejaVuSans-2d" x="259.224609"/>
      <use xlink:href="#DejaVuSans-76" x="292.683594"/>
      <use xlink:href="#DejaVuSans-61" x="351.863281"/>
      <use xlink:href="#DejaVuSans-6c" x="413.142578"/>
      <use xlink:href="#DejaVuSans-69" x="440.925781"/>
      <use xlink:href="#DejaVuSans-64" x="468.708984"/>
      <use xlink:href="#DejaVuSans-61" x="532.185547"/>
      <use xlink:href="#DejaVuSans-74" x="593.464844"/>
      <use xlink:href="#DejaVuSans-65" x="632.673828"/>
      <use xlink:href="#DejaVuSans-64" x="694.197266"/>
     </g>
    </g>
    <g id="line2d_7">
     <path d="M 324.718125 54.867969 
L 335.718125 54.867969 
L 346.718125 54.867969 
" style="fill: none; stroke: #dd8452; stroke-width: 1.5; stroke-linecap: round"/>
    </g>
    <g id="text_14">
     <!-- original -->
     <g style="fill: #262626" transform="translate(355.518125 58.717969) scale(0.11 -0.11)">
      <use xlink:href="#DejaVuSans-6f"/>
      <use xlink:href="#DejaVuSans-72" x="61.181641"/>
      <use xlink:href="#DejaVuSans-69" x="102.294922"/>
      <use xlink:href="#DejaVuSans-67" x="130.078125"/>
      <use xlink:href="#DejaVuSans-69" x="193.554688"/>
      <use xlink:href="#DejaVuSans-6e" x="221.337891"/>
      <use xlink:href="#DejaVuSans-61" x="284.716797"/>
      <use xlink:href="#DejaVuSans-6c" x="345.996094"/>
     </g>
    </g>
   </g>
  </g>
 </g>
 <defs>
  <clipPath id="p7b506d01f1">
   <rect x="58.16375" y="7.2" width="390.6" height="277.2"/>
  </clipPath>
 </defs>
</svg>
