<?xml version="1.0" encoding="utf-8" standalone="no"?>
<!DOCTYPE svg PUBLIC "-//W3C//DTD SVG 1.1//EN"
  "http://www.w3.org/Graphics/SVG/1.1/DTD/svg11.dtd">
<svg xmlns:xlink="http://www.w3.org/1999/xlink" width="475.96375pt" height="347.359688pt" viewBox="0 0 475.96375 347.359688" xmlns="http://www.w3.org/2000/svg" version="1.1">
 <metadata>
  <rdf:RDF xmlns:dc="http://purl.org/dc/elements/1.1/" xmlns:cc="http://creativecommons.org/ns#" xmlns:rdf="http://www.w3.org/1999/02/22-rdf-syntax-ns#">
   <cc:Work>
    <dc:type rdf:resource="http://purl.org/dc/dcmitype/StillImage"/>
    <dc:date>2023-08-10T22:12:31.440214</dc:date>
    <dc:format>image/svg+xml</dc:format>
    <dc:creator>
     <cc:Agent>
      <dc:title>Matplotlib v3.7.2, https://matplotlib.org/</dc:title>
     </cc:Agent>
    </dc:creator>
   </cc:Work>
  </rdf:RDF>
 </metadata>
 <defs>
  <style type="text/css">*{stroke-linejoin: round; stroke-linecap: butt}</style>
 </defs>
 <g id="figure_1">
  <g id="patch_1">
   <path d="M -0 347.359688 
L 475.96375 347.359688 
L 475.96375 0 
L -0 0 
z
" style="fill: #ffffff"/>
  </g>
  <g id="axes_1">
   <g id="patch_2">
    <path d="M 78.16375 284.4 
L 468.76375 284.4 
L 468.76375 7.2 
L 78.16375 7.2 
z
" style="fill: #ffffff"/>
   </g>
   <g id="matplotlib.axis_1">
    <g id="xtick_1">
     <g id="text_1">
      <!-- $\mathdefault{10^{0}}$ -->
      <g style="fill: #262626" transform="translate(86.238295 322.258281) scale(0.11 -0.11)">
       <defs>
        <path id="DejaVuSans-31" d="M 794 531 
L 1825 531 
L 1825 4091 
L 703 3866 
L 703 4441 
L 1819 4666 
L 2450 4666 
L 2450 531 
L 3481 531 
L 3481 0 
L 794 0 
L 794 531 
z
" transform="scale(0.015625)"/>
        <path id="DejaVuSans-30" d="M 2034 4250 
Q 1547 4250 1301 3770 
Q 1056 3291 1056 2328 
Q 1056 1369 1301 889 
Q 1547 409 2034 409 
Q 2525 409 2770 889 
Q 3016 1369 3016 2328 
Q 3016 3291 2770 3770 
Q 2525 4250 2034 4250 
z
M 2034 4750 
Q 2819 4750 3233 4129 
Q 3647 3509 3647 2328 
Q 3647 1150 3233 529 
Q 2819 -91 2034 -91 
Q 1250 -91 836 529 
Q 422 1150 422 2328 
Q 422 3509 836 4129 
Q 1250 4750 2034 4750 
z
" transform="scale(0.015625)"/>
       </defs>
       <use xlink:href="#DejaVuSans-31" transform="translate(0 0.765625)"/>
       <use xlink:href="#DejaVuSans-30" transform="translate(63.623047 0.765625)"/>
       <use xlink:href="#DejaVuSans-30" transform="translate(128.203125 39.046875) scale(0.7)"/>
      </g>
     </g>
    </g>
    <g id="xtick_2">
     <g id="text_2">
      <!-- $\mathdefault{10^{1}}$ -->
      <g style="fill: #262626" transform="translate(217.803636 322.258281) scale(0.11 -0.11)">
       <use xlink:href="#DejaVuSans-31" transform="translate(0 0.684375)"/>
       <use xlink:href="#DejaVuSans-30" transform="translate(63.623047 0.684375)"/>
       <use xlink:href="#DejaVuSans-31" transform="translate(128.203125 38.965625) scale(0.7)"/>
      </g>
     </g>
    </g>
    <g id="xtick_3">
     <g id="text_3">
      <!-- $\mathdefault{10^{2}}$ -->
      <g style="fill: #262626" transform="translate(349.368978 322.258281) scale(0.11 -0.11)">
       <defs>
        <path id="DejaVuSans-32" d="M 1228 531 
L 3431 531 
L 3431 0 
L 469 0 
L 469 531 
Q 828 903 1448 1529 
Q 2069 2156 2228 2338 
Q 2531 2678 2651 2914 
Q 2772 3150 2772 3378 
Q 2772 3750 2511 3984 
Q 2250 4219 1831 4219 
Q 1534 4219 1204 4116 
Q 875 4013 500 3803 
L 500 4441 
Q 881 4594 1212 4672 
Q 1544 4750 1819 4750 
Q 2544 4750 2975 4387 
Q 3406 4025 3406 3419 
Q 3406 3131 3298 2873 
Q 3191 2616 2906 2266 
Q 2828 2175 2409 1742 
Q 1991 1309 1228 531 
z
" transform="scale(0.015625)"/>
       </defs>
       <use xlink:href="#DejaVuSans-31" transform="translate(0 0.765625)"/>
       <use xlink:href="#DejaVuSans-30" transform="translate(63.623047 0.765625)"/>
       <use xlink:href="#DejaVuSans-32" transform="translate(128.203125 39.046875) scale(0.7)"/>
      </g>
     </g>
    </g>
    <g id="xtick_4"/>
    <g id="xtick_5"/>
    <g id="xtick_6"/>
    <g id="xtick_7"/>
    <g id="xtick_8"/>
    <g id="xtick_9"/>
    <g id="xtick_10"/>
    <g id="xtick_11"/>
    <g id="xtick_12"/>
    <g id="xtick_13"/>
    <g id="xtick_14"/>
    <g id="xtick_15"/>
    <g id="xtick_16"/>
    <g id="xtick_17"/>
    <g id="xtick_18"/>
    <g id="xtick_19"/>
    <g id="xtick_20"/>
    <g id="xtick_21"/>
    <g id="xtick_22"/>
    <g id="xtick_23"/>
    <g id="xtick_24"/>
    <g id="xtick_25"/>
    <g id="xtick_26"/>
    <g id="text_4">
     <!-- rank -->
     <g style="fill: #262626" transform="translate(260.043438 337.664062) scale(0.12 -0.12)">
      <defs>
       <path id="DejaVuSans-72" d="M 2631 2963 
Q 2534 3019 2420 3045 
Q 2306 3072 2169 3072 
Q 1681 3072 1420 2755 
Q 1159 2438 1159 1844 
L 1159 0 
L 581 0 
L 581 3500 
L 1159 3500 
L 1159 2956 
Q 1341 3275 1631 3429 
Q 1922 3584 2338 3584 
Q 2397 3584 2469 3576 
Q 2541 3569 2628 3553 
L 2631 2963 
z
" transform="scale(0.015625)"/>
       <path id="DejaVuSans-61" d="M 2194 1759 
Q 1497 1759 1228 1600 
Q 959 1441 959 1056 
Q 959 750 1161 570 
Q 1363 391 1709 391 
Q 2188 391 2477 730 
Q 2766 1069 2766 1631 
L 2766 1759 
L 2194 1759 
z
M 3341 1997 
L 3341 0 
L 2766 0 
L 2766 531 
Q 2569 213 2275 61 
Q 1981 -91 1556 -91 
Q 1019 -91 701 211 
Q 384 513 384 1019 
Q 384 1609 779 1909 
Q 1175 2209 1959 2209 
L 2766 2209 
L 2766 2266 
Q 2766 2663 2505 2880 
Q 2244 3097 1772 3097 
Q 1472 3097 1187 3025 
Q 903 2953 641 2809 
L 641 3341 
Q 956 3463 1253 3523 
Q 1550 3584 1831 3584 
Q 2591 3584 2966 3190 
Q 3341 2797 3341 1997 
z
" transform="scale(0.015625)"/>
       <path id="DejaVuSans-6e" d="M 3513 2113 
L 3513 0 
L 2938 0 
L 2938 2094 
Q 2938 2591 2744 2837 
Q 2550 3084 2163 3084 
Q 1697 3084 1428 2787 
Q 1159 2491 1159 1978 
L 1159 0 
L 581 0 
L 581 3500 
L 1159 3500 
L 1159 2956 
Q 1366 3272 1645 3428 
Q 1925 3584 2291 3584 
Q 2894 3584 3203 3211 
Q 3513 2838 3513 2113 
z
" transform="scale(0.015625)"/>
       <path id="DejaVuSans-6b" d="M 581 4863 
L 1159 4863 
L 1159 1991 
L 2875 3500 
L 3609 3500 
L 1753 1863 
L 3688 0 
L 2938 0 
L 1159 1709 
L 1159 0 
L 581 0 
L 581 4863 
z
" transform="scale(0.015625)"/>
      </defs>
      <use xlink:href="#DejaVuSans-72"/>
      <use xlink:href="#DejaVuSans-61" x="41.113281"/>
      <use xlink:href="#DejaVuSans-6e" x="102.392578"/>
      <use xlink:href="#DejaVuSans-6b" x="165.771484"/>
     </g>
    </g>
   </g>
   <g id="matplotlib.axis_2">
    <g id="ytick_1">
     <g id="text_5">
      <!-- $\mathdefault{10^{-2}}$ -->
      <g style="fill: #262626" transform="translate(22.81375 288.579141) scale(0.11 -0.11)">
       <defs>
        <path id="DejaVuSans-2212" d="M 678 2272 
L 4684 2272 
L 4684 1741 
L 678 1741 
L 678 2272 
z
" transform="scale(0.015625)"/>
       </defs>
       <use xlink:href="#DejaVuSans-31" transform="translate(0 0.765625)"/>
       <use xlink:href="#DejaVuSans-30" transform="translate(63.623047 0.765625)"/>
       <use xlink:href="#DejaVuSans-2212" transform="translate(128.203125 39.046875) scale(0.7)"/>
       <use xlink:href="#DejaVuSans-32" transform="translate(186.855469 39.046875) scale(0.7)"/>
      </g>
     </g>
    </g>
    <g id="ytick_2">
     <g id="text_6">
      <!-- $\mathdefault{10^{-1}}$ -->
      <g style="fill: #262626" transform="translate(22.81375 223.42223) scale(0.11 -0.11)">
       <use xlink:href="#DejaVuSans-31" transform="translate(0 0.684375)"/>
       <use xlink:href="#DejaVuSans-30" transform="translate(63.623047 0.684375)"/>
       <use xlink:href="#DejaVuSans-2212" transform="translate(128.203125 38.965625) scale(0.7)"/>
       <use xlink:href="#DejaVuSans-31" transform="translate(186.855469 38.965625) scale(0.7)"/>
      </g>
     </g>
    </g>
    <g id="ytick_3">
     <g id="text_7">
      <!-- $\mathdefault{10^{0}}$ -->
      <g style="fill: #262626" transform="translate(29.30375 158.265319) scale(0.11 -0.11)">
       <use xlink:href="#DejaVuSans-31" transform="translate(0 0.765625)"/>
       <use xlink:href="#DejaVuSans-30" transform="translate(63.623047 0.765625)"/>
       <use xlink:href="#DejaVuSans-30" transform="translate(128.203125 39.046875) scale(0.7)"/>
      </g>
     </g>
    </g>
    <g id="ytick_4">
     <g id="text_8">
      <!-- $\mathdefault{10^{1}}$ -->
      <g style="fill: #262626" transform="translate(29.30375 93.108408) scale(0.11 -0.11)">
       <use xlink:href="#DejaVuSans-31" transform="translate(0 0.684375)"/>
       <use xlink:href="#DejaVuSans-30" transform="translate(63.623047 0.684375)"/>
       <use xlink:href="#DejaVuSans-31" transform="translate(128.203125 38.965625) scale(0.7)"/>
      </g>
     </g>
    </g>
    <g id="ytick_5">
     <g id="text_9">
      <!-- $\mathdefault{10^{2}}$ -->
      <g style="fill: #262626" transform="translate(29.30375 27.951497) scale(0.11 -0.11)">
       <use xlink:href="#DejaVuSans-31" transform="translate(0 0.765625)"/>
       <use xlink:href="#DejaVuSans-30" transform="translate(63.623047 0.765625)"/>
       <use xlink:href="#DejaVuSans-32" transform="translate(128.203125 39.046875) scale(0.7)"/>
      </g>
     </g>
    </g>
    <g id="ytick_6"/>
    <g id="ytick_7"/>
    <g id="ytick_8"/>
    <g id="ytick_9"/>
    <g id="ytick_10"/>
    <g id="ytick_11"/>
    <g id="ytick_12"/>
    <g id="ytick_13"/>
    <g id="ytick_14"/>
    <g id="ytick_15"/>
    <g id="ytick_16"/>
    <g id="ytick_17"/>
    <g id="ytick_18"/>
    <g id="ytick_19"/>
    <g id="ytick_20"/>
    <g id="ytick_21"/>
    <g id="ytick_22"/>
    <g id="ytick_23"/>
    <g id="ytick_24"/>
    <g id="ytick_25"/>
    <g id="ytick_26"/>
    <g id="ytick_27"/>
    <g id="ytick_28"/>
    <g id="ytick_29"/>
    <g id="ytick_30"/>
    <g id="ytick_31"/>
    <g id="ytick_32"/>
    <g id="ytick_33"/>
    <g id="ytick_34"/>
    <g id="ytick_35"/>
    <g id="ytick_36"/>
    <g id="ytick_37"/>
    <g id="text_10">
     <!-- eigenvalue -->
     <g style="fill: #262626" transform="translate(16.318125 178.851562) rotate(-90) scale(0.12 -0.12)">
      <defs>
       <path id="DejaVuSans-65" d="M 3597 1894 
L 3597 1613 
L 953 1613 
Q 991 1019 1311 708 
Q 1631 397 2203 397 
Q 2534 397 2845 478 
Q 3156 559 3463 722 
L 3463 178 
Q 3153 47 2828 -22 
Q 2503 -91 2169 -91 
Q 1331 -91 842 396 
Q 353 884 353 1716 
Q 353 2575 817 3079 
Q 1281 3584 2069 3584 
Q 2775 3584 3186 3129 
Q 3597 2675 3597 1894 
z
M 3022 2063 
Q 3016 2534 2758 2815 
Q 2500 3097 2075 3097 
Q 1594 3097 1305 2825 
Q 1016 2553 972 2059 
L 3022 2063 
z
" transform="scale(0.015625)"/>
       <path id="DejaVuSans-69" d="M 603 3500 
L 1178 3500 
L 1178 0 
L 603 0 
L 603 3500 
z
M 603 4863 
L 1178 4863 
L 1178 4134 
L 603 4134 
L 603 4863 
z
" transform="scale(0.015625)"/>
       <path id="DejaVuSans-67" d="M 2906 1791 
Q 2906 2416 2648 2759 
Q 2391 3103 1925 3103 
Q 1463 3103 1205 2759 
Q 947 2416 947 1791 
Q 947 1169 1205 825 
Q 1463 481 1925 481 
Q 2391 481 2648 825 
Q 2906 1169 2906 1791 
z
M 3481 434 
Q 3481 -459 3084 -895 
Q 2688 -1331 1869 -1331 
Q 1566 -1331 1297 -1286 
Q 1028 -1241 775 -1147 
L 775 -588 
Q 1028 -725 1275 -790 
Q 1522 -856 1778 -856 
Q 2344 -856 2625 -561 
Q 2906 -266 2906 331 
L 2906 616 
Q 2728 306 2450 153 
Q 2172 0 1784 0 
Q 1141 0 747 490 
Q 353 981 353 1791 
Q 353 2603 747 3093 
Q 1141 3584 1784 3584 
Q 2172 3584 2450 3431 
Q 2728 3278 2906 2969 
L 2906 3500 
L 3481 3500 
L 3481 434 
z
" transform="scale(0.015625)"/>
       <path id="DejaVuSans-76" d="M 191 3500 
L 800 3500 
L 1894 563 
L 2988 3500 
L 3597 3500 
L 2284 0 
L 1503 0 
L 191 3500 
z
" transform="scale(0.015625)"/>
       <path id="DejaVuSans-6c" d="M 603 4863 
L 1178 4863 
L 1178 0 
L 603 0 
L 603 4863 
z
" transform="scale(0.015625)"/>
       <path id="DejaVuSans-75" d="M 544 1381 
L 544 3500 
L 1119 3500 
L 1119 1403 
Q 1119 906 1312 657 
Q 1506 409 1894 409 
Q 2359 409 2629 706 
Q 2900 1003 2900 1516 
L 2900 3500 
L 3475 3500 
L 3475 0 
L 2900 0 
L 2900 538 
Q 2691 219 2414 64 
Q 2138 -91 1772 -91 
Q 1169 -91 856 284 
Q 544 659 544 1381 
z
M 1991 3584 
L 1991 3584 
z
" transform="scale(0.015625)"/>
      </defs>
      <use xlink:href="#DejaVuSans-65"/>
      <use xlink:href="#DejaVuSans-69" x="61.523438"/>
      <use xlink:href="#DejaVuSans-67" x="89.306641"/>
      <use xlink:href="#DejaVuSans-65" x="152.783203"/>
      <use xlink:href="#DejaVuSans-6e" x="214.306641"/>
      <use xlink:href="#DejaVuSans-76" x="277.685547"/>
      <use xlink:href="#DejaVuSans-61" x="336.865234"/>
      <use xlink:href="#DejaVuSans-6c" x="398.144531"/>
      <use xlink:href="#DejaVuSans-75" x="425.927734"/>
      <use xlink:href="#DejaVuSans-65" x="489.306641"/>
     </g>
    </g>
   </g>
   <g id="PolyCollection_1">
    <path d="M 95.918295 114.814328 
L 95.918295 115.497634 
L 135.523409 116.092105 
L 158.690916 116.493619 
L 175.128524 116.85598 
L 187.878522 117.222965 
L 198.29603 117.564799 
L 207.103907 117.868471 
L 214.733638 118.12132 
L 221.463537 118.420124 
L 227.483636 118.742798 
L 232.929479 119.021146 
L 237.901144 119.257978 
L 242.474633 119.49823 
L 246.709021 119.760509 
L 250.651143 119.962882 
L 254.338752 120.211256 
L 257.802727 120.441747 
L 261.068651 120.686456 
L 264.157949 120.884548 
L 267.088751 121.150737 
L 269.876528 121.374855 
L 272.534593 121.536351 
L 275.074483 121.770587 
L 277.506258 121.955547 
L 279.838749 122.167338 
L 282.079747 122.391489 
L 284.236157 122.604061 
L 286.314135 122.814851 
L 288.319187 123.035082 
L 290.256257 123.233501 
L 292.129805 123.489303 
L 293.943866 123.694517 
L 295.7021 123.906894 
L 297.407841 124.110605 
L 299.064134 124.300115 
L 300.673765 124.478737 
L 302.23929 124.652578 
L 303.763063 124.814811 
L 305.247253 125.021941 
L 306.693865 125.236996 
L 308.104754 125.428393 
L 309.481642 125.61177 
L 310.82613 125.81106 
L 312.139707 126.021258 
L 313.423764 126.202072 
L 314.679597 126.388866 
L 315.90842 126.577559 
L 317.111372 126.764555 
L 318.289519 126.974542 
L 319.443864 127.160327 
L 320.575348 127.308697 
L 321.684861 127.508872 
L 322.773238 127.714925 
L 323.841271 127.913942 
L 324.889706 128.098071 
L 325.919249 128.262276 
L 326.93057 128.465349 
L 327.924301 128.64551 
L 328.901044 128.821488 
L 329.861371 128.99608 
L 330.805824 129.184961 
L 331.734919 129.362752 
L 332.649148 129.562077 
L 333.54898 129.722968 
L 334.43486 129.924081 
L 335.307214 130.085327 
L 336.16645 130.267913 
L 337.012956 130.430721 
L 337.847103 130.617128 
L 338.669248 130.793577 
L 339.479731 131.018137 
L 340.278879 131.175582 
L 341.067003 131.35465 
L 341.844404 131.53519 
L 342.61137 131.720218 
L 343.368177 131.901306 
L 344.115091 132.072446 
L 344.852367 132.235709 
L 345.580251 132.407297 
L 346.298979 132.597958 
L 347.008778 132.785179 
L 347.709868 132.998867 
L 348.402459 133.161371 
L 349.086756 133.339307 
L 349.762954 133.514025 
L 350.431244 133.684608 
L 351.091807 133.864838 
L 351.744821 134.045591 
L 352.390457 134.211236 
L 353.028878 134.385579 
L 353.660244 134.562481 
L 354.284711 134.738497 
L 354.902426 134.913549 
L 355.513534 135.089185 
L 356.118176 135.27574 
L 356.716486 135.459357 
L 357.308596 135.644557 
L 357.894633 135.816952 
L 358.47472 136.007201 
L 359.048978 136.171403 
L 359.617521 136.318049 
L 360.180462 136.505668 
L 360.737911 136.66442 
L 361.289975 136.875708 
L 361.836755 137.074959 
L 362.378352 137.245958 
L 362.914864 137.416843 
L 363.446385 137.597852 
L 363.973008 137.787988 
L 364.49482 137.96759 
L 365.011911 138.13579 
L 365.524363 138.330775 
L 366.032261 138.476638 
L 366.535684 138.676841 
L 367.03471 138.870098 
L 367.529415 139.041645 
L 368.019874 139.215238 
L 368.506158 139.414471 
L 368.988339 139.618184 
L 369.466485 139.771334 
L 369.940663 139.964633 
L 370.410938 140.176037 
L 370.877374 140.340158 
L 371.340033 140.497405 
L 371.798976 140.696937 
L 372.254263 140.88672 
L 372.705949 141.056647 
L 373.154094 141.223158 
L 373.59875 141.381364 
L 374.039974 141.589323 
L 374.477816 141.790085 
L 374.912328 141.960591 
L 375.343561 142.146257 
L 375.771564 142.33889 
L 376.196384 142.487194 
L 376.61807 142.689616 
L 377.036666 142.86918 
L 377.452217 143.027825 
L 377.864769 143.206851 
L 378.274362 143.402965 
L 378.681041 143.57792 
L 379.084846 143.770249 
L 379.485816 143.945202 
L 379.883993 144.144541 
L 380.279414 144.334992 
L 380.672117 144.528788 
L 381.06214 144.687765 
L 381.449518 144.905897 
L 381.834288 145.094285 
L 382.216484 145.305256 
L 382.596141 145.467799 
L 382.973291 145.666375 
L 383.347969 145.854015 
L 383.720205 146.027567 
L 384.090032 146.232737 
L 384.457481 146.394277 
L 384.822582 146.566456 
L 385.185365 146.766441 
L 385.545859 146.994238 
L 385.904093 147.18502 
L 386.260094 147.3937 
L 386.613892 147.576839 
L 386.965512 147.760587 
L 387.314982 147.959305 
L 387.662327 148.136242 
L 388.007573 148.329186 
L 388.350746 148.518668 
L 388.69187 148.70123 
L 389.03097 148.917299 
L 389.368068 149.106193 
L 389.70319 149.304566 
L 390.036358 149.488447 
L 390.367594 149.66957 
L 390.696921 149.891709 
L 391.024361 150.08066 
L 391.349935 150.289381 
L 391.673665 150.496785 
L 391.995571 150.663909 
L 392.315673 150.896545 
L 392.633992 151.092021 
L 392.950547 151.290935 
L 393.265358 151.478702 
L 393.578445 151.689817 
L 393.889825 151.876937 
L 394.199517 152.069374 
L 394.50754 152.273519 
L 394.813911 152.486337 
L 395.118648 152.684242 
L 395.421769 152.875966 
L 395.72329 153.064958 
L 396.023228 153.264106 
L 396.3216 153.46822 
L 396.618422 153.672344 
L 396.91371 153.90611 
L 397.20748 154.104954 
L 397.499747 154.328816 
L 397.790527 154.511741 
L 398.079834 154.733612 
L 398.367684 154.943473 
L 398.654092 155.168743 
L 398.93907 155.333106 
L 399.222635 155.590214 
L 399.504799 155.756951 
L 399.785576 155.984797 
L 400.064981 156.194251 
L 400.343025 156.395419 
L 400.619724 156.600993 
L 400.895089 156.782273 
L 401.169133 156.99982 
L 401.441869 157.255468 
L 401.713309 157.457217 
L 401.983466 157.645712 
L 402.252352 157.881285 
L 402.519978 158.121328 
L 402.786357 158.295947 
L 403.051499 158.552951 
L 403.315417 158.741824 
L 403.578122 158.948105 
L 403.839624 159.180722 
L 404.099934 159.386524 
L 404.359064 159.63656 
L 404.617025 159.866713 
L 404.873826 160.110243 
L 405.129478 160.300146 
L 405.383991 160.479987 
L 405.637375 160.747831 
L 405.889641 160.916183 
L 406.140798 161.175087 
L 406.390855 161.43846 
L 406.639824 161.691878 
L 406.887712 161.875207 
L 407.134529 162.086455 
L 407.380285 162.352981 
L 407.624988 162.569789 
L 407.868647 162.786918 
L 408.111272 163.06622 
L 408.352871 163.240094 
L 408.593453 163.520314 
L 408.833026 163.705271 
L 409.071599 163.963325 
L 409.30918 164.190225 
L 409.545777 164.400605 
L 409.781398 164.672464 
L 410.016052 164.929154 
L 410.249746 165.142258 
L 410.482488 165.333764 
L 410.714286 165.599504 
L 410.945147 165.840241 
L 411.17508 166.11768 
L 411.404091 166.370943 
L 411.632187 166.596381 
L 411.859377 166.866711 
L 412.085666 167.084883 
L 412.311064 167.336393 
L 412.535575 167.556664 
L 412.759208 167.784057 
L 412.981969 168.042275 
L 413.203865 168.350779 
L 413.424902 168.568582 
L 413.645088 168.795183 
L 413.864428 169.034798 
L 414.08293 169.288152 
L 414.300599 169.553055 
L 414.517442 169.821063 
L 414.733465 170.068724 
L 414.948675 170.273073 
L 415.163077 170.54865 
L 415.376678 170.800027 
L 415.589483 171.079618 
L 415.801498 171.329005 
L 416.01273 171.579513 
L 416.223184 171.89878 
L 416.432865 172.145631 
L 416.64178 172.439727 
L 416.849933 172.689396 
L 417.057331 172.931188 
L 417.263979 173.210368 
L 417.469883 173.460976 
L 417.675047 173.76391 
L 417.879476 173.99729 
L 418.083178 174.287797 
L 418.286155 174.563946 
L 418.488414 174.797835 
L 418.68996 175.117955 
L 418.890797 175.404217 
L 419.09093 175.679699 
L 419.290365 175.904322 
L 419.489107 176.206012 
L 419.687159 176.490192 
L 419.884528 176.777624 
L 420.081217 177.054455 
L 420.277231 177.338236 
L 420.472575 177.629568 
L 420.667254 177.89834 
L 420.861271 178.171831 
L 421.054632 178.419086 
L 421.247341 178.703487 
L 421.439402 179.035499 
L 421.63082 179.305721 
L 421.821598 179.600193 
L 422.011742 179.901708 
L 422.201255 180.217884 
L 422.390141 180.525303 
L 422.578405 180.793472 
L 422.766051 181.134975 
L 422.953083 181.420659 
L 423.139504 181.731132 
L 423.325319 182.07378 
L 423.510532 182.363213 
L 423.695146 182.616693 
L 423.879166 182.917612 
L 424.062595 183.265418 
L 424.245437 183.518552 
L 424.427696 183.848437 
L 424.609376 184.123348 
L 424.790479 184.550425 
L 424.97101 184.855381 
L 425.150973 185.157446 
L 425.330371 185.476338 
L 425.509207 185.752456 
L 425.687485 186.089836 
L 425.865209 186.381961 
L 426.042381 186.75871 
L 426.219006 187.056942 
L 426.395087 187.370329 
L 426.570626 187.685588 
L 426.745628 188.118337 
L 426.920096 188.429216 
L 427.094032 188.741405 
L 427.267441 189.094244 
L 427.440325 189.46137 
L 427.612687 189.77703 
L 427.784531 190.128853 
L 427.95586 190.525837 
L 428.126677 190.884716 
L 428.296984 191.180877 
L 428.466785 191.580502 
L 428.636084 191.921183 
L 428.804882 192.298433 
L 428.973183 192.660921 
L 429.140989 193.010971 
L 429.308304 193.321331 
L 429.475131 193.703521 
L 429.641472 194.111654 
L 429.80733 194.473513 
L 429.972708 194.871198 
L 430.137609 195.250732 
L 430.302035 195.688373 
L 430.46599 196.01816 
L 430.629475 196.375689 
L 430.792494 196.781437 
L 430.955049 197.201981 
L 431.117143 197.564839 
L 431.278779 197.902828 
L 431.439958 198.349189 
L 431.600685 198.736469 
L 431.76096 199.224785 
L 431.920787 199.657078 
L 432.080168 200.006592 
L 432.239106 200.424548 
L 432.397603 200.842578 
L 432.555661 201.234924 
L 432.713284 201.647625 
L 432.870472 202.064535 
L 433.02723 202.400598 
L 433.183559 202.883364 
L 433.339461 203.24872 
L 433.494939 203.784115 
L 433.649995 204.165661 
L 433.804631 204.618461 
L 433.95885 205.067254 
L 434.112654 205.64448 
L 434.266045 206.048434 
L 434.419025 206.520627 
L 434.571597 206.970127 
L 434.723763 207.434386 
L 434.875524 207.960979 
L 435.026883 208.420499 
L 435.177843 208.94988 
L 435.328404 209.347492 
L 435.47857 209.829101 
L 435.628342 210.246865 
L 435.777723 210.821327 
L 435.926714 211.231857 
L 436.075318 211.784654 
L 436.223536 212.310216 
L 436.371371 212.878609 
L 436.518824 213.307995 
L 436.665898 213.881207 
L 436.812594 214.39158 
L 436.958915 214.92191 
L 437.104861 215.413936 
L 437.250436 216.061479 
L 437.395641 216.581606 
L 437.540478 217.054081 
L 437.684949 217.619138 
L 437.829055 218.189014 
L 437.972799 218.816084 
L 438.116182 219.445923 
L 438.259206 219.997289 
L 438.401873 220.652736 
L 438.544184 221.128094 
L 438.686142 221.702936 
L 438.827749 222.279577 
L 438.969005 222.879928 
L 439.109913 223.516209 
L 439.250474 224.15411 
L 439.39069 224.77527 
L 439.530563 225.347213 
L 439.670095 225.986661 
L 439.809286 226.662468 
L 439.948139 227.394068 
L 440.086656 227.982043 
L 440.224838 228.524092 
L 440.362686 229.28059 
L 440.500203 229.892963 
L 440.637389 230.647747 
L 440.774247 231.305121 
L 440.910778 232.128141 
L 441.046983 232.776149 
L 441.182864 233.486508 
L 441.318423 234.282568 
L 441.453662 234.988495 
L 441.58858 235.559032 
L 441.723181 236.389727 
L 441.857466 237.389942 
L 441.991436 238.238893 
L 442.125092 238.936828 
L 442.258437 239.679804 
L 442.391471 240.509778 
L 442.524196 241.309791 
L 442.656613 242.100353 
L 442.788725 242.841805 
L 442.920531 243.816562 
L 443.052034 244.696459 
L 443.183236 245.717551 
L 443.314136 246.688475 
L 443.444738 247.609556 
L 443.575041 248.540909 
L 443.705048 249.432157 
L 443.83476 250.429656 
L 443.964179 251.429761 
L 444.093304 252.528368 
L 444.222139 253.476959 
L 444.350684 254.556118 
L 444.47894 255.624054 
L 444.606909 256.797167 
L 444.734592 257.634672 
L 444.86199 258.747427 
L 444.989105 260.149647 
L 445.115937 261.374403 
L 445.242489 262.545472 
L 445.368761 263.583342 
L 445.494755 264.755306 
L 445.620471 266.019524 
L 445.745912 267.101109 
L 445.871077 268.48485 
L 445.99597 270.183787 
L 446.120589 271.243714 
L 446.244938 272.684248 
L 446.369016 274.215073 
L 446.492826 275.544555 
L 446.616368 277.352523 
L 446.739643 279.056915 
L 446.862653 280.63881 
L 446.985399 282.121107 
L 447.107881 283.921416 
L 447.230102 285.707888 
L 447.352061 287.484794 
L 447.473761 289.639986 
L 447.595203 291.415601 
L 447.716386 293.081884 
L 447.837314 295.665004 
L 447.957986 297.659361 
L 448.078403 299.900946 
L 448.198567 302.783018 
L 448.318479 305.052711 
L 448.43814 307.957578 
L 448.557551 310.301216 
L 448.676713 313.009408 
L 448.795627 316.013805 
L 448.914294 318.937395 
L 449.032715 322.120296 
L 449.150891 325.959454 
L 449.268823 329.637835 
L 449.386512 333.966074 
L 449.50396 338.843703 
L 449.621166 343.356979 
L 449.738133 349.334246 
L 449.85486 356.356922 
L 449.97135 361.347264 
L 450.087602 367.855092 
L 450.203619 377.724959 
L 450.3194 388.425608 
L 450.434947 400.711213 
L 450.550262 414.021519 
L 450.665343 435.737701 
L 450.780194 474.948538 
L 450.894814 546.679914 
L 451.009205 65310.997022 
L 451.009205 2239.343796 
L 451.009205 2239.343796 
L 450.894814 470.040211 
L 450.780194 433.10493 
L 450.665343 414.169816 
L 450.550262 399.17158 
L 450.434947 385.54797 
L 450.3194 374.350939 
L 450.203619 366.500168 
L 450.087602 358.31601 
L 449.97135 353.03958 
L 449.85486 347.61356 
L 449.738133 342.584059 
L 449.621166 337.54045 
L 449.50396 333.307466 
L 449.386512 328.762598 
L 449.268823 324.669467 
L 449.150891 321.994576 
L 449.032715 318.274712 
L 448.914294 314.768472 
L 448.795627 311.884657 
L 448.676713 309.471329 
L 448.557551 306.706913 
L 448.43814 304.047835 
L 448.318479 301.345714 
L 448.198567 299.107603 
L 448.078403 296.556781 
L 447.957986 294.857867 
L 447.837314 292.703397 
L 447.716386 290.7359 
L 447.595203 288.927422 
L 447.473761 286.983803 
L 447.352061 285.002581 
L 447.230102 283.161181 
L 447.107881 281.698242 
L 446.985399 279.783551 
L 446.862653 278.36208 
L 446.739643 276.538178 
L 446.616368 274.814416 
L 446.492826 273.466477 
L 446.369016 272.108772 
L 446.244938 270.546825 
L 446.120589 269.302892 
L 445.99597 267.931547 
L 445.871077 266.534864 
L 445.745912 265.160244 
L 445.620471 263.848194 
L 445.494755 262.628284 
L 445.368761 261.574069 
L 445.242489 260.182037 
L 445.115937 259.164824 
L 444.989105 258.111719 
L 444.86199 256.856112 
L 444.734592 255.844606 
L 444.606909 254.807433 
L 444.47894 253.578769 
L 444.350684 252.591598 
L 444.222139 251.542145 
L 444.093304 250.469229 
L 443.964179 249.604729 
L 443.83476 248.763401 
L 443.705048 247.864675 
L 443.575041 246.990869 
L 443.444738 245.982723 
L 443.314136 245.211524 
L 443.183236 244.064696 
L 443.052034 243.393823 
L 442.920531 242.503564 
L 442.788725 241.763238 
L 442.656613 240.892682 
L 442.524196 240.068059 
L 442.391471 239.245441 
L 442.258437 238.424938 
L 442.125092 237.626334 
L 441.991436 236.826692 
L 441.857466 236.166563 
L 441.723181 235.28716 
L 441.58858 234.413189 
L 441.453662 233.703477 
L 441.318423 233.007674 
L 441.182864 232.282954 
L 441.046983 231.572406 
L 440.910778 230.825389 
L 440.774247 230.101433 
L 440.637389 229.416845 
L 440.500203 228.842056 
L 440.362686 228.178848 
L 440.224838 227.585805 
L 440.086656 226.991168 
L 439.948139 226.290928 
L 439.809286 225.515922 
L 439.670095 224.887062 
L 439.530563 224.310144 
L 439.39069 223.746676 
L 439.250474 223.142902 
L 439.109913 222.532569 
L 438.969005 221.920068 
L 438.827749 221.289162 
L 438.686142 220.785856 
L 438.544184 220.292664 
L 438.401873 219.707989 
L 438.259206 219.086036 
L 438.116182 218.48149 
L 437.972799 218.077958 
L 437.829055 217.28838 
L 437.684949 216.867497 
L 437.540478 216.299601 
L 437.395641 215.679032 
L 437.250436 215.187105 
L 437.104861 214.598204 
L 436.958915 214.06002 
L 436.812594 213.551877 
L 436.665898 212.974984 
L 436.518824 212.499116 
L 436.371371 211.974014 
L 436.223536 211.466538 
L 436.075318 211.037043 
L 435.926714 210.513577 
L 435.777723 210.07779 
L 435.628342 209.526273 
L 435.47857 209.098266 
L 435.328404 208.62907 
L 435.177843 208.144154 
L 435.026883 207.631456 
L 434.875524 207.225276 
L 434.723763 206.735481 
L 434.571597 206.206975 
L 434.419025 205.746775 
L 434.266045 205.310259 
L 434.112654 204.866804 
L 433.95885 204.490491 
L 433.804631 204.052878 
L 433.649995 203.650628 
L 433.494939 203.144264 
L 433.339461 202.698721 
L 433.183559 202.238317 
L 433.02723 201.810065 
L 432.870472 201.362675 
L 432.713284 201.00496 
L 432.555661 200.559951 
L 432.397603 200.158657 
L 432.239106 199.693605 
L 432.080168 199.321606 
L 431.920787 198.890505 
L 431.76096 198.562392 
L 431.600685 198.156264 
L 431.439958 197.745472 
L 431.278779 197.37203 
L 431.117143 196.963581 
L 430.955049 196.585877 
L 430.792494 196.171187 
L 430.629475 195.722135 
L 430.46599 195.401628 
L 430.302035 195.004882 
L 430.137609 194.682908 
L 429.972708 194.305659 
L 429.80733 193.90196 
L 429.641472 193.534312 
L 429.475131 193.183847 
L 429.308304 192.783732 
L 429.140989 192.477978 
L 428.973183 192.092267 
L 428.804882 191.711734 
L 428.636084 191.370049 
L 428.466785 191.031702 
L 428.296984 190.666699 
L 428.126677 190.309086 
L 427.95586 189.930865 
L 427.784531 189.61477 
L 427.612687 189.266061 
L 427.440325 188.933422 
L 427.267441 188.615922 
L 427.094032 188.297373 
L 426.920096 187.928381 
L 426.745628 187.521836 
L 426.570626 187.205687 
L 426.395087 186.906464 
L 426.219006 186.605748 
L 426.042381 186.267797 
L 425.865209 185.917807 
L 425.687485 185.553694 
L 425.509207 185.259741 
L 425.330371 184.918279 
L 425.150973 184.649035 
L 424.97101 184.274135 
L 424.790479 183.9788 
L 424.609376 183.659672 
L 424.427696 183.306088 
L 424.245437 182.985123 
L 424.062595 182.680688 
L 423.879166 182.442161 
L 423.695146 182.148737 
L 423.510532 181.84419 
L 423.325319 181.519546 
L 423.139504 181.236547 
L 422.953083 180.945098 
L 422.766051 180.637763 
L 422.578405 180.364491 
L 422.390141 180.021827 
L 422.201255 179.700494 
L 422.011742 179.44205 
L 421.821598 179.123715 
L 421.63082 178.820813 
L 421.439402 178.551215 
L 421.247341 178.237037 
L 421.054632 177.974251 
L 420.861271 177.669921 
L 420.667254 177.377804 
L 420.472575 177.062228 
L 420.277231 176.748075 
L 420.081217 176.485076 
L 419.884528 176.226072 
L 419.687159 175.960842 
L 419.489107 175.704608 
L 419.290365 175.429621 
L 419.09093 175.168347 
L 418.890797 174.873743 
L 418.68996 174.567056 
L 418.488414 174.307336 
L 418.286155 174.023765 
L 418.083178 173.76679 
L 417.879476 173.48183 
L 417.675047 173.250441 
L 417.469883 172.972127 
L 417.263979 172.713678 
L 417.057331 172.466651 
L 416.849933 172.210504 
L 416.64178 171.947214 
L 416.432865 171.686671 
L 416.223184 171.415657 
L 416.01273 171.194685 
L 415.801498 170.862285 
L 415.589483 170.621686 
L 415.376678 170.376757 
L 415.163077 170.125676 
L 414.948675 169.870134 
L 414.733465 169.615277 
L 414.517442 169.380992 
L 414.300599 169.103234 
L 414.08293 168.867336 
L 413.864428 168.588509 
L 413.645088 168.376479 
L 413.424902 168.13144 
L 413.203865 167.866681 
L 412.981969 167.635026 
L 412.759208 167.389175 
L 412.535575 167.119469 
L 412.311064 166.958989 
L 412.085666 166.695493 
L 411.859377 166.378904 
L 411.632187 166.130852 
L 411.404091 165.909944 
L 411.17508 165.658667 
L 410.945147 165.43048 
L 410.714286 165.179269 
L 410.482488 164.907716 
L 410.249746 164.705604 
L 410.016052 164.490466 
L 409.781398 164.22964 
L 409.545777 163.980786 
L 409.30918 163.736282 
L 409.071599 163.505247 
L 408.833026 163.320767 
L 408.593453 163.075603 
L 408.352871 162.861691 
L 408.111272 162.625781 
L 407.868647 162.406472 
L 407.624988 162.174395 
L 407.380285 161.934559 
L 407.134529 161.695758 
L 406.887712 161.454438 
L 406.639824 161.240158 
L 406.390855 161.020531 
L 406.140798 160.796177 
L 405.889641 160.594124 
L 405.637375 160.361664 
L 405.383991 160.148638 
L 405.129478 159.970277 
L 404.873826 159.709366 
L 404.617025 159.528805 
L 404.359064 159.290106 
L 404.099934 159.041259 
L 403.839624 158.835394 
L 403.578122 158.645339 
L 403.315417 158.38408 
L 403.051499 158.152118 
L 402.786357 157.956562 
L 402.519978 157.754015 
L 402.252352 157.530401 
L 401.983466 157.312355 
L 401.713309 157.127918 
L 401.441869 156.888231 
L 401.169133 156.678657 
L 400.895089 156.475318 
L 400.619724 156.269446 
L 400.343025 156.043084 
L 400.064981 155.833328 
L 399.785576 155.646728 
L 399.504799 155.413255 
L 399.222635 155.214066 
L 398.93907 155.021484 
L 398.654092 154.802056 
L 398.367684 154.594181 
L 398.079834 154.37708 
L 397.790527 154.152764 
L 397.499747 153.962927 
L 397.20748 153.763693 
L 396.91371 153.579405 
L 396.618422 153.367092 
L 396.3216 153.16452 
L 396.023228 152.948746 
L 395.72329 152.769149 
L 395.421769 152.546733 
L 395.118648 152.379778 
L 394.813911 152.139438 
L 394.50754 151.93468 
L 394.199517 151.703888 
L 393.889825 151.515347 
L 393.578445 151.316509 
L 393.265358 151.149108 
L 392.950547 150.955307 
L 392.633992 150.770573 
L 392.315673 150.608349 
L 391.995571 150.410402 
L 391.673665 150.163109 
L 391.349935 150.000925 
L 391.024361 149.811422 
L 390.696921 149.584047 
L 390.367594 149.396619 
L 390.036358 149.181329 
L 389.70319 148.990212 
L 389.368068 148.813972 
L 389.03097 148.629301 
L 388.69187 148.423214 
L 388.350746 148.223332 
L 388.007573 148.008185 
L 387.662327 147.804609 
L 387.314982 147.627271 
L 386.965512 147.462489 
L 386.613892 147.263473 
L 386.260094 147.075353 
L 385.904093 146.887699 
L 385.545859 146.697628 
L 385.185365 146.480626 
L 384.822582 146.286837 
L 384.457481 146.081342 
L 384.090032 145.875268 
L 383.720205 145.712119 
L 383.347969 145.495236 
L 382.973291 145.340164 
L 382.596141 145.135154 
L 382.216484 144.945412 
L 381.834288 144.737242 
L 381.449518 144.586047 
L 381.06214 144.431037 
L 380.672117 144.240506 
L 380.279414 144.045372 
L 379.883993 143.846445 
L 379.485816 143.653031 
L 379.084846 143.470154 
L 378.681041 143.244949 
L 378.274362 143.065961 
L 377.864769 142.919287 
L 377.452217 142.738581 
L 377.036666 142.53168 
L 376.61807 142.347156 
L 376.196384 142.168971 
L 375.771564 141.972824 
L 375.343561 141.80192 
L 374.912328 141.62754 
L 374.477816 141.446443 
L 374.039974 141.271511 
L 373.59875 141.094081 
L 373.154094 140.868367 
L 372.705949 140.691617 
L 372.254263 140.517363 
L 371.798976 140.311102 
L 371.340033 140.160067 
L 370.877374 139.977988 
L 370.410938 139.830974 
L 369.940663 139.630203 
L 369.466485 139.457507 
L 368.988339 139.277846 
L 368.506158 139.077944 
L 368.019874 138.921666 
L 367.529415 138.726067 
L 367.03471 138.534629 
L 366.535684 138.357979 
L 366.032261 138.196766 
L 365.524363 138.016626 
L 365.011911 137.829482 
L 364.49482 137.649244 
L 363.973008 137.469876 
L 363.446385 137.26999 
L 362.914864 137.088397 
L 362.378352 136.947156 
L 361.836755 136.77935 
L 361.289975 136.569448 
L 360.737911 136.367405 
L 360.180462 136.217747 
L 359.617521 136.019233 
L 359.048978 135.845545 
L 358.47472 135.696361 
L 357.894633 135.505442 
L 357.308596 135.322085 
L 356.716486 135.142648 
L 356.118176 134.96689 
L 355.513534 134.763981 
L 354.902426 134.612999 
L 354.284711 134.412998 
L 353.660244 134.237821 
L 353.028878 134.063775 
L 352.390457 133.888927 
L 351.744821 133.71087 
L 351.091807 133.524161 
L 350.431244 133.352845 
L 349.762954 133.187472 
L 349.086756 132.998256 
L 348.402459 132.850239 
L 347.709868 132.681692 
L 347.008778 132.507425 
L 346.298979 132.309252 
L 345.580251 132.118199 
L 344.852367 131.964373 
L 344.115091 131.789561 
L 343.368177 131.623382 
L 342.61137 131.431124 
L 341.844404 131.277356 
L 341.067003 131.080977 
L 340.278879 130.882776 
L 339.479731 130.696786 
L 338.669248 130.506856 
L 337.847103 130.328382 
L 337.012956 130.172491 
L 336.16645 129.985301 
L 335.307214 129.805115 
L 334.43486 129.575316 
L 333.54898 129.423228 
L 332.649148 129.249703 
L 331.734919 129.05259 
L 330.805824 128.893131 
L 329.861371 128.744851 
L 328.901044 128.550523 
L 327.924301 128.352246 
L 326.93057 128.150001 
L 325.919249 127.97501 
L 324.889706 127.764438 
L 323.841271 127.593361 
L 322.773238 127.385127 
L 321.684861 127.237054 
L 320.575348 127.076142 
L 319.443864 126.897272 
L 318.289519 126.70031 
L 317.111372 126.504291 
L 315.90842 126.308914 
L 314.679597 126.097501 
L 313.423764 125.873611 
L 312.139707 125.652687 
L 310.82613 125.493615 
L 309.481642 125.307129 
L 308.104754 125.11328 
L 306.693865 124.938963 
L 305.247253 124.749703 
L 303.763063 124.555339 
L 302.23929 124.361724 
L 300.673765 124.164092 
L 299.064134 123.987782 
L 297.407841 123.746407 
L 295.7021 123.550561 
L 293.943866 123.381983 
L 292.129805 123.158272 
L 290.256257 122.933086 
L 288.319187 122.741738 
L 286.314135 122.557025 
L 284.236157 122.325155 
L 282.079747 122.122091 
L 279.838749 121.916833 
L 277.506258 121.669197 
L 275.074483 121.449766 
L 272.534593 121.239047 
L 269.876528 120.990527 
L 267.088751 120.743157 
L 264.157949 120.53118 
L 261.068651 120.338311 
L 257.802727 120.087659 
L 254.338752 119.839774 
L 250.651143 119.618209 
L 246.709021 119.386137 
L 242.474633 119.109667 
L 237.901144 118.881465 
L 232.929479 118.598649 
L 227.483636 118.338146 
L 221.463537 117.972811 
L 214.733638 117.676124 
L 207.103907 117.38653 
L 198.29603 117.082865 
L 187.878522 116.759836 
L 175.128524 116.38451 
L 158.690916 116.021882 
L 135.523409 115.52073 
L 95.918295 114.814328 
z
" clip-path="url(#p0b520cf519)" style="fill: #4c72b0; fill-opacity: 0.2; stroke: #4c72b0; stroke-opacity: 0.2"/>
   </g>
   <g id="line2d_1">
    <path d="M 95.918295 115.153918 
L 158.690916 116.256767 
L 187.878522 116.990453 
L 214.733638 117.897846 
L 232.929479 118.809109 
L 254.338752 120.024906 
L 272.534593 121.387309 
L 286.314135 122.685645 
L 295.7021 123.728167 
L 308.104754 125.270398 
L 315.90842 126.442918 
L 326.93057 128.307236 
L 338.669248 130.649853 
L 344.115091 131.93065 
L 349.086756 133.168268 
L 357.308596 135.482862 
L 363.446385 137.433446 
L 374.912328 141.793576 
L 379.485816 143.79874 
L 386.965512 147.611146 
L 389.70319 149.146952 
L 391.995571 150.536872 
L 395.72329 152.916667 
L 397.790527 154.331684 
L 404.873826 159.909095 
L 409.30918 163.962343 
L 411.17508 165.887243 
L 415.801498 171.094683 
L 417.675047 173.506011 
L 418.488414 174.551522 
L 422.766051 180.885277 
L 424.97101 184.563266 
L 428.804882 192.003563 
L 431.600685 198.44488 
L 435.628342 209.884275 
L 436.958915 214.487684 
L 438.116182 218.959598 
L 439.809286 226.083388 
L 440.637389 230.025604 
L 441.723181 235.833074 
L 442.524196 240.682114 
L 443.575041 247.755277 
L 444.47894 254.582937 
L 446.492826 274.486444 
L 447.473761 288.28074 
L 448.198567 300.885679 
L 448.795627 313.873982 
L 449.268823 327.044749 
L 449.789681 348.359688 
L 449.789681 348.359688 
" clip-path="url(#p0b520cf519)" style="fill: none; stroke: #4c72b0; stroke-width: 1.5; stroke-linecap: round"/>
   </g>
   <g id="patch_3">
    <path d="M 58.16375 284.4 
L 58.16375 7.2 
" style="fill: none; stroke: #262626; stroke-width: 1.25; stroke-linejoin: miter; stroke-linecap: square"/>
   </g>
   <g id="patch_4">
    <path d="M 78.16375 304.4 
L 468.76375 304.4 
" style="fill: none; stroke: #262626; stroke-width: 1.25; stroke-linejoin: miter; stroke-linecap: square"/>
   </g>
  </g>
 </g>
 <defs>
  <clipPath id="p0b520cf519">
   <rect x="78.16375" y="7.2" width="390.6" height="277.2"/>
  </clipPath>
 </defs>
</svg>
