<?xml version="1.0" encoding="utf-8" standalone="no"?>
<!DOCTYPE svg PUBLIC "-//W3C//DTD SVG 1.1//EN"
  "http://www.w3.org/Graphics/SVG/1.1/DTD/svg11.dtd">
<svg xmlns:xlink="http://www.w3.org/1999/xlink" width="475.96375pt" height="347.359688pt" viewBox="0 0 475.96375 347.359688" xmlns="http://www.w3.org/2000/svg" version="1.1">
 <metadata>
  <rdf:RDF xmlns:dc="http://purl.org/dc/elements/1.1/" xmlns:cc="http://creativecommons.org/ns#" xmlns:rdf="http://www.w3.org/1999/02/22-rdf-syntax-ns#">
   <cc:Work>
    <dc:type rdf:resource="http://purl.org/dc/dcmitype/StillImage"/>
    <dc:date>2023-08-17T12:44:19.864192</dc:date>
    <dc:format>image/svg+xml</dc:format>
    <dc:creator>
     <cc:Agent>
      <dc:title>Matplotlib v3.7.2, https://matplotlib.org/</dc:title>
     </cc:Agent>
    </dc:creator>
   </cc:Work>
  </rdf:RDF>
 </metadata>
 <defs>
  <style type="text/css">*{stroke-linejoin: round; stroke-linecap: butt}</style>
 </defs>
 <g id="figure_1">
  <g id="patch_1">
   <path d="M -0 347.359688 
L 475.96375 347.359688 
L 475.96375 0 
L -0 0 
z
" style="fill: #ffffff"/>
  </g>
  <g id="axes_1">
   <g id="patch_2">
    <path d="M 78.16375 284.4 
L 468.76375 284.4 
L 468.76375 7.2 
L 78.16375 7.2 
z
" style="fill: #ffffff"/>
   </g>
   <g id="matplotlib.axis_1">
    <g id="xtick_1">
     <g id="text_1">
      <!-- $\mathdefault{10^{0}}$ -->
      <g style="fill: #262626" transform="translate(68.48375 322.258281) scale(0.11 -0.11)">
       <defs>
        <path id="DejaVuSans-31" d="M 794 531 
L 1825 531 
L 1825 4091 
L 703 3866 
L 703 4441 
L 1819 4666 
L 2450 4666 
L 2450 531 
L 3481 531 
L 3481 0 
L 794 0 
L 794 531 
z
" transform="scale(0.015625)"/>
        <path id="DejaVuSans-30" d="M 2034 4250 
Q 1547 4250 1301 3770 
Q 1056 3291 1056 2328 
Q 1056 1369 1301 889 
Q 1547 409 2034 409 
Q 2525 409 2770 889 
Q 3016 1369 3016 2328 
Q 3016 3291 2770 3770 
Q 2525 4250 2034 4250 
z
M 2034 4750 
Q 2819 4750 3233 4129 
Q 3647 3509 3647 2328 
Q 3647 1150 3233 529 
Q 2819 -91 2034 -91 
Q 1250 -91 836 529 
Q 422 1150 422 2328 
Q 422 3509 836 4129 
Q 1250 4750 2034 4750 
z
" transform="scale(0.015625)"/>
       </defs>
       <use xlink:href="#DejaVuSans-31" transform="translate(0 0.765625)"/>
       <use xlink:href="#DejaVuSans-30" transform="translate(63.623047 0.765625)"/>
       <use xlink:href="#DejaVuSans-30" transform="translate(128.203125 39.046875) scale(0.7)"/>
      </g>
     </g>
    </g>
    <g id="xtick_2">
     <g id="text_2">
      <!-- $\mathdefault{10^{1}}$ -->
      <g style="fill: #262626" transform="translate(204.788528 322.258281) scale(0.11 -0.11)">
       <use xlink:href="#DejaVuSans-31" transform="translate(0 0.684375)"/>
       <use xlink:href="#DejaVuSans-30" transform="translate(63.623047 0.684375)"/>
       <use xlink:href="#DejaVuSans-31" transform="translate(128.203125 38.965625) scale(0.7)"/>
      </g>
     </g>
    </g>
    <g id="xtick_3">
     <g id="text_3">
      <!-- $\mathdefault{10^{2}}$ -->
      <g style="fill: #262626" transform="translate(341.093306 322.258281) scale(0.11 -0.11)">
       <defs>
        <path id="DejaVuSans-32" d="M 1228 531 
L 3431 531 
L 3431 0 
L 469 0 
L 469 531 
Q 828 903 1448 1529 
Q 2069 2156 2228 2338 
Q 2531 2678 2651 2914 
Q 2772 3150 2772 3378 
Q 2772 3750 2511 3984 
Q 2250 4219 1831 4219 
Q 1534 4219 1204 4116 
Q 875 4013 500 3803 
L 500 4441 
Q 881 4594 1212 4672 
Q 1544 4750 1819 4750 
Q 2544 4750 2975 4387 
Q 3406 4025 3406 3419 
Q 3406 3131 3298 2873 
Q 3191 2616 2906 2266 
Q 2828 2175 2409 1742 
Q 1991 1309 1228 531 
z
" transform="scale(0.015625)"/>
       </defs>
       <use xlink:href="#DejaVuSans-31" transform="translate(0 0.765625)"/>
       <use xlink:href="#DejaVuSans-30" transform="translate(63.623047 0.765625)"/>
       <use xlink:href="#DejaVuSans-32" transform="translate(128.203125 39.046875) scale(0.7)"/>
      </g>
     </g>
    </g>
    <g id="xtick_4"/>
    <g id="xtick_5"/>
    <g id="xtick_6"/>
    <g id="xtick_7"/>
    <g id="xtick_8"/>
    <g id="xtick_9"/>
    <g id="xtick_10"/>
    <g id="xtick_11"/>
    <g id="xtick_12"/>
    <g id="xtick_13"/>
    <g id="xtick_14"/>
    <g id="xtick_15"/>
    <g id="xtick_16"/>
    <g id="xtick_17"/>
    <g id="xtick_18"/>
    <g id="xtick_19"/>
    <g id="xtick_20"/>
    <g id="xtick_21"/>
    <g id="xtick_22"/>
    <g id="xtick_23"/>
    <g id="xtick_24"/>
    <g id="xtick_25"/>
    <g id="text_4">
     <!-- rank -->
     <g style="fill: #262626" transform="translate(260.043438 337.664062) scale(0.12 -0.12)">
      <defs>
       <path id="DejaVuSans-72" d="M 2631 2963 
Q 2534 3019 2420 3045 
Q 2306 3072 2169 3072 
Q 1681 3072 1420 2755 
Q 1159 2438 1159 1844 
L 1159 0 
L 581 0 
L 581 3500 
L 1159 3500 
L 1159 2956 
Q 1341 3275 1631 3429 
Q 1922 3584 2338 3584 
Q 2397 3584 2469 3576 
Q 2541 3569 2628 3553 
L 2631 2963 
z
" transform="scale(0.015625)"/>
       <path id="DejaVuSans-61" d="M 2194 1759 
Q 1497 1759 1228 1600 
Q 959 1441 959 1056 
Q 959 750 1161 570 
Q 1363 391 1709 391 
Q 2188 391 2477 730 
Q 2766 1069 2766 1631 
L 2766 1759 
L 2194 1759 
z
M 3341 1997 
L 3341 0 
L 2766 0 
L 2766 531 
Q 2569 213 2275 61 
Q 1981 -91 1556 -91 
Q 1019 -91 701 211 
Q 384 513 384 1019 
Q 384 1609 779 1909 
Q 1175 2209 1959 2209 
L 2766 2209 
L 2766 2266 
Q 2766 2663 2505 2880 
Q 2244 3097 1772 3097 
Q 1472 3097 1187 3025 
Q 903 2953 641 2809 
L 641 3341 
Q 956 3463 1253 3523 
Q 1550 3584 1831 3584 
Q 2591 3584 2966 3190 
Q 3341 2797 3341 1997 
z
" transform="scale(0.015625)"/>
       <path id="DejaVuSans-6e" d="M 3513 2113 
L 3513 0 
L 2938 0 
L 2938 2094 
Q 2938 2591 2744 2837 
Q 2550 3084 2163 3084 
Q 1697 3084 1428 2787 
Q 1159 2491 1159 1978 
L 1159 0 
L 581 0 
L 581 3500 
L 1159 3500 
L 1159 2956 
Q 1366 3272 1645 3428 
Q 1925 3584 2291 3584 
Q 2894 3584 3203 3211 
Q 3513 2838 3513 2113 
z
" transform="scale(0.015625)"/>
       <path id="DejaVuSans-6b" d="M 581 4863 
L 1159 4863 
L 1159 1991 
L 2875 3500 
L 3609 3500 
L 1753 1863 
L 3688 0 
L 2938 0 
L 1159 1709 
L 1159 0 
L 581 0 
L 581 4863 
z
" transform="scale(0.015625)"/>
      </defs>
      <use xlink:href="#DejaVuSans-72"/>
      <use xlink:href="#DejaVuSans-61" x="41.113281"/>
      <use xlink:href="#DejaVuSans-6e" x="102.392578"/>
      <use xlink:href="#DejaVuSans-6b" x="165.771484"/>
     </g>
    </g>
   </g>
   <g id="matplotlib.axis_2">
    <g id="ytick_1">
     <g id="text_5">
      <!-- $\mathdefault{10^{-2}}$ -->
      <g style="fill: #262626" transform="translate(22.81375 288.579141) scale(0.11 -0.11)">
       <defs>
        <path id="DejaVuSans-2212" d="M 678 2272 
L 4684 2272 
L 4684 1741 
L 678 1741 
L 678 2272 
z
" transform="scale(0.015625)"/>
       </defs>
       <use xlink:href="#DejaVuSans-31" transform="translate(0 0.765625)"/>
       <use xlink:href="#DejaVuSans-30" transform="translate(63.623047 0.765625)"/>
       <use xlink:href="#DejaVuSans-2212" transform="translate(128.203125 39.046875) scale(0.7)"/>
       <use xlink:href="#DejaVuSans-32" transform="translate(186.855469 39.046875) scale(0.7)"/>
      </g>
     </g>
    </g>
    <g id="ytick_2">
     <g id="text_6">
      <!-- $\mathdefault{10^{-1}}$ -->
      <g style="fill: #262626" transform="translate(22.81375 228.982172) scale(0.11 -0.11)">
       <use xlink:href="#DejaVuSans-31" transform="translate(0 0.684375)"/>
       <use xlink:href="#DejaVuSans-30" transform="translate(63.623047 0.684375)"/>
       <use xlink:href="#DejaVuSans-2212" transform="translate(128.203125 38.965625) scale(0.7)"/>
       <use xlink:href="#DejaVuSans-31" transform="translate(186.855469 38.965625) scale(0.7)"/>
      </g>
     </g>
    </g>
    <g id="ytick_3">
     <g id="text_7">
      <!-- $\mathdefault{10^{0}}$ -->
      <g style="fill: #262626" transform="translate(29.30375 169.385204) scale(0.11 -0.11)">
       <use xlink:href="#DejaVuSans-31" transform="translate(0 0.765625)"/>
       <use xlink:href="#DejaVuSans-30" transform="translate(63.623047 0.765625)"/>
       <use xlink:href="#DejaVuSans-30" transform="translate(128.203125 39.046875) scale(0.7)"/>
      </g>
     </g>
    </g>
    <g id="ytick_4">
     <g id="text_8">
      <!-- $\mathdefault{10^{1}}$ -->
      <g style="fill: #262626" transform="translate(29.30375 109.788235) scale(0.11 -0.11)">
       <use xlink:href="#DejaVuSans-31" transform="translate(0 0.684375)"/>
       <use xlink:href="#DejaVuSans-30" transform="translate(63.623047 0.684375)"/>
       <use xlink:href="#DejaVuSans-31" transform="translate(128.203125 38.965625) scale(0.7)"/>
      </g>
     </g>
    </g>
    <g id="ytick_5">
     <g id="text_9">
      <!-- $\mathdefault{10^{2}}$ -->
      <g style="fill: #262626" transform="translate(29.30375 50.191267) scale(0.11 -0.11)">
       <use xlink:href="#DejaVuSans-31" transform="translate(0 0.765625)"/>
       <use xlink:href="#DejaVuSans-30" transform="translate(63.623047 0.765625)"/>
       <use xlink:href="#DejaVuSans-32" transform="translate(128.203125 39.046875) scale(0.7)"/>
      </g>
     </g>
    </g>
    <g id="ytick_6"/>
    <g id="ytick_7"/>
    <g id="ytick_8"/>
    <g id="ytick_9"/>
    <g id="ytick_10"/>
    <g id="ytick_11"/>
    <g id="ytick_12"/>
    <g id="ytick_13"/>
    <g id="ytick_14"/>
    <g id="ytick_15"/>
    <g id="ytick_16"/>
    <g id="ytick_17"/>
    <g id="ytick_18"/>
    <g id="ytick_19"/>
    <g id="ytick_20"/>
    <g id="ytick_21"/>
    <g id="ytick_22"/>
    <g id="ytick_23"/>
    <g id="ytick_24"/>
    <g id="ytick_25"/>
    <g id="ytick_26"/>
    <g id="ytick_27"/>
    <g id="ytick_28"/>
    <g id="ytick_29"/>
    <g id="ytick_30"/>
    <g id="ytick_31"/>
    <g id="ytick_32"/>
    <g id="ytick_33"/>
    <g id="ytick_34"/>
    <g id="ytick_35"/>
    <g id="ytick_36"/>
    <g id="ytick_37"/>
    <g id="ytick_38"/>
    <g id="ytick_39"/>
    <g id="ytick_40"/>
    <g id="text_10">
     <!-- cross-validated eigenvalue -->
     <g style="fill: #262626" transform="translate(16.318125 226.219687) rotate(-90) scale(0.12 -0.12)">
      <defs>
       <path id="DejaVuSans-63" d="M 3122 3366 
L 3122 2828 
Q 2878 2963 2633 3030 
Q 2388 3097 2138 3097 
Q 1578 3097 1268 2742 
Q 959 2388 959 1747 
Q 959 1106 1268 751 
Q 1578 397 2138 397 
Q 2388 397 2633 464 
Q 2878 531 3122 666 
L 3122 134 
Q 2881 22 2623 -34 
Q 2366 -91 2075 -91 
Q 1284 -91 818 406 
Q 353 903 353 1747 
Q 353 2603 823 3093 
Q 1294 3584 2113 3584 
Q 2378 3584 2631 3529 
Q 2884 3475 3122 3366 
z
" transform="scale(0.015625)"/>
       <path id="DejaVuSans-6f" d="M 1959 3097 
Q 1497 3097 1228 2736 
Q 959 2375 959 1747 
Q 959 1119 1226 758 
Q 1494 397 1959 397 
Q 2419 397 2687 759 
Q 2956 1122 2956 1747 
Q 2956 2369 2687 2733 
Q 2419 3097 1959 3097 
z
M 1959 3584 
Q 2709 3584 3137 3096 
Q 3566 2609 3566 1747 
Q 3566 888 3137 398 
Q 2709 -91 1959 -91 
Q 1206 -91 779 398 
Q 353 888 353 1747 
Q 353 2609 779 3096 
Q 1206 3584 1959 3584 
z
" transform="scale(0.015625)"/>
       <path id="DejaVuSans-73" d="M 2834 3397 
L 2834 2853 
Q 2591 2978 2328 3040 
Q 2066 3103 1784 3103 
Q 1356 3103 1142 2972 
Q 928 2841 928 2578 
Q 928 2378 1081 2264 
Q 1234 2150 1697 2047 
L 1894 2003 
Q 2506 1872 2764 1633 
Q 3022 1394 3022 966 
Q 3022 478 2636 193 
Q 2250 -91 1575 -91 
Q 1294 -91 989 -36 
Q 684 19 347 128 
L 347 722 
Q 666 556 975 473 
Q 1284 391 1588 391 
Q 1994 391 2212 530 
Q 2431 669 2431 922 
Q 2431 1156 2273 1281 
Q 2116 1406 1581 1522 
L 1381 1569 
Q 847 1681 609 1914 
Q 372 2147 372 2553 
Q 372 3047 722 3315 
Q 1072 3584 1716 3584 
Q 2034 3584 2315 3537 
Q 2597 3491 2834 3397 
z
" transform="scale(0.015625)"/>
       <path id="DejaVuSans-2d" d="M 313 2009 
L 1997 2009 
L 1997 1497 
L 313 1497 
L 313 2009 
z
" transform="scale(0.015625)"/>
       <path id="DejaVuSans-76" d="M 191 3500 
L 800 3500 
L 1894 563 
L 2988 3500 
L 3597 3500 
L 2284 0 
L 1503 0 
L 191 3500 
z
" transform="scale(0.015625)"/>
       <path id="DejaVuSans-6c" d="M 603 4863 
L 1178 4863 
L 1178 0 
L 603 0 
L 603 4863 
z
" transform="scale(0.015625)"/>
       <path id="DejaVuSans-69" d="M 603 3500 
L 1178 3500 
L 1178 0 
L 603 0 
L 603 3500 
z
M 603 4863 
L 1178 4863 
L 1178 4134 
L 603 4134 
L 603 4863 
z
" transform="scale(0.015625)"/>
       <path id="DejaVuSans-64" d="M 2906 2969 
L 2906 4863 
L 3481 4863 
L 3481 0 
L 2906 0 
L 2906 525 
Q 2725 213 2448 61 
Q 2172 -91 1784 -91 
Q 1150 -91 751 415 
Q 353 922 353 1747 
Q 353 2572 751 3078 
Q 1150 3584 1784 3584 
Q 2172 3584 2448 3432 
Q 2725 3281 2906 2969 
z
M 947 1747 
Q 947 1113 1208 752 
Q 1469 391 1925 391 
Q 2381 391 2643 752 
Q 2906 1113 2906 1747 
Q 2906 2381 2643 2742 
Q 2381 3103 1925 3103 
Q 1469 3103 1208 2742 
Q 947 2381 947 1747 
z
" transform="scale(0.015625)"/>
       <path id="DejaVuSans-74" d="M 1172 4494 
L 1172 3500 
L 2356 3500 
L 2356 3053 
L 1172 3053 
L 1172 1153 
Q 1172 725 1289 603 
Q 1406 481 1766 481 
L 2356 481 
L 2356 0 
L 1766 0 
Q 1100 0 847 248 
Q 594 497 594 1153 
L 594 3053 
L 172 3053 
L 172 3500 
L 594 3500 
L 594 4494 
L 1172 4494 
z
" transform="scale(0.015625)"/>
       <path id="DejaVuSans-65" d="M 3597 1894 
L 3597 1613 
L 953 1613 
Q 991 1019 1311 708 
Q 1631 397 2203 397 
Q 2534 397 2845 478 
Q 3156 559 3463 722 
L 3463 178 
Q 3153 47 2828 -22 
Q 2503 -91 2169 -91 
Q 1331 -91 842 396 
Q 353 884 353 1716 
Q 353 2575 817 3079 
Q 1281 3584 2069 3584 
Q 2775 3584 3186 3129 
Q 3597 2675 3597 1894 
z
M 3022 2063 
Q 3016 2534 2758 2815 
Q 2500 3097 2075 3097 
Q 1594 3097 1305 2825 
Q 1016 2553 972 2059 
L 3022 2063 
z
" transform="scale(0.015625)"/>
       <path id="DejaVuSans-20" transform="scale(0.015625)"/>
       <path id="DejaVuSans-67" d="M 2906 1791 
Q 2906 2416 2648 2759 
Q 2391 3103 1925 3103 
Q 1463 3103 1205 2759 
Q 947 2416 947 1791 
Q 947 1169 1205 825 
Q 1463 481 1925 481 
Q 2391 481 2648 825 
Q 2906 1169 2906 1791 
z
M 3481 434 
Q 3481 -459 3084 -895 
Q 2688 -1331 1869 -1331 
Q 1566 -1331 1297 -1286 
Q 1028 -1241 775 -1147 
L 775 -588 
Q 1028 -725 1275 -790 
Q 1522 -856 1778 -856 
Q 2344 -856 2625 -561 
Q 2906 -266 2906 331 
L 2906 616 
Q 2728 306 2450 153 
Q 2172 0 1784 0 
Q 1141 0 747 490 
Q 353 981 353 1791 
Q 353 2603 747 3093 
Q 1141 3584 1784 3584 
Q 2172 3584 2450 3431 
Q 2728 3278 2906 2969 
L 2906 3500 
L 3481 3500 
L 3481 434 
z
" transform="scale(0.015625)"/>
       <path id="DejaVuSans-75" d="M 544 1381 
L 544 3500 
L 1119 3500 
L 1119 1403 
Q 1119 906 1312 657 
Q 1506 409 1894 409 
Q 2359 409 2629 706 
Q 2900 1003 2900 1516 
L 2900 3500 
L 3475 3500 
L 3475 0 
L 2900 0 
L 2900 538 
Q 2691 219 2414 64 
Q 2138 -91 1772 -91 
Q 1169 -91 856 284 
Q 544 659 544 1381 
z
M 1991 3584 
L 1991 3584 
z
" transform="scale(0.015625)"/>
      </defs>
      <use xlink:href="#DejaVuSans-63"/>
      <use xlink:href="#DejaVuSans-72" x="54.980469"/>
      <use xlink:href="#DejaVuSans-6f" x="93.84375"/>
      <use xlink:href="#DejaVuSans-73" x="155.025391"/>
      <use xlink:href="#DejaVuSans-73" x="207.125"/>
      <use xlink:href="#DejaVuSans-2d" x="259.224609"/>
      <use xlink:href="#DejaVuSans-76" x="292.683594"/>
      <use xlink:href="#DejaVuSans-61" x="351.863281"/>
      <use xlink:href="#DejaVuSans-6c" x="413.142578"/>
      <use xlink:href="#DejaVuSans-69" x="440.925781"/>
      <use xlink:href="#DejaVuSans-64" x="468.708984"/>
      <use xlink:href="#DejaVuSans-61" x="532.185547"/>
      <use xlink:href="#DejaVuSans-74" x="593.464844"/>
      <use xlink:href="#DejaVuSans-65" x="632.673828"/>
      <use xlink:href="#DejaVuSans-64" x="694.197266"/>
      <use xlink:href="#DejaVuSans-20" x="757.673828"/>
      <use xlink:href="#DejaVuSans-65" x="789.460938"/>
      <use xlink:href="#DejaVuSans-69" x="850.984375"/>
      <use xlink:href="#DejaVuSans-67" x="878.767578"/>
      <use xlink:href="#DejaVuSans-65" x="942.244141"/>
      <use xlink:href="#DejaVuSans-6e" x="1003.767578"/>
      <use xlink:href="#DejaVuSans-76" x="1067.146484"/>
      <use xlink:href="#DejaVuSans-61" x="1126.326172"/>
      <use xlink:href="#DejaVuSans-6c" x="1187.605469"/>
      <use xlink:href="#DejaVuSans-75" x="1215.388672"/>
      <use xlink:href="#DejaVuSans-65" x="1278.767578"/>
     </g>
    </g>
   </g>
   <g id="PolyCollection_1"/>
   <g id="line2d_1">
    <path d="M 78.16375 20.12049 
L 119.195577 8.463021 
L 143.197657 35.823553 
L 160.227404 37.817216 
L 173.436701 60.694086 
L 184.229483 42.204498 
L 193.354651 71.646273 
L 201.25923 71.286752 
L 208.231563 62.979321 
L 214.468528 96.826528 
L 220.110549 70.85081 
L 225.26131 62.438064 
L 229.999551 67.398967 
L 234.386478 73.959536 
L 238.470608 64.034785 
L 242.291057 103.539369 
L 245.879817 83.675727 
L 249.26339 104.479068 
L 252.463976 108.696121 
L 255.500355 90.209904 
L 258.388558 96.965652 
L 261.142376 104.871355 
L 263.77376 89.787775 
L 266.293137 94.720973 
L 268.709653 96.880565 
L 271.031378 93.131061 
L 273.26547 116.293732 
L 275.418304 107.933917 
L 277.495585 98.239736 
L 279.502435 98.062286 
L 281.443475 113.202999 
L 283.322884 106.85786 
L 285.144456 102.112234 
L 286.911644 105.443604 
L 288.627602 119.145021 
L 290.295217 105.114787 
L 291.917138 109.996628 
L 293.495803 105.832151 
L 296.532182 109.137378 
L 297.993896 120.577068 
L 299.420384 114.060291 
L 302.174202 131.991544 
L 303.504515 115.517123 
L 304.805587 113.488916 
L 306.078677 120.989367 
L 307.324964 119.600623 
L 308.545552 115.139469 
L 309.741479 115.285449 
L 310.913724 124.985938 
L 312.063205 119.97493 
L 313.19079 122.247841 
L 314.297297 115.531935 
L 315.3835 123.141661 
L 316.450131 153.622334 
L 317.497883 124.695506 
L 318.527411 128.393281 
L 319.53934 142.522944 
L 320.534262 117.451139 
L 321.512737 140.534974 
L 322.475301 137.248734 
L 323.422464 136.029783 
L 324.354711 121.418702 
L 325.272503 144.787074 
L 326.176282 138.922328 
L 327.066471 134.368189 
L 327.943471 134.358094 
L 328.807667 133.662908 
L 329.659429 138.915432 
L 330.499108 131.542191 
L 331.327044 168.262488 
L 332.143559 140.993901 
L 332.948965 132.721688 
L 333.743559 133.710137 
L 334.527629 143.786364 
L 335.30145 142.681974 
L 336.065285 137.465637 
L 336.81939 148.117548 
L 337.564008 135.530619 
L 338.299377 141.035749 
L 339.025722 139.387339 
L 339.743263 134.299884 
L 340.452211 132.55864 
L 341.152768 134.872615 
L 341.845132 133.391301 
L 342.529491 145.790328 
L 343.206029 138.605762 
L 343.874922 146.501036 
L 344.536342 137.731473 
L 345.190452 134.821976 
L 345.837414 138.364113 
L 346.477381 146.698875 
L 347.110504 139.833561 
L 347.736927 134.614589 
L 348.35679 144.945417 
L 348.97023 150.559588 
L 349.577378 136.347439 
L 350.178362 141.760704 
L 350.773306 144.599562 
L 351.36233 151.631441 
L 351.945551 145.548518 
L 352.523081 143.385815 
L 353.095032 161.067752 
L 353.661509 144.501527 
L 354.222616 144.077906 
L 354.778455 139.831153 
L 355.329124 144.247664 
L 355.874717 143.072872 
L 356.415327 145.032425 
L 356.951045 152.4186 
L 357.481958 173.607272 
L 358.008152 152.081998 
L 358.529709 148.006321 
L 359.046712 141.408585 
L 359.559238 143.59125 
L 360.067365 157.720638 
L 360.571167 145.433842 
L 361.070718 163.219481 
L 361.566088 149.320915 
L 362.057348 151.101348 
L 362.544564 155.562533 
L 363.507128 147.90042 
L 363.982604 152.83139 
L 364.454291 144.487449 
L 364.922249 161.117831 
L 365.386537 147.431075 
L 365.847212 165.001514 
L 366.304329 167.284687 
L 366.757944 172.116629 
L 367.208109 148.990537 
L 367.654877 152.350483 
L 368.098297 158.489353 
L 368.538422 153.871959 
L 369.408973 159.804967 
L 369.839494 146.023877 
L 370.266907 154.88341 
L 370.691256 153.860268 
L 371.112584 157.409612 
L 371.530935 155.300463 
L 371.94635 156.588371 
L 372.35887 159.282203 
L 372.768536 152.281387 
L 373.175386 151.241409 
L 373.579458 165.637727 
L 373.980791 156.546661 
L 374.379422 171.500226 
L 374.775386 178.606788 
L 375.559456 157.789177 
L 375.947631 155.993497 
L 376.333276 156.013811 
L 376.716426 158.35626 
L 377.097112 162.780049 
L 377.475365 169.90174 
L 377.851216 167.432344 
L 378.224696 175.545481 
L 378.595835 155.939273 
L 378.964661 167.142735 
L 379.331204 163.677796 
L 379.69549 154.482868 
L 380.057549 159.220977 
L 380.417407 156.881648 
L 380.77509 157.225579 
L 381.130625 173.269297 
L 381.484038 159.984705 
L 381.835353 159.221696 
L 382.184595 158.16547 
L 382.531789 172.651561 
L 382.876959 160.151546 
L 383.220127 160.181633 
L 383.561318 163.848442 
L 383.900553 162.186166 
L 384.237856 172.641674 
L 384.573247 167.072325 
L 384.906749 164.397295 
L 385.238382 163.162818 
L 385.568168 170.34724 
L 385.896127 162.865031 
L 386.222279 171.555475 
L 386.546644 171.684942 
L 386.869241 179.926438 
L 387.509208 162.463358 
L 387.826616 175.611065 
L 388.142331 164.047381 
L 388.456371 162.487551 
L 388.768754 173.246021 
L 389.079497 178.301326 
L 389.388617 156.81606 
L 389.696132 166.370139 
L 390.002057 157.789935 
L 390.306409 174.710112 
L 390.609205 165.686219 
L 390.91046 165.941583 
L 391.210189 174.222167 
L 391.508408 161.021543 
L 391.805133 159.008395 
L 392.100377 167.062503 
L 392.394157 164.290754 
L 392.686485 172.595001 
L 392.977377 176.842553 
L 393.266847 190.216515 
L 393.554908 170.789501 
L 393.841574 173.124099 
L 394.126858 185.802983 
L 394.410775 171.4568 
L 394.693336 177.045501 
L 394.974554 169.200209 
L 395.254443 175.279777 
L 395.533015 176.003545 
L 395.810282 160.352999 
L 396.086257 159.464561 
L 396.36095 175.430829 
L 396.634375 178.656115 
L 396.906543 174.371025 
L 397.177466 174.90441 
L 397.447154 173.642461 
L 397.715619 187.428272 
L 398.248923 166.634466 
L 398.777466 181.573773 
L 399.039978 174.077833 
L 399.301332 198.50978 
L 399.561536 170.419361 
L 399.820602 176.064297 
L 400.078539 173.016479 
L 400.335356 178.203236 
L 400.591065 177.097049 
L 400.845673 177.614134 
L 401.099192 171.619471 
L 401.351629 185.195885 
L 401.602994 177.777111 
L 401.853296 164.939708 
L 402.102545 166.104326 
L 402.350748 165.022987 
L 402.844054 183.183987 
L 403.089174 239.250323 
L 403.333284 183.402472 
L 403.57639 170.16599 
L 403.818503 180.002288 
L 404.059629 170.099671 
L 404.299777 175.860381 
L 404.538955 186.438074 
L 404.77717 170.589462 
L 405.014431 177.994875 
L 405.250744 176.193108 
L 405.486118 176.04329 
L 405.720559 175.268691 
L 405.954076 191.944041 
L 406.418364 180.386086 
L 406.64915 180.128262 
L 406.879039 181.787328 
L 407.108039 168.268805 
L 407.336156 190.439497 
L 407.563398 175.369537 
L 407.789771 171.133673 
L 408.015281 172.111713 
L 408.239936 179.651709 
L 408.463741 174.665816 
L 408.686703 174.338136 
L 408.908829 170.910076 
L 409.130124 173.423943 
L 409.350595 177.348926 
L 409.570248 186.954525 
L 409.789089 173.890015 
L 410.007124 175.656091 
L 410.224359 174.770959 
L 410.440799 171.764961 
L 410.656451 171.615467 
L 410.871321 193.15632 
L 411.085413 182.793304 
L 411.298733 193.137586 
L 411.511288 176.964995 
L 411.723082 194.455939 
L 411.934121 168.473904 
L 412.144411 179.957574 
L 412.353956 169.725731 
L 412.562762 171.894993 
L 412.770834 170.723341 
L 412.978177 182.615897 
L 413.184796 180.066576 
L 413.390697 174.51808 
L 413.595884 199.766075 
L 413.800363 180.225209 
L 414.004137 191.724838 
L 414.207212 177.324804 
L 414.409594 186.566501 
L 414.611285 170.499098 
L 415.012618 186.113848 
L 415.212269 167.5941 
L 415.609562 196.655632 
L 415.807213 177.756595 
L 416.004206 190.19194 
L 416.396237 170.887329 
L 416.785688 181.931425 
L 416.979457 182.310544 
L 417.172594 202.869046 
L 417.365103 177.411935 
L 417.556988 174.564523 
L 417.748253 174.263416 
L 417.938902 186.713763 
L 418.128938 183.755828 
L 418.507192 171.075953 
L 418.695416 185.641386 
L 418.883043 237.942579 
L 419.070078 175.077614 
L 419.256523 181.368972 
L 419.442383 181.370998 
L 419.627662 189.418715 
L 419.812362 188.616773 
L 419.996488 179.803874 
L 420.36303 187.229628 
L 420.727317 183.167361 
L 420.908623 188.258826 
L 421.089376 196.87466 
L 421.269578 175.63603 
L 421.449234 207.01633 
L 421.628345 179.200235 
L 421.806917 170.163913 
L 421.984951 183.583701 
L 422.162452 183.688188 
L 422.339422 185.804227 
L 422.515865 176.904437 
L 422.86718 186.328183 
L 423.042058 200.734021 
L 423.216422 178.268337 
L 423.390274 181.363346 
L 423.563616 198.146862 
L 423.736452 181.542943 
L 423.908786 208.187904 
L 424.080619 180.699266 
L 424.251954 199.047141 
L 424.422795 188.967028 
L 424.593145 206.051601 
L 424.763005 174.053645 
L 424.93238 189.073609 
L 425.101272 190.513507 
L 425.269683 182.630994 
L 425.437616 188.337466 
L 425.605074 184.213134 
L 425.605534 348.359688 
M 425.938143 348.359688 
L 425.938576 193.656321 
L 426.104625 191.881134 
L 426.270209 208.13139 
L 426.599995 189.377576 
L 426.764202 193.583478 
L 426.927954 182.201159 
L 427.091254 184.079323 
L 427.254106 188.93075 
L 427.41651 197.685062 
L 427.739989 179.399624 
L 428.061709 209.374192 
L 428.221916 182.018825 
L 428.541035 192.433399 
L 428.699952 240.097922 
L 428.858443 190.321643 
L 429.016511 193.129068 
L 429.174158 176.394111 
L 429.331386 182.309795 
L 429.488198 182.891248 
L 429.644595 180.015403 
L 429.800581 214.140745 
L 429.956156 179.516763 
L 430.266086 190.29337 
L 430.420444 191.55756 
L 430.574401 222.329648 
L 430.881119 189.533207 
L 431.033884 241.691671 
L 431.186256 182.737034 
L 431.338236 199.110153 
L 431.489828 194.508899 
L 431.641032 206.69926 
L 431.791851 183.773591 
L 431.942286 183.943914 
L 432.092341 195.5476 
L 432.242016 187.680823 
L 432.391313 187.245127 
L 432.540235 184.302298 
L 432.688783 185.262639 
L 432.83696 182.280195 
L 432.984766 191.193133 
L 433.132204 181.168732 
L 433.279276 191.851081 
L 433.425984 184.490873 
L 433.572328 184.140879 
L 433.863937 208.762608 
L 434.009204 204.372547 
L 434.154116 183.245818 
L 434.298674 197.300317 
L 434.442879 192.53239 
L 434.586735 179.414874 
L 434.730241 203.355748 
L 434.873401 183.591558 
L 435.016215 195.826838 
L 435.158685 193.295967 
L 435.442601 256.815781 
L 435.58405 196.003672 
L 435.725162 194.111101 
L 436.006381 179.770123 
L 436.146491 185.9405 
L 436.28627 199.904215 
L 436.564842 200.945001 
L 436.703638 198.266986 
L 436.842109 203.030987 
L 436.980257 196.771945 
L 437.118083 184.505602 
L 437.25559 212.68103 
L 437.392777 193.898269 
L 437.666202 206.625829 
L 437.802443 234.52448 
L 437.93837 181.242239 
L 438.073986 185.95175 
L 438.209292 174.34584 
L 438.34429 196.967152 
L 438.47898 189.048389 
L 438.613365 189.743646 
L 438.613722 348.359688 
M 438.880884 348.359688 
L 438.881223 197.619512 
L 439.014698 182.655618 
L 439.147874 206.42078 
L 439.28075 188.375483 
L 439.413329 219.350035 
L 439.545611 197.952306 
L 439.809293 205.869199 
L 439.940694 232.384865 
L 440.202626 180.544071 
L 440.333158 191.83533 
L 440.463404 192.715691 
L 440.723037 185.384066 
L 440.852428 185.325974 
L 440.981537 205.879924 
L 441.110365 195.104797 
L 441.238913 238.294211 
L 441.367183 195.348421 
L 441.495175 206.103269 
L 441.622892 191.123107 
L 441.750333 199.244179 
L 441.8775 189.072215 
L 442.004395 200.182893 
L 442.131018 198.403626 
L 442.509272 180.136136 
L 442.760104 189.325747 
L 443.009878 185.09781 
L 443.134371 200.32358 
L 443.258603 181.130596 
L 443.382575 194.229274 
L 443.506287 175.088737 
L 443.629742 226.080409 
L 443.752939 228.513696 
L 443.875881 181.244645 
L 443.998568 215.245393 
L 444.121001 183.948224 
L 444.243182 218.740069 
L 444.36511 209.09489 
L 444.486789 185.289526 
L 444.608217 202.477665 
L 444.729397 192.240135 
L 444.85033 247.891991 
L 445.091456 216.164678 
L 445.211652 205.264563 
L 445.451314 210.090219 
L 445.570782 206.311115 
L 445.690009 187.222481 
L 445.808997 206.997311 
L 445.927746 197.970507 
L 446.164532 204.272463 
L 446.282571 242.164252 
L 446.517945 198.890974 
L 446.635281 213.128907 
L 446.752386 203.211241 
L 446.86926 214.013448 
L 446.985903 213.984123 
L 447.102317 192.994641 
L 447.33446 230.531427 
L 447.565696 201.935151 
L 447.680976 195.476896 
L 447.796033 201.796885 
L 447.910866 196.026439 
L 448.025476 217.366034 
L 448.139866 217.581675 
L 448.254034 185.856647 
L 448.367983 208.737498 
L 448.481713 202.866968 
L 448.595225 223.931276 
L 448.708519 194.876077 
L 448.93446 198.51521 
L 449.047108 201.290883 
L 449.159542 312.975774 
L 449.383771 197.135799 
L 449.495568 223.549768 
L 449.607154 197.431194 
L 449.829697 210.203734 
L 449.940656 211.424819 
L 450.051407 197.185864 
L 450.161951 216.869605 
L 450.272289 215.053276 
L 450.382422 202.617759 
L 450.382691 348.359688 
M 450.601796 348.359688 
L 450.602075 197.015642 
L 450.711597 201.993006 
L 450.820916 208.729908 
L 450.930034 236.189223 
L 451.147668 197.298208 
L 451.256186 192.731448 
L 451.364505 192.753668 
L 451.58055 207.051139 
L 451.688278 197.935633 
L 451.79581 206.816901 
L 451.903147 226.410811 
L 452.01029 192.136362 
L 452.11724 198.640748 
L 452.214949 348.359688 
M 452.232968 348.359688 
L 452.436933 191.25942 
L 452.543115 200.795445 
L 452.649107 193.585153 
L 452.754909 201.849705 
L 452.860523 254.97858 
L 452.965948 194.00669 
L 453.071186 218.829149 
L 453.176238 215.865868 
L 453.385783 197.344115 
L 453.490278 191.034414 
L 453.594589 199.035155 
L 453.698716 193.847565 
L 453.802661 198.973725 
L 454.010004 195.215817 
L 454.113404 233.966682 
L 454.319663 195.591391 
L 454.422524 188.171806 
L 454.627711 211.460277 
L 454.730039 226.305438 
L 454.934164 188.617936 
L 455.035964 189.173897 
L 455.137589 210.729368 
L 455.239039 204.776692 
L 455.340316 188.2083 
L 455.44142 232.832501 
L 455.542352 212.953318 
L 455.7437 245.457037 
L 455.844119 186.61045 
L 456.044445 198.48693 
L 456.144355 195.890212 
L 456.244096 227.060226 
L 456.343669 217.31799 
L 456.443076 195.804087 
L 456.542315 310.671126 
L 456.641389 197.374332 
L 456.740297 232.68838 
L 456.83904 215.91719 
L 457.036033 257.319225 
L 457.134284 208.789695 
L 457.330299 233.454406 
L 457.428064 204.66466 
L 457.525667 207.920525 
L 457.62311 262.282046 
L 457.817515 196.289129 
L 457.914479 214.926159 
L 458.011284 203.348393 
L 458.011519 348.359688 
M 458.204223 348.359688 
L 458.300754 185.725123 
L 458.39693 268.926323 
L 458.588815 194.198876 
L 458.78008 211.244083 
L 458.970728 201.319769 
L 459.160765 208.315632 
L 459.444681 191.938609 
L 459.539018 223.005933 
L 459.727242 194.932031 
L 459.727484 348.359688 
M 459.914671 348.359688 
L 460.008461 211.832263 
L 460.101904 204.573028 
L 460.28835 211.293438 
L 460.381353 198.4232 
L 460.566922 214.966389 
L 460.659489 201.801547 
L 460.751911 244.901928 
L 460.936323 203.177894 
L 461.120163 221.047676 
L 461.120359 348.359688 
M 461.303214 348.359688 
L 461.394857 204.799144 
L 461.486139 213.860378 
L 461.577281 200.740795 
L 461.668282 242.291531 
L 461.759144 206.517398 
L 461.849866 211.798727 
L 461.94045 188.568166 
L 462.211372 211.741958 
L 462.301405 209.147981 
L 462.391301 200.840121 
L 462.48106 221.129451 
L 462.570684 217.409179 
L 462.660172 194.944294 
L 462.749525 236.521713 
L 462.838744 214.843089 
L 462.927828 234.852696 
L 463.016778 203.417179 
L 463.194279 262.664071 
L 463.28283 256.007965 
L 463.459536 193.352083 
L 463.547691 202.557012 
L 463.635716 223.945844 
L 463.723609 214.863801 
L 463.811373 224.263303 
L 463.899006 191.120767 
L 463.98651 220.895715 
L 464.073885 197.486268 
L 464.161131 216.287328 
L 464.248249 212.012351 
L 464.335238 223.904733 
L 464.4221 211.132193 
L 464.508835 241.488361 
L 464.595443 199.67478 
L 464.681924 241.198204 
L 464.682079 348.359688 
M 464.854367 348.359688 
L 464.940612 221.201232 
L 464.940796 348.359688 
M 465.112245 348.359688 
L 465.112445 209.58962 
L 465.198175 214.909138 
L 465.283781 209.236393 
L 465.369263 210.48901 
L 465.454622 225.877202 
L 465.539858 206.118516 
L 465.709963 235.445632 
L 465.794832 201.229027 
L 465.795042 348.359688 
L 465.795042 348.359688 
" clip-path="url(#pf1df3462cd)" style="fill: none; stroke: #4c72b0; stroke-width: 1.5; stroke-linecap: round"/>
   </g>
   <g id="line2d_2">
    <path clip-path="url(#pf1df3462cd)" style="fill: none; stroke-dasharray: 5.55,2.4; stroke-dashoffset: 0; stroke: #808080; stroke-width: 1.5"/>
   </g>
   <g id="patch_3">
    <path d="M 58.16375 284.4 
L 58.16375 7.2 
" style="fill: none; stroke: #262626; stroke-width: 1.25; stroke-linejoin: miter; stroke-linecap: square"/>
   </g>
   <g id="patch_4">
    <path d="M 78.16375 304.4 
L 468.76375 304.4 
" style="fill: none; stroke: #262626; stroke-width: 1.25; stroke-linejoin: miter; stroke-linecap: square"/>
   </g>
  </g>
 </g>
 <defs>
  <clipPath id="pf1df3462cd">
   <rect x="78.16375" y="7.2" width="390.6" height="277.2"/>
  </clipPath>
 </defs>
</svg>
