<?xml version="1.0" encoding="utf-8" standalone="no"?>
<!DOCTYPE svg PUBLIC "-//W3C//DTD SVG 1.1//EN"
  "http://www.w3.org/Graphics/SVG/1.1/DTD/svg11.dtd">
<svg xmlns:xlink="http://www.w3.org/1999/xlink" width="455.96375pt" height="327.359688pt" viewBox="0 0 455.96375 327.359688" xmlns="http://www.w3.org/2000/svg" version="1.1">
 <metadata>
  <rdf:RDF xmlns:dc="http://purl.org/dc/elements/1.1/" xmlns:cc="http://creativecommons.org/ns#" xmlns:rdf="http://www.w3.org/1999/02/22-rdf-syntax-ns#">
   <cc:Work>
    <dc:type rdf:resource="http://purl.org/dc/dcmitype/StillImage"/>
    <dc:date>2023-08-14T01:41:27.048226</dc:date>
    <dc:format>image/svg+xml</dc:format>
    <dc:creator>
     <cc:Agent>
      <dc:title>Matplotlib v3.7.2, https://matplotlib.org/</dc:title>
     </cc:Agent>
    </dc:creator>
   </cc:Work>
  </rdf:RDF>
 </metadata>
 <defs>
  <style type="text/css">*{stroke-linejoin: round; stroke-linecap: butt}</style>
 </defs>
 <g id="figure_1">
  <g id="patch_1">
   <path d="M 0 327.359688 
L 455.96375 327.359688 
L 455.96375 0 
L 0 0 
z
" style="fill: #ffffff"/>
  </g>
  <g id="axes_1">
   <g id="patch_2">
    <path d="M 58.16375 284.4 
L 448.76375 284.4 
L 448.76375 7.2 
L 58.16375 7.2 
z
" style="fill: #ffffff"/>
   </g>
   <g id="matplotlib.axis_1">
    <g id="xtick_1">
     <g id="text_1">
      <!-- $\mathdefault{10^{0}}$ -->
      <g style="fill: #262626" transform="translate(66.238295 302.258281) scale(0.11 -0.11)">
       <defs>
        <path id="DejaVuSans-31" d="M 794 531 
L 1825 531 
L 1825 4091 
L 703 3866 
L 703 4441 
L 1819 4666 
L 2450 4666 
L 2450 531 
L 3481 531 
L 3481 0 
L 794 0 
L 794 531 
z
" transform="scale(0.015625)"/>
        <path id="DejaVuSans-30" d="M 2034 4250 
Q 1547 4250 1301 3770 
Q 1056 3291 1056 2328 
Q 1056 1369 1301 889 
Q 1547 409 2034 409 
Q 2525 409 2770 889 
Q 3016 1369 3016 2328 
Q 3016 3291 2770 3770 
Q 2525 4250 2034 4250 
z
M 2034 4750 
Q 2819 4750 3233 4129 
Q 3647 3509 3647 2328 
Q 3647 1150 3233 529 
Q 2819 -91 2034 -91 
Q 1250 -91 836 529 
Q 422 1150 422 2328 
Q 422 3509 836 4129 
Q 1250 4750 2034 4750 
z
" transform="scale(0.015625)"/>
       </defs>
       <use xlink:href="#DejaVuSans-31" transform="translate(0 0.765625)"/>
       <use xlink:href="#DejaVuSans-30" transform="translate(63.623047 0.765625)"/>
       <use xlink:href="#DejaVuSans-30" transform="translate(128.203125 39.046875) scale(0.7)"/>
      </g>
     </g>
    </g>
    <g id="xtick_2">
     <g id="text_2">
      <!-- $\mathdefault{10^{1}}$ -->
      <g style="fill: #262626" transform="translate(191.073507 302.258281) scale(0.11 -0.11)">
       <use xlink:href="#DejaVuSans-31" transform="translate(0 0.684375)"/>
       <use xlink:href="#DejaVuSans-30" transform="translate(63.623047 0.684375)"/>
       <use xlink:href="#DejaVuSans-31" transform="translate(128.203125 38.965625) scale(0.7)"/>
      </g>
     </g>
    </g>
    <g id="xtick_3">
     <g id="text_3">
      <!-- $\mathdefault{10^{2}}$ -->
      <g style="fill: #262626" transform="translate(315.908718 302.258281) scale(0.11 -0.11)">
       <defs>
        <path id="DejaVuSans-32" d="M 1228 531 
L 3431 531 
L 3431 0 
L 469 0 
L 469 531 
Q 828 903 1448 1529 
Q 2069 2156 2228 2338 
Q 2531 2678 2651 2914 
Q 2772 3150 2772 3378 
Q 2772 3750 2511 3984 
Q 2250 4219 1831 4219 
Q 1534 4219 1204 4116 
Q 875 4013 500 3803 
L 500 4441 
Q 881 4594 1212 4672 
Q 1544 4750 1819 4750 
Q 2544 4750 2975 4387 
Q 3406 4025 3406 3419 
Q 3406 3131 3298 2873 
Q 3191 2616 2906 2266 
Q 2828 2175 2409 1742 
Q 1991 1309 1228 531 
z
" transform="scale(0.015625)"/>
       </defs>
       <use xlink:href="#DejaVuSans-31" transform="translate(0 0.765625)"/>
       <use xlink:href="#DejaVuSans-30" transform="translate(63.623047 0.765625)"/>
       <use xlink:href="#DejaVuSans-32" transform="translate(128.203125 39.046875) scale(0.7)"/>
      </g>
     </g>
    </g>
    <g id="xtick_4"/>
    <g id="xtick_5"/>
    <g id="xtick_6"/>
    <g id="xtick_7"/>
    <g id="xtick_8"/>
    <g id="xtick_9"/>
    <g id="xtick_10"/>
    <g id="xtick_11"/>
    <g id="xtick_12"/>
    <g id="xtick_13"/>
    <g id="xtick_14"/>
    <g id="xtick_15"/>
    <g id="xtick_16"/>
    <g id="xtick_17"/>
    <g id="xtick_18"/>
    <g id="xtick_19"/>
    <g id="xtick_20"/>
    <g id="xtick_21"/>
    <g id="xtick_22"/>
    <g id="xtick_23"/>
    <g id="xtick_24"/>
    <g id="xtick_25"/>
    <g id="xtick_26"/>
    <g id="xtick_27"/>
    <g id="xtick_28"/>
    <g id="xtick_29"/>
    <g id="text_4">
     <!-- rank -->
     <g style="fill: #262626" transform="translate(240.043438 317.664062) scale(0.12 -0.12)">
      <defs>
       <path id="DejaVuSans-72" d="M 2631 2963 
Q 2534 3019 2420 3045 
Q 2306 3072 2169 3072 
Q 1681 3072 1420 2755 
Q 1159 2438 1159 1844 
L 1159 0 
L 581 0 
L 581 3500 
L 1159 3500 
L 1159 2956 
Q 1341 3275 1631 3429 
Q 1922 3584 2338 3584 
Q 2397 3584 2469 3576 
Q 2541 3569 2628 3553 
L 2631 2963 
z
" transform="scale(0.015625)"/>
       <path id="DejaVuSans-61" d="M 2194 1759 
Q 1497 1759 1228 1600 
Q 959 1441 959 1056 
Q 959 750 1161 570 
Q 1363 391 1709 391 
Q 2188 391 2477 730 
Q 2766 1069 2766 1631 
L 2766 1759 
L 2194 1759 
z
M 3341 1997 
L 3341 0 
L 2766 0 
L 2766 531 
Q 2569 213 2275 61 
Q 1981 -91 1556 -91 
Q 1019 -91 701 211 
Q 384 513 384 1019 
Q 384 1609 779 1909 
Q 1175 2209 1959 2209 
L 2766 2209 
L 2766 2266 
Q 2766 2663 2505 2880 
Q 2244 3097 1772 3097 
Q 1472 3097 1187 3025 
Q 903 2953 641 2809 
L 641 3341 
Q 956 3463 1253 3523 
Q 1550 3584 1831 3584 
Q 2591 3584 2966 3190 
Q 3341 2797 3341 1997 
z
" transform="scale(0.015625)"/>
       <path id="DejaVuSans-6e" d="M 3513 2113 
L 3513 0 
L 2938 0 
L 2938 2094 
Q 2938 2591 2744 2837 
Q 2550 3084 2163 3084 
Q 1697 3084 1428 2787 
Q 1159 2491 1159 1978 
L 1159 0 
L 581 0 
L 581 3500 
L 1159 3500 
L 1159 2956 
Q 1366 3272 1645 3428 
Q 1925 3584 2291 3584 
Q 2894 3584 3203 3211 
Q 3513 2838 3513 2113 
z
" transform="scale(0.015625)"/>
       <path id="DejaVuSans-6b" d="M 581 4863 
L 1159 4863 
L 1159 1991 
L 2875 3500 
L 3609 3500 
L 1753 1863 
L 3688 0 
L 2938 0 
L 1159 1709 
L 1159 0 
L 581 0 
L 581 4863 
z
" transform="scale(0.015625)"/>
      </defs>
      <use xlink:href="#DejaVuSans-72"/>
      <use xlink:href="#DejaVuSans-61" x="41.113281"/>
      <use xlink:href="#DejaVuSans-6e" x="102.392578"/>
      <use xlink:href="#DejaVuSans-6b" x="165.771484"/>
     </g>
    </g>
   </g>
   <g id="matplotlib.axis_2">
    <g id="ytick_1">
     <g id="text_5">
      <!-- $\mathdefault{0}$ -->
      <g style="fill: #262626" transform="translate(41.62375 282.865326) scale(0.11 -0.11)">
       <use xlink:href="#DejaVuSans-30" transform="translate(0 0.78125)"/>
      </g>
     </g>
    </g>
    <g id="ytick_2">
     <g id="text_6">
      <!-- $\mathdefault{10^{-2}}$ -->
      <g style="fill: #262626" transform="translate(22.81375 277.15151) scale(0.11 -0.11)">
       <defs>
        <path id="DejaVuSans-2212" d="M 678 2272 
L 4684 2272 
L 4684 1741 
L 678 1741 
L 678 2272 
z
" transform="scale(0.015625)"/>
       </defs>
       <use xlink:href="#DejaVuSans-31" transform="translate(0 0.765625)"/>
       <use xlink:href="#DejaVuSans-30" transform="translate(63.623047 0.765625)"/>
       <use xlink:href="#DejaVuSans-2212" transform="translate(128.203125 39.046875) scale(0.7)"/>
       <use xlink:href="#DejaVuSans-32" transform="translate(186.855469 39.046875) scale(0.7)"/>
      </g>
     </g>
    </g>
    <g id="ytick_3">
     <g id="text_7">
      <!-- $\mathdefault{10^{-1}}$ -->
      <g style="fill: #262626" transform="translate(22.81375 225.727174) scale(0.11 -0.11)">
       <use xlink:href="#DejaVuSans-31" transform="translate(0 0.684375)"/>
       <use xlink:href="#DejaVuSans-30" transform="translate(63.623047 0.684375)"/>
       <use xlink:href="#DejaVuSans-2212" transform="translate(128.203125 38.965625) scale(0.7)"/>
       <use xlink:href="#DejaVuSans-31" transform="translate(186.855469 38.965625) scale(0.7)"/>
      </g>
     </g>
    </g>
    <g id="ytick_4">
     <g id="text_8">
      <!-- $\mathdefault{10^{0}}$ -->
      <g style="fill: #262626" transform="translate(29.30375 174.302838) scale(0.11 -0.11)">
       <use xlink:href="#DejaVuSans-31" transform="translate(0 0.765625)"/>
       <use xlink:href="#DejaVuSans-30" transform="translate(63.623047 0.765625)"/>
       <use xlink:href="#DejaVuSans-30" transform="translate(128.203125 39.046875) scale(0.7)"/>
      </g>
     </g>
    </g>
    <g id="ytick_5">
     <g id="text_9">
      <!-- $\mathdefault{10^{1}}$ -->
      <g style="fill: #262626" transform="translate(29.30375 122.878502) scale(0.11 -0.11)">
       <use xlink:href="#DejaVuSans-31" transform="translate(0 0.684375)"/>
       <use xlink:href="#DejaVuSans-30" transform="translate(63.623047 0.684375)"/>
       <use xlink:href="#DejaVuSans-31" transform="translate(128.203125 38.965625) scale(0.7)"/>
      </g>
     </g>
    </g>
    <g id="ytick_6">
     <g id="text_10">
      <!-- $\mathdefault{10^{2}}$ -->
      <g style="fill: #262626" transform="translate(29.30375 71.454166) scale(0.11 -0.11)">
       <use xlink:href="#DejaVuSans-31" transform="translate(0 0.765625)"/>
       <use xlink:href="#DejaVuSans-30" transform="translate(63.623047 0.765625)"/>
       <use xlink:href="#DejaVuSans-32" transform="translate(128.203125 39.046875) scale(0.7)"/>
      </g>
     </g>
    </g>
    <g id="ytick_7">
     <g id="text_11">
      <!-- $\mathdefault{10^{3}}$ -->
      <g style="fill: #262626" transform="translate(29.30375 20.02983) scale(0.11 -0.11)">
       <defs>
        <path id="DejaVuSans-33" d="M 2597 2516 
Q 3050 2419 3304 2112 
Q 3559 1806 3559 1356 
Q 3559 666 3084 287 
Q 2609 -91 1734 -91 
Q 1441 -91 1130 -33 
Q 819 25 488 141 
L 488 750 
Q 750 597 1062 519 
Q 1375 441 1716 441 
Q 2309 441 2620 675 
Q 2931 909 2931 1356 
Q 2931 1769 2642 2001 
Q 2353 2234 1838 2234 
L 1294 2234 
L 1294 2753 
L 1863 2753 
Q 2328 2753 2575 2939 
Q 2822 3125 2822 3475 
Q 2822 3834 2567 4026 
Q 2313 4219 1838 4219 
Q 1578 4219 1281 4162 
Q 984 4106 628 3988 
L 628 4550 
Q 988 4650 1302 4700 
Q 1616 4750 1894 4750 
Q 2613 4750 3031 4423 
Q 3450 4097 3450 3541 
Q 3450 3153 3228 2886 
Q 3006 2619 2597 2516 
z
" transform="scale(0.015625)"/>
       </defs>
       <use xlink:href="#DejaVuSans-31" transform="translate(0 0.765625)"/>
       <use xlink:href="#DejaVuSans-30" transform="translate(63.623047 0.765625)"/>
       <use xlink:href="#DejaVuSans-33" transform="translate(128.203125 39.046875) scale(0.7)"/>
      </g>
     </g>
    </g>
    <g id="text_12">
     <!-- eigenvalue -->
     <g style="fill: #262626" transform="translate(16.318125 178.851562) rotate(-90) scale(0.12 -0.12)">
      <defs>
       <path id="DejaVuSans-65" d="M 3597 1894 
L 3597 1613 
L 953 1613 
Q 991 1019 1311 708 
Q 1631 397 2203 397 
Q 2534 397 2845 478 
Q 3156 559 3463 722 
L 3463 178 
Q 3153 47 2828 -22 
Q 2503 -91 2169 -91 
Q 1331 -91 842 396 
Q 353 884 353 1716 
Q 353 2575 817 3079 
Q 1281 3584 2069 3584 
Q 2775 3584 3186 3129 
Q 3597 2675 3597 1894 
z
M 3022 2063 
Q 3016 2534 2758 2815 
Q 2500 3097 2075 3097 
Q 1594 3097 1305 2825 
Q 1016 2553 972 2059 
L 3022 2063 
z
" transform="scale(0.015625)"/>
       <path id="DejaVuSans-69" d="M 603 3500 
L 1178 3500 
L 1178 0 
L 603 0 
L 603 3500 
z
M 603 4863 
L 1178 4863 
L 1178 4134 
L 603 4134 
L 603 4863 
z
" transform="scale(0.015625)"/>
       <path id="DejaVuSans-67" d="M 2906 1791 
Q 2906 2416 2648 2759 
Q 2391 3103 1925 3103 
Q 1463 3103 1205 2759 
Q 947 2416 947 1791 
Q 947 1169 1205 825 
Q 1463 481 1925 481 
Q 2391 481 2648 825 
Q 2906 1169 2906 1791 
z
M 3481 434 
Q 3481 -459 3084 -895 
Q 2688 -1331 1869 -1331 
Q 1566 -1331 1297 -1286 
Q 1028 -1241 775 -1147 
L 775 -588 
Q 1028 -725 1275 -790 
Q 1522 -856 1778 -856 
Q 2344 -856 2625 -561 
Q 2906 -266 2906 331 
L 2906 616 
Q 2728 306 2450 153 
Q 2172 0 1784 0 
Q 1141 0 747 490 
Q 353 981 353 1791 
Q 353 2603 747 3093 
Q 1141 3584 1784 3584 
Q 2172 3584 2450 3431 
Q 2728 3278 2906 2969 
L 2906 3500 
L 3481 3500 
L 3481 434 
z
" transform="scale(0.015625)"/>
       <path id="DejaVuSans-76" d="M 191 3500 
L 800 3500 
L 1894 563 
L 2988 3500 
L 3597 3500 
L 2284 0 
L 1503 0 
L 191 3500 
z
" transform="scale(0.015625)"/>
       <path id="DejaVuSans-6c" d="M 603 4863 
L 1178 4863 
L 1178 0 
L 603 0 
L 603 4863 
z
" transform="scale(0.015625)"/>
       <path id="DejaVuSans-75" d="M 544 1381 
L 544 3500 
L 1119 3500 
L 1119 1403 
Q 1119 906 1312 657 
Q 1506 409 1894 409 
Q 2359 409 2629 706 
Q 2900 1003 2900 1516 
L 2900 3500 
L 3475 3500 
L 3475 0 
L 2900 0 
L 2900 538 
Q 2691 219 2414 64 
Q 2138 -91 1772 -91 
Q 1169 -91 856 284 
Q 544 659 544 1381 
z
M 1991 3584 
L 1991 3584 
z
" transform="scale(0.015625)"/>
      </defs>
      <use xlink:href="#DejaVuSans-65"/>
      <use xlink:href="#DejaVuSans-69" x="61.523438"/>
      <use xlink:href="#DejaVuSans-67" x="89.306641"/>
      <use xlink:href="#DejaVuSans-65" x="152.783203"/>
      <use xlink:href="#DejaVuSans-6e" x="214.306641"/>
      <use xlink:href="#DejaVuSans-76" x="277.685547"/>
      <use xlink:href="#DejaVuSans-61" x="336.865234"/>
      <use xlink:href="#DejaVuSans-6c" x="398.144531"/>
      <use xlink:href="#DejaVuSans-75" x="425.927734"/>
      <use xlink:href="#DejaVuSans-65" x="489.306641"/>
     </g>
    </g>
   </g>
   <g id="PolyCollection_1"/>
   <g id="PolyCollection_2"/>
   <g id="line2d_1">
    <path d="M 75.918295 44.93395 
L 113.497439 34.875082 
L 135.479828 58.483695 
L 151.076582 60.203878 
L 163.174364 79.943567 
L 173.058971 63.989471 
L 181.416288 89.394219 
L 188.655725 89.083552 
L 195.041361 81.915638 
L 200.753507 111.120926 
L 205.920771 88.707539 
L 210.638114 81.44847 
L 214.977649 85.728942 
L 218.995431 91.390044 
L 222.735896 82.826199 
L 226.234868 116.913435 
L 229.521646 99.773737 
L 232.620504 117.724139 
L 235.551771 121.363145 
L 238.33265 105.411972 
L 240.97782 111.241227 
L 243.499914 118.063225 
L 245.909878 105.047218 
L 248.217257 109.304465 
L 250.430432 111.167622 
L 252.556792 107.932547 
L 254.602893 127.919 
L 256.574574 120.705293 
L 258.477058 112.340519 
L 260.315039 112.187463 
L 262.092748 125.251714 
L 263.814011 119.776956 
L 265.482304 115.682125 
L 267.10079 118.556669 
L 268.672356 130.378971 
L 270.199647 118.272785 
L 271.685089 122.484963 
L 273.130914 118.891949 
L 275.911793 121.743783 
L 277.250509 131.61457 
L 278.556964 125.991696 
L 281.079057 141.464026 
L 282.297429 127.24865 
L 283.489021 125.49861 
L 284.654985 131.970464 
L 285.7964 130.77225 
L 286.91428 126.92285 
L 288.009575 127.048634 
L 289.083179 135.418789 
L 290.135935 131.095578 
L 291.168638 133.056459 
L 292.182036 127.261299 
L 293.176839 133.827697 
L 294.153717 160.129789 
L 295.113304 135.167807 
L 296.056202 138.358983 
L 296.98298 150.552283 
L 297.894182 128.917027 
L 298.790323 148.836035 
L 299.671891 146.000341 
L 300.539353 144.949811 
L 301.393154 132.340153 
L 302.233717 152.505193 
L 303.061447 147.444272 
L 303.876729 143.514422 
L 304.679933 143.505571 
L 305.47141 142.906289 
L 306.251499 147.438906 
L 307.020522 141.075698 
L 307.77879 172.762813 
L 308.526598 149.2304 
L 309.264232 142.094921 
L 309.991964 142.947074 
L 310.710058 151.641295 
L 311.418764 150.688043 
L 312.118325 146.187107 
L 312.808974 155.378464 
L 313.490936 144.518037 
L 314.164426 149.268345 
L 314.829652 147.845253 
L 315.486814 143.455279 
L 316.136107 141.953119 
L 316.777715 143.950452 
L 317.411818 142.671448 
L 318.038591 153.371011 
L 318.658201 147.171215 
L 319.270809 153.983619 
L 319.876572 146.416899 
L 320.475641 143.90593 
L 321.068164 146.962949 
L 321.65428 154.154336 
L 322.234128 148.230998 
L 322.807839 143.726257 
L 323.375544 152.642024 
L 323.937365 157.486117 
L 324.493423 145.222464 
L 325.043837 149.893521 
L 325.588718 152.343225 
L 326.128178 158.410189 
L 326.662322 153.161721 
L 327.191256 151.295564 
L 327.715078 166.553503 
L 328.233889 152.258218 
L 328.747781 151.893169 
L 329.256848 148.228504 
L 329.76118 152.039173 
L 330.260863 151.025836 
L 330.755983 152.716127 
L 331.246622 159.090033 
L 331.73286 177.373214 
L 332.214777 158.799118 
L 332.692447 155.282969 
L 333.165946 149.589295 
L 333.635345 151.473376 
L 334.100714 163.665593 
L 334.562123 153.06287 
L 335.019639 168.408944 
L 335.473326 156.416791 
L 335.923247 157.953038 
L 336.369466 161.801504 
L 337.251034 155.189966 
L 337.6865 159.44766 
L 338.118496 152.245526 
L 338.547077 166.597772 
L 338.972297 154.785801 
L 339.394208 169.947962 
L 339.81286 171.917324 
L 340.228305 176.086742 
L 340.64059 156.132127 
L 341.049764 159.030412 
L 341.455872 164.32794 
L 341.858961 160.344166 
L 342.656259 165.463318 
L 343.050553 153.572632 
L 343.442001 161.21589 
L 343.830642 160.334237 
L 344.216517 163.395286 
L 344.599666 161.576394 
L 344.980125 162.686097 
L 345.357933 165.012634 
L 345.733127 158.97065 
L 346.105741 158.075474 
L 346.475813 170.492785 
L 346.843375 162.655148 
L 347.208462 175.553268 
L 347.571107 181.689247 
L 348.289201 163.724101 
L 348.644712 162.174167 
L 348.997907 162.191697 
L 349.348816 164.213389 
L 349.697468 168.029455 
L 350.043892 174.176136 
L 350.388117 172.044161 
L 350.73017 179.045878 
L 351.070079 162.127825 
L 351.40787 171.79373 
L 351.743569 168.804259 
L 352.077202 160.871461 
L 352.408795 164.959744 
L 352.738372 162.940507 
L 353.065958 163.236904 
L 353.391576 177.081074 
L 353.71525 165.619263 
L 354.037003 164.959297 
L 354.356858 164.049314 
L 354.674837 176.548139 
L 354.990961 165.762575 
L 355.305253 165.787511 
L 355.617734 168.951852 
L 355.928424 167.518094 
L 356.237344 176.539346 
L 356.544513 171.73528 
L 356.849952 169.426312 
L 357.153679 168.36073 
L 357.455715 174.559042 
L 357.756077 168.104184 
L 358.054785 175.601872 
L 358.351855 175.714131 
L 358.647307 182.824599 
L 359.233423 167.757313 
L 359.524122 179.102194 
L 359.813271 169.122591 
L 360.100886 167.779555 
L 360.386983 177.059628 
L 360.671578 181.424922 
L 360.954687 162.884587 
L 361.236325 171.129023 
L 361.516508 163.723004 
L 361.79525 178.327 
L 362.072566 170.536469 
L 362.348471 170.759186 
L 362.62298 177.903833 
L 362.896105 166.514117 
L 363.167861 164.77684 
L 363.438262 171.721367 
L 363.707321 169.334808 
L 363.975051 176.499961 
L 364.241465 180.159652 
L 364.506577 191.732474 
L 364.770399 174.930475 
L 365.032943 176.956577 
L 365.294222 187.897299 
L 365.554247 175.517839 
L 365.813032 180.338034 
L 366.070587 173.568908 
L 366.326924 178.816621 
L 366.582055 179.440554 
L 366.835991 165.935996 
L 367.088743 165.169966 
L 367.340323 178.945309 
L 367.59074 181.730373 
L 367.840006 178.03172 
L 368.088131 178.491003 
L 368.335126 177.403879 
L 368.581 189.295636 
L 369.069429 171.353715 
L 369.553497 184.245357 
L 369.79392 177.777695 
L 370.033281 198.860237 
L 370.27159 174.624177 
L 370.508856 179.49066 
L 370.745089 176.864324 
L 370.980296 181.338718 
L 371.214488 180.384495 
L 371.447672 180.829999 
L 371.679857 175.658264 
L 371.911053 187.371818 
L 372.141267 180.970023 
L 372.370507 169.893687 
L 372.598782 170.898504 
L 372.8261 169.963208 
L 373.277896 185.635712 
L 373.50239 234.019917 
L 373.725959 185.826386 
L 373.948609 174.403453 
L 374.170348 182.890695 
L 374.391185 174.344378 
L 374.611125 179.317514 
L 374.830177 188.446226 
L 375.048347 174.770643 
L 375.265643 181.140661 
L 375.482071 179.618236 
L 375.697639 179.47683 
L 375.912353 178.806756 
L 376.12622 193.196582 
L 376.55144 183.217048 
L 376.762806 183.001946 
L 376.973351 184.428875 
L 377.183081 172.768454 
L 377.392003 191.89759 
L 377.600124 178.885248 
L 377.807448 175.244948 
L 378.013982 176.081772 
L 378.219733 182.589635 
L 378.424706 178.28551 
L 378.628907 178.001794 
L 378.832341 175.048163 
L 379.035015 177.213794 
L 379.236935 180.601186 
L 379.438105 188.889084 
L 379.638531 177.617661 
L 379.838219 179.139443 
L 380.037174 178.370962 
L 380.235402 175.790257 
L 380.432908 175.656945 
L 380.629696 194.233059 
L 380.825773 185.295818 
L 381.021144 194.228648 
L 381.215813 180.271058 
L 381.409785 195.36194 
L 381.603066 172.943077 
L 381.79566 182.852235 
L 381.987573 174.02306 
L 382.178809 175.895095 
L 382.369372 174.881693 
L 382.559268 185.151645 
L 382.748501 182.940119 
L 382.937076 178.162624 
L 383.124997 199.947159 
L 383.31227 183.084069 
L 383.498897 193.005035 
L 383.684884 180.583874 
L 383.870236 188.551145 
L 384.054956 174.690732 
L 384.422518 188.166403 
L 384.605369 172.18364 
L 384.969231 197.262712 
L 385.150251 180.952058 
L 385.330667 191.68531 
L 385.68971 175.019384 
L 386.046391 184.555198 
L 386.223855 184.881858 
L 386.40074 202.62159 
L 386.57705 180.654872 
L 386.752788 178.197963 
L 386.927959 177.941129 
L 387.102565 188.682492 
L 387.276611 186.129304 
L 387.623036 175.192999 
L 387.795421 187.755846 
L 387.96726 232.882833 
L 388.138557 178.640098 
L 388.309314 184.071093 
L 388.479534 184.072526 
L 388.649222 191.017316 
L 388.818381 190.326823 
L 388.987013 182.71711 
L 389.322712 189.126473 
L 389.656345 185.625559 
L 389.822395 190.017583 
L 389.987938 197.441202 
L 390.152977 179.122503 
L 390.317515 206.201124 
L 390.645101 174.403284 
L 390.808154 185.978958 
L 390.970719 186.067911 
L 391.132797 187.898124 
L 391.294393 180.218646 
L 391.616146 188.349191 
L 391.776309 200.776211 
L 391.936001 181.395942 
L 392.095223 184.064429 
L 392.25398 198.546936 
L 392.412272 184.221359 
L 392.570104 207.213756 
L 392.727478 183.489118 
L 392.884397 199.329375 
L 393.040862 190.622453 
L 393.196877 205.372529 
L 393.352445 177.758106 
L 393.507567 190.718366 
L 393.662247 191.960202 
L 393.816487 185.153342 
L 393.970289 190.091526 
L 394.123656 186.524412 
L 394.276591 323.496378 
L 394.429095 194.67061 
L 394.581171 193.141712 
L 394.732823 207.162154 
L 395.034858 190.97686 
L 395.185247 194.610535 
L 395.33522 184.785296 
L 395.48478 186.412605 
L 395.633928 190.598143 
L 395.782666 198.145165 
L 396.078925 182.371484 
L 396.373574 208.23343 
L 396.5203 184.632489 
L 396.812566 193.614607 
L 396.958111 234.761087 
L 397.103265 191.793295 
L 397.248032 194.217356 
L 397.392414 179.776981 
L 397.536412 184.884486 
L 397.680029 185.383941 
L 397.823266 182.901126 
L 397.966126 212.350017 
L 398.10861 182.471814 
L 398.39246 191.768341 
L 398.53383 192.862964 
L 398.674832 219.415146 
L 398.95574 191.119614 
L 399.095651 236.127278 
L 399.235201 185.252915 
L 399.374393 199.374717 
L 399.513229 195.409746 
L 399.651709 205.928262 
L 399.789838 186.144572 
L 399.927615 186.296144 
L 400.065042 196.29757 
L 400.202123 189.516989 
L 400.338857 189.136056 
L 400.475248 186.587723 
L 400.611296 187.446816 
L 400.747004 184.857274 
L 400.882373 192.548859 
L 401.017405 183.894776 
L 401.152101 193.116425 
L 401.286464 186.765331 
L 401.420494 186.458786 
L 401.687565 207.716711 
L 401.820608 203.916739 
L 401.953326 185.691004 
L 402.08572 197.808548 
L 402.217791 193.701929 
L 402.349542 182.38367 
L 402.480973 203.042582 
L 402.612086 185.987923 
L 402.742883 196.547298 
L 402.873365 194.359901 
L 403.13339 249.209031 
L 403.262937 196.695205 
L 403.392175 195.066219 
L 403.64973 182.690778 
L 403.77805 188.013539 
L 403.906067 200.063002 
L 404.161198 200.960233 
L 404.288315 198.65332 
L 404.415134 202.763518 
L 404.541658 197.359014 
L 404.667886 186.776616 
L 404.793822 211.08852 
L 404.919466 194.884965 
L 405.169883 205.858622 
L 405.294659 229.931038 
L 405.419149 183.959626 
L 405.543353 188.027177 
L 405.667274 178.006618 
L 405.790912 197.53194 
L 405.914269 190.698822 
L 406.037345 191.298624 
L 406.160143 279.263825 
L 406.404908 185.180143 
L 406.526877 205.685329 
L 406.648572 190.116364 
L 406.769995 216.839677 
L 406.891146 198.381688 
L 407.13264 205.21284 
L 407.252985 228.070551 
L 407.492876 183.36015 
L 407.73171 193.861731 
L 407.969496 187.535931 
L 408.087999 187.483766 
L 408.206244 205.219472 
L 408.324232 195.921038 
L 408.441963 233.195313 
L 408.559439 196.132642 
L 408.676662 205.417247 
L 408.793631 192.488816 
L 408.910348 199.485956 
L 409.026815 190.721118 
L 409.143032 200.306458 
L 409.259001 198.768413 
L 409.605425 183.008071 
L 409.835151 190.935912 
L 410.063908 187.288182 
L 410.177925 200.423503 
L 410.291703 183.861872 
L 410.405243 195.171885 
L 410.518545 178.652457 
L 410.744443 224.756444 
L 410.857039 183.96133 
L 410.969402 213.304889 
L 411.081533 186.293979 
L 411.193433 216.318819 
L 411.305102 207.997976 
L 411.416541 187.452059 
L 411.527752 202.282875 
L 411.638735 193.451979 
L 411.749491 241.466267 
L 411.970328 214.094533 
L 412.080409 204.692535 
L 412.299905 208.841841 
L 412.40932 205.59223 
L 412.518515 189.120039 
L 412.62749 206.17866 
L 412.736247 198.398397 
L 412.953108 203.835248 
L 413.061214 236.517873 
L 413.276782 199.187737 
L 413.384246 211.473577 
L 413.491496 202.920105 
L 413.598535 212.235633 
L 413.705364 212.213081 
L 413.811982 194.101142 
L 414.024591 226.48563 
L 414.236369 201.814181 
L 414.341949 196.243361 
L 414.447324 201.699256 
L 414.552494 196.717284 
L 414.762224 215.268277 
L 414.866786 187.956572 
L 414.971147 207.683996 
L 415.075307 202.623708 
L 415.179267 220.798071 
L 415.283028 195.727024 
L 415.386591 196.780994 
L 415.593126 201.257768 
L 415.696099 276.79139 
L 415.90146 197.673805 
L 416.003849 220.467865 
L 416.106046 197.929642 
L 416.309863 208.9565 
L 416.411484 210.003929 
L 416.512916 197.721975 
L 416.614158 214.694134 
L 416.715212 213.135349 
L 416.816078 202.41563 
L 416.916756 327.86354 
L 417.017248 197.569414 
L 417.117553 201.867185 
L 417.217674 207.682438 
L 417.31761 231.366468 
L 417.516931 197.816555 
L 417.616317 193.875317 
L 417.715522 193.891884 
L 417.913388 206.229625 
L 418.012051 198.366758 
L 418.110534 206.027465 
L 418.208839 222.936915 
L 418.306967 193.361648 
L 418.404916 198.969634 
L 418.50269 278.415673 
L 418.697709 192.606913 
L 418.794956 200.837912 
L 418.892029 194.610119 
L 418.988928 201.741771 
L 419.085655 247.586399 
L 419.182209 194.974706 
L 419.278592 216.390042 
L 419.374804 213.833835 
L 419.566716 197.851236 
L 419.662418 192.41153 
L 419.757952 199.31463 
L 419.853317 194.836543 
L 419.948515 199.260608 
L 420.138411 196.018287 
L 420.23311 229.451607 
L 420.422014 196.343846 
L 420.516219 189.89589 
L 420.704141 210.037449 
L 420.797858 222.839912 
L 420.984807 190.32179 
L 421.07804 190.80538 
L 421.171114 209.406624 
L 421.264028 204.26554 
L 421.356783 189.971636 
L 421.449379 228.473903 
L 421.541818 211.329051 
L 421.726223 239.371265 
L 421.818192 188.593986 
L 421.910004 198.429532 
L 422.001661 198.842606 
L 422.093164 196.598626 
L 422.184512 223.507458 
L 422.366749 196.522567 
L 422.457637 276.615979 
L 422.548374 197.880745 
L 422.63896 228.349681 
L 422.729394 213.882073 
L 422.909811 249.607779 
L 422.999794 207.73116 
L 423.179315 229.012409 
L 423.268853 204.171152 
L 423.358244 206.979924 
L 423.447487 253.874332 
L 423.625534 196.94393 
L 423.714338 213.022589 
L 423.802998 203.035097 
L 423.891513 279.381897 
L 424.06811 187.830006 
L 424.156193 259.660782 
L 424.331931 195.140747 
L 424.507102 209.850933 
L 424.681708 201.283013 
L 424.855754 207.321135 
L 425.11578 193.190679 
L 425.202179 219.997605 
L 425.374564 195.771884 
L 425.460552 301.603975 
L 425.632119 210.354973 
L 425.7177 204.092977 
L 425.888457 209.89094 
L 425.973634 198.789031 
L 426.143588 213.058992 
L 426.228365 201.703689 
L 426.31301 238.876701 
L 426.481905 202.888996 
L 426.650276 218.310509 
L 426.734265 279.878095 
L 426.901855 204.28762 
L 426.985456 212.108746 
L 427.068929 200.785364 
L 427.152272 236.641002 
L 427.235489 205.767325 
L 427.318577 210.327147 
L 427.401538 190.282552 
L 427.649664 210.280305 
L 427.73212 208.037852 
L 427.814452 200.872391 
L 427.896658 218.372361 
L 427.97874 215.169256 
L 428.060698 195.78461 
L 428.142533 231.65635 
L 428.224244 212.954986 
L 428.305832 230.235049 
L 428.387297 203.098747 
L 428.549862 254.205783 
L 428.630962 248.475927 
L 428.792798 194.410235 
L 429.11503 221.067436 
L 429.195289 192.483625 
L 429.27543 218.177474 
L 429.355452 197.976587 
L 429.435357 214.201102 
L 429.515144 210.510006 
L 429.594814 220.772252 
L 429.674366 209.747271 
L 429.753803 235.95911 
L 429.833123 199.865795 
L 429.912327 235.695149 
L 429.991416 324.201204 
L 430.149248 218.442513 
L 430.227992 321.110501 
L 430.306621 208.420621 
L 430.385137 213.009138 
L 430.46354 208.117163 
L 430.541829 209.196815 
L 430.620005 222.474583 
L 430.698069 205.426348 
L 430.85386 230.730516 
L 430.931588 201.206889 
L 431.009205 322.523825 
L 431.009205 322.523825 
" clip-path="url(#p1986b941f5)" style="fill: none; stroke: #4c72b0; stroke-width: 1.5; stroke-linecap: round"/>
   </g>
   <g id="line2d_2">
    <path d="M 75.918295 8.289699 
L 113.497439 27.496559 
L 135.479828 29.435128 
L 151.076582 41.559154 
L 163.174364 44.25384 
L 173.058971 48.429101 
L 181.416288 49.511038 
L 188.655725 55.584977 
L 195.041361 56.925225 
L 200.753507 59.13683 
L 205.920771 60.351268 
L 210.638114 62.050209 
L 214.977649 63.02038 
L 218.995431 64.377826 
L 222.735896 66.617709 
L 226.234868 68.265667 
L 229.521646 69.568984 
L 232.620504 71.182554 
L 235.551771 71.911372 
L 238.33265 73.378595 
L 240.97782 74.170429 
L 243.499914 74.624608 
L 245.909878 75.489212 
L 248.217257 75.78613 
L 250.430432 76.40344 
L 252.556792 76.676359 
L 254.602893 77.89916 
L 256.574574 78.528349 
L 260.315039 79.345729 
L 262.092748 80.101207 
L 265.482304 81.102391 
L 267.10079 81.842501 
L 268.672356 81.887403 
L 270.199647 82.352133 
L 271.685089 83.094759 
L 274.539182 83.710795 
L 275.911793 84.253304 
L 277.250509 84.549555 
L 281.079057 85.747773 
L 288.009575 87.69392 
L 289.083179 88.058455 
L 290.135935 88.135229 
L 291.168638 88.671242 
L 293.176839 88.967408 
L 294.153717 89.483058 
L 296.98298 90.159829 
L 297.894182 90.251486 
L 299.671891 90.895552 
L 300.539353 91.477325 
L 301.393154 91.514587 
L 302.233717 91.709033 
L 304.679933 92.658215 
L 307.020522 93.028149 
L 309.264232 93.684603 
L 309.991964 94.051639 
L 313.490936 95.025613 
L 314.164426 95.294803 
L 315.486814 95.470717 
L 316.777715 95.877048 
L 317.411818 95.926447 
L 318.038591 96.338459 
L 322.234128 97.38855 
L 323.375544 97.558201 
L 323.937365 97.794034 
L 325.588718 98.128218 
L 326.128178 98.368934 
L 327.191256 98.628926 
L 327.715078 98.985602 
L 330.260863 99.377797 
L 334.100714 100.319054 
L 335.019639 100.649039 
L 335.923247 100.948398 
L 336.812042 101.014597 
L 337.251034 101.260433 
L 337.6865 101.279183 
L 338.972297 101.651363 
L 341.455872 102.169546 
L 342.656259 102.622738 
L 343.830642 102.780829 
L 344.599666 102.920783 
L 345.357933 103.179964 
L 347.931343 103.753866 
L 350.388117 104.403247 
L 352.408795 104.857547 
L 353.065958 104.951673 
L 353.71525 105.103721 
L 355.305253 105.510535 
L 356.544513 105.733229 
L 357.756077 106.019813 
L 359.813271 106.523956 
L 360.386983 106.639007 
L 361.79525 106.939797 
L 363.707321 107.30701 
L 364.241465 107.454483 
L 365.294222 107.651568 
L 370.033281 108.719062 
L 370.980296 108.941733 
L 371.911053 109.158773 
L 372.370507 109.253345 
L 373.052469 109.447786 
L 387.102565 112.677967 
L 387.4501 112.807924 
L 388.138557 112.944657 
L 390.808154 113.601914 
L 391.616146 113.81435 
L 392.412272 114.044883 
L 395.185247 114.736451 
L 396.66663 115.164327 
L 406.037345 117.888814 
L 412.953108 120.258385 
L 413.598535 120.481305 
L 413.811982 120.568838 
L 414.657461 120.926163 
L 415.90146 121.356563 
L 416.512916 121.600908 
L 416.916756 121.746374 
L 418.208839 122.244887 
L 418.600287 122.481562 
L 419.374804 122.744352 
L 419.757952 122.906952 
L 424.507102 125.346062 
L 427.318577 127.101844 
L 427.73212 127.498429 
L 427.97874 127.63368 
L 429.27543 128.738268 
L 430.698069 131.007446 
L 430.931588 131.617264 
L 431.009205 133.567801 
L 431.009205 133.567801 
" clip-path="url(#p1986b941f5)" style="fill: none; stroke: #dd8452; stroke-width: 1.5; stroke-linecap: round"/>
   </g>
   <g id="line2d_3"/>
   <g id="line2d_4"/>
   <g id="line2d_5">
    <path d="M 58.16375 278.686185 
L 448.76375 278.686185 
" clip-path="url(#p1986b941f5)" style="fill: none; stroke-dasharray: 5.55,2.4; stroke-dashoffset: 0; stroke: #808080; stroke-width: 1.5"/>
   </g>
   <g id="patch_3">
    <path d="M 58.16375 284.4 
L 58.16375 7.2 
" style="fill: none; stroke: #262626; stroke-width: 1.25; stroke-linejoin: miter; stroke-linecap: square"/>
   </g>
   <g id="patch_4">
    <path d="M 58.16375 284.4 
L 448.76375 284.4 
" style="fill: none; stroke: #262626; stroke-width: 1.25; stroke-linejoin: miter; stroke-linecap: square"/>
   </g>
   <g id="legend_1">
    <g id="patch_5">
     <path d="M 322.518125 65.405625 
L 441.06375 65.405625 
Q 443.26375 65.405625 443.26375 63.205625 
L 443.26375 14.9 
Q 443.26375 12.7 441.06375 12.7 
L 322.518125 12.7 
Q 320.318125 12.7 320.318125 14.9 
L 320.318125 63.205625 
Q 320.318125 65.405625 322.518125 65.405625 
z
" style="fill: #ffffff; opacity: 0.8; stroke: #cccccc; stroke-linejoin: miter"/>
    </g>
    <g id="text_13">
     <!-- spectrum -->
     <g style="fill: #262626" transform="translate(353.399687 26.218125) scale(0.12 -0.12)">
      <defs>
       <path id="DejaVuSans-73" d="M 2834 3397 
L 2834 2853 
Q 2591 2978 2328 3040 
Q 2066 3103 1784 3103 
Q 1356 3103 1142 2972 
Q 928 2841 928 2578 
Q 928 2378 1081 2264 
Q 1234 2150 1697 2047 
L 1894 2003 
Q 2506 1872 2764 1633 
Q 3022 1394 3022 966 
Q 3022 478 2636 193 
Q 2250 -91 1575 -91 
Q 1294 -91 989 -36 
Q 684 19 347 128 
L 347 722 
Q 666 556 975 473 
Q 1284 391 1588 391 
Q 1994 391 2212 530 
Q 2431 669 2431 922 
Q 2431 1156 2273 1281 
Q 2116 1406 1581 1522 
L 1381 1569 
Q 847 1681 609 1914 
Q 372 2147 372 2553 
Q 372 3047 722 3315 
Q 1072 3584 1716 3584 
Q 2034 3584 2315 3537 
Q 2597 3491 2834 3397 
z
" transform="scale(0.015625)"/>
       <path id="DejaVuSans-70" d="M 1159 525 
L 1159 -1331 
L 581 -1331 
L 581 3500 
L 1159 3500 
L 1159 2969 
Q 1341 3281 1617 3432 
Q 1894 3584 2278 3584 
Q 2916 3584 3314 3078 
Q 3713 2572 3713 1747 
Q 3713 922 3314 415 
Q 2916 -91 2278 -91 
Q 1894 -91 1617 61 
Q 1341 213 1159 525 
z
M 3116 1747 
Q 3116 2381 2855 2742 
Q 2594 3103 2138 3103 
Q 1681 3103 1420 2742 
Q 1159 2381 1159 1747 
Q 1159 1113 1420 752 
Q 1681 391 2138 391 
Q 2594 391 2855 752 
Q 3116 1113 3116 1747 
z
" transform="scale(0.015625)"/>
       <path id="DejaVuSans-63" d="M 3122 3366 
L 3122 2828 
Q 2878 2963 2633 3030 
Q 2388 3097 2138 3097 
Q 1578 3097 1268 2742 
Q 959 2388 959 1747 
Q 959 1106 1268 751 
Q 1578 397 2138 397 
Q 2388 397 2633 464 
Q 2878 531 3122 666 
L 3122 134 
Q 2881 22 2623 -34 
Q 2366 -91 2075 -91 
Q 1284 -91 818 406 
Q 353 903 353 1747 
Q 353 2603 823 3093 
Q 1294 3584 2113 3584 
Q 2378 3584 2631 3529 
Q 2884 3475 3122 3366 
z
" transform="scale(0.015625)"/>
       <path id="DejaVuSans-74" d="M 1172 4494 
L 1172 3500 
L 2356 3500 
L 2356 3053 
L 1172 3053 
L 1172 1153 
Q 1172 725 1289 603 
Q 1406 481 1766 481 
L 2356 481 
L 2356 0 
L 1766 0 
Q 1100 0 847 248 
Q 594 497 594 1153 
L 594 3053 
L 172 3053 
L 172 3500 
L 594 3500 
L 594 4494 
L 1172 4494 
z
" transform="scale(0.015625)"/>
       <path id="DejaVuSans-6d" d="M 3328 2828 
Q 3544 3216 3844 3400 
Q 4144 3584 4550 3584 
Q 5097 3584 5394 3201 
Q 5691 2819 5691 2113 
L 5691 0 
L 5113 0 
L 5113 2094 
Q 5113 2597 4934 2840 
Q 4756 3084 4391 3084 
Q 3944 3084 3684 2787 
Q 3425 2491 3425 1978 
L 3425 0 
L 2847 0 
L 2847 2094 
Q 2847 2600 2669 2842 
Q 2491 3084 2119 3084 
Q 1678 3084 1418 2786 
Q 1159 2488 1159 1978 
L 1159 0 
L 581 0 
L 581 3500 
L 1159 3500 
L 1159 2956 
Q 1356 3278 1631 3431 
Q 1906 3584 2284 3584 
Q 2666 3584 2933 3390 
Q 3200 3197 3328 2828 
z
" transform="scale(0.015625)"/>
      </defs>
      <use xlink:href="#DejaVuSans-73"/>
      <use xlink:href="#DejaVuSans-70" x="52.099609"/>
      <use xlink:href="#DejaVuSans-65" x="115.576172"/>
      <use xlink:href="#DejaVuSans-63" x="177.099609"/>
      <use xlink:href="#DejaVuSans-74" x="232.080078"/>
      <use xlink:href="#DejaVuSans-72" x="271.289062"/>
      <use xlink:href="#DejaVuSans-75" x="312.402344"/>
      <use xlink:href="#DejaVuSans-6d" x="375.78125"/>
     </g>
    </g>
    <g id="line2d_6">
     <path d="M 324.718125 38.722031 
L 335.718125 38.722031 
L 346.718125 38.722031 
" style="fill: none; stroke: #4c72b0; stroke-width: 1.5; stroke-linecap: round"/>
    </g>
    <g id="text_14">
     <!-- cross-validated -->
     <g style="fill: #262626" transform="translate(355.518125 42.572031) scale(0.11 -0.11)">
      <defs>
       <path id="DejaVuSans-6f" d="M 1959 3097 
Q 1497 3097 1228 2736 
Q 959 2375 959 1747 
Q 959 1119 1226 758 
Q 1494 397 1959 397 
Q 2419 397 2687 759 
Q 2956 1122 2956 1747 
Q 2956 2369 2687 2733 
Q 2419 3097 1959 3097 
z
M 1959 3584 
Q 2709 3584 3137 3096 
Q 3566 2609 3566 1747 
Q 3566 888 3137 398 
Q 2709 -91 1959 -91 
Q 1206 -91 779 398 
Q 353 888 353 1747 
Q 353 2609 779 3096 
Q 1206 3584 1959 3584 
z
" transform="scale(0.015625)"/>
       <path id="DejaVuSans-2d" d="M 313 2009 
L 1997 2009 
L 1997 1497 
L 313 1497 
L 313 2009 
z
" transform="scale(0.015625)"/>
       <path id="DejaVuSans-64" d="M 2906 2969 
L 2906 4863 
L 3481 4863 
L 3481 0 
L 2906 0 
L 2906 525 
Q 2725 213 2448 61 
Q 2172 -91 1784 -91 
Q 1150 -91 751 415 
Q 353 922 353 1747 
Q 353 2572 751 3078 
Q 1150 3584 1784 3584 
Q 2172 3584 2448 3432 
Q 2725 3281 2906 2969 
z
M 947 1747 
Q 947 1113 1208 752 
Q 1469 391 1925 391 
Q 2381 391 2643 752 
Q 2906 1113 2906 1747 
Q 2906 2381 2643 2742 
Q 2381 3103 1925 3103 
Q 1469 3103 1208 2742 
Q 947 2381 947 1747 
z
" transform="scale(0.015625)"/>
      </defs>
      <use xlink:href="#DejaVuSans-63"/>
      <use xlink:href="#DejaVuSans-72" x="54.980469"/>
      <use xlink:href="#DejaVuSans-6f" x="93.84375"/>
      <use xlink:href="#DejaVuSans-73" x="155.025391"/>
      <use xlink:href="#DejaVuSans-73" x="207.125"/>
      <use xlink:href="#DejaVuSans-2d" x="259.224609"/>
      <use xlink:href="#DejaVuSans-76" x="292.683594"/>
      <use xlink:href="#DejaVuSans-61" x="351.863281"/>
      <use xlink:href="#DejaVuSans-6c" x="413.142578"/>
      <use xlink:href="#DejaVuSans-69" x="440.925781"/>
      <use xlink:href="#DejaVuSans-64" x="468.708984"/>
      <use xlink:href="#DejaVuSans-61" x="532.185547"/>
      <use xlink:href="#DejaVuSans-74" x="593.464844"/>
      <use xlink:href="#DejaVuSans-65" x="632.673828"/>
      <use xlink:href="#DejaVuSans-64" x="694.197266"/>
     </g>
    </g>
    <g id="line2d_7">
     <path d="M 324.718125 54.867969 
L 335.718125 54.867969 
L 346.718125 54.867969 
" style="fill: none; stroke: #dd8452; stroke-width: 1.5; stroke-linecap: round"/>
    </g>
    <g id="text_15">
     <!-- original -->
     <g style="fill: #262626" transform="translate(355.518125 58.717969) scale(0.11 -0.11)">
      <use xlink:href="#DejaVuSans-6f"/>
      <use xlink:href="#DejaVuSans-72" x="61.181641"/>
      <use xlink:href="#DejaVuSans-69" x="102.294922"/>
      <use xlink:href="#DejaVuSans-67" x="130.078125"/>
      <use xlink:href="#DejaVuSans-69" x="193.554688"/>
      <use xlink:href="#DejaVuSans-6e" x="221.337891"/>
      <use xlink:href="#DejaVuSans-61" x="284.716797"/>
      <use xlink:href="#DejaVuSans-6c" x="345.996094"/>
     </g>
    </g>
   </g>
  </g>
 </g>
 <defs>
  <clipPath id="p1986b941f5">
   <rect x="58.16375" y="7.2" width="390.6" height="277.2"/>
  </clipPath>
 </defs>
</svg>
