<?xml version="1.0" encoding="utf-8" standalone="no"?>
<!DOCTYPE svg PUBLIC "-//W3C//DTD SVG 1.1//EN"
  "http://www.w3.org/Graphics/SVG/1.1/DTD/svg11.dtd">
<svg xmlns:xlink="http://www.w3.org/1999/xlink" width="442.495pt" height="311.745938pt" viewBox="0 0 442.495 311.745938" xmlns="http://www.w3.org/2000/svg" version="1.1">
 <metadata>
  <rdf:RDF xmlns:dc="http://purl.org/dc/elements/1.1/" xmlns:cc="http://creativecommons.org/ns#" xmlns:rdf="http://www.w3.org/1999/02/22-rdf-syntax-ns#">
   <cc:Work>
    <dc:type rdf:resource="http://purl.org/dc/dcmitype/StillImage"/>
    <dc:date>2023-08-14T00:33:52.678684</dc:date>
    <dc:format>image/svg+xml</dc:format>
    <dc:creator>
     <cc:Agent>
      <dc:title>Matplotlib v3.7.2, https://matplotlib.org/</dc:title>
     </cc:Agent>
    </dc:creator>
   </cc:Work>
  </rdf:RDF>
 </metadata>
 <defs>
  <style type="text/css">*{stroke-linejoin: round; stroke-linecap: butt}</style>
 </defs>
 <g id="figure_1">
  <g id="patch_1">
   <path d="M 0 311.745938 
L 442.495 311.745938 
L 442.495 0 
L 0 0 
z
" style="fill: #ffffff"/>
  </g>
  <g id="axes_1">
   <g id="patch_2">
    <path d="M 44.695 284.4 
L 435.295 284.4 
L 435.295 7.2 
L 44.695 7.2 
z
" style="fill: #ffffff"/>
   </g>
   <g id="matplotlib.axis_1">
    <g id="xtick_1">
     <g id="text_1">
      <!-- 0 -->
      <g style="fill: #262626" transform="translate(58.95017 302.258281) scale(0.11 -0.11)">
       <defs>
        <path id="DejaVuSans-30" d="M 2034 4250 
Q 1547 4250 1301 3770 
Q 1056 3291 1056 2328 
Q 1056 1369 1301 889 
Q 1547 409 2034 409 
Q 2525 409 2770 889 
Q 3016 1369 3016 2328 
Q 3016 3291 2770 3770 
Q 2525 4250 2034 4250 
z
M 2034 4750 
Q 2819 4750 3233 4129 
Q 3647 3509 3647 2328 
Q 3647 1150 3233 529 
Q 2819 -91 2034 -91 
Q 1250 -91 836 529 
Q 422 1150 422 2328 
Q 422 3509 836 4129 
Q 1250 4750 2034 4750 
z
" transform="scale(0.015625)"/>
       </defs>
       <use xlink:href="#DejaVuSans-30"/>
      </g>
     </g>
    </g>
    <g id="xtick_2">
     <g id="text_2">
      <!-- 200 -->
      <g style="fill: #262626" transform="translate(102.714953 302.258281) scale(0.11 -0.11)">
       <defs>
        <path id="DejaVuSans-32" d="M 1228 531 
L 3431 531 
L 3431 0 
L 469 0 
L 469 531 
Q 828 903 1448 1529 
Q 2069 2156 2228 2338 
Q 2531 2678 2651 2914 
Q 2772 3150 2772 3378 
Q 2772 3750 2511 3984 
Q 2250 4219 1831 4219 
Q 1534 4219 1204 4116 
Q 875 4013 500 3803 
L 500 4441 
Q 881 4594 1212 4672 
Q 1544 4750 1819 4750 
Q 2544 4750 2975 4387 
Q 3406 4025 3406 3419 
Q 3406 3131 3298 2873 
Q 3191 2616 2906 2266 
Q 2828 2175 2409 1742 
Q 1991 1309 1228 531 
z
" transform="scale(0.015625)"/>
       </defs>
       <use xlink:href="#DejaVuSans-32"/>
       <use xlink:href="#DejaVuSans-30" x="63.623047"/>
       <use xlink:href="#DejaVuSans-30" x="127.246094"/>
      </g>
     </g>
    </g>
    <g id="xtick_3">
     <g id="text_3">
      <!-- 400 -->
      <g style="fill: #262626" transform="translate(153.478485 302.258281) scale(0.11 -0.11)">
       <defs>
        <path id="DejaVuSans-34" d="M 2419 4116 
L 825 1625 
L 2419 1625 
L 2419 4116 
z
M 2253 4666 
L 3047 4666 
L 3047 1625 
L 3713 1625 
L 3713 1100 
L 3047 1100 
L 3047 0 
L 2419 0 
L 2419 1100 
L 313 1100 
L 313 1709 
L 2253 4666 
z
" transform="scale(0.015625)"/>
       </defs>
       <use xlink:href="#DejaVuSans-34"/>
       <use xlink:href="#DejaVuSans-30" x="63.623047"/>
       <use xlink:href="#DejaVuSans-30" x="127.246094"/>
      </g>
     </g>
    </g>
    <g id="xtick_4">
     <g id="text_4">
      <!-- 600 -->
      <g style="fill: #262626" transform="translate(204.242018 302.258281) scale(0.11 -0.11)">
       <defs>
        <path id="DejaVuSans-36" d="M 2113 2584 
Q 1688 2584 1439 2293 
Q 1191 2003 1191 1497 
Q 1191 994 1439 701 
Q 1688 409 2113 409 
Q 2538 409 2786 701 
Q 3034 994 3034 1497 
Q 3034 2003 2786 2293 
Q 2538 2584 2113 2584 
z
M 3366 4563 
L 3366 3988 
Q 3128 4100 2886 4159 
Q 2644 4219 2406 4219 
Q 1781 4219 1451 3797 
Q 1122 3375 1075 2522 
Q 1259 2794 1537 2939 
Q 1816 3084 2150 3084 
Q 2853 3084 3261 2657 
Q 3669 2231 3669 1497 
Q 3669 778 3244 343 
Q 2819 -91 2113 -91 
Q 1303 -91 875 529 
Q 447 1150 447 2328 
Q 447 3434 972 4092 
Q 1497 4750 2381 4750 
Q 2619 4750 2861 4703 
Q 3103 4656 3366 4563 
z
" transform="scale(0.015625)"/>
       </defs>
       <use xlink:href="#DejaVuSans-36"/>
       <use xlink:href="#DejaVuSans-30" x="63.623047"/>
       <use xlink:href="#DejaVuSans-30" x="127.246094"/>
      </g>
     </g>
    </g>
    <g id="xtick_5">
     <g id="text_5">
      <!-- 800 -->
      <g style="fill: #262626" transform="translate(255.00555 302.258281) scale(0.11 -0.11)">
       <defs>
        <path id="DejaVuSans-38" d="M 2034 2216 
Q 1584 2216 1326 1975 
Q 1069 1734 1069 1313 
Q 1069 891 1326 650 
Q 1584 409 2034 409 
Q 2484 409 2743 651 
Q 3003 894 3003 1313 
Q 3003 1734 2745 1975 
Q 2488 2216 2034 2216 
z
M 1403 2484 
Q 997 2584 770 2862 
Q 544 3141 544 3541 
Q 544 4100 942 4425 
Q 1341 4750 2034 4750 
Q 2731 4750 3128 4425 
Q 3525 4100 3525 3541 
Q 3525 3141 3298 2862 
Q 3072 2584 2669 2484 
Q 3125 2378 3379 2068 
Q 3634 1759 3634 1313 
Q 3634 634 3220 271 
Q 2806 -91 2034 -91 
Q 1263 -91 848 271 
Q 434 634 434 1313 
Q 434 1759 690 2068 
Q 947 2378 1403 2484 
z
M 1172 3481 
Q 1172 3119 1398 2916 
Q 1625 2713 2034 2713 
Q 2441 2713 2670 2916 
Q 2900 3119 2900 3481 
Q 2900 3844 2670 4047 
Q 2441 4250 2034 4250 
Q 1625 4250 1398 4047 
Q 1172 3844 1172 3481 
z
" transform="scale(0.015625)"/>
       </defs>
       <use xlink:href="#DejaVuSans-38"/>
       <use xlink:href="#DejaVuSans-30" x="63.623047"/>
       <use xlink:href="#DejaVuSans-30" x="127.246094"/>
      </g>
     </g>
    </g>
    <g id="xtick_6">
     <g id="text_6">
      <!-- 1000 -->
      <g style="fill: #262626" transform="translate(302.269707 302.258281) scale(0.11 -0.11)">
       <defs>
        <path id="DejaVuSans-31" d="M 794 531 
L 1825 531 
L 1825 4091 
L 703 3866 
L 703 4441 
L 1819 4666 
L 2450 4666 
L 2450 531 
L 3481 531 
L 3481 0 
L 794 0 
L 794 531 
z
" transform="scale(0.015625)"/>
       </defs>
       <use xlink:href="#DejaVuSans-31"/>
       <use xlink:href="#DejaVuSans-30" x="63.623047"/>
       <use xlink:href="#DejaVuSans-30" x="127.246094"/>
       <use xlink:href="#DejaVuSans-30" x="190.869141"/>
      </g>
     </g>
    </g>
    <g id="xtick_7">
     <g id="text_7">
      <!-- 1200 -->
      <g style="fill: #262626" transform="translate(353.03324 302.258281) scale(0.11 -0.11)">
       <use xlink:href="#DejaVuSans-31"/>
       <use xlink:href="#DejaVuSans-32" x="63.623047"/>
       <use xlink:href="#DejaVuSans-30" x="127.246094"/>
       <use xlink:href="#DejaVuSans-30" x="190.869141"/>
      </g>
     </g>
    </g>
    <g id="xtick_8">
     <g id="text_8">
      <!-- 1400 -->
      <g style="fill: #262626" transform="translate(403.796772 302.258281) scale(0.11 -0.11)">
       <use xlink:href="#DejaVuSans-31"/>
       <use xlink:href="#DejaVuSans-34" x="63.623047"/>
       <use xlink:href="#DejaVuSans-30" x="127.246094"/>
       <use xlink:href="#DejaVuSans-30" x="190.869141"/>
      </g>
     </g>
    </g>
   </g>
   <g id="matplotlib.axis_2">
    <g id="ytick_1">
     <g id="text_9">
      <!-- 0 -->
      <g style="fill: #262626" transform="translate(28.19625 275.979141) scale(0.11 -0.11)">
       <use xlink:href="#DejaVuSans-30"/>
      </g>
     </g>
    </g>
    <g id="ytick_2">
     <g id="text_10">
      <!-- 200 -->
      <g style="fill: #262626" transform="translate(14.19875 243.533998) scale(0.11 -0.11)">
       <use xlink:href="#DejaVuSans-32"/>
       <use xlink:href="#DejaVuSans-30" x="63.623047"/>
       <use xlink:href="#DejaVuSans-30" x="127.246094"/>
      </g>
     </g>
    </g>
    <g id="ytick_3">
     <g id="text_11">
      <!-- 400 -->
      <g style="fill: #262626" transform="translate(14.19875 211.088856) scale(0.11 -0.11)">
       <use xlink:href="#DejaVuSans-34"/>
       <use xlink:href="#DejaVuSans-30" x="63.623047"/>
       <use xlink:href="#DejaVuSans-30" x="127.246094"/>
      </g>
     </g>
    </g>
    <g id="ytick_4">
     <g id="text_12">
      <!-- 600 -->
      <g style="fill: #262626" transform="translate(14.19875 178.643714) scale(0.11 -0.11)">
       <use xlink:href="#DejaVuSans-36"/>
       <use xlink:href="#DejaVuSans-30" x="63.623047"/>
       <use xlink:href="#DejaVuSans-30" x="127.246094"/>
      </g>
     </g>
    </g>
    <g id="ytick_5">
     <g id="text_13">
      <!-- 800 -->
      <g style="fill: #262626" transform="translate(14.19875 146.198572) scale(0.11 -0.11)">
       <use xlink:href="#DejaVuSans-38"/>
       <use xlink:href="#DejaVuSans-30" x="63.623047"/>
       <use xlink:href="#DejaVuSans-30" x="127.246094"/>
      </g>
     </g>
    </g>
    <g id="ytick_6">
     <g id="text_14">
      <!-- 1000 -->
      <g style="fill: #262626" transform="translate(7.2 113.753429) scale(0.11 -0.11)">
       <use xlink:href="#DejaVuSans-31"/>
       <use xlink:href="#DejaVuSans-30" x="63.623047"/>
       <use xlink:href="#DejaVuSans-30" x="127.246094"/>
       <use xlink:href="#DejaVuSans-30" x="190.869141"/>
      </g>
     </g>
    </g>
    <g id="ytick_7">
     <g id="text_15">
      <!-- 1200 -->
      <g style="fill: #262626" transform="translate(7.2 81.308287) scale(0.11 -0.11)">
       <use xlink:href="#DejaVuSans-31"/>
       <use xlink:href="#DejaVuSans-32" x="63.623047"/>
       <use xlink:href="#DejaVuSans-30" x="127.246094"/>
       <use xlink:href="#DejaVuSans-30" x="190.869141"/>
      </g>
     </g>
    </g>
    <g id="ytick_8">
     <g id="text_16">
      <!-- 1400 -->
      <g style="fill: #262626" transform="translate(7.2 48.863145) scale(0.11 -0.11)">
       <use xlink:href="#DejaVuSans-31"/>
       <use xlink:href="#DejaVuSans-34" x="63.623047"/>
       <use xlink:href="#DejaVuSans-30" x="127.246094"/>
       <use xlink:href="#DejaVuSans-30" x="190.869141"/>
      </g>
     </g>
    </g>
    <g id="ytick_9">
     <g id="text_17">
      <!-- 1600 -->
      <g style="fill: #262626" transform="translate(7.2 16.418003) scale(0.11 -0.11)">
       <use xlink:href="#DejaVuSans-31"/>
       <use xlink:href="#DejaVuSans-36" x="63.623047"/>
       <use xlink:href="#DejaVuSans-30" x="127.246094"/>
       <use xlink:href="#DejaVuSans-30" x="190.869141"/>
      </g>
     </g>
    </g>
   </g>
   <g id="line2d_1">
    <path d="M 62.449545 44.210898 
L 62.703363 175.493938 
L 62.957181 183.500901 
L 63.210998 220.491257 
L 64.226269 244.41927 
L 64.480087 246.014083 
L 64.733904 248.445238 
L 66.764446 258.181361 
L 67.018263 258.618625 
L 67.272081 259.456752 
L 68.033534 260.569824 
L 68.287352 260.718146 
L 69.55644 262.19517 
L 69.810258 262.350856 
L 70.317893 262.856438 
L 71.079346 263.367289 
L 72.85607 264.46071 
L 73.617523 264.80845 
L 79.455329 266.593842 
L 80.978235 266.827694 
L 81.739688 266.992556 
L 83.516411 267.250578 
L 86.308406 267.605394 
L 88.338947 267.815162 
L 89.1004 267.906073 
L 92.40003 268.159783 
L 94.430571 268.311745 
L 98.999289 268.560182 
L 103.821824 268.784994 
L 108.136725 268.937886 
L 116.25889 269.181887 
L 139.610115 269.650753 
L 148.239915 269.787169 
L 163.722793 269.995123 
L 195.196183 270.347357 
L 225.654302 270.661546 
L 239.614274 270.966343 
L 239.868091 271.8 
L 240.121909 19.8 
L 240.375726 178.397103 
L 240.629544 186.507002 
L 240.883362 230.528251 
L 241.390997 236.14503 
L 241.644815 240.002292 
L 241.898632 251.083692 
L 242.15245 251.636765 
L 242.406268 254.876654 
L 242.660085 255.522194 
L 242.913903 255.763675 
L 243.167721 258.044235 
L 243.421538 257.77954 
L 243.675356 258.341535 
L 244.436809 264.003004 
L 244.690627 264.566991 
L 244.944444 264.156389 
L 245.198262 264.093093 
L 245.45208 265.957635 
L 245.705897 264.242177 
L 245.959715 265.776973 
L 246.213533 265.541982 
L 246.46735 265.486627 
L 246.721168 266.055599 
L 246.974986 267.148011 
L 247.228803 266.136006 
L 247.990256 267.276813 
L 248.244074 267.190694 
L 248.751709 268.026166 
L 249.005527 267.643445 
L 249.259345 267.94583 
L 249.513162 268.051108 
L 249.76698 268.457333 
L 250.020798 268.053916 
L 250.274615 268.119235 
L 250.528433 268.702349 
L 250.782251 268.773854 
L 251.036068 268.980986 
L 251.289886 268.754504 
L 251.543704 268.792584 
L 251.797521 268.997705 
L 252.051339 268.756985 
L 252.305157 269.096977 
L 252.558974 269.222734 
L 252.812792 268.913824 
L 253.06661 268.993157 
L 253.320427 269.212506 
L 253.828063 268.82615 
L 254.08188 269.295656 
L 254.589516 269.633242 
L 254.843333 269.365786 
L 255.097151 269.631987 
L 256.112422 269.666457 
L 256.366239 269.764176 
L 256.620057 269.672063 
L 256.873875 269.900495 
L 257.889145 270.048711 
L 258.142963 269.885395 
L 258.650598 270.183521 
L 259.158233 270.238911 
L 259.412051 270.40901 
L 259.919686 270.139241 
L 260.173504 270.252485 
L 260.427322 270.552529 
L 260.934957 270.30074 
L 261.69641 270.295928 
L 261.950228 270.489548 
L 262.204045 270.463055 
L 262.457863 270.584237 
L 262.711681 270.399809 
L 263.219316 270.590824 
L 263.473134 270.562493 
L 263.726951 270.663055 
L 264.234587 270.437205 
L 264.742222 270.728459 
L 265.249857 270.492303 
L 265.503675 270.723243 
L 265.757493 270.658087 
L 266.01131 270.929729 
L 266.518946 270.721719 
L 266.772763 270.829311 
L 267.280399 270.782957 
L 267.534216 270.899459 
L 268.041852 270.833357 
L 268.803305 270.994925 
L 269.057122 270.837265 
L 269.31094 270.952647 
L 269.818575 270.945405 
L 270.072393 270.996206 
L 270.326211 270.891922 
L 270.580028 270.999778 
L 271.087664 270.963158 
L 271.341481 271.070325 
L 271.595299 270.942262 
L 272.356752 271.164541 
L 272.61057 271.02278 
L 272.864387 271.009072 
L 273.118205 271.128011 
L 273.372023 271.024578 
L 273.879658 271.212412 
L 274.133476 271.034502 
L 276.164017 271.211628 
L 277.179287 271.180315 
L 280.986552 271.243794 
L 282.255641 271.268393 
L 285.047635 271.315782 
L 285.55527 271.319901 
L 286.316723 271.304338 
L 286.824359 271.356384 
L 287.585812 271.319301 
L 288.601082 271.349806 
L 290.377806 271.376932 
L 290.631624 271.286894 
L 291.393077 271.413863 
L 292.15453 271.372674 
L 292.915983 271.389942 
L 302.561054 271.484356 
L 302.814871 271.404092 
L 303.830142 271.477387 
L 304.845413 271.475438 
L 417.286637 271.624942 
L 417.540455 271.712346 
L 417.540455 271.712346 
" clip-path="url(#pffc549dd19)" style="fill: none; stroke: #4c72b0; stroke-width: 1.5; stroke-linecap: round"/>
   </g>
   <g id="patch_3">
    <path d="M 44.695 284.4 
L 44.695 7.2 
" style="fill: none; stroke: #262626; stroke-width: 1.25; stroke-linejoin: miter; stroke-linecap: square"/>
   </g>
   <g id="patch_4">
    <path d="M 435.295 284.4 
L 435.295 7.2 
" style="fill: none; stroke: #262626; stroke-width: 1.25; stroke-linejoin: miter; stroke-linecap: square"/>
   </g>
   <g id="patch_5">
    <path d="M 44.695 284.4 
L 435.295 284.4 
" style="fill: none; stroke: #262626; stroke-width: 1.25; stroke-linejoin: miter; stroke-linecap: square"/>
   </g>
   <g id="patch_6">
    <path d="M 44.695 7.2 
L 435.295 7.2 
" style="fill: none; stroke: #262626; stroke-width: 1.25; stroke-linejoin: miter; stroke-linecap: square"/>
   </g>
  </g>
 </g>
 <defs>
  <clipPath id="pffc549dd19">
   <rect x="44.695" y="7.2" width="390.6" height="277.2"/>
  </clipPath>
 </defs>
</svg>
