<?xml version="1.0" encoding="utf-8" standalone="no"?>
<!DOCTYPE svg PUBLIC "-//W3C//DTD SVG 1.1//EN"
  "http://www.w3.org/Graphics/SVG/1.1/DTD/svg11.dtd">
<svg xmlns:xlink="http://www.w3.org/1999/xlink" width="475.96375pt" height="347.359688pt" viewBox="0 0 475.96375 347.359688" xmlns="http://www.w3.org/2000/svg" version="1.1">
 <metadata>
  <rdf:RDF xmlns:dc="http://purl.org/dc/elements/1.1/" xmlns:cc="http://creativecommons.org/ns#" xmlns:rdf="http://www.w3.org/1999/02/22-rdf-syntax-ns#">
   <cc:Work>
    <dc:type rdf:resource="http://purl.org/dc/dcmitype/StillImage"/>
    <dc:date>2024-02-24T20:21:45.430971</dc:date>
    <dc:format>image/svg+xml</dc:format>
    <dc:creator>
     <cc:Agent>
      <dc:title>Matplotlib v3.8.3, https://matplotlib.org/</dc:title>
     </cc:Agent>
    </dc:creator>
   </cc:Work>
  </rdf:RDF>
 </metadata>
 <defs>
  <style type="text/css">*{stroke-linejoin: round; stroke-linecap: butt}</style>
 </defs>
 <g id="figure_1">
  <g id="patch_1">
   <path d="M -0 347.359688 
L 475.96375 347.359688 
L 475.96375 0 
L -0 0 
z
" style="fill: #ffffff"/>
  </g>
  <g id="axes_1">
   <g id="patch_2">
    <path d="M 78.16375 284.4 
L 468.76375 284.4 
L 468.76375 7.2 
L 78.16375 7.2 
z
" style="fill: #ffffff"/>
   </g>
   <g id="matplotlib.axis_1">
    <g id="xtick_1">
     <g id="text_1">
      <!-- $\mathdefault{10^{0}}$ -->
      <g style="fill: #262626" transform="translate(68.48375 322.258281) scale(0.11 -0.11)">
       <defs>
        <path id="DejaVuSans-31" d="M 794 531 
L 1825 531 
L 1825 4091 
L 703 3866 
L 703 4441 
L 1819 4666 
L 2450 4666 
L 2450 531 
L 3481 531 
L 3481 0 
L 794 0 
L 794 531 
z
" transform="scale(0.015625)"/>
        <path id="DejaVuSans-30" d="M 2034 4250 
Q 1547 4250 1301 3770 
Q 1056 3291 1056 2328 
Q 1056 1369 1301 889 
Q 1547 409 2034 409 
Q 2525 409 2770 889 
Q 3016 1369 3016 2328 
Q 3016 3291 2770 3770 
Q 2525 4250 2034 4250 
z
M 2034 4750 
Q 2819 4750 3233 4129 
Q 3647 3509 3647 2328 
Q 3647 1150 3233 529 
Q 2819 -91 2034 -91 
Q 1250 -91 836 529 
Q 422 1150 422 2328 
Q 422 3509 836 4129 
Q 1250 4750 2034 4750 
z
" transform="scale(0.015625)"/>
       </defs>
       <use xlink:href="#DejaVuSans-31" transform="translate(0 0.765625)"/>
       <use xlink:href="#DejaVuSans-30" transform="translate(63.623047 0.765625)"/>
       <use xlink:href="#DejaVuSans-30" transform="translate(128.203125 39.046875) scale(0.7)"/>
      </g>
     </g>
    </g>
    <g id="xtick_2">
     <g id="text_2">
      <!-- $\mathdefault{10^{1}}$ -->
      <g style="fill: #262626" transform="translate(204.788528 322.258281) scale(0.11 -0.11)">
       <use xlink:href="#DejaVuSans-31" transform="translate(0 0.684375)"/>
       <use xlink:href="#DejaVuSans-30" transform="translate(63.623047 0.684375)"/>
       <use xlink:href="#DejaVuSans-31" transform="translate(128.203125 38.965625) scale(0.7)"/>
      </g>
     </g>
    </g>
    <g id="xtick_3">
     <g id="text_3">
      <!-- $\mathdefault{10^{2}}$ -->
      <g style="fill: #262626" transform="translate(341.093306 322.258281) scale(0.11 -0.11)">
       <defs>
        <path id="DejaVuSans-32" d="M 1228 531 
L 3431 531 
L 3431 0 
L 469 0 
L 469 531 
Q 828 903 1448 1529 
Q 2069 2156 2228 2338 
Q 2531 2678 2651 2914 
Q 2772 3150 2772 3378 
Q 2772 3750 2511 3984 
Q 2250 4219 1831 4219 
Q 1534 4219 1204 4116 
Q 875 4013 500 3803 
L 500 4441 
Q 881 4594 1212 4672 
Q 1544 4750 1819 4750 
Q 2544 4750 2975 4387 
Q 3406 4025 3406 3419 
Q 3406 3131 3298 2873 
Q 3191 2616 2906 2266 
Q 2828 2175 2409 1742 
Q 1991 1309 1228 531 
z
" transform="scale(0.015625)"/>
       </defs>
       <use xlink:href="#DejaVuSans-31" transform="translate(0 0.765625)"/>
       <use xlink:href="#DejaVuSans-30" transform="translate(63.623047 0.765625)"/>
       <use xlink:href="#DejaVuSans-32" transform="translate(128.203125 39.046875) scale(0.7)"/>
      </g>
     </g>
    </g>
    <g id="xtick_4"/>
    <g id="xtick_5"/>
    <g id="xtick_6"/>
    <g id="xtick_7"/>
    <g id="xtick_8"/>
    <g id="xtick_9"/>
    <g id="xtick_10"/>
    <g id="xtick_11"/>
    <g id="xtick_12"/>
    <g id="xtick_13"/>
    <g id="xtick_14"/>
    <g id="xtick_15"/>
    <g id="xtick_16"/>
    <g id="xtick_17"/>
    <g id="xtick_18"/>
    <g id="xtick_19"/>
    <g id="xtick_20"/>
    <g id="xtick_21"/>
    <g id="xtick_22"/>
    <g id="xtick_23"/>
    <g id="xtick_24"/>
    <g id="xtick_25"/>
    <g id="text_4">
     <!-- rank -->
     <g style="fill: #262626" transform="translate(260.043438 337.664062) scale(0.12 -0.12)">
      <defs>
       <path id="DejaVuSans-72" d="M 2631 2963 
Q 2534 3019 2420 3045 
Q 2306 3072 2169 3072 
Q 1681 3072 1420 2755 
Q 1159 2438 1159 1844 
L 1159 0 
L 581 0 
L 581 3500 
L 1159 3500 
L 1159 2956 
Q 1341 3275 1631 3429 
Q 1922 3584 2338 3584 
Q 2397 3584 2469 3576 
Q 2541 3569 2628 3553 
L 2631 2963 
z
" transform="scale(0.015625)"/>
       <path id="DejaVuSans-61" d="M 2194 1759 
Q 1497 1759 1228 1600 
Q 959 1441 959 1056 
Q 959 750 1161 570 
Q 1363 391 1709 391 
Q 2188 391 2477 730 
Q 2766 1069 2766 1631 
L 2766 1759 
L 2194 1759 
z
M 3341 1997 
L 3341 0 
L 2766 0 
L 2766 531 
Q 2569 213 2275 61 
Q 1981 -91 1556 -91 
Q 1019 -91 701 211 
Q 384 513 384 1019 
Q 384 1609 779 1909 
Q 1175 2209 1959 2209 
L 2766 2209 
L 2766 2266 
Q 2766 2663 2505 2880 
Q 2244 3097 1772 3097 
Q 1472 3097 1187 3025 
Q 903 2953 641 2809 
L 641 3341 
Q 956 3463 1253 3523 
Q 1550 3584 1831 3584 
Q 2591 3584 2966 3190 
Q 3341 2797 3341 1997 
z
" transform="scale(0.015625)"/>
       <path id="DejaVuSans-6e" d="M 3513 2113 
L 3513 0 
L 2938 0 
L 2938 2094 
Q 2938 2591 2744 2837 
Q 2550 3084 2163 3084 
Q 1697 3084 1428 2787 
Q 1159 2491 1159 1978 
L 1159 0 
L 581 0 
L 581 3500 
L 1159 3500 
L 1159 2956 
Q 1366 3272 1645 3428 
Q 1925 3584 2291 3584 
Q 2894 3584 3203 3211 
Q 3513 2838 3513 2113 
z
" transform="scale(0.015625)"/>
       <path id="DejaVuSans-6b" d="M 581 4863 
L 1159 4863 
L 1159 1991 
L 2875 3500 
L 3609 3500 
L 1753 1863 
L 3688 0 
L 2938 0 
L 1159 1709 
L 1159 0 
L 581 0 
L 581 4863 
z
" transform="scale(0.015625)"/>
      </defs>
      <use xlink:href="#DejaVuSans-72"/>
      <use xlink:href="#DejaVuSans-61" x="41.113281"/>
      <use xlink:href="#DejaVuSans-6e" x="102.392578"/>
      <use xlink:href="#DejaVuSans-6b" x="165.771484"/>
     </g>
    </g>
   </g>
   <g id="matplotlib.axis_2">
    <g id="ytick_1">
     <g id="text_5">
      <!-- $\mathdefault{10^{-2}}$ -->
      <g style="fill: #262626" transform="translate(22.81375 288.579141) scale(0.11 -0.11)">
       <defs>
        <path id="DejaVuSans-2212" d="M 678 2272 
L 4684 2272 
L 4684 1741 
L 678 1741 
L 678 2272 
z
" transform="scale(0.015625)"/>
       </defs>
       <use xlink:href="#DejaVuSans-31" transform="translate(0 0.765625)"/>
       <use xlink:href="#DejaVuSans-30" transform="translate(63.623047 0.765625)"/>
       <use xlink:href="#DejaVuSans-2212" transform="translate(128.203125 39.046875) scale(0.7)"/>
       <use xlink:href="#DejaVuSans-32" transform="translate(186.855469 39.046875) scale(0.7)"/>
      </g>
     </g>
    </g>
    <g id="ytick_2">
     <g id="text_6">
      <!-- $\mathdefault{10^{-1}}$ -->
      <g style="fill: #262626" transform="translate(22.81375 234.943671) scale(0.11 -0.11)">
       <use xlink:href="#DejaVuSans-31" transform="translate(0 0.684375)"/>
       <use xlink:href="#DejaVuSans-30" transform="translate(63.623047 0.684375)"/>
       <use xlink:href="#DejaVuSans-2212" transform="translate(128.203125 38.965625) scale(0.7)"/>
       <use xlink:href="#DejaVuSans-31" transform="translate(186.855469 38.965625) scale(0.7)"/>
      </g>
     </g>
    </g>
    <g id="ytick_3">
     <g id="text_7">
      <!-- $\mathdefault{10^{0}}$ -->
      <g style="fill: #262626" transform="translate(29.30375 181.308201) scale(0.11 -0.11)">
       <use xlink:href="#DejaVuSans-31" transform="translate(0 0.765625)"/>
       <use xlink:href="#DejaVuSans-30" transform="translate(63.623047 0.765625)"/>
       <use xlink:href="#DejaVuSans-30" transform="translate(128.203125 39.046875) scale(0.7)"/>
      </g>
     </g>
    </g>
    <g id="ytick_4">
     <g id="text_8">
      <!-- $\mathdefault{10^{1}}$ -->
      <g style="fill: #262626" transform="translate(29.30375 127.672731) scale(0.11 -0.11)">
       <use xlink:href="#DejaVuSans-31" transform="translate(0 0.684375)"/>
       <use xlink:href="#DejaVuSans-30" transform="translate(63.623047 0.684375)"/>
       <use xlink:href="#DejaVuSans-31" transform="translate(128.203125 38.965625) scale(0.7)"/>
      </g>
     </g>
    </g>
    <g id="ytick_5">
     <g id="text_9">
      <!-- $\mathdefault{10^{2}}$ -->
      <g style="fill: #262626" transform="translate(29.30375 74.037261) scale(0.11 -0.11)">
       <use xlink:href="#DejaVuSans-31" transform="translate(0 0.765625)"/>
       <use xlink:href="#DejaVuSans-30" transform="translate(63.623047 0.765625)"/>
       <use xlink:href="#DejaVuSans-32" transform="translate(128.203125 39.046875) scale(0.7)"/>
      </g>
     </g>
    </g>
    <g id="ytick_6">
     <g id="text_10">
      <!-- $\mathdefault{10^{3}}$ -->
      <g style="fill: #262626" transform="translate(29.30375 20.401791) scale(0.11 -0.11)">
       <defs>
        <path id="DejaVuSans-33" d="M 2597 2516 
Q 3050 2419 3304 2112 
Q 3559 1806 3559 1356 
Q 3559 666 3084 287 
Q 2609 -91 1734 -91 
Q 1441 -91 1130 -33 
Q 819 25 488 141 
L 488 750 
Q 750 597 1062 519 
Q 1375 441 1716 441 
Q 2309 441 2620 675 
Q 2931 909 2931 1356 
Q 2931 1769 2642 2001 
Q 2353 2234 1838 2234 
L 1294 2234 
L 1294 2753 
L 1863 2753 
Q 2328 2753 2575 2939 
Q 2822 3125 2822 3475 
Q 2822 3834 2567 4026 
Q 2313 4219 1838 4219 
Q 1578 4219 1281 4162 
Q 984 4106 628 3988 
L 628 4550 
Q 988 4650 1302 4700 
Q 1616 4750 1894 4750 
Q 2613 4750 3031 4423 
Q 3450 4097 3450 3541 
Q 3450 3153 3228 2886 
Q 3006 2619 2597 2516 
z
" transform="scale(0.015625)"/>
       </defs>
       <use xlink:href="#DejaVuSans-31" transform="translate(0 0.765625)"/>
       <use xlink:href="#DejaVuSans-30" transform="translate(63.623047 0.765625)"/>
       <use xlink:href="#DejaVuSans-33" transform="translate(128.203125 39.046875) scale(0.7)"/>
      </g>
     </g>
    </g>
    <g id="ytick_7"/>
    <g id="ytick_8"/>
    <g id="ytick_9"/>
    <g id="ytick_10"/>
    <g id="ytick_11"/>
    <g id="ytick_12"/>
    <g id="ytick_13"/>
    <g id="ytick_14"/>
    <g id="ytick_15"/>
    <g id="ytick_16"/>
    <g id="ytick_17"/>
    <g id="ytick_18"/>
    <g id="ytick_19"/>
    <g id="ytick_20"/>
    <g id="ytick_21"/>
    <g id="ytick_22"/>
    <g id="ytick_23"/>
    <g id="ytick_24"/>
    <g id="ytick_25"/>
    <g id="ytick_26"/>
    <g id="ytick_27"/>
    <g id="ytick_28"/>
    <g id="ytick_29"/>
    <g id="ytick_30"/>
    <g id="ytick_31"/>
    <g id="ytick_32"/>
    <g id="ytick_33"/>
    <g id="ytick_34"/>
    <g id="ytick_35"/>
    <g id="ytick_36"/>
    <g id="ytick_37"/>
    <g id="ytick_38"/>
    <g id="ytick_39"/>
    <g id="ytick_40"/>
    <g id="ytick_41"/>
    <g id="ytick_42"/>
    <g id="ytick_43"/>
    <g id="ytick_44"/>
    <g id="ytick_45"/>
    <g id="ytick_46"/>
    <g id="text_11">
     <!-- eigenvalue -->
     <g style="fill: #262626" transform="translate(16.318125 178.851562) rotate(-90) scale(0.12 -0.12)">
      <defs>
       <path id="DejaVuSans-65" d="M 3597 1894 
L 3597 1613 
L 953 1613 
Q 991 1019 1311 708 
Q 1631 397 2203 397 
Q 2534 397 2845 478 
Q 3156 559 3463 722 
L 3463 178 
Q 3153 47 2828 -22 
Q 2503 -91 2169 -91 
Q 1331 -91 842 396 
Q 353 884 353 1716 
Q 353 2575 817 3079 
Q 1281 3584 2069 3584 
Q 2775 3584 3186 3129 
Q 3597 2675 3597 1894 
z
M 3022 2063 
Q 3016 2534 2758 2815 
Q 2500 3097 2075 3097 
Q 1594 3097 1305 2825 
Q 1016 2553 972 2059 
L 3022 2063 
z
" transform="scale(0.015625)"/>
       <path id="DejaVuSans-69" d="M 603 3500 
L 1178 3500 
L 1178 0 
L 603 0 
L 603 3500 
z
M 603 4863 
L 1178 4863 
L 1178 4134 
L 603 4134 
L 603 4863 
z
" transform="scale(0.015625)"/>
       <path id="DejaVuSans-67" d="M 2906 1791 
Q 2906 2416 2648 2759 
Q 2391 3103 1925 3103 
Q 1463 3103 1205 2759 
Q 947 2416 947 1791 
Q 947 1169 1205 825 
Q 1463 481 1925 481 
Q 2391 481 2648 825 
Q 2906 1169 2906 1791 
z
M 3481 434 
Q 3481 -459 3084 -895 
Q 2688 -1331 1869 -1331 
Q 1566 -1331 1297 -1286 
Q 1028 -1241 775 -1147 
L 775 -588 
Q 1028 -725 1275 -790 
Q 1522 -856 1778 -856 
Q 2344 -856 2625 -561 
Q 2906 -266 2906 331 
L 2906 616 
Q 2728 306 2450 153 
Q 2172 0 1784 0 
Q 1141 0 747 490 
Q 353 981 353 1791 
Q 353 2603 747 3093 
Q 1141 3584 1784 3584 
Q 2172 3584 2450 3431 
Q 2728 3278 2906 2969 
L 2906 3500 
L 3481 3500 
L 3481 434 
z
" transform="scale(0.015625)"/>
       <path id="DejaVuSans-76" d="M 191 3500 
L 800 3500 
L 1894 563 
L 2988 3500 
L 3597 3500 
L 2284 0 
L 1503 0 
L 191 3500 
z
" transform="scale(0.015625)"/>
       <path id="DejaVuSans-6c" d="M 603 4863 
L 1178 4863 
L 1178 0 
L 603 0 
L 603 4863 
z
" transform="scale(0.015625)"/>
       <path id="DejaVuSans-75" d="M 544 1381 
L 544 3500 
L 1119 3500 
L 1119 1403 
Q 1119 906 1312 657 
Q 1506 409 1894 409 
Q 2359 409 2629 706 
Q 2900 1003 2900 1516 
L 2900 3500 
L 3475 3500 
L 3475 0 
L 2900 0 
L 2900 538 
Q 2691 219 2414 64 
Q 2138 -91 1772 -91 
Q 1169 -91 856 284 
Q 544 659 544 1381 
z
M 1991 3584 
L 1991 3584 
z
" transform="scale(0.015625)"/>
      </defs>
      <use xlink:href="#DejaVuSans-65"/>
      <use xlink:href="#DejaVuSans-69" x="61.523438"/>
      <use xlink:href="#DejaVuSans-67" x="89.306641"/>
      <use xlink:href="#DejaVuSans-65" x="152.783203"/>
      <use xlink:href="#DejaVuSans-6e" x="214.306641"/>
      <use xlink:href="#DejaVuSans-76" x="277.685547"/>
      <use xlink:href="#DejaVuSans-61" x="336.865234"/>
      <use xlink:href="#DejaVuSans-6c" x="398.144531"/>
      <use xlink:href="#DejaVuSans-75" x="425.927734"/>
      <use xlink:href="#DejaVuSans-65" x="489.306641"/>
     </g>
    </g>
   </g>
   <g id="PolyCollection_1"/>
   <g id="PolyCollection_2"/>
   <g id="line2d_1">
    <path d="M 78.16375 46.556427 
L 119.195577 36.065088 
L 143.197657 60.688731 
L 160.227404 62.482957 
L 173.436701 83.071524 
L 184.229483 66.431364 
L 193.354651 92.927949 
L 201.25923 92.604535 
L 208.231563 85.128163 
L 214.468528 115.589228 
L 220.110549 92.212261 
L 225.26131 84.641018 
L 229.999551 89.105597 
L 234.386478 95.01 
L 238.470608 86.077935 
L 242.291057 121.630863 
L 245.879817 103.754193 
L 249.26339 122.476601 
L 252.463976 126.271713 
L 255.500355 109.634935 
L 258.388558 115.714705 
L 261.142376 122.829757 
L 263.77376 109.254648 
L 266.293137 113.6945 
L 268.709653 115.637955 
L 271.031378 112.264017 
L 273.26547 133.109414 
L 275.418304 125.585756 
L 277.495585 116.861387 
L 279.502435 116.701777 
L 281.443475 130.327725 
L 283.322884 124.61753 
L 285.144456 120.346933 
L 286.911644 123.344235 
L 288.627602 135.675206 
L 290.295217 123.048704 
L 291.917138 127.442219 
L 293.495803 123.694336 
L 296.532182 126.668891 
L 297.993896 136.964248 
L 299.420384 131.099476 
L 302.174202 147.236716 
L 303.504515 132.410773 
L 304.805587 130.584925 
L 306.078677 137.335078 
L 307.324964 136.085774 
L 308.545552 132.070778 
L 309.741479 132.201922 
L 310.913724 140.931819 
L 312.063205 136.42267 
L 313.19079 138.468126 
L 314.297297 132.423544 
L 315.3835 139.272396 
L 316.450131 166.704645 
L 317.497883 140.670501 
L 318.527411 143.998575 
L 319.53934 156.718138 
L 320.534262 134.149848 
L 321.512737 154.926175 
L 322.475301 151.968298 
L 323.422464 150.874472 
L 324.354711 137.71992 
L 325.272503 158.75275 
L 326.176282 153.474426 
L 327.066471 149.375968 
L 327.943471 149.367519 
L 328.807667 148.741494 
L 329.659429 153.467295 
L 330.499108 146.833486 
L 331.327044 179.878677 
L 332.143559 155.33777 
L 332.948965 147.894482 
L 333.743559 148.783805 
L 334.527629 157.851089 
L 335.30145 156.857266 
L 336.065285 152.164024 
L 336.81939 161.748922 
L 337.564008 150.422521 
L 338.299377 155.378399 
L 339.025722 153.890083 
L 339.743263 149.314743 
L 340.452211 147.747343 
L 341.152768 149.830348 
L 341.845132 148.49663 
L 342.529491 159.65593 
L 343.206029 153.189537 
L 343.874922 160.29531 
L 344.536342 152.402992 
L 345.190452 149.784071 
L 345.837414 152.972395 
L 346.477381 160.473189 
L 347.110504 154.295116 
L 347.736927 149.597058 
L 348.35679 158.894979 
L 348.97023 163.947986 
L 349.577378 151.157061 
L 350.178362 156.029245 
L 350.773306 158.58378 
L 351.36233 164.912063 
L 351.945551 159.437781 
L 352.523081 157.491382 
L 353.095032 173.404953 
L 353.661509 158.495795 
L 354.222616 158.114027 
L 354.778455 154.292134 
L 355.329124 158.267186 
L 355.874717 157.210202 
L 356.415327 158.973365 
L 356.951045 165.620665 
L 357.481958 184.690438 
L 358.008152 165.317301 
L 358.529709 161.64948 
L 359.046712 155.712579 
L 359.559238 157.676661 
L 360.067365 170.392649 
L 360.571167 159.334841 
L 361.070718 175.341046 
L 361.566088 162.83303 
L 362.057348 164.43613 
L 362.544564 168.448533 
L 363.507128 161.554671 
L 363.982604 165.992479 
L 364.454291 158.482391 
L 364.922249 173.450615 
L 365.386537 161.132634 
L 365.847212 176.944203 
L 366.304329 178.999343 
L 366.757944 183.348702 
L 367.208109 162.535675 
L 367.654877 165.559065 
L 368.098297 171.083765 
L 368.538422 166.928732 
L 369.408973 172.268723 
L 369.839494 159.866317 
L 370.266907 167.838449 
L 370.691256 166.917636 
L 371.112584 170.113238 
L 371.530935 168.214197 
L 371.94635 169.371789 
L 372.35887 171.798227 
L 372.768536 165.496124 
L 373.175386 164.562528 
L 373.579458 177.517018 
L 373.980791 169.338038 
L 374.379422 182.79306 
L 374.775386 189.190444 
L 375.559456 170.454237 
L 375.947631 168.837915 
L 376.333276 168.856031 
L 376.716426 170.96347 
L 377.097112 174.94651 
L 377.475365 181.356364 
L 377.851216 179.132168 
L 378.224696 186.43564 
L 378.595835 168.789519 
L 378.964661 178.869836 
L 379.331204 175.751778 
L 379.69549 167.479791 
L 380.057549 171.741596 
L 380.417407 169.63831 
L 380.77509 169.9463 
L 381.130625 184.383541 
L 381.484038 172.432005 
L 381.835353 171.742662 
L 382.184595 170.793243 
L 382.531789 183.829692 
L 382.876959 172.58085 
L 383.220127 172.606766 
L 383.561318 175.907107 
L 383.900553 174.410967 
L 384.237856 183.820022 
L 384.573247 178.808908 
L 384.906749 176.401603 
L 385.238382 175.290421 
L 385.568168 181.755606 
L 385.896127 175.02223 
L 386.222279 182.843601 
L 386.546644 182.959676 
L 386.869241 190.376078 
L 387.509208 174.660718 
L 387.826616 186.493537 
L 388.142331 176.087322 
L 388.456371 174.681898 
L 388.768754 184.363589 
L 389.079497 188.915651 
L 389.388617 169.578666 
L 389.696132 178.177185 
L 390.002057 170.453954 
L 390.306409 185.683401 
L 390.609205 177.560497 
L 390.91046 177.791883 
L 391.210189 185.244101 
L 391.508408 173.364078 
L 391.805133 171.55089 
L 392.100377 178.79463 
L 392.394157 176.309108 
L 392.686485 183.778504 
L 392.977377 187.5965 
L 393.266847 199.656368 
L 393.554908 182.148321 
L 393.841574 184.255789 
L 394.126858 195.668187 
L 394.410775 182.754861 
L 394.693336 187.782055 
L 394.974554 180.71998 
L 395.254443 186.200187 
L 395.533015 186.846059 
L 395.810282 172.761446 
L 396.086257 171.962242 
L 396.36095 186.328663 
L 396.634375 189.235008 
L 396.906543 185.377106 
L 397.177466 185.857726 
L 397.447154 184.720332 
L 397.715619 197.126559 
L 398.248923 178.413954 
L 398.777466 191.85987 
L 399.039978 185.112477 
L 399.301332 207.097828 
L 399.561536 181.822596 
L 399.820602 186.899147 
L 400.078539 184.160311 
L 400.335356 188.825504 
L 400.591065 187.830449 
L 400.845673 188.296379 
L 401.099192 182.901862 
L 401.351629 195.11832 
L 401.602994 188.442908 
L 401.853296 176.889341 
L 402.102545 177.937406 
L 402.350748 176.967557 
L 402.844054 193.307959 
L 403.089174 243.775035 
L 403.333284 193.50465 
L 403.57639 181.591701 
L 403.818503 190.445965 
L 404.059629 181.532009 
L 404.299777 186.718241 
L 404.538955 196.240258 
L 404.77717 181.977217 
L 405.014431 188.63644 
L 405.250744 187.012993 
L 405.486118 186.88445 
L 405.720559 186.18543 
L 405.954076 201.194276 
L 406.418364 190.783615 
L 406.64915 190.563661 
L 406.879039 192.050961 
L 407.108039 179.886217 
L 407.336156 199.840114 
L 407.563398 186.275035 
L 407.789771 182.466585 
L 408.015281 183.341655 
L 408.239936 190.129645 
L 408.463741 185.640913 
L 408.686703 185.347886 
L 408.908829 182.26135 
L 409.130124 184.526052 
L 409.350595 188.057248 
L 409.570248 196.703321 
L 409.789089 184.9438 
L 410.007124 186.533502 
L 410.224359 185.739307 
L 410.440799 183.029795 
L 410.656451 182.901791 
L 410.871321 202.272445 
L 411.085413 192.953375 
L 411.298733 202.277428 
L 411.511288 187.712205 
L 411.723082 203.453825 
L 411.934121 180.068381 
L 412.144411 190.403988 
L 412.353956 181.196727 
L 412.562762 183.152733 
L 412.770834 182.085653 
L 412.978177 192.80625 
L 413.184796 190.500686 
L 413.390697 185.511982 
L 413.595884 208.231053 
L 413.800363 190.647109 
L 414.004137 200.994955 
L 414.207212 188.035241 
L 414.409594 196.351669 
L 414.611285 181.892864 
L 415.012618 195.948714 
L 415.212269 179.277007 
L 415.609562 205.435519 
L 415.807213 188.424323 
L 416.004206 199.6177 
L 416.396237 182.244622 
L 416.785688 192.178722 
L 416.979457 192.524276 
L 417.172594 211.017556 
L 417.365103 188.115675 
L 417.556988 185.550075 
L 417.748253 185.282027 
L 417.938902 196.485871 
L 418.128938 193.821842 
L 418.507192 182.414809 
L 418.695416 195.520263 
L 418.883043 242.594904 
L 419.070078 186.01285 
L 419.256523 191.677098 
L 419.442383 191.677426 
L 419.627662 198.919065 
L 419.812362 198.200439 
L 419.996488 190.263995 
L 420.36303 196.949783 
L 420.727317 193.297914 
L 420.908623 197.873223 
L 421.089376 205.626842 
L 421.269578 186.515248 
L 421.449234 214.751891 
L 421.628345 189.724105 
L 421.806917 181.593236 
L 421.984951 193.66494 
L 422.162452 193.760616 
L 422.339422 195.668409 
L 422.515865 187.657904 
L 422.86718 196.138252 
L 423.042058 209.112016 
L 423.216422 188.881291 
L 423.390274 191.670041 
L 423.563616 206.774161 
L 423.736452 191.834101 
L 423.908786 215.808892 
L 424.080619 191.073564 
L 424.251954 207.580415 
L 424.422795 198.516265 
L 424.593145 213.886604 
L 424.763005 185.090338 
L 424.93238 198.609987 
L 425.101272 199.905683 
L 425.269683 192.810461 
L 425.437616 197.945627 
L 425.605074 194.236088 
L 425.605554 348.359688 
M 425.938123 348.359688 
L 425.938576 202.735214 
L 426.104625 201.132636 
L 426.270209 215.760141 
L 426.599995 198.878573 
L 426.764202 202.665925 
L 426.927954 192.422557 
L 427.091254 194.116165 
L 427.254106 198.481689 
L 427.41651 206.356053 
L 427.739989 189.90428 
L 428.061709 216.879118 
L 428.221916 192.260266 
L 428.541035 201.632092 
L 428.699952 244.544635 
L 428.858443 199.732753 
L 429.016511 202.256153 
L 429.174158 187.199626 
L 429.331386 192.521402 
L 429.488198 193.044418 
L 429.644595 190.456989 
L 429.800581 221.168367 
L 429.956156 190.008244 
L 430.266086 199.706936 
L 430.420444 200.84369 
L 430.574401 228.538746 
L 430.881119 199.020354 
L 431.033884 245.971322 
L 431.186256 192.907751 
L 431.338236 207.638714 
L 431.489828 203.505384 
L 431.641032 214.472033 
L 431.791851 193.83793 
L 431.942286 193.99134 
L 432.092341 204.434439 
L 432.242016 197.356142 
L 432.391313 196.968148 
L 432.540235 194.312105 
L 432.688783 195.181998 
L 432.83696 192.494649 
L 432.984766 200.515241 
L 433.132204 191.491707 
L 433.279276 201.11276 
L 433.425984 194.487214 
L 433.572328 194.168572 
L 433.863937 216.329441 
L 434.009204 212.375059 
L 434.154116 193.364141 
L 434.298674 206.00937 
L 434.442879 201.721993 
L 434.586735 189.917271 
L 434.730241 211.461841 
L 434.873401 193.671534 
L 435.016215 204.690817 
L 435.158685 202.405292 
L 435.442601 259.654204 
L 435.58405 204.842183 
L 435.725162 203.144058 
L 436.006381 190.236109 
L 436.146491 195.790915 
L 436.28627 208.357568 
L 436.564842 209.290826 
L 436.703638 206.883212 
L 436.842109 211.17167 
L 436.980257 205.537671 
L 437.118083 194.497746 
L 437.25559 219.853561 
L 437.392777 202.952918 
L 437.666202 214.410024 
L 437.802443 239.509796 
L 437.93837 191.559648 
L 438.073986 195.798525 
L 438.209292 185.353125 
L 438.34429 205.719029 
L 438.47898 198.58624 
L 438.613365 199.21366 
L 438.613738 348.359688 
M 438.880868 348.359688 
L 438.881223 206.306849 
L 439.014698 192.832517 
L 439.147874 214.22172 
L 439.28075 197.980189 
L 439.413329 225.853014 
L 439.545611 206.600931 
L 439.809293 213.726775 
L 439.940694 237.583779 
L 440.202626 190.933592 
L 440.333158 201.091167 
L 440.463404 201.887267 
L 440.723037 195.292471 
L 440.852428 195.232872 
L 440.981537 213.734323 
L 441.110365 204.036478 
L 441.238913 242.907245 
L 441.367183 204.255989 
L 441.495175 213.938039 
L 441.622892 200.45711 
L 441.750333 207.752638 
L 441.8775 198.61187 
L 442.004395 208.606773 
L 442.131018 207.005385 
L 442.509272 190.565665 
L 442.760104 198.83584 
L 443.009878 195.032881 
L 443.134371 208.730588 
L 443.258603 191.456152 
L 443.382575 203.250256 
L 443.506287 186.026136 
L 443.629742 231.912465 
L 443.752939 234.0995 
L 443.875881 191.561401 
L 443.998568 222.170333 
L 444.121001 193.995535 
L 444.243182 225.308087 
L 444.36511 216.629612 
L 444.486789 195.20321 
L 444.608217 210.670165 
L 444.729397 201.459493 
L 444.85033 251.546084 
L 445.091456 222.992003 
L 445.211652 213.185342 
L 445.451314 217.521857 
L 445.570782 214.123625 
L 445.690009 196.942632 
L 445.808997 214.736984 
L 445.927746 206.616872 
L 446.164532 212.288586 
L 446.282571 246.379817 
L 446.517945 207.442076 
L 446.635281 220.258893 
L 446.752386 211.337918 
L 446.86926 221.046964 
L 446.985903 221.025978 
L 447.102317 202.136649 
L 447.33446 235.914135 
L 447.565696 210.185634 
L 447.680976 204.373551 
L 447.796033 210.058769 
L 447.910866 204.865257 
L 448.025476 224.071753 
L 448.139866 224.22664 
L 448.254034 195.729577 
L 448.367983 216.300023 
L 448.481713 211.022215 
L 448.595225 229.977758 
L 448.708519 203.828041 
L 448.93446 207.103784 
L 449.047108 209.603135 
L 449.159542 309.932269 
L 449.383771 205.863519 
L 449.495568 229.640759 
L 449.607154 206.131569 
L 449.829697 217.633485 
L 449.940656 218.722759 
L 450.051407 205.908665 
L 450.161951 223.630228 
L 450.272289 221.991532 
L 450.382422 210.779343 
L 450.382704 348.359688 
M 450.601783 348.359688 
L 450.602075 205.755502 
L 450.711597 210.235733 
L 450.820916 216.305316 
L 450.930034 241.012407 
L 451.147668 206.01206 
L 451.256186 201.900154 
L 451.364505 201.919972 
L 451.58055 214.789382 
L 451.688278 206.585798 
L 451.79581 214.575363 
L 451.903147 232.214909 
L 452.01029 201.364807 
L 452.11724 207.220548 
L 452.219281 348.359688 
M 452.228672 348.359688 
L 452.436933 200.578708 
L 452.543115 209.156883 
L 452.649107 202.66976 
L 452.754909 210.108393 
L 452.860523 257.94172 
L 452.965948 203.047052 
L 453.071186 225.383455 
L 453.176238 222.720143 
L 453.385783 206.051734 
L 453.490278 200.373866 
L 453.594589 207.573313 
L 453.698716 202.90691 
L 453.802661 207.517841 
L 454.010004 204.136514 
L 454.113404 239.006331 
L 454.319663 204.477702 
L 454.422524 197.683309 
L 454.627711 218.759175 
L 454.730039 232.113244 
L 454.934164 198.192344 
L 455.035964 198.699316 
L 455.137589 218.101631 
L 455.239039 212.737963 
L 455.340316 197.830936 
L 455.44142 237.986822 
L 455.542352 220.102918 
L 455.7437 249.324132 
L 455.844119 196.393549 
L 456.044445 207.081896 
L 456.144355 204.742117 
L 456.244096 232.80005 
L 456.343669 224.026511 
L 456.443076 204.666977 
L 456.542315 308.002997 
L 456.641389 206.077719 
L 456.740297 237.872315 
L 456.83904 222.771173 
L 457.036033 260.014181 
L 457.134284 216.352917 
L 457.330299 238.532651 
L 457.428064 212.647232 
L 457.525667 215.574394 
L 457.62311 264.489469 
L 457.817515 205.101321 
L 457.914479 221.873497 
L 458.011284 211.459143 
L 458.011531 348.359688 
M 458.204212 348.359688 
L 458.300754 195.596162 
L 458.39693 270.52236 
L 458.588815 203.220724 
L 458.78008 218.562459 
L 458.970728 209.627212 
L 459.160765 215.926601 
L 459.444681 201.18735 
L 459.539018 229.147464 
L 459.727242 203.883792 
L 459.727495 348.359688 
M 459.914659 348.359688 
L 460.008461 219.090334 
L 460.101904 212.562996 
L 460.28835 218.605379 
L 460.381353 207.019168 
L 460.566922 221.911052 
L 460.659489 210.049259 
L 460.751911 248.915285 
L 460.936323 211.301979 
L 461.120163 227.384714 
L 461.12037 348.359688 
M 461.303203 348.359688 
L 461.394857 212.762452 
L 461.486139 220.91755 
L 461.577281 209.108561 
L 461.668282 246.510607 
L 461.759144 214.30543 
L 461.849866 219.061659 
L 461.94045 198.155252 
L 462.211372 219.008688 
L 462.301405 216.677098 
L 462.391301 209.198531 
L 462.48106 227.458381 
L 462.570684 224.104498 
L 462.660172 203.89218 
L 462.749525 241.319939 
L 462.838744 221.801259 
L 462.927828 239.81024 
L 463.016778 211.513517 
L 463.194279 264.845522 
L 463.28283 258.847688 
L 463.459536 202.459779 
L 463.547691 210.744672 
L 463.635716 229.989513 
L 463.723609 221.820324 
L 463.811373 230.279744 
L 463.899006 200.450818 
L 463.98651 227.246328 
L 464.073885 206.178569 
L 464.161131 223.101415 
L 464.248249 219.252994 
L 464.335238 229.958976 
L 464.4221 218.458035 
L 464.508835 245.792334 
L 464.595443 208.149879 
L 464.681924 245.518137 
L 464.68209 348.359688 
M 464.854357 348.359688 
L 464.940612 227.52412 
L 464.940806 348.359688 
M 465.112235 348.359688 
L 465.112445 217.071788 
L 465.198175 221.859205 
L 465.283781 216.756117 
L 465.369263 217.882995 
L 465.454622 231.728194 
L 465.539858 213.949593 
L 465.709963 240.340284 
L 465.794832 209.548685 
L 465.795052 348.359688 
L 465.795052 348.359688 
" clip-path="url(#pba8dede576)" style="fill: none; stroke: #4c72b0; stroke-width: 1.5; stroke-linecap: round"/>
   </g>
   <g id="line2d_2">
    <path d="M 78.16375 8.336554 
L 119.195577 28.369267 
L 143.197657 30.391206 
L 160.227404 43.036561 
L 173.436701 45.847095 
L 184.229483 50.201919 
L 193.354651 51.33033 
L 201.25923 57.665417 
L 208.231563 59.063324 
L 214.468528 61.370013 
L 220.110549 62.636656 
L 225.26131 64.408662 
L 229.999551 65.420526 
L 234.386478 66.836327 
L 238.470608 69.17253 
L 242.291057 70.891357 
L 245.879817 72.250704 
L 249.26339 73.933681 
L 252.463976 74.693852 
L 255.500355 76.22413 
L 258.388558 77.049995 
L 261.142376 77.523719 
L 263.77376 78.425489 
L 266.293137 78.735184 
L 268.709653 79.379015 
L 271.031378 79.66368 
L 273.26547 80.93906 
L 275.418304 81.595312 
L 279.502435 82.447827 
L 281.443475 83.235822 
L 285.144456 84.280033 
L 286.911644 85.05195 
L 288.627602 85.098784 
L 290.295217 85.583511 
L 291.917138 86.358059 
L 295.033458 87.000592 
L 296.532182 87.566414 
L 297.993896 87.875417 
L 302.174202 89.125135 
L 309.741479 91.154983 
L 310.913724 91.535206 
L 312.063205 91.615253 
L 313.19079 92.174318 
L 315.3835 92.483204 
L 316.450131 93.021035 
L 319.53934 93.72692 
L 320.534262 93.822526 
L 322.475301 94.494278 
L 323.422464 95.101052 
L 324.354711 95.139898 
L 325.272503 95.342726 
L 327.066471 96.181336 
L 331.327044 96.936596 
L 332.143559 97.265736 
L 332.948965 97.403251 
L 333.743559 97.786069 
L 337.564008 98.801922 
L 338.299377 99.082703 
L 339.743263 99.266161 
L 341.152768 99.689972 
L 341.845132 99.741485 
L 342.529491 100.171223 
L 347.110504 101.266461 
L 348.35679 101.443421 
L 348.97023 101.689411 
L 350.773306 102.037924 
L 351.36233 102.289025 
L 352.523081 102.560159 
L 353.095032 102.932182 
L 355.874717 103.341224 
L 360.067365 104.322962 
L 361.070718 104.667144 
L 362.057348 104.97937 
L 363.027802 105.048426 
L 363.507128 105.304826 
L 363.982604 105.324382 
L 365.386537 105.712565 
L 368.098297 106.253025 
L 368.975297 106.638735 
L 371.112584 106.954922 
L 372.768536 107.381462 
L 373.579458 107.556143 
L 375.559456 108.020166 
L 377.475365 108.473942 
L 379.331204 108.899394 
L 380.77509 109.154784 
L 381.484038 109.313367 
L 383.220127 109.737677 
L 384.573247 109.969942 
L 385.896127 110.268849 
L 388.142331 110.794668 
L 388.768754 110.914677 
L 390.306409 111.228356 
L 392.394157 111.611392 
L 392.977377 111.765212 
L 394.126858 111.970782 
L 399.301332 113.08416 
L 400.335356 113.316411 
L 401.351629 113.542754 
L 401.853296 113.641421 
L 402.350748 113.82869 
L 403.333284 113.99071 
L 407.108039 114.744751 
L 407.563398 114.925481 
L 408.239936 115.04407 
L 410.656451 115.55021 
L 410.871321 115.55452 
L 411.298733 115.719004 
L 416.004206 116.758087 
L 417.938902 117.213297 
L 418.318367 117.348849 
L 419.070078 117.491456 
L 421.806917 118.14868 
L 422.86718 118.398543 
L 423.736452 118.638995 
L 426.764202 119.360284 
L 428.221916 119.775834 
L 430.111324 120.246039 
L 430.574401 120.376061 
L 433.718312 121.238871 
L 434.009204 121.34819 
L 434.730241 121.539007 
L 435.300813 121.704892 
L 437.118083 122.160843 
L 437.529648 122.35096 
L 438.34429 122.541434 
L 438.881223 122.714434 
L 446.164532 125.119648 
L 446.86926 125.352162 
L 447.102317 125.443462 
L 447.796033 125.729057 
L 449.047108 126.146736 
L 449.607154 126.349234 
L 450.272289 126.577949 
L 450.602075 126.706259 
L 451.038951 126.835376 
L 451.79581 127.172197 
L 452.11724 127.341819 
L 453.176238 127.712506 
L 453.594589 127.882108 
L 458.49295 130.269821 
L 459.255555 130.697488 
L 459.444681 130.771136 
L 459.633205 130.955102 
L 460.28835 131.274035 
L 460.47421 131.409694 
L 463.105595 133.170319 
L 463.547691 133.562959 
L 463.899006 133.88362 
L 464.508835 134.53042 
L 464.854508 135.11607 
L 465.112445 135.381792 
L 465.369263 135.83353 
L 465.794832 136.966952 
L 465.87958 139.001348 
L 465.87958 139.001348 
" clip-path="url(#pba8dede576)" style="fill: none; stroke: #dd8452; stroke-width: 1.5; stroke-linecap: round"/>
   </g>
   <g id="line2d_3"/>
   <g id="line2d_4"/>
   <g id="line2d_5">
    <path clip-path="url(#pba8dede576)" style="fill: none; stroke-dasharray: 5.55,2.4; stroke-dashoffset: 0; stroke: #808080; stroke-width: 1.5"/>
   </g>
   <g id="patch_3">
    <path d="M 58.16375 284.4 
L 58.16375 7.2 
" style="fill: none; stroke: #262626; stroke-width: 1.25; stroke-linejoin: miter; stroke-linecap: square"/>
   </g>
   <g id="patch_4">
    <path d="M 78.16375 304.4 
L 468.76375 304.4 
" style="fill: none; stroke: #262626; stroke-width: 1.25; stroke-linejoin: miter; stroke-linecap: square"/>
   </g>
   <g id="legend_1">
    <g id="patch_5">
     <path d="M 342.518125 65.405625 
L 461.06375 65.405625 
Q 463.26375 65.405625 463.26375 63.205625 
L 463.26375 14.9 
Q 463.26375 12.7 461.06375 12.7 
L 342.518125 12.7 
Q 340.318125 12.7 340.318125 14.9 
L 340.318125 63.205625 
Q 340.318125 65.405625 342.518125 65.405625 
z
" style="fill: #ffffff; opacity: 0.8"/>
    </g>
    <g id="text_12">
     <!-- spectrum -->
     <g style="fill: #262626" transform="translate(373.399688 26.218125) scale(0.12 -0.12)">
      <defs>
       <path id="DejaVuSans-73" d="M 2834 3397 
L 2834 2853 
Q 2591 2978 2328 3040 
Q 2066 3103 1784 3103 
Q 1356 3103 1142 2972 
Q 928 2841 928 2578 
Q 928 2378 1081 2264 
Q 1234 2150 1697 2047 
L 1894 2003 
Q 2506 1872 2764 1633 
Q 3022 1394 3022 966 
Q 3022 478 2636 193 
Q 2250 -91 1575 -91 
Q 1294 -91 989 -36 
Q 684 19 347 128 
L 347 722 
Q 666 556 975 473 
Q 1284 391 1588 391 
Q 1994 391 2212 530 
Q 2431 669 2431 922 
Q 2431 1156 2273 1281 
Q 2116 1406 1581 1522 
L 1381 1569 
Q 847 1681 609 1914 
Q 372 2147 372 2553 
Q 372 3047 722 3315 
Q 1072 3584 1716 3584 
Q 2034 3584 2315 3537 
Q 2597 3491 2834 3397 
z
" transform="scale(0.015625)"/>
       <path id="DejaVuSans-70" d="M 1159 525 
L 1159 -1331 
L 581 -1331 
L 581 3500 
L 1159 3500 
L 1159 2969 
Q 1341 3281 1617 3432 
Q 1894 3584 2278 3584 
Q 2916 3584 3314 3078 
Q 3713 2572 3713 1747 
Q 3713 922 3314 415 
Q 2916 -91 2278 -91 
Q 1894 -91 1617 61 
Q 1341 213 1159 525 
z
M 3116 1747 
Q 3116 2381 2855 2742 
Q 2594 3103 2138 3103 
Q 1681 3103 1420 2742 
Q 1159 2381 1159 1747 
Q 1159 1113 1420 752 
Q 1681 391 2138 391 
Q 2594 391 2855 752 
Q 3116 1113 3116 1747 
z
" transform="scale(0.015625)"/>
       <path id="DejaVuSans-63" d="M 3122 3366 
L 3122 2828 
Q 2878 2963 2633 3030 
Q 2388 3097 2138 3097 
Q 1578 3097 1268 2742 
Q 959 2388 959 1747 
Q 959 1106 1268 751 
Q 1578 397 2138 397 
Q 2388 397 2633 464 
Q 2878 531 3122 666 
L 3122 134 
Q 2881 22 2623 -34 
Q 2366 -91 2075 -91 
Q 1284 -91 818 406 
Q 353 903 353 1747 
Q 353 2603 823 3093 
Q 1294 3584 2113 3584 
Q 2378 3584 2631 3529 
Q 2884 3475 3122 3366 
z
" transform="scale(0.015625)"/>
       <path id="DejaVuSans-74" d="M 1172 4494 
L 1172 3500 
L 2356 3500 
L 2356 3053 
L 1172 3053 
L 1172 1153 
Q 1172 725 1289 603 
Q 1406 481 1766 481 
L 2356 481 
L 2356 0 
L 1766 0 
Q 1100 0 847 248 
Q 594 497 594 1153 
L 594 3053 
L 172 3053 
L 172 3500 
L 594 3500 
L 594 4494 
L 1172 4494 
z
" transform="scale(0.015625)"/>
       <path id="DejaVuSans-6d" d="M 3328 2828 
Q 3544 3216 3844 3400 
Q 4144 3584 4550 3584 
Q 5097 3584 5394 3201 
Q 5691 2819 5691 2113 
L 5691 0 
L 5113 0 
L 5113 2094 
Q 5113 2597 4934 2840 
Q 4756 3084 4391 3084 
Q 3944 3084 3684 2787 
Q 3425 2491 3425 1978 
L 3425 0 
L 2847 0 
L 2847 2094 
Q 2847 2600 2669 2842 
Q 2491 3084 2119 3084 
Q 1678 3084 1418 2786 
Q 1159 2488 1159 1978 
L 1159 0 
L 581 0 
L 581 3500 
L 1159 3500 
L 1159 2956 
Q 1356 3278 1631 3431 
Q 1906 3584 2284 3584 
Q 2666 3584 2933 3390 
Q 3200 3197 3328 2828 
z
" transform="scale(0.015625)"/>
      </defs>
      <use xlink:href="#DejaVuSans-73"/>
      <use xlink:href="#DejaVuSans-70" x="52.099609"/>
      <use xlink:href="#DejaVuSans-65" x="115.576172"/>
      <use xlink:href="#DejaVuSans-63" x="177.099609"/>
      <use xlink:href="#DejaVuSans-74" x="232.080078"/>
      <use xlink:href="#DejaVuSans-72" x="271.289062"/>
      <use xlink:href="#DejaVuSans-75" x="312.402344"/>
      <use xlink:href="#DejaVuSans-6d" x="375.78125"/>
     </g>
    </g>
    <g id="line2d_6">
     <path d="M 344.718125 38.722031 
L 355.718125 38.722031 
L 366.718125 38.722031 
" style="fill: none; stroke: #4c72b0; stroke-width: 1.5; stroke-linecap: round"/>
    </g>
    <g id="text_13">
     <!-- cross-validated -->
     <g style="fill: #262626" transform="translate(375.518125 42.572031) scale(0.11 -0.11)">
      <defs>
       <path id="DejaVuSans-6f" d="M 1959 3097 
Q 1497 3097 1228 2736 
Q 959 2375 959 1747 
Q 959 1119 1226 758 
Q 1494 397 1959 397 
Q 2419 397 2687 759 
Q 2956 1122 2956 1747 
Q 2956 2369 2687 2733 
Q 2419 3097 1959 3097 
z
M 1959 3584 
Q 2709 3584 3137 3096 
Q 3566 2609 3566 1747 
Q 3566 888 3137 398 
Q 2709 -91 1959 -91 
Q 1206 -91 779 398 
Q 353 888 353 1747 
Q 353 2609 779 3096 
Q 1206 3584 1959 3584 
z
" transform="scale(0.015625)"/>
       <path id="DejaVuSans-2d" d="M 313 2009 
L 1997 2009 
L 1997 1497 
L 313 1497 
L 313 2009 
z
" transform="scale(0.015625)"/>
       <path id="DejaVuSans-64" d="M 2906 2969 
L 2906 4863 
L 3481 4863 
L 3481 0 
L 2906 0 
L 2906 525 
Q 2725 213 2448 61 
Q 2172 -91 1784 -91 
Q 1150 -91 751 415 
Q 353 922 353 1747 
Q 353 2572 751 3078 
Q 1150 3584 1784 3584 
Q 2172 3584 2448 3432 
Q 2725 3281 2906 2969 
z
M 947 1747 
Q 947 1113 1208 752 
Q 1469 391 1925 391 
Q 2381 391 2643 752 
Q 2906 1113 2906 1747 
Q 2906 2381 2643 2742 
Q 2381 3103 1925 3103 
Q 1469 3103 1208 2742 
Q 947 2381 947 1747 
z
" transform="scale(0.015625)"/>
      </defs>
      <use xlink:href="#DejaVuSans-63"/>
      <use xlink:href="#DejaVuSans-72" x="54.980469"/>
      <use xlink:href="#DejaVuSans-6f" x="93.84375"/>
      <use xlink:href="#DejaVuSans-73" x="155.025391"/>
      <use xlink:href="#DejaVuSans-73" x="207.125"/>
      <use xlink:href="#DejaVuSans-2d" x="259.224609"/>
      <use xlink:href="#DejaVuSans-76" x="292.683594"/>
      <use xlink:href="#DejaVuSans-61" x="351.863281"/>
      <use xlink:href="#DejaVuSans-6c" x="413.142578"/>
      <use xlink:href="#DejaVuSans-69" x="440.925781"/>
      <use xlink:href="#DejaVuSans-64" x="468.708984"/>
      <use xlink:href="#DejaVuSans-61" x="532.185547"/>
      <use xlink:href="#DejaVuSans-74" x="593.464844"/>
      <use xlink:href="#DejaVuSans-65" x="632.673828"/>
      <use xlink:href="#DejaVuSans-64" x="694.197266"/>
     </g>
    </g>
    <g id="line2d_7">
     <path d="M 344.718125 54.867969 
L 355.718125 54.867969 
L 366.718125 54.867969 
" style="fill: none; stroke: #dd8452; stroke-width: 1.5; stroke-linecap: round"/>
    </g>
    <g id="text_14">
     <!-- original -->
     <g style="fill: #262626" transform="translate(375.518125 58.717969) scale(0.11 -0.11)">
      <use xlink:href="#DejaVuSans-6f"/>
      <use xlink:href="#DejaVuSans-72" x="61.181641"/>
      <use xlink:href="#DejaVuSans-69" x="102.294922"/>
      <use xlink:href="#DejaVuSans-67" x="130.078125"/>
      <use xlink:href="#DejaVuSans-69" x="193.554688"/>
      <use xlink:href="#DejaVuSans-6e" x="221.337891"/>
      <use xlink:href="#DejaVuSans-61" x="284.716797"/>
      <use xlink:href="#DejaVuSans-6c" x="345.996094"/>
     </g>
    </g>
   </g>
  </g>
 </g>
 <defs>
  <clipPath id="pba8dede576">
   <rect x="78.16375" y="7.2" width="390.6" height="277.2"/>
  </clipPath>
 </defs>
</svg>
