<?xml version="1.0" encoding="utf-8" standalone="no"?>
<!DOCTYPE svg PUBLIC "-//W3C//DTD SVG 1.1//EN"
  "http://www.w3.org/Graphics/SVG/1.1/DTD/svg11.dtd">
<svg xmlns:xlink="http://www.w3.org/1999/xlink" width="455.96375pt" height="327.359688pt" viewBox="0 0 455.96375 327.359688" xmlns="http://www.w3.org/2000/svg" version="1.1">
 <metadata>
  <rdf:RDF xmlns:dc="http://purl.org/dc/elements/1.1/" xmlns:cc="http://creativecommons.org/ns#" xmlns:rdf="http://www.w3.org/1999/02/22-rdf-syntax-ns#">
   <cc:Work>
    <dc:type rdf:resource="http://purl.org/dc/dcmitype/StillImage"/>
    <dc:date>2023-08-14T01:41:26.093157</dc:date>
    <dc:format>image/svg+xml</dc:format>
    <dc:creator>
     <cc:Agent>
      <dc:title>Matplotlib v3.7.2, https://matplotlib.org/</dc:title>
     </cc:Agent>
    </dc:creator>
   </cc:Work>
  </rdf:RDF>
 </metadata>
 <defs>
  <style type="text/css">*{stroke-linejoin: round; stroke-linecap: butt}</style>
 </defs>
 <g id="figure_1">
  <g id="patch_1">
   <path d="M 0 327.359688 
L 455.96375 327.359688 
L 455.96375 0 
L 0 0 
z
" style="fill: #ffffff"/>
  </g>
  <g id="axes_1">
   <g id="patch_2">
    <path d="M 58.16375 284.4 
L 448.76375 284.4 
L 448.76375 7.2 
L 58.16375 7.2 
z
" style="fill: #ffffff"/>
   </g>
   <g id="matplotlib.axis_1">
    <g id="xtick_1">
     <g id="text_1">
      <!-- $\mathdefault{10^{0}}$ -->
      <g style="fill: #262626" transform="translate(66.238295 302.258281) scale(0.11 -0.11)">
       <defs>
        <path id="DejaVuSans-31" d="M 794 531 
L 1825 531 
L 1825 4091 
L 703 3866 
L 703 4441 
L 1819 4666 
L 2450 4666 
L 2450 531 
L 3481 531 
L 3481 0 
L 794 0 
L 794 531 
z
" transform="scale(0.015625)"/>
        <path id="DejaVuSans-30" d="M 2034 4250 
Q 1547 4250 1301 3770 
Q 1056 3291 1056 2328 
Q 1056 1369 1301 889 
Q 1547 409 2034 409 
Q 2525 409 2770 889 
Q 3016 1369 3016 2328 
Q 3016 3291 2770 3770 
Q 2525 4250 2034 4250 
z
M 2034 4750 
Q 2819 4750 3233 4129 
Q 3647 3509 3647 2328 
Q 3647 1150 3233 529 
Q 2819 -91 2034 -91 
Q 1250 -91 836 529 
Q 422 1150 422 2328 
Q 422 3509 836 4129 
Q 1250 4750 2034 4750 
z
" transform="scale(0.015625)"/>
       </defs>
       <use xlink:href="#DejaVuSans-31" transform="translate(0 0.765625)"/>
       <use xlink:href="#DejaVuSans-30" transform="translate(63.623047 0.765625)"/>
       <use xlink:href="#DejaVuSans-30" transform="translate(128.203125 39.046875) scale(0.7)"/>
      </g>
     </g>
    </g>
    <g id="xtick_2">
     <g id="text_2">
      <!-- $\mathdefault{10^{1}}$ -->
      <g style="fill: #262626" transform="translate(191.073507 302.258281) scale(0.11 -0.11)">
       <use xlink:href="#DejaVuSans-31" transform="translate(0 0.684375)"/>
       <use xlink:href="#DejaVuSans-30" transform="translate(63.623047 0.684375)"/>
       <use xlink:href="#DejaVuSans-31" transform="translate(128.203125 38.965625) scale(0.7)"/>
      </g>
     </g>
    </g>
    <g id="xtick_3">
     <g id="text_3">
      <!-- $\mathdefault{10^{2}}$ -->
      <g style="fill: #262626" transform="translate(315.908718 302.258281) scale(0.11 -0.11)">
       <defs>
        <path id="DejaVuSans-32" d="M 1228 531 
L 3431 531 
L 3431 0 
L 469 0 
L 469 531 
Q 828 903 1448 1529 
Q 2069 2156 2228 2338 
Q 2531 2678 2651 2914 
Q 2772 3150 2772 3378 
Q 2772 3750 2511 3984 
Q 2250 4219 1831 4219 
Q 1534 4219 1204 4116 
Q 875 4013 500 3803 
L 500 4441 
Q 881 4594 1212 4672 
Q 1544 4750 1819 4750 
Q 2544 4750 2975 4387 
Q 3406 4025 3406 3419 
Q 3406 3131 3298 2873 
Q 3191 2616 2906 2266 
Q 2828 2175 2409 1742 
Q 1991 1309 1228 531 
z
" transform="scale(0.015625)"/>
       </defs>
       <use xlink:href="#DejaVuSans-31" transform="translate(0 0.765625)"/>
       <use xlink:href="#DejaVuSans-30" transform="translate(63.623047 0.765625)"/>
       <use xlink:href="#DejaVuSans-32" transform="translate(128.203125 39.046875) scale(0.7)"/>
      </g>
     </g>
    </g>
    <g id="xtick_4"/>
    <g id="xtick_5"/>
    <g id="xtick_6"/>
    <g id="xtick_7"/>
    <g id="xtick_8"/>
    <g id="xtick_9"/>
    <g id="xtick_10"/>
    <g id="xtick_11"/>
    <g id="xtick_12"/>
    <g id="xtick_13"/>
    <g id="xtick_14"/>
    <g id="xtick_15"/>
    <g id="xtick_16"/>
    <g id="xtick_17"/>
    <g id="xtick_18"/>
    <g id="xtick_19"/>
    <g id="xtick_20"/>
    <g id="xtick_21"/>
    <g id="xtick_22"/>
    <g id="xtick_23"/>
    <g id="xtick_24"/>
    <g id="xtick_25"/>
    <g id="xtick_26"/>
    <g id="xtick_27"/>
    <g id="xtick_28"/>
    <g id="xtick_29"/>
    <g id="text_4">
     <!-- rank -->
     <g style="fill: #262626" transform="translate(240.043438 317.664062) scale(0.12 -0.12)">
      <defs>
       <path id="DejaVuSans-72" d="M 2631 2963 
Q 2534 3019 2420 3045 
Q 2306 3072 2169 3072 
Q 1681 3072 1420 2755 
Q 1159 2438 1159 1844 
L 1159 0 
L 581 0 
L 581 3500 
L 1159 3500 
L 1159 2956 
Q 1341 3275 1631 3429 
Q 1922 3584 2338 3584 
Q 2397 3584 2469 3576 
Q 2541 3569 2628 3553 
L 2631 2963 
z
" transform="scale(0.015625)"/>
       <path id="DejaVuSans-61" d="M 2194 1759 
Q 1497 1759 1228 1600 
Q 959 1441 959 1056 
Q 959 750 1161 570 
Q 1363 391 1709 391 
Q 2188 391 2477 730 
Q 2766 1069 2766 1631 
L 2766 1759 
L 2194 1759 
z
M 3341 1997 
L 3341 0 
L 2766 0 
L 2766 531 
Q 2569 213 2275 61 
Q 1981 -91 1556 -91 
Q 1019 -91 701 211 
Q 384 513 384 1019 
Q 384 1609 779 1909 
Q 1175 2209 1959 2209 
L 2766 2209 
L 2766 2266 
Q 2766 2663 2505 2880 
Q 2244 3097 1772 3097 
Q 1472 3097 1187 3025 
Q 903 2953 641 2809 
L 641 3341 
Q 956 3463 1253 3523 
Q 1550 3584 1831 3584 
Q 2591 3584 2966 3190 
Q 3341 2797 3341 1997 
z
" transform="scale(0.015625)"/>
       <path id="DejaVuSans-6e" d="M 3513 2113 
L 3513 0 
L 2938 0 
L 2938 2094 
Q 2938 2591 2744 2837 
Q 2550 3084 2163 3084 
Q 1697 3084 1428 2787 
Q 1159 2491 1159 1978 
L 1159 0 
L 581 0 
L 581 3500 
L 1159 3500 
L 1159 2956 
Q 1366 3272 1645 3428 
Q 1925 3584 2291 3584 
Q 2894 3584 3203 3211 
Q 3513 2838 3513 2113 
z
" transform="scale(0.015625)"/>
       <path id="DejaVuSans-6b" d="M 581 4863 
L 1159 4863 
L 1159 1991 
L 2875 3500 
L 3609 3500 
L 1753 1863 
L 3688 0 
L 2938 0 
L 1159 1709 
L 1159 0 
L 581 0 
L 581 4863 
z
" transform="scale(0.015625)"/>
      </defs>
      <use xlink:href="#DejaVuSans-72"/>
      <use xlink:href="#DejaVuSans-61" x="41.113281"/>
      <use xlink:href="#DejaVuSans-6e" x="102.392578"/>
      <use xlink:href="#DejaVuSans-6b" x="165.771484"/>
     </g>
    </g>
   </g>
   <g id="matplotlib.axis_2">
    <g id="ytick_1">
     <g id="text_5">
      <!-- $\mathdefault{0}$ -->
      <g style="fill: #262626" transform="translate(41.62375 282.259203) scale(0.11 -0.11)">
       <use xlink:href="#DejaVuSans-30" transform="translate(0 0.78125)"/>
      </g>
     </g>
    </g>
    <g id="ytick_2">
     <g id="text_6">
      <!-- $\mathdefault{10^{-2}}$ -->
      <g style="fill: #262626" transform="translate(22.81375 275.939265) scale(0.11 -0.11)">
       <defs>
        <path id="DejaVuSans-2212" d="M 678 2272 
L 4684 2272 
L 4684 1741 
L 678 1741 
L 678 2272 
z
" transform="scale(0.015625)"/>
       </defs>
       <use xlink:href="#DejaVuSans-31" transform="translate(0 0.765625)"/>
       <use xlink:href="#DejaVuSans-30" transform="translate(63.623047 0.765625)"/>
       <use xlink:href="#DejaVuSans-2212" transform="translate(128.203125 39.046875) scale(0.7)"/>
       <use xlink:href="#DejaVuSans-32" transform="translate(186.855469 39.046875) scale(0.7)"/>
      </g>
     </g>
    </g>
    <g id="ytick_3">
     <g id="text_7">
      <!-- $\mathdefault{10^{-1}}$ -->
      <g style="fill: #262626" transform="translate(22.81375 219.059825) scale(0.11 -0.11)">
       <use xlink:href="#DejaVuSans-31" transform="translate(0 0.684375)"/>
       <use xlink:href="#DejaVuSans-30" transform="translate(63.623047 0.684375)"/>
       <use xlink:href="#DejaVuSans-2212" transform="translate(128.203125 38.965625) scale(0.7)"/>
       <use xlink:href="#DejaVuSans-31" transform="translate(186.855469 38.965625) scale(0.7)"/>
      </g>
     </g>
    </g>
    <g id="ytick_4">
     <g id="text_8">
      <!-- $\mathdefault{10^{0}}$ -->
      <g style="fill: #262626" transform="translate(29.30375 162.180385) scale(0.11 -0.11)">
       <use xlink:href="#DejaVuSans-31" transform="translate(0 0.765625)"/>
       <use xlink:href="#DejaVuSans-30" transform="translate(63.623047 0.765625)"/>
       <use xlink:href="#DejaVuSans-30" transform="translate(128.203125 39.046875) scale(0.7)"/>
      </g>
     </g>
    </g>
    <g id="ytick_5">
     <g id="text_9">
      <!-- $\mathdefault{10^{1}}$ -->
      <g style="fill: #262626" transform="translate(29.30375 105.300945) scale(0.11 -0.11)">
       <use xlink:href="#DejaVuSans-31" transform="translate(0 0.684375)"/>
       <use xlink:href="#DejaVuSans-30" transform="translate(63.623047 0.684375)"/>
       <use xlink:href="#DejaVuSans-31" transform="translate(128.203125 38.965625) scale(0.7)"/>
      </g>
     </g>
    </g>
    <g id="ytick_6">
     <g id="text_10">
      <!-- $\mathdefault{10^{2}}$ -->
      <g style="fill: #262626" transform="translate(29.30375 48.421505) scale(0.11 -0.11)">
       <use xlink:href="#DejaVuSans-31" transform="translate(0 0.765625)"/>
       <use xlink:href="#DejaVuSans-30" transform="translate(63.623047 0.765625)"/>
       <use xlink:href="#DejaVuSans-32" transform="translate(128.203125 39.046875) scale(0.7)"/>
      </g>
     </g>
    </g>
    <g id="text_11">
     <!-- cross-validated eigenvalue -->
     <g style="fill: #262626" transform="translate(16.318125 226.219687) rotate(-90) scale(0.12 -0.12)">
      <defs>
       <path id="DejaVuSans-63" d="M 3122 3366 
L 3122 2828 
Q 2878 2963 2633 3030 
Q 2388 3097 2138 3097 
Q 1578 3097 1268 2742 
Q 959 2388 959 1747 
Q 959 1106 1268 751 
Q 1578 397 2138 397 
Q 2388 397 2633 464 
Q 2878 531 3122 666 
L 3122 134 
Q 2881 22 2623 -34 
Q 2366 -91 2075 -91 
Q 1284 -91 818 406 
Q 353 903 353 1747 
Q 353 2603 823 3093 
Q 1294 3584 2113 3584 
Q 2378 3584 2631 3529 
Q 2884 3475 3122 3366 
z
" transform="scale(0.015625)"/>
       <path id="DejaVuSans-6f" d="M 1959 3097 
Q 1497 3097 1228 2736 
Q 959 2375 959 1747 
Q 959 1119 1226 758 
Q 1494 397 1959 397 
Q 2419 397 2687 759 
Q 2956 1122 2956 1747 
Q 2956 2369 2687 2733 
Q 2419 3097 1959 3097 
z
M 1959 3584 
Q 2709 3584 3137 3096 
Q 3566 2609 3566 1747 
Q 3566 888 3137 398 
Q 2709 -91 1959 -91 
Q 1206 -91 779 398 
Q 353 888 353 1747 
Q 353 2609 779 3096 
Q 1206 3584 1959 3584 
z
" transform="scale(0.015625)"/>
       <path id="DejaVuSans-73" d="M 2834 3397 
L 2834 2853 
Q 2591 2978 2328 3040 
Q 2066 3103 1784 3103 
Q 1356 3103 1142 2972 
Q 928 2841 928 2578 
Q 928 2378 1081 2264 
Q 1234 2150 1697 2047 
L 1894 2003 
Q 2506 1872 2764 1633 
Q 3022 1394 3022 966 
Q 3022 478 2636 193 
Q 2250 -91 1575 -91 
Q 1294 -91 989 -36 
Q 684 19 347 128 
L 347 722 
Q 666 556 975 473 
Q 1284 391 1588 391 
Q 1994 391 2212 530 
Q 2431 669 2431 922 
Q 2431 1156 2273 1281 
Q 2116 1406 1581 1522 
L 1381 1569 
Q 847 1681 609 1914 
Q 372 2147 372 2553 
Q 372 3047 722 3315 
Q 1072 3584 1716 3584 
Q 2034 3584 2315 3537 
Q 2597 3491 2834 3397 
z
" transform="scale(0.015625)"/>
       <path id="DejaVuSans-2d" d="M 313 2009 
L 1997 2009 
L 1997 1497 
L 313 1497 
L 313 2009 
z
" transform="scale(0.015625)"/>
       <path id="DejaVuSans-76" d="M 191 3500 
L 800 3500 
L 1894 563 
L 2988 3500 
L 3597 3500 
L 2284 0 
L 1503 0 
L 191 3500 
z
" transform="scale(0.015625)"/>
       <path id="DejaVuSans-6c" d="M 603 4863 
L 1178 4863 
L 1178 0 
L 603 0 
L 603 4863 
z
" transform="scale(0.015625)"/>
       <path id="DejaVuSans-69" d="M 603 3500 
L 1178 3500 
L 1178 0 
L 603 0 
L 603 3500 
z
M 603 4863 
L 1178 4863 
L 1178 4134 
L 603 4134 
L 603 4863 
z
" transform="scale(0.015625)"/>
       <path id="DejaVuSans-64" d="M 2906 2969 
L 2906 4863 
L 3481 4863 
L 3481 0 
L 2906 0 
L 2906 525 
Q 2725 213 2448 61 
Q 2172 -91 1784 -91 
Q 1150 -91 751 415 
Q 353 922 353 1747 
Q 353 2572 751 3078 
Q 1150 3584 1784 3584 
Q 2172 3584 2448 3432 
Q 2725 3281 2906 2969 
z
M 947 1747 
Q 947 1113 1208 752 
Q 1469 391 1925 391 
Q 2381 391 2643 752 
Q 2906 1113 2906 1747 
Q 2906 2381 2643 2742 
Q 2381 3103 1925 3103 
Q 1469 3103 1208 2742 
Q 947 2381 947 1747 
z
" transform="scale(0.015625)"/>
       <path id="DejaVuSans-74" d="M 1172 4494 
L 1172 3500 
L 2356 3500 
L 2356 3053 
L 1172 3053 
L 1172 1153 
Q 1172 725 1289 603 
Q 1406 481 1766 481 
L 2356 481 
L 2356 0 
L 1766 0 
Q 1100 0 847 248 
Q 594 497 594 1153 
L 594 3053 
L 172 3053 
L 172 3500 
L 594 3500 
L 594 4494 
L 1172 4494 
z
" transform="scale(0.015625)"/>
       <path id="DejaVuSans-65" d="M 3597 1894 
L 3597 1613 
L 953 1613 
Q 991 1019 1311 708 
Q 1631 397 2203 397 
Q 2534 397 2845 478 
Q 3156 559 3463 722 
L 3463 178 
Q 3153 47 2828 -22 
Q 2503 -91 2169 -91 
Q 1331 -91 842 396 
Q 353 884 353 1716 
Q 353 2575 817 3079 
Q 1281 3584 2069 3584 
Q 2775 3584 3186 3129 
Q 3597 2675 3597 1894 
z
M 3022 2063 
Q 3016 2534 2758 2815 
Q 2500 3097 2075 3097 
Q 1594 3097 1305 2825 
Q 1016 2553 972 2059 
L 3022 2063 
z
" transform="scale(0.015625)"/>
       <path id="DejaVuSans-20" transform="scale(0.015625)"/>
       <path id="DejaVuSans-67" d="M 2906 1791 
Q 2906 2416 2648 2759 
Q 2391 3103 1925 3103 
Q 1463 3103 1205 2759 
Q 947 2416 947 1791 
Q 947 1169 1205 825 
Q 1463 481 1925 481 
Q 2391 481 2648 825 
Q 2906 1169 2906 1791 
z
M 3481 434 
Q 3481 -459 3084 -895 
Q 2688 -1331 1869 -1331 
Q 1566 -1331 1297 -1286 
Q 1028 -1241 775 -1147 
L 775 -588 
Q 1028 -725 1275 -790 
Q 1522 -856 1778 -856 
Q 2344 -856 2625 -561 
Q 2906 -266 2906 331 
L 2906 616 
Q 2728 306 2450 153 
Q 2172 0 1784 0 
Q 1141 0 747 490 
Q 353 981 353 1791 
Q 353 2603 747 3093 
Q 1141 3584 1784 3584 
Q 2172 3584 2450 3431 
Q 2728 3278 2906 2969 
L 2906 3500 
L 3481 3500 
L 3481 434 
z
" transform="scale(0.015625)"/>
       <path id="DejaVuSans-75" d="M 544 1381 
L 544 3500 
L 1119 3500 
L 1119 1403 
Q 1119 906 1312 657 
Q 1506 409 1894 409 
Q 2359 409 2629 706 
Q 2900 1003 2900 1516 
L 2900 3500 
L 3475 3500 
L 3475 0 
L 2900 0 
L 2900 538 
Q 2691 219 2414 64 
Q 2138 -91 1772 -91 
Q 1169 -91 856 284 
Q 544 659 544 1381 
z
M 1991 3584 
L 1991 3584 
z
" transform="scale(0.015625)"/>
      </defs>
      <use xlink:href="#DejaVuSans-63"/>
      <use xlink:href="#DejaVuSans-72" x="54.980469"/>
      <use xlink:href="#DejaVuSans-6f" x="93.84375"/>
      <use xlink:href="#DejaVuSans-73" x="155.025391"/>
      <use xlink:href="#DejaVuSans-73" x="207.125"/>
      <use xlink:href="#DejaVuSans-2d" x="259.224609"/>
      <use xlink:href="#DejaVuSans-76" x="292.683594"/>
      <use xlink:href="#DejaVuSans-61" x="351.863281"/>
      <use xlink:href="#DejaVuSans-6c" x="413.142578"/>
      <use xlink:href="#DejaVuSans-69" x="440.925781"/>
      <use xlink:href="#DejaVuSans-64" x="468.708984"/>
      <use xlink:href="#DejaVuSans-61" x="532.185547"/>
      <use xlink:href="#DejaVuSans-74" x="593.464844"/>
      <use xlink:href="#DejaVuSans-65" x="632.673828"/>
      <use xlink:href="#DejaVuSans-64" x="694.197266"/>
      <use xlink:href="#DejaVuSans-20" x="757.673828"/>
      <use xlink:href="#DejaVuSans-65" x="789.460938"/>
      <use xlink:href="#DejaVuSans-69" x="850.984375"/>
      <use xlink:href="#DejaVuSans-67" x="878.767578"/>
      <use xlink:href="#DejaVuSans-65" x="942.244141"/>
      <use xlink:href="#DejaVuSans-6e" x="1003.767578"/>
      <use xlink:href="#DejaVuSans-76" x="1067.146484"/>
      <use xlink:href="#DejaVuSans-61" x="1126.326172"/>
      <use xlink:href="#DejaVuSans-6c" x="1187.605469"/>
      <use xlink:href="#DejaVuSans-75" x="1215.388672"/>
      <use xlink:href="#DejaVuSans-65" x="1278.767578"/>
     </g>
    </g>
   </g>
   <g id="PolyCollection_1"/>
   <g id="line2d_1">
    <path d="M 75.918295 19.531343 
L 113.497439 8.405429 
L 135.479828 34.518447 
L 151.076582 36.421108 
L 163.174364 58.254787 
L 173.058971 40.608277 
L 181.416288 68.707967 
L 188.655725 68.364344 
L 195.041361 60.436056 
L 200.753507 92.739446 
L 205.920771 67.948443 
L 210.638114 59.919331 
L 214.977649 64.653876 
L 218.995431 70.915509 
L 222.735896 61.443209 
L 226.234868 99.146426 
L 229.521646 80.188546 
L 232.620504 100.04313 
L 235.551771 104.068162 
L 238.33265 86.424885 
L 240.97782 92.872509 
L 243.499914 100.418186 
L 245.909878 86.021438 
L 248.217257 90.730295 
L 250.430432 92.791096 
L 252.556792 89.212844 
L 254.602893 111.319463 
L 256.574574 103.340525 
L 258.477058 94.088415 
L 260.315039 93.919123 
L 262.092748 108.369231 
L 263.814011 102.31371 
L 265.482304 97.784498 
L 267.10079 100.963975 
L 268.672356 114.040389 
L 270.199647 100.649976 
L 271.685089 105.308983 
L 273.130914 101.334822 
L 275.911793 104.489178 
L 277.250509 115.40706 
L 278.556964 109.187711 
L 281.079057 126.301348 
L 282.297429 110.578003 
L 283.489021 108.642318 
L 284.654985 115.800708 
L 285.7964 114.475387 
L 286.91428 110.217642 
L 288.009575 110.356769 
L 289.083179 119.614832 
L 290.135935 114.833014 
L 291.168638 117.001905 
L 292.182036 110.591994 
L 293.176839 117.854956 
L 294.153717 146.94718 
L 295.113304 119.337226 
L 296.056202 122.866922 
L 296.98298 136.35369 
L 297.894182 112.423362 
L 298.790323 134.455382 
L 299.671891 131.318877 
L 300.539353 130.156907 
L 301.393154 116.209613 
L 302.233717 138.513765 
L 303.061447 132.91598 
L 303.876729 128.569251 
L 304.679933 128.559461 
L 305.47141 127.896607 
L 306.251499 132.910046 
L 307.020522 125.871827 
L 307.77879 160.920318 
L 308.526598 134.891582 
L 309.264232 126.999169 
L 309.991964 127.941719 
L 310.710058 137.558225 
L 311.418764 136.503852 
L 312.118325 131.525456 
L 312.808974 141.691833 
L 313.490936 129.679329 
L 314.164426 134.933551 
L 314.829652 133.359498 
L 315.486814 128.503834 
L 316.136107 126.842325 
L 316.777715 129.051535 
L 317.411818 127.636855 
L 318.038591 139.47143 
L 318.658201 132.613958 
L 319.270809 140.149022 
L 319.876572 131.779623 
L 320.475641 129.00229 
L 321.068164 132.383598 
L 321.65428 140.33785 
L 322.234128 133.786163 
L 322.807839 128.803558 
L 323.375544 138.665111 
L 323.937365 144.023067 
L 324.493423 130.458483 
L 325.043837 135.625047 
L 325.588718 138.334615 
L 326.128178 145.045165 
L 326.662322 139.239938 
L 327.191256 137.175819 
L 327.715078 154.052323 
L 328.233889 138.240591 
L 328.747781 137.836817 
L 329.256848 133.783404 
L 329.76118 137.998309 
L 330.260863 136.877477 
L 330.755983 138.747075 
L 331.246622 145.797126 
L 331.73286 166.019791 
L 332.214777 145.475351 
L 332.692447 141.586208 
L 333.165946 135.288548 
L 333.635345 137.372493 
L 334.100714 150.858063 
L 334.562123 139.1306 
L 335.019639 156.104589 
L 335.473326 142.840306 
L 335.923247 144.539518 
L 336.369466 148.796231 
L 337.251034 141.483339 
L 337.6865 146.19269 
L 338.118496 138.226553 
L 338.547077 154.101288 
L 338.972297 141.0363 
L 339.394208 157.806867 
L 339.81286 159.985139 
L 340.228305 164.59685 
L 340.64059 142.525445 
L 341.049764 145.731181 
L 341.455872 151.590671 
L 341.858961 147.184298 
L 342.656259 152.846491 
L 343.050553 139.694439 
L 343.442001 148.148494 
L 343.830642 147.173316 
L 344.216517 150.559082 
L 344.599666 148.547241 
L 344.980125 149.774661 
L 345.357933 152.347998 
L 345.733127 145.665079 
L 346.105741 144.674943 
L 346.475813 158.409484 
L 346.843375 149.740429 
L 347.208462 164.006785 
L 347.571107 170.79367 
L 348.289201 150.922777 
L 348.644712 149.208425 
L 348.997907 149.227816 
L 349.348816 151.463969 
L 349.697468 155.684844 
L 350.043892 162.483566 
L 350.388117 160.12543 
L 350.73017 167.869892 
L 351.070079 149.157168 
L 351.40787 159.848434 
L 351.743569 156.541839 
L 352.077202 147.767529 
L 352.408795 152.289497 
L 352.738372 150.056059 
L 353.065958 150.383898 
L 353.391576 165.696661 
L 353.71525 153.018978 
L 354.037003 152.289003 
L 354.356858 151.282489 
L 354.674837 165.107191 
L 354.990961 153.177492 
L 355.305253 153.205074 
L 355.617734 156.70509 
L 355.928424 155.119238 
L 356.237344 165.097466 
L 356.544513 159.783784 
L 356.849952 157.22988 
L 357.153679 156.051261 
L 357.455715 162.90709 
L 357.756077 155.7675 
L 358.054785 164.060545 
L 358.351855 164.184712 
L 358.647307 172.04946 
L 359.233423 155.383833 
L 359.524122 167.932181 
L 359.813271 156.89394 
L 360.100886 155.408434 
L 360.386983 165.672939 
L 360.671578 170.501305 
L 360.954687 149.994207 
L 361.236325 159.113215 
L 361.516508 150.921564 
L 361.79525 167.074755 
L 362.072566 158.457803 
L 362.348471 158.704145 
L 362.62298 166.606698 
L 362.896105 154.008759 
L 363.167861 152.087191 
L 363.438262 159.768394 
L 363.707321 157.128669 
L 363.975051 165.053903 
L 364.241465 169.101814 
L 364.506577 181.902284 
L 364.770399 163.317926 
L 365.032943 165.558957 
L 365.294222 177.660273 
L 365.554247 163.967597 
L 365.813032 169.29912 
L 366.070587 161.811923 
L 366.326924 167.616315 
L 366.582055 168.306434 
L 366.835991 153.36931 
L 367.088743 152.52202 
L 367.340323 167.758653 
L 367.59074 170.839159 
L 367.840006 166.748151 
L 368.088131 167.256155 
L 368.335126 166.053709 
L 368.581 179.206945 
L 369.069429 159.361742 
L 369.553497 173.620932 
L 369.79392 166.467179 
L 370.033281 189.786162 
L 370.27159 162.979135 
L 370.508856 168.361856 
L 370.745089 165.456918 
L 370.980296 170.405956 
L 371.214488 169.35051 
L 371.447672 169.843272 
L 371.679857 164.122919 
L 371.911053 177.079049 
L 372.141267 169.99815 
L 372.370507 157.746834 
L 372.598782 158.858242 
L 372.8261 157.82373 
L 373.277896 175.158776 
L 373.50239 228.675588 
L 373.725959 175.369677 
L 373.948609 162.734997 
L 374.170348 172.122568 
L 374.391185 162.669655 
L 374.611125 168.170342 
L 374.830177 178.26743 
L 375.048347 163.141138 
L 375.265643 170.186889 
L 375.482071 168.502965 
L 375.697639 168.346559 
L 375.912353 167.605403 
L 376.12622 183.521705 
L 376.55144 172.48354 
L 376.762806 172.24562 
L 376.973351 173.823918 
L 377.183081 160.926557 
L 377.392003 182.084916 
L 377.600124 167.692222 
L 377.807448 163.665757 
L 378.013982 164.591352 
L 378.219733 171.789571 
L 378.424706 167.028863 
L 378.628907 166.715051 
L 378.832341 163.448098 
L 379.035015 165.84346 
L 379.236935 169.590187 
L 379.438105 178.757267 
L 379.638531 166.290169 
L 379.838219 167.973382 
L 380.037174 167.12338 
L 380.235402 164.268913 
L 380.432908 164.121459 
L 380.629696 184.668132 
L 380.825773 174.782827 
L 381.021144 184.663252 
L 381.215813 169.225038 
L 381.409785 185.916765 
L 381.603066 161.119704 
L 381.79566 172.080027 
L 381.987573 162.314251 
L 382.178809 164.384872 
L 382.369372 163.263969 
L 382.559268 174.62336 
L 382.748501 172.177234 
L 382.937076 166.892942 
L 383.124997 190.988384 
L 383.31227 172.336455 
L 383.498897 183.309839 
L 383.684884 169.571039 
L 383.870236 178.383479 
L 384.054956 163.05275 
L 384.422518 177.957924 
L 384.605369 160.279706 
L 384.969231 188.019171 
L 385.150251 169.978279 
L 385.330667 181.850117 
L 385.68971 163.416266 
L 386.046391 173.963641 
L 386.223855 174.324953 
L 386.40074 193.94652 
L 386.57705 169.649568 
L 386.752788 166.932029 
L 386.927959 166.647951 
L 387.102565 178.52876 
L 387.276611 175.704729 
L 387.623036 163.608298 
L 387.795421 177.503815 
L 387.96726 227.417882 
L 388.138557 167.421066 
L 388.309314 173.428183 
L 388.479534 173.429767 
L 388.649222 181.111262 
L 388.818381 180.347521 
L 388.987013 171.930568 
L 389.322712 179.019838 
L 389.656345 175.147546 
L 389.822395 180.005477 
L 389.987938 188.216595 
L 390.152977 167.954645 
L 390.317515 197.905771 
L 390.645101 162.73481 
L 390.808154 175.538434 
L 390.970719 175.636823 
L 391.132797 177.661186 
L 391.294393 169.167067 
L 391.616146 178.160102 
L 391.776309 191.905383 
L 391.936001 170.469251 
L 392.095223 173.420811 
L 392.25398 189.439625 
L 392.412272 173.594389 
L 392.570104 199.025823 
L 392.727478 172.784471 
L 392.884397 190.305065 
L 393.040862 180.674512 
L 393.196877 196.989278 
L 393.352445 166.445512 
L 393.507567 180.780599 
L 393.662247 182.15417 
L 393.816487 174.625237 
L 393.970289 180.087264 
L 394.123656 176.141749 
L 394.276591 327.64373 
L 394.429095 185.152098 
L 394.581171 183.461014 
L 394.732823 198.968748 
L 395.034858 181.066514 
L 395.185247 185.08565 
L 395.33522 174.218148 
L 395.48478 176.018082 
L 395.633928 180.647622 
L 395.782666 188.995234 
L 396.078925 171.548279 
L 396.373574 200.153665 
L 396.5203 174.049131 
L 396.812566 183.984074 
L 396.958111 229.495381 
L 397.103265 181.969557 
L 397.248032 184.650763 
L 397.392414 168.67855 
L 397.536412 174.32786 
L 397.680029 174.880297 
L 397.823266 172.134105 
L 397.966126 204.706941 
L 398.10861 171.659252 
L 398.39246 181.941956 
L 398.53383 183.152697 
L 398.674832 212.52154 
L 398.95574 181.224411 
L 399.095651 231.006498 
L 399.235201 174.735372 
L 399.374393 190.355218 
L 399.513229 185.969642 
L 399.651709 197.603964 
L 399.789838 175.721617 
L 399.927615 175.889267 
L 400.065042 186.951646 
L 400.202123 179.45178 
L 400.338857 179.030438 
L 400.475248 176.211776 
L 400.611296 177.162003 
L 400.747004 174.297761 
L 400.882373 182.805271 
L 401.017405 173.233162 
L 401.152101 183.433045 
L 401.286464 176.408225 
L 401.420494 176.069163 
L 401.687565 199.582133 
L 401.820608 195.379058 
L 401.953326 175.219933 
L 402.08572 188.62291 
L 402.217791 184.080659 
L 402.349542 171.561757 
L 402.480973 194.412171 
L 402.612086 175.54835 
L 402.742883 187.227865 
L 402.873365 184.808429 
L 403.13339 245.475965 
L 403.262937 187.391462 
L 403.392175 185.589674 
L 403.64973 171.901443 
L 403.77805 177.788843 
L 403.906067 191.116516 
L 404.161198 192.108925 
L 404.288315 189.557295 
L 404.415134 194.103503 
L 404.541658 188.125689 
L 404.667886 176.420708 
L 404.793822 203.311623 
L 404.919466 185.389192 
L 405.169883 197.526936 
L 405.294659 224.15296 
L 405.419149 173.304891 
L 405.543353 177.803928 
L 405.667274 166.720386 
L 405.790912 188.316959 
L 405.914269 180.758982 
L 406.037345 181.422411 
L 406.160143 278.718979 
L 406.404908 174.654881 
L 406.526877 197.335261 
L 406.648572 180.114736 
L 406.769995 209.672864 
L 406.891146 189.256848 
L 407.13264 196.81265 
L 407.252985 222.095112 
L 407.492876 172.641822 
L 407.73171 184.257413 
L 407.969496 177.260571 
L 408.087999 177.202872 
L 408.206244 196.819986 
L 408.324232 186.535172 
L 408.441963 227.763509 
L 408.559439 186.769223 
L 408.676662 197.038741 
L 408.793631 182.738859 
L 408.910348 190.478257 
L 409.026815 180.783644 
L 409.143032 191.385798 
L 409.259001 189.684596 
L 409.605425 172.252395 
L 409.835151 181.021222 
L 410.063908 176.98654 
L 410.177925 191.515259 
L 410.291703 173.196767 
L 410.405243 185.706548 
L 410.518545 167.434737 
L 410.744443 218.429444 
L 410.857039 173.306775 
L 410.969402 205.763105 
L 411.081533 175.886872 
L 411.193433 209.096754 
L 411.305102 199.893234 
L 411.416541 177.167802 
L 411.527752 193.571874 
L 411.638735 183.804195 
L 411.749491 236.911848 
L 411.970328 206.636515 
L 412.080409 196.237151 
L 412.299905 200.826616 
L 412.40932 197.232285 
L 412.518515 179.012721 
L 412.62749 197.880925 
L 412.736247 189.27533 
L 412.953108 195.288923 
L 413.061214 231.438528 
L 413.276782 190.148402 
L 413.384246 203.737528 
L 413.491496 194.276701 
L 413.598535 204.580423 
L 413.705364 204.555478 
L 413.811982 184.52222 
L 414.024591 220.342062 
L 414.236369 193.053461 
L 414.341949 186.891686 
L 414.447324 192.926345 
L 414.552494 187.415884 
L 414.762224 207.934769 
L 414.866786 177.725834 
L 414.971147 199.545946 
L 415.075307 193.948863 
L 415.179267 214.051166 
L 415.283028 186.320576 
L 415.386591 187.486352 
L 415.593126 192.438023 
L 415.696099 275.984267 
L 415.90146 188.473873 
L 416.003849 213.685931 
L 416.106046 188.756848 
L 416.309863 200.953439 
L 416.411484 202.111978 
L 416.512916 188.527153 
L 416.614158 207.299722 
L 416.715212 205.575581 
L 416.816078 193.718711 
L 416.913771 328.359688 
M 416.919625 328.359688 
L 417.017248 188.358407 
L 417.117553 193.112087 
L 417.217674 199.544224 
L 417.31761 225.74066 
L 417.516931 188.631765 
L 417.616317 184.27244 
L 417.715522 184.290765 
L 417.913388 197.937296 
L 418.012051 189.240334 
L 418.110534 197.71369 
L 418.208839 216.416899 
L 418.306967 183.704281 
L 418.404916 189.907164 
L 418.50269 277.780855 
L 418.697709 182.869484 
L 418.794956 191.973629 
L 418.892029 185.08519 
L 418.988928 192.973369 
L 419.085655 243.681204 
L 419.182209 185.488453 
L 419.278592 209.175531 
L 419.374804 206.348162 
L 419.566716 188.670126 
L 419.662418 182.653374 
L 419.757952 190.288757 
L 419.853317 185.335633 
L 419.948515 190.229004 
L 420.138411 186.642737 
L 420.23311 223.62267 
L 420.422014 187.002831 
L 420.516219 179.870875 
L 420.704141 202.149055 
L 420.797858 216.309605 
L 420.984807 180.341954 
L 421.07804 180.876844 
L 421.171114 201.451311 
L 421.264028 195.76486 
L 421.356783 179.954655 
L 421.449379 222.541251 
L 421.541818 203.57767 
L 421.726223 234.594608 
L 421.818192 178.430865 
L 421.910004 189.309767 
L 422.001661 189.766661 
L 422.093164 187.284638 
L 422.184512 217.047965 
L 422.366749 187.200511 
L 422.457637 275.790249 
L 422.548374 188.702765 
L 422.63896 222.403852 
L 422.729394 206.401517 
L 422.909811 245.917013 
L 422.999794 199.598114 
L 423.179315 223.136883 
L 423.268853 195.66046 
L 423.358244 198.767186 
L 423.447487 250.636163 
L 423.625534 187.666572 
L 423.714338 205.450859 
L 423.802998 194.403892 
L 423.891513 278.849575 
L 424.06811 177.585842 
L 424.156193 257.036441 
L 424.331931 185.672107 
L 424.507102 201.942753 
L 424.681708 192.465946 
L 424.855754 199.144594 
L 425.11578 183.515176 
L 425.202179 213.165786 
L 425.374564 186.370196 
L 425.460552 303.428976 
L 425.632119 202.500261 
L 425.7177 195.573991 
L 425.888457 201.987004 
L 425.973634 189.707402 
L 426.143588 205.491123 
L 426.228365 192.931247 
L 426.31301 234.047581 
L 426.481905 194.242292 
L 426.650276 211.299723 
L 426.734265 279.39841 
L 426.901855 195.789282 
L 426.985456 204.440075 
L 427.068929 191.915506 
L 427.152272 231.574718 
L 427.235489 197.425955 
L 427.318577 202.469484 
L 427.401538 180.298554 
L 427.649664 202.417673 
L 427.73212 199.937339 
L 427.814452 192.011765 
L 427.896658 211.368136 
L 427.97874 207.825244 
L 428.060698 186.384271 
L 428.142533 226.061293 
L 428.224244 205.376085 
L 428.305832 224.48922 
L 428.387297 194.474294 
L 428.549862 251.002774 
L 428.630962 244.665094 
L 428.792798 184.864102 
L 429.11503 214.349104 
L 429.195289 182.733117 
L 429.27543 211.152575 
L 429.355452 188.808774 
L 429.435357 206.754389 
L 429.515144 202.671741 
L 429.594814 214.022607 
L 429.674366 201.828094 
L 429.753803 230.820491 
L 429.833123 190.89839 
L 429.912327 230.528529 
L 429.991364 328.359688 
M 429.991472 328.359688 
L 430.149248 211.44573 
L 430.227992 325.004758 
L 430.306621 200.360713 
L 430.385137 205.43598 
L 430.46354 200.025064 
L 430.541829 201.219245 
L 430.620005 215.905523 
L 430.698069 197.048807 
L 430.85386 225.037247 
L 430.931588 192.381747 
L 431.009205 326.568008 
L 431.009205 326.568008 
" clip-path="url(#pdaf376663d)" style="fill: none; stroke: #4c72b0; stroke-width: 1.5; stroke-linecap: round"/>
   </g>
   <g id="line2d_2">
    <path d="M 58.16375 278.080062 
L 448.76375 278.080062 
" clip-path="url(#pdaf376663d)" style="fill: none; stroke-dasharray: 5.55,2.4; stroke-dashoffset: 0; stroke: #808080; stroke-width: 1.5"/>
   </g>
   <g id="patch_3">
    <path d="M 58.16375 284.4 
L 58.16375 7.2 
" style="fill: none; stroke: #262626; stroke-width: 1.25; stroke-linejoin: miter; stroke-linecap: square"/>
   </g>
   <g id="patch_4">
    <path d="M 58.16375 284.4 
L 448.76375 284.4 
" style="fill: none; stroke: #262626; stroke-width: 1.25; stroke-linejoin: miter; stroke-linecap: square"/>
   </g>
  </g>
 </g>
 <defs>
  <clipPath id="pdaf376663d">
   <rect x="58.16375" y="7.2" width="390.6" height="277.2"/>
  </clipPath>
 </defs>
</svg>
