<?xml version="1.0" encoding="utf-8" standalone="no"?>
<!DOCTYPE svg PUBLIC "-//W3C//DTD SVG 1.1//EN"
  "http://www.w3.org/Graphics/SVG/1.1/DTD/svg11.dtd">
<svg xmlns:xlink="http://www.w3.org/1999/xlink" width="451.11pt" height="327.359688pt" viewBox="0 0 451.11 327.359688" xmlns="http://www.w3.org/2000/svg" version="1.1">
 <metadata>
  <rdf:RDF xmlns:dc="http://purl.org/dc/elements/1.1/" xmlns:cc="http://creativecommons.org/ns#" xmlns:rdf="http://www.w3.org/1999/02/22-rdf-syntax-ns#">
   <cc:Work>
    <dc:type rdf:resource="http://purl.org/dc/dcmitype/StillImage"/>
    <dc:date>2023-08-15T23:45:14.443965</dc:date>
    <dc:format>image/svg+xml</dc:format>
    <dc:creator>
     <cc:Agent>
      <dc:title>Matplotlib v3.7.2, https://matplotlib.org/</dc:title>
     </cc:Agent>
    </dc:creator>
   </cc:Work>
  </rdf:RDF>
 </metadata>
 <defs>
  <style type="text/css">*{stroke-linejoin: round; stroke-linecap: butt}</style>
 </defs>
 <g id="figure_1">
  <g id="patch_1">
   <path d="M 0 327.359688 
L 451.11 327.359688 
L 451.11 0 
L 0 0 
z
" style="fill: #ffffff"/>
  </g>
  <g id="axes_1">
   <g id="patch_2">
    <path d="M 53.31 284.4 
L 443.91 284.4 
L 443.91 7.2 
L 53.31 7.2 
z
" style="fill: #ffffff"/>
   </g>
   <g id="matplotlib.axis_1">
    <g id="xtick_1">
     <g id="text_1">
      <!-- 0 -->
      <g style="fill: #262626" transform="translate(67.056444 302.258281) scale(0.11 -0.11)">
       <defs>
        <path id="DejaVuSans-30" d="M 2034 4250 
Q 1547 4250 1301 3770 
Q 1056 3291 1056 2328 
Q 1056 1369 1301 889 
Q 1547 409 2034 409 
Q 2525 409 2770 889 
Q 3016 1369 3016 2328 
Q 3016 3291 2770 3770 
Q 2525 4250 2034 4250 
z
M 2034 4750 
Q 2819 4750 3233 4129 
Q 3647 3509 3647 2328 
Q 3647 1150 3233 529 
Q 2819 -91 2034 -91 
Q 1250 -91 836 529 
Q 422 1150 422 2328 
Q 422 3509 836 4129 
Q 1250 4750 2034 4750 
z
" transform="scale(0.015625)"/>
       </defs>
       <use xlink:href="#DejaVuSans-30"/>
      </g>
     </g>
    </g>
    <g id="xtick_2">
     <g id="text_2">
      <!-- 100 -->
      <g style="fill: #262626" transform="translate(110.930317 302.258281) scale(0.11 -0.11)">
       <defs>
        <path id="DejaVuSans-31" d="M 794 531 
L 1825 531 
L 1825 4091 
L 703 3866 
L 703 4441 
L 1819 4666 
L 2450 4666 
L 2450 531 
L 3481 531 
L 3481 0 
L 794 0 
L 794 531 
z
" transform="scale(0.015625)"/>
       </defs>
       <use xlink:href="#DejaVuSans-31"/>
       <use xlink:href="#DejaVuSans-30" x="63.623047"/>
       <use xlink:href="#DejaVuSans-30" x="127.246094"/>
      </g>
     </g>
    </g>
    <g id="xtick_3">
     <g id="text_3">
      <!-- 200 -->
      <g style="fill: #262626" transform="translate(161.80294 302.258281) scale(0.11 -0.11)">
       <defs>
        <path id="DejaVuSans-32" d="M 1228 531 
L 3431 531 
L 3431 0 
L 469 0 
L 469 531 
Q 828 903 1448 1529 
Q 2069 2156 2228 2338 
Q 2531 2678 2651 2914 
Q 2772 3150 2772 3378 
Q 2772 3750 2511 3984 
Q 2250 4219 1831 4219 
Q 1534 4219 1204 4116 
Q 875 4013 500 3803 
L 500 4441 
Q 881 4594 1212 4672 
Q 1544 4750 1819 4750 
Q 2544 4750 2975 4387 
Q 3406 4025 3406 3419 
Q 3406 3131 3298 2873 
Q 3191 2616 2906 2266 
Q 2828 2175 2409 1742 
Q 1991 1309 1228 531 
z
" transform="scale(0.015625)"/>
       </defs>
       <use xlink:href="#DejaVuSans-32"/>
       <use xlink:href="#DejaVuSans-30" x="63.623047"/>
       <use xlink:href="#DejaVuSans-30" x="127.246094"/>
      </g>
     </g>
    </g>
    <g id="xtick_4">
     <g id="text_4">
      <!-- 300 -->
      <g style="fill: #262626" transform="translate(212.675563 302.258281) scale(0.11 -0.11)">
       <defs>
        <path id="DejaVuSans-33" d="M 2597 2516 
Q 3050 2419 3304 2112 
Q 3559 1806 3559 1356 
Q 3559 666 3084 287 
Q 2609 -91 1734 -91 
Q 1441 -91 1130 -33 
Q 819 25 488 141 
L 488 750 
Q 750 597 1062 519 
Q 1375 441 1716 441 
Q 2309 441 2620 675 
Q 2931 909 2931 1356 
Q 2931 1769 2642 2001 
Q 2353 2234 1838 2234 
L 1294 2234 
L 1294 2753 
L 1863 2753 
Q 2328 2753 2575 2939 
Q 2822 3125 2822 3475 
Q 2822 3834 2567 4026 
Q 2313 4219 1838 4219 
Q 1578 4219 1281 4162 
Q 984 4106 628 3988 
L 628 4550 
Q 988 4650 1302 4700 
Q 1616 4750 1894 4750 
Q 2613 4750 3031 4423 
Q 3450 4097 3450 3541 
Q 3450 3153 3228 2886 
Q 3006 2619 2597 2516 
z
" transform="scale(0.015625)"/>
       </defs>
       <use xlink:href="#DejaVuSans-33"/>
       <use xlink:href="#DejaVuSans-30" x="63.623047"/>
       <use xlink:href="#DejaVuSans-30" x="127.246094"/>
      </g>
     </g>
    </g>
    <g id="xtick_5">
     <g id="text_5">
      <!-- 400 -->
      <g style="fill: #262626" transform="translate(263.548187 302.258281) scale(0.11 -0.11)">
       <defs>
        <path id="DejaVuSans-34" d="M 2419 4116 
L 825 1625 
L 2419 1625 
L 2419 4116 
z
M 2253 4666 
L 3047 4666 
L 3047 1625 
L 3713 1625 
L 3713 1100 
L 3047 1100 
L 3047 0 
L 2419 0 
L 2419 1100 
L 313 1100 
L 313 1709 
L 2253 4666 
z
" transform="scale(0.015625)"/>
       </defs>
       <use xlink:href="#DejaVuSans-34"/>
       <use xlink:href="#DejaVuSans-30" x="63.623047"/>
       <use xlink:href="#DejaVuSans-30" x="127.246094"/>
      </g>
     </g>
    </g>
    <g id="xtick_6">
     <g id="text_6">
      <!-- 500 -->
      <g style="fill: #262626" transform="translate(314.42081 302.258281) scale(0.11 -0.11)">
       <defs>
        <path id="DejaVuSans-35" d="M 691 4666 
L 3169 4666 
L 3169 4134 
L 1269 4134 
L 1269 2991 
Q 1406 3038 1543 3061 
Q 1681 3084 1819 3084 
Q 2600 3084 3056 2656 
Q 3513 2228 3513 1497 
Q 3513 744 3044 326 
Q 2575 -91 1722 -91 
Q 1428 -91 1123 -41 
Q 819 9 494 109 
L 494 744 
Q 775 591 1075 516 
Q 1375 441 1709 441 
Q 2250 441 2565 725 
Q 2881 1009 2881 1497 
Q 2881 1984 2565 2268 
Q 2250 2553 1709 2553 
Q 1456 2553 1204 2497 
Q 953 2441 691 2322 
L 691 4666 
z
" transform="scale(0.015625)"/>
       </defs>
       <use xlink:href="#DejaVuSans-35"/>
       <use xlink:href="#DejaVuSans-30" x="63.623047"/>
       <use xlink:href="#DejaVuSans-30" x="127.246094"/>
      </g>
     </g>
    </g>
    <g id="xtick_7">
     <g id="text_7">
      <!-- 600 -->
      <g style="fill: #262626" transform="translate(365.293433 302.258281) scale(0.11 -0.11)">
       <defs>
        <path id="DejaVuSans-36" d="M 2113 2584 
Q 1688 2584 1439 2293 
Q 1191 2003 1191 1497 
Q 1191 994 1439 701 
Q 1688 409 2113 409 
Q 2538 409 2786 701 
Q 3034 994 3034 1497 
Q 3034 2003 2786 2293 
Q 2538 2584 2113 2584 
z
M 3366 4563 
L 3366 3988 
Q 3128 4100 2886 4159 
Q 2644 4219 2406 4219 
Q 1781 4219 1451 3797 
Q 1122 3375 1075 2522 
Q 1259 2794 1537 2939 
Q 1816 3084 2150 3084 
Q 2853 3084 3261 2657 
Q 3669 2231 3669 1497 
Q 3669 778 3244 343 
Q 2819 -91 2113 -91 
Q 1303 -91 875 529 
Q 447 1150 447 2328 
Q 447 3434 972 4092 
Q 1497 4750 2381 4750 
Q 2619 4750 2861 4703 
Q 3103 4656 3366 4563 
z
" transform="scale(0.015625)"/>
       </defs>
       <use xlink:href="#DejaVuSans-36"/>
       <use xlink:href="#DejaVuSans-30" x="63.623047"/>
       <use xlink:href="#DejaVuSans-30" x="127.246094"/>
      </g>
     </g>
    </g>
    <g id="xtick_8">
     <g id="text_8">
      <!-- 700 -->
      <g style="fill: #262626" transform="translate(416.166056 302.258281) scale(0.11 -0.11)">
       <defs>
        <path id="DejaVuSans-37" d="M 525 4666 
L 3525 4666 
L 3525 4397 
L 1831 0 
L 1172 0 
L 2766 4134 
L 525 4134 
L 525 4666 
z
" transform="scale(0.015625)"/>
       </defs>
       <use xlink:href="#DejaVuSans-37"/>
       <use xlink:href="#DejaVuSans-30" x="63.623047"/>
       <use xlink:href="#DejaVuSans-30" x="127.246094"/>
      </g>
     </g>
    </g>
    <g id="text_9">
     <!-- rank -->
     <g style="fill: #262626" transform="translate(235.189688 317.664062) scale(0.12 -0.12)">
      <defs>
       <path id="DejaVuSans-72" d="M 2631 2963 
Q 2534 3019 2420 3045 
Q 2306 3072 2169 3072 
Q 1681 3072 1420 2755 
Q 1159 2438 1159 1844 
L 1159 0 
L 581 0 
L 581 3500 
L 1159 3500 
L 1159 2956 
Q 1341 3275 1631 3429 
Q 1922 3584 2338 3584 
Q 2397 3584 2469 3576 
Q 2541 3569 2628 3553 
L 2631 2963 
z
" transform="scale(0.015625)"/>
       <path id="DejaVuSans-61" d="M 2194 1759 
Q 1497 1759 1228 1600 
Q 959 1441 959 1056 
Q 959 750 1161 570 
Q 1363 391 1709 391 
Q 2188 391 2477 730 
Q 2766 1069 2766 1631 
L 2766 1759 
L 2194 1759 
z
M 3341 1997 
L 3341 0 
L 2766 0 
L 2766 531 
Q 2569 213 2275 61 
Q 1981 -91 1556 -91 
Q 1019 -91 701 211 
Q 384 513 384 1019 
Q 384 1609 779 1909 
Q 1175 2209 1959 2209 
L 2766 2209 
L 2766 2266 
Q 2766 2663 2505 2880 
Q 2244 3097 1772 3097 
Q 1472 3097 1187 3025 
Q 903 2953 641 2809 
L 641 3341 
Q 956 3463 1253 3523 
Q 1550 3584 1831 3584 
Q 2591 3584 2966 3190 
Q 3341 2797 3341 1997 
z
" transform="scale(0.015625)"/>
       <path id="DejaVuSans-6e" d="M 3513 2113 
L 3513 0 
L 2938 0 
L 2938 2094 
Q 2938 2591 2744 2837 
Q 2550 3084 2163 3084 
Q 1697 3084 1428 2787 
Q 1159 2491 1159 1978 
L 1159 0 
L 581 0 
L 581 3500 
L 1159 3500 
L 1159 2956 
Q 1366 3272 1645 3428 
Q 1925 3584 2291 3584 
Q 2894 3584 3203 3211 
Q 3513 2838 3513 2113 
z
" transform="scale(0.015625)"/>
       <path id="DejaVuSans-6b" d="M 581 4863 
L 1159 4863 
L 1159 1991 
L 2875 3500 
L 3609 3500 
L 1753 1863 
L 3688 0 
L 2938 0 
L 1159 1709 
L 1159 0 
L 581 0 
L 581 4863 
z
" transform="scale(0.015625)"/>
      </defs>
      <use xlink:href="#DejaVuSans-72"/>
      <use xlink:href="#DejaVuSans-61" x="41.113281"/>
      <use xlink:href="#DejaVuSans-6e" x="102.392578"/>
      <use xlink:href="#DejaVuSans-6b" x="165.771484"/>
     </g>
    </g>
   </g>
   <g id="matplotlib.axis_2">
    <g id="ytick_1">
     <g id="text_10">
      <!-- 0 -->
      <g style="fill: #262626" transform="translate(36.81125 275.937791) scale(0.11 -0.11)">
       <use xlink:href="#DejaVuSans-30"/>
      </g>
     </g>
    </g>
    <g id="ytick_2">
     <g id="text_11">
      <!-- 100 -->
      <g style="fill: #262626" transform="translate(22.81375 216.879824) scale(0.11 -0.11)">
       <use xlink:href="#DejaVuSans-31"/>
       <use xlink:href="#DejaVuSans-30" x="63.623047"/>
       <use xlink:href="#DejaVuSans-30" x="127.246094"/>
      </g>
     </g>
    </g>
    <g id="ytick_3">
     <g id="text_12">
      <!-- 200 -->
      <g style="fill: #262626" transform="translate(22.81375 157.821856) scale(0.11 -0.11)">
       <use xlink:href="#DejaVuSans-32"/>
       <use xlink:href="#DejaVuSans-30" x="63.623047"/>
       <use xlink:href="#DejaVuSans-30" x="127.246094"/>
      </g>
     </g>
    </g>
    <g id="ytick_4">
     <g id="text_13">
      <!-- 300 -->
      <g style="fill: #262626" transform="translate(22.81375 98.763889) scale(0.11 -0.11)">
       <use xlink:href="#DejaVuSans-33"/>
       <use xlink:href="#DejaVuSans-30" x="63.623047"/>
       <use xlink:href="#DejaVuSans-30" x="127.246094"/>
      </g>
     </g>
    </g>
    <g id="ytick_5">
     <g id="text_14">
      <!-- 400 -->
      <g style="fill: #262626" transform="translate(22.81375 39.705921) scale(0.11 -0.11)">
       <use xlink:href="#DejaVuSans-34"/>
       <use xlink:href="#DejaVuSans-30" x="63.623047"/>
       <use xlink:href="#DejaVuSans-30" x="127.246094"/>
      </g>
     </g>
    </g>
    <g id="text_15">
     <!-- cross-validated eigenvalue -->
     <g style="fill: #262626" transform="translate(16.318125 226.219687) rotate(-90) scale(0.12 -0.12)">
      <defs>
       <path id="DejaVuSans-63" d="M 3122 3366 
L 3122 2828 
Q 2878 2963 2633 3030 
Q 2388 3097 2138 3097 
Q 1578 3097 1268 2742 
Q 959 2388 959 1747 
Q 959 1106 1268 751 
Q 1578 397 2138 397 
Q 2388 397 2633 464 
Q 2878 531 3122 666 
L 3122 134 
Q 2881 22 2623 -34 
Q 2366 -91 2075 -91 
Q 1284 -91 818 406 
Q 353 903 353 1747 
Q 353 2603 823 3093 
Q 1294 3584 2113 3584 
Q 2378 3584 2631 3529 
Q 2884 3475 3122 3366 
z
" transform="scale(0.015625)"/>
       <path id="DejaVuSans-6f" d="M 1959 3097 
Q 1497 3097 1228 2736 
Q 959 2375 959 1747 
Q 959 1119 1226 758 
Q 1494 397 1959 397 
Q 2419 397 2687 759 
Q 2956 1122 2956 1747 
Q 2956 2369 2687 2733 
Q 2419 3097 1959 3097 
z
M 1959 3584 
Q 2709 3584 3137 3096 
Q 3566 2609 3566 1747 
Q 3566 888 3137 398 
Q 2709 -91 1959 -91 
Q 1206 -91 779 398 
Q 353 888 353 1747 
Q 353 2609 779 3096 
Q 1206 3584 1959 3584 
z
" transform="scale(0.015625)"/>
       <path id="DejaVuSans-73" d="M 2834 3397 
L 2834 2853 
Q 2591 2978 2328 3040 
Q 2066 3103 1784 3103 
Q 1356 3103 1142 2972 
Q 928 2841 928 2578 
Q 928 2378 1081 2264 
Q 1234 2150 1697 2047 
L 1894 2003 
Q 2506 1872 2764 1633 
Q 3022 1394 3022 966 
Q 3022 478 2636 193 
Q 2250 -91 1575 -91 
Q 1294 -91 989 -36 
Q 684 19 347 128 
L 347 722 
Q 666 556 975 473 
Q 1284 391 1588 391 
Q 1994 391 2212 530 
Q 2431 669 2431 922 
Q 2431 1156 2273 1281 
Q 2116 1406 1581 1522 
L 1381 1569 
Q 847 1681 609 1914 
Q 372 2147 372 2553 
Q 372 3047 722 3315 
Q 1072 3584 1716 3584 
Q 2034 3584 2315 3537 
Q 2597 3491 2834 3397 
z
" transform="scale(0.015625)"/>
       <path id="DejaVuSans-2d" d="M 313 2009 
L 1997 2009 
L 1997 1497 
L 313 1497 
L 313 2009 
z
" transform="scale(0.015625)"/>
       <path id="DejaVuSans-76" d="M 191 3500 
L 800 3500 
L 1894 563 
L 2988 3500 
L 3597 3500 
L 2284 0 
L 1503 0 
L 191 3500 
z
" transform="scale(0.015625)"/>
       <path id="DejaVuSans-6c" d="M 603 4863 
L 1178 4863 
L 1178 0 
L 603 0 
L 603 4863 
z
" transform="scale(0.015625)"/>
       <path id="DejaVuSans-69" d="M 603 3500 
L 1178 3500 
L 1178 0 
L 603 0 
L 603 3500 
z
M 603 4863 
L 1178 4863 
L 1178 4134 
L 603 4134 
L 603 4863 
z
" transform="scale(0.015625)"/>
       <path id="DejaVuSans-64" d="M 2906 2969 
L 2906 4863 
L 3481 4863 
L 3481 0 
L 2906 0 
L 2906 525 
Q 2725 213 2448 61 
Q 2172 -91 1784 -91 
Q 1150 -91 751 415 
Q 353 922 353 1747 
Q 353 2572 751 3078 
Q 1150 3584 1784 3584 
Q 2172 3584 2448 3432 
Q 2725 3281 2906 2969 
z
M 947 1747 
Q 947 1113 1208 752 
Q 1469 391 1925 391 
Q 2381 391 2643 752 
Q 2906 1113 2906 1747 
Q 2906 2381 2643 2742 
Q 2381 3103 1925 3103 
Q 1469 3103 1208 2742 
Q 947 2381 947 1747 
z
" transform="scale(0.015625)"/>
       <path id="DejaVuSans-74" d="M 1172 4494 
L 1172 3500 
L 2356 3500 
L 2356 3053 
L 1172 3053 
L 1172 1153 
Q 1172 725 1289 603 
Q 1406 481 1766 481 
L 2356 481 
L 2356 0 
L 1766 0 
Q 1100 0 847 248 
Q 594 497 594 1153 
L 594 3053 
L 172 3053 
L 172 3500 
L 594 3500 
L 594 4494 
L 1172 4494 
z
" transform="scale(0.015625)"/>
       <path id="DejaVuSans-65" d="M 3597 1894 
L 3597 1613 
L 953 1613 
Q 991 1019 1311 708 
Q 1631 397 2203 397 
Q 2534 397 2845 478 
Q 3156 559 3463 722 
L 3463 178 
Q 3153 47 2828 -22 
Q 2503 -91 2169 -91 
Q 1331 -91 842 396 
Q 353 884 353 1716 
Q 353 2575 817 3079 
Q 1281 3584 2069 3584 
Q 2775 3584 3186 3129 
Q 3597 2675 3597 1894 
z
M 3022 2063 
Q 3016 2534 2758 2815 
Q 2500 3097 2075 3097 
Q 1594 3097 1305 2825 
Q 1016 2553 972 2059 
L 3022 2063 
z
" transform="scale(0.015625)"/>
       <path id="DejaVuSans-20" transform="scale(0.015625)"/>
       <path id="DejaVuSans-67" d="M 2906 1791 
Q 2906 2416 2648 2759 
Q 2391 3103 1925 3103 
Q 1463 3103 1205 2759 
Q 947 2416 947 1791 
Q 947 1169 1205 825 
Q 1463 481 1925 481 
Q 2391 481 2648 825 
Q 2906 1169 2906 1791 
z
M 3481 434 
Q 3481 -459 3084 -895 
Q 2688 -1331 1869 -1331 
Q 1566 -1331 1297 -1286 
Q 1028 -1241 775 -1147 
L 775 -588 
Q 1028 -725 1275 -790 
Q 1522 -856 1778 -856 
Q 2344 -856 2625 -561 
Q 2906 -266 2906 331 
L 2906 616 
Q 2728 306 2450 153 
Q 2172 0 1784 0 
Q 1141 0 747 490 
Q 353 981 353 1791 
Q 353 2603 747 3093 
Q 1141 3584 1784 3584 
Q 2172 3584 2450 3431 
Q 2728 3278 2906 2969 
L 2906 3500 
L 3481 3500 
L 3481 434 
z
" transform="scale(0.015625)"/>
       <path id="DejaVuSans-75" d="M 544 1381 
L 544 3500 
L 1119 3500 
L 1119 1403 
Q 1119 906 1312 657 
Q 1506 409 1894 409 
Q 2359 409 2629 706 
Q 2900 1003 2900 1516 
L 2900 3500 
L 3475 3500 
L 3475 0 
L 2900 0 
L 2900 538 
Q 2691 219 2414 64 
Q 2138 -91 1772 -91 
Q 1169 -91 856 284 
Q 544 659 544 1381 
z
M 1991 3584 
L 1991 3584 
z
" transform="scale(0.015625)"/>
      </defs>
      <use xlink:href="#DejaVuSans-63"/>
      <use xlink:href="#DejaVuSans-72" x="54.980469"/>
      <use xlink:href="#DejaVuSans-6f" x="93.84375"/>
      <use xlink:href="#DejaVuSans-73" x="155.025391"/>
      <use xlink:href="#DejaVuSans-73" x="207.125"/>
      <use xlink:href="#DejaVuSans-2d" x="259.224609"/>
      <use xlink:href="#DejaVuSans-76" x="292.683594"/>
      <use xlink:href="#DejaVuSans-61" x="351.863281"/>
      <use xlink:href="#DejaVuSans-6c" x="413.142578"/>
      <use xlink:href="#DejaVuSans-69" x="440.925781"/>
      <use xlink:href="#DejaVuSans-64" x="468.708984"/>
      <use xlink:href="#DejaVuSans-61" x="532.185547"/>
      <use xlink:href="#DejaVuSans-74" x="593.464844"/>
      <use xlink:href="#DejaVuSans-65" x="632.673828"/>
      <use xlink:href="#DejaVuSans-64" x="694.197266"/>
      <use xlink:href="#DejaVuSans-20" x="757.673828"/>
      <use xlink:href="#DejaVuSans-65" x="789.460938"/>
      <use xlink:href="#DejaVuSans-69" x="850.984375"/>
      <use xlink:href="#DejaVuSans-67" x="878.767578"/>
      <use xlink:href="#DejaVuSans-65" x="942.244141"/>
      <use xlink:href="#DejaVuSans-6e" x="1003.767578"/>
      <use xlink:href="#DejaVuSans-76" x="1067.146484"/>
      <use xlink:href="#DejaVuSans-61" x="1126.326172"/>
      <use xlink:href="#DejaVuSans-6c" x="1187.605469"/>
      <use xlink:href="#DejaVuSans-75" x="1215.388672"/>
      <use xlink:href="#DejaVuSans-65" x="1278.767578"/>
     </g>
    </g>
   </g>
   <g id="PolyCollection_1"/>
   <g id="line2d_1">
    <path d="M 71.064545 111.166592 
L 71.573272 19.8 
L 72.081998 184.21289 
L 72.590724 190.702802 
L 73.09945 238.267855 
L 73.608177 203.340782 
L 74.116903 249.823145 
L 74.625629 249.51588 
L 75.134355 241.098346 
L 75.643082 263.466845 
L 76.151808 249.138221 
L 76.660534 240.450239 
L 77.677986 251.698382 
L 78.186713 242.323269 
L 78.695439 265.361188 
L 79.204165 257.976815 
L 79.712891 265.589253 
L 80.221618 266.516874 
L 80.730344 261.051702 
L 81.747796 265.682216 
L 82.256523 260.875398 
L 82.765249 262.764253 
L 83.273975 263.484164 
L 83.782701 262.19441 
L 84.291427 267.850304 
L 84.800154 266.360176 
L 85.30888 263.907508 
L 85.817606 263.853518 
L 86.326332 267.35451 
L 87.343785 264.99857 
L 87.852511 265.814999 
L 88.361237 268.257939 
L 88.869964 265.738966 
L 89.37869 266.773669 
L 89.887416 265.903562 
L 90.904868 266.605456 
L 91.413595 268.446357 
L 91.922321 267.498044 
L 92.431047 268.777263 
L 92.939773 269.62759 
L 93.4485 267.731214 
L 93.957226 267.40293 
L 94.465952 268.498722 
L 94.974678 268.319045 
L 95.483405 267.672031 
L 95.992131 267.694983 
L 96.500857 268.965131 
L 97.009583 268.368483 
L 97.518309 268.653449 
L 98.027036 267.733495 
L 98.535762 268.758851 
L 99.044488 270.83476 
L 99.553214 268.93356 
L 100.061941 269.309719 
L 100.570667 270.340033 
L 101.079393 268.021115 
L 101.588119 270.226719 
L 102.096846 270.019319 
L 102.605572 269.935548 
L 103.114298 268.55224 
L 103.623024 270.458814 
L 104.640477 269.814527 
L 105.657929 269.760862 
L 106.166655 270.127823 
L 106.675382 269.590211 
L 107.184108 271.233893 
L 107.692834 270.253532 
L 108.20156 269.686948 
L 108.710287 269.764507 
L 109.219013 270.407548 
L 109.727739 270.348631 
L 110.236465 270.033803 
L 110.745191 270.615733 
L 111.253918 269.899959 
L 111.762644 270.256087 
L 112.27137 270.157227 
L 112.780096 269.809372 
L 113.288823 269.673752 
L 113.797549 269.852116 
L 114.306275 269.739744 
L 114.815001 270.508242 
L 115.323728 270.108158 
L 115.832454 270.542074 
L 116.34118 270.05146 
L 116.849906 269.848311 
L 117.358632 270.092694 
L 117.867359 270.551339 
L 118.884811 269.832881 
L 119.393537 270.466753 
L 119.902264 270.71866 
L 120.41099 269.95767 
L 120.919716 270.297565 
L 121.428442 270.449353 
L 121.937169 270.760813 
L 122.445895 270.496469 
L 122.954621 270.38647 
L 123.463347 271.065696 
L 123.972073 270.44436 
L 124.4808 270.4227 
L 124.989526 270.184474 
L 125.498252 270.431406 
L 126.006978 270.369797 
L 126.515705 270.471033 
L 127.024431 270.79073 
L 127.533157 271.331772 
L 128.041883 270.778039 
L 128.55061 270.610835 
L 129.059336 270.277526 
L 129.568062 270.397351 
L 130.076788 270.970039 
L 130.585514 270.49087 
L 131.094241 271.12094 
L 131.602967 270.667653 
L 132.620419 270.901391 
L 133.637872 270.606045 
L 134.146598 270.806106 
L 134.655324 270.443612 
L 135.164051 271.067068 
L 135.672777 270.584997 
L 136.181503 271.163405 
L 137.198955 271.30646 
L 137.707682 270.653658 
L 138.725134 270.993084 
L 139.23386 270.843586 
L 140.251313 271.031031 
L 140.760039 270.519479 
L 141.268765 270.878615 
L 141.777492 270.843179 
L 142.286218 270.960436 
L 143.30367 270.934682 
L 143.812396 271.016198 
L 144.321123 270.785542 
L 144.829849 270.745745 
L 145.338575 271.177751 
L 145.847301 270.93354 
L 146.356028 271.295529 
L 146.864754 271.406787 
L 148.390933 270.915577 
L 149.408385 270.989147 
L 150.425837 271.266073 
L 150.934564 271.216733 
L 151.44329 271.362575 
L 151.952016 270.913826 
L 152.460742 271.210622 
L 152.969469 271.132128 
L 153.478195 270.864938 
L 153.986921 271.014438 
L 155.004374 270.954755 
L 155.5131 271.326151 
L 156.021826 271.036094 
L 157.039278 270.983473 
L 157.548005 271.315707 
L 158.056731 271.040715 
L 159.58291 271.094988 
L 160.091636 271.315532 
L 161.109088 271.149338 
L 161.617815 271.119561 
L 162.126541 271.274446 
L 162.635267 271.112178 
L 163.143993 271.296536 
L 163.652719 271.298853 
L 164.161446 271.424227 
L 165.178898 271.102059 
L 165.687624 271.363573 
L 166.196351 271.140995 
L 166.705077 271.102712 
L 167.213803 271.325736 
L 167.722529 271.402598 
L 168.231256 270.941973 
L 168.739982 271.194066 
L 169.248708 270.972063 
L 169.757434 271.349619 
L 170.26616 271.178886 
L 170.774887 271.184639 
L 171.283613 271.341795 
L 171.792339 271.064473 
L 172.301065 271.008318 
L 172.809792 271.208843 
L 173.318518 271.146836 
L 174.844697 271.534224 
L 175.353423 271.282432 
L 175.862149 271.323734 
L 176.370875 271.492178 
L 176.879601 271.294794 
L 177.388328 271.384841 
L 177.897054 271.252496 
L 178.914506 271.369513 
L 179.423233 271.046269 
L 179.931959 271.02141 
L 180.440685 271.360788 
L 181.458138 271.344175 
L 182.47559 271.332358 
L 182.984316 271.508351 
L 184.001769 271.199718 
L 185.019221 271.444839 
L 185.527947 271.339434 
L 186.036674 271.595546 
L 186.5454 271.275856 
L 187.054126 271.370385 
L 187.562852 271.321933 
L 188.580305 271.385618 
L 190.61521 271.395271 
L 191.123936 271.161957 
L 192.650115 271.316332 
L 193.667567 271.724863 
L 194.68502 271.271061 
L 195.193746 271.425216 
L 195.702472 271.26977 
L 196.719924 271.498648 
L 197.228651 271.279012 
L 197.737377 271.398037 
L 199.263556 271.358312 
L 199.772282 271.548465 
L 202.315913 271.234026 
L 202.824639 271.535877 
L 203.842092 271.289091 
L 208.929354 271.364231 
L 210.455533 271.297674 
L 210.964259 271.557997 
L 211.472985 271.459258 
L 211.981711 271.557957 
L 212.490438 271.383718 
L 212.999164 271.567887 
L 213.50789 271.238112 
L 214.016616 271.424641 
L 214.525343 271.262685 
L 216.560247 271.425953 
L 217.068974 271.346597 
L 217.5777 271.603294 
L 218.086426 271.42809 
L 218.595152 271.546655 
L 219.103879 271.388933 
L 219.612605 271.499866 
L 220.121331 271.277293 
L 221.138784 271.495369 
L 221.64751 271.220107 
L 222.156236 271.503048 
L 222.664962 271.583451 
L 223.173688 271.394978 
L 223.682415 271.53375 
L 224.699867 271.284324 
L 225.71732 271.449163 
L 226.226046 271.453657 
L 226.734772 271.620827 
L 227.243498 271.390107 
L 228.260951 271.34249 
L 228.769677 271.501384 
L 229.787129 271.408322 
L 230.295856 271.287998 
L 231.313308 271.723098 
L 231.822034 271.355313 
L 233.348213 271.526921 
L 236.909297 271.516313 
L 237.418023 271.584846 
L 237.926749 271.363932 
L 238.435475 271.641238 
L 239.452928 271.271057 
L 239.961654 271.468277 
L 242.505285 271.497516 
L 243.014011 271.608955 
L 243.522738 271.402135 
L 245.557643 271.646442 
L 246.066369 271.434031 
L 246.575095 271.598936 
L 247.083821 271.522788 
L 247.592548 271.6368 
L 248.101274 271.339066 
L 248.61 271.523799 
L 250.644905 271.475283 
L 251.153631 271.792656 
L 251.662357 271.56189 
L 252.171084 271.547948 
L 252.67981 271.646183 
L 255.223441 271.473861 
L 256.74962 271.516416 
L 257.258346 271.417373 
L 258.275798 271.65145 
L 258.784525 271.450232 
L 259.801977 271.552363 
L 260.310703 271.725966 
L 260.81943 271.534835 
L 261.328156 271.557856 
L 261.836882 271.375331 
L 262.854334 271.460437 
L 263.363061 271.425371 
L 263.871787 271.669496 
L 264.380513 271.418903 
L 266.415418 271.693674 
L 267.432871 271.52798 
L 267.941597 271.727906 
L 268.450323 271.458682 
L 268.959049 271.59926 
L 270.993954 271.472372 
L 271.50268 271.575714 
L 273.028859 271.476085 
L 278.116121 271.628592 
L 278.624848 271.464509 
L 279.133574 271.587681 
L 280.151026 271.417559 
L 280.659753 271.623401 
L 281.168479 271.468394 
L 281.677205 271.577748 
L 282.185931 271.559133 
L 283.203384 271.741535 
L 283.71211 271.578942 
L 284.729562 271.486879 
L 285.238289 271.422217 
L 287.273194 271.610183 
L 289.308098 271.478465 
L 289.816825 271.664315 
L 290.325551 271.563769 
L 291.85173 271.718075 
L 292.360456 271.440799 
L 292.869182 271.493723 
L 293.377908 271.343709 
L 293.886635 271.58555 
L 294.904087 271.529822 
L 295.412813 271.759247 
L 296.430266 271.457703 
L 296.938992 271.638494 
L 297.447718 271.517382 
L 297.956444 271.685732 
L 298.465171 271.592013 
L 300.500076 271.599982 
L 301.008802 271.432151 
L 302.026254 271.554633 
L 303.552433 271.487198 
L 304.061159 271.635962 
L 304.569885 271.572603 
L 305.078612 271.723592 
L 305.587338 271.574358 
L 306.096064 271.637043 
L 306.60479 271.541697 
L 307.113517 271.600052 
L 307.622243 271.523828 
L 308.639695 271.594874 
L 310.6746 271.484684 
L 311.692053 271.507202 
L 312.200779 271.48481 
L 312.709505 271.606572 
L 313.218231 271.439404 
L 313.726958 271.566257 
L 314.235684 271.355536 
L 314.74441 271.70242 
L 315.253136 271.707495 
L 315.761862 271.440823 
L 316.270589 271.673227 
L 316.779315 271.472344 
L 317.288041 271.684011 
L 317.796767 271.650314 
L 318.305494 271.486812 
L 318.81422 271.618721 
L 319.322946 271.550855 
L 319.831672 271.734443 
L 321.866577 271.641182 
L 322.88403 271.637992 
L 323.392756 271.506375 
L 323.901482 271.641119 
L 324.918935 271.61689 
L 328.988744 271.668947 
L 329.497471 271.556808 
L 330.514923 271.711307 
L 332.041102 271.575269 
L 334.076007 271.680416 
L 334.584733 271.492884 
L 335.093459 271.64878 
L 337.63709 271.595558 
L 338.145817 271.612148 
L 338.654543 271.756692 
L 339.163269 271.593144 
L 339.671995 271.586647 
L 340.180722 271.696666 
L 340.689448 271.588606 
L 342.215626 271.659621 
L 342.724353 271.587017 
L 343.741805 271.672576 
L 344.250531 271.61955 
L 344.759258 271.8 
L 345.267984 271.585841 
L 346.794163 271.720601 
L 347.302889 271.593986 
L 350.863972 271.640321 
L 351.372699 271.703153 
L 351.881425 271.550013 
L 352.390151 271.596343 
L 352.898877 271.758371 
L 353.407604 271.589555 
L 353.91633 271.542842 
L 354.425056 271.609368 
L 355.442508 271.615289 
L 355.951235 271.740245 
L 356.459961 271.564551 
L 356.968687 271.684249 
L 361.547223 271.573412 
L 362.055949 271.717194 
L 363.073402 271.576093 
L 363.582128 271.514988 
L 365.108307 271.702912 
L 366.125759 271.519591 
L 366.634486 271.524712 
L 367.143212 271.656936 
L 368.160664 271.515813 
L 368.66939 271.715339 
L 369.686843 271.708468 
L 370.195569 271.732062 
L 370.704295 271.500362 
L 371.721748 271.595417 
L 372.230474 271.578163 
L 372.7392 271.704553 
L 373.756653 271.577548 
L 374.265379 271.756511 
L 374.774105 271.588233 
L 375.282831 271.715098 
L 376.300284 271.727292 
L 378.335189 271.716371 
L 379.352641 271.645261 
L 379.861368 271.744762 
L 380.87882 271.580932 
L 381.387546 271.672141 
L 381.896272 271.623355 
L 382.404999 271.759369 
L 382.913725 271.702669 
L 383.422451 271.491374 
L 383.931177 271.747932 
L 384.439904 271.714821 
L 384.94863 271.565988 
L 385.966082 271.65894 
L 389.527166 271.54841 
L 390.035892 271.695347 
L 391.053345 271.571357 
L 391.562071 271.77141 
L 393.08825 271.629614 
L 395.631881 271.672282 
L 396.140607 271.615044 
L 396.649333 271.731467 
L 397.666786 271.622467 
L 399.192964 271.759882 
L 399.701691 271.631838 
L 409.876215 271.715173 
L 410.893668 271.740964 
L 412.419846 271.61918 
L 413.437299 271.671995 
L 413.946025 271.698308 
L 414.454751 271.541647 
L 414.963477 271.689972 
L 415.472204 271.588963 
L 416.489656 271.661839 
L 418.015835 271.727673 
L 418.524561 271.602727 
L 419.542014 271.793746 
L 420.559466 271.690782 
L 421.068192 271.78921 
L 421.576918 271.652345 
L 423.611823 271.701992 
L 424.12055 271.637093 
L 425.138002 271.719502 
L 425.646728 271.611814 
L 426.155455 271.791207 
L 426.155455 271.791207 
" clip-path="url(#p0b5bdb7592)" style="fill: none; stroke: #4c72b0; stroke-width: 1.5; stroke-linecap: round"/>
   </g>
   <g id="patch_3">
    <path d="M 53.31 284.4 
L 53.31 7.2 
" style="fill: none; stroke: #262626; stroke-width: 1.25; stroke-linejoin: miter; stroke-linecap: square"/>
   </g>
   <g id="patch_4">
    <path d="M 53.31 284.4 
L 443.91 284.4 
" style="fill: none; stroke: #262626; stroke-width: 1.25; stroke-linejoin: miter; stroke-linecap: square"/>
   </g>
  </g>
 </g>
 <defs>
  <clipPath id="p0b5bdb7592">
   <rect x="53.31" y="7.2" width="390.6" height="277.2"/>
  </clipPath>
 </defs>
</svg>
