<?xml version="1.0" encoding="utf-8" standalone="no"?>
<!DOCTYPE svg PUBLIC "-//W3C//DTD SVG 1.1//EN"
  "http://www.w3.org/Graphics/SVG/1.1/DTD/svg11.dtd">
<svg xmlns:xlink="http://www.w3.org/1999/xlink" width="475.96375pt" height="347.359688pt" viewBox="0 0 475.96375 347.359688" xmlns="http://www.w3.org/2000/svg" version="1.1">
 <metadata>
  <rdf:RDF xmlns:dc="http://purl.org/dc/elements/1.1/" xmlns:cc="http://creativecommons.org/ns#" xmlns:rdf="http://www.w3.org/1999/02/22-rdf-syntax-ns#">
   <cc:Work>
    <dc:type rdf:resource="http://purl.org/dc/dcmitype/StillImage"/>
    <dc:date>2023-08-17T14:11:20.811758</dc:date>
    <dc:format>image/svg+xml</dc:format>
    <dc:creator>
     <cc:Agent>
      <dc:title>Matplotlib v3.7.2, https://matplotlib.org/</dc:title>
     </cc:Agent>
    </dc:creator>
   </cc:Work>
  </rdf:RDF>
 </metadata>
 <defs>
  <style type="text/css">*{stroke-linejoin: round; stroke-linecap: butt}</style>
 </defs>
 <g id="figure_1">
  <g id="patch_1">
   <path d="M -0 347.359688 
L 475.96375 347.359688 
L 475.96375 0 
L -0 0 
z
" style="fill: #ffffff"/>
  </g>
  <g id="axes_1">
   <g id="patch_2">
    <path d="M 78.16375 284.4 
L 468.76375 284.4 
L 468.76375 7.2 
L 78.16375 7.2 
z
" style="fill: #ffffff"/>
   </g>
   <g id="matplotlib.axis_1">
    <g id="xtick_1">
     <g id="text_1">
      <!-- $\mathdefault{10^{0}}$ -->
      <g style="fill: #262626" transform="translate(68.48375 322.258281) scale(0.11 -0.11)">
       <defs>
        <path id="DejaVuSans-31" d="M 794 531 
L 1825 531 
L 1825 4091 
L 703 3866 
L 703 4441 
L 1819 4666 
L 2450 4666 
L 2450 531 
L 3481 531 
L 3481 0 
L 794 0 
L 794 531 
z
" transform="scale(0.015625)"/>
        <path id="DejaVuSans-30" d="M 2034 4250 
Q 1547 4250 1301 3770 
Q 1056 3291 1056 2328 
Q 1056 1369 1301 889 
Q 1547 409 2034 409 
Q 2525 409 2770 889 
Q 3016 1369 3016 2328 
Q 3016 3291 2770 3770 
Q 2525 4250 2034 4250 
z
M 2034 4750 
Q 2819 4750 3233 4129 
Q 3647 3509 3647 2328 
Q 3647 1150 3233 529 
Q 2819 -91 2034 -91 
Q 1250 -91 836 529 
Q 422 1150 422 2328 
Q 422 3509 836 4129 
Q 1250 4750 2034 4750 
z
" transform="scale(0.015625)"/>
       </defs>
       <use xlink:href="#DejaVuSans-31" transform="translate(0 0.765625)"/>
       <use xlink:href="#DejaVuSans-30" transform="translate(63.623047 0.765625)"/>
       <use xlink:href="#DejaVuSans-30" transform="translate(128.203125 39.046875) scale(0.7)"/>
      </g>
     </g>
    </g>
    <g id="xtick_2">
     <g id="text_2">
      <!-- $\mathdefault{10^{1}}$ -->
      <g style="fill: #262626" transform="translate(204.788528 322.258281) scale(0.11 -0.11)">
       <use xlink:href="#DejaVuSans-31" transform="translate(0 0.684375)"/>
       <use xlink:href="#DejaVuSans-30" transform="translate(63.623047 0.684375)"/>
       <use xlink:href="#DejaVuSans-31" transform="translate(128.203125 38.965625) scale(0.7)"/>
      </g>
     </g>
    </g>
    <g id="xtick_3">
     <g id="text_3">
      <!-- $\mathdefault{10^{2}}$ -->
      <g style="fill: #262626" transform="translate(341.093306 322.258281) scale(0.11 -0.11)">
       <defs>
        <path id="DejaVuSans-32" d="M 1228 531 
L 3431 531 
L 3431 0 
L 469 0 
L 469 531 
Q 828 903 1448 1529 
Q 2069 2156 2228 2338 
Q 2531 2678 2651 2914 
Q 2772 3150 2772 3378 
Q 2772 3750 2511 3984 
Q 2250 4219 1831 4219 
Q 1534 4219 1204 4116 
Q 875 4013 500 3803 
L 500 4441 
Q 881 4594 1212 4672 
Q 1544 4750 1819 4750 
Q 2544 4750 2975 4387 
Q 3406 4025 3406 3419 
Q 3406 3131 3298 2873 
Q 3191 2616 2906 2266 
Q 2828 2175 2409 1742 
Q 1991 1309 1228 531 
z
" transform="scale(0.015625)"/>
       </defs>
       <use xlink:href="#DejaVuSans-31" transform="translate(0 0.765625)"/>
       <use xlink:href="#DejaVuSans-30" transform="translate(63.623047 0.765625)"/>
       <use xlink:href="#DejaVuSans-32" transform="translate(128.203125 39.046875) scale(0.7)"/>
      </g>
     </g>
    </g>
    <g id="xtick_4"/>
    <g id="xtick_5"/>
    <g id="xtick_6"/>
    <g id="xtick_7"/>
    <g id="xtick_8"/>
    <g id="xtick_9"/>
    <g id="xtick_10"/>
    <g id="xtick_11"/>
    <g id="xtick_12"/>
    <g id="xtick_13"/>
    <g id="xtick_14"/>
    <g id="xtick_15"/>
    <g id="xtick_16"/>
    <g id="xtick_17"/>
    <g id="xtick_18"/>
    <g id="xtick_19"/>
    <g id="xtick_20"/>
    <g id="xtick_21"/>
    <g id="xtick_22"/>
    <g id="xtick_23"/>
    <g id="xtick_24"/>
    <g id="xtick_25"/>
    <g id="text_4">
     <!-- rank -->
     <g style="fill: #262626" transform="translate(260.043438 337.664062) scale(0.12 -0.12)">
      <defs>
       <path id="DejaVuSans-72" d="M 2631 2963 
Q 2534 3019 2420 3045 
Q 2306 3072 2169 3072 
Q 1681 3072 1420 2755 
Q 1159 2438 1159 1844 
L 1159 0 
L 581 0 
L 581 3500 
L 1159 3500 
L 1159 2956 
Q 1341 3275 1631 3429 
Q 1922 3584 2338 3584 
Q 2397 3584 2469 3576 
Q 2541 3569 2628 3553 
L 2631 2963 
z
" transform="scale(0.015625)"/>
       <path id="DejaVuSans-61" d="M 2194 1759 
Q 1497 1759 1228 1600 
Q 959 1441 959 1056 
Q 959 750 1161 570 
Q 1363 391 1709 391 
Q 2188 391 2477 730 
Q 2766 1069 2766 1631 
L 2766 1759 
L 2194 1759 
z
M 3341 1997 
L 3341 0 
L 2766 0 
L 2766 531 
Q 2569 213 2275 61 
Q 1981 -91 1556 -91 
Q 1019 -91 701 211 
Q 384 513 384 1019 
Q 384 1609 779 1909 
Q 1175 2209 1959 2209 
L 2766 2209 
L 2766 2266 
Q 2766 2663 2505 2880 
Q 2244 3097 1772 3097 
Q 1472 3097 1187 3025 
Q 903 2953 641 2809 
L 641 3341 
Q 956 3463 1253 3523 
Q 1550 3584 1831 3584 
Q 2591 3584 2966 3190 
Q 3341 2797 3341 1997 
z
" transform="scale(0.015625)"/>
       <path id="DejaVuSans-6e" d="M 3513 2113 
L 3513 0 
L 2938 0 
L 2938 2094 
Q 2938 2591 2744 2837 
Q 2550 3084 2163 3084 
Q 1697 3084 1428 2787 
Q 1159 2491 1159 1978 
L 1159 0 
L 581 0 
L 581 3500 
L 1159 3500 
L 1159 2956 
Q 1366 3272 1645 3428 
Q 1925 3584 2291 3584 
Q 2894 3584 3203 3211 
Q 3513 2838 3513 2113 
z
" transform="scale(0.015625)"/>
       <path id="DejaVuSans-6b" d="M 581 4863 
L 1159 4863 
L 1159 1991 
L 2875 3500 
L 3609 3500 
L 1753 1863 
L 3688 0 
L 2938 0 
L 1159 1709 
L 1159 0 
L 581 0 
L 581 4863 
z
" transform="scale(0.015625)"/>
      </defs>
      <use xlink:href="#DejaVuSans-72"/>
      <use xlink:href="#DejaVuSans-61" x="41.113281"/>
      <use xlink:href="#DejaVuSans-6e" x="102.392578"/>
      <use xlink:href="#DejaVuSans-6b" x="165.771484"/>
     </g>
    </g>
   </g>
   <g id="matplotlib.axis_2">
    <g id="ytick_1">
     <g id="text_5">
      <!-- $\mathdefault{10^{-2}}$ -->
      <g style="fill: #262626" transform="translate(22.81375 288.579141) scale(0.11 -0.11)">
       <defs>
        <path id="DejaVuSans-2212" d="M 678 2272 
L 4684 2272 
L 4684 1741 
L 678 1741 
L 678 2272 
z
" transform="scale(0.015625)"/>
       </defs>
       <use xlink:href="#DejaVuSans-31" transform="translate(0 0.765625)"/>
       <use xlink:href="#DejaVuSans-30" transform="translate(63.623047 0.765625)"/>
       <use xlink:href="#DejaVuSans-2212" transform="translate(128.203125 39.046875) scale(0.7)"/>
       <use xlink:href="#DejaVuSans-32" transform="translate(186.855469 39.046875) scale(0.7)"/>
      </g>
     </g>
    </g>
    <g id="ytick_2">
     <g id="text_6">
      <!-- $\mathdefault{10^{-1}}$ -->
      <g style="fill: #262626" transform="translate(22.81375 228.98217) scale(0.11 -0.11)">
       <use xlink:href="#DejaVuSans-31" transform="translate(0 0.684375)"/>
       <use xlink:href="#DejaVuSans-30" transform="translate(63.623047 0.684375)"/>
       <use xlink:href="#DejaVuSans-2212" transform="translate(128.203125 38.965625) scale(0.7)"/>
       <use xlink:href="#DejaVuSans-31" transform="translate(186.855469 38.965625) scale(0.7)"/>
      </g>
     </g>
    </g>
    <g id="ytick_3">
     <g id="text_7">
      <!-- $\mathdefault{10^{0}}$ -->
      <g style="fill: #262626" transform="translate(29.30375 169.3852) scale(0.11 -0.11)">
       <use xlink:href="#DejaVuSans-31" transform="translate(0 0.765625)"/>
       <use xlink:href="#DejaVuSans-30" transform="translate(63.623047 0.765625)"/>
       <use xlink:href="#DejaVuSans-30" transform="translate(128.203125 39.046875) scale(0.7)"/>
      </g>
     </g>
    </g>
    <g id="ytick_4">
     <g id="text_8">
      <!-- $\mathdefault{10^{1}}$ -->
      <g style="fill: #262626" transform="translate(29.30375 109.78823) scale(0.11 -0.11)">
       <use xlink:href="#DejaVuSans-31" transform="translate(0 0.684375)"/>
       <use xlink:href="#DejaVuSans-30" transform="translate(63.623047 0.684375)"/>
       <use xlink:href="#DejaVuSans-31" transform="translate(128.203125 38.965625) scale(0.7)"/>
      </g>
     </g>
    </g>
    <g id="ytick_5">
     <g id="text_9">
      <!-- $\mathdefault{10^{2}}$ -->
      <g style="fill: #262626" transform="translate(29.30375 50.19126) scale(0.11 -0.11)">
       <use xlink:href="#DejaVuSans-31" transform="translate(0 0.765625)"/>
       <use xlink:href="#DejaVuSans-30" transform="translate(63.623047 0.765625)"/>
       <use xlink:href="#DejaVuSans-32" transform="translate(128.203125 39.046875) scale(0.7)"/>
      </g>
     </g>
    </g>
    <g id="ytick_6"/>
    <g id="ytick_7"/>
    <g id="ytick_8"/>
    <g id="ytick_9"/>
    <g id="ytick_10"/>
    <g id="ytick_11"/>
    <g id="ytick_12"/>
    <g id="ytick_13"/>
    <g id="ytick_14"/>
    <g id="ytick_15"/>
    <g id="ytick_16"/>
    <g id="ytick_17"/>
    <g id="ytick_18"/>
    <g id="ytick_19"/>
    <g id="ytick_20"/>
    <g id="ytick_21"/>
    <g id="ytick_22"/>
    <g id="ytick_23"/>
    <g id="ytick_24"/>
    <g id="ytick_25"/>
    <g id="ytick_26"/>
    <g id="ytick_27"/>
    <g id="ytick_28"/>
    <g id="ytick_29"/>
    <g id="ytick_30"/>
    <g id="ytick_31"/>
    <g id="ytick_32"/>
    <g id="ytick_33"/>
    <g id="ytick_34"/>
    <g id="ytick_35"/>
    <g id="ytick_36"/>
    <g id="ytick_37"/>
    <g id="ytick_38"/>
    <g id="ytick_39"/>
    <g id="ytick_40"/>
    <g id="text_10">
     <!-- cross-validated eigenvalue -->
     <g style="fill: #262626" transform="translate(16.318125 226.219687) rotate(-90) scale(0.12 -0.12)">
      <defs>
       <path id="DejaVuSans-63" d="M 3122 3366 
L 3122 2828 
Q 2878 2963 2633 3030 
Q 2388 3097 2138 3097 
Q 1578 3097 1268 2742 
Q 959 2388 959 1747 
Q 959 1106 1268 751 
Q 1578 397 2138 397 
Q 2388 397 2633 464 
Q 2878 531 3122 666 
L 3122 134 
Q 2881 22 2623 -34 
Q 2366 -91 2075 -91 
Q 1284 -91 818 406 
Q 353 903 353 1747 
Q 353 2603 823 3093 
Q 1294 3584 2113 3584 
Q 2378 3584 2631 3529 
Q 2884 3475 3122 3366 
z
" transform="scale(0.015625)"/>
       <path id="DejaVuSans-6f" d="M 1959 3097 
Q 1497 3097 1228 2736 
Q 959 2375 959 1747 
Q 959 1119 1226 758 
Q 1494 397 1959 397 
Q 2419 397 2687 759 
Q 2956 1122 2956 1747 
Q 2956 2369 2687 2733 
Q 2419 3097 1959 3097 
z
M 1959 3584 
Q 2709 3584 3137 3096 
Q 3566 2609 3566 1747 
Q 3566 888 3137 398 
Q 2709 -91 1959 -91 
Q 1206 -91 779 398 
Q 353 888 353 1747 
Q 353 2609 779 3096 
Q 1206 3584 1959 3584 
z
" transform="scale(0.015625)"/>
       <path id="DejaVuSans-73" d="M 2834 3397 
L 2834 2853 
Q 2591 2978 2328 3040 
Q 2066 3103 1784 3103 
Q 1356 3103 1142 2972 
Q 928 2841 928 2578 
Q 928 2378 1081 2264 
Q 1234 2150 1697 2047 
L 1894 2003 
Q 2506 1872 2764 1633 
Q 3022 1394 3022 966 
Q 3022 478 2636 193 
Q 2250 -91 1575 -91 
Q 1294 -91 989 -36 
Q 684 19 347 128 
L 347 722 
Q 666 556 975 473 
Q 1284 391 1588 391 
Q 1994 391 2212 530 
Q 2431 669 2431 922 
Q 2431 1156 2273 1281 
Q 2116 1406 1581 1522 
L 1381 1569 
Q 847 1681 609 1914 
Q 372 2147 372 2553 
Q 372 3047 722 3315 
Q 1072 3584 1716 3584 
Q 2034 3584 2315 3537 
Q 2597 3491 2834 3397 
z
" transform="scale(0.015625)"/>
       <path id="DejaVuSans-2d" d="M 313 2009 
L 1997 2009 
L 1997 1497 
L 313 1497 
L 313 2009 
z
" transform="scale(0.015625)"/>
       <path id="DejaVuSans-76" d="M 191 3500 
L 800 3500 
L 1894 563 
L 2988 3500 
L 3597 3500 
L 2284 0 
L 1503 0 
L 191 3500 
z
" transform="scale(0.015625)"/>
       <path id="DejaVuSans-6c" d="M 603 4863 
L 1178 4863 
L 1178 0 
L 603 0 
L 603 4863 
z
" transform="scale(0.015625)"/>
       <path id="DejaVuSans-69" d="M 603 3500 
L 1178 3500 
L 1178 0 
L 603 0 
L 603 3500 
z
M 603 4863 
L 1178 4863 
L 1178 4134 
L 603 4134 
L 603 4863 
z
" transform="scale(0.015625)"/>
       <path id="DejaVuSans-64" d="M 2906 2969 
L 2906 4863 
L 3481 4863 
L 3481 0 
L 2906 0 
L 2906 525 
Q 2725 213 2448 61 
Q 2172 -91 1784 -91 
Q 1150 -91 751 415 
Q 353 922 353 1747 
Q 353 2572 751 3078 
Q 1150 3584 1784 3584 
Q 2172 3584 2448 3432 
Q 2725 3281 2906 2969 
z
M 947 1747 
Q 947 1113 1208 752 
Q 1469 391 1925 391 
Q 2381 391 2643 752 
Q 2906 1113 2906 1747 
Q 2906 2381 2643 2742 
Q 2381 3103 1925 3103 
Q 1469 3103 1208 2742 
Q 947 2381 947 1747 
z
" transform="scale(0.015625)"/>
       <path id="DejaVuSans-74" d="M 1172 4494 
L 1172 3500 
L 2356 3500 
L 2356 3053 
L 1172 3053 
L 1172 1153 
Q 1172 725 1289 603 
Q 1406 481 1766 481 
L 2356 481 
L 2356 0 
L 1766 0 
Q 1100 0 847 248 
Q 594 497 594 1153 
L 594 3053 
L 172 3053 
L 172 3500 
L 594 3500 
L 594 4494 
L 1172 4494 
z
" transform="scale(0.015625)"/>
       <path id="DejaVuSans-65" d="M 3597 1894 
L 3597 1613 
L 953 1613 
Q 991 1019 1311 708 
Q 1631 397 2203 397 
Q 2534 397 2845 478 
Q 3156 559 3463 722 
L 3463 178 
Q 3153 47 2828 -22 
Q 2503 -91 2169 -91 
Q 1331 -91 842 396 
Q 353 884 353 1716 
Q 353 2575 817 3079 
Q 1281 3584 2069 3584 
Q 2775 3584 3186 3129 
Q 3597 2675 3597 1894 
z
M 3022 2063 
Q 3016 2534 2758 2815 
Q 2500 3097 2075 3097 
Q 1594 3097 1305 2825 
Q 1016 2553 972 2059 
L 3022 2063 
z
" transform="scale(0.015625)"/>
       <path id="DejaVuSans-20" transform="scale(0.015625)"/>
       <path id="DejaVuSans-67" d="M 2906 1791 
Q 2906 2416 2648 2759 
Q 2391 3103 1925 3103 
Q 1463 3103 1205 2759 
Q 947 2416 947 1791 
Q 947 1169 1205 825 
Q 1463 481 1925 481 
Q 2391 481 2648 825 
Q 2906 1169 2906 1791 
z
M 3481 434 
Q 3481 -459 3084 -895 
Q 2688 -1331 1869 -1331 
Q 1566 -1331 1297 -1286 
Q 1028 -1241 775 -1147 
L 775 -588 
Q 1028 -725 1275 -790 
Q 1522 -856 1778 -856 
Q 2344 -856 2625 -561 
Q 2906 -266 2906 331 
L 2906 616 
Q 2728 306 2450 153 
Q 2172 0 1784 0 
Q 1141 0 747 490 
Q 353 981 353 1791 
Q 353 2603 747 3093 
Q 1141 3584 1784 3584 
Q 2172 3584 2450 3431 
Q 2728 3278 2906 2969 
L 2906 3500 
L 3481 3500 
L 3481 434 
z
" transform="scale(0.015625)"/>
       <path id="DejaVuSans-75" d="M 544 1381 
L 544 3500 
L 1119 3500 
L 1119 1403 
Q 1119 906 1312 657 
Q 1506 409 1894 409 
Q 2359 409 2629 706 
Q 2900 1003 2900 1516 
L 2900 3500 
L 3475 3500 
L 3475 0 
L 2900 0 
L 2900 538 
Q 2691 219 2414 64 
Q 2138 -91 1772 -91 
Q 1169 -91 856 284 
Q 544 659 544 1381 
z
M 1991 3584 
L 1991 3584 
z
" transform="scale(0.015625)"/>
      </defs>
      <use xlink:href="#DejaVuSans-63"/>
      <use xlink:href="#DejaVuSans-72" x="54.980469"/>
      <use xlink:href="#DejaVuSans-6f" x="93.84375"/>
      <use xlink:href="#DejaVuSans-73" x="155.025391"/>
      <use xlink:href="#DejaVuSans-73" x="207.125"/>
      <use xlink:href="#DejaVuSans-2d" x="259.224609"/>
      <use xlink:href="#DejaVuSans-76" x="292.683594"/>
      <use xlink:href="#DejaVuSans-61" x="351.863281"/>
      <use xlink:href="#DejaVuSans-6c" x="413.142578"/>
      <use xlink:href="#DejaVuSans-69" x="440.925781"/>
      <use xlink:href="#DejaVuSans-64" x="468.708984"/>
      <use xlink:href="#DejaVuSans-61" x="532.185547"/>
      <use xlink:href="#DejaVuSans-74" x="593.464844"/>
      <use xlink:href="#DejaVuSans-65" x="632.673828"/>
      <use xlink:href="#DejaVuSans-64" x="694.197266"/>
      <use xlink:href="#DejaVuSans-20" x="757.673828"/>
      <use xlink:href="#DejaVuSans-65" x="789.460938"/>
      <use xlink:href="#DejaVuSans-69" x="850.984375"/>
      <use xlink:href="#DejaVuSans-67" x="878.767578"/>
      <use xlink:href="#DejaVuSans-65" x="942.244141"/>
      <use xlink:href="#DejaVuSans-6e" x="1003.767578"/>
      <use xlink:href="#DejaVuSans-76" x="1067.146484"/>
      <use xlink:href="#DejaVuSans-61" x="1126.326172"/>
      <use xlink:href="#DejaVuSans-6c" x="1187.605469"/>
      <use xlink:href="#DejaVuSans-75" x="1215.388672"/>
      <use xlink:href="#DejaVuSans-65" x="1278.767578"/>
     </g>
    </g>
   </g>
   <g id="PolyCollection_1"/>
   <g id="line2d_1">
    <path d="M 78.16375 20.120479 
L 119.195577 8.46302 
L 143.197657 35.823562 
L 160.227404 37.817187 
L 173.436701 60.6941 
L 184.229483 42.204477 
L 193.354651 71.646269 
L 201.25923 71.286722 
L 208.231563 62.979464 
L 214.468528 96.826073 
L 220.110549 70.850778 
L 225.26131 62.438236 
L 229.999551 67.398651 
L 234.386478 73.959815 
L 238.470608 64.03473 
L 242.291057 103.539284 
L 245.879817 83.675682 
L 249.26339 104.479008 
L 252.463976 108.695992 
L 255.500355 90.210378 
L 258.388558 96.965624 
L 261.142376 104.871359 
L 263.77376 89.78723 
L 266.293137 94.720888 
L 268.709653 96.880412 
L 271.031378 93.131266 
L 273.26547 116.293474 
L 275.418304 107.933975 
L 277.495585 98.239596 
L 279.502435 98.062357 
L 281.443475 113.202991 
L 283.322884 106.85788 
L 285.144456 102.112728 
L 286.911644 105.442987 
L 288.627602 119.145011 
L 290.295217 105.114746 
L 291.917138 109.996924 
L 293.495803 105.831929 
L 296.532182 109.137323 
L 297.993896 120.576916 
L 299.420384 114.060274 
L 302.174202 131.99142 
L 303.504515 115.517509 
L 304.805587 113.488416 
L 306.078677 120.989393 
L 307.324964 119.600531 
L 308.545552 115.139527 
L 309.741479 115.285383 
L 310.913724 124.986519 
L 312.063205 119.974666 
L 313.19079 122.24757 
L 314.297297 115.531663 
L 315.3835 123.141982 
L 316.450131 153.623846 
L 317.497883 124.694889 
L 318.527411 128.393304 
L 319.53934 142.526741 
L 320.534262 117.449581 
L 321.512737 140.535393 
L 322.475301 137.248654 
L 323.422464 136.032524 
L 324.354711 121.417468 
L 325.272503 144.786578 
L 326.176282 138.922277 
L 327.066471 134.368055 
L 327.943471 134.357927 
L 328.807667 133.6636 
L 329.659429 138.916997 
L 330.499108 131.540668 
L 331.327044 168.262991 
L 332.143559 140.993636 
L 332.948965 132.721761 
L 333.743559 133.710096 
L 334.527629 143.786215 
L 335.30145 142.682473 
L 336.065285 137.465297 
L 336.81939 148.11669 
L 337.564008 135.531271 
L 338.299377 141.03684 
L 339.025722 139.385731 
L 339.743263 134.299846 
L 340.452211 132.558405 
L 341.152768 134.872594 
L 341.845132 133.391613 
L 342.529491 145.79067 
L 343.206029 138.606039 
L 343.874922 146.500933 
L 344.536342 137.731482 
L 345.190452 134.821759 
L 345.837414 138.364809 
L 346.477381 146.698535 
L 347.110504 139.834181 
L 347.736927 134.613283 
L 348.35679 144.945783 
L 348.97023 150.559497 
L 349.577378 136.347301 
L 350.178362 141.761089 
L 350.773306 144.599843 
L 351.36233 151.63102 
L 351.945551 145.548188 
L 352.523081 143.386007 
L 353.095032 161.068308 
L 353.661509 144.5014 
L 354.222616 144.078088 
L 354.778455 139.831198 
L 355.329124 144.24727 
L 355.874717 143.073058 
L 356.415327 145.032181 
L 356.951045 152.417898 
L 357.481958 173.609222 
L 358.008152 152.082246 
L 358.529709 148.006437 
L 359.046712 141.407756 
L 359.559238 143.591342 
L 360.067365 157.722141 
L 360.571167 145.434064 
L 361.070718 163.220504 
L 361.566088 149.321328 
L 362.057348 151.102927 
L 362.544564 155.560351 
L 363.507128 147.900932 
L 363.982604 152.830681 
L 364.454291 144.487698 
L 364.922249 161.117164 
L 365.386537 147.432399 
L 365.847212 165.001101 
L 366.304329 167.284284 
L 366.757944 172.115256 
L 367.208109 148.990769 
L 367.654877 152.350086 
L 368.098297 158.489419 
L 368.538422 153.871827 
L 369.408973 159.80543 
L 369.839494 146.024816 
L 370.266907 154.882698 
L 370.691256 153.86056 
L 371.112584 157.408249 
L 371.530935 155.300238 
L 371.94635 156.587554 
L 372.35887 159.282755 
L 372.768536 152.280902 
L 373.175386 151.243183 
L 373.579458 165.632642 
L 373.980791 156.548658 
L 374.379422 171.49949 
L 374.775386 178.607909 
L 375.559456 157.789522 
L 375.947631 155.993818 
L 376.333276 156.013788 
L 376.716426 158.354712 
L 377.097112 162.781183 
L 377.475365 169.90321 
L 377.851216 167.431549 
L 378.224696 175.546116 
L 378.595835 155.939337 
L 378.964661 167.142528 
L 379.331204 163.675163 
L 379.69549 154.484588 
L 380.057549 159.219325 
L 380.417407 156.882771 
L 380.77509 157.224884 
L 381.130625 173.267063 
L 381.484038 159.986911 
L 381.835353 159.221599 
L 382.184595 158.165973 
L 382.531789 172.653193 
L 382.876959 160.151379 
L 383.220127 160.179806 
L 383.561318 163.846307 
L 383.900553 162.188749 
L 384.237856 172.641963 
L 384.573247 167.072547 
L 384.906749 164.397345 
L 385.238382 163.163291 
L 385.568168 170.346422 
L 385.896127 162.865885 
L 386.222279 171.554544 
L 386.546644 171.684912 
L 386.869241 179.925381 
L 387.509208 162.463169 
L 387.826616 175.611996 
L 388.142331 164.044684 
L 388.456371 162.490252 
L 388.768754 173.245139 
L 389.079497 178.300415 
L 389.388617 156.816174 
L 389.696132 166.370339 
L 390.002057 157.789182 
L 390.306409 174.711312 
L 390.609205 165.684635 
L 390.91046 165.943219 
L 391.210189 174.223561 
L 391.508408 161.02257 
L 391.805133 159.009685 
L 392.100377 167.06144 
L 392.394157 164.289084 
L 392.686485 172.595599 
L 392.977377 176.834374 
L 393.266847 190.223436 
L 393.554908 170.790355 
L 393.841574 173.125476 
L 394.126858 185.803674 
L 394.410775 171.457166 
L 394.693336 177.044341 
L 394.974554 169.194234 
L 395.254443 175.287231 
L 395.533015 176.003274 
L 395.810282 160.352469 
L 396.086257 159.464349 
L 396.36095 175.430888 
L 396.634375 178.657542 
L 396.906543 174.369989 
L 397.177466 174.905234 
L 397.447154 173.640685 
L 397.715619 187.42322 
L 398.248923 166.634004 
L 398.777466 181.576207 
L 399.039978 174.077699 
L 399.301332 198.50839 
L 399.561536 170.41951 
L 399.820602 176.062693 
L 400.078539 173.018293 
L 400.335356 178.202827 
L 400.591065 177.097402 
L 400.845673 177.613359 
L 401.099192 171.620223 
L 401.351629 185.194909 
L 401.602994 177.77644 
L 401.853296 164.939891 
L 402.102545 166.104788 
L 402.350748 165.027919 
L 402.844054 183.182917 
L 403.089174 239.24051 
L 403.333284 183.404498 
L 403.57639 170.1672 
L 403.818503 180.000315 
L 404.059629 170.098272 
L 404.299777 175.861293 
L 404.538955 186.439333 
L 404.77717 170.591891 
L 405.014431 177.983298 
L 405.250744 176.203513 
L 405.486118 176.044378 
L 405.720559 175.268142 
L 405.954076 191.944347 
L 406.418364 180.384601 
L 406.64915 180.127375 
L 406.879039 181.787083 
L 407.108039 168.270401 
L 407.336156 190.438204 
L 407.563398 175.365114 
L 407.789771 171.138062 
L 408.015281 172.111046 
L 408.239936 179.651865 
L 408.463741 174.665903 
L 408.686703 174.33805 
L 408.908829 170.910447 
L 409.130124 173.424185 
L 409.350595 177.349183 
L 409.570248 186.956028 
L 409.789089 173.88859 
L 410.007124 175.655625 
L 410.224359 174.765682 
L 410.440799 171.770102 
L 410.656451 171.616415 
L 410.871321 193.15251 
L 411.085413 182.790194 
L 411.298733 193.143982 
L 411.511288 176.965433 
L 411.723082 194.455963 
L 411.934121 168.472307 
L 412.144411 179.957742 
L 412.353956 169.724876 
L 412.562762 171.894929 
L 412.770834 170.717187 
L 412.978177 182.625991 
L 413.184796 180.061728 
L 413.390697 174.520159 
L 413.595884 199.770631 
L 413.800363 180.226974 
L 414.004137 191.723636 
L 414.207212 177.321973 
L 414.409594 186.569279 
L 414.611285 170.499795 
L 415.012618 186.114325 
L 415.212269 167.593302 
L 415.609562 196.655675 
L 415.807213 177.756049 
L 416.004206 190.195806 
L 416.396237 170.88481 
L 416.785688 181.930623 
L 416.979457 182.311651 
L 417.172594 202.871964 
L 417.365103 177.412117 
L 417.556988 174.563274 
L 417.748253 174.264411 
L 417.938902 186.714203 
L 418.128938 183.754741 
L 418.507192 171.076734 
L 418.695416 185.641583 
L 418.883043 237.922601 
L 419.070078 175.076796 
L 419.256523 181.370959 
L 419.442383 181.371084 
L 419.627662 189.419632 
L 419.812362 188.622923 
L 419.996488 179.799346 
L 420.36303 187.231955 
L 420.727317 183.167848 
L 420.908623 188.261087 
L 421.089376 196.867268 
L 421.269578 175.635164 
L 421.449234 207.01421 
L 421.628345 179.200213 
L 421.806917 170.163875 
L 421.984951 183.583722 
L 422.162452 183.685703 
L 422.339422 185.806558 
L 422.515865 176.904913 
L 422.86718 186.329506 
L 423.042058 200.731345 
L 423.216422 178.267594 
L 423.390274 181.362462 
L 423.563616 198.144591 
L 423.736452 181.545599 
L 423.908786 208.168278 
L 424.080619 180.709322 
L 424.251954 199.037228 
L 424.422795 188.96145 
L 424.593145 206.059352 
L 424.763005 174.054903 
L 424.93238 189.073674 
L 425.101272 190.513748 
L 425.269683 182.627057 
L 425.437616 188.34324 
L 425.605074 184.212821 
L 425.605534 348.359688 
M 425.938143 348.359688 
L 425.938576 193.65744 
L 426.104625 191.881026 
L 426.270209 208.13192 
L 426.599995 189.377139 
L 426.764202 193.579934 
L 426.927954 182.200536 
L 427.091254 184.081268 
L 427.254106 188.933732 
L 427.41651 197.681092 
L 427.739989 179.400955 
L 428.061709 209.373275 
L 428.221916 182.021484 
L 428.541035 192.431149 
L 428.699952 240.104747 
L 428.858443 190.322184 
L 429.016511 193.125312 
L 429.174158 176.396497 
L 429.331386 182.309404 
L 429.488198 182.889166 
L 429.644595 180.016147 
L 429.800581 214.141688 
L 429.956156 179.51563 
L 430.266086 190.293043 
L 430.420444 191.557684 
L 430.574401 222.329267 
L 430.881119 189.529815 
L 431.033884 241.68496 
L 431.186256 182.739199 
L 431.338236 199.107453 
L 431.489828 194.511343 
L 431.641032 206.700232 
L 431.791851 183.772337 
L 431.942286 183.947242 
L 432.092341 195.541738 
L 432.242016 187.681375 
L 432.391313 187.249766 
L 432.540235 184.292081 
L 432.688783 185.270073 
L 432.83696 182.279131 
L 432.984766 191.194812 
L 433.132204 181.166068 
L 433.279276 191.852598 
L 433.425984 184.491968 
L 433.572328 184.139817 
L 433.863937 208.766608 
L 434.009204 204.369171 
L 434.154116 183.246947 
L 434.298674 197.297797 
L 434.442879 192.531685 
L 434.586735 179.415128 
L 434.730241 203.357067 
L 434.873401 183.592516 
L 435.016215 195.825139 
L 435.158685 193.293174 
L 435.442601 256.908982 
L 435.58405 196.001206 
L 435.725162 194.105248 
L 436.006381 179.77067 
L 436.146491 185.943977 
L 436.28627 199.903269 
L 436.564842 200.943258 
L 436.703638 198.271592 
L 436.842109 203.034067 
L 436.980257 196.766906 
L 437.118083 184.504282 
L 437.25559 212.685823 
L 437.392777 193.900947 
L 437.666202 206.627285 
L 437.802443 234.515915 
L 437.93837 181.242795 
L 438.073986 185.95127 
L 438.209292 174.344906 
L 438.34429 196.968872 
L 438.47898 189.048328 
L 438.613365 189.7446 
L 438.613722 348.359688 
M 438.880884 348.359688 
L 438.881223 197.62108 
L 439.014698 182.655147 
L 439.147874 206.421028 
L 439.28075 188.377281 
L 439.413329 219.345684 
L 439.545611 197.95276 
L 439.809293 205.874448 
L 439.940694 232.363784 
L 440.202626 180.54585 
L 440.333158 191.831008 
L 440.463404 192.718532 
L 440.723037 185.384332 
L 440.852428 185.330109 
L 440.981537 205.877412 
L 441.110365 195.103568 
L 441.238913 238.302228 
L 441.367183 195.347751 
L 441.495175 206.105377 
L 441.622892 191.13005 
L 441.750333 199.240882 
L 441.8775 189.068204 
L 442.004395 200.183916 
L 442.131018 198.403989 
L 442.509272 180.137024 
L 442.760104 189.326249 
L 443.009878 185.097423 
L 443.134371 200.325137 
L 443.258603 181.12683 
L 443.382575 194.230121 
L 443.506287 175.092043 
L 443.629742 226.074925 
L 443.752939 228.515312 
L 443.875881 181.244162 
L 443.998568 215.245471 
L 444.121001 183.944883 
L 444.243182 218.741545 
L 444.36511 209.099041 
L 444.486789 185.292906 
L 444.608217 202.471242 
L 444.729397 192.239964 
L 444.85033 247.900107 
L 445.091456 216.16944 
L 445.211652 205.26242 
L 445.451314 210.096164 
L 445.570782 206.3137 
L 445.690009 187.219666 
L 445.808997 206.996298 
L 445.927746 197.972055 
L 446.164532 204.272627 
L 446.282571 242.157545 
L 446.517945 198.891088 
L 446.635281 213.127711 
L 446.752386 203.209403 
L 446.86926 214.01701 
L 446.985903 213.980623 
L 447.102317 192.994519 
L 447.33446 230.520492 
L 447.565696 201.937421 
L 447.680976 195.47679 
L 447.796033 201.797937 
L 447.910866 196.026322 
L 448.025476 217.366675 
L 448.139866 217.605102 
L 448.254034 185.854907 
L 448.367983 208.726375 
L 448.481713 202.865752 
L 448.595225 223.936167 
L 448.708519 194.87919 
L 448.93446 198.51316 
L 449.047108 201.291581 
L 449.159542 312.715632 
L 449.383771 197.134255 
L 449.495568 223.552935 
L 449.607154 197.431691 
L 449.829697 210.214655 
L 449.940656 211.418892 
L 450.051407 197.181381 
L 450.161951 216.883509 
L 450.272289 215.053044 
L 450.382422 202.624746 
L 450.382691 348.359688 
M 450.601796 348.359688 
L 450.602075 197.013822 
L 450.711597 201.996937 
L 450.820916 208.729162 
L 450.930034 236.189227 
L 451.147668 197.300649 
L 451.256186 192.731811 
L 451.364505 192.752385 
L 451.58055 207.051409 
L 451.688278 197.934636 
L 451.79581 206.817186 
L 451.903147 226.412156 
L 452.01029 192.136821 
L 452.11724 198.638527 
L 452.21428 348.359688 
M 452.233633 348.359688 
L 452.436933 191.257499 
L 452.543115 200.799596 
L 452.649107 193.586073 
L 452.754909 201.84956 
L 452.860523 254.985521 
L 452.965948 194.007722 
L 453.071186 218.827705 
L 453.176238 215.863679 
L 453.385783 197.337908 
L 453.490278 191.039693 
L 453.594589 199.036516 
L 453.698716 193.848443 
L 453.802661 198.972936 
L 454.010004 195.216038 
L 454.113404 233.970616 
L 454.319663 195.59924 
L 454.422524 188.089517 
L 454.627711 211.461641 
L 454.730039 226.30318 
L 454.934164 188.614906 
L 455.035964 189.173934 
L 455.137589 210.726814 
L 455.239039 204.77586 
L 455.340316 188.208766 
L 455.44142 232.835349 
L 455.542352 212.947522 
L 455.7437 245.444802 
L 455.844119 186.611352 
L 456.044445 198.486307 
L 456.144355 195.889603 
L 456.244096 227.058918 
L 456.343669 217.311402 
L 456.443076 195.807363 
L 456.542315 310.659787 
L 456.641389 197.37479 
L 456.740297 232.689377 
L 456.83904 215.922194 
L 457.036033 257.314862 
L 457.134284 208.789425 
L 457.330299 233.453704 
L 457.428064 204.662584 
L 457.525667 207.924437 
L 457.62311 262.244601 
L 457.817515 196.289576 
L 457.914479 214.924485 
L 458.011284 203.349031 
L 458.011519 348.359688 
M 458.204223 348.359688 
L 458.300754 185.725849 
L 458.39693 268.956857 
L 458.588815 194.198948 
L 458.78008 211.248691 
L 458.970728 201.317891 
L 459.160765 208.315852 
L 459.444681 191.938915 
L 459.539018 223.006652 
L 459.727242 194.931474 
L 459.727484 348.359688 
M 459.914671 348.359688 
L 460.008461 211.832472 
L 460.101904 204.573698 
L 460.28835 211.292649 
L 460.381353 198.451032 
L 460.566922 214.966591 
L 460.659489 201.801649 
L 460.751911 244.905786 
L 460.936323 203.178443 
L 461.120163 221.048411 
L 461.120359 348.359688 
M 461.303214 348.359688 
L 461.394857 204.799419 
L 461.486139 213.861984 
L 461.577281 200.740204 
L 461.668282 242.297076 
L 461.759144 206.518619 
L 461.849866 211.796442 
L 461.94045 188.568129 
L 462.211372 211.74095 
L 462.301405 209.151855 
L 462.391301 200.835621 
L 462.48106 221.132054 
L 462.570684 217.402328 
L 462.660172 194.944172 
L 462.749525 236.534137 
L 462.838744 214.843611 
L 462.927828 234.865498 
L 463.016778 203.417283 
L 463.194279 262.656843 
L 463.28283 256.005157 
L 463.459536 193.353423 
L 463.547691 202.559887 
L 463.635716 223.943627 
L 463.723609 214.864176 
L 463.811373 224.265171 
L 463.899006 191.120534 
L 463.98651 220.894313 
L 464.073885 197.484947 
L 464.161131 216.288113 
L 464.248249 212.011414 
L 464.335238 223.903619 
L 464.4221 211.129238 
L 464.508835 241.497233 
L 464.595443 199.675391 
L 464.681924 241.20219 
L 464.682079 348.359688 
M 464.854367 348.359688 
L 464.940612 221.192674 
L 464.940796 348.359688 
M 465.112245 348.359688 
L 465.112445 209.586755 
L 465.198175 214.906791 
L 465.283781 209.238395 
L 465.369263 210.489334 
L 465.454622 225.875894 
L 465.539858 206.117992 
L 465.709963 235.446557 
L 465.794832 201.229062 
L 465.795042 348.359688 
L 465.795042 348.359688 
" clip-path="url(#p003585d401)" style="fill: none; stroke: #4c72b0; stroke-width: 1.5; stroke-linecap: round"/>
   </g>
   <g id="line2d_2">
    <path clip-path="url(#p003585d401)" style="fill: none; stroke-dasharray: 5.55,2.4; stroke-dashoffset: 0; stroke: #808080; stroke-width: 1.5"/>
   </g>
   <g id="patch_3">
    <path d="M 58.16375 284.4 
L 58.16375 7.2 
" style="fill: none; stroke: #262626; stroke-width: 1.25; stroke-linejoin: miter; stroke-linecap: square"/>
   </g>
   <g id="patch_4">
    <path d="M 78.16375 304.4 
L 468.76375 304.4 
" style="fill: none; stroke: #262626; stroke-width: 1.25; stroke-linejoin: miter; stroke-linecap: square"/>
   </g>
  </g>
 </g>
 <defs>
  <clipPath id="p003585d401">
   <rect x="78.16375" y="7.2" width="390.6" height="277.2"/>
  </clipPath>
 </defs>
</svg>
