<?xml version="1.0" encoding="utf-8" standalone="no"?>
<!DOCTYPE svg PUBLIC "-//W3C//DTD SVG 1.1//EN"
  "http://www.w3.org/Graphics/SVG/1.1/DTD/svg11.dtd">
<svg xmlns:xlink="http://www.w3.org/1999/xlink" width="455.96375pt" height="327.359688pt" viewBox="0 0 455.96375 327.359688" xmlns="http://www.w3.org/2000/svg" version="1.1">
 <metadata>
  <rdf:RDF xmlns:dc="http://purl.org/dc/elements/1.1/" xmlns:cc="http://creativecommons.org/ns#" xmlns:rdf="http://www.w3.org/1999/02/22-rdf-syntax-ns#">
   <cc:Work>
    <dc:type rdf:resource="http://purl.org/dc/dcmitype/StillImage"/>
    <dc:date>2023-08-15T13:33:28.576790</dc:date>
    <dc:format>image/svg+xml</dc:format>
    <dc:creator>
     <cc:Agent>
      <dc:title>Matplotlib v3.7.2, https://matplotlib.org/</dc:title>
     </cc:Agent>
    </dc:creator>
   </cc:Work>
  </rdf:RDF>
 </metadata>
 <defs>
  <style type="text/css">*{stroke-linejoin: round; stroke-linecap: butt}</style>
 </defs>
 <g id="figure_1">
  <g id="patch_1">
   <path d="M 0 327.359688 
L 455.96375 327.359688 
L 455.96375 0 
L 0 0 
z
" style="fill: #ffffff"/>
  </g>
  <g id="axes_1">
   <g id="patch_2">
    <path d="M 58.16375 284.4 
L 448.76375 284.4 
L 448.76375 7.2 
L 58.16375 7.2 
z
" style="fill: #ffffff"/>
   </g>
   <g id="matplotlib.axis_1">
    <g id="xtick_1">
     <g id="text_1">
      <!-- $\mathdefault{10^{0}}$ -->
      <g style="fill: #262626" transform="translate(48.48375 302.258281) scale(0.11 -0.11)">
       <defs>
        <path id="DejaVuSans-31" d="M 794 531 
L 1825 531 
L 1825 4091 
L 703 3866 
L 703 4441 
L 1819 4666 
L 2450 4666 
L 2450 531 
L 3481 531 
L 3481 0 
L 794 0 
L 794 531 
z
" transform="scale(0.015625)"/>
        <path id="DejaVuSans-30" d="M 2034 4250 
Q 1547 4250 1301 3770 
Q 1056 3291 1056 2328 
Q 1056 1369 1301 889 
Q 1547 409 2034 409 
Q 2525 409 2770 889 
Q 3016 1369 3016 2328 
Q 3016 3291 2770 3770 
Q 2525 4250 2034 4250 
z
M 2034 4750 
Q 2819 4750 3233 4129 
Q 3647 3509 3647 2328 
Q 3647 1150 3233 529 
Q 2819 -91 2034 -91 
Q 1250 -91 836 529 
Q 422 1150 422 2328 
Q 422 3509 836 4129 
Q 1250 4750 2034 4750 
z
" transform="scale(0.015625)"/>
       </defs>
       <use xlink:href="#DejaVuSans-31" transform="translate(0 0.765625)"/>
       <use xlink:href="#DejaVuSans-30" transform="translate(63.623047 0.765625)"/>
       <use xlink:href="#DejaVuSans-30" transform="translate(128.203125 39.046875) scale(0.7)"/>
      </g>
     </g>
    </g>
    <g id="xtick_2">
     <g id="text_2">
      <!-- $\mathdefault{10^{1}}$ -->
      <g style="fill: #262626" transform="translate(184.788528 302.258281) scale(0.11 -0.11)">
       <use xlink:href="#DejaVuSans-31" transform="translate(0 0.684375)"/>
       <use xlink:href="#DejaVuSans-30" transform="translate(63.623047 0.684375)"/>
       <use xlink:href="#DejaVuSans-31" transform="translate(128.203125 38.965625) scale(0.7)"/>
      </g>
     </g>
    </g>
    <g id="xtick_3">
     <g id="text_3">
      <!-- $\mathdefault{10^{2}}$ -->
      <g style="fill: #262626" transform="translate(321.093306 302.258281) scale(0.11 -0.11)">
       <defs>
        <path id="DejaVuSans-32" d="M 1228 531 
L 3431 531 
L 3431 0 
L 469 0 
L 469 531 
Q 828 903 1448 1529 
Q 2069 2156 2228 2338 
Q 2531 2678 2651 2914 
Q 2772 3150 2772 3378 
Q 2772 3750 2511 3984 
Q 2250 4219 1831 4219 
Q 1534 4219 1204 4116 
Q 875 4013 500 3803 
L 500 4441 
Q 881 4594 1212 4672 
Q 1544 4750 1819 4750 
Q 2544 4750 2975 4387 
Q 3406 4025 3406 3419 
Q 3406 3131 3298 2873 
Q 3191 2616 2906 2266 
Q 2828 2175 2409 1742 
Q 1991 1309 1228 531 
z
" transform="scale(0.015625)"/>
       </defs>
       <use xlink:href="#DejaVuSans-31" transform="translate(0 0.765625)"/>
       <use xlink:href="#DejaVuSans-30" transform="translate(63.623047 0.765625)"/>
       <use xlink:href="#DejaVuSans-32" transform="translate(128.203125 39.046875) scale(0.7)"/>
      </g>
     </g>
    </g>
    <g id="xtick_4"/>
    <g id="xtick_5"/>
    <g id="xtick_6"/>
    <g id="xtick_7"/>
    <g id="xtick_8"/>
    <g id="xtick_9"/>
    <g id="xtick_10"/>
    <g id="xtick_11"/>
    <g id="xtick_12"/>
    <g id="xtick_13"/>
    <g id="xtick_14"/>
    <g id="xtick_15"/>
    <g id="xtick_16"/>
    <g id="xtick_17"/>
    <g id="xtick_18"/>
    <g id="xtick_19"/>
    <g id="xtick_20"/>
    <g id="xtick_21"/>
    <g id="xtick_22"/>
    <g id="xtick_23"/>
    <g id="xtick_24"/>
    <g id="xtick_25"/>
    <g id="text_4">
     <!-- rank -->
     <g style="fill: #262626" transform="translate(240.043438 317.664062) scale(0.12 -0.12)">
      <defs>
       <path id="DejaVuSans-72" d="M 2631 2963 
Q 2534 3019 2420 3045 
Q 2306 3072 2169 3072 
Q 1681 3072 1420 2755 
Q 1159 2438 1159 1844 
L 1159 0 
L 581 0 
L 581 3500 
L 1159 3500 
L 1159 2956 
Q 1341 3275 1631 3429 
Q 1922 3584 2338 3584 
Q 2397 3584 2469 3576 
Q 2541 3569 2628 3553 
L 2631 2963 
z
" transform="scale(0.015625)"/>
       <path id="DejaVuSans-61" d="M 2194 1759 
Q 1497 1759 1228 1600 
Q 959 1441 959 1056 
Q 959 750 1161 570 
Q 1363 391 1709 391 
Q 2188 391 2477 730 
Q 2766 1069 2766 1631 
L 2766 1759 
L 2194 1759 
z
M 3341 1997 
L 3341 0 
L 2766 0 
L 2766 531 
Q 2569 213 2275 61 
Q 1981 -91 1556 -91 
Q 1019 -91 701 211 
Q 384 513 384 1019 
Q 384 1609 779 1909 
Q 1175 2209 1959 2209 
L 2766 2209 
L 2766 2266 
Q 2766 2663 2505 2880 
Q 2244 3097 1772 3097 
Q 1472 3097 1187 3025 
Q 903 2953 641 2809 
L 641 3341 
Q 956 3463 1253 3523 
Q 1550 3584 1831 3584 
Q 2591 3584 2966 3190 
Q 3341 2797 3341 1997 
z
" transform="scale(0.015625)"/>
       <path id="DejaVuSans-6e" d="M 3513 2113 
L 3513 0 
L 2938 0 
L 2938 2094 
Q 2938 2591 2744 2837 
Q 2550 3084 2163 3084 
Q 1697 3084 1428 2787 
Q 1159 2491 1159 1978 
L 1159 0 
L 581 0 
L 581 3500 
L 1159 3500 
L 1159 2956 
Q 1366 3272 1645 3428 
Q 1925 3584 2291 3584 
Q 2894 3584 3203 3211 
Q 3513 2838 3513 2113 
z
" transform="scale(0.015625)"/>
       <path id="DejaVuSans-6b" d="M 581 4863 
L 1159 4863 
L 1159 1991 
L 2875 3500 
L 3609 3500 
L 1753 1863 
L 3688 0 
L 2938 0 
L 1159 1709 
L 1159 0 
L 581 0 
L 581 4863 
z
" transform="scale(0.015625)"/>
      </defs>
      <use xlink:href="#DejaVuSans-72"/>
      <use xlink:href="#DejaVuSans-61" x="41.113281"/>
      <use xlink:href="#DejaVuSans-6e" x="102.392578"/>
      <use xlink:href="#DejaVuSans-6b" x="165.771484"/>
     </g>
    </g>
   </g>
   <g id="matplotlib.axis_2">
    <g id="ytick_1">
     <g id="text_5">
      <!-- $\mathdefault{10^{-2}}$ -->
      <g style="fill: #262626" transform="translate(22.81375 288.579141) scale(0.11 -0.11)">
       <defs>
        <path id="DejaVuSans-2212" d="M 678 2272 
L 4684 2272 
L 4684 1741 
L 678 1741 
L 678 2272 
z
" transform="scale(0.015625)"/>
       </defs>
       <use xlink:href="#DejaVuSans-31" transform="translate(0 0.765625)"/>
       <use xlink:href="#DejaVuSans-30" transform="translate(63.623047 0.765625)"/>
       <use xlink:href="#DejaVuSans-2212" transform="translate(128.203125 39.046875) scale(0.7)"/>
       <use xlink:href="#DejaVuSans-32" transform="translate(186.855469 39.046875) scale(0.7)"/>
      </g>
     </g>
    </g>
    <g id="ytick_2">
     <g id="text_6">
      <!-- $\mathdefault{10^{-1}}$ -->
      <g style="fill: #262626" transform="translate(22.81375 234.943671) scale(0.11 -0.11)">
       <use xlink:href="#DejaVuSans-31" transform="translate(0 0.684375)"/>
       <use xlink:href="#DejaVuSans-30" transform="translate(63.623047 0.684375)"/>
       <use xlink:href="#DejaVuSans-2212" transform="translate(128.203125 38.965625) scale(0.7)"/>
       <use xlink:href="#DejaVuSans-31" transform="translate(186.855469 38.965625) scale(0.7)"/>
      </g>
     </g>
    </g>
    <g id="ytick_3">
     <g id="text_7">
      <!-- $\mathdefault{10^{0}}$ -->
      <g style="fill: #262626" transform="translate(29.30375 181.308202) scale(0.11 -0.11)">
       <use xlink:href="#DejaVuSans-31" transform="translate(0 0.765625)"/>
       <use xlink:href="#DejaVuSans-30" transform="translate(63.623047 0.765625)"/>
       <use xlink:href="#DejaVuSans-30" transform="translate(128.203125 39.046875) scale(0.7)"/>
      </g>
     </g>
    </g>
    <g id="ytick_4">
     <g id="text_8">
      <!-- $\mathdefault{10^{1}}$ -->
      <g style="fill: #262626" transform="translate(29.30375 127.672733) scale(0.11 -0.11)">
       <use xlink:href="#DejaVuSans-31" transform="translate(0 0.684375)"/>
       <use xlink:href="#DejaVuSans-30" transform="translate(63.623047 0.684375)"/>
       <use xlink:href="#DejaVuSans-31" transform="translate(128.203125 38.965625) scale(0.7)"/>
      </g>
     </g>
    </g>
    <g id="ytick_5">
     <g id="text_9">
      <!-- $\mathdefault{10^{2}}$ -->
      <g style="fill: #262626" transform="translate(29.30375 74.037264) scale(0.11 -0.11)">
       <use xlink:href="#DejaVuSans-31" transform="translate(0 0.765625)"/>
       <use xlink:href="#DejaVuSans-30" transform="translate(63.623047 0.765625)"/>
       <use xlink:href="#DejaVuSans-32" transform="translate(128.203125 39.046875) scale(0.7)"/>
      </g>
     </g>
    </g>
    <g id="ytick_6">
     <g id="text_10">
      <!-- $\mathdefault{10^{3}}$ -->
      <g style="fill: #262626" transform="translate(29.30375 20.401795) scale(0.11 -0.11)">
       <defs>
        <path id="DejaVuSans-33" d="M 2597 2516 
Q 3050 2419 3304 2112 
Q 3559 1806 3559 1356 
Q 3559 666 3084 287 
Q 2609 -91 1734 -91 
Q 1441 -91 1130 -33 
Q 819 25 488 141 
L 488 750 
Q 750 597 1062 519 
Q 1375 441 1716 441 
Q 2309 441 2620 675 
Q 2931 909 2931 1356 
Q 2931 1769 2642 2001 
Q 2353 2234 1838 2234 
L 1294 2234 
L 1294 2753 
L 1863 2753 
Q 2328 2753 2575 2939 
Q 2822 3125 2822 3475 
Q 2822 3834 2567 4026 
Q 2313 4219 1838 4219 
Q 1578 4219 1281 4162 
Q 984 4106 628 3988 
L 628 4550 
Q 988 4650 1302 4700 
Q 1616 4750 1894 4750 
Q 2613 4750 3031 4423 
Q 3450 4097 3450 3541 
Q 3450 3153 3228 2886 
Q 3006 2619 2597 2516 
z
" transform="scale(0.015625)"/>
       </defs>
       <use xlink:href="#DejaVuSans-31" transform="translate(0 0.765625)"/>
       <use xlink:href="#DejaVuSans-30" transform="translate(63.623047 0.765625)"/>
       <use xlink:href="#DejaVuSans-33" transform="translate(128.203125 39.046875) scale(0.7)"/>
      </g>
     </g>
    </g>
    <g id="ytick_7"/>
    <g id="ytick_8"/>
    <g id="ytick_9"/>
    <g id="ytick_10"/>
    <g id="ytick_11"/>
    <g id="ytick_12"/>
    <g id="ytick_13"/>
    <g id="ytick_14"/>
    <g id="ytick_15"/>
    <g id="ytick_16"/>
    <g id="ytick_17"/>
    <g id="ytick_18"/>
    <g id="ytick_19"/>
    <g id="ytick_20"/>
    <g id="ytick_21"/>
    <g id="ytick_22"/>
    <g id="ytick_23"/>
    <g id="ytick_24"/>
    <g id="ytick_25"/>
    <g id="ytick_26"/>
    <g id="ytick_27"/>
    <g id="ytick_28"/>
    <g id="ytick_29"/>
    <g id="ytick_30"/>
    <g id="ytick_31"/>
    <g id="ytick_32"/>
    <g id="ytick_33"/>
    <g id="ytick_34"/>
    <g id="ytick_35"/>
    <g id="ytick_36"/>
    <g id="ytick_37"/>
    <g id="ytick_38"/>
    <g id="ytick_39"/>
    <g id="ytick_40"/>
    <g id="ytick_41"/>
    <g id="ytick_42"/>
    <g id="ytick_43"/>
    <g id="ytick_44"/>
    <g id="ytick_45"/>
    <g id="ytick_46"/>
    <g id="text_11">
     <!-- eigenvalue -->
     <g style="fill: #262626" transform="translate(16.318125 178.851562) rotate(-90) scale(0.12 -0.12)">
      <defs>
       <path id="DejaVuSans-65" d="M 3597 1894 
L 3597 1613 
L 953 1613 
Q 991 1019 1311 708 
Q 1631 397 2203 397 
Q 2534 397 2845 478 
Q 3156 559 3463 722 
L 3463 178 
Q 3153 47 2828 -22 
Q 2503 -91 2169 -91 
Q 1331 -91 842 396 
Q 353 884 353 1716 
Q 353 2575 817 3079 
Q 1281 3584 2069 3584 
Q 2775 3584 3186 3129 
Q 3597 2675 3597 1894 
z
M 3022 2063 
Q 3016 2534 2758 2815 
Q 2500 3097 2075 3097 
Q 1594 3097 1305 2825 
Q 1016 2553 972 2059 
L 3022 2063 
z
" transform="scale(0.015625)"/>
       <path id="DejaVuSans-69" d="M 603 3500 
L 1178 3500 
L 1178 0 
L 603 0 
L 603 3500 
z
M 603 4863 
L 1178 4863 
L 1178 4134 
L 603 4134 
L 603 4863 
z
" transform="scale(0.015625)"/>
       <path id="DejaVuSans-67" d="M 2906 1791 
Q 2906 2416 2648 2759 
Q 2391 3103 1925 3103 
Q 1463 3103 1205 2759 
Q 947 2416 947 1791 
Q 947 1169 1205 825 
Q 1463 481 1925 481 
Q 2391 481 2648 825 
Q 2906 1169 2906 1791 
z
M 3481 434 
Q 3481 -459 3084 -895 
Q 2688 -1331 1869 -1331 
Q 1566 -1331 1297 -1286 
Q 1028 -1241 775 -1147 
L 775 -588 
Q 1028 -725 1275 -790 
Q 1522 -856 1778 -856 
Q 2344 -856 2625 -561 
Q 2906 -266 2906 331 
L 2906 616 
Q 2728 306 2450 153 
Q 2172 0 1784 0 
Q 1141 0 747 490 
Q 353 981 353 1791 
Q 353 2603 747 3093 
Q 1141 3584 1784 3584 
Q 2172 3584 2450 3431 
Q 2728 3278 2906 2969 
L 2906 3500 
L 3481 3500 
L 3481 434 
z
" transform="scale(0.015625)"/>
       <path id="DejaVuSans-76" d="M 191 3500 
L 800 3500 
L 1894 563 
L 2988 3500 
L 3597 3500 
L 2284 0 
L 1503 0 
L 191 3500 
z
" transform="scale(0.015625)"/>
       <path id="DejaVuSans-6c" d="M 603 4863 
L 1178 4863 
L 1178 0 
L 603 0 
L 603 4863 
z
" transform="scale(0.015625)"/>
       <path id="DejaVuSans-75" d="M 544 1381 
L 544 3500 
L 1119 3500 
L 1119 1403 
Q 1119 906 1312 657 
Q 1506 409 1894 409 
Q 2359 409 2629 706 
Q 2900 1003 2900 1516 
L 2900 3500 
L 3475 3500 
L 3475 0 
L 2900 0 
L 2900 538 
Q 2691 219 2414 64 
Q 2138 -91 1772 -91 
Q 1169 -91 856 284 
Q 544 659 544 1381 
z
M 1991 3584 
L 1991 3584 
z
" transform="scale(0.015625)"/>
      </defs>
      <use xlink:href="#DejaVuSans-65"/>
      <use xlink:href="#DejaVuSans-69" x="61.523438"/>
      <use xlink:href="#DejaVuSans-67" x="89.306641"/>
      <use xlink:href="#DejaVuSans-65" x="152.783203"/>
      <use xlink:href="#DejaVuSans-6e" x="214.306641"/>
      <use xlink:href="#DejaVuSans-76" x="277.685547"/>
      <use xlink:href="#DejaVuSans-61" x="336.865234"/>
      <use xlink:href="#DejaVuSans-6c" x="398.144531"/>
      <use xlink:href="#DejaVuSans-75" x="425.927734"/>
      <use xlink:href="#DejaVuSans-65" x="489.306641"/>
     </g>
    </g>
   </g>
   <g id="PolyCollection_1"/>
   <g id="PolyCollection_2"/>
   <g id="line2d_1">
    <path d="M 58.16375 46.556431 
L 99.195577 36.065071 
L 123.197657 60.68873 
L 140.227404 62.482932 
L 153.436701 83.071462 
L 164.229483 66.431361 
L 173.354651 92.928082 
L 181.25923 92.6045 
L 188.231563 85.12822 
L 194.468528 115.589143 
L 200.110549 92.212164 
L 205.26131 84.641131 
L 209.999551 89.105354 
L 214.386478 95.010203 
L 218.470608 86.077927 
L 222.291057 121.63083 
L 225.879817 103.75419 
L 229.26339 122.476553 
L 232.463976 126.271711 
L 235.500355 109.635218 
L 238.388558 115.714735 
L 241.142376 122.829657 
L 243.77376 109.254398 
L 246.293137 113.694541 
L 248.709653 115.638047 
L 251.031378 112.263929 
L 253.26547 133.109215 
L 255.418304 125.585919 
L 257.495585 116.861271 
L 259.502435 116.701761 
L 261.443475 130.327874 
L 263.322884 124.617466 
L 265.144456 120.346972 
L 266.911644 123.344105 
L 268.627602 135.675512 
L 270.295217 123.048699 
L 271.917138 127.442511 
L 273.495803 123.694141 
L 276.532182 126.668896 
L 277.993896 136.964183 
L 279.420384 131.099403 
L 282.174202 147.236892 
L 283.504515 132.41087 
L 284.805587 130.584747 
L 286.078677 137.3354 
L 287.324964 136.085466 
L 288.545552 132.070697 
L 289.741479 132.201964 
L 290.913724 140.932692 
L 292.063205 136.422176 
L 293.19079 138.467722 
L 294.297297 132.423608 
L 295.3835 139.272665 
L 296.450131 166.70542 
L 297.497883 140.670234 
L 298.527411 143.998696 
L 299.53934 156.718361 
L 300.534262 134.149676 
L 301.512737 154.926208 
L 302.475301 151.968243 
L 303.422464 150.873762 
L 304.354711 137.720655 
L 305.272503 158.752146 
L 306.176282 153.474453 
L 307.066471 149.375791 
L 307.943471 149.366676 
L 308.807667 148.741803 
L 309.659429 153.469701 
L 310.499108 146.831228 
L 311.327044 179.880208 
L 312.143559 155.338613 
L 312.948965 147.894176 
L 313.743559 148.783647 
L 314.527629 157.85185 
L 315.30145 156.858515 
L 316.065285 152.163215 
L 316.81939 161.749146 
L 317.564008 150.42265 
L 318.299377 155.377496 
L 319.025722 153.891547 
L 319.743263 149.314405 
L 320.452211 147.747161 
L 321.152768 149.829861 
L 321.845132 148.497022 
L 322.529491 159.655798 
L 323.206029 153.189848 
L 323.874922 160.295014 
L 324.536342 152.402774 
L 325.190452 149.784111 
L 325.837414 152.972748 
L 326.477381 160.47285 
L 327.110504 154.295139 
L 327.736927 149.596489 
L 328.35679 158.895426 
L 328.97023 163.947598 
L 329.577378 151.157052 
L 330.178362 156.029297 
L 330.773306 158.58409 
L 331.36233 164.911936 
L 331.945551 159.437572 
L 332.523081 157.491675 
L 333.095032 173.405211 
L 333.661509 158.495494 
L 334.222616 158.114526 
L 334.778455 154.292454 
L 335.329124 158.266785 
L 335.874717 157.21003 
L 336.415327 158.973181 
L 336.951045 165.620103 
L 337.481958 184.691653 
L 338.008152 165.318026 
L 338.529709 161.649922 
L 339.046712 155.711309 
L 339.559238 157.67647 
L 340.067365 170.393761 
L 340.571167 159.334864 
L 341.070718 175.342122 
L 341.566088 162.833284 
L 342.057348 164.436669 
L 342.544564 168.448216 
L 343.507128 161.55497 
L 343.982604 165.991595 
L 344.454291 158.483163 
L 344.922249 173.449179 
L 345.386537 161.133305 
L 345.847212 176.944605 
L 346.304329 178.999401 
L 346.757944 183.347129 
L 347.208109 162.535791 
L 347.654877 165.559075 
L 348.098297 171.084288 
L 348.538422 166.928595 
L 349.408973 172.268659 
L 349.839494 159.866523 
L 350.266907 167.838349 
L 350.691256 166.918455 
L 351.112584 170.111268 
L 351.530935 168.214122 
L 351.94635 169.372667 
L 352.35887 171.798266 
L 352.768536 165.496811 
L 353.175386 164.562896 
L 353.579458 177.512973 
L 353.980791 169.337663 
L 354.379422 182.792958 
L 354.775386 189.19032 
L 355.559456 170.454402 
L 355.947631 168.838323 
L 356.333276 168.856295 
L 356.716426 170.963056 
L 357.097112 174.946746 
L 357.475365 181.356355 
L 357.851216 179.131934 
L 358.224696 186.434799 
L 358.595835 168.789291 
L 358.964661 178.871824 
L 359.331204 175.751301 
L 359.69549 167.480062 
L 360.057549 171.741182 
L 360.417407 169.638353 
L 360.77509 169.946245 
L 361.130625 184.38372 
L 361.484038 172.431986 
L 361.835353 171.743228 
L 362.184595 170.793196 
L 362.531789 183.831256 
L 362.876959 172.580002 
L 363.220127 172.605585 
L 363.561318 175.905325 
L 363.900553 174.413574 
L 364.237856 183.821149 
L 364.573247 178.808843 
L 364.906749 176.401243 
L 365.238382 175.290632 
L 365.568168 181.755232 
L 365.896127 175.022975 
L 366.222279 182.842505 
L 366.546644 182.959832 
L 366.869241 190.376005 
L 367.509208 174.660543 
L 367.826616 186.49409 
L 368.142331 176.083859 
L 368.456371 174.684917 
L 368.768754 184.36399 
L 369.079497 188.913585 
L 369.388617 169.578418 
L 369.696132 178.176878 
L 370.002057 170.454096 
L 370.306409 185.683501 
L 370.609205 177.559765 
L 370.91046 177.792483 
L 371.210189 185.24454 
L 371.508408 173.364048 
L 371.805133 171.552512 
L 372.100377 178.798848 
L 372.394157 176.303811 
L 372.686485 183.779423 
L 372.977377 187.594193 
L 373.266847 199.643943 
L 373.554908 182.154758 
L 373.841574 184.256296 
L 374.126858 195.666291 
L 374.410775 182.754868 
L 374.693336 187.783157 
L 374.974554 180.718298 
L 375.254443 186.201811 
L 375.533015 186.846228 
L 375.810282 172.760977 
L 376.086257 171.961696 
L 376.36095 186.331098 
L 376.634375 189.234989 
L 376.906543 185.376321 
L 377.177466 185.858025 
L 377.447154 184.719969 
L 377.715619 197.123833 
L 378.248923 178.414169 
L 378.777466 191.861698 
L 379.039978 185.113268 
L 379.301332 207.100151 
L 379.561536 181.821009 
L 379.820602 186.899703 
L 380.078539 184.159835 
L 380.335356 188.825759 
L 380.591065 187.830909 
L 380.845673 188.295256 
L 381.099192 182.901614 
L 381.351629 195.118421 
L 381.602994 188.442024 
L 381.853296 176.889518 
L 382.102545 177.93789 
L 382.350748 176.96874 
L 382.844054 193.307689 
L 383.089174 243.757826 
L 383.333284 193.507105 
L 383.57639 181.593937 
L 383.818503 190.443443 
L 384.059629 181.531905 
L 384.299777 186.718449 
L 384.538955 196.238365 
L 384.77717 181.976146 
L 385.014431 188.62819 
L 385.250744 187.026437 
L 385.486118 186.88322 
L 385.720559 186.184631 
L 385.954076 201.192711 
L 386.418364 190.789289 
L 386.64915 190.557794 
L 386.879039 192.051481 
L 387.108039 179.886876 
L 387.336156 199.837228 
L 387.563398 186.271903 
L 387.789771 182.467685 
L 388.015281 183.34334 
L 388.239936 190.129849 
L 388.463741 185.642634 
L 388.686703 185.347576 
L 388.908829 182.262838 
L 389.130124 184.525126 
L 389.350595 188.057505 
L 389.570248 196.703374 
L 389.789089 184.943076 
L 390.007124 186.533354 
L 390.224359 185.732432 
L 390.440799 183.036501 
L 390.656451 182.898188 
L 390.871321 202.280021 
L 391.085413 192.95425 
L 391.298733 202.272346 
L 391.511288 187.712141 
L 391.723082 203.453089 
L 391.934121 180.068586 
L 392.144411 190.405129 
L 392.353956 181.19586 
L 392.562762 183.148841 
L 392.770834 182.088909 
L 392.978177 192.806472 
L 393.184796 190.498713 
L 393.390697 185.511469 
L 393.595884 208.236129 
L 393.800363 190.64743 
L 394.004137 200.994078 
L 394.207212 188.033017 
L 394.409594 196.355312 
L 394.611285 181.893263 
L 395.012618 195.945868 
L 395.212269 179.277507 
L 395.609562 205.432764 
L 395.807213 188.423672 
L 396.004206 199.619077 
L 396.396237 182.239765 
L 396.785688 192.180662 
L 396.979457 192.523576 
L 397.172594 211.027236 
L 397.365103 188.114144 
L 397.556988 185.550271 
L 397.748253 185.281303 
L 397.938902 196.48574 
L 398.128938 193.822314 
L 398.507192 182.412491 
L 398.695416 195.520414 
L 398.883043 242.571747 
L 399.070078 186.012425 
L 399.256523 191.676982 
L 399.442383 191.677095 
L 399.627662 198.920544 
L 399.812362 198.20353 
L 399.996488 190.262578 
L 400.36303 196.951701 
L 400.727317 193.294128 
L 400.908623 197.877889 
L 401.089376 205.62319 
L 401.269578 186.514939 
L 401.449234 214.755132 
L 401.628345 189.723376 
L 401.806917 181.590945 
L 401.984951 193.668401 
L 402.162452 193.760181 
L 402.339422 195.668887 
L 402.515865 187.657676 
L 402.86718 196.139524 
L 403.042058 209.100743 
L 403.216422 188.884047 
L 403.390274 191.669334 
L 403.563616 206.772742 
L 403.736452 191.834153 
L 403.908786 215.793758 
L 404.080619 191.081529 
L 404.251954 207.576089 
L 404.422795 198.508193 
L 404.593145 213.895788 
L 404.763005 185.092753 
L 404.93238 198.609192 
L 405.101272 199.905215 
L 405.269683 192.807432 
L 405.437616 197.951824 
L 405.605074 194.234572 
L 405.605492 328.359688 
M 405.938186 328.359688 
L 405.938576 202.734443 
L 406.104625 201.135724 
L 406.270209 215.761037 
L 406.599995 198.882301 
L 406.764202 202.664689 
L 406.927954 192.423576 
L 407.091254 194.116178 
L 407.254106 198.483248 
L 407.41651 206.355607 
L 407.739989 189.904037 
L 408.061709 216.878218 
L 408.221916 192.262434 
L 408.541035 201.630818 
L 408.699952 244.535613 
L 408.858443 199.732813 
L 409.016511 202.255544 
L 409.174158 187.200117 
L 409.331386 192.521554 
L 409.488198 193.043322 
L 409.644595 190.457692 
L 409.800581 221.169646 
L 409.956156 190.007242 
L 410.266086 199.706587 
L 410.420444 200.844726 
L 410.574401 228.538219 
L 410.881119 199.019705 
L 411.033884 245.957757 
L 411.186256 192.908356 
L 411.338236 207.63929 
L 411.489828 203.502929 
L 411.641032 214.472561 
L 411.791851 193.838149 
L 411.942286 193.995559 
L 412.092341 204.430254 
L 412.242016 197.356165 
L 412.391313 196.96773 
L 412.540235 194.305903 
L 412.688783 195.186066 
L 412.83696 192.494309 
L 412.984766 200.518152 
L 413.132204 191.492586 
L 413.279276 201.11014 
L 413.425984 194.485795 
L 413.572328 194.16887 
L 413.863937 216.332237 
L 414.009204 212.374677 
L 414.154116 193.365314 
L 414.298674 206.010654 
L 414.442879 201.721297 
L 414.586735 189.916793 
L 414.730241 211.463813 
L 414.873401 193.676316 
L 415.016215 204.685306 
L 415.158685 202.406615 
L 415.442601 259.658916 
L 415.58405 204.843761 
L 415.725162 203.137456 
L 416.006381 190.23677 
L 416.146491 195.792559 
L 416.28627 208.3555 
L 416.564842 209.291458 
L 416.703638 206.88704 
L 416.842109 211.173123 
L 416.980257 205.532868 
L 417.118083 194.496877 
L 417.25559 219.859411 
L 417.392777 202.953592 
L 417.666202 214.406911 
L 417.802443 239.505834 
L 417.93837 191.561638 
L 418.073986 195.799123 
L 418.209292 185.353747 
L 418.34429 205.714631 
L 418.47898 198.586382 
L 418.613365 199.213005 
L 418.613688 328.359688 
M 418.880918 328.359688 
L 418.881223 206.301599 
L 419.014698 192.832712 
L 419.147874 214.221285 
L 419.28075 197.98246 
L 419.413329 225.853085 
L 419.545611 206.600101 
L 419.809293 213.72938 
L 419.940694 237.56898 
L 420.202626 190.934408 
L 420.333158 201.090709 
L 420.463404 201.889454 
L 420.723037 195.288896 
L 420.852428 195.240097 
L 420.981537 213.732047 
L 421.110365 204.035914 
L 421.238913 242.913401 
L 421.367183 204.255672 
L 421.495175 213.93721 
L 421.622892 200.459868 
L 421.750333 207.759371 
L 421.8775 198.604269 
L 422.004395 208.608073 
L 422.131018 207.006193 
L 422.509272 190.566478 
L 422.760104 198.836502 
L 423.009878 195.030687 
L 423.134371 208.735169 
L 423.258603 191.457273 
L 423.382575 203.249838 
L 423.506287 186.026147 
L 423.629742 231.909198 
L 423.752939 234.105473 
L 423.875881 191.562868 
L 423.998568 222.163018 
L 424.121001 193.993436 
L 424.243182 225.309378 
L 424.36511 216.631416 
L 424.486789 195.206615 
L 424.608217 210.666597 
L 424.729397 201.458757 
L 424.85033 251.551201 
L 425.091456 222.994561 
L 425.211652 213.178573 
L 425.451314 217.528797 
L 425.570782 214.124693 
L 425.690009 196.940641 
L 425.808997 214.739011 
L 425.927746 206.617466 
L 426.164532 212.28779 
L 426.282571 246.383069 
L 426.517945 207.444568 
L 426.635281 220.257098 
L 426.752386 211.33092 
L 426.86926 221.057439 
L 426.985903 221.024693 
L 427.102317 202.137834 
L 427.33446 235.910074 
L 427.565696 210.186175 
L 427.680976 204.371803 
L 427.796033 210.060644 
L 427.910866 204.866365 
L 428.025476 224.072036 
L 428.139866 224.286614 
L 428.254034 195.712399 
L 428.367983 216.296028 
L 428.481713 211.021644 
L 428.595225 229.98438 
L 428.708519 203.83398 
L 428.93446 207.104444 
L 429.047108 209.604939 
L 429.159542 309.883212 
L 429.383771 205.863471 
L 429.495568 229.639484 
L 429.607154 206.131155 
L 429.829697 217.635435 
L 429.940656 218.719212 
L 430.051407 205.905883 
L 430.161951 223.637202 
L 430.272289 221.989839 
L 430.382422 210.804747 
L 430.382663 328.359688 
M 430.601824 328.359688 
L 430.602075 205.755085 
L 430.711597 210.239737 
L 430.820916 216.298537 
L 430.930034 241.011763 
L 431.147668 206.01322 
L 431.256186 201.901404 
L 431.364505 201.919921 
L 431.58055 214.78861 
L 431.688278 206.58379 
L 431.79581 214.577816 
L 431.903147 232.212695 
L 432.01029 201.365931 
L 432.11724 207.21727 
L 432.204484 328.359688 
M 432.243348 328.359688 
L 432.436933 200.574568 
L 432.543115 209.162167 
L 432.649107 202.670214 
L 432.754909 210.107103 
L 432.860523 257.927859 
L 432.965948 203.049686 
L 433.071186 225.386919 
L 433.176238 222.719386 
L 433.385783 206.046752 
L 433.490278 200.37855 
L 433.594589 207.575448 
L 433.698716 202.906339 
L 433.802661 207.518228 
L 434.010004 204.137134 
L 434.113404 239.015081 
L 434.319663 204.482004 
L 434.422524 197.723481 
L 434.627711 218.757685 
L 434.730039 232.114621 
L 434.934164 198.196315 
L 435.035964 198.699423 
L 435.137589 218.096363 
L 435.239039 212.740684 
L 435.340316 197.830801 
L 435.44142 237.993375 
L 435.542352 220.094933 
L 435.7437 249.341501 
L 435.844119 196.393177 
L 436.044445 207.080277 
L 436.144355 204.743322 
L 436.244096 232.794762 
L 436.343669 224.022293 
L 436.443076 204.669309 
L 436.542315 308.033014 
L 436.641389 206.079945 
L 436.740297 237.862004 
L 436.83904 222.772047 
L 437.036033 260.024196 
L 437.134284 216.352771 
L 437.330299 238.549876 
L 437.428064 212.638739 
L 437.525667 215.574308 
L 437.62311 264.460812 
L 437.817515 205.103285 
L 437.914479 221.874139 
L 438.011284 211.456581 
L 438.011495 328.359688 
M 438.204248 328.359688 
L 438.300754 195.596251 
L 438.39693 270.501639 
L 438.588815 203.221783 
L 438.78008 218.566036 
L 438.970728 209.628617 
L 439.160765 215.92657 
L 439.444681 201.187822 
L 439.539018 229.147845 
L 439.727242 203.881035 
L 439.72746 328.359688 
M 439.914694 328.359688 
L 440.008461 219.091422 
L 440.101904 212.558745 
L 440.28835 218.605597 
L 440.381353 207.04853 
L 440.566922 221.912034 
L 440.659489 210.063984 
L 440.751911 248.856403 
L 440.936323 211.303057 
L 441.120163 227.385487 
L 441.120336 328.359688 
M 441.303237 328.359688 
L 441.394857 212.761887 
L 441.486139 220.91792 
L 441.577281 209.108716 
L 441.668282 246.508643 
L 441.759144 214.309114 
L 441.849866 219.058996 
L 441.94045 198.154217 
L 442.211372 219.009054 
L 442.301405 216.678947 
L 442.391301 209.194589 
L 442.48106 227.460763 
L 442.570684 224.104123 
L 442.660172 203.892463 
L 442.749525 241.322172 
L 442.838744 221.801355 
L 442.927828 239.820447 
L 443.016778 211.518006 
L 443.194279 264.831817 
L 443.28283 258.8455 
L 443.459536 202.460837 
L 443.547691 210.746375 
L 443.635716 229.991094 
L 443.723609 221.819863 
L 443.811373 230.280474 
L 443.899006 200.451304 
L 443.98651 227.246804 
L 444.073885 206.179083 
L 444.161131 223.101363 
L 444.248249 219.252463 
L 444.335238 229.955088 
L 444.4221 218.458532 
L 444.508835 245.788808 
L 444.595443 208.150416 
L 444.681924 245.523279 
L 444.682058 328.359688 
M 444.854389 328.359688 
L 444.940612 227.515319 
L 444.940774 328.359688 
M 445.112267 328.359688 
L 445.112445 217.070344 
L 445.198175 221.858215 
L 445.283781 216.756831 
L 445.369263 217.882638 
L 445.454622 231.730076 
L 445.539858 213.948563 
L 445.709963 240.343383 
L 445.794832 209.548674 
L 445.79502 328.359688 
L 445.79502 328.359688 
" clip-path="url(#pd955054435)" style="fill: none; stroke: #4c72b0; stroke-width: 1.5; stroke-linecap: round"/>
   </g>
   <g id="line2d_2">
    <path d="M 58.16375 8.336553 
L 99.195577 28.369273 
L 123.197657 30.391202 
L 140.227404 43.036546 
L 153.436701 45.847096 
L 164.229483 50.201898 
L 173.354651 51.330332 
L 181.25923 57.665416 
L 188.231563 59.063309 
L 194.468528 61.369989 
L 200.110549 62.636654 
L 205.26131 64.408661 
L 209.999551 65.420523 
L 214.386478 66.836336 
L 218.470608 69.172517 
L 222.291057 70.891355 
L 225.879817 72.250685 
L 229.26339 73.933669 
L 232.463976 74.693844 
L 235.500355 76.224126 
L 238.388558 77.050002 
L 241.142376 77.523719 
L 243.77376 78.425479 
L 246.293137 78.735208 
L 248.709653 79.37901 
L 251.031378 79.663672 
L 253.26547 80.939056 
L 255.418304 81.595299 
L 259.502435 82.447826 
L 261.443475 83.2358 
L 265.144456 84.280021 
L 266.911644 85.051948 
L 268.627602 85.098787 
L 270.295217 85.583512 
L 271.917138 86.35802 
L 275.033458 87.000602 
L 276.532182 87.566413 
L 277.993896 87.875404 
L 282.174202 89.125144 
L 289.741479 91.154986 
L 290.913724 91.535213 
L 292.063205 91.615256 
L 293.19079 92.174316 
L 295.3835 92.483212 
L 296.450131 93.021047 
L 299.53934 93.726908 
L 300.534262 93.822516 
L 302.475301 94.494268 
L 303.422464 95.101039 
L 304.354711 95.139893 
L 305.272503 95.342734 
L 307.943471 96.332703 
L 310.499108 96.718556 
L 312.948965 97.403247 
L 313.743559 97.786057 
L 317.564008 98.801919 
L 318.299377 99.082696 
L 319.743263 99.266163 
L 321.152768 99.689996 
L 321.845132 99.74148 
L 322.529491 100.171215 
L 327.110504 101.26645 
L 328.35679 101.443403 
L 328.97023 101.689398 
L 330.773306 102.037935 
L 331.36233 102.289022 
L 332.523081 102.560158 
L 333.095032 102.932184 
L 335.874717 103.341226 
L 340.067365 104.322955 
L 341.070718 104.66714 
L 342.057348 104.97936 
L 343.027802 105.048436 
L 343.507128 105.304827 
L 343.982604 105.324372 
L 345.386537 105.712565 
L 348.098297 106.253012 
L 348.975297 106.638744 
L 351.112584 106.954909 
L 352.768536 107.381456 
L 353.579458 107.556118 
L 355.559456 108.020166 
L 357.475365 108.473926 
L 359.331204 108.899392 
L 360.77509 109.154786 
L 361.484038 109.313362 
L 363.220127 109.737663 
L 364.573247 109.969952 
L 365.896127 110.268862 
L 368.142331 110.794691 
L 368.768754 110.914656 
L 370.306409 111.228369 
L 372.394157 111.611389 
L 372.977377 111.765206 
L 374.126858 111.970765 
L 379.301332 113.084155 
L 380.335356 113.316409 
L 381.351629 113.542763 
L 381.853296 113.641413 
L 382.350748 113.82869 
L 383.333284 113.990723 
L 387.108039 114.74475 
L 387.563398 114.925491 
L 388.239936 115.044082 
L 390.656451 115.550199 
L 390.871321 115.55451 
L 391.298733 115.719015 
L 396.004206 116.758084 
L 397.938902 117.213296 
L 398.318367 117.348852 
L 399.070078 117.491439 
L 401.806917 118.148667 
L 402.86718 118.39854 
L 403.736452 118.638961 
L 406.764202 119.360282 
L 408.221916 119.77583 
L 410.111324 120.24604 
L 410.574401 120.376059 
L 413.718312 121.238878 
L 414.009204 121.3482 
L 414.730241 121.539026 
L 415.300813 121.7049 
L 417.118083 122.160843 
L 417.529648 122.350975 
L 418.34429 122.541434 
L 418.881223 122.71445 
L 425.690009 124.952674 
L 426.400375 125.208265 
L 426.985903 125.362452 
L 427.450191 125.580322 
L 427.910866 125.757108 
L 428.367983 125.878323 
L 431.58055 127.080454 
L 432.436933 127.460815 
L 432.860523 127.577164 
L 433.176238 127.712514 
L 433.594589 127.882105 
L 438.49295 130.269823 
L 439.255555 130.697486 
L 439.444681 130.771134 
L 439.633205 130.955104 
L 440.28835 131.274042 
L 440.47421 131.409692 
L 443.105595 133.170303 
L 443.547691 133.562951 
L 443.899006 133.883617 
L 444.508835 134.530402 
L 444.854508 135.116052 
L 445.112445 135.381788 
L 445.369263 135.833509 
L 445.794832 136.966927 
L 445.87958 139.001326 
L 445.87958 139.001326 
" clip-path="url(#pd955054435)" style="fill: none; stroke: #dd8452; stroke-width: 1.5; stroke-linecap: round"/>
   </g>
   <g id="line2d_3"/>
   <g id="line2d_4"/>
   <g id="line2d_5">
    <path clip-path="url(#pd955054435)" style="fill: none; stroke-dasharray: 5.55,2.4; stroke-dashoffset: 0; stroke: #808080; stroke-width: 1.5"/>
   </g>
   <g id="patch_3">
    <path d="M 58.16375 284.4 
L 58.16375 7.2 
" style="fill: none; stroke: #262626; stroke-width: 1.25; stroke-linejoin: miter; stroke-linecap: square"/>
   </g>
   <g id="patch_4">
    <path d="M 58.16375 284.4 
L 448.76375 284.4 
" style="fill: none; stroke: #262626; stroke-width: 1.25; stroke-linejoin: miter; stroke-linecap: square"/>
   </g>
   <g id="legend_1">
    <g id="patch_5">
     <path d="M 322.518125 65.405625 
L 441.06375 65.405625 
Q 443.26375 65.405625 443.26375 63.205625 
L 443.26375 14.9 
Q 443.26375 12.7 441.06375 12.7 
L 322.518125 12.7 
Q 320.318125 12.7 320.318125 14.9 
L 320.318125 63.205625 
Q 320.318125 65.405625 322.518125 65.405625 
z
" style="fill: #ffffff; opacity: 0.8"/>
    </g>
    <g id="text_12">
     <!-- spectrum -->
     <g style="fill: #262626" transform="translate(353.399687 26.218125) scale(0.12 -0.12)">
      <defs>
       <path id="DejaVuSans-73" d="M 2834 3397 
L 2834 2853 
Q 2591 2978 2328 3040 
Q 2066 3103 1784 3103 
Q 1356 3103 1142 2972 
Q 928 2841 928 2578 
Q 928 2378 1081 2264 
Q 1234 2150 1697 2047 
L 1894 2003 
Q 2506 1872 2764 1633 
Q 3022 1394 3022 966 
Q 3022 478 2636 193 
Q 2250 -91 1575 -91 
Q 1294 -91 989 -36 
Q 684 19 347 128 
L 347 722 
Q 666 556 975 473 
Q 1284 391 1588 391 
Q 1994 391 2212 530 
Q 2431 669 2431 922 
Q 2431 1156 2273 1281 
Q 2116 1406 1581 1522 
L 1381 1569 
Q 847 1681 609 1914 
Q 372 2147 372 2553 
Q 372 3047 722 3315 
Q 1072 3584 1716 3584 
Q 2034 3584 2315 3537 
Q 2597 3491 2834 3397 
z
" transform="scale(0.015625)"/>
       <path id="DejaVuSans-70" d="M 1159 525 
L 1159 -1331 
L 581 -1331 
L 581 3500 
L 1159 3500 
L 1159 2969 
Q 1341 3281 1617 3432 
Q 1894 3584 2278 3584 
Q 2916 3584 3314 3078 
Q 3713 2572 3713 1747 
Q 3713 922 3314 415 
Q 2916 -91 2278 -91 
Q 1894 -91 1617 61 
Q 1341 213 1159 525 
z
M 3116 1747 
Q 3116 2381 2855 2742 
Q 2594 3103 2138 3103 
Q 1681 3103 1420 2742 
Q 1159 2381 1159 1747 
Q 1159 1113 1420 752 
Q 1681 391 2138 391 
Q 2594 391 2855 752 
Q 3116 1113 3116 1747 
z
" transform="scale(0.015625)"/>
       <path id="DejaVuSans-63" d="M 3122 3366 
L 3122 2828 
Q 2878 2963 2633 3030 
Q 2388 3097 2138 3097 
Q 1578 3097 1268 2742 
Q 959 2388 959 1747 
Q 959 1106 1268 751 
Q 1578 397 2138 397 
Q 2388 397 2633 464 
Q 2878 531 3122 666 
L 3122 134 
Q 2881 22 2623 -34 
Q 2366 -91 2075 -91 
Q 1284 -91 818 406 
Q 353 903 353 1747 
Q 353 2603 823 3093 
Q 1294 3584 2113 3584 
Q 2378 3584 2631 3529 
Q 2884 3475 3122 3366 
z
" transform="scale(0.015625)"/>
       <path id="DejaVuSans-74" d="M 1172 4494 
L 1172 3500 
L 2356 3500 
L 2356 3053 
L 1172 3053 
L 1172 1153 
Q 1172 725 1289 603 
Q 1406 481 1766 481 
L 2356 481 
L 2356 0 
L 1766 0 
Q 1100 0 847 248 
Q 594 497 594 1153 
L 594 3053 
L 172 3053 
L 172 3500 
L 594 3500 
L 594 4494 
L 1172 4494 
z
" transform="scale(0.015625)"/>
       <path id="DejaVuSans-6d" d="M 3328 2828 
Q 3544 3216 3844 3400 
Q 4144 3584 4550 3584 
Q 5097 3584 5394 3201 
Q 5691 2819 5691 2113 
L 5691 0 
L 5113 0 
L 5113 2094 
Q 5113 2597 4934 2840 
Q 4756 3084 4391 3084 
Q 3944 3084 3684 2787 
Q 3425 2491 3425 1978 
L 3425 0 
L 2847 0 
L 2847 2094 
Q 2847 2600 2669 2842 
Q 2491 3084 2119 3084 
Q 1678 3084 1418 2786 
Q 1159 2488 1159 1978 
L 1159 0 
L 581 0 
L 581 3500 
L 1159 3500 
L 1159 2956 
Q 1356 3278 1631 3431 
Q 1906 3584 2284 3584 
Q 2666 3584 2933 3390 
Q 3200 3197 3328 2828 
z
" transform="scale(0.015625)"/>
      </defs>
      <use xlink:href="#DejaVuSans-73"/>
      <use xlink:href="#DejaVuSans-70" x="52.099609"/>
      <use xlink:href="#DejaVuSans-65" x="115.576172"/>
      <use xlink:href="#DejaVuSans-63" x="177.099609"/>
      <use xlink:href="#DejaVuSans-74" x="232.080078"/>
      <use xlink:href="#DejaVuSans-72" x="271.289062"/>
      <use xlink:href="#DejaVuSans-75" x="312.402344"/>
      <use xlink:href="#DejaVuSans-6d" x="375.78125"/>
     </g>
    </g>
    <g id="line2d_6">
     <path d="M 324.718125 38.722031 
L 335.718125 38.722031 
L 346.718125 38.722031 
" style="fill: none; stroke: #4c72b0; stroke-width: 1.5; stroke-linecap: round"/>
    </g>
    <g id="text_13">
     <!-- cross-validated -->
     <g style="fill: #262626" transform="translate(355.518125 42.572031) scale(0.11 -0.11)">
      <defs>
       <path id="DejaVuSans-6f" d="M 1959 3097 
Q 1497 3097 1228 2736 
Q 959 2375 959 1747 
Q 959 1119 1226 758 
Q 1494 397 1959 397 
Q 2419 397 2687 759 
Q 2956 1122 2956 1747 
Q 2956 2369 2687 2733 
Q 2419 3097 1959 3097 
z
M 1959 3584 
Q 2709 3584 3137 3096 
Q 3566 2609 3566 1747 
Q 3566 888 3137 398 
Q 2709 -91 1959 -91 
Q 1206 -91 779 398 
Q 353 888 353 1747 
Q 353 2609 779 3096 
Q 1206 3584 1959 3584 
z
" transform="scale(0.015625)"/>
       <path id="DejaVuSans-2d" d="M 313 2009 
L 1997 2009 
L 1997 1497 
L 313 1497 
L 313 2009 
z
" transform="scale(0.015625)"/>
       <path id="DejaVuSans-64" d="M 2906 2969 
L 2906 4863 
L 3481 4863 
L 3481 0 
L 2906 0 
L 2906 525 
Q 2725 213 2448 61 
Q 2172 -91 1784 -91 
Q 1150 -91 751 415 
Q 353 922 353 1747 
Q 353 2572 751 3078 
Q 1150 3584 1784 3584 
Q 2172 3584 2448 3432 
Q 2725 3281 2906 2969 
z
M 947 1747 
Q 947 1113 1208 752 
Q 1469 391 1925 391 
Q 2381 391 2643 752 
Q 2906 1113 2906 1747 
Q 2906 2381 2643 2742 
Q 2381 3103 1925 3103 
Q 1469 3103 1208 2742 
Q 947 2381 947 1747 
z
" transform="scale(0.015625)"/>
      </defs>
      <use xlink:href="#DejaVuSans-63"/>
      <use xlink:href="#DejaVuSans-72" x="54.980469"/>
      <use xlink:href="#DejaVuSans-6f" x="93.84375"/>
      <use xlink:href="#DejaVuSans-73" x="155.025391"/>
      <use xlink:href="#DejaVuSans-73" x="207.125"/>
      <use xlink:href="#DejaVuSans-2d" x="259.224609"/>
      <use xlink:href="#DejaVuSans-76" x="292.683594"/>
      <use xlink:href="#DejaVuSans-61" x="351.863281"/>
      <use xlink:href="#DejaVuSans-6c" x="413.142578"/>
      <use xlink:href="#DejaVuSans-69" x="440.925781"/>
      <use xlink:href="#DejaVuSans-64" x="468.708984"/>
      <use xlink:href="#DejaVuSans-61" x="532.185547"/>
      <use xlink:href="#DejaVuSans-74" x="593.464844"/>
      <use xlink:href="#DejaVuSans-65" x="632.673828"/>
      <use xlink:href="#DejaVuSans-64" x="694.197266"/>
     </g>
    </g>
    <g id="line2d_7">
     <path d="M 324.718125 54.867969 
L 335.718125 54.867969 
L 346.718125 54.867969 
" style="fill: none; stroke: #dd8452; stroke-width: 1.5; stroke-linecap: round"/>
    </g>
    <g id="text_14">
     <!-- original -->
     <g style="fill: #262626" transform="translate(355.518125 58.717969) scale(0.11 -0.11)">
      <use xlink:href="#DejaVuSans-6f"/>
      <use xlink:href="#DejaVuSans-72" x="61.181641"/>
      <use xlink:href="#DejaVuSans-69" x="102.294922"/>
      <use xlink:href="#DejaVuSans-67" x="130.078125"/>
      <use xlink:href="#DejaVuSans-69" x="193.554688"/>
      <use xlink:href="#DejaVuSans-6e" x="221.337891"/>
      <use xlink:href="#DejaVuSans-61" x="284.716797"/>
      <use xlink:href="#DejaVuSans-6c" x="345.996094"/>
     </g>
    </g>
   </g>
  </g>
 </g>
 <defs>
  <clipPath id="pd955054435">
   <rect x="58.16375" y="7.2" width="390.6" height="277.2"/>
  </clipPath>
 </defs>
</svg>
