<?xml version="1.0" encoding="utf-8" standalone="no"?>
<!DOCTYPE svg PUBLIC "-//W3C//DTD SVG 1.1//EN"
  "http://www.w3.org/Graphics/SVG/1.1/DTD/svg11.dtd">
<svg xmlns:xlink="http://www.w3.org/1999/xlink" width="475.96375pt" height="347.359688pt" viewBox="0 0 475.96375 347.359688" xmlns="http://www.w3.org/2000/svg" version="1.1">
 <metadata>
  <rdf:RDF xmlns:dc="http://purl.org/dc/elements/1.1/" xmlns:cc="http://creativecommons.org/ns#" xmlns:rdf="http://www.w3.org/1999/02/22-rdf-syntax-ns#">
   <cc:Work>
    <dc:type rdf:resource="http://purl.org/dc/dcmitype/StillImage"/>
    <dc:date>2024-03-10T19:51:22.732125</dc:date>
    <dc:format>image/svg+xml</dc:format>
    <dc:creator>
     <cc:Agent>
      <dc:title>Matplotlib v3.8.3, https://matplotlib.org/</dc:title>
     </cc:Agent>
    </dc:creator>
   </cc:Work>
  </rdf:RDF>
 </metadata>
 <defs>
  <style type="text/css">*{stroke-linejoin: round; stroke-linecap: butt}</style>
 </defs>
 <g id="figure_1">
  <g id="patch_1">
   <path d="M -0 347.359688 
L 475.96375 347.359688 
L 475.96375 0 
L -0 0 
z
" style="fill: #ffffff"/>
  </g>
  <g id="axes_1">
   <g id="patch_2">
    <path d="M 78.16375 284.4 
L 468.76375 284.4 
L 468.76375 7.2 
L 78.16375 7.2 
z
" style="fill: #ffffff"/>
   </g>
   <g id="matplotlib.axis_1">
    <g id="xtick_1">
     <g id="text_1">
      <!-- $\mathdefault{10^{0}}$ -->
      <g style="fill: #262626" transform="translate(68.48375 322.258281) scale(0.11 -0.11)">
       <defs>
        <path id="DejaVuSans-31" d="M 794 531 
L 1825 531 
L 1825 4091 
L 703 3866 
L 703 4441 
L 1819 4666 
L 2450 4666 
L 2450 531 
L 3481 531 
L 3481 0 
L 794 0 
L 794 531 
z
" transform="scale(0.015625)"/>
        <path id="DejaVuSans-30" d="M 2034 4250 
Q 1547 4250 1301 3770 
Q 1056 3291 1056 2328 
Q 1056 1369 1301 889 
Q 1547 409 2034 409 
Q 2525 409 2770 889 
Q 3016 1369 3016 2328 
Q 3016 3291 2770 3770 
Q 2525 4250 2034 4250 
z
M 2034 4750 
Q 2819 4750 3233 4129 
Q 3647 3509 3647 2328 
Q 3647 1150 3233 529 
Q 2819 -91 2034 -91 
Q 1250 -91 836 529 
Q 422 1150 422 2328 
Q 422 3509 836 4129 
Q 1250 4750 2034 4750 
z
" transform="scale(0.015625)"/>
       </defs>
       <use xlink:href="#DejaVuSans-31" transform="translate(0 0.765625)"/>
       <use xlink:href="#DejaVuSans-30" transform="translate(63.623047 0.765625)"/>
       <use xlink:href="#DejaVuSans-30" transform="translate(128.203125 39.046875) scale(0.7)"/>
      </g>
     </g>
    </g>
    <g id="xtick_2">
     <g id="text_2">
      <!-- $\mathdefault{10^{1}}$ -->
      <g style="fill: #262626" transform="translate(204.788528 322.258281) scale(0.11 -0.11)">
       <use xlink:href="#DejaVuSans-31" transform="translate(0 0.684375)"/>
       <use xlink:href="#DejaVuSans-30" transform="translate(63.623047 0.684375)"/>
       <use xlink:href="#DejaVuSans-31" transform="translate(128.203125 38.965625) scale(0.7)"/>
      </g>
     </g>
    </g>
    <g id="xtick_3">
     <g id="text_3">
      <!-- $\mathdefault{10^{2}}$ -->
      <g style="fill: #262626" transform="translate(341.093306 322.258281) scale(0.11 -0.11)">
       <defs>
        <path id="DejaVuSans-32" d="M 1228 531 
L 3431 531 
L 3431 0 
L 469 0 
L 469 531 
Q 828 903 1448 1529 
Q 2069 2156 2228 2338 
Q 2531 2678 2651 2914 
Q 2772 3150 2772 3378 
Q 2772 3750 2511 3984 
Q 2250 4219 1831 4219 
Q 1534 4219 1204 4116 
Q 875 4013 500 3803 
L 500 4441 
Q 881 4594 1212 4672 
Q 1544 4750 1819 4750 
Q 2544 4750 2975 4387 
Q 3406 4025 3406 3419 
Q 3406 3131 3298 2873 
Q 3191 2616 2906 2266 
Q 2828 2175 2409 1742 
Q 1991 1309 1228 531 
z
" transform="scale(0.015625)"/>
       </defs>
       <use xlink:href="#DejaVuSans-31" transform="translate(0 0.765625)"/>
       <use xlink:href="#DejaVuSans-30" transform="translate(63.623047 0.765625)"/>
       <use xlink:href="#DejaVuSans-32" transform="translate(128.203125 39.046875) scale(0.7)"/>
      </g>
     </g>
    </g>
    <g id="xtick_4"/>
    <g id="xtick_5"/>
    <g id="xtick_6"/>
    <g id="xtick_7"/>
    <g id="xtick_8"/>
    <g id="xtick_9"/>
    <g id="xtick_10"/>
    <g id="xtick_11"/>
    <g id="xtick_12"/>
    <g id="xtick_13"/>
    <g id="xtick_14"/>
    <g id="xtick_15"/>
    <g id="xtick_16"/>
    <g id="xtick_17"/>
    <g id="xtick_18"/>
    <g id="xtick_19"/>
    <g id="xtick_20"/>
    <g id="xtick_21"/>
    <g id="xtick_22"/>
    <g id="xtick_23"/>
    <g id="xtick_24"/>
    <g id="xtick_25"/>
    <g id="text_4">
     <!-- rank -->
     <g style="fill: #262626" transform="translate(260.043438 337.664062) scale(0.12 -0.12)">
      <defs>
       <path id="DejaVuSans-72" d="M 2631 2963 
Q 2534 3019 2420 3045 
Q 2306 3072 2169 3072 
Q 1681 3072 1420 2755 
Q 1159 2438 1159 1844 
L 1159 0 
L 581 0 
L 581 3500 
L 1159 3500 
L 1159 2956 
Q 1341 3275 1631 3429 
Q 1922 3584 2338 3584 
Q 2397 3584 2469 3576 
Q 2541 3569 2628 3553 
L 2631 2963 
z
" transform="scale(0.015625)"/>
       <path id="DejaVuSans-61" d="M 2194 1759 
Q 1497 1759 1228 1600 
Q 959 1441 959 1056 
Q 959 750 1161 570 
Q 1363 391 1709 391 
Q 2188 391 2477 730 
Q 2766 1069 2766 1631 
L 2766 1759 
L 2194 1759 
z
M 3341 1997 
L 3341 0 
L 2766 0 
L 2766 531 
Q 2569 213 2275 61 
Q 1981 -91 1556 -91 
Q 1019 -91 701 211 
Q 384 513 384 1019 
Q 384 1609 779 1909 
Q 1175 2209 1959 2209 
L 2766 2209 
L 2766 2266 
Q 2766 2663 2505 2880 
Q 2244 3097 1772 3097 
Q 1472 3097 1187 3025 
Q 903 2953 641 2809 
L 641 3341 
Q 956 3463 1253 3523 
Q 1550 3584 1831 3584 
Q 2591 3584 2966 3190 
Q 3341 2797 3341 1997 
z
" transform="scale(0.015625)"/>
       <path id="DejaVuSans-6e" d="M 3513 2113 
L 3513 0 
L 2938 0 
L 2938 2094 
Q 2938 2591 2744 2837 
Q 2550 3084 2163 3084 
Q 1697 3084 1428 2787 
Q 1159 2491 1159 1978 
L 1159 0 
L 581 0 
L 581 3500 
L 1159 3500 
L 1159 2956 
Q 1366 3272 1645 3428 
Q 1925 3584 2291 3584 
Q 2894 3584 3203 3211 
Q 3513 2838 3513 2113 
z
" transform="scale(0.015625)"/>
       <path id="DejaVuSans-6b" d="M 581 4863 
L 1159 4863 
L 1159 1991 
L 2875 3500 
L 3609 3500 
L 1753 1863 
L 3688 0 
L 2938 0 
L 1159 1709 
L 1159 0 
L 581 0 
L 581 4863 
z
" transform="scale(0.015625)"/>
      </defs>
      <use xlink:href="#DejaVuSans-72"/>
      <use xlink:href="#DejaVuSans-61" x="41.113281"/>
      <use xlink:href="#DejaVuSans-6e" x="102.392578"/>
      <use xlink:href="#DejaVuSans-6b" x="165.771484"/>
     </g>
    </g>
   </g>
   <g id="matplotlib.axis_2">
    <g id="ytick_1">
     <g id="text_5">
      <!-- $\mathdefault{10^{-2}}$ -->
      <g style="fill: #262626" transform="translate(22.81375 288.579141) scale(0.11 -0.11)">
       <defs>
        <path id="DejaVuSans-2212" d="M 678 2272 
L 4684 2272 
L 4684 1741 
L 678 1741 
L 678 2272 
z
" transform="scale(0.015625)"/>
       </defs>
       <use xlink:href="#DejaVuSans-31" transform="translate(0 0.765625)"/>
       <use xlink:href="#DejaVuSans-30" transform="translate(63.623047 0.765625)"/>
       <use xlink:href="#DejaVuSans-2212" transform="translate(128.203125 39.046875) scale(0.7)"/>
       <use xlink:href="#DejaVuSans-32" transform="translate(186.855469 39.046875) scale(0.7)"/>
      </g>
     </g>
    </g>
    <g id="ytick_2">
     <g id="text_6">
      <!-- $\mathdefault{10^{-1}}$ -->
      <g style="fill: #262626" transform="translate(22.81375 228.982166) scale(0.11 -0.11)">
       <use xlink:href="#DejaVuSans-31" transform="translate(0 0.684375)"/>
       <use xlink:href="#DejaVuSans-30" transform="translate(63.623047 0.684375)"/>
       <use xlink:href="#DejaVuSans-2212" transform="translate(128.203125 38.965625) scale(0.7)"/>
       <use xlink:href="#DejaVuSans-31" transform="translate(186.855469 38.965625) scale(0.7)"/>
      </g>
     </g>
    </g>
    <g id="ytick_3">
     <g id="text_7">
      <!-- $\mathdefault{10^{0}}$ -->
      <g style="fill: #262626" transform="translate(29.30375 169.38519) scale(0.11 -0.11)">
       <use xlink:href="#DejaVuSans-31" transform="translate(0 0.765625)"/>
       <use xlink:href="#DejaVuSans-30" transform="translate(63.623047 0.765625)"/>
       <use xlink:href="#DejaVuSans-30" transform="translate(128.203125 39.046875) scale(0.7)"/>
      </g>
     </g>
    </g>
    <g id="ytick_4">
     <g id="text_8">
      <!-- $\mathdefault{10^{1}}$ -->
      <g style="fill: #262626" transform="translate(29.30375 109.788215) scale(0.11 -0.11)">
       <use xlink:href="#DejaVuSans-31" transform="translate(0 0.684375)"/>
       <use xlink:href="#DejaVuSans-30" transform="translate(63.623047 0.684375)"/>
       <use xlink:href="#DejaVuSans-31" transform="translate(128.203125 38.965625) scale(0.7)"/>
      </g>
     </g>
    </g>
    <g id="ytick_5">
     <g id="text_9">
      <!-- $\mathdefault{10^{2}}$ -->
      <g style="fill: #262626" transform="translate(29.30375 50.19124) scale(0.11 -0.11)">
       <use xlink:href="#DejaVuSans-31" transform="translate(0 0.765625)"/>
       <use xlink:href="#DejaVuSans-30" transform="translate(63.623047 0.765625)"/>
       <use xlink:href="#DejaVuSans-32" transform="translate(128.203125 39.046875) scale(0.7)"/>
      </g>
     </g>
    </g>
    <g id="ytick_6"/>
    <g id="ytick_7"/>
    <g id="ytick_8"/>
    <g id="ytick_9"/>
    <g id="ytick_10"/>
    <g id="ytick_11"/>
    <g id="ytick_12"/>
    <g id="ytick_13"/>
    <g id="ytick_14"/>
    <g id="ytick_15"/>
    <g id="ytick_16"/>
    <g id="ytick_17"/>
    <g id="ytick_18"/>
    <g id="ytick_19"/>
    <g id="ytick_20"/>
    <g id="ytick_21"/>
    <g id="ytick_22"/>
    <g id="ytick_23"/>
    <g id="ytick_24"/>
    <g id="ytick_25"/>
    <g id="ytick_26"/>
    <g id="ytick_27"/>
    <g id="ytick_28"/>
    <g id="ytick_29"/>
    <g id="ytick_30"/>
    <g id="ytick_31"/>
    <g id="ytick_32"/>
    <g id="ytick_33"/>
    <g id="ytick_34"/>
    <g id="ytick_35"/>
    <g id="ytick_36"/>
    <g id="ytick_37"/>
    <g id="ytick_38"/>
    <g id="ytick_39"/>
    <g id="ytick_40"/>
    <g id="text_10">
     <!-- cross-validated eigenvalue -->
     <g style="fill: #262626" transform="translate(16.318125 226.219687) rotate(-90) scale(0.12 -0.12)">
      <defs>
       <path id="DejaVuSans-63" d="M 3122 3366 
L 3122 2828 
Q 2878 2963 2633 3030 
Q 2388 3097 2138 3097 
Q 1578 3097 1268 2742 
Q 959 2388 959 1747 
Q 959 1106 1268 751 
Q 1578 397 2138 397 
Q 2388 397 2633 464 
Q 2878 531 3122 666 
L 3122 134 
Q 2881 22 2623 -34 
Q 2366 -91 2075 -91 
Q 1284 -91 818 406 
Q 353 903 353 1747 
Q 353 2603 823 3093 
Q 1294 3584 2113 3584 
Q 2378 3584 2631 3529 
Q 2884 3475 3122 3366 
z
" transform="scale(0.015625)"/>
       <path id="DejaVuSans-6f" d="M 1959 3097 
Q 1497 3097 1228 2736 
Q 959 2375 959 1747 
Q 959 1119 1226 758 
Q 1494 397 1959 397 
Q 2419 397 2687 759 
Q 2956 1122 2956 1747 
Q 2956 2369 2687 2733 
Q 2419 3097 1959 3097 
z
M 1959 3584 
Q 2709 3584 3137 3096 
Q 3566 2609 3566 1747 
Q 3566 888 3137 398 
Q 2709 -91 1959 -91 
Q 1206 -91 779 398 
Q 353 888 353 1747 
Q 353 2609 779 3096 
Q 1206 3584 1959 3584 
z
" transform="scale(0.015625)"/>
       <path id="DejaVuSans-73" d="M 2834 3397 
L 2834 2853 
Q 2591 2978 2328 3040 
Q 2066 3103 1784 3103 
Q 1356 3103 1142 2972 
Q 928 2841 928 2578 
Q 928 2378 1081 2264 
Q 1234 2150 1697 2047 
L 1894 2003 
Q 2506 1872 2764 1633 
Q 3022 1394 3022 966 
Q 3022 478 2636 193 
Q 2250 -91 1575 -91 
Q 1294 -91 989 -36 
Q 684 19 347 128 
L 347 722 
Q 666 556 975 473 
Q 1284 391 1588 391 
Q 1994 391 2212 530 
Q 2431 669 2431 922 
Q 2431 1156 2273 1281 
Q 2116 1406 1581 1522 
L 1381 1569 
Q 847 1681 609 1914 
Q 372 2147 372 2553 
Q 372 3047 722 3315 
Q 1072 3584 1716 3584 
Q 2034 3584 2315 3537 
Q 2597 3491 2834 3397 
z
" transform="scale(0.015625)"/>
       <path id="DejaVuSans-2d" d="M 313 2009 
L 1997 2009 
L 1997 1497 
L 313 1497 
L 313 2009 
z
" transform="scale(0.015625)"/>
       <path id="DejaVuSans-76" d="M 191 3500 
L 800 3500 
L 1894 563 
L 2988 3500 
L 3597 3500 
L 2284 0 
L 1503 0 
L 191 3500 
z
" transform="scale(0.015625)"/>
       <path id="DejaVuSans-6c" d="M 603 4863 
L 1178 4863 
L 1178 0 
L 603 0 
L 603 4863 
z
" transform="scale(0.015625)"/>
       <path id="DejaVuSans-69" d="M 603 3500 
L 1178 3500 
L 1178 0 
L 603 0 
L 603 3500 
z
M 603 4863 
L 1178 4863 
L 1178 4134 
L 603 4134 
L 603 4863 
z
" transform="scale(0.015625)"/>
       <path id="DejaVuSans-64" d="M 2906 2969 
L 2906 4863 
L 3481 4863 
L 3481 0 
L 2906 0 
L 2906 525 
Q 2725 213 2448 61 
Q 2172 -91 1784 -91 
Q 1150 -91 751 415 
Q 353 922 353 1747 
Q 353 2572 751 3078 
Q 1150 3584 1784 3584 
Q 2172 3584 2448 3432 
Q 2725 3281 2906 2969 
z
M 947 1747 
Q 947 1113 1208 752 
Q 1469 391 1925 391 
Q 2381 391 2643 752 
Q 2906 1113 2906 1747 
Q 2906 2381 2643 2742 
Q 2381 3103 1925 3103 
Q 1469 3103 1208 2742 
Q 947 2381 947 1747 
z
" transform="scale(0.015625)"/>
       <path id="DejaVuSans-74" d="M 1172 4494 
L 1172 3500 
L 2356 3500 
L 2356 3053 
L 1172 3053 
L 1172 1153 
Q 1172 725 1289 603 
Q 1406 481 1766 481 
L 2356 481 
L 2356 0 
L 1766 0 
Q 1100 0 847 248 
Q 594 497 594 1153 
L 594 3053 
L 172 3053 
L 172 3500 
L 594 3500 
L 594 4494 
L 1172 4494 
z
" transform="scale(0.015625)"/>
       <path id="DejaVuSans-65" d="M 3597 1894 
L 3597 1613 
L 953 1613 
Q 991 1019 1311 708 
Q 1631 397 2203 397 
Q 2534 397 2845 478 
Q 3156 559 3463 722 
L 3463 178 
Q 3153 47 2828 -22 
Q 2503 -91 2169 -91 
Q 1331 -91 842 396 
Q 353 884 353 1716 
Q 353 2575 817 3079 
Q 1281 3584 2069 3584 
Q 2775 3584 3186 3129 
Q 3597 2675 3597 1894 
z
M 3022 2063 
Q 3016 2534 2758 2815 
Q 2500 3097 2075 3097 
Q 1594 3097 1305 2825 
Q 1016 2553 972 2059 
L 3022 2063 
z
" transform="scale(0.015625)"/>
       <path id="DejaVuSans-20" transform="scale(0.015625)"/>
       <path id="DejaVuSans-67" d="M 2906 1791 
Q 2906 2416 2648 2759 
Q 2391 3103 1925 3103 
Q 1463 3103 1205 2759 
Q 947 2416 947 1791 
Q 947 1169 1205 825 
Q 1463 481 1925 481 
Q 2391 481 2648 825 
Q 2906 1169 2906 1791 
z
M 3481 434 
Q 3481 -459 3084 -895 
Q 2688 -1331 1869 -1331 
Q 1566 -1331 1297 -1286 
Q 1028 -1241 775 -1147 
L 775 -588 
Q 1028 -725 1275 -790 
Q 1522 -856 1778 -856 
Q 2344 -856 2625 -561 
Q 2906 -266 2906 331 
L 2906 616 
Q 2728 306 2450 153 
Q 2172 0 1784 0 
Q 1141 0 747 490 
Q 353 981 353 1791 
Q 353 2603 747 3093 
Q 1141 3584 1784 3584 
Q 2172 3584 2450 3431 
Q 2728 3278 2906 2969 
L 2906 3500 
L 3481 3500 
L 3481 434 
z
" transform="scale(0.015625)"/>
       <path id="DejaVuSans-75" d="M 544 1381 
L 544 3500 
L 1119 3500 
L 1119 1403 
Q 1119 906 1312 657 
Q 1506 409 1894 409 
Q 2359 409 2629 706 
Q 2900 1003 2900 1516 
L 2900 3500 
L 3475 3500 
L 3475 0 
L 2900 0 
L 2900 538 
Q 2691 219 2414 64 
Q 2138 -91 1772 -91 
Q 1169 -91 856 284 
Q 544 659 544 1381 
z
M 1991 3584 
L 1991 3584 
z
" transform="scale(0.015625)"/>
      </defs>
      <use xlink:href="#DejaVuSans-63"/>
      <use xlink:href="#DejaVuSans-72" x="54.980469"/>
      <use xlink:href="#DejaVuSans-6f" x="93.84375"/>
      <use xlink:href="#DejaVuSans-73" x="155.025391"/>
      <use xlink:href="#DejaVuSans-73" x="207.125"/>
      <use xlink:href="#DejaVuSans-2d" x="259.224609"/>
      <use xlink:href="#DejaVuSans-76" x="292.683594"/>
      <use xlink:href="#DejaVuSans-61" x="351.863281"/>
      <use xlink:href="#DejaVuSans-6c" x="413.142578"/>
      <use xlink:href="#DejaVuSans-69" x="440.925781"/>
      <use xlink:href="#DejaVuSans-64" x="468.708984"/>
      <use xlink:href="#DejaVuSans-61" x="532.185547"/>
      <use xlink:href="#DejaVuSans-74" x="593.464844"/>
      <use xlink:href="#DejaVuSans-65" x="632.673828"/>
      <use xlink:href="#DejaVuSans-64" x="694.197266"/>
      <use xlink:href="#DejaVuSans-20" x="757.673828"/>
      <use xlink:href="#DejaVuSans-65" x="789.460938"/>
      <use xlink:href="#DejaVuSans-69" x="850.984375"/>
      <use xlink:href="#DejaVuSans-67" x="878.767578"/>
      <use xlink:href="#DejaVuSans-65" x="942.244141"/>
      <use xlink:href="#DejaVuSans-6e" x="1003.767578"/>
      <use xlink:href="#DejaVuSans-76" x="1067.146484"/>
      <use xlink:href="#DejaVuSans-61" x="1126.326172"/>
      <use xlink:href="#DejaVuSans-6c" x="1187.605469"/>
      <use xlink:href="#DejaVuSans-75" x="1215.388672"/>
      <use xlink:href="#DejaVuSans-65" x="1278.767578"/>
     </g>
    </g>
   </g>
   <g id="PolyCollection_1"/>
   <g id="line2d_1">
    <path d="M 78.16375 20.120457 
L 119.195577 8.463021 
L 143.197657 35.823546 
L 160.227404 37.817197 
L 173.436701 60.694154 
L 184.229483 42.204465 
L 193.354651 71.646107 
L 201.25923 71.286746 
L 208.231563 62.979386 
L 214.468528 96.826154 
L 220.110549 70.850871 
L 225.26131 62.438095 
L 229.999551 67.398906 
L 234.386478 73.959575 
L 238.470608 64.034724 
L 242.291057 103.539308 
L 245.879817 83.675673 
L 249.26339 104.479048 
L 252.463976 108.695982 
L 255.500355 90.21005 
L 258.388558 96.965578 
L 261.142376 104.871457 
L 263.77376 89.787495 
L 266.293137 94.720829 
L 268.709653 96.880297 
L 271.031378 93.13135 
L 273.26547 116.293684 
L 275.418304 107.933781 
L 277.495585 98.239712 
L 279.502435 98.062362 
L 281.443475 113.202814 
L 283.322884 106.857939 
L 285.144456 102.112671 
L 286.911644 105.443119 
L 288.627602 119.14466 
L 290.295217 105.11474 
L 291.917138 109.996588 
L 293.495803 105.832133 
L 296.532182 109.137305 
L 297.993896 120.576977 
L 299.420384 114.060344 
L 302.174202 131.991215 
L 303.504515 115.517389 
L 304.805587 113.488601 
L 306.078677 120.989024 
L 307.324964 119.600862 
L 308.545552 115.139605 
L 309.741479 115.285325 
L 310.913724 124.985537 
L 312.063205 119.975203 
L 313.19079 122.248009 
L 314.297297 115.531581 
L 315.3835 123.141672 
L 316.450131 153.622976 
L 317.497883 124.695174 
L 318.527411 128.393159 
L 319.53934 142.526483 
L 320.534262 117.44976 
L 321.512737 140.535346 
L 322.475301 137.248705 
L 323.422464 136.033302 
L 324.354711 121.416641 
L 325.272503 144.78724 
L 326.176282 138.922237 
L 327.066471 134.368241 
L 327.943471 134.358853 
L 328.807667 133.663247 
L 329.659429 138.914314 
L 330.499108 131.543166 
L 331.327044 168.261282 
L 332.143559 140.992689 
L 332.948965 132.722091 
L 333.743559 133.71026 
L 334.527629 143.78536 
L 335.30145 142.681075 
L 336.065285 137.466186 
L 336.81939 148.116431 
L 337.564008 135.531118 
L 338.299377 141.037834 
L 339.025722 139.384094 
L 339.743263 134.300211 
L 340.452211 132.558598 
L 341.152768 134.873125 
L 341.845132 133.391166 
L 342.529491 145.790806 
L 343.206029 138.605683 
L 343.874922 146.501253 
L 344.536342 137.731715 
L 345.190452 134.821705 
L 345.837414 138.364406 
L 346.477381 146.698903 
L 347.110504 139.834146 
L 347.736927 134.613905 
L 348.35679 144.945276 
L 348.97023 150.559918 
L 349.577378 136.347301 
L 350.178362 141.761021 
L 350.773306 144.599489 
L 351.36233 151.631151 
L 351.945551 145.54841 
L 352.523081 143.385672 
L 353.095032 161.068013 
L 353.661509 144.501725 
L 354.222616 144.077524 
L 354.778455 139.830833 
L 355.329124 144.247706 
L 355.874717 143.073239 
L 356.415327 145.032376 
L 356.951045 152.418513 
L 357.481958 173.607864 
L 358.008152 152.08143 
L 358.529709 148.005937 
L 359.046712 141.409158 
L 359.559238 143.591545 
L 360.067365 157.720896 
L 360.571167 145.434029 
L 361.070718 163.2193 
L 361.566088 149.321036 
L 362.057348 151.102319 
L 362.544564 155.560695 
L 363.507128 147.90059 
L 363.982604 152.831654 
L 364.454291 144.486831 
L 364.922249 161.118751 
L 365.386537 147.431644 
L 365.847212 165.000646 
L 366.304329 167.284212 
L 366.757944 172.116996 
L 367.208109 148.990631 
L 367.654877 152.350067 
L 368.098297 158.488829 
L 368.538422 153.87197 
L 369.408973 159.805494 
L 369.839494 146.024578 
L 370.266907 154.882801 
L 370.691256 153.859641 
L 371.112584 157.410429 
L 371.530935 155.300313 
L 371.94635 156.586569 
L 372.35887 159.282703 
L 372.768536 152.28013 
L 373.175386 151.242766 
L 373.579458 165.637129 
L 373.980791 156.549067 
L 374.379422 171.499595 
L 374.775386 178.608039 
L 375.559456 157.78933 
L 375.947631 155.993356 
L 376.333276 156.013486 
L 376.716426 158.355163 
L 377.097112 162.780912 
L 377.475365 169.903212 
L 377.851216 167.4318 
L 378.224696 175.547042 
L 378.595835 155.939581 
L 378.964661 167.140311 
L 379.331204 163.675684 
L 379.69549 154.484278 
L 380.057549 159.219777 
L 380.417407 156.882714 
L 380.77509 157.224937 
L 381.130625 173.266855 
L 381.484038 159.986923 
L 381.835353 159.220961 
L 382.184595 158.166015 
L 382.531789 172.651448 
L 382.876959 160.152313 
L 383.220127 160.18111 
L 383.561318 163.848278 
L 383.900553 162.185845 
L 384.237856 172.640703 
L 384.573247 167.07261 
L 384.906749 164.397737 
L 385.238382 163.163048 
L 385.568168 170.34683 
L 385.896127 162.865048 
L 386.222279 171.555754 
L 386.546644 171.68473 
L 386.869241 179.925454 
L 387.509208 162.463355 
L 387.826616 175.611374 
L 388.142331 164.048524 
L 388.456371 162.486889 
L 388.768754 173.244687 
L 389.079497 178.302703 
L 389.388617 156.81644 
L 389.696132 166.370672 
L 390.002057 157.789016 
L 390.306409 174.711194 
L 390.609205 165.685441 
L 390.91046 165.942544 
L 391.210189 174.223066 
L 391.508408 161.022596 
L 391.805133 159.007874 
L 392.100377 167.056746 
L 392.394157 164.294961 
L 392.686485 172.59457 
L 392.977377 176.836931 
L 393.266847 190.237236 
L 393.554908 170.783195 
L 393.841574 173.124904 
L 394.126858 185.805774 
L 394.410775 171.45715 
L 394.693336 177.04311 
L 394.974554 169.196096 
L 395.254443 175.285419 
L 395.533015 176.003079 
L 395.810282 160.352981 
L 396.086257 159.464948 
L 396.36095 175.428175 
L 396.634375 178.657556 
L 396.906543 174.370855 
L 397.177466 174.904894 
L 397.447154 173.64108 
L 397.715619 187.426242 
L 398.248923 166.633758 
L 398.777466 181.574168 
L 399.039978 174.076812 
L 399.301332 198.505803 
L 399.561536 170.421265 
L 399.820602 176.062067 
L 400.078539 173.018814 
L 400.335356 178.202537 
L 400.591065 177.096883 
L 400.845673 177.6146 
L 401.099192 171.62049 
L 401.351629 185.19479 
L 401.602994 177.777416 
L 401.853296 164.939686 
L 402.102545 166.104242 
L 402.350748 165.026596 
L 402.844054 183.18321 
L 403.089174 239.259629 
L 403.333284 183.401763 
L 403.57639 170.164707 
L 403.818503 180.00311 
L 404.059629 170.09838 
L 404.299777 175.861054 
L 404.538955 186.44143 
L 404.77717 170.593072 
L 405.014431 177.992458 
L 405.250744 176.188568 
L 405.486118 176.045738 
L 405.720559 175.269022 
L 405.954076 191.94608 
L 406.418364 180.378289 
L 406.64915 180.133888 
L 406.879039 181.786499 
L 407.108039 168.26966 
L 407.336156 190.441405 
L 407.563398 175.368587 
L 407.789771 171.136833 
L 408.015281 172.109166 
L 408.239936 179.651631 
L 408.463741 174.663982 
L 408.686703 174.338386 
L 408.908829 170.908786 
L 409.130124 173.425207 
L 409.350595 177.34889 
L 409.570248 186.955962 
L 409.789089 173.889387 
L 410.007124 175.655781 
L 410.224359 174.773314 
L 410.440799 171.762642 
L 410.656451 171.620411 
L 410.871321 193.144086 
L 411.085413 182.789215 
L 411.298733 193.149622 
L 411.511288 176.965496 
L 411.723082 194.456774 
L 411.934121 168.472072 
L 412.144411 179.956467 
L 412.353956 169.725832 
L 412.562762 171.899245 
L 412.770834 170.713561 
L 412.978177 182.625737 
L 413.184796 180.063913 
L 413.390697 174.520722 
L 413.595884 199.764985 
L 413.800363 180.226611 
L 414.004137 191.724604 
L 414.207212 177.324437 
L 414.409594 186.565224 
L 414.611285 170.499343 
L 415.012618 186.117481 
L 415.212269 167.592738 
L 415.609562 196.658731 
L 415.807213 177.756765 
L 416.004206 190.19427 
L 416.396237 170.890199 
L 416.785688 181.92846 
L 416.979457 182.312422 
L 417.172594 202.861203 
L 417.365103 177.413811 
L 417.556988 174.563048 
L 417.748253 174.265207 
L 417.938902 186.714342 
L 418.128938 183.75421 
L 418.507192 171.079302 
L 418.695416 185.641409 
L 418.883043 237.948328 
L 419.070078 175.07726 
L 419.256523 181.371081 
L 419.442383 181.371445 
L 419.627662 189.417983 
L 419.812362 188.619482 
L 419.996488 179.800914 
L 420.36303 187.229818 
L 420.727317 183.172049 
L 420.908623 188.255897 
L 421.089376 196.871319 
L 421.269578 175.635499 
L 421.449234 207.010604 
L 421.628345 179.201016 
L 421.806917 170.166413 
L 421.984951 183.579869 
L 422.162452 183.68618 
L 422.339422 185.806021 
L 422.515865 176.905159 
L 422.86718 186.328086 
L 423.042058 200.743866 
L 423.216422 178.264525 
L 423.390274 181.36324 
L 423.563616 198.146161 
L 423.736452 181.545535 
L 423.908786 208.18509 
L 424.080619 180.700466 
L 424.251954 199.042029 
L 424.422795 188.970411 
L 424.593145 206.049142 
L 424.763005 174.052212 
L 424.93238 189.074551 
L 425.101272 190.514261 
L 425.269683 182.630416 
L 425.437616 188.336349 
L 425.605074 184.214499 
L 425.605534 348.359688 
M 425.938143 348.359688 
L 425.938576 193.658291 
L 426.104625 191.877588 
L 426.270209 208.13092 
L 426.599995 189.37299 
L 426.764202 193.5813 
L 426.927954 182.199397 
L 427.091254 184.081247 
L 427.254106 188.931993 
L 427.41651 197.681581 
L 427.739989 179.401217 
L 428.061709 209.37427 
L 428.221916 182.019067 
L 428.541035 192.432559 
L 428.699952 240.114768 
L 428.858443 190.322111 
L 429.016511 193.125983 
L 429.174158 176.395945 
L 429.331386 182.309228 
L 429.488198 182.890377 
L 429.644595 180.015359 
L 429.800581 214.140262 
L 429.956156 179.516737 
L 430.266086 190.293424 
L 430.420444 191.556527 
L 430.574401 222.329848 
L 430.881119 189.53053 
L 431.033884 241.70003 
L 431.186256 182.738519 
L 431.338236 199.106808 
L 431.489828 194.514064 
L 431.641032 206.69964 
L 431.791851 183.772086 
L 431.942286 183.942548 
L 432.092341 195.546383 
L 432.242016 187.681343 
L 432.391313 187.250224 
L 432.540235 184.298965 
L 432.688783 185.265545 
L 432.83696 182.279502 
L 432.984766 191.191571 
L 433.132204 181.165084 
L 433.279276 191.855504 
L 433.425984 184.493538 
L 433.572328 184.139479 
L 433.863937 208.763496 
L 434.009204 204.369591 
L 434.154116 183.245636 
L 434.298674 197.296364 
L 434.442879 192.532452 
L 434.586735 179.415652 
L 434.730241 203.35487 
L 434.873401 183.587195 
L 435.016215 195.831256 
L 435.158685 193.291698 
L 435.442601 256.903744 
L 435.58405 195.999446 
L 435.725162 194.112578 
L 436.006381 179.769928 
L 436.146491 185.942142 
L 436.28627 199.905561 
L 436.564842 200.94255 
L 436.703638 198.267333 
L 436.842109 203.032447 
L 436.980257 196.772237 
L 437.118083 184.50524 
L 437.25559 212.679317 
L 437.392777 193.900192 
L 437.666202 206.630739 
L 437.802443 234.520315 
L 437.93837 181.240577 
L 438.073986 185.950599 
L 438.209292 174.344208 
L 438.34429 196.973753 
L 438.47898 189.048164 
L 438.613365 189.745321 
L 438.613722 348.359688 
M 438.880884 348.359688 
L 438.881223 197.626908 
L 439.014698 182.654923 
L 439.147874 206.421506 
L 439.28075 188.374752 
L 439.413329 219.345601 
L 439.545611 197.953677 
L 439.809293 205.871548 
L 439.940694 232.380224 
L 440.202626 180.544936 
L 440.333158 191.83151 
L 440.463404 192.716095 
L 440.723037 185.388298 
L 440.852428 185.322075 
L 440.981537 205.879935 
L 441.110365 195.104189 
L 441.238913 238.295386 
L 441.367183 195.348098 
L 441.495175 206.106294 
L 441.622892 191.126978 
L 441.750333 199.233395 
L 441.8775 189.076643 
L 442.004395 200.182465 
L 442.131018 198.403085 
L 442.509272 180.136114 
L 442.760104 189.325507 
L 443.009878 185.099855 
L 443.134371 200.320042 
L 443.258603 181.125578 
L 443.382575 194.230579 
L 443.506287 175.092023 
L 443.629742 226.078551 
L 443.752939 228.508672 
L 443.875881 181.242525 
L 443.998568 215.253595 
L 444.121001 183.947209 
L 444.243182 218.740106 
L 444.36511 209.097032 
L 444.486789 185.289115 
L 444.608217 202.4752 
L 444.729397 192.240776 
L 444.85033 247.894418 
L 445.091456 216.166592 
L 445.211652 205.269936 
L 445.451314 210.088448 
L 445.570782 206.312507 
L 445.690009 187.221871 
L 445.808997 206.99404 
L 445.927746 197.97139 
L 446.164532 204.273506 
L 446.282571 242.153928 
L 446.517945 198.888314 
L 446.635281 213.129701 
L 446.752386 203.217173 
L 446.86926 214.005365 
L 446.985903 213.982047 
L 447.102317 192.993196 
L 447.33446 230.525001 
L 447.565696 201.936814 
L 447.680976 195.478726 
L 447.796033 201.795848 
L 447.910866 196.025086 
L 448.025476 217.366356 
L 448.139866 217.538458 
L 448.254034 185.873987 
L 448.367983 208.730809 
L 448.481713 202.866381 
L 448.595225 223.928804 
L 448.708519 194.872584 
L 448.93446 198.512421 
L 449.047108 201.289571 
L 449.159542 312.770144 
L 449.383771 197.134302 
L 449.495568 223.554348 
L 449.607154 197.432146 
L 449.829697 210.212484 
L 449.940656 211.422828 
L 450.051407 197.184467 
L 450.161951 216.875756 
L 450.272289 215.054921 
L 450.382422 202.596513 
L 450.382691 348.359688 
M 450.601796 348.359688 
L 450.602075 197.014279 
L 450.711597 201.992481 
L 450.820916 208.73669 
L 450.930034 236.189939 
L 451.147668 197.299353 
L 451.256186 192.730415 
L 451.364505 192.752436 
L 451.58055 207.052262 
L 451.688278 197.936862 
L 451.79581 206.814455 
L 451.903147 226.414612 
L 452.01029 192.135565 
L 452.11724 198.642163 
L 452.214656 348.359688 
M 452.233259 348.359688 
L 452.436933 191.262092 
L 452.543115 200.793719 
L 452.649107 193.585561 
L 452.754909 201.850988 
L 452.860523 255.00092 
L 452.965948 194.004789 
L 453.071186 218.823851 
L 453.176238 215.864515 
L 453.385783 197.343437 
L 453.490278 191.034482 
L 453.594589 199.034138 
L 453.698716 193.84907 
L 453.802661 198.9725 
L 454.010004 195.215343 
L 454.113404 233.96089 
L 454.319663 195.594454 
L 454.422524 188.044874 
L 454.627711 211.463292 
L 454.730039 226.301646 
L 454.934164 188.610487 
L 455.035964 189.173808 
L 455.137589 210.732663 
L 455.239039 204.772831 
L 455.340316 188.20891 
L 455.44142 232.828064 
L 455.542352 212.95639 
L 455.7437 245.4255 
L 455.844119 186.611759 
L 456.044445 198.4881 
L 456.144355 195.888259 
L 456.244096 227.06479 
L 456.343669 217.316085 
L 456.443076 195.804766 
L 456.542315 310.626436 
L 456.641389 197.37231 
L 456.740297 232.70083 
L 456.83904 215.921218 
L 457.036033 257.303733 
L 457.134284 208.789582 
L 457.330299 233.434561 
L 457.428064 204.672015 
L 457.525667 207.924527 
L 457.62311 262.276442 
L 457.817515 196.287387 
L 457.914479 214.923766 
L 458.011284 203.351872 
L 458.011519 348.359688 
M 458.204223 348.359688 
L 458.300754 185.725743 
L 458.39693 268.979881 
L 458.588815 194.197765 
L 458.78008 211.244712 
L 458.970728 201.316324 
L 459.160765 208.315882 
L 459.444681 191.938384 
L 459.539018 223.006224 
L 459.727242 194.934532 
L 459.727484 348.359688 
M 459.914671 348.359688 
L 460.008461 211.831259 
L 460.101904 204.578417 
L 460.28835 211.292402 
L 460.381353 198.4184 
L 460.566922 214.965495 
L 460.659489 201.785281 
L 460.751911 244.97121 
L 460.936323 203.177239 
L 461.120163 221.047548 
L 461.120359 348.359688 
M 461.303214 348.359688 
L 461.394857 204.800042 
L 461.486139 213.861567 
L 461.577281 200.740026 
L 461.668282 242.299255 
L 461.759144 206.51452 
L 461.849866 211.799397 
L 461.94045 188.569273 
L 462.211372 211.740538 
L 462.301405 209.149796 
L 462.391301 200.839997 
L 462.48106 221.129402 
L 462.570684 217.40274 
L 462.660172 194.943852 
L 462.749525 236.531652 
L 462.838744 214.843499 
L 462.927828 234.854152 
L 463.016778 203.41229 
L 463.194279 262.67207 
L 463.28283 256.007586 
L 463.459536 193.352241 
L 463.547691 202.557989 
L 463.635716 223.941866 
L 463.723609 214.864683 
L 463.811373 224.264356 
L 463.899006 191.119988 
L 463.98651 220.89378 
L 464.073885 197.484369 
L 464.161131 216.288165 
L 464.248249 212.011999 
L 464.335238 223.907934 
L 464.4221 211.12868 
L 464.508835 241.501148 
L 464.595443 199.674788 
L 464.681924 241.196474 
L 464.682079 348.359688 
M 464.854367 348.359688 
L 464.940612 221.202448 
L 464.940796 348.359688 
M 465.112245 348.359688 
L 465.112445 209.588354 
L 465.198175 214.907886 
L 465.283781 209.237597 
L 465.369263 210.489726 
L 465.454622 225.873798 
L 465.539858 206.119131 
L 465.709963 235.44311 
L 465.794832 201.229069 
L 465.795042 348.359688 
L 465.795042 348.359688 
" clip-path="url(#p9f3d98e267)" style="fill: none; stroke: #4c72b0; stroke-width: 1.5; stroke-linecap: round"/>
   </g>
   <g id="line2d_2">
    <path clip-path="url(#p9f3d98e267)" style="fill: none; stroke-dasharray: 5.55,2.4; stroke-dashoffset: 0; stroke: #808080; stroke-width: 1.5"/>
   </g>
   <g id="patch_3">
    <path d="M 58.16375 284.4 
L 58.16375 7.2 
" style="fill: none; stroke: #262626; stroke-width: 1.25; stroke-linejoin: miter; stroke-linecap: square"/>
   </g>
   <g id="patch_4">
    <path d="M 78.16375 304.4 
L 468.76375 304.4 
" style="fill: none; stroke: #262626; stroke-width: 1.25; stroke-linejoin: miter; stroke-linecap: square"/>
   </g>
  </g>
 </g>
 <defs>
  <clipPath id="p9f3d98e267">
   <rect x="78.16375" y="7.2" width="390.6" height="277.2"/>
  </clipPath>
 </defs>
</svg>
