<?xml version="1.0" encoding="utf-8" standalone="no"?>
<!DOCTYPE svg PUBLIC "-//W3C//DTD SVG 1.1//EN"
  "http://www.w3.org/Graphics/SVG/1.1/DTD/svg11.dtd">
<svg xmlns:xlink="http://www.w3.org/1999/xlink" width="433.86pt" height="311.745938pt" viewBox="0 0 433.86 311.745938" xmlns="http://www.w3.org/2000/svg" version="1.1">
 <metadata>
  <rdf:RDF xmlns:dc="http://purl.org/dc/elements/1.1/" xmlns:cc="http://creativecommons.org/ns#" xmlns:rdf="http://www.w3.org/1999/02/22-rdf-syntax-ns#">
   <cc:Work>
    <dc:type rdf:resource="http://purl.org/dc/dcmitype/StillImage"/>
    <dc:date>2023-08-16T23:48:45.735923</dc:date>
    <dc:format>image/svg+xml</dc:format>
    <dc:creator>
     <cc:Agent>
      <dc:title>Matplotlib v3.7.2, https://matplotlib.org/</dc:title>
     </cc:Agent>
    </dc:creator>
   </cc:Work>
  </rdf:RDF>
 </metadata>
 <defs>
  <style type="text/css">*{stroke-linejoin: round; stroke-linecap: butt}</style>
 </defs>
 <g id="figure_1">
  <g id="patch_1">
   <path d="M 0 311.745938 
L 433.86 311.745938 
L 433.86 0 
L 0 0 
z
" style="fill: #ffffff"/>
  </g>
  <g id="axes_1">
   <g id="patch_2">
    <path d="M 36.06 284.4 
L 426.66 284.4 
L 426.66 7.2 
L 36.06 7.2 
z
" style="fill: #ffffff"/>
   </g>
   <g id="matplotlib.axis_1">
    <g id="xtick_1">
     <g id="text_1">
      <!-- $\mathdefault{10^{0}}$ -->
      <g style="fill: #262626" transform="translate(44.134545 302.258281) scale(0.11 -0.11)">
       <defs>
        <path id="DejaVuSans-31" d="M 794 531 
L 1825 531 
L 1825 4091 
L 703 3866 
L 703 4441 
L 1819 4666 
L 2450 4666 
L 2450 531 
L 3481 531 
L 3481 0 
L 794 0 
L 794 531 
z
" transform="scale(0.015625)"/>
        <path id="DejaVuSans-30" d="M 2034 4250 
Q 1547 4250 1301 3770 
Q 1056 3291 1056 2328 
Q 1056 1369 1301 889 
Q 1547 409 2034 409 
Q 2525 409 2770 889 
Q 3016 1369 3016 2328 
Q 3016 3291 2770 3770 
Q 2525 4250 2034 4250 
z
M 2034 4750 
Q 2819 4750 3233 4129 
Q 3647 3509 3647 2328 
Q 3647 1150 3233 529 
Q 2819 -91 2034 -91 
Q 1250 -91 836 529 
Q 422 1150 422 2328 
Q 422 3509 836 4129 
Q 1250 4750 2034 4750 
z
" transform="scale(0.015625)"/>
       </defs>
       <use xlink:href="#DejaVuSans-31" transform="translate(0 0.765625)"/>
       <use xlink:href="#DejaVuSans-30" transform="translate(63.623047 0.765625)"/>
       <use xlink:href="#DejaVuSans-30" transform="translate(128.203125 39.046875) scale(0.7)"/>
      </g>
     </g>
    </g>
    <g id="xtick_2">
     <g id="text_2">
      <!-- $\mathdefault{10^{1}}$ -->
      <g style="fill: #262626" transform="translate(222.068323 302.258281) scale(0.11 -0.11)">
       <use xlink:href="#DejaVuSans-31" transform="translate(0 0.684375)"/>
       <use xlink:href="#DejaVuSans-30" transform="translate(63.623047 0.684375)"/>
       <use xlink:href="#DejaVuSans-31" transform="translate(128.203125 38.965625) scale(0.7)"/>
      </g>
     </g>
    </g>
    <g id="xtick_3">
     <g id="text_3">
      <!-- $\mathdefault{10^{2}}$ -->
      <g style="fill: #262626" transform="translate(400.002101 302.258281) scale(0.11 -0.11)">
       <defs>
        <path id="DejaVuSans-32" d="M 1228 531 
L 3431 531 
L 3431 0 
L 469 0 
L 469 531 
Q 828 903 1448 1529 
Q 2069 2156 2228 2338 
Q 2531 2678 2651 2914 
Q 2772 3150 2772 3378 
Q 2772 3750 2511 3984 
Q 2250 4219 1831 4219 
Q 1534 4219 1204 4116 
Q 875 4013 500 3803 
L 500 4441 
Q 881 4594 1212 4672 
Q 1544 4750 1819 4750 
Q 2544 4750 2975 4387 
Q 3406 4025 3406 3419 
Q 3406 3131 3298 2873 
Q 3191 2616 2906 2266 
Q 2828 2175 2409 1742 
Q 1991 1309 1228 531 
z
" transform="scale(0.015625)"/>
       </defs>
       <use xlink:href="#DejaVuSans-31" transform="translate(0 0.765625)"/>
       <use xlink:href="#DejaVuSans-30" transform="translate(63.623047 0.765625)"/>
       <use xlink:href="#DejaVuSans-32" transform="translate(128.203125 39.046875) scale(0.7)"/>
      </g>
     </g>
    </g>
    <g id="xtick_4"/>
    <g id="xtick_5"/>
    <g id="xtick_6"/>
    <g id="xtick_7"/>
    <g id="xtick_8"/>
    <g id="xtick_9"/>
    <g id="xtick_10"/>
    <g id="xtick_11"/>
    <g id="xtick_12"/>
    <g id="xtick_13"/>
    <g id="xtick_14"/>
    <g id="xtick_15"/>
    <g id="xtick_16"/>
    <g id="xtick_17"/>
    <g id="xtick_18"/>
    <g id="xtick_19"/>
    <g id="xtick_20"/>
    <g id="xtick_21"/>
   </g>
   <g id="matplotlib.axis_2">
    <g id="ytick_1">
     <g id="text_4">
      <!-- $\mathdefault{10^{0}}$ -->
      <g style="fill: #262626" transform="translate(7.2 234.828548) scale(0.11 -0.11)">
       <use xlink:href="#DejaVuSans-31" transform="translate(0 0.765625)"/>
       <use xlink:href="#DejaVuSans-30" transform="translate(63.623047 0.765625)"/>
       <use xlink:href="#DejaVuSans-30" transform="translate(128.203125 39.046875) scale(0.7)"/>
      </g>
     </g>
    </g>
    <g id="ytick_2">
     <g id="text_5">
      <!-- $\mathdefault{10^{1}}$ -->
      <g style="fill: #262626" transform="translate(7.2 145.701777) scale(0.11 -0.11)">
       <use xlink:href="#DejaVuSans-31" transform="translate(0 0.684375)"/>
       <use xlink:href="#DejaVuSans-30" transform="translate(63.623047 0.684375)"/>
       <use xlink:href="#DejaVuSans-31" transform="translate(128.203125 38.965625) scale(0.7)"/>
      </g>
     </g>
    </g>
    <g id="ytick_3">
     <g id="text_6">
      <!-- $\mathdefault{10^{2}}$ -->
      <g style="fill: #262626" transform="translate(7.2 56.575005) scale(0.11 -0.11)">
       <use xlink:href="#DejaVuSans-31" transform="translate(0 0.765625)"/>
       <use xlink:href="#DejaVuSans-30" transform="translate(63.623047 0.765625)"/>
       <use xlink:href="#DejaVuSans-32" transform="translate(128.203125 39.046875) scale(0.7)"/>
      </g>
     </g>
    </g>
    <g id="ytick_4"/>
    <g id="ytick_5"/>
    <g id="ytick_6"/>
    <g id="ytick_7"/>
    <g id="ytick_8"/>
    <g id="ytick_9"/>
    <g id="ytick_10"/>
    <g id="ytick_11"/>
    <g id="ytick_12"/>
    <g id="ytick_13"/>
    <g id="ytick_14"/>
    <g id="ytick_15"/>
    <g id="ytick_16"/>
    <g id="ytick_17"/>
    <g id="ytick_18"/>
    <g id="ytick_19"/>
    <g id="ytick_20"/>
    <g id="ytick_21"/>
    <g id="ytick_22"/>
    <g id="ytick_23"/>
    <g id="ytick_24"/>
    <g id="ytick_25"/>
    <g id="ytick_26"/>
    <g id="ytick_27"/>
    <g id="ytick_28"/>
   </g>
   <g id="line2d_1">
    <path d="M -1 23.587636 
L 53.814545 23.588803 
L 107.37795 26.231201 
L 138.710533 27.563424 
L 160.941354 30.891071 
L 178.184919 32.787343 
L 192.273937 36.189942 
L 204.186032 37.225082 
L 214.504758 39.992221 
L 223.60652 42.973282 
L 231.748323 44.222189 
L 239.11348 47.839762 
L 245.837341 48.825885 
L 252.022694 50.434276 
L 257.749437 54.085517 
L 263.080906 55.343901 
L 268.068163 58.430279 
L 272.75297 60.249359 
L 277.169924 62.042215 
L 281.348004 64.112334 
L 285.311727 67.159902 
L 289.08202 70.242603 
L 292.676884 71.105268 
L 296.111924 72.83578 
L 299.400746 74.299751 
L 302.555292 77.590863 
L 305.586099 80.426849 
L 308.502507 81.461828 
L 311.312841 91.587843 
L 314.024546 92.750655 
L 316.64431 109.618061 
L 319.178166 111.069708 
L 321.631567 111.88023 
L 324.009467 113.145225 
L 326.316375 113.492051 
L 328.556406 115.251862 
L 330.733329 115.417438 
L 332.850602 116.101298 
L 334.911409 117.247788 
L 336.918682 118.515896 
L 338.875132 119.046103 
L 340.78327 119.909592 
L 342.645424 120.742416 
L 344.463759 121.546291 
L 346.240289 122.046992 
L 347.976893 123.682628 
L 349.675328 123.954607 
L 351.337234 126.799555 
L 352.96415 127.948368 
L 354.557519 129.002616 
L 356.118697 130.166349 
L 357.648958 131.121974 
L 359.149503 134.209862 
L 360.621465 135.948924 
L 362.065912 137.661816 
L 363.483853 138.154645 
L 364.876245 138.894574 
L 366.243992 141.311305 
L 367.58795 144.242581 
L 368.908934 144.339212 
L 370.207715 145.45637 
L 371.485027 145.901422 
L 372.74157 146.638768 
L 373.978007 150.400101 
L 375.194971 151.486279 
L 376.393068 152.779321 
L 377.572872 153.968783 
L 378.734933 156.489371 
L 379.879779 159.935703 
L 381.007911 160.897236 
L 382.11981 161.871165 
L 383.215937 164.275265 
L 384.296733 165.869402 
L 385.362621 167.922913 
L 386.414007 169.947834 
L 387.451279 173.14312 
L 388.474813 176.711052 
L 389.484967 179.620725 
L 390.482086 180.444371 
L 391.466502 181.970045 
L 392.438536 186.206119 
L 393.398495 188.954241 
L 394.346674 190.883813 
L 395.28336 193.336189 
L 396.208828 197.063851 
L 397.123344 199.414213 
L 398.027163 202.42911 
L 398.920533 203.590727 
L 399.803693 210.944656 
L 400.676874 217.492286 
L 401.540298 221.225661 
L 402.394181 225.798243 
L 403.238732 231.403545 
L 404.074153 233.918956 
L 404.900638 242.755035 
L 405.718378 246.215327 
L 406.527554 251.074154 
L 407.328346 260.110623 
L 408.120923 265.751707 
L 408.905455 270.894465 
" clip-path="url(#pbc576e2ee8)" style="fill: none; stroke: #4c72b0; stroke-width: 1.5; stroke-linecap: round"/>
   </g>
   <g id="line2d_2">
    <path d="M -1 23.96913 
L 53.814545 23.970342 
L 107.37795 26.324585 
L 138.710533 27.26223 
L 160.941354 31.217642 
L 178.184919 32.895947 
L 192.273937 36.349804 
L 204.186032 37.271132 
L 214.504758 39.829729 
L 223.60652 42.93454 
L 231.748323 44.104798 
L 239.11348 47.49639 
L 245.837341 48.770446 
L 252.022694 50.391695 
L 257.749437 53.86139 
L 263.080906 55.188457 
L 268.068163 58.734205 
L 272.75297 60.51891 
L 277.169924 62.064357 
L 281.348004 64.195493 
L 285.311727 67.238262 
L 289.08202 69.793285 
L 292.676884 71.062792 
L 296.111924 72.710651 
L 299.400746 73.9601 
L 302.555292 77.58098 
L 305.586099 80.970501 
L 308.502507 81.554973 
L 311.312841 90.86705 
L 314.024546 92.165357 
L 316.64431 109.754583 
L 319.178166 110.887587 
L 321.631567 112.35546 
L 324.009467 113.140364 
L 326.316375 113.375031 
L 328.556406 114.558305 
L 330.733329 115.569294 
L 332.850602 115.882524 
L 334.911409 116.492684 
L 336.918682 117.85167 
L 338.875132 118.701155 
L 340.78327 119.854445 
L 342.645424 120.721662 
L 344.463759 121.228758 
L 346.240289 121.656649 
L 347.976893 123.700318 
L 349.675328 125.859413 
L 351.337234 127.818134 
L 352.96415 128.256351 
L 354.557519 128.683061 
L 356.118697 129.638434 
L 357.648958 130.290339 
L 359.149503 133.77226 
L 360.621465 134.897901 
L 362.065912 137.065172 
L 363.483853 137.435705 
L 364.876245 138.790533 
L 366.243992 141.013524 
L 367.58795 143.484501 
L 368.908934 144.509998 
L 370.207715 145.783195 
L 371.485027 146.199363 
L 372.74157 146.923673 
L 373.978007 148.443264 
L 375.194971 151.184222 
L 376.393068 152.551798 
L 377.572872 153.992893 
L 378.734933 155.694924 
L 379.879779 159.061567 
L 381.007911 161.380942 
L 382.11981 161.757009 
L 383.215937 163.474986 
L 384.296733 166.689543 
L 385.362621 168.286165 
L 386.414007 171.180346 
L 387.451279 173.665887 
L 388.474813 177.551669 
L 389.484967 178.558095 
L 390.482086 180.04691 
L 391.466502 182.83986 
L 392.438536 186.593214 
L 393.398495 189.294739 
L 394.346674 190.036475 
L 395.28336 192.116422 
L 396.208828 197.485357 
L 397.123344 199.079954 
L 398.027163 203.154758 
L 398.920533 203.876146 
L 399.803693 211.121755 
L 400.676874 215.726351 
L 401.540298 222.471483 
L 402.394181 225.382995 
L 403.238732 231.813242 
L 404.074153 234.581228 
L 404.900638 243.079335 
L 405.718378 245.593708 
L 406.527554 250.701115 
L 407.328346 260.865687 
L 408.120923 265.639327 
L 408.905455 271.8 
" clip-path="url(#pbc576e2ee8)" style="fill: none; stroke: #dd8452; stroke-width: 1.5; stroke-linecap: round"/>
   </g>
   <g id="patch_3">
    <path d="M 36.06 284.4 
L 36.06 7.2 
" style="fill: none; stroke: #262626; stroke-width: 1.25; stroke-linejoin: miter; stroke-linecap: square"/>
   </g>
   <g id="patch_4">
    <path d="M 426.66 284.4 
L 426.66 7.2 
" style="fill: none; stroke: #262626; stroke-width: 1.25; stroke-linejoin: miter; stroke-linecap: square"/>
   </g>
   <g id="patch_5">
    <path d="M 36.06 284.4 
L 426.66 284.4 
" style="fill: none; stroke: #262626; stroke-width: 1.25; stroke-linejoin: miter; stroke-linecap: square"/>
   </g>
   <g id="patch_6">
    <path d="M 36.06 7.2 
L 426.66 7.2 
" style="fill: none; stroke: #262626; stroke-width: 1.25; stroke-linejoin: miter; stroke-linecap: square"/>
   </g>
  </g>
 </g>
 <defs>
  <clipPath id="pbc576e2ee8">
   <rect x="36.06" y="7.2" width="390.6" height="277.2"/>
  </clipPath>
 </defs>
</svg>
