<?xml version="1.0" encoding="utf-8" standalone="no"?>
<!DOCTYPE svg PUBLIC "-//W3C//DTD SVG 1.1//EN"
  "http://www.w3.org/Graphics/SVG/1.1/DTD/svg11.dtd">
<svg xmlns:xlink="http://www.w3.org/1999/xlink" width="467.607187pt" height="347.359688pt" viewBox="0 0 467.607187 347.359688" xmlns="http://www.w3.org/2000/svg" version="1.1">
 <metadata>
  <rdf:RDF xmlns:dc="http://purl.org/dc/elements/1.1/" xmlns:cc="http://creativecommons.org/ns#" xmlns:rdf="http://www.w3.org/1999/02/22-rdf-syntax-ns#">
   <cc:Work>
    <dc:type rdf:resource="http://purl.org/dc/dcmitype/StillImage"/>
    <dc:date>2023-08-16T00:07:16.113837</dc:date>
    <dc:format>image/svg+xml</dc:format>
    <dc:creator>
     <cc:Agent>
      <dc:title>Matplotlib v3.7.2, https://matplotlib.org/</dc:title>
     </cc:Agent>
    </dc:creator>
   </cc:Work>
  </rdf:RDF>
 </metadata>
 <defs>
  <style type="text/css">*{stroke-linejoin: round; stroke-linecap: butt}</style>
 </defs>
 <g id="figure_1">
  <g id="patch_1">
   <path d="M 0 347.359688 
L 467.607187 347.359688 
L 467.607187 0 
L 0 0 
z
" style="fill: #ffffff"/>
  </g>
  <g id="axes_1">
   <g id="patch_2">
    <path d="M 69.807187 284.4 
L 460.407188 284.4 
L 460.407188 7.2 
L 69.807187 7.2 
z
" style="fill: #ffffff"/>
   </g>
   <g id="matplotlib.axis_1">
    <g id="xtick_1">
     <g id="text_1">
      <!-- 0 -->
      <g style="fill: #262626" transform="translate(83.350753 322.258281) scale(0.11 -0.11)">
       <defs>
        <path id="DejaVuSans-30" d="M 2034 4250 
Q 1547 4250 1301 3770 
Q 1056 3291 1056 2328 
Q 1056 1369 1301 889 
Q 1547 409 2034 409 
Q 2525 409 2770 889 
Q 3016 1369 3016 2328 
Q 3016 3291 2770 3770 
Q 2525 4250 2034 4250 
z
M 2034 4750 
Q 2819 4750 3233 4129 
Q 3647 3509 3647 2328 
Q 3647 1150 3233 529 
Q 2819 -91 2034 -91 
Q 1250 -91 836 529 
Q 422 1150 422 2328 
Q 422 3509 836 4129 
Q 1250 4750 2034 4750 
z
" transform="scale(0.015625)"/>
       </defs>
       <use xlink:href="#DejaVuSans-30"/>
      </g>
     </g>
    </g>
    <g id="xtick_2">
     <g id="text_2">
      <!-- 100 -->
      <g style="fill: #262626" transform="translate(147.512506 322.258281) scale(0.11 -0.11)">
       <defs>
        <path id="DejaVuSans-31" d="M 794 531 
L 1825 531 
L 1825 4091 
L 703 3866 
L 703 4441 
L 1819 4666 
L 2450 4666 
L 2450 531 
L 3481 531 
L 3481 0 
L 794 0 
L 794 531 
z
" transform="scale(0.015625)"/>
       </defs>
       <use xlink:href="#DejaVuSans-31"/>
       <use xlink:href="#DejaVuSans-30" x="63.623047"/>
       <use xlink:href="#DejaVuSans-30" x="127.246094"/>
      </g>
     </g>
    </g>
    <g id="xtick_3">
     <g id="text_3">
      <!-- 200 -->
      <g style="fill: #262626" transform="translate(218.673009 322.258281) scale(0.11 -0.11)">
       <defs>
        <path id="DejaVuSans-32" d="M 1228 531 
L 3431 531 
L 3431 0 
L 469 0 
L 469 531 
Q 828 903 1448 1529 
Q 2069 2156 2228 2338 
Q 2531 2678 2651 2914 
Q 2772 3150 2772 3378 
Q 2772 3750 2511 3984 
Q 2250 4219 1831 4219 
Q 1534 4219 1204 4116 
Q 875 4013 500 3803 
L 500 4441 
Q 881 4594 1212 4672 
Q 1544 4750 1819 4750 
Q 2544 4750 2975 4387 
Q 3406 4025 3406 3419 
Q 3406 3131 3298 2873 
Q 3191 2616 2906 2266 
Q 2828 2175 2409 1742 
Q 1991 1309 1228 531 
z
" transform="scale(0.015625)"/>
       </defs>
       <use xlink:href="#DejaVuSans-32"/>
       <use xlink:href="#DejaVuSans-30" x="63.623047"/>
       <use xlink:href="#DejaVuSans-30" x="127.246094"/>
      </g>
     </g>
    </g>
    <g id="xtick_4">
     <g id="text_4">
      <!-- 300 -->
      <g style="fill: #262626" transform="translate(289.833511 322.258281) scale(0.11 -0.11)">
       <defs>
        <path id="DejaVuSans-33" d="M 2597 2516 
Q 3050 2419 3304 2112 
Q 3559 1806 3559 1356 
Q 3559 666 3084 287 
Q 2609 -91 1734 -91 
Q 1441 -91 1130 -33 
Q 819 25 488 141 
L 488 750 
Q 750 597 1062 519 
Q 1375 441 1716 441 
Q 2309 441 2620 675 
Q 2931 909 2931 1356 
Q 2931 1769 2642 2001 
Q 2353 2234 1838 2234 
L 1294 2234 
L 1294 2753 
L 1863 2753 
Q 2328 2753 2575 2939 
Q 2822 3125 2822 3475 
Q 2822 3834 2567 4026 
Q 2313 4219 1838 4219 
Q 1578 4219 1281 4162 
Q 984 4106 628 3988 
L 628 4550 
Q 988 4650 1302 4700 
Q 1616 4750 1894 4750 
Q 2613 4750 3031 4423 
Q 3450 4097 3450 3541 
Q 3450 3153 3228 2886 
Q 3006 2619 2597 2516 
z
" transform="scale(0.015625)"/>
       </defs>
       <use xlink:href="#DejaVuSans-33"/>
       <use xlink:href="#DejaVuSans-30" x="63.623047"/>
       <use xlink:href="#DejaVuSans-30" x="127.246094"/>
      </g>
     </g>
    </g>
    <g id="xtick_5">
     <g id="text_5">
      <!-- 400 -->
      <g style="fill: #262626" transform="translate(360.994014 322.258281) scale(0.11 -0.11)">
       <defs>
        <path id="DejaVuSans-34" d="M 2419 4116 
L 825 1625 
L 2419 1625 
L 2419 4116 
z
M 2253 4666 
L 3047 4666 
L 3047 1625 
L 3713 1625 
L 3713 1100 
L 3047 1100 
L 3047 0 
L 2419 0 
L 2419 1100 
L 313 1100 
L 313 1709 
L 2253 4666 
z
" transform="scale(0.015625)"/>
       </defs>
       <use xlink:href="#DejaVuSans-34"/>
       <use xlink:href="#DejaVuSans-30" x="63.623047"/>
       <use xlink:href="#DejaVuSans-30" x="127.246094"/>
      </g>
     </g>
    </g>
    <g id="xtick_6">
     <g id="text_6">
      <!-- 500 -->
      <g style="fill: #262626" transform="translate(432.154517 322.258281) scale(0.11 -0.11)">
       <defs>
        <path id="DejaVuSans-35" d="M 691 4666 
L 3169 4666 
L 3169 4134 
L 1269 4134 
L 1269 2991 
Q 1406 3038 1543 3061 
Q 1681 3084 1819 3084 
Q 2600 3084 3056 2656 
Q 3513 2228 3513 1497 
Q 3513 744 3044 326 
Q 2575 -91 1722 -91 
Q 1428 -91 1123 -41 
Q 819 9 494 109 
L 494 744 
Q 775 591 1075 516 
Q 1375 441 1709 441 
Q 2250 441 2565 725 
Q 2881 1009 2881 1497 
Q 2881 1984 2565 2268 
Q 2250 2553 1709 2553 
Q 1456 2553 1204 2497 
Q 953 2441 691 2322 
L 691 4666 
z
" transform="scale(0.015625)"/>
       </defs>
       <use xlink:href="#DejaVuSans-35"/>
       <use xlink:href="#DejaVuSans-30" x="63.623047"/>
       <use xlink:href="#DejaVuSans-30" x="127.246094"/>
      </g>
     </g>
    </g>
    <g id="text_7">
     <!-- rank -->
     <g style="fill: #262626" transform="translate(251.686875 337.664062) scale(0.12 -0.12)">
      <defs>
       <path id="DejaVuSans-72" d="M 2631 2963 
Q 2534 3019 2420 3045 
Q 2306 3072 2169 3072 
Q 1681 3072 1420 2755 
Q 1159 2438 1159 1844 
L 1159 0 
L 581 0 
L 581 3500 
L 1159 3500 
L 1159 2956 
Q 1341 3275 1631 3429 
Q 1922 3584 2338 3584 
Q 2397 3584 2469 3576 
Q 2541 3569 2628 3553 
L 2631 2963 
z
" transform="scale(0.015625)"/>
       <path id="DejaVuSans-61" d="M 2194 1759 
Q 1497 1759 1228 1600 
Q 959 1441 959 1056 
Q 959 750 1161 570 
Q 1363 391 1709 391 
Q 2188 391 2477 730 
Q 2766 1069 2766 1631 
L 2766 1759 
L 2194 1759 
z
M 3341 1997 
L 3341 0 
L 2766 0 
L 2766 531 
Q 2569 213 2275 61 
Q 1981 -91 1556 -91 
Q 1019 -91 701 211 
Q 384 513 384 1019 
Q 384 1609 779 1909 
Q 1175 2209 1959 2209 
L 2766 2209 
L 2766 2266 
Q 2766 2663 2505 2880 
Q 2244 3097 1772 3097 
Q 1472 3097 1187 3025 
Q 903 2953 641 2809 
L 641 3341 
Q 956 3463 1253 3523 
Q 1550 3584 1831 3584 
Q 2591 3584 2966 3190 
Q 3341 2797 3341 1997 
z
" transform="scale(0.015625)"/>
       <path id="DejaVuSans-6e" d="M 3513 2113 
L 3513 0 
L 2938 0 
L 2938 2094 
Q 2938 2591 2744 2837 
Q 2550 3084 2163 3084 
Q 1697 3084 1428 2787 
Q 1159 2491 1159 1978 
L 1159 0 
L 581 0 
L 581 3500 
L 1159 3500 
L 1159 2956 
Q 1366 3272 1645 3428 
Q 1925 3584 2291 3584 
Q 2894 3584 3203 3211 
Q 3513 2838 3513 2113 
z
" transform="scale(0.015625)"/>
       <path id="DejaVuSans-6b" d="M 581 4863 
L 1159 4863 
L 1159 1991 
L 2875 3500 
L 3609 3500 
L 1753 1863 
L 3688 0 
L 2938 0 
L 1159 1709 
L 1159 0 
L 581 0 
L 581 4863 
z
" transform="scale(0.015625)"/>
      </defs>
      <use xlink:href="#DejaVuSans-72"/>
      <use xlink:href="#DejaVuSans-61" x="41.113281"/>
      <use xlink:href="#DejaVuSans-6e" x="102.392578"/>
      <use xlink:href="#DejaVuSans-6b" x="165.771484"/>
     </g>
    </g>
   </g>
   <g id="matplotlib.axis_2">
    <g id="ytick_1">
     <g id="text_8">
      <!-- 0.0 -->
      <g style="fill: #262626" transform="translate(22.81375 275.979141) scale(0.11 -0.11)">
       <defs>
        <path id="DejaVuSans-2e" d="M 684 794 
L 1344 794 
L 1344 0 
L 684 0 
L 684 794 
z
" transform="scale(0.015625)"/>
       </defs>
       <use xlink:href="#DejaVuSans-30"/>
       <use xlink:href="#DejaVuSans-2e" x="63.623047"/>
       <use xlink:href="#DejaVuSans-30" x="95.410156"/>
      </g>
     </g>
    </g>
    <g id="ytick_2">
     <g id="text_9">
      <!-- 0.5 -->
      <g style="fill: #262626" transform="translate(22.81375 244.527506) scale(0.11 -0.11)">
       <use xlink:href="#DejaVuSans-30"/>
       <use xlink:href="#DejaVuSans-2e" x="63.623047"/>
       <use xlink:href="#DejaVuSans-35" x="95.410156"/>
      </g>
     </g>
    </g>
    <g id="ytick_3">
     <g id="text_10">
      <!-- 1.0 -->
      <g style="fill: #262626" transform="translate(22.81375 213.075872) scale(0.11 -0.11)">
       <use xlink:href="#DejaVuSans-31"/>
       <use xlink:href="#DejaVuSans-2e" x="63.623047"/>
       <use xlink:href="#DejaVuSans-30" x="95.410156"/>
      </g>
     </g>
    </g>
    <g id="ytick_4">
     <g id="text_11">
      <!-- 1.5 -->
      <g style="fill: #262626" transform="translate(22.81375 181.624237) scale(0.11 -0.11)">
       <use xlink:href="#DejaVuSans-31"/>
       <use xlink:href="#DejaVuSans-2e" x="63.623047"/>
       <use xlink:href="#DejaVuSans-35" x="95.410156"/>
      </g>
     </g>
    </g>
    <g id="ytick_5">
     <g id="text_12">
      <!-- 2.0 -->
      <g style="fill: #262626" transform="translate(22.81375 150.172603) scale(0.11 -0.11)">
       <use xlink:href="#DejaVuSans-32"/>
       <use xlink:href="#DejaVuSans-2e" x="63.623047"/>
       <use xlink:href="#DejaVuSans-30" x="95.410156"/>
      </g>
     </g>
    </g>
    <g id="ytick_6">
     <g id="text_13">
      <!-- 2.5 -->
      <g style="fill: #262626" transform="translate(22.81375 118.720968) scale(0.11 -0.11)">
       <use xlink:href="#DejaVuSans-32"/>
       <use xlink:href="#DejaVuSans-2e" x="63.623047"/>
       <use xlink:href="#DejaVuSans-35" x="95.410156"/>
      </g>
     </g>
    </g>
    <g id="ytick_7">
     <g id="text_14">
      <!-- 3.0 -->
      <g style="fill: #262626" transform="translate(22.81375 87.269334) scale(0.11 -0.11)">
       <use xlink:href="#DejaVuSans-33"/>
       <use xlink:href="#DejaVuSans-2e" x="63.623047"/>
       <use xlink:href="#DejaVuSans-30" x="95.410156"/>
      </g>
     </g>
    </g>
    <g id="ytick_8">
     <g id="text_15">
      <!-- 3.5 -->
      <g style="fill: #262626" transform="translate(22.81375 55.817699) scale(0.11 -0.11)">
       <use xlink:href="#DejaVuSans-33"/>
       <use xlink:href="#DejaVuSans-2e" x="63.623047"/>
       <use xlink:href="#DejaVuSans-35" x="95.410156"/>
      </g>
     </g>
    </g>
    <g id="ytick_9">
     <g id="text_16">
      <!-- 4.0 -->
      <g style="fill: #262626" transform="translate(22.81375 24.366065) scale(0.11 -0.11)">
       <use xlink:href="#DejaVuSans-34"/>
       <use xlink:href="#DejaVuSans-2e" x="63.623047"/>
       <use xlink:href="#DejaVuSans-30" x="95.410156"/>
      </g>
     </g>
    </g>
    <g id="text_17">
     <!-- eigenvalue -->
     <g style="fill: #262626" transform="translate(16.318125 178.851562) rotate(-90) scale(0.12 -0.12)">
      <defs>
       <path id="DejaVuSans-65" d="M 3597 1894 
L 3597 1613 
L 953 1613 
Q 991 1019 1311 708 
Q 1631 397 2203 397 
Q 2534 397 2845 478 
Q 3156 559 3463 722 
L 3463 178 
Q 3153 47 2828 -22 
Q 2503 -91 2169 -91 
Q 1331 -91 842 396 
Q 353 884 353 1716 
Q 353 2575 817 3079 
Q 1281 3584 2069 3584 
Q 2775 3584 3186 3129 
Q 3597 2675 3597 1894 
z
M 3022 2063 
Q 3016 2534 2758 2815 
Q 2500 3097 2075 3097 
Q 1594 3097 1305 2825 
Q 1016 2553 972 2059 
L 3022 2063 
z
" transform="scale(0.015625)"/>
       <path id="DejaVuSans-69" d="M 603 3500 
L 1178 3500 
L 1178 0 
L 603 0 
L 603 3500 
z
M 603 4863 
L 1178 4863 
L 1178 4134 
L 603 4134 
L 603 4863 
z
" transform="scale(0.015625)"/>
       <path id="DejaVuSans-67" d="M 2906 1791 
Q 2906 2416 2648 2759 
Q 2391 3103 1925 3103 
Q 1463 3103 1205 2759 
Q 947 2416 947 1791 
Q 947 1169 1205 825 
Q 1463 481 1925 481 
Q 2391 481 2648 825 
Q 2906 1169 2906 1791 
z
M 3481 434 
Q 3481 -459 3084 -895 
Q 2688 -1331 1869 -1331 
Q 1566 -1331 1297 -1286 
Q 1028 -1241 775 -1147 
L 775 -588 
Q 1028 -725 1275 -790 
Q 1522 -856 1778 -856 
Q 2344 -856 2625 -561 
Q 2906 -266 2906 331 
L 2906 616 
Q 2728 306 2450 153 
Q 2172 0 1784 0 
Q 1141 0 747 490 
Q 353 981 353 1791 
Q 353 2603 747 3093 
Q 1141 3584 1784 3584 
Q 2172 3584 2450 3431 
Q 2728 3278 2906 2969 
L 2906 3500 
L 3481 3500 
L 3481 434 
z
" transform="scale(0.015625)"/>
       <path id="DejaVuSans-76" d="M 191 3500 
L 800 3500 
L 1894 563 
L 2988 3500 
L 3597 3500 
L 2284 0 
L 1503 0 
L 191 3500 
z
" transform="scale(0.015625)"/>
       <path id="DejaVuSans-6c" d="M 603 4863 
L 1178 4863 
L 1178 0 
L 603 0 
L 603 4863 
z
" transform="scale(0.015625)"/>
       <path id="DejaVuSans-75" d="M 544 1381 
L 544 3500 
L 1119 3500 
L 1119 1403 
Q 1119 906 1312 657 
Q 1506 409 1894 409 
Q 2359 409 2629 706 
Q 2900 1003 2900 1516 
L 2900 3500 
L 3475 3500 
L 3475 0 
L 2900 0 
L 2900 538 
Q 2691 219 2414 64 
Q 2138 -91 1772 -91 
Q 1169 -91 856 284 
Q 544 659 544 1381 
z
M 1991 3584 
L 1991 3584 
z
" transform="scale(0.015625)"/>
      </defs>
      <use xlink:href="#DejaVuSans-65"/>
      <use xlink:href="#DejaVuSans-69" x="61.523438"/>
      <use xlink:href="#DejaVuSans-67" x="89.306641"/>
      <use xlink:href="#DejaVuSans-65" x="152.783203"/>
      <use xlink:href="#DejaVuSans-6e" x="214.306641"/>
      <use xlink:href="#DejaVuSans-76" x="277.685547"/>
      <use xlink:href="#DejaVuSans-61" x="336.865234"/>
      <use xlink:href="#DejaVuSans-6c" x="398.144531"/>
      <use xlink:href="#DejaVuSans-75" x="425.927734"/>
      <use xlink:href="#DejaVuSans-65" x="489.306641"/>
     </g>
    </g>
   </g>
   <g id="PolyCollection_1">
    <defs>
     <path id="mbbb19013ab" d="M 87.561733 -327.559687 
L 87.561733 -321.547425 
L 88.273338 -316.433601 
L 88.984943 -313.039942 
L 89.696548 -310.018275 
L 90.408153 -306.997234 
L 91.119758 -304.218266 
L 91.831363 -301.777543 
L 92.542968 -299.765187 
L 93.254573 -297.410155 
L 93.966178 -294.894757 
L 94.677783 -292.747831 
L 95.389388 -290.937682 
L 96.100993 -289.116801 
L 96.812598 -287.146549 
L 97.524203 -285.638743 
L 98.235808 -283.802887 
L 98.947413 -282.113565 
L 99.659018 -280.335028 
L 100.370623 -278.906528 
L 101.082228 -277.002641 
L 101.793834 -275.413487 
L 102.505439 -274.276146 
L 103.217044 -272.638024 
L 103.928649 -271.354063 
L 104.640254 -269.894111 
L 105.351859 -268.360811 
L 106.063464 -266.917896 
L 106.775069 -265.497738 
L 107.486674 -264.025237 
L 108.198279 -262.708345 
L 108.909884 -261.024181 
L 109.621489 -259.684044 
L 110.333094 -258.307327 
L 111.044699 -256.996459 
L 111.756304 -255.78542 
L 112.467909 -254.651356 
L 113.179514 -253.554501 
L 113.891119 -252.536944 
L 114.602724 -251.246239 
L 115.314329 -249.916111 
L 116.025934 -248.74078 
L 116.737539 -247.622126 
L 117.449144 -246.4146 
L 118.160749 -245.150156 
L 118.872354 -244.069962 
L 119.583959 -242.961264 
L 120.295564 -241.848708 
L 121.007169 -240.753445 
L 121.718774 -239.532123 
L 122.430379 -238.459093 
L 123.141984 -237.607207 
L 123.853589 -236.464927 
L 124.565194 -235.297516 
L 125.276799 -234.178004 
L 125.988404 -233.149238 
L 126.70001 -232.237416 
L 127.411615 -231.117054 
L 128.12322 -230.12981 
L 128.834825 -229.171537 
L 129.54643 -228.226684 
L 130.258035 -227.211045 
L 130.96964 -226.261207 
L 131.681245 -225.203405 
L 132.39285 -224.354981 
L 133.104455 -223.301219 
L 133.81606 -222.461739 
L 134.527665 -221.516917 
L 135.23927 -220.679569 
L 135.950875 -219.726741 
L 136.66248 -218.830578 
L 137.374085 -217.698117 
L 138.08569 -216.90946 
L 138.797295 -216.017809 
L 139.5089 -215.124518 
L 140.220505 -214.214922 
L 140.93211 -213.330435 
L 141.643715 -212.499722 
L 142.35532 -211.71191 
L 143.066925 -210.888815 
L 143.77853 -209.980062 
L 144.490135 -209.093643 
L 145.20174 -208.089053 
L 145.913345 -207.330152 
L 146.62495 -206.504165 
L 147.336555 -205.698159 
L 148.04816 -204.916012 
L 148.759765 -204.094739 
L 149.47137 -203.276319 
L 150.182975 -202.530881 
L 150.89458 -201.751002 
L 151.606185 -200.964571 
L 152.317791 -200.186946 
L 153.029396 -199.418359 
L 153.741001 -198.651971 
L 154.452606 -197.843129 
L 155.164211 -197.052219 
L 155.875816 -196.259672 
L 156.587421 -195.526572 
L 157.299026 -194.722712 
L 158.010631 -194.033242 
L 158.722236 -193.420859 
L 159.433841 -192.641991 
L 160.145446 -191.986981 
L 160.857051 -191.120888 
L 161.568656 -190.31004 
L 162.280261 -189.618702 
L 162.991866 -188.931984 
L 163.703471 -188.20909 
L 164.415076 -187.454712 
L 165.126681 -186.746765 
L 165.838286 -186.087826 
L 166.549891 -185.32884 
L 167.261496 -184.764473 
L 167.973101 -183.994577 
L 168.684706 -183.256541 
L 169.396311 -182.605625 
L 170.107916 -181.950948 
L 170.819521 -181.204508 
L 171.531126 -180.446701 
L 172.242731 -179.880567 
L 172.954336 -179.170377 
L 173.665941 -178.399203 
L 174.377546 -177.804473 
L 175.089151 -177.23788 
L 175.800756 -176.523441 
L 176.512361 -175.848565 
L 177.223967 -175.248128 
L 177.935572 -174.663249 
L 178.647177 -174.110723 
L 179.358782 -173.389119 
L 180.070387 -172.697501 
L 180.781992 -172.113952 
L 181.493597 -171.48251 
L 182.205202 -170.831734 
L 182.916807 -170.333729 
L 183.628412 -169.658188 
L 184.340017 -169.062967 
L 185.051622 -168.540219 
L 185.763227 -167.953825 
L 186.474832 -167.3157 
L 187.186437 -166.750147 
L 187.898042 -166.132453 
L 188.609647 -165.574197 
L 189.321252 -164.942322 
L 190.032857 -164.342763 
L 190.744462 -163.736803 
L 191.456067 -163.242805 
L 192.167672 -162.56949 
L 192.879277 -161.992151 
L 193.590882 -161.350148 
L 194.302487 -160.85877 
L 195.014092 -160.262279 
L 195.725697 -159.702475 
L 196.437302 -159.187991 
L 197.148907 -158.583835 
L 197.860512 -158.111229 
L 198.572117 -157.610456 
L 199.283722 -157.032623 
L 199.995327 -156.37939 
L 200.706932 -155.83633 
L 201.418537 -155.246502 
L 202.130143 -154.732437 
L 202.841748 -154.219996 
L 203.553353 -153.669537 
L 204.264958 -153.182657 
L 204.976563 -152.655189 
L 205.688168 -152.140673 
L 206.399773 -151.648195 
L 207.111378 -151.069419 
L 207.822983 -150.567047 
L 208.534588 -150.04306 
L 209.246193 -149.560621 
L 209.957798 -149.088475 
L 210.669403 -148.513519 
L 211.381008 -148.028005 
L 212.092613 -147.495444 
L 212.804218 -146.970121 
L 213.515823 -146.549612 
L 214.227428 -145.968386 
L 214.939033 -145.483684 
L 215.650638 -144.993881 
L 216.362243 -144.534676 
L 217.073848 -144.021995 
L 217.785453 -143.57077 
L 218.497058 -143.109828 
L 219.208663 -142.624254 
L 219.920268 -142.121767 
L 220.631873 -141.657872 
L 221.343478 -141.211546 
L 222.055083 -140.774532 
L 222.766688 -140.31718 
L 223.478293 -139.851751 
L 224.189898 -139.389647 
L 224.901503 -138.864514 
L 225.613108 -138.421234 
L 226.324713 -137.925893 
L 227.036318 -137.524032 
L 227.747924 -137.040087 
L 228.459529 -136.585818 
L 229.171134 -136.101926 
L 229.882739 -135.751291 
L 230.594344 -135.206869 
L 231.305949 -134.856441 
L 232.017554 -134.380909 
L 232.729159 -133.947128 
L 233.440764 -133.533517 
L 234.152369 -133.113876 
L 234.863974 -132.746346 
L 235.575579 -132.308386 
L 236.287184 -131.798007 
L 236.998789 -131.398474 
L 237.710394 -131.027755 
L 238.421999 -130.567904 
L 239.133604 -130.103248 
L 239.845209 -129.767703 
L 240.556814 -129.2776 
L 241.268419 -128.920249 
L 241.980024 -128.532676 
L 242.691629 -128.098998 
L 243.403234 -127.718274 
L 244.114839 -127.259427 
L 244.826444 -126.840638 
L 245.538049 -126.401203 
L 246.249654 -126.061147 
L 246.961259 -125.741207 
L 247.672864 -125.268462 
L 248.384469 -124.973602 
L 249.096074 -124.523556 
L 249.807679 -124.069945 
L 250.519284 -123.637448 
L 251.230889 -123.326975 
L 251.942494 -122.971706 
L 252.6541 -122.527238 
L 253.365705 -122.168758 
L 254.07731 -121.812488 
L 254.788915 -121.358207 
L 255.50052 -121.077657 
L 256.212125 -120.62913 
L 256.92373 -120.335508 
L 257.635335 -119.929037 
L 258.34694 -119.574686 
L 259.058545 -119.248663 
L 259.77015 -118.830943 
L 260.481755 -118.440196 
L 261.19336 -118.11848 
L 261.904965 -117.831431 
L 262.61657 -117.436314 
L 263.328175 -117.081563 
L 264.03978 -116.676453 
L 264.751385 -116.310097 
L 265.46299 -115.986738 
L 266.174595 -115.602368 
L 266.8862 -115.294827 
L 267.597805 -114.94322 
L 268.30941 -114.637842 
L 269.021015 -114.325073 
L 269.73262 -113.972941 
L 270.444225 -113.556425 
L 271.15583 -113.265089 
L 271.867435 -112.964354 
L 272.57904 -112.648957 
L 273.290645 -112.318368 
L 274.00225 -111.97586 
L 274.713855 -111.632585 
L 275.42546 -111.318249 
L 276.137065 -111.060948 
L 276.84867 -110.716893 
L 277.560275 -110.40596 
L 278.271881 -110.063357 
L 278.983486 -109.760607 
L 279.695091 -109.459173 
L 280.406696 -109.078847 
L 281.118301 -108.787716 
L 281.829906 -108.444162 
L 282.541511 -108.155297 
L 283.253116 -107.877964 
L 283.964721 -107.56068 
L 284.676326 -107.278522 
L 285.387931 -106.940771 
L 286.099536 -106.683021 
L 286.811141 -106.365136 
L 287.522746 -106.065973 
L 288.234351 -105.814865 
L 288.945956 -105.474523 
L 289.657561 -105.173424 
L 290.369166 -104.886524 
L 291.080771 -104.65465 
L 291.792376 -104.346104 
L 292.503981 -104.058459 
L 293.215586 -103.770445 
L 293.927191 -103.495806 
L 294.638796 -103.217048 
L 295.350401 -102.933764 
L 296.062006 -102.674992 
L 296.773611 -102.414187 
L 297.485216 -102.180561 
L 298.196821 -101.914349 
L 298.908426 -101.606936 
L 299.620031 -101.359385 
L 300.331636 -101.092296 
L 301.043241 -100.821683 
L 301.754846 -100.540993 
L 302.466451 -100.271068 
L 303.178057 -100.037988 
L 303.889662 -99.74435 
L 304.601267 -99.501414 
L 305.312872 -99.240165 
L 306.024477 -98.95515 
L 306.736082 -98.717075 
L 307.447687 -98.510563 
L 308.159292 -98.267791 
L 308.870897 -97.990391 
L 309.582502 -97.790632 
L 310.294107 -97.532972 
L 311.005712 -97.320533 
L 311.717317 -96.994574 
L 312.428922 -96.764812 
L 313.140527 -96.539658 
L 313.852132 -96.304555 
L 314.563737 -96.103116 
L 315.275342 -95.859637 
L 315.986947 -95.65115 
L 316.698552 -95.385426 
L 317.410157 -95.177575 
L 318.121762 -94.961509 
L 318.833367 -94.746554 
L 319.544972 -94.455362 
L 320.256577 -94.248907 
L 320.968182 -94.043852 
L 321.679787 -93.814804 
L 322.391392 -93.579494 
L 323.102997 -93.379597 
L 323.814602 -93.159412 
L 324.526207 -92.914229 
L 325.237812 -92.69552 
L 325.949417 -92.517111 
L 326.661022 -92.279315 
L 327.372627 -92.079229 
L 328.084232 -91.860457 
L 328.795838 -91.652976 
L 329.507443 -91.455121 
L 330.219048 -91.281736 
L 330.930653 -91.070817 
L 331.642258 -90.848705 
L 332.353863 -90.654438 
L 333.065468 -90.443782 
L 333.777073 -90.245484 
L 334.488678 -90.020103 
L 335.200283 -89.852554 
L 335.911888 -89.673104 
L 336.623493 -89.472179 
L 337.335098 -89.266945 
L 338.046703 -89.092298 
L 338.758308 -88.931623 
L 339.469913 -88.72235 
L 340.181518 -88.543431 
L 340.893123 -88.321297 
L 341.604728 -88.127822 
L 342.316333 -87.973541 
L 343.027938 -87.791534 
L 343.739543 -87.612164 
L 344.451148 -87.446207 
L 345.162753 -87.274107 
L 345.874358 -87.102781 
L 346.585963 -86.966504 
L 347.297568 -86.773549 
L 348.009173 -86.629693 
L 348.720778 -86.422214 
L 349.432383 -86.276732 
L 350.143988 -86.106608 
L 350.855593 -85.940654 
L 351.567198 -85.731041 
L 352.278803 -85.586873 
L 352.990408 -85.420939 
L 353.702014 -85.265532 
L 354.413619 -85.107592 
L 355.125224 -84.931555 
L 355.836829 -84.780594 
L 356.548434 -84.609695 
L 357.260039 -84.48342 
L 357.971644 -84.332827 
L 358.683249 -84.204257 
L 359.394854 -84.030533 
L 360.106459 -83.908527 
L 360.818064 -83.747013 
L 361.529669 -83.596354 
L 362.241274 -83.436536 
L 362.952879 -83.317914 
L 363.664484 -83.162339 
L 364.376089 -83.026445 
L 365.087694 -82.887811 
L 365.799299 -82.761493 
L 366.510904 -82.598561 
L 367.222509 -82.470363 
L 367.934114 -82.355935 
L 368.645719 -82.221569 
L 369.357324 -82.088748 
L 370.068929 -81.945655 
L 370.780534 -81.805087 
L 371.492139 -81.684575 
L 372.203744 -81.544335 
L 372.915349 -81.44464 
L 373.626954 -81.326297 
L 374.338559 -81.209975 
L 375.050164 -81.091362 
L 375.761769 -80.968367 
L 376.473374 -80.847804 
L 377.184979 -80.732988 
L 377.896584 -80.629475 
L 378.60819 -80.516195 
L 379.319795 -80.399224 
L 380.0314 -80.275706 
L 380.743005 -80.178726 
L 381.45461 -80.091088 
L 382.166215 -79.97155 
L 382.87782 -79.8771 
L 383.589425 -79.763463 
L 384.30103 -79.66693 
L 385.012635 -79.549193 
L 385.72424 -79.458871 
L 386.435845 -79.362207 
L 387.14745 -79.256725 
L 387.859055 -79.165636 
L 388.57066 -79.09366 
L 389.282265 -78.991425 
L 389.99387 -78.872243 
L 390.705475 -78.774339 
L 391.41708 -78.696021 
L 392.128685 -78.614745 
L 392.84029 -78.52644 
L 393.551895 -78.443739 
L 394.2635 -78.364281 
L 394.975105 -78.291748 
L 395.68671 -78.199239 
L 396.398315 -78.118426 
L 397.10992 -78.027741 
L 397.821525 -77.944495 
L 398.53313 -77.868119 
L 399.244735 -77.793378 
L 399.95634 -77.724122 
L 400.667945 -77.649154 
L 401.37955 -77.576596 
L 402.091155 -77.499792 
L 402.80276 -77.435834 
L 403.514365 -77.365631 
L 404.225971 -77.298745 
L 404.937576 -77.228123 
L 405.649181 -77.179467 
L 406.360786 -77.117007 
L 407.072391 -77.041718 
L 407.783996 -76.978941 
L 408.495601 -76.921405 
L 409.207206 -76.872366 
L 409.918811 -76.81911 
L 410.630416 -76.764082 
L 411.342021 -76.718916 
L 412.053626 -76.663593 
L 412.765231 -76.599266 
L 413.476836 -76.561047 
L 414.188441 -76.511347 
L 414.900046 -76.461232 
L 415.611651 -76.419854 
L 416.323256 -76.366616 
L 417.034861 -76.319448 
L 417.746466 -76.27814 
L 418.458071 -76.241474 
L 419.169676 -76.199449 
L 419.881281 -76.160308 
L 420.592886 -76.123752 
L 421.304491 -76.082387 
L 422.016096 -76.050596 
L 422.727701 -76.022524 
L 423.439306 -75.982145 
L 424.150911 -75.953396 
L 424.862516 -75.923411 
L 425.574121 -75.88819 
L 426.285726 -75.86287 
L 426.997331 -75.833291 
L 427.708936 -75.811544 
L 428.420541 -75.788557 
L 429.132147 -75.765503 
L 429.843752 -75.7453 
L 430.555357 -75.725554 
L 431.266962 -75.70451 
L 431.978567 -75.686857 
L 432.690172 -75.66882 
L 433.401777 -75.651541 
L 434.113382 -75.637999 
L 434.824987 -75.623088 
L 435.536592 -75.609154 
L 436.248197 -75.601156 
L 436.959802 -75.592636 
L 437.671407 -75.582934 
L 438.383012 -75.575614 
L 439.094617 -75.570005 
L 439.806222 -75.566134 
L 440.517827 -75.56268 
L 441.229432 -75.560436 
L 441.941037 -75.559747 
L 442.652642 -75.559687 
L 442.652642 -75.559687 
L 442.652642 -75.559687 
L 441.941037 -75.560578 
L 441.229432 -75.562972 
L 440.517827 -75.5661 
L 439.806222 -75.570582 
L 439.094617 -75.577319 
L 438.383012 -75.585878 
L 437.671407 -75.594252 
L 436.959802 -75.605845 
L 436.248197 -75.615306 
L 435.536592 -75.627063 
L 434.824987 -75.640168 
L 434.113382 -75.65587 
L 433.401777 -75.67139 
L 432.690172 -75.690852 
L 431.978567 -75.711265 
L 431.266962 -75.726292 
L 430.555357 -75.749699 
L 429.843752 -75.774763 
L 429.132147 -75.797838 
L 428.420541 -75.819039 
L 427.708936 -75.845655 
L 426.997331 -75.87383 
L 426.285726 -75.905307 
L 425.574121 -75.933753 
L 424.862516 -75.969039 
L 424.150911 -75.994368 
L 423.439306 -76.028756 
L 422.727701 -76.062531 
L 422.016096 -76.095717 
L 421.304491 -76.133828 
L 420.592886 -76.175467 
L 419.881281 -76.21687 
L 419.169676 -76.251739 
L 418.458071 -76.300186 
L 417.746466 -76.338334 
L 417.034861 -76.390175 
L 416.323256 -76.442338 
L 415.611651 -76.4854 
L 414.900046 -76.530899 
L 414.188441 -76.586014 
L 413.476836 -76.632138 
L 412.765231 -76.685391 
L 412.053626 -76.742347 
L 411.342021 -76.801216 
L 410.630416 -76.860137 
L 409.918811 -76.917426 
L 409.207206 -76.968962 
L 408.495601 -77.040022 
L 407.783996 -77.094205 
L 407.072391 -77.152389 
L 406.360786 -77.224652 
L 405.649181 -77.285243 
L 404.937576 -77.349663 
L 404.225971 -77.429096 
L 403.514365 -77.495462 
L 402.80276 -77.568601 
L 402.091155 -77.646234 
L 401.37955 -77.710963 
L 400.667945 -77.775884 
L 399.95634 -77.8474 
L 399.244735 -77.919146 
L 398.53313 -78.004722 
L 397.821525 -78.072274 
L 397.10992 -78.176195 
L 396.398315 -78.238968 
L 395.68671 -78.324601 
L 394.975105 -78.397892 
L 394.2635 -78.486566 
L 393.551895 -78.573114 
L 392.84029 -78.662002 
L 392.128685 -78.753273 
L 391.41708 -78.844686 
L 390.705475 -78.938839 
L 389.99387 -79.018596 
L 389.282265 -79.127777 
L 388.57066 -79.239698 
L 387.859055 -79.333162 
L 387.14745 -79.427099 
L 386.435845 -79.527426 
L 385.72424 -79.628318 
L 385.012635 -79.737155 
L 384.30103 -79.84541 
L 383.589425 -79.950358 
L 382.87782 -80.040455 
L 382.166215 -80.146712 
L 381.45461 -80.243859 
L 380.743005 -80.343334 
L 380.0314 -80.463186 
L 379.319795 -80.599339 
L 378.60819 -80.71259 
L 377.896584 -80.818725 
L 377.184979 -80.924495 
L 376.473374 -81.040193 
L 375.761769 -81.159683 
L 375.050164 -81.282218 
L 374.338559 -81.411238 
L 373.626954 -81.516247 
L 372.915349 -81.620974 
L 372.203744 -81.747514 
L 371.492139 -81.885023 
L 370.780534 -82.021612 
L 370.068929 -82.114423 
L 369.357324 -82.299895 
L 368.645719 -82.400895 
L 367.934114 -82.539578 
L 367.222509 -82.69434 
L 366.510904 -82.819455 
L 365.799299 -82.972122 
L 365.087694 -83.114448 
L 364.376089 -83.251337 
L 363.664484 -83.409755 
L 362.952879 -83.542884 
L 362.241274 -83.692408 
L 361.529669 -83.839573 
L 360.818064 -83.966204 
L 360.106459 -84.123161 
L 359.394854 -84.256062 
L 358.683249 -84.427218 
L 357.971644 -84.562362 
L 357.260039 -84.71288 
L 356.548434 -84.871085 
L 355.836829 -85.041329 
L 355.125224 -85.17841 
L 354.413619 -85.346349 
L 353.702014 -85.530851 
L 352.990408 -85.694338 
L 352.278803 -85.851888 
L 351.567198 -86.014451 
L 350.855593 -86.154413 
L 350.143988 -86.319532 
L 349.432383 -86.473577 
L 348.720778 -86.670632 
L 348.009173 -86.84696 
L 347.297568 -87.032109 
L 346.585963 -87.207053 
L 345.874358 -87.392665 
L 345.162753 -87.543199 
L 344.451148 -87.733144 
L 343.739543 -87.90701 
L 343.027938 -88.111609 
L 342.316333 -88.277707 
L 341.604728 -88.472946 
L 340.893123 -88.62355 
L 340.181518 -88.812396 
L 339.469913 -89.006189 
L 338.758308 -89.18482 
L 338.046703 -89.382914 
L 337.335098 -89.56866 
L 336.623493 -89.775469 
L 335.911888 -90.002861 
L 335.200283 -90.16738 
L 334.488678 -90.373632 
L 333.777073 -90.543151 
L 333.065468 -90.744243 
L 332.353863 -90.962423 
L 331.642258 -91.163847 
L 330.930653 -91.358308 
L 330.219048 -91.583282 
L 329.507443 -91.757357 
L 328.795838 -91.979654 
L 328.084232 -92.201955 
L 327.372627 -92.404126 
L 326.661022 -92.606742 
L 325.949417 -92.828054 
L 325.237812 -93.047671 
L 324.526207 -93.282984 
L 323.814602 -93.482072 
L 323.102997 -93.704298 
L 322.391392 -93.918849 
L 321.679787 -94.126001 
L 320.968182 -94.336188 
L 320.256577 -94.582633 
L 319.544972 -94.857908 
L 318.833367 -95.074724 
L 318.121762 -95.282176 
L 317.410157 -95.492885 
L 316.698552 -95.732372 
L 315.986947 -95.983423 
L 315.275342 -96.247923 
L 314.563737 -96.463952 
L 313.852132 -96.717731 
L 313.140527 -96.920007 
L 312.428922 -97.204885 
L 311.717317 -97.431976 
L 311.005712 -97.680041 
L 310.294107 -97.958176 
L 309.582502 -98.21368 
L 308.870897 -98.458717 
L 308.159292 -98.652557 
L 307.447687 -98.89326 
L 306.736082 -99.145742 
L 306.024477 -99.417893 
L 305.312872 -99.657695 
L 304.601267 -99.907176 
L 303.889662 -100.173054 
L 303.178057 -100.411901 
L 302.466451 -100.714677 
L 301.754846 -101.001954 
L 301.043241 -101.235388 
L 300.331636 -101.525862 
L 299.620031 -101.805304 
L 298.908426 -102.056549 
L 298.196821 -102.352377 
L 297.485216 -102.60235 
L 296.773611 -102.894756 
L 296.062006 -103.178401 
L 295.350401 -103.488133 
L 294.638796 -103.79992 
L 293.927191 -104.063611 
L 293.215586 -104.325705 
L 292.503981 -104.596595 
L 291.792376 -104.860721 
L 291.080771 -105.14685 
L 290.369166 -105.421298 
L 289.657561 -105.733812 
L 288.945956 -106.06262 
L 288.234351 -106.343873 
L 287.522746 -106.653916 
L 286.811141 -106.937577 
L 286.099536 -107.255156 
L 285.387931 -107.515394 
L 284.676326 -107.83124 
L 283.964721 -108.127338 
L 283.253116 -108.412889 
L 282.541511 -108.711626 
L 281.829906 -109.021525 
L 281.118301 -109.331043 
L 280.406696 -109.656038 
L 279.695091 -109.923337 
L 278.983486 -110.329376 
L 278.271881 -110.626268 
L 277.560275 -110.931106 
L 276.84867 -111.246353 
L 276.137065 -111.570084 
L 275.42546 -111.895874 
L 274.713855 -112.197965 
L 274.00225 -112.559367 
L 273.290645 -112.8691 
L 272.57904 -113.238546 
L 271.867435 -113.521932 
L 271.15583 -113.852092 
L 270.444225 -114.212049 
L 269.73262 -114.529775 
L 269.021015 -114.869828 
L 268.30941 -115.24629 
L 267.597805 -115.472002 
L 266.8862 -115.845388 
L 266.174595 -116.298634 
L 265.46299 -116.657319 
L 264.751385 -116.97941 
L 264.03978 -117.348851 
L 263.328175 -117.687198 
L 262.61657 -118.062852 
L 261.904965 -118.472695 
L 261.19336 -118.780297 
L 260.481755 -119.110145 
L 259.77015 -119.51342 
L 259.058545 -119.901666 
L 258.34694 -120.286465 
L 257.635335 -120.653134 
L 256.92373 -120.948076 
L 256.212125 -121.343023 
L 255.50052 -121.690431 
L 254.788915 -122.076623 
L 254.07731 -122.438539 
L 253.365705 -122.824591 
L 252.6541 -123.22689 
L 251.942494 -123.630857 
L 251.230889 -124.042562 
L 250.519284 -124.411091 
L 249.807679 -124.791721 
L 249.096074 -125.183607 
L 248.384469 -125.539208 
L 247.672864 -125.951477 
L 246.961259 -126.332266 
L 246.249654 -126.653302 
L 245.538049 -127.126581 
L 244.826444 -127.456673 
L 244.114839 -127.896298 
L 243.403234 -128.358577 
L 242.691629 -128.744093 
L 241.980024 -129.102502 
L 241.268419 -129.599133 
L 240.556814 -130.043933 
L 239.845209 -130.421764 
L 239.133604 -130.815866 
L 238.421999 -131.254247 
L 237.710394 -131.685062 
L 236.998789 -132.052072 
L 236.287184 -132.532614 
L 235.575579 -132.95613 
L 234.863974 -133.370056 
L 234.152369 -133.792179 
L 233.440764 -134.259873 
L 232.729159 -134.696611 
L 232.017554 -135.087863 
L 231.305949 -135.581047 
L 230.594344 -136.005036 
L 229.882739 -136.41781 
L 229.171134 -136.891561 
L 228.459529 -137.343771 
L 227.747924 -137.819612 
L 227.036318 -138.315114 
L 226.324713 -138.737534 
L 225.613108 -139.183924 
L 224.901503 -139.599633 
L 224.189898 -140.081928 
L 223.478293 -140.545482 
L 222.766688 -141.042908 
L 222.055083 -141.45984 
L 221.343478 -141.979853 
L 220.631873 -142.372894 
L 219.920268 -142.94278 
L 219.208663 -143.432131 
L 218.497058 -143.987959 
L 217.785453 -144.445411 
L 217.073848 -144.931157 
L 216.362243 -145.342761 
L 215.650638 -145.822329 
L 214.939033 -146.282526 
L 214.227428 -146.689134 
L 213.515823 -147.188447 
L 212.804218 -147.817163 
L 212.092613 -148.23249 
L 211.381008 -148.720802 
L 210.669403 -149.311037 
L 209.957798 -149.801152 
L 209.246193 -150.368149 
L 208.534588 -150.875106 
L 207.822983 -151.345646 
L 207.111378 -151.841852 
L 206.399773 -152.399436 
L 205.688168 -152.944126 
L 204.976563 -153.53473 
L 204.264958 -154.09772 
L 203.553353 -154.591461 
L 202.841748 -155.053023 
L 202.130143 -155.614075 
L 201.418537 -156.148048 
L 200.706932 -156.684246 
L 199.995327 -157.23099 
L 199.283722 -157.859707 
L 198.572117 -158.425257 
L 197.860512 -159.029219 
L 197.148907 -159.639302 
L 196.437302 -160.125463 
L 195.725697 -160.776105 
L 195.014092 -161.244382 
L 194.302487 -161.867409 
L 193.590882 -162.448073 
L 192.879277 -163.089627 
L 192.167672 -163.558561 
L 191.456067 -164.041933 
L 190.744462 -164.639711 
L 190.032857 -165.256116 
L 189.321252 -165.888895 
L 188.609647 -166.508415 
L 187.898042 -167.098093 
L 187.186437 -167.829514 
L 186.474832 -168.414995 
L 185.763227 -168.897543 
L 185.051622 -169.495503 
L 184.340017 -170.18485 
L 183.628412 -170.803909 
L 182.916807 -171.405544 
L 182.205202 -172.072224 
L 181.493597 -172.656881 
L 180.781992 -173.257083 
L 180.070387 -173.884333 
L 179.358782 -174.494052 
L 178.647177 -175.116339 
L 177.935572 -175.913633 
L 177.223967 -176.542424 
L 176.512361 -177.16619 
L 175.800756 -177.909515 
L 175.089151 -178.457261 
L 174.377546 -179.121488 
L 173.665941 -179.660927 
L 172.954336 -180.402159 
L 172.242731 -181.043961 
L 171.531126 -181.715818 
L 170.819521 -182.468396 
L 170.107916 -183.060457 
L 169.396311 -183.806107 
L 168.684706 -184.540902 
L 167.973101 -185.223363 
L 167.261496 -185.849914 
L 166.549891 -186.554257 
L 165.838286 -187.290753 
L 165.126681 -188.004687 
L 164.415076 -188.719709 
L 163.703471 -189.521875 
L 162.991866 -190.25556 
L 162.280261 -190.829473 
L 161.568656 -191.51507 
L 160.857051 -192.378394 
L 160.145446 -193.215465 
L 159.433841 -193.839367 
L 158.722236 -194.672053 
L 158.010631 -195.40541 
L 157.299026 -196.038911 
L 156.587421 -196.854517 
L 155.875816 -197.643022 
L 155.164211 -198.419626 
L 154.452606 -199.185101 
L 153.741001 -200.074759 
L 153.029396 -200.74089 
L 152.317791 -201.628788 
L 151.606185 -202.411652 
L 150.89458 -203.194275 
L 150.182975 -203.985367 
L 149.47137 -204.796014 
L 148.759765 -205.651552 
L 148.04816 -206.441538 
L 147.336555 -207.208665 
L 146.62495 -208.091913 
L 145.913345 -208.786977 
L 145.20174 -209.582887 
L 144.490135 -210.410808 
L 143.77853 -211.358518 
L 143.066925 -212.278486 
L 142.35532 -213.023722 
L 141.643715 -213.87556 
L 140.93211 -214.690227 
L 140.220505 -215.638729 
L 139.5089 -216.401994 
L 138.797295 -217.382815 
L 138.08569 -218.379666 
L 137.374085 -219.321475 
L 136.66248 -220.289642 
L 135.950875 -221.205354 
L 135.23927 -222.009935 
L 134.527665 -222.981936 
L 133.81606 -223.923657 
L 133.104455 -225.133407 
L 132.39285 -225.939476 
L 131.681245 -226.864474 
L 130.96964 -227.922108 
L 130.258035 -228.783115 
L 129.54643 -229.588128 
L 128.834825 -230.649536 
L 128.12322 -231.740055 
L 127.411615 -232.860301 
L 126.70001 -233.836061 
L 125.988404 -235.01826 
L 125.276799 -235.985215 
L 124.565194 -237.170111 
L 123.853589 -238.017995 
L 123.141984 -238.944445 
L 122.430379 -239.980485 
L 121.718774 -241.128919 
L 121.007169 -242.279825 
L 120.295564 -243.434916 
L 119.583959 -244.693829 
L 118.872354 -246.037339 
L 118.160749 -247.373513 
L 117.449144 -248.342075 
L 116.737539 -249.484513 
L 116.025934 -250.680069 
L 115.314329 -251.762174 
L 114.602724 -252.944611 
L 113.891119 -254.167201 
L 113.179514 -255.393458 
L 112.467909 -256.653834 
L 111.756304 -257.785691 
L 111.044699 -259.346719 
L 110.333094 -260.623124 
L 109.621489 -261.728912 
L 108.909884 -263.206551 
L 108.198279 -264.705774 
L 107.486674 -265.989124 
L 106.775069 -267.236234 
L 106.063464 -268.813298 
L 105.351859 -270.205096 
L 104.640254 -271.622112 
L 103.928649 -273.345427 
L 103.217044 -274.885117 
L 102.505439 -276.374957 
L 101.793834 -278.14638 
L 101.082228 -279.925124 
L 100.370623 -281.461786 
L 99.659018 -282.869968 
L 98.947413 -284.714442 
L 98.235808 -286.554688 
L 97.524203 -288.213243 
L 96.812598 -289.964431 
L 96.100993 -292.069476 
L 95.389388 -293.822564 
L 94.677783 -296.014928 
L 93.966178 -298.053787 
L 93.254573 -300.94495 
L 92.542968 -303.320463 
L 91.831363 -305.663334 
L 91.119758 -308.145928 
L 90.408153 -310.816237 
L 89.696548 -313.957393 
L 88.984943 -317.032104 
L 88.273338 -321.346727 
L 87.561733 -327.559687 
z
" style="stroke: #4c72b0; stroke-opacity: 0.2"/>
    </defs>
    <g clip-path="url(#pb37e712fda)">
     <use xlink:href="#mbbb19013ab" x="0" y="347.359688" style="fill: #4c72b0; fill-opacity: 0.2; stroke: #4c72b0; stroke-opacity: 0.2"/>
    </g>
   </g>
   <g id="line2d_1">
    <path d="M 87.561733 22.806131 
L 88.273338 28.469524 
L 88.984943 32.323664 
L 91.119758 41.177591 
L 93.966178 50.885415 
L 95.389388 54.979564 
L 99.659018 65.757189 
L 100.370623 67.175531 
L 101.793834 70.579754 
L 110.333094 87.894462 
L 113.179514 92.885708 
L 114.602724 95.264262 
L 116.025934 97.649263 
L 123.141984 109.083861 
L 131.681245 121.325748 
L 133.104455 123.142375 
L 134.527665 125.110261 
L 142.35532 134.991872 
L 143.77853 136.690398 
L 145.913345 139.301123 
L 148.759765 142.486542 
L 151.606185 145.671576 
L 159.433841 154.119008 
L 160.145446 154.758464 
L 161.568656 156.447132 
L 170.819521 165.523236 
L 172.242731 166.897423 
L 176.512361 170.85231 
L 179.358782 173.418102 
L 182.205202 175.907708 
L 187.186437 180.069857 
L 189.321252 181.944079 
L 192.167672 184.295662 
L 194.302487 185.996598 
L 196.437302 187.702961 
L 200.706932 191.099399 
L 203.553353 193.229188 
L 205.688168 194.817288 
L 215.650638 201.951582 
L 230.594344 211.753735 
L 232.729159 213.037818 
L 246.249654 221.002463 
L 247.672864 221.749718 
L 249.807679 222.928854 
L 253.365705 224.863013 
L 264.751385 230.714934 
L 266.8862 231.78958 
L 269.021015 232.762237 
L 274.713855 235.444412 
L 292.503981 243.032161 
L 303.889662 247.400986 
L 313.852132 250.848545 
L 329.507443 255.753448 
L 332.353863 256.551257 
L 337.335098 257.941885 
L 352.990408 261.802049 
L 362.952879 263.929289 
L 372.203744 265.713763 
L 387.859055 268.110288 
L 407.783996 270.323114 
L 419.881281 271.171098 
L 429.132147 271.578017 
L 439.094617 271.786025 
L 442.652642 271.8 
L 442.652642 271.8 
" clip-path="url(#pb37e712fda)" style="fill: none; stroke: #4c72b0; stroke-width: 1.5; stroke-linecap: round"/>
   </g>
   <g id="patch_3">
    <path d="M 49.807187 284.4 
L 49.807187 7.2 
" style="fill: none; stroke: #262626; stroke-width: 1.25; stroke-linejoin: miter; stroke-linecap: square"/>
   </g>
   <g id="patch_4">
    <path d="M 69.807187 304.4 
L 460.407187 304.4 
" style="fill: none; stroke: #262626; stroke-width: 1.25; stroke-linejoin: miter; stroke-linecap: square"/>
   </g>
  </g>
 </g>
 <defs>
  <clipPath id="pb37e712fda">
   <rect x="69.807187" y="7.2" width="390.6" height="277.2"/>
  </clipPath>
 </defs>
</svg>
