<?xml version="1.0" encoding="utf-8" standalone="no"?>
<!DOCTYPE svg PUBLIC "-//W3C//DTD SVG 1.1//EN"
  "http://www.w3.org/Graphics/SVG/1.1/DTD/svg11.dtd">
<svg xmlns:xlink="http://www.w3.org/1999/xlink" width="475.96375pt" height="347.359688pt" viewBox="0 0 475.96375 347.359688" xmlns="http://www.w3.org/2000/svg" version="1.1">
 <metadata>
  <rdf:RDF xmlns:dc="http://purl.org/dc/elements/1.1/" xmlns:cc="http://creativecommons.org/ns#" xmlns:rdf="http://www.w3.org/1999/02/22-rdf-syntax-ns#">
   <cc:Work>
    <dc:type rdf:resource="http://purl.org/dc/dcmitype/StillImage"/>
    <dc:date>2023-08-17T03:36:26.483826</dc:date>
    <dc:format>image/svg+xml</dc:format>
    <dc:creator>
     <cc:Agent>
      <dc:title>Matplotlib v3.7.2, https://matplotlib.org/</dc:title>
     </cc:Agent>
    </dc:creator>
   </cc:Work>
  </rdf:RDF>
 </metadata>
 <defs>
  <style type="text/css">*{stroke-linejoin: round; stroke-linecap: butt}</style>
 </defs>
 <g id="figure_1">
  <g id="patch_1">
   <path d="M -0 347.359688 
L 475.96375 347.359688 
L 475.96375 0 
L -0 0 
z
" style="fill: #ffffff"/>
  </g>
  <g id="axes_1">
   <g id="patch_2">
    <path d="M 78.16375 284.4 
L 468.76375 284.4 
L 468.76375 7.2 
L 78.16375 7.2 
z
" style="fill: #ffffff"/>
   </g>
   <g id="matplotlib.axis_1">
    <g id="xtick_1">
     <g id="text_1">
      <!-- $\mathdefault{10^{0}}$ -->
      <g style="fill: #262626" transform="translate(68.48375 322.258281) scale(0.11 -0.11)">
       <defs>
        <path id="DejaVuSans-31" d="M 794 531 
L 1825 531 
L 1825 4091 
L 703 3866 
L 703 4441 
L 1819 4666 
L 2450 4666 
L 2450 531 
L 3481 531 
L 3481 0 
L 794 0 
L 794 531 
z
" transform="scale(0.015625)"/>
        <path id="DejaVuSans-30" d="M 2034 4250 
Q 1547 4250 1301 3770 
Q 1056 3291 1056 2328 
Q 1056 1369 1301 889 
Q 1547 409 2034 409 
Q 2525 409 2770 889 
Q 3016 1369 3016 2328 
Q 3016 3291 2770 3770 
Q 2525 4250 2034 4250 
z
M 2034 4750 
Q 2819 4750 3233 4129 
Q 3647 3509 3647 2328 
Q 3647 1150 3233 529 
Q 2819 -91 2034 -91 
Q 1250 -91 836 529 
Q 422 1150 422 2328 
Q 422 3509 836 4129 
Q 1250 4750 2034 4750 
z
" transform="scale(0.015625)"/>
       </defs>
       <use xlink:href="#DejaVuSans-31" transform="translate(0 0.765625)"/>
       <use xlink:href="#DejaVuSans-30" transform="translate(63.623047 0.765625)"/>
       <use xlink:href="#DejaVuSans-30" transform="translate(128.203125 39.046875) scale(0.7)"/>
      </g>
     </g>
    </g>
    <g id="xtick_2">
     <g id="text_2">
      <!-- $\mathdefault{10^{1}}$ -->
      <g style="fill: #262626" transform="translate(204.788528 322.258281) scale(0.11 -0.11)">
       <use xlink:href="#DejaVuSans-31" transform="translate(0 0.684375)"/>
       <use xlink:href="#DejaVuSans-30" transform="translate(63.623047 0.684375)"/>
       <use xlink:href="#DejaVuSans-31" transform="translate(128.203125 38.965625) scale(0.7)"/>
      </g>
     </g>
    </g>
    <g id="xtick_3">
     <g id="text_3">
      <!-- $\mathdefault{10^{2}}$ -->
      <g style="fill: #262626" transform="translate(341.093306 322.258281) scale(0.11 -0.11)">
       <defs>
        <path id="DejaVuSans-32" d="M 1228 531 
L 3431 531 
L 3431 0 
L 469 0 
L 469 531 
Q 828 903 1448 1529 
Q 2069 2156 2228 2338 
Q 2531 2678 2651 2914 
Q 2772 3150 2772 3378 
Q 2772 3750 2511 3984 
Q 2250 4219 1831 4219 
Q 1534 4219 1204 4116 
Q 875 4013 500 3803 
L 500 4441 
Q 881 4594 1212 4672 
Q 1544 4750 1819 4750 
Q 2544 4750 2975 4387 
Q 3406 4025 3406 3419 
Q 3406 3131 3298 2873 
Q 3191 2616 2906 2266 
Q 2828 2175 2409 1742 
Q 1991 1309 1228 531 
z
" transform="scale(0.015625)"/>
       </defs>
       <use xlink:href="#DejaVuSans-31" transform="translate(0 0.765625)"/>
       <use xlink:href="#DejaVuSans-30" transform="translate(63.623047 0.765625)"/>
       <use xlink:href="#DejaVuSans-32" transform="translate(128.203125 39.046875) scale(0.7)"/>
      </g>
     </g>
    </g>
    <g id="xtick_4"/>
    <g id="xtick_5"/>
    <g id="xtick_6"/>
    <g id="xtick_7"/>
    <g id="xtick_8"/>
    <g id="xtick_9"/>
    <g id="xtick_10"/>
    <g id="xtick_11"/>
    <g id="xtick_12"/>
    <g id="xtick_13"/>
    <g id="xtick_14"/>
    <g id="xtick_15"/>
    <g id="xtick_16"/>
    <g id="xtick_17"/>
    <g id="xtick_18"/>
    <g id="xtick_19"/>
    <g id="xtick_20"/>
    <g id="xtick_21"/>
    <g id="xtick_22"/>
    <g id="xtick_23"/>
    <g id="xtick_24"/>
    <g id="xtick_25"/>
    <g id="text_4">
     <!-- rank -->
     <g style="fill: #262626" transform="translate(260.043438 337.664062) scale(0.12 -0.12)">
      <defs>
       <path id="DejaVuSans-72" d="M 2631 2963 
Q 2534 3019 2420 3045 
Q 2306 3072 2169 3072 
Q 1681 3072 1420 2755 
Q 1159 2438 1159 1844 
L 1159 0 
L 581 0 
L 581 3500 
L 1159 3500 
L 1159 2956 
Q 1341 3275 1631 3429 
Q 1922 3584 2338 3584 
Q 2397 3584 2469 3576 
Q 2541 3569 2628 3553 
L 2631 2963 
z
" transform="scale(0.015625)"/>
       <path id="DejaVuSans-61" d="M 2194 1759 
Q 1497 1759 1228 1600 
Q 959 1441 959 1056 
Q 959 750 1161 570 
Q 1363 391 1709 391 
Q 2188 391 2477 730 
Q 2766 1069 2766 1631 
L 2766 1759 
L 2194 1759 
z
M 3341 1997 
L 3341 0 
L 2766 0 
L 2766 531 
Q 2569 213 2275 61 
Q 1981 -91 1556 -91 
Q 1019 -91 701 211 
Q 384 513 384 1019 
Q 384 1609 779 1909 
Q 1175 2209 1959 2209 
L 2766 2209 
L 2766 2266 
Q 2766 2663 2505 2880 
Q 2244 3097 1772 3097 
Q 1472 3097 1187 3025 
Q 903 2953 641 2809 
L 641 3341 
Q 956 3463 1253 3523 
Q 1550 3584 1831 3584 
Q 2591 3584 2966 3190 
Q 3341 2797 3341 1997 
z
" transform="scale(0.015625)"/>
       <path id="DejaVuSans-6e" d="M 3513 2113 
L 3513 0 
L 2938 0 
L 2938 2094 
Q 2938 2591 2744 2837 
Q 2550 3084 2163 3084 
Q 1697 3084 1428 2787 
Q 1159 2491 1159 1978 
L 1159 0 
L 581 0 
L 581 3500 
L 1159 3500 
L 1159 2956 
Q 1366 3272 1645 3428 
Q 1925 3584 2291 3584 
Q 2894 3584 3203 3211 
Q 3513 2838 3513 2113 
z
" transform="scale(0.015625)"/>
       <path id="DejaVuSans-6b" d="M 581 4863 
L 1159 4863 
L 1159 1991 
L 2875 3500 
L 3609 3500 
L 1753 1863 
L 3688 0 
L 2938 0 
L 1159 1709 
L 1159 0 
L 581 0 
L 581 4863 
z
" transform="scale(0.015625)"/>
      </defs>
      <use xlink:href="#DejaVuSans-72"/>
      <use xlink:href="#DejaVuSans-61" x="41.113281"/>
      <use xlink:href="#DejaVuSans-6e" x="102.392578"/>
      <use xlink:href="#DejaVuSans-6b" x="165.771484"/>
     </g>
    </g>
   </g>
   <g id="matplotlib.axis_2">
    <g id="ytick_1">
     <g id="text_5">
      <!-- $\mathdefault{10^{-2}}$ -->
      <g style="fill: #262626" transform="translate(22.81375 288.579141) scale(0.11 -0.11)">
       <defs>
        <path id="DejaVuSans-2212" d="M 678 2272 
L 4684 2272 
L 4684 1741 
L 678 1741 
L 678 2272 
z
" transform="scale(0.015625)"/>
       </defs>
       <use xlink:href="#DejaVuSans-31" transform="translate(0 0.765625)"/>
       <use xlink:href="#DejaVuSans-30" transform="translate(63.623047 0.765625)"/>
       <use xlink:href="#DejaVuSans-2212" transform="translate(128.203125 39.046875) scale(0.7)"/>
       <use xlink:href="#DejaVuSans-32" transform="translate(186.855469 39.046875) scale(0.7)"/>
      </g>
     </g>
    </g>
    <g id="ytick_2">
     <g id="text_6">
      <!-- $\mathdefault{10^{-1}}$ -->
      <g style="fill: #262626" transform="translate(22.81375 234.943671) scale(0.11 -0.11)">
       <use xlink:href="#DejaVuSans-31" transform="translate(0 0.684375)"/>
       <use xlink:href="#DejaVuSans-30" transform="translate(63.623047 0.684375)"/>
       <use xlink:href="#DejaVuSans-2212" transform="translate(128.203125 38.965625) scale(0.7)"/>
       <use xlink:href="#DejaVuSans-31" transform="translate(186.855469 38.965625) scale(0.7)"/>
      </g>
     </g>
    </g>
    <g id="ytick_3">
     <g id="text_7">
      <!-- $\mathdefault{10^{0}}$ -->
      <g style="fill: #262626" transform="translate(29.30375 181.308202) scale(0.11 -0.11)">
       <use xlink:href="#DejaVuSans-31" transform="translate(0 0.765625)"/>
       <use xlink:href="#DejaVuSans-30" transform="translate(63.623047 0.765625)"/>
       <use xlink:href="#DejaVuSans-30" transform="translate(128.203125 39.046875) scale(0.7)"/>
      </g>
     </g>
    </g>
    <g id="ytick_4">
     <g id="text_8">
      <!-- $\mathdefault{10^{1}}$ -->
      <g style="fill: #262626" transform="translate(29.30375 127.672733) scale(0.11 -0.11)">
       <use xlink:href="#DejaVuSans-31" transform="translate(0 0.684375)"/>
       <use xlink:href="#DejaVuSans-30" transform="translate(63.623047 0.684375)"/>
       <use xlink:href="#DejaVuSans-31" transform="translate(128.203125 38.965625) scale(0.7)"/>
      </g>
     </g>
    </g>
    <g id="ytick_5">
     <g id="text_9">
      <!-- $\mathdefault{10^{2}}$ -->
      <g style="fill: #262626" transform="translate(29.30375 74.037264) scale(0.11 -0.11)">
       <use xlink:href="#DejaVuSans-31" transform="translate(0 0.765625)"/>
       <use xlink:href="#DejaVuSans-30" transform="translate(63.623047 0.765625)"/>
       <use xlink:href="#DejaVuSans-32" transform="translate(128.203125 39.046875) scale(0.7)"/>
      </g>
     </g>
    </g>
    <g id="ytick_6">
     <g id="text_10">
      <!-- $\mathdefault{10^{3}}$ -->
      <g style="fill: #262626" transform="translate(29.30375 20.401795) scale(0.11 -0.11)">
       <defs>
        <path id="DejaVuSans-33" d="M 2597 2516 
Q 3050 2419 3304 2112 
Q 3559 1806 3559 1356 
Q 3559 666 3084 287 
Q 2609 -91 1734 -91 
Q 1441 -91 1130 -33 
Q 819 25 488 141 
L 488 750 
Q 750 597 1062 519 
Q 1375 441 1716 441 
Q 2309 441 2620 675 
Q 2931 909 2931 1356 
Q 2931 1769 2642 2001 
Q 2353 2234 1838 2234 
L 1294 2234 
L 1294 2753 
L 1863 2753 
Q 2328 2753 2575 2939 
Q 2822 3125 2822 3475 
Q 2822 3834 2567 4026 
Q 2313 4219 1838 4219 
Q 1578 4219 1281 4162 
Q 984 4106 628 3988 
L 628 4550 
Q 988 4650 1302 4700 
Q 1616 4750 1894 4750 
Q 2613 4750 3031 4423 
Q 3450 4097 3450 3541 
Q 3450 3153 3228 2886 
Q 3006 2619 2597 2516 
z
" transform="scale(0.015625)"/>
       </defs>
       <use xlink:href="#DejaVuSans-31" transform="translate(0 0.765625)"/>
       <use xlink:href="#DejaVuSans-30" transform="translate(63.623047 0.765625)"/>
       <use xlink:href="#DejaVuSans-33" transform="translate(128.203125 39.046875) scale(0.7)"/>
      </g>
     </g>
    </g>
    <g id="ytick_7"/>
    <g id="ytick_8"/>
    <g id="ytick_9"/>
    <g id="ytick_10"/>
    <g id="ytick_11"/>
    <g id="ytick_12"/>
    <g id="ytick_13"/>
    <g id="ytick_14"/>
    <g id="ytick_15"/>
    <g id="ytick_16"/>
    <g id="ytick_17"/>
    <g id="ytick_18"/>
    <g id="ytick_19"/>
    <g id="ytick_20"/>
    <g id="ytick_21"/>
    <g id="ytick_22"/>
    <g id="ytick_23"/>
    <g id="ytick_24"/>
    <g id="ytick_25"/>
    <g id="ytick_26"/>
    <g id="ytick_27"/>
    <g id="ytick_28"/>
    <g id="ytick_29"/>
    <g id="ytick_30"/>
    <g id="ytick_31"/>
    <g id="ytick_32"/>
    <g id="ytick_33"/>
    <g id="ytick_34"/>
    <g id="ytick_35"/>
    <g id="ytick_36"/>
    <g id="ytick_37"/>
    <g id="ytick_38"/>
    <g id="ytick_39"/>
    <g id="ytick_40"/>
    <g id="ytick_41"/>
    <g id="ytick_42"/>
    <g id="ytick_43"/>
    <g id="ytick_44"/>
    <g id="ytick_45"/>
    <g id="ytick_46"/>
    <g id="text_11">
     <!-- eigenvalue -->
     <g style="fill: #262626" transform="translate(16.318125 178.851562) rotate(-90) scale(0.12 -0.12)">
      <defs>
       <path id="DejaVuSans-65" d="M 3597 1894 
L 3597 1613 
L 953 1613 
Q 991 1019 1311 708 
Q 1631 397 2203 397 
Q 2534 397 2845 478 
Q 3156 559 3463 722 
L 3463 178 
Q 3153 47 2828 -22 
Q 2503 -91 2169 -91 
Q 1331 -91 842 396 
Q 353 884 353 1716 
Q 353 2575 817 3079 
Q 1281 3584 2069 3584 
Q 2775 3584 3186 3129 
Q 3597 2675 3597 1894 
z
M 3022 2063 
Q 3016 2534 2758 2815 
Q 2500 3097 2075 3097 
Q 1594 3097 1305 2825 
Q 1016 2553 972 2059 
L 3022 2063 
z
" transform="scale(0.015625)"/>
       <path id="DejaVuSans-69" d="M 603 3500 
L 1178 3500 
L 1178 0 
L 603 0 
L 603 3500 
z
M 603 4863 
L 1178 4863 
L 1178 4134 
L 603 4134 
L 603 4863 
z
" transform="scale(0.015625)"/>
       <path id="DejaVuSans-67" d="M 2906 1791 
Q 2906 2416 2648 2759 
Q 2391 3103 1925 3103 
Q 1463 3103 1205 2759 
Q 947 2416 947 1791 
Q 947 1169 1205 825 
Q 1463 481 1925 481 
Q 2391 481 2648 825 
Q 2906 1169 2906 1791 
z
M 3481 434 
Q 3481 -459 3084 -895 
Q 2688 -1331 1869 -1331 
Q 1566 -1331 1297 -1286 
Q 1028 -1241 775 -1147 
L 775 -588 
Q 1028 -725 1275 -790 
Q 1522 -856 1778 -856 
Q 2344 -856 2625 -561 
Q 2906 -266 2906 331 
L 2906 616 
Q 2728 306 2450 153 
Q 2172 0 1784 0 
Q 1141 0 747 490 
Q 353 981 353 1791 
Q 353 2603 747 3093 
Q 1141 3584 1784 3584 
Q 2172 3584 2450 3431 
Q 2728 3278 2906 2969 
L 2906 3500 
L 3481 3500 
L 3481 434 
z
" transform="scale(0.015625)"/>
       <path id="DejaVuSans-76" d="M 191 3500 
L 800 3500 
L 1894 563 
L 2988 3500 
L 3597 3500 
L 2284 0 
L 1503 0 
L 191 3500 
z
" transform="scale(0.015625)"/>
       <path id="DejaVuSans-6c" d="M 603 4863 
L 1178 4863 
L 1178 0 
L 603 0 
L 603 4863 
z
" transform="scale(0.015625)"/>
       <path id="DejaVuSans-75" d="M 544 1381 
L 544 3500 
L 1119 3500 
L 1119 1403 
Q 1119 906 1312 657 
Q 1506 409 1894 409 
Q 2359 409 2629 706 
Q 2900 1003 2900 1516 
L 2900 3500 
L 3475 3500 
L 3475 0 
L 2900 0 
L 2900 538 
Q 2691 219 2414 64 
Q 2138 -91 1772 -91 
Q 1169 -91 856 284 
Q 544 659 544 1381 
z
M 1991 3584 
L 1991 3584 
z
" transform="scale(0.015625)"/>
      </defs>
      <use xlink:href="#DejaVuSans-65"/>
      <use xlink:href="#DejaVuSans-69" x="61.523438"/>
      <use xlink:href="#DejaVuSans-67" x="89.306641"/>
      <use xlink:href="#DejaVuSans-65" x="152.783203"/>
      <use xlink:href="#DejaVuSans-6e" x="214.306641"/>
      <use xlink:href="#DejaVuSans-76" x="277.685547"/>
      <use xlink:href="#DejaVuSans-61" x="336.865234"/>
      <use xlink:href="#DejaVuSans-6c" x="398.144531"/>
      <use xlink:href="#DejaVuSans-75" x="425.927734"/>
      <use xlink:href="#DejaVuSans-65" x="489.306641"/>
     </g>
    </g>
   </g>
   <g id="PolyCollection_1"/>
   <g id="PolyCollection_2"/>
   <g id="line2d_1">
    <path d="M 78.16375 46.556434 
L 119.195577 36.065064 
L 143.197657 60.688716 
L 160.227404 62.482952 
L 173.436701 83.071443 
L 184.229483 66.431373 
L 193.354651 92.92808 
L 201.25923 92.604522 
L 208.231563 85.128086 
L 214.468528 115.589548 
L 220.110549 92.212188 
L 225.26131 84.64097 
L 229.999551 89.105633 
L 234.386478 95.009947 
L 238.470608 86.077971 
L 242.291057 121.630902 
L 245.879817 103.754225 
L 249.26339 122.476603 
L 252.463976 126.271822 
L 255.500355 109.634786 
L 258.388558 115.714756 
L 261.142376 122.829649 
L 263.77376 109.254884 
L 266.293137 113.694612 
L 268.709653 115.638179 
L 271.031378 112.26374 
L 273.26547 133.109443 
L 275.418304 125.585862 
L 277.495585 116.861393 
L 279.502435 116.701693 
L 281.443475 130.327877 
L 283.322884 124.617444 
L 285.144456 120.346524 
L 286.911644 123.344656 
L 288.627602 135.675516 
L 290.295217 123.048731 
L 291.917138 127.44224 
L 293.495803 123.694337 
L 296.532182 126.668941 
L 297.993896 136.964316 
L 299.420384 131.099413 
L 302.174202 147.236999 
L 303.504515 132.410518 
L 304.805587 130.585194 
L 306.078677 137.335372 
L 307.324964 136.085545 
L 308.545552 132.070641 
L 309.741479 132.202018 
L 310.913724 140.932166 
L 312.063205 136.42241 
L 313.19079 138.467961 
L 314.297297 132.423849 
L 315.3835 139.272372 
L 316.450131 166.704056 
L 317.497883 140.670786 
L 318.527411 143.998671 
L 319.53934 156.714941 
L 320.534262 134.151075 
L 321.512737 154.925827 
L 322.475301 151.968311 
L 323.422464 150.871292 
L 324.354711 137.721761 
L 325.272503 158.752589 
L 326.176282 153.474495 
L 327.066471 149.375908 
L 327.943471 149.366822 
L 328.807667 148.741176 
L 329.659429 153.468289 
L 330.499108 146.832595 
L 331.327044 179.879751 
L 332.143559 155.338848 
L 332.948965 147.894106 
L 333.743559 148.783681 
L 334.527629 157.851981 
L 335.30145 156.858062 
L 336.065285 152.163517 
L 336.81939 161.749915 
L 337.564008 150.422059 
L 338.299377 155.37651 
L 339.025722 153.892991 
L 339.743263 149.314435 
L 340.452211 147.747368 
L 341.152768 149.829875 
L 341.845132 148.496738 
L 342.529491 159.655488 
L 343.206029 153.189595 
L 343.874922 160.295103 
L 344.536342 152.402762 
L 345.190452 149.784303 
L 345.837414 152.972118 
L 346.477381 160.473152 
L 347.110504 154.294577 
L 347.736927 149.59766 
L 348.35679 158.895093 
L 348.97023 163.947677 
L 349.577378 151.157172 
L 350.178362 156.028947 
L 350.773306 158.583834 
L 351.36233 164.912313 
L 351.945551 159.437866 
L 352.523081 157.491498 
L 353.095032 173.404707 
L 353.661509 158.495606 
L 354.222616 158.114359 
L 354.778455 154.29241 
L 355.329124 158.267137 
L 355.874717 157.209859 
L 356.415327 158.973397 
L 356.951045 165.620732 
L 357.481958 184.689896 
L 358.008152 165.3178 
L 358.529709 161.649814 
L 359.046712 155.712051 
L 359.559238 157.676383 
L 360.067365 170.392405 
L 360.571167 159.334661 
L 361.070718 175.341198 
L 361.566088 162.832909 
L 362.057348 164.435245 
L 362.544564 168.450176 
L 363.507128 161.554506 
L 363.982604 165.99223 
L 364.454291 158.482936 
L 364.922249 173.449777 
L 365.386537 161.13211 
L 365.847212 176.944974 
L 366.304329 178.99976 
L 366.757944 183.348362 
L 367.208109 162.535578 
L 367.654877 165.559429 
L 368.098297 171.084226 
L 368.538422 166.928711 
L 369.408973 172.268238 
L 369.839494 159.865674 
L 370.266907 167.838986 
L 370.691256 166.918189 
L 371.112584 170.112492 
L 371.530935 168.214321 
L 371.94635 169.373399 
L 372.35887 171.797767 
L 372.768536 165.497244 
L 373.175386 164.561295 
L 373.579458 177.517546 
L 373.980791 169.335862 
L 374.379422 182.793618 
L 374.775386 189.189309 
L 375.559456 170.454088 
L 375.947631 168.838031 
L 376.333276 168.856312 
L 376.716426 170.964446 
L 377.097112 174.945722 
L 377.475365 181.355029 
L 377.851216 179.132647 
L 378.224696 186.434225 
L 378.595835 168.789231 
L 378.964661 178.872008 
L 379.331204 175.753668 
L 379.69549 167.478511 
L 380.057549 171.742665 
L 380.417407 169.63734 
L 380.77509 169.946867 
L 381.130625 184.385728 
L 381.484038 172.429998 
L 381.835353 171.743312 
L 382.184595 170.792741 
L 382.531789 183.829785 
L 382.876959 172.580149 
L 383.220127 172.607227 
L 383.561318 175.907244 
L 383.900553 174.411245 
L 384.237856 183.820886 
L 384.573247 178.808641 
L 384.906749 176.401195 
L 385.238382 175.290203 
L 385.568168 181.755965 
L 385.896127 175.022204 
L 386.222279 182.84334 
L 386.546644 182.959857 
L 386.869241 190.376954 
L 387.509208 174.66071 
L 387.826616 186.493249 
L 388.142331 176.086283 
L 388.456371 174.682483 
L 388.768754 184.36478 
L 389.079497 188.914402 
L 389.388617 169.578313 
L 389.696132 178.176695 
L 390.002057 170.45477 
L 390.306409 185.682418 
L 390.609205 177.561187 
L 390.91046 177.791008 
L 391.210189 185.243282 
L 391.508408 173.363121 
L 391.805133 171.551348 
L 392.100377 178.799802 
L 392.394157 176.305311 
L 392.686485 183.778883 
L 392.977377 187.601551 
L 393.266847 199.637712 
L 393.554908 182.153987 
L 393.841574 184.255055 
L 394.126858 195.665667 
L 394.410775 182.754536 
L 394.693336 187.784198 
L 394.974554 180.723672 
L 395.254443 186.1951 
L 395.533015 186.846469 
L 395.810282 172.761451 
L 396.086257 171.961883 
L 396.36095 186.331042 
L 396.634375 189.233702 
L 396.906543 185.37725 
L 397.177466 185.857281 
L 397.447154 184.721564 
L 397.715619 197.128377 
L 398.248923 178.414581 
L 398.777466 191.859505 
L 399.039978 185.113386 
L 399.301332 207.1014 
L 399.561536 181.820872 
L 399.820602 186.901143 
L 400.078539 184.158199 
L 400.335356 188.826124 
L 400.591065 187.830589 
L 400.845673 188.29595 
L 401.099192 182.900935 
L 401.351629 195.119296 
L 401.602994 188.442625 
L 401.853296 176.88935 
L 402.102545 177.937471 
L 402.350748 176.964298 
L 402.844054 193.308649 
L 403.089174 243.766656 
L 403.333284 193.505279 
L 403.57639 181.592846 
L 403.818503 190.445217 
L 404.059629 181.533161 
L 404.299777 186.717626 
L 404.538955 196.237229 
L 404.77717 181.973958 
L 405.014431 188.638605 
L 405.250744 187.017069 
L 405.486118 186.882238 
L 405.720559 186.185123 
L 405.954076 201.192433 
L 406.418364 190.790623 
L 406.64915 190.558589 
L 406.879039 192.051699 
L 407.108039 179.885437 
L 407.336156 199.838389 
L 407.563398 186.275881 
L 407.789771 182.463732 
L 408.015281 183.343938 
L 408.239936 190.129706 
L 408.463741 185.642554 
L 408.686703 185.347651 
L 408.908829 182.2625 
L 409.130124 184.524905 
L 409.350595 188.057271 
L 409.570248 196.70202 
L 409.789089 184.944356 
L 410.007124 186.533771 
L 410.224359 185.737179 
L 410.440799 183.031871 
L 410.656451 182.897331 
L 410.871321 202.283447 
L 411.085413 192.957047 
L 411.298733 202.266588 
L 411.511288 187.711745 
L 411.723082 203.453065 
L 411.934121 180.07002 
L 412.144411 190.404976 
L 412.353956 181.196626 
L 412.562762 183.148897 
L 412.770834 182.094445 
L 412.978177 192.797385 
L 413.184796 190.503074 
L 413.390697 185.509595 
L 413.595884 208.232027 
L 413.800363 190.645838 
L 414.004137 200.995157 
L 414.207212 188.035562 
L 414.409594 196.35281 
L 414.611285 181.892633 
L 415.012618 195.945436 
L 415.212269 179.278223 
L 415.609562 205.432723 
L 415.807213 188.424161 
L 416.004206 199.615595 
L 416.396237 182.242029 
L 416.785688 192.181381 
L 416.979457 192.522577 
L 417.172594 211.024607 
L 417.365103 188.113977 
L 417.556988 185.551393 
L 417.748253 185.280406 
L 417.938902 196.485341 
L 418.128938 193.823289 
L 418.507192 182.411785 
L 418.695416 195.520234 
L 418.883043 242.589726 
L 419.070078 186.013159 
L 419.256523 191.675191 
L 419.442383 191.677014 
L 419.627662 198.919716 
L 419.812362 198.197992 
L 419.996488 190.26665 
L 420.36303 196.949604 
L 420.727317 193.293686 
L 420.908623 197.875851 
L 421.089376 205.629841 
L 421.269578 186.515716 
L 421.449234 214.757037 
L 421.628345 189.723393 
L 421.806917 181.590977 
L 421.984951 193.66838 
L 422.162452 193.762415 
L 422.339422 195.666786 
L 422.515865 187.657244 
L 422.86718 196.13833 
L 423.042058 209.103149 
L 423.216422 188.884713 
L 423.390274 191.670127 
L 423.563616 206.774785 
L 423.736452 191.83176 
L 423.908786 215.811418 
L 424.080619 191.072476 
L 424.251954 207.585008 
L 424.422795 198.513212 
L 424.593145 213.88881 
L 424.763005 185.091618 
L 424.93238 198.609131 
L 425.101272 199.904996 
L 425.269683 192.810973 
L 425.437616 197.946625 
L 425.605074 194.234851 
L 425.605554 348.359688 
M 425.938123 348.359688 
L 425.938576 202.733433 
L 426.104625 201.135819 
L 426.270209 215.760557 
L 426.599995 198.882692 
L 426.764202 202.667877 
L 426.927954 192.424134 
L 427.091254 194.114425 
L 427.254106 198.480562 
L 427.41651 206.359178 
L 427.739989 189.902838 
L 428.061709 216.879042 
L 428.221916 192.260039 
L 428.541035 201.63284 
L 428.699952 244.529469 
L 428.858443 199.732324 
L 429.016511 202.258922 
L 429.174158 187.197967 
L 429.331386 192.521903 
L 429.488198 193.045193 
L 429.644595 190.45702 
L 429.800581 221.168795 
L 429.956156 190.008259 
L 430.266086 199.706879 
L 430.420444 200.844612 
L 430.574401 228.53856 
L 430.881119 199.022756 
L 431.033884 245.963795 
L 431.186256 192.906406 
L 431.338236 207.641717 
L 431.489828 203.500728 
L 431.641032 214.471684 
L 431.791851 193.839276 
L 431.942286 193.992561 
L 432.092341 204.435528 
L 432.242016 197.355665 
L 432.391313 196.963552 
L 432.540235 194.315095 
L 432.688783 195.179373 
L 432.83696 192.495264 
L 432.984766 200.516638 
L 433.132204 191.494981 
L 433.279276 201.108772 
L 433.425984 194.484807 
L 433.572328 194.169823 
L 433.863937 216.328634 
L 434.009204 212.377712 
L 434.154116 193.364295 
L 434.298674 206.01292 
L 434.442879 201.721929 
L 434.586735 189.916562 
L 434.730241 211.462624 
L 434.873401 193.675451 
L 435.016215 204.686833 
L 435.158685 202.409125 
L 435.442601 259.575037 
L 435.58405 204.845978 
L 435.725162 203.142722 
L 436.006381 190.236275 
L 436.146491 195.789428 
L 436.28627 208.356349 
L 436.564842 209.293025 
L 436.703638 206.882892 
L 436.842109 211.17035 
L 436.980257 205.537401 
L 437.118083 194.498063 
L 437.25559 219.855096 
L 437.392777 202.951179 
L 437.666202 214.405598 
L 437.802443 239.51354 
L 437.93837 191.561135 
L 438.073986 195.799553 
L 438.209292 185.354584 
L 438.34429 205.713081 
L 438.47898 198.586434 
L 438.613365 199.212144 
L 438.613738 348.359688 
M 438.880868 348.359688 
L 438.881223 206.300185 
L 439.014698 192.833133 
L 439.147874 214.221061 
L 439.28075 197.980839 
L 439.413329 225.856998 
L 439.545611 206.59969 
L 439.809293 213.724654 
L 439.940694 237.587952 
L 440.202626 190.932805 
L 440.333158 201.094597 
L 440.463404 201.886895 
L 440.723037 195.288654 
L 440.852428 195.236373 
L 440.981537 213.734306 
L 441.110365 204.037018 
L 441.238913 242.906185 
L 441.367183 204.256272 
L 441.495175 213.93531 
L 441.622892 200.453617 
L 441.750333 207.762337 
L 441.8775 198.607877 
L 442.004395 208.60715 
L 442.131018 207.005864 
L 442.509272 190.565676 
L 442.760104 198.836048 
L 443.009878 195.031032 
L 443.134371 208.733765 
L 443.258603 191.460659 
L 443.382575 203.249073 
L 443.506287 186.023169 
L 443.629742 231.914132 
L 443.752939 234.104017 
L 443.875881 191.5633 
L 443.998568 222.162946 
L 444.121001 193.99644 
L 444.243182 225.308048 
L 444.36511 216.627679 
L 444.486789 195.203571 
L 444.608217 210.672376 
L 444.729397 201.458909 
L 444.85033 251.543896 
L 445.091456 222.990274 
L 445.211652 213.1805 
L 445.451314 217.523445 
L 445.570782 214.122365 
L 445.690009 196.943172 
L 445.808997 214.73992 
L 445.927746 206.61607 
L 446.164532 212.28764 
L 446.282571 246.389104 
L 446.517945 207.444463 
L 446.635281 220.258171 
L 446.752386 211.332572 
L 446.86926 221.054232 
L 446.985903 221.02784 
L 447.102317 202.137941 
L 447.33446 235.919913 
L 447.565696 210.18413 
L 447.680976 204.371896 
L 447.796033 210.059694 
L 447.910866 204.866468 
L 448.025476 224.071458 
L 448.139866 224.265529 
L 448.254034 195.713962 
L 448.367983 216.306036 
L 448.481713 211.022737 
L 448.595225 229.979977 
L 448.708519 203.831177 
L 448.93446 207.106286 
L 449.047108 209.604309 
L 449.159542 310.117332 
L 449.383771 205.864858 
L 449.495568 229.636632 
L 449.607154 206.130704 
L 449.829697 217.625605 
L 449.940656 218.724544 
L 450.051407 205.909915 
L 450.161951 223.624687 
L 450.272289 221.990046 
L 450.382422 210.798456 
L 450.382704 348.359688 
M 450.601783 348.359688 
L 450.602075 205.756721 
L 450.711597 210.236198 
L 450.820916 216.299205 
L 450.930034 241.011759 
L 451.147668 206.011021 
L 451.256186 201.901076 
L 451.364505 201.921073 
L 451.58055 214.788364 
L 451.688278 206.584685 
L 451.79581 214.577557 
L 451.903147 232.211484 
L 452.01029 201.365516 
L 452.11724 207.219267 
L 452.219589 348.359688 
M 452.228367 348.359688 
L 452.436933 200.576295 
L 452.543115 209.158429 
L 452.649107 202.669384 
L 452.754909 210.107231 
L 452.860523 257.921611 
L 452.965948 203.048755 
L 453.071186 225.388217 
L 453.176238 222.721354 
L 453.385783 206.052336 
L 453.490278 200.373797 
L 453.594589 207.574221 
L 453.698716 202.905547 
L 453.802661 207.518936 
L 454.010004 204.136932 
L 454.113404 239.011539 
L 454.319663 204.474938 
L 454.422524 197.797536 
L 454.627711 218.756455 
L 454.730039 232.116651 
L 454.934164 198.199039 
L 455.035964 198.699388 
L 455.137589 218.098659 
L 455.239039 212.741431 
L 455.340316 197.830379 
L 455.44142 237.99081 
L 455.542352 220.100147 
L 455.7437 249.352511 
L 455.844119 196.392363 
L 456.044445 207.080835 
L 456.144355 204.743868 
L 456.244096 232.795938 
L 456.343669 224.02822 
L 456.443076 204.666358 
L 456.542315 308.043219 
L 456.641389 206.079531 
L 456.740297 237.861106 
L 456.83904 222.767542 
L 457.036033 260.028122 
L 457.134284 216.353012 
L 457.330299 238.550506 
L 457.428064 212.640605 
L 457.525667 215.570786 
L 457.62311 264.494511 
L 457.817515 205.102881 
L 457.914479 221.875645 
L 458.011284 211.456005 
L 458.011531 348.359688 
M 458.204212 348.359688 
L 458.300754 195.595595 
L 458.39693 270.474159 
L 458.588815 203.221717 
L 458.78008 218.561887 
L 458.970728 209.630305 
L 459.160765 215.92637 
L 459.444681 201.187545 
L 459.539018 229.147197 
L 459.727242 203.881534 
L 459.727495 348.359688 
M 459.914659 348.359688 
L 460.008461 219.091231 
L 460.101904 212.55814 
L 460.28835 218.606305 
L 460.381353 207.02348 
L 460.566922 221.91185 
L 460.659489 210.063891 
L 460.751911 248.85293 
L 460.936323 211.302561 
L 461.120163 227.384824 
L 461.12037 348.359688 
M 461.303203 348.359688 
L 461.394857 212.761637 
L 461.486139 220.916473 
L 461.577281 209.109246 
L 461.668282 246.503651 
L 461.759144 214.308014 
L 461.849866 219.06105 
L 461.94045 198.154247 
L 462.211372 219.00996 
L 462.301405 216.675459 
L 462.391301 209.198636 
L 462.48106 227.45842 
L 462.570684 224.110287 
L 462.660172 203.89257 
L 462.749525 241.31099 
L 462.838744 221.800884 
L 462.927828 239.808925 
L 463.016778 211.51791 
L 463.194279 264.838321 
L 463.28283 258.848027 
L 463.459536 202.459628 
L 463.547691 210.743786 
L 463.635716 229.993088 
L 463.723609 221.819524 
L 463.811373 230.278792 
L 463.899006 200.451512 
L 463.98651 227.248064 
L 464.073885 206.18027 
L 464.161131 223.100655 
L 464.248249 219.253305 
L 464.335238 229.956089 
L 464.4221 218.46119 
L 464.508835 245.780823 
L 464.595443 208.149864 
L 464.681924 245.51969 
L 464.68209 348.359688 
M 464.854357 348.359688 
L 464.940612 227.52302 
L 464.940806 348.359688 
M 465.112235 348.359688 
L 465.112445 217.072921 
L 465.198175 221.860326 
L 465.283781 216.755027 
L 465.369263 217.882344 
L 465.454622 231.731252 
L 465.539858 213.949032 
L 465.709963 240.342549 
L 465.794832 209.54864 
L 465.795052 348.359688 
L 465.795052 348.359688 
" clip-path="url(#p6f20bb0fbb)" style="fill: none; stroke: #4c72b0; stroke-width: 1.5; stroke-linecap: round"/>
   </g>
   <g id="line2d_2">
    <path d="M 78.16375 8.336553 
L 119.195577 28.369261 
L 143.197657 30.391194 
L 160.227404 43.036553 
L 173.436701 45.847096 
L 184.229483 50.20192 
L 193.354651 51.330332 
L 201.25923 57.665395 
L 208.231563 59.063331 
L 214.468528 61.369999 
L 220.110549 62.636662 
L 225.26131 64.408652 
L 229.999551 65.420533 
L 234.386478 66.836336 
L 238.470608 69.172543 
L 242.291057 70.891349 
L 245.879817 72.250701 
L 249.26339 73.933699 
L 252.463976 74.693864 
L 255.500355 76.224133 
L 258.388558 77.050002 
L 261.142376 77.523726 
L 263.77376 78.425489 
L 266.293137 78.735208 
L 268.709653 79.379015 
L 271.031378 79.663672 
L 273.26547 80.939068 
L 275.418304 81.59531 
L 279.502435 82.447816 
L 281.443475 83.2358 
L 285.144456 84.280021 
L 286.911644 85.051938 
L 288.627602 85.098785 
L 290.295217 85.583512 
L 291.917138 86.358058 
L 295.033458 87.000602 
L 296.532182 87.566409 
L 297.993896 87.875416 
L 302.174202 89.125134 
L 309.741479 91.154995 
L 310.913724 91.535204 
L 312.063205 91.615265 
L 313.19079 92.174316 
L 315.3835 92.483205 
L 316.450131 93.021045 
L 319.53934 93.72693 
L 320.534262 93.822516 
L 322.475301 94.494276 
L 323.422464 95.10105 
L 324.354711 95.139927 
L 325.272503 95.342726 
L 327.943471 96.332711 
L 330.499108 96.718556 
L 332.948965 97.403247 
L 333.743559 97.786057 
L 337.564008 98.801939 
L 338.299377 99.08269 
L 339.743263 99.266147 
L 341.152768 99.689991 
L 341.845132 99.741493 
L 342.529491 100.171225 
L 347.110504 101.266463 
L 348.35679 101.443408 
L 348.97023 101.689387 
L 350.773306 102.037921 
L 351.36233 102.289017 
L 352.523081 102.560158 
L 353.095032 102.932181 
L 355.874717 103.341221 
L 360.067365 104.322969 
L 361.070718 104.66713 
L 362.057348 104.979372 
L 363.027802 105.048432 
L 363.507128 105.304827 
L 363.982604 105.324382 
L 365.386537 105.712565 
L 368.098297 106.253012 
L 368.975297 106.638765 
L 371.112584 106.954922 
L 372.768536 107.381447 
L 373.579458 107.556145 
L 375.559456 108.020157 
L 377.475365 108.473931 
L 379.331204 108.89938 
L 380.77509 109.154779 
L 381.484038 109.313357 
L 383.220127 109.737663 
L 384.573247 109.96994 
L 385.896127 110.268849 
L 388.142331 110.794658 
L 388.768754 110.914643 
L 390.306409 111.228346 
L 392.394157 111.611376 
L 392.977377 111.765195 
L 394.126858 111.970765 
L 399.301332 113.084155 
L 400.335356 113.316409 
L 401.351629 113.542768 
L 401.853296 113.641418 
L 402.350748 113.828686 
L 403.333284 113.990723 
L 407.108039 114.74475 
L 407.563398 114.925477 
L 408.239936 115.044073 
L 410.656451 115.550202 
L 410.871321 115.554522 
L 411.298733 115.719015 
L 416.004206 116.758083 
L 417.938902 117.213296 
L 418.318367 117.348859 
L 419.070078 117.491465 
L 421.806917 118.148677 
L 422.86718 118.39854 
L 423.736452 118.638996 
L 426.764202 119.360282 
L 428.221916 119.775843 
L 430.111324 120.24604 
L 430.574401 120.376059 
L 433.718312 121.238878 
L 434.009204 121.348192 
L 434.730241 121.539014 
L 435.300813 121.704905 
L 437.118083 122.160839 
L 437.529648 122.350966 
L 438.34429 122.541428 
L 438.881223 122.714445 
L 445.690009 124.952674 
L 446.400375 125.208265 
L 446.985903 125.362433 
L 447.450191 125.580322 
L 447.910866 125.757118 
L 448.367983 125.878318 
L 451.58055 127.080447 
L 452.436933 127.460818 
L 452.860523 127.577164 
L 453.176238 127.712514 
L 453.594589 127.882105 
L 458.49295 130.269823 
L 459.255555 130.697499 
L 459.444681 130.771134 
L 459.633205 130.955094 
L 460.28835 131.274047 
L 460.47421 131.409692 
L 463.105595 133.170303 
L 463.547691 133.562956 
L 463.899006 133.883622 
L 464.508835 134.530402 
L 464.854508 135.116043 
L 465.112445 135.381759 
L 465.369263 135.833509 
L 465.794832 136.966936 
L 465.87958 139.001337 
L 465.87958 139.001337 
" clip-path="url(#p6f20bb0fbb)" style="fill: none; stroke: #dd8452; stroke-width: 1.5; stroke-linecap: round"/>
   </g>
   <g id="line2d_3"/>
   <g id="line2d_4"/>
   <g id="line2d_5">
    <path clip-path="url(#p6f20bb0fbb)" style="fill: none; stroke-dasharray: 5.55,2.4; stroke-dashoffset: 0; stroke: #808080; stroke-width: 1.5"/>
   </g>
   <g id="patch_3">
    <path d="M 58.16375 284.4 
L 58.16375 7.2 
" style="fill: none; stroke: #262626; stroke-width: 1.25; stroke-linejoin: miter; stroke-linecap: square"/>
   </g>
   <g id="patch_4">
    <path d="M 78.16375 304.4 
L 468.76375 304.4 
" style="fill: none; stroke: #262626; stroke-width: 1.25; stroke-linejoin: miter; stroke-linecap: square"/>
   </g>
   <g id="legend_1">
    <g id="patch_5">
     <path d="M 342.518125 65.405625 
L 461.06375 65.405625 
Q 463.26375 65.405625 463.26375 63.205625 
L 463.26375 14.9 
Q 463.26375 12.7 461.06375 12.7 
L 342.518125 12.7 
Q 340.318125 12.7 340.318125 14.9 
L 340.318125 63.205625 
Q 340.318125 65.405625 342.518125 65.405625 
z
" style="fill: #ffffff; opacity: 0.8"/>
    </g>
    <g id="text_12">
     <!-- spectrum -->
     <g style="fill: #262626" transform="translate(373.399688 26.218125) scale(0.12 -0.12)">
      <defs>
       <path id="DejaVuSans-73" d="M 2834 3397 
L 2834 2853 
Q 2591 2978 2328 3040 
Q 2066 3103 1784 3103 
Q 1356 3103 1142 2972 
Q 928 2841 928 2578 
Q 928 2378 1081 2264 
Q 1234 2150 1697 2047 
L 1894 2003 
Q 2506 1872 2764 1633 
Q 3022 1394 3022 966 
Q 3022 478 2636 193 
Q 2250 -91 1575 -91 
Q 1294 -91 989 -36 
Q 684 19 347 128 
L 347 722 
Q 666 556 975 473 
Q 1284 391 1588 391 
Q 1994 391 2212 530 
Q 2431 669 2431 922 
Q 2431 1156 2273 1281 
Q 2116 1406 1581 1522 
L 1381 1569 
Q 847 1681 609 1914 
Q 372 2147 372 2553 
Q 372 3047 722 3315 
Q 1072 3584 1716 3584 
Q 2034 3584 2315 3537 
Q 2597 3491 2834 3397 
z
" transform="scale(0.015625)"/>
       <path id="DejaVuSans-70" d="M 1159 525 
L 1159 -1331 
L 581 -1331 
L 581 3500 
L 1159 3500 
L 1159 2969 
Q 1341 3281 1617 3432 
Q 1894 3584 2278 3584 
Q 2916 3584 3314 3078 
Q 3713 2572 3713 1747 
Q 3713 922 3314 415 
Q 2916 -91 2278 -91 
Q 1894 -91 1617 61 
Q 1341 213 1159 525 
z
M 3116 1747 
Q 3116 2381 2855 2742 
Q 2594 3103 2138 3103 
Q 1681 3103 1420 2742 
Q 1159 2381 1159 1747 
Q 1159 1113 1420 752 
Q 1681 391 2138 391 
Q 2594 391 2855 752 
Q 3116 1113 3116 1747 
z
" transform="scale(0.015625)"/>
       <path id="DejaVuSans-63" d="M 3122 3366 
L 3122 2828 
Q 2878 2963 2633 3030 
Q 2388 3097 2138 3097 
Q 1578 3097 1268 2742 
Q 959 2388 959 1747 
Q 959 1106 1268 751 
Q 1578 397 2138 397 
Q 2388 397 2633 464 
Q 2878 531 3122 666 
L 3122 134 
Q 2881 22 2623 -34 
Q 2366 -91 2075 -91 
Q 1284 -91 818 406 
Q 353 903 353 1747 
Q 353 2603 823 3093 
Q 1294 3584 2113 3584 
Q 2378 3584 2631 3529 
Q 2884 3475 3122 3366 
z
" transform="scale(0.015625)"/>
       <path id="DejaVuSans-74" d="M 1172 4494 
L 1172 3500 
L 2356 3500 
L 2356 3053 
L 1172 3053 
L 1172 1153 
Q 1172 725 1289 603 
Q 1406 481 1766 481 
L 2356 481 
L 2356 0 
L 1766 0 
Q 1100 0 847 248 
Q 594 497 594 1153 
L 594 3053 
L 172 3053 
L 172 3500 
L 594 3500 
L 594 4494 
L 1172 4494 
z
" transform="scale(0.015625)"/>
       <path id="DejaVuSans-6d" d="M 3328 2828 
Q 3544 3216 3844 3400 
Q 4144 3584 4550 3584 
Q 5097 3584 5394 3201 
Q 5691 2819 5691 2113 
L 5691 0 
L 5113 0 
L 5113 2094 
Q 5113 2597 4934 2840 
Q 4756 3084 4391 3084 
Q 3944 3084 3684 2787 
Q 3425 2491 3425 1978 
L 3425 0 
L 2847 0 
L 2847 2094 
Q 2847 2600 2669 2842 
Q 2491 3084 2119 3084 
Q 1678 3084 1418 2786 
Q 1159 2488 1159 1978 
L 1159 0 
L 581 0 
L 581 3500 
L 1159 3500 
L 1159 2956 
Q 1356 3278 1631 3431 
Q 1906 3584 2284 3584 
Q 2666 3584 2933 3390 
Q 3200 3197 3328 2828 
z
" transform="scale(0.015625)"/>
      </defs>
      <use xlink:href="#DejaVuSans-73"/>
      <use xlink:href="#DejaVuSans-70" x="52.099609"/>
      <use xlink:href="#DejaVuSans-65" x="115.576172"/>
      <use xlink:href="#DejaVuSans-63" x="177.099609"/>
      <use xlink:href="#DejaVuSans-74" x="232.080078"/>
      <use xlink:href="#DejaVuSans-72" x="271.289062"/>
      <use xlink:href="#DejaVuSans-75" x="312.402344"/>
      <use xlink:href="#DejaVuSans-6d" x="375.78125"/>
     </g>
    </g>
    <g id="line2d_6">
     <path d="M 344.718125 38.722031 
L 355.718125 38.722031 
L 366.718125 38.722031 
" style="fill: none; stroke: #4c72b0; stroke-width: 1.5; stroke-linecap: round"/>
    </g>
    <g id="text_13">
     <!-- cross-validated -->
     <g style="fill: #262626" transform="translate(375.518125 42.572031) scale(0.11 -0.11)">
      <defs>
       <path id="DejaVuSans-6f" d="M 1959 3097 
Q 1497 3097 1228 2736 
Q 959 2375 959 1747 
Q 959 1119 1226 758 
Q 1494 397 1959 397 
Q 2419 397 2687 759 
Q 2956 1122 2956 1747 
Q 2956 2369 2687 2733 
Q 2419 3097 1959 3097 
z
M 1959 3584 
Q 2709 3584 3137 3096 
Q 3566 2609 3566 1747 
Q 3566 888 3137 398 
Q 2709 -91 1959 -91 
Q 1206 -91 779 398 
Q 353 888 353 1747 
Q 353 2609 779 3096 
Q 1206 3584 1959 3584 
z
" transform="scale(0.015625)"/>
       <path id="DejaVuSans-2d" d="M 313 2009 
L 1997 2009 
L 1997 1497 
L 313 1497 
L 313 2009 
z
" transform="scale(0.015625)"/>
       <path id="DejaVuSans-64" d="M 2906 2969 
L 2906 4863 
L 3481 4863 
L 3481 0 
L 2906 0 
L 2906 525 
Q 2725 213 2448 61 
Q 2172 -91 1784 -91 
Q 1150 -91 751 415 
Q 353 922 353 1747 
Q 353 2572 751 3078 
Q 1150 3584 1784 3584 
Q 2172 3584 2448 3432 
Q 2725 3281 2906 2969 
z
M 947 1747 
Q 947 1113 1208 752 
Q 1469 391 1925 391 
Q 2381 391 2643 752 
Q 2906 1113 2906 1747 
Q 2906 2381 2643 2742 
Q 2381 3103 1925 3103 
Q 1469 3103 1208 2742 
Q 947 2381 947 1747 
z
" transform="scale(0.015625)"/>
      </defs>
      <use xlink:href="#DejaVuSans-63"/>
      <use xlink:href="#DejaVuSans-72" x="54.980469"/>
      <use xlink:href="#DejaVuSans-6f" x="93.84375"/>
      <use xlink:href="#DejaVuSans-73" x="155.025391"/>
      <use xlink:href="#DejaVuSans-73" x="207.125"/>
      <use xlink:href="#DejaVuSans-2d" x="259.224609"/>
      <use xlink:href="#DejaVuSans-76" x="292.683594"/>
      <use xlink:href="#DejaVuSans-61" x="351.863281"/>
      <use xlink:href="#DejaVuSans-6c" x="413.142578"/>
      <use xlink:href="#DejaVuSans-69" x="440.925781"/>
      <use xlink:href="#DejaVuSans-64" x="468.708984"/>
      <use xlink:href="#DejaVuSans-61" x="532.185547"/>
      <use xlink:href="#DejaVuSans-74" x="593.464844"/>
      <use xlink:href="#DejaVuSans-65" x="632.673828"/>
      <use xlink:href="#DejaVuSans-64" x="694.197266"/>
     </g>
    </g>
    <g id="line2d_7">
     <path d="M 344.718125 54.867969 
L 355.718125 54.867969 
L 366.718125 54.867969 
" style="fill: none; stroke: #dd8452; stroke-width: 1.5; stroke-linecap: round"/>
    </g>
    <g id="text_14">
     <!-- original -->
     <g style="fill: #262626" transform="translate(375.518125 58.717969) scale(0.11 -0.11)">
      <use xlink:href="#DejaVuSans-6f"/>
      <use xlink:href="#DejaVuSans-72" x="61.181641"/>
      <use xlink:href="#DejaVuSans-69" x="102.294922"/>
      <use xlink:href="#DejaVuSans-67" x="130.078125"/>
      <use xlink:href="#DejaVuSans-69" x="193.554688"/>
      <use xlink:href="#DejaVuSans-6e" x="221.337891"/>
      <use xlink:href="#DejaVuSans-61" x="284.716797"/>
      <use xlink:href="#DejaVuSans-6c" x="345.996094"/>
     </g>
    </g>
   </g>
  </g>
 </g>
 <defs>
  <clipPath id="p6f20bb0fbb">
   <rect x="78.16375" y="7.2" width="390.6" height="277.2"/>
  </clipPath>
 </defs>
</svg>
