<?xml version="1.0" encoding="UTF-8" standalone="no"?>
<!-- Created with Inkscape (http://www.inkscape.org/) -->

<svg
   xml:space="preserve"
   width="40.105953mm"
   height="15.464226mm"
   viewBox="0 0 40.105953 15.464226"
   version="1.1"
   id="svg5"
   xmlns="http://www.w3.org/2000/svg"
   xmlns:svg="http://www.w3.org/2000/svg"><defs
     id="defs2"><filter
       width="1"
       height="1"
       y="0"
       x="0"
       style="color-interpolation-filters:sRGB"
       id="filter185711"><feTurbulence
         baseFrequency="0.4"
         type="fractalNoise"
         seed="0"
         numOctaves="5"
         result="result1"
         id="feTurbulence185707" /><feDisplacementMap
         xChannelSelector="R"
         yChannelSelector="G"
         scale="30"
         in="SourceGraphic"
         in2="result1"
         id="feDisplacementMap185709" /></filter><filter
       x="-0.026320247"
       width="1.0526406"
       y="-0.081898421"
       height="1.1637968"
       style="color-interpolation-filters:sRGB"
       id="filter185945"><feGaussianBlur
         stdDeviation="1.42568 1.55607"
         result="blur"
         id="feGaussianBlur185929" /><feComposite
         in="SourceGraphic"
         in2="blur"
         operator="atop"
         result="composite1"
         id="feComposite185931" /><feComposite
         in2="composite1"
         operator="in"
         result="composite2"
         id="feComposite185933" /><feComposite
         in2="composite2"
         operator="in"
         result="composite3"
         id="feComposite185935" /><feTurbulence
         type="fractalNoise"
         numOctaves="3"
         seed="1"
         baseFrequency="0.05 0.05"
         result="turbulence"
         id="feTurbulence185937" /><feDisplacementMap
         in="composite3"
         in2="turbulence"
         xChannelSelector="R"
         scale="16.2112"
         yChannelSelector="G"
         result="map"
         id="feDisplacementMap185939" /><feColorMatrix
         values="1 0 0 0 0 0 1 0 0 0 0 0 1 0 0 0 0 0 6.804 -2.62172 "
         result="colormatrix"
         id="feColorMatrix185941" /><feComposite
         in="composite3"
         in2="colormatrix"
         operator="atop"
         result="composite4"
         id="feComposite185943" /></filter><filter
       height="1.2105263"
       y="-0.10526316"
       width="1.0738462"
       x="-0.036923077"
       style="color-interpolation-filters:sRGB"
       id="filter185971"><feTurbulence
         numOctaves="5"
         seed="0"
         type="fractalNoise"
         baseFrequency="0.1"
         result="result1"
         id="feTurbulence185965" /><feGaussianBlur
         stdDeviation="2"
         result="result2"
         id="feGaussianBlur185967" /><feDisplacementMap
         scale="50"
         yChannelSelector="B"
         xChannelSelector="R"
         in="SourceGraphic"
         in2="result2"
         id="feDisplacementMap185969" /></filter><filter
       height="1.1184211"
       width="1.0415385"
       y="-0.059210528"
       x="-0.020769231"
       style="color-interpolation-filters:sRGB"
       id="filter185991"><feTurbulence
         type="fractalNoise"
         numOctaves="3"
         baseFrequency="0.25 0.4"
         seed="5"
         id="feTurbulence185973" /><feColorMatrix
         result="result5"
         values="1 0 0 0 0 0 1 0 0 0 0 0 1 0 0 0 0 0 1 0 "
         id="feColorMatrix185975" /><feComposite
         in="SourceGraphic"
         operator="in"
         in2="result5"
         id="feComposite185977" /><feMorphology
         operator="dilate"
         radius="1.5"
         result="result3"
         id="feMorphology185979" /><feTurbulence
         numOctaves="5"
         baseFrequency="0.03"
         type="fractalNoise"
         seed="7"
         id="feTurbulence185981" /><feGaussianBlur
         stdDeviation="0.5"
         result="result91"
         id="feGaussianBlur185983" /><feDisplacementMap
         in="result3"
         xChannelSelector="R"
         yChannelSelector="G"
         scale="27"
         result="result4"
         in2="result91"
         id="feDisplacementMap185985" /><feComposite
         in="result4"
         k3="0.8"
         k1="1.3"
         result="result2"
         operator="arithmetic"
         in2="result4"
         id="feComposite185987"
         k2="0"
         k4="0" /><feBlend
         in2="result2"
         mode="screen"
         in="result2"
         id="feBlend185989" /></filter></defs><g
     id="layer1"
     transform="translate(-31.337532,-191.62294)"><g
       id="g195159"><g
         id="g185439"
         transform="matrix(0.14049175,0,0,0.14049175,31.818244,192.2973)"
         style="filter:url(#filter185711)"><path
           class="st0"
           d="m 76.7,26.7 c -1.4,2.1 -3.8,3.4 -6.5,3.4 -4.3,0 -7.8,-3.5 -7.8,-7.8 0,-4.3 3.5,-7.8 7.8,-7.8 2.9,0 5.4,1.6 6.7,3.9 l 4.3,-5.7 c -2.7,-3.1 -6.6,-5 -11,-5 -8.1,0 -14.7,6.6 -14.7,14.7 0,8.1 6.6,14.6 14.7,14.6 4.6,0 8.7,-2.1 11.4,-5.5 z"
           id="path185403"
           style="fill:#bebebe;fill-opacity:1" /><path
           class="st0"
           d="m 99.8,26.7 c -1.4,2.1 -3.8,3.4 -6.5,3.4 -4.3,0 -7.8,-3.5 -7.8,-7.8 0,-4.3 3.5,-7.8 7.8,-7.8 2.9,0 5.4,1.6 6.7,3.9 l 4.3,-5.7 c -2.7,-3.1 -6.6,-5 -11,-5 -8.1,0 -14.7,6.6 -14.7,14.7 0,8.1 6.7,14.6 14.8,14.6 4.6,0 8.7,-2.1 11.4,-5.5 z"
           id="path185405"
           style="fill:#bebebe;fill-opacity:1" /><polygon
           class="st0"
           points="130,7.8 130,36 123.9,36 111.2,19.3 111.2,36 104.2,36 104.2,7.7 110.7,7.7 123.4,24.5 123.4,7.8 "
           id="polygon185407"
           style="fill:#bebebe;fill-opacity:1" /><g
           id="g185425">
	<circle
   class="st1"
   cx="29.700001"
   cy="15.9"
   r="15.9"
   id="circle185409" />
	<circle
   class="st2"
   cx="23.799999"
   cy="29.700001"
   r="15.9"
   id="circle185411" />
	<circle
   class="st3"
   cx="15.9"
   cy="15.9"
   r="15.9"
   id="circle185413" />
	<g
   id="g185423">
		<path
   class="st4"
   d="m 13.9,17.3 c -3.6,2.9 -6,7.3 -6,12.3 2.3,1.4 5.1,2.1 7.9,2.1 2.5,0 4.8,-0.6 6.9,-1.6 -4.8,-2.4 -8.3,-7.2 -8.8,-12.8"
   id="path185415" />
		<path
   class="st5"
   d="m 22.8,1.6 c -5.3,2.6 -8.9,8 -8.9,14.3 0,0.5 0,1 0.1,1.4 2.7,-2.1 6.1,-3.4 9.8,-3.4 2.9,0 5.6,0.8 7.9,2.1 0,0 0,-0.1 0,-0.1 0,-6.3 -3.6,-11.7 -8.9,-14.3"
   id="path185417" />
		<path
   class="st6"
   d="m 31.7,16 c -0.1,6.2 -3.7,11.6 -8.9,14.1 2.1,1 4.4,1.6 6.9,1.6 3.7,0 7.1,-1.3 9.8,-3.4 C 39.1,23 36,18.5 31.7,16"
   id="path185419" />
		<path
   class="st7"
   d="m 23.8,13.9 c -3.7,0 -7.1,1.3 -9.8,3.4 0.5,5.7 4,10.5 8.9,12.8 5.2,-2.6 8.9,-7.9 8.9,-14.1 -2.4,-1.4 -5.2,-2.1 -8,-2.1"
   id="path185421" />
	</g>
</g><g
           id="g185427">
</g><g
           id="g185429">
</g><g
           id="g185431">
</g><g
           id="g185433">
</g><g
           id="g185435">
</g><g
           id="g185437">
</g></g><g
         id="g185477"
         transform="matrix(0.14049175,0,0,0.14049175,31.818243,200.15607)"
         style="filter:url(#filter185945)"><path
           class="st0"
           d="m 76.7,26.7 c -1.4,2.1 -3.8,3.4 -6.5,3.4 -4.3,0 -7.8,-3.5 -7.8,-7.8 0,-4.3 3.5,-7.8 7.8,-7.8 2.9,0 5.4,1.6 6.7,3.9 l 4.3,-5.7 c -2.7,-3.1 -6.6,-5 -11,-5 -8.1,0 -14.7,6.6 -14.7,14.7 0,8.1 6.6,14.6 14.7,14.6 4.6,0 8.7,-2.1 11.4,-5.5 z"
           id="path185441"
           style="fill:#bebebe;fill-opacity:1" /><path
           class="st0"
           d="m 99.8,26.7 c -1.4,2.1 -3.8,3.4 -6.5,3.4 -4.3,0 -7.8,-3.5 -7.8,-7.8 0,-4.3 3.5,-7.8 7.8,-7.8 2.9,0 5.4,1.6 6.7,3.9 l 4.3,-5.7 c -2.7,-3.1 -6.6,-5 -11,-5 -8.1,0 -14.7,6.6 -14.7,14.7 0,8.1 6.7,14.6 14.8,14.6 4.6,0 8.7,-2.1 11.4,-5.5 z"
           id="path185443"
           style="fill:#bebebe;fill-opacity:1" /><polygon
           class="st0"
           points="110.7,7.7 123.4,24.5 123.4,7.8 130,7.8 130,36 123.9,36 111.2,19.3 111.2,36 104.2,36 104.2,7.7 "
           id="polygon185445"
           style="fill:#bebebe;fill-opacity:1" /><g
           id="g185463">
	<circle
   class="st1"
   cx="29.700001"
   cy="15.9"
   r="15.9"
   id="circle185447" />
	<circle
   class="st2"
   cx="23.799999"
   cy="29.700001"
   r="15.9"
   id="circle185449" />
	<circle
   class="st3"
   cx="15.9"
   cy="15.9"
   r="15.9"
   id="circle185451" />
	<g
   id="g185461">
		<path
   class="st4"
   d="m 13.9,17.3 c -3.6,2.9 -6,7.3 -6,12.3 2.3,1.4 5.1,2.1 7.9,2.1 2.5,0 4.8,-0.6 6.9,-1.6 -4.8,-2.4 -8.3,-7.2 -8.8,-12.8"
   id="path185453" />
		<path
   class="st5"
   d="m 22.8,1.6 c -5.3,2.6 -8.9,8 -8.9,14.3 0,0.5 0,1 0.1,1.4 2.7,-2.1 6.1,-3.4 9.8,-3.4 2.9,0 5.6,0.8 7.9,2.1 0,0 0,-0.1 0,-0.1 0,-6.3 -3.6,-11.7 -8.9,-14.3"
   id="path185455" />
		<path
   class="st6"
   d="m 31.7,16 c -0.1,6.2 -3.7,11.6 -8.9,14.1 2.1,1 4.4,1.6 6.9,1.6 3.7,0 7.1,-1.3 9.8,-3.4 C 39.1,23 36,18.5 31.7,16"
   id="path185457" />
		<path
   class="st7"
   d="m 23.8,13.9 c -3.7,0 -7.1,1.3 -9.8,3.4 0.5,5.7 4,10.5 8.9,12.8 5.2,-2.6 8.9,-7.9 8.9,-14.1 -2.4,-1.4 -5.2,-2.1 -8,-2.1"
   id="path185459" />
	</g>
</g><g
           id="g185465">
</g><g
           id="g185467">
</g><g
           id="g185469">
</g><g
           id="g185471">
</g><g
           id="g185473">
</g><g
           id="g185475">
</g></g><g
         id="g185515"
         transform="matrix(0.14049175,0,0,0.14049175,52.505199,192.2973)"
         style="filter:url(#filter185971)"><path
           class="st0"
           d="m 76.7,26.7 c -1.4,2.1 -3.8,3.4 -6.5,3.4 -4.3,0 -7.8,-3.5 -7.8,-7.8 0,-4.3 3.5,-7.8 7.8,-7.8 2.9,0 5.4,1.6 6.7,3.9 l 4.3,-5.7 c -2.7,-3.1 -6.6,-5 -11,-5 -8.1,0 -14.7,6.6 -14.7,14.7 0,8.1 6.6,14.6 14.7,14.6 4.6,0 8.7,-2.1 11.4,-5.5 z"
           id="path185479"
           style="fill:#bebebe;fill-opacity:1" /><path
           class="st0"
           d="m 99.8,26.7 c -1.4,2.1 -3.8,3.4 -6.5,3.4 -4.3,0 -7.8,-3.5 -7.8,-7.8 0,-4.3 3.5,-7.8 7.8,-7.8 2.9,0 5.4,1.6 6.7,3.9 l 4.3,-5.7 c -2.7,-3.1 -6.6,-5 -11,-5 -8.1,0 -14.7,6.6 -14.7,14.7 0,8.1 6.7,14.6 14.8,14.6 4.6,0 8.7,-2.1 11.4,-5.5 z"
           id="path185481"
           style="fill:#bebebe;fill-opacity:1" /><polygon
           class="st0"
           points="110.7,7.7 123.4,24.5 123.4,7.8 130,7.8 130,36 123.9,36 111.2,19.3 111.2,36 104.2,36 104.2,7.7 "
           id="polygon185483"
           style="fill:#bebebe;fill-opacity:1" /><g
           id="g185501">
	<circle
   class="st1"
   cx="29.700001"
   cy="15.9"
   r="15.9"
   id="circle185485" />
	<circle
   class="st2"
   cx="23.799999"
   cy="29.700001"
   r="15.9"
   id="circle185487" />
	<circle
   class="st3"
   cx="15.9"
   cy="15.9"
   r="15.9"
   id="circle185489" />
	<g
   id="g185499">
		<path
   class="st4"
   d="m 13.9,17.3 c -3.6,2.9 -6,7.3 -6,12.3 2.3,1.4 5.1,2.1 7.9,2.1 2.5,0 4.8,-0.6 6.9,-1.6 -4.8,-2.4 -8.3,-7.2 -8.8,-12.8"
   id="path185491" />
		<path
   class="st5"
   d="m 22.8,1.6 c -5.3,2.6 -8.9,8 -8.9,14.3 0,0.5 0,1 0.1,1.4 2.7,-2.1 6.1,-3.4 9.8,-3.4 2.9,0 5.6,0.8 7.9,2.1 0,0 0,-0.1 0,-0.1 0,-6.3 -3.6,-11.7 -8.9,-14.3"
   id="path185493" />
		<path
   class="st6"
   d="m 31.7,16 c -0.1,6.2 -3.7,11.6 -8.9,14.1 2.1,1 4.4,1.6 6.9,1.6 3.7,0 7.1,-1.3 9.8,-3.4 C 39.1,23 36,18.5 31.7,16"
   id="path185495" />
		<path
   class="st7"
   d="m 23.8,13.9 c -3.7,0 -7.1,1.3 -9.8,3.4 0.5,5.7 4,10.5 8.9,12.8 5.2,-2.6 8.9,-7.9 8.9,-14.1 -2.4,-1.4 -5.2,-2.1 -8,-2.1"
   id="path185497" />
	</g>
</g><g
           id="g185503">
</g><g
           id="g185505">
</g><g
           id="g185507">
</g><g
           id="g185509">
</g><g
           id="g185511">
</g><g
           id="g185513">
</g></g><g
         id="g185553"
         transform="matrix(0.14049175,0,0,0.14049175,52.505199,200.15607)"
         style="filter:url(#filter185991)"><path
           class="st0"
           d="m 76.7,26.7 c -1.4,2.1 -3.8,3.4 -6.5,3.4 -4.3,0 -7.8,-3.5 -7.8,-7.8 0,-4.3 3.5,-7.8 7.8,-7.8 2.9,0 5.4,1.6 6.7,3.9 l 4.3,-5.7 c -2.7,-3.1 -6.6,-5 -11,-5 -8.1,0 -14.7,6.6 -14.7,14.7 0,8.1 6.6,14.6 14.7,14.6 4.6,0 8.7,-2.1 11.4,-5.5 z"
           id="path185517"
           style="fill:#bebebe;fill-opacity:1" /><path
           class="st0"
           d="m 99.8,26.7 c -1.4,2.1 -3.8,3.4 -6.5,3.4 -4.3,0 -7.8,-3.5 -7.8,-7.8 0,-4.3 3.5,-7.8 7.8,-7.8 2.9,0 5.4,1.6 6.7,3.9 l 4.3,-5.7 c -2.7,-3.1 -6.6,-5 -11,-5 -8.1,0 -14.7,6.6 -14.7,14.7 0,8.1 6.7,14.6 14.8,14.6 4.6,0 8.7,-2.1 11.4,-5.5 z"
           id="path185519"
           style="fill:#bebebe;fill-opacity:1" /><polygon
           class="st0"
           points="123.4,7.8 130,7.8 130,36 123.9,36 111.2,19.3 111.2,36 104.2,36 104.2,7.7 110.7,7.7 123.4,24.5 "
           id="polygon185521"
           style="fill:#bebebe;fill-opacity:1" /><g
           id="g185539">
	<circle
   class="st1"
   cx="29.700001"
   cy="15.9"
   r="15.9"
   id="circle185523" />
	<circle
   class="st2"
   cx="23.799999"
   cy="29.700001"
   r="15.9"
   id="circle185525" />
	<circle
   class="st3"
   cx="15.9"
   cy="15.9"
   r="15.9"
   id="circle185527" />
	<g
   id="g185537">
		<path
   class="st4"
   d="m 13.9,17.3 c -3.6,2.9 -6,7.3 -6,12.3 2.3,1.4 5.1,2.1 7.9,2.1 2.5,0 4.8,-0.6 6.9,-1.6 -4.8,-2.4 -8.3,-7.2 -8.8,-12.8"
   id="path185529" />
		<path
   class="st5"
   d="m 22.8,1.6 c -5.3,2.6 -8.9,8 -8.9,14.3 0,0.5 0,1 0.1,1.4 2.7,-2.1 6.1,-3.4 9.8,-3.4 2.9,0 5.6,0.8 7.9,2.1 0,0 0,-0.1 0,-0.1 0,-6.3 -3.6,-11.7 -8.9,-14.3"
   id="path185531" />
		<path
   class="st6"
   d="m 31.7,16 c -0.1,6.2 -3.7,11.6 -8.9,14.1 2.1,1 4.4,1.6 6.9,1.6 3.7,0 7.1,-1.3 9.8,-3.4 C 39.1,23 36,18.5 31.7,16"
   id="path185533" />
		<path
   class="st7"
   d="m 23.8,13.9 c -3.7,0 -7.1,1.3 -9.8,3.4 0.5,5.7 4,10.5 8.9,12.8 5.2,-2.6 8.9,-7.9 8.9,-14.1 -2.4,-1.4 -5.2,-2.1 -8,-2.1"
   id="path185535" />
	</g>
</g><g
           id="g185541">
</g><g
           id="g185543">
</g><g
           id="g185545">
</g><g
           id="g185547">
</g><g
           id="g185549">
</g><g
           id="g185551">
</g></g></g></g><style
     type="text/css"
     id="style183239">
	.st0{fill:#FFFFFF;}
	.st1{fill:#EFC6BF;}
	.st2{fill:#ADD8C0;}
	.st3{fill:#B2C6DE;}
	.st4{fill:#E6F6F7;}
	.st5{fill:#FAF2F7;}
	.st6{fill:#FAF6EF;}
	.st7{fill:#FDFDFD;}
</style></svg>
