<?xml version="1.0" encoding="UTF-8" standalone="no"?>
<!-- Created with Inkscape (http://www.inkscape.org/) -->

<svg
   xml:space="preserve"
   width="25.91626mm"
   height="9.0906258mm"
   viewBox="0 0 25.91626 9.0906258"
   version="1.1"
   id="svg5"
   inkscape:version="1.2.2 (b0a8486541, 2022-12-01)"
   sodipodi:docname="transformations.svg"
   xmlns:inkscape="http://www.inkscape.org/namespaces/inkscape"
   xmlns:sodipodi="http://sodipodi.sourceforge.net/DTD/sodipodi-0.dtd"
   xmlns="http://www.w3.org/2000/svg"
   xmlns:svg="http://www.w3.org/2000/svg"><sodipodi:namedview
     id="namedview7"
     pagecolor="#ffffff"
     bordercolor="#000000"
     borderopacity="0.25"
     inkscape:showpageshadow="false"
     inkscape:pageopacity="0.0"
     inkscape:pagecheckerboard="false"
     inkscape:deskcolor="#d1d1d1"
     inkscape:document-units="mm"
     showgrid="false"
     showborder="false"
     borderlayer="false"
     showguides="false"
     inkscape:zoom="1.5280054"
     inkscape:cx="67.080914"
     inkscape:cy="308.89943"
     inkscape:window-width="1720"
     inkscape:window-height="1422"
     inkscape:window-x="0"
     inkscape:window-y="0"
     inkscape:window-maximized="1"
     inkscape:current-layer="layer1"><inkscape:grid
       type="xygrid"
       id="grid113"
       originx="0"
       originy="0"
       visible="true"
       dotted="false"
       units="mm"
       spacingx="1"
       spacingy="1" /></sodipodi:namedview><defs
     id="defs2" /><g
     inkscape:label="Layer 1"
     inkscape:groupmode="layer"
     id="layer1"
     transform="translate(-37.99038,-114.46976)"><g
       id="g183339"
       transform="matrix(0.19935584,0,0,0.19935584,37.99038,114.46976)"
       inkscape:export-filename="ccn.svg"
       inkscape:export-xdpi="96"
       inkscape:export-ydpi="96"><path
         class="st0"
         d="m 76.7,26.7 c -1.4,2.1 -3.8,3.4 -6.5,3.4 -4.3,0 -7.8,-3.5 -7.8,-7.8 0,-4.3 3.5,-7.8 7.8,-7.8 2.9,0 5.4,1.6 6.7,3.9 l 4.3,-5.7 c -2.7,-3.1 -6.6,-5 -11,-5 -8.1,0 -14.7,6.6 -14.7,14.7 0,8.1 6.6,14.6 14.7,14.6 4.6,0 8.7,-2.1 11.4,-5.5 z"
         id="path183303"
         style="fill:#bebebe;fill-opacity:1" /><path
         class="st0"
         d="m 99.8,26.7 c -1.4,2.1 -3.8,3.4 -6.5,3.4 -4.3,0 -7.8,-3.5 -7.8,-7.8 0,-4.3 3.5,-7.8 7.8,-7.8 2.9,0 5.4,1.6 6.7,3.9 l 4.3,-5.7 c -2.7,-3.1 -6.6,-5 -11,-5 -8.1,0 -14.7,6.6 -14.7,14.7 0,8.1 6.7,14.6 14.8,14.6 4.6,0 8.7,-2.1 11.4,-5.5 z"
         id="path183305"
         style="fill:#bebebe;fill-opacity:1" /><polygon
         class="st0"
         points="104.2,36 104.2,7.7 110.7,7.7 123.4,24.5 123.4,7.8 130,7.8 130,36 123.9,36 111.2,19.3 111.2,36 "
         id="polygon183307"
         style="fill:#bebebe;fill-opacity:1" /><g
         id="g183325">
	<circle
   class="st1"
   cx="29.700001"
   cy="15.9"
   r="15.9"
   id="circle183309" />
	<circle
   class="st2"
   cx="23.799999"
   cy="29.700001"
   r="15.9"
   id="circle183311" />
	<circle
   class="st3"
   cx="15.9"
   cy="15.9"
   r="15.9"
   id="circle183313" />
	<g
   id="g183323">
		<path
   class="st4"
   d="m 13.9,17.3 c -3.6,2.9 -6,7.3 -6,12.3 2.3,1.4 5.1,2.1 7.9,2.1 2.5,0 4.8,-0.6 6.9,-1.6 -4.8,-2.4 -8.3,-7.2 -8.8,-12.8"
   id="path183315" />
		<path
   class="st5"
   d="m 22.8,1.6 c -5.3,2.6 -8.9,8 -8.9,14.3 0,0.5 0,1 0.1,1.4 2.7,-2.1 6.1,-3.4 9.8,-3.4 2.9,0 5.6,0.8 7.9,2.1 0,0 0,-0.1 0,-0.1 0,-6.3 -3.6,-11.7 -8.9,-14.3"
   id="path183317" />
		<path
   class="st6"
   d="m 31.7,16 c -0.1,6.2 -3.7,11.6 -8.9,14.1 2.1,1 4.4,1.6 6.9,1.6 3.7,0 7.1,-1.3 9.8,-3.4 C 39.1,23 36,18.5 31.7,16"
   id="path183319" />
		<path
   class="st7"
   d="m 23.8,13.9 c -3.7,0 -7.1,1.3 -9.8,3.4 0.5,5.7 4,10.5 8.9,12.8 5.2,-2.6 8.9,-7.9 8.9,-14.1 -2.4,-1.4 -5.2,-2.1 -8,-2.1"
   id="path183321" />
	</g>
</g><g
         id="g183327">
</g><g
         id="g183329">
</g><g
         id="g183331">
</g><g
         id="g183333">
</g><g
         id="g183335">
</g><g
         id="g183337">
</g></g></g><style
     type="text/css"
     id="style183239">
	.st0{fill:#FFFFFF;}
	.st1{fill:#EFC6BF;}
	.st2{fill:#ADD8C0;}
	.st3{fill:#B2C6DE;}
	.st4{fill:#E6F6F7;}
	.st5{fill:#FAF2F7;}
	.st6{fill:#FAF6EF;}
	.st7{fill:#FDFDFD;}
</style></svg>
