<?xml version="1.0" encoding="UTF-8" standalone="no"?>
<!-- Created with Inkscape (http://www.inkscape.org/) -->

<svg
   width="82.104187mm"
   height="67.352486mm"
   viewBox="0 0 82.104187 67.352486"
   version="1.1"
   id="svg10061"
   xmlns="http://www.w3.org/2000/svg"
   xmlns:svg="http://www.w3.org/2000/svg">
  <defs
     id="defs10058" />
  <g
     id="layer1"
     transform="translate(-45.08788,-80.733602)">
    <g
       style="clip-rule:evenodd;fill-rule:evenodd;stroke-width:1.18778;stroke-linejoin:round;stroke-miterlimit:1.41421"
       id="g23153"
       transform="matrix(0.11714783,0,0,0.11714783,45.08804,80.73404)">
      <g
         transform="translate(-1710.05,-1896.6)"
         id="g23112"
         style="stroke-width:1.18778">
        <g
   transform="translate(-181.001,-15.0476)"
   id="g23110"
   style="stroke-width:1.18778">
            <g
   transform="rotate(180,2336.245,2321.925)"
   id="g23050"
   style="stroke-width:1.18778">
                <path
   d="m 2291.4484,2338.58 c -4.5726,3.69 -14.6085,18.11 -23.3399,23.58 -15.5974,9.77 -45.7542,29.36 -70.2372,35.05 -26.8185,6.23 -72.243,1.24 -90.6807,2.34 -6.7257,0.41 -15.6395,3.11 -19.9596,4.28 -2.0619,0.56 -3.4084,1.54 -5.9963,2.73 -4.6848,2.14 17.0421,-4.59 25.6683,-4.75 12.217,-0.22 31.7277,3.66 47.6197,3.39 16.4179,-0.27 35.101,-0.88 50.9088,-5 15.1134,-3.94 30.5986,-11.94 43.9657,-19.72 12.6098,-7.34 28.8944,-21.15 36.2373,-26.98 2.7982,-2.22 6.1505,-5.75 7.7986,-8 1.066,-1.44 2.4476,-4.33 2.118,-5.49 -0.3296,-1.15 -2.8754,-2.42 -4.1027,-1.43 z"
   style="fill:#332c2a;stroke-width:0.994706"
   id="path23048" />

            </g>

            <g
   transform="rotate(180,2336.245,2321.925)"
   id="g23054"
   style="stroke-width:1.18778">
                <path
   d="m 2290.67,2360.24 c 1.55,-1.08 5.66,-0.37 5.87,1.65 0.2,1.87 -1,5.9 -2.61,9.6 -0.62,1.41 -3.45,5.34 -4.46,6.21 -3.59,3.1 -6.16,5.82 -13.35,9.84 -6.35,3.56 -14.32,6.5 -20.21,9.47 -3.92,1.97 -10.12,4.14 -15.2,6.45 -19.33,8.76 -43.59,19.52 -61.15,29.22 -19.9,11 -48.32,30.19 -56.73,37.85 -4.72,4.31 -13.18,24.74 -8.58,11.83 1.22,-3.42 5.78,-12.71 10.77,-17.34 7.52,-6.98 22.24,-17.34 34.33,-24.54 13.77,-8.21 34.45,-17.64 48.28,-24.71 11.56,-5.91 23.04,-11.98 34.68,-17.72 11.84,-5.83 28.86,-12.32 36.34,-17.26 4.2,-2.77 6.57,-8.98 8.57,-12.4 1.49,-2.55 1.89,-7.06 3.45,-8.15 z"
   style="fill:#332c2a;stroke-width:1.18778"
   id="path23052" />

            </g>

            <g
   transform="rotate(180,2336.245,2321.925)"
   id="g23058"
   style="stroke-width:1.18778">
                <path
   d="m 2303.64,2318.87 c -3.17,-3.67 -13.84,-12.02 -20.82,-17.95 -7.62,-6.49 -17.83,-14.03 -24.92,-20.93 -6.45,-6.28 -10.92,-15.89 -17.63,-20.47 -6.52,-4.46 -15.33,-5.63 -22.63,-7.05 -6.93,-1.36 -26.38,-2.61 -21.14,-1.5 3.22,0.68 12.78,2.05 26.01,4.47 2.51,0.45 6.17,0.89 9.09,2.18 5.17,2.29 8.98,6.53 10.23,8.24 1.14,1.56 6.59,8.93 10.35,13 4.68,5.06 11.94,11.42 17.7,17.35 5.88,6.06 13.5,14.77 17.61,19.01 2.21,2.28 4.67,5.13 7.05,6.41 2.17,1.17 5.75,1.75 7.27,1.29 1.41,-0.43 2.8,-2.93 1.83,-4.05 z"
   style="fill:#332c2a;stroke-width:1.18778"
   id="path23056" />

            </g>

            <g
   transform="matrix(0.479372,-0.0910156,0.0910156,0.479372,1304.08,1402.73)"
   id="g23062"
   style="stroke-width:1.18778">
                <path
   d="m 1760.42,1889.33 c -2.72,2.95 0.41,17.62 1.94,26.26 1.8,10.16 4.56,28.74 8.88,34.71 3.33,4.6 14.13,5.99 17.02,1.09 2.89,-4.92 1.94,-21.7 0.34,-30.61 -1.47,-8.18 -5.25,-17.62 -9.95,-22.86 -4.48,-5.01 -15.52,-11.53 -18.23,-8.59 z"
   id="path23060"
   style="stroke-width:1.18778" />

            </g>

            <g
   transform="matrix(0.479372,-0.0910156,0.0910156,0.479372,1310.11,1401.39)"
   id="g23066"
   style="stroke-width:1.18778">
                <path
   d="m 1813.07,2071.07 c -10.87,-27.48 -27.15,-52.78 -36.27,-80.88 -10.29,-31.74 -16.99,-75.61 -25.5,-109.53 -7.9,-31.51 -15.85,-63.03 -25.54,-94.03 -10,-32.02 -20.91,-66.23 -34.5,-98.13 -16.04,-37.65 -41.18,-101.7 -61.75,-127.78 -14.03,-17.79 -39.59,-23.45 -61.64,-28.7 -45.84,-10.91 -144.75,-39.96 -213.39,-36.8 -68.65,3.16 -162.66,20.59 -198.49,55.77 -35.83,35.18 1.48,115.59 -16.51,155.31 -16.98,37.5 -80.72,43.27 -91.42,83.02 -13.59,50.47 -19.35,153.02 9.91,219.8 29.26,66.78 101.2,137.04 165.65,180.85 64.45,43.81 164.72,59.26 221.02,82.01 39.84,16.08 78.83,41.98 116.81,54.44 35.77,11.74 73.95,26.56 111.08,20.36 37.7,-6.3 86.25,-27.81 115.13,-58.14 28.89,-30.33 53.96,-87.6 58.2,-123.86 3.84,-32.87 -21.28,-64.61 -32.79,-93.71 z"
   style="fill:#cecdca;stroke-width:1.18778"
   id="path23064" />

            </g>

            <g
   transform="matrix(0.479372,-0.0910156,0.0910156,0.479372,1310.11,1401.39)"
   id="g23070"
   style="stroke-width:1.18778">
                <path
   d="m 1083.08,1810.9 c -30.36,-13.73 -79.99,-49.39 -105.027,-84.05 -25.036,-34.65 -38.019,-80.51 -45.189,-123.87 -7.259,-43.9 -7.412,-108.18 1.633,-139.53 6.62,-22.95 29.005,-45.18 52.641,-48.6 23.962,-3.47 66.102,8.25 91.142,27.79 26.43,20.64 50.34,66.73 67.47,96.02 14.68,25.09 26.66,51.97 35.33,79.72 9.12,29.18 22.86,63.6 19.38,95.4 -3.48,31.81 -20.71,79.22 -40.28,95.41 -19.56,16.18 -53.68,12.3 -77.1,1.71 z"
   style="fill:#9c8f86;stroke-width:1.18778"
   id="path23068" />

            </g>

            <g
   transform="matrix(0.479372,-0.0910156,0.0910156,0.479372,1305.35,1397.98)"
   id="g23074"
   style="stroke-width:1.18778">
                <path
   d="m 1081.8,1448.08 c 11.86,4.1 53.45,27.37 79.25,42.7 28.82,17.13 76.57,38.56 93.67,60.04 14.42,18.1 9.73,47.59 8.98,68.85 -0.72,20.08 -4.93,40.85 -13.52,58.73 -8.59,17.88 -23.92,57.52 -38.01,48.53 -14.1,-8.99 -36.27,-74.04 -46.55,-102.48 -7.91,-21.89 -6.21,-46.66 -15.1,-68.16 -9.21,-22.28 -30.07,-50.49 -40.18,-65.51 -5.96,-8.85 -15.71,-17.5 -20.46,-24.62 -3.67,-5.49 -14.32,-20.24 -8.08,-18.08 z"
   style="fill:#7d6354;stroke-width:1.18778"
   id="path23072" />

            </g>

            <g
   transform="matrix(0.473646,-0.117219,0.117219,0.473646,1256.46,1447.31)"
   id="g23078"
   style="stroke-width:1.18778">
                <path
   d="m 1734.08,1725.72 c 7.97,-3.25 53.63,-21.31 66.68,-39.46 13.06,-18.14 11.21,-45.95 11.65,-69.41 0.51,-27.09 -4.51,-85.15 -8.57,-93.15 -4.06,-8 -11.13,29.9 -15.8,45.14 -5.35,17.46 -10.89,41.68 -16.31,59.59 -4.88,16.12 -13.1,34.97 -16.22,47.86 -2.33,9.58 1.04,21.24 -2.53,29.47 -3.57,8.24 -26.86,23.21 -18.9,19.96 z"
   style="fill:#9c8f86;stroke-width:1.18778"
   id="path23076" />

            </g>

            <g
   transform="matrix(0.479372,-0.0910156,0.0910156,0.479372,1300.41,1402.04)"
   id="g23082"
   style="stroke-width:1.18778">
                <path
   d="m 1608.12,1538.89 c 5.19,-24.43 59.56,-64.66 80.3,-85.87 14.1,-14.42 31.88,-32.16 44.14,-41.39 8.68,-6.54 18.93,-16.72 29.45,-13.99 13.83,3.59 52.6,14.14 53.58,35.55 1.11,24.33 -36.88,75.02 -46.89,110.47 -9.34,33.05 -8.04,78.91 -13.2,102.19 -3,13.5 -8.74,27.97 -17.82,37.46 -9.08,9.5 -27.08,29.49 -36.67,19.5 -13.39,-13.95 -28.2,-75.87 -43.68,-103.19 -12.84,-22.67 -54.39,-36.29 -49.21,-60.73 z"
   style="fill:#7d6354;stroke-width:1.18778"
   id="path23080" />

            </g>

            <g
   transform="matrix(0.479372,-0.0910156,0.0910156,0.479372,1310.59,1403.95)"
   id="g23086"
   style="stroke-width:1.18778">
                <path
   d="m 1522.78,1986.79 c 3.17,-4.76 -3.18,-15.06 -3.55,-22.71 -0.48,-9.86 3.04,-26.47 0.67,-36.45 -2.14,-9 -7.58,-17.75 -14.9,-23.42 -8.78,-6.8 -25.45,-15.54 -37.77,-17.38 -12.09,-1.8 -27.04,4.15 -36.12,6.38 -6.36,1.56 -12.08,5.17 -18.36,7 -6.52,1.9 -18.13,1.24 -20.75,4.39 -2.61,3.16 3.98,9.53 5.07,14.55 1.4,6.46 0.41,16.6 3.32,24.21 3.69,9.65 10.6,26.09 18.81,33.69 8,7.42 19.9,9.24 30.46,11.95 10.74,2.75 25.52,3.97 33.94,4.57 5.52,0.4 11.13,0.02 16.58,-0.93 6.53,-1.13 19.42,-1.09 22.6,-5.85 z"
   style="fill:#646463;stroke-width:1.18778"
   id="path23084" />

            </g>

            <g
   transform="matrix(0.487936,0,0,0.487936,1429.84,1050.3)"
   id="g23090"
   style="stroke-width:1.18778">
                <path
   d="m 1535.2,2392.1 c 5.5,1.63 15.04,4.39 22.77,4.43 8.85,0.05 23.78,-0.19 30.32,-4.14 6.13,-3.7 7.67,-12.49 8.91,-19.54 1.25,-7.09 1.66,-15.96 -1.42,-23 -3.28,-7.5 -11.38,-17.13 -18.26,-22 -6.56,-4.64 -14.97,-7.22 -23.01,-7.21 -10.1,0.02 -29.01,4.03 -37.59,7.3 -5.77,2.2 -12.27,6.48 -13.84,12.34 -1.56,5.85 1.17,15.77 4.46,22.77 3.65,7.75 12.81,18.86 17.42,23.7 2.65,2.79 6.55,4.26 10.24,5.35 z"
   id="path23088"
   style="stroke-width:1.18778" />

            </g>

            <g
   transform="matrix(0.479372,-0.0910156,0.0910156,0.479372,1311.8,1402.36)"
   id="g23094"
   style="stroke-width:1.18778">
                <path
   d="m 1587.01,2317.46 c -9.77,-7.55 -20.13,-16.39 -24.16,-28.06 -5.28,-15.26 -10.91,-45.8 -7.52,-63.56 3.19,-16.78 13.48,-33.75 27.82,-43.02 16.47,-10.65 46.7,-16.53 70.98,-20.85 24.96,-4.43 52.65,-2.39 78.75,-5.77 26.27,-3.4 60.67,-15.6 78.83,-14.65 12.1,0.64 22.53,-1.41 30.1,20.38 5.54,15.96 0.42,19.32 -7.44,45.04 -6.65,21.77 -24.33,43.43 -30.56,56.71 -9.69,20.64 -29.68,35.76 -47.65,49.06 -17.98,13.31 -40.63,24.88 -60.21,30.75 -18.34,5.51 -39.11,8.87 -57.27,4.53 -18.16,-4.34 -39.04,-20.8 -51.67,-30.56 z"
   style="fill:#8e7673;stroke-width:1.18778"
   id="path23092" />

            </g>

            <g
   transform="matrix(-0.287346,0.394352,-0.394352,-0.287346,3737.06,2303.68)"
   id="g23098"
   style="stroke-width:1.18778">
                <path
   d="m 1781.77,2283.74 c -6.65,9 -22.06,18.19 -27.46,19.29 -12.35,2.53 -36.88,-17.37 -57.13,-32.34 -24.17,-17.86 -51.42,-20.27 -56.18,-26.27 -10.25,-12.91 -5.01,-15.98 0.51,-19.3 9.18,-5.53 36.92,-12.64 54.57,-13.87 17.21,-1.21 36.83,3.49 51.33,6.46 12.23,2.5 27.82,6.23 35.68,11.36 6.31,4.11 11.71,11.89 11.53,19.42 -0.22,9.11 -6.13,26.16 -12.85,35.25 z"
   style="fill:#d3a79c;stroke-width:1.18778"
   id="path23096" />

            </g>

            <g
   transform="matrix(0.487936,0,0,0.487936,1429.84,1050.3)"
   id="g23102"
   style="stroke-width:1.18778">
                <path
   d="m 1526.41,2337.68 c 3.96,-2.28 11.03,-5.2 16.98,-6.15 6.38,-1.02 17.75,-1.62 21.31,0.03 1.65,0.76 7.05,3.82 6.86,6.1 -0.15,1.86 -5.58,2.98 -6.83,3.76 -2.96,1.86 -11.94,0.24 -17.76,1.26 -5.83,1.01 -12.61,4.4 -17.17,4.83 -3.47,0.32 -9.62,-0.65 -10.19,-2.29 -0.56,-1.63 3.86,-5.85 6.8,-7.54 z"
   style="fill:#ffffff;fill-opacity:0.576471;stroke-width:1.18778"
   id="path23100" />

            </g>

            <path
   d="m 2289.68,2338.58 c -6.52,3.69 -20.83,18.11 -33.28,23.58 -22.24,9.77 -65.24,29.36 -100.15,35.05 -38.24,6.23 -103.01,1.24 -129.3,2.34 -9.59,0.41 -22.3,3.11 -28.46,4.28 -2.94,0.56 -4.86,1.54 -8.55,2.73 -6.68,2.14 24.3,-4.59 36.6,-4.75 17.42,-0.22 45.24,3.66 67.9,3.39 23.41,-0.27 50.05,-0.88 72.59,-5 21.55,-3.94 43.63,-11.94 62.69,-19.72 17.98,-7.34 41.2,-21.15 51.67,-26.98 3.99,-2.22 8.77,-5.75 11.12,-8 1.52,-1.44 3.49,-4.33 3.02,-5.49 -0.47,-1.15 -4.1,-2.42 -5.85,-1.43 z"
   style="fill:#332c2a;stroke-width:1.18778"
   id="path23104" />

            <path
   d="m 2290.67,2360.24 c 1.55,-1.08 5.66,-0.37 5.87,1.65 0.2,1.87 -1,5.9 -2.61,9.6 -0.62,1.41 -3.45,5.34 -4.46,6.21 -3.59,3.1 -6.16,5.82 -13.35,9.84 -6.35,3.56 -14.32,6.5 -20.21,9.47 -3.92,1.97 -10.12,4.14 -15.2,6.45 -19.33,8.76 -43.59,19.52 -61.15,29.22 -19.9,11 -48.32,30.19 -56.73,37.85 -4.72,4.31 -13.18,24.74 -8.58,11.83 1.22,-3.42 5.78,-12.71 10.77,-17.34 7.52,-6.98 22.24,-17.34 34.33,-24.54 13.77,-8.21 34.45,-17.64 48.28,-24.71 11.56,-5.91 23.04,-11.98 34.68,-17.72 11.84,-5.83 28.86,-12.32 36.34,-17.26 4.2,-2.77 6.57,-8.98 8.57,-12.4 1.49,-2.55 1.89,-7.06 3.45,-8.15 z"
   style="fill:#332c2a;stroke-width:1.18778"
   id="path23106" />

            <path
   d="m 2303.64,2318.87 c -3.17,-3.67 -13.84,-12.02 -20.82,-17.95 -7.62,-6.49 -17.83,-14.03 -24.92,-20.93 -6.45,-6.28 -10.92,-15.89 -17.63,-20.47 -6.52,-4.46 -15.33,-5.63 -22.63,-7.05 -6.93,-1.36 -26.38,-2.61 -21.14,-1.5 3.22,0.68 12.78,2.05 26.01,4.47 2.51,0.45 6.17,0.89 9.09,2.18 5.17,2.29 8.98,6.53 10.23,8.24 1.14,1.56 6.59,8.93 10.35,13 4.68,5.06 11.94,11.42 17.7,17.35 5.88,6.06 13.5,14.77 17.61,19.01 2.21,2.28 4.67,5.13 7.05,6.41 2.17,1.17 5.75,1.75 7.27,1.29 1.41,-0.43 2.8,-2.93 1.83,-4.05 z"
   style="fill:#332c2a;stroke-width:1.18778"
   id="path23108" />

        </g>

    </g>
    </g>
  </g>
</svg>
