<?xml version="1.0" encoding="UTF-8" standalone="no"?>
<!-- Created with Inkscape (http://www.inkscape.org/) -->

<svg
   width="9.0906219mm"
   height="9.0906219mm"
   viewBox="0 0 9.0906219 9.0906219"
   version="1.1"
   id="svg559"
   sodipodi:docname="ccn-logo.svg"
   xml:space="preserve"
   inkscape:version="1.2.2 (b0a8486541, 2022-12-01)"
   xmlns:inkscape="http://www.inkscape.org/namespaces/inkscape"
   xmlns:sodipodi="http://sodipodi.sourceforge.net/DTD/sodipodi-0.dtd"
   xmlns="http://www.w3.org/2000/svg"
   xmlns:svg="http://www.w3.org/2000/svg"><sodipodi:namedview
     id="namedview14"
     pagecolor="#ffffff"
     bordercolor="#000000"
     borderopacity="0.25"
     inkscape:showpageshadow="2"
     inkscape:pageopacity="0.0"
     inkscape:pagecheckerboard="0"
     inkscape:deskcolor="#d1d1d1"
     inkscape:document-units="mm"
     showgrid="false"
     inkscape:zoom="5.8471805"
     inkscape:cx="-48.228373"
     inkscape:cy="40.532356"
     inkscape:window-width="1920"
     inkscape:window-height="1062"
     inkscape:window-x="0"
     inkscape:window-y="0"
     inkscape:window-maximized="1"
     inkscape:current-layer="svg559"><inkscape:grid
       type="xygrid"
       id="grid1786" /></sodipodi:namedview><defs
     id="defs556"><path
       id="MJSZ2-2211"
       stroke-width="10"
       d="M60 948Q63 950 665 950H1267L1325 815Q1384 677 1388 669H1348L1341 683Q1320 724 1285 761Q1235 809 1174 838T1033 881T882 898T699 902H574H543H251L259 891Q722 258 724 252Q725 250 724 246Q721 243 460 -56L196 -356Q196 -357 407 -357Q459 -357 548 -357T676 -358Q812 -358 896 -353T1063 -332T1204 -283T1307 -196Q1328 -170 1348 -124H1388Q1388 -125 1381 -145T1356 -210T1325 -294L1267 -449L666 -450Q64 -450 61 -448Q55 -446 55 -439Q55 -437 57 -433L590 177Q590 178 557 222T452 366T322 544L56 909L55 924Q55 945 60 948Z" /><path
       id="MJMATHI-69"
       stroke-width="10"
       d="M184 600Q184 624 203 642T247 661Q265 661 277 649T290 619Q290 596 270 577T226 557Q211 557 198 567T184 600ZM21 287Q21 295 30 318T54 369T98 420T158 442Q197 442 223 419T250 357Q250 340 236 301T196 196T154 83Q149 61 149 51Q149 26 166 26Q175 26 185 29T208 43T235 78T260 137Q263 149 265 151T282 153Q302 153 302 143Q302 135 293 112T268 61T223 11T161 -11Q129 -11 102 10T74 74Q74 91 79 106T122 220Q160 321 166 341T173 380Q173 404 156 404H154Q124 404 99 371T61 287Q60 286 59 284T58 281T56 279T53 278T49 278T41 278H27Q21 284 21 287Z" /><path
       id="MJMAIN-3D"
       stroke-width="10"
       d="M56 347Q56 360 70 367H707Q722 359 722 347Q722 336 708 328L390 327H72Q56 332 56 347ZM56 153Q56 168 72 173H708Q722 163 722 153Q722 140 707 133H70Q56 140 56 153Z" /><path
       id="MJMAIN-30"
       stroke-width="10"
       d="M96 585Q152 666 249 666Q297 666 345 640T423 548Q460 465 460 320Q460 165 417 83Q397 41 362 16T301 -15T250 -22Q224 -22 198 -16T137 16T82 83Q39 165 39 320Q39 494 96 585ZM321 597Q291 629 250 629Q208 629 178 597Q153 571 145 525T137 333Q137 175 145 125T181 46Q209 16 250 16Q290 16 318 46Q347 76 354 130T362 333Q362 478 354 524T321 597Z" /><path
       id="MJMATHI-6E"
       stroke-width="10"
       d="M21 287Q22 293 24 303T36 341T56 388T89 425T135 442Q171 442 195 424T225 390T231 369Q231 367 232 367L243 378Q304 442 382 442Q436 442 469 415T503 336T465 179T427 52Q427 26 444 26Q450 26 453 27Q482 32 505 65T540 145Q542 153 560 153Q580 153 580 145Q580 144 576 130Q568 101 554 73T508 17T439 -10Q392 -10 371 17T350 73Q350 92 386 193T423 345Q423 404 379 404H374Q288 404 229 303L222 291L189 157Q156 26 151 16Q138 -11 108 -11Q95 -11 87 -5T76 7T74 17Q74 30 112 180T152 343Q153 348 153 366Q153 405 129 405Q91 405 66 305Q60 285 60 284Q58 278 41 278H27Q21 284 21 287Z" /><path
       id="MJMAIN-28"
       stroke-width="10"
       d="M94 250Q94 319 104 381T127 488T164 576T202 643T244 695T277 729T302 750H315H319Q333 750 333 741Q333 738 316 720T275 667T226 581T184 443T167 250T184 58T225 -81T274 -167T316 -220T333 -241Q333 -250 318 -250H315H302L274 -226Q180 -141 137 -14T94 250Z" /><path
       id="MJMAIN-2B"
       stroke-width="10"
       d="M56 237T56 250T70 270H369V420L370 570Q380 583 389 583Q402 583 409 568V270H707Q722 262 722 250T707 230H409V-68Q401 -82 391 -82H389H387Q375 -82 369 -68V230H70Q56 237 56 250Z" /><path
       id="MJMAIN-31"
       stroke-width="10"
       d="M213 578L200 573Q186 568 160 563T102 556H83V602H102Q149 604 189 617T245 641T273 663Q275 666 285 666Q294 666 302 660V361L303 61Q310 54 315 52T339 48T401 46H427V0H416Q395 3 257 3Q121 3 100 0H88V46H114Q136 46 152 46T177 47T193 50T201 52T207 57T213 61V578Z" /><path
       id="MJMAIN-29"
       stroke-width="10"
       d="M60 749L64 750Q69 750 74 750H86L114 726Q208 641 251 514T294 250Q294 182 284 119T261 12T224 -76T186 -143T145 -194T113 -227T90 -246Q87 -249 86 -250H74Q66 -250 63 -250T58 -247T55 -238Q56 -237 66 -225Q221 -64 221 250T66 725Q56 737 55 738Q55 746 60 749Z" /><path
       id="MJMAIN-32"
       stroke-width="10"
       d="M109 429Q82 429 66 447T50 491Q50 562 103 614T235 666Q326 666 387 610T449 465Q449 422 429 383T381 315T301 241Q265 210 201 149L142 93L218 92Q375 92 385 97Q392 99 409 186V189H449V186Q448 183 436 95T421 3V0H50V19V31Q50 38 56 46T86 81Q115 113 136 137Q145 147 170 174T204 211T233 244T261 278T284 308T305 340T320 369T333 401T340 431T343 464Q343 527 309 573T212 619Q179 619 154 602T119 569T109 550Q109 549 114 549Q132 549 151 535T170 489Q170 464 154 447T109 429Z" /><path
       id="MJMAIN-22A4"
       stroke-width="10"
       d="M55 642T55 648T59 659T66 666T71 668H708Q723 660 723 648T708 628H409V15Q402 2 391 0Q387 0 384 1T379 3T375 6T373 9T371 13T369 16V628H71Q70 628 67 630T59 637Z" /></defs><g
     id="g2101"><g
       id="g183325"
       transform="matrix(0.19935584,0,0,0.19935584,-3e-6,0)"><circle
         class="st1"
         cx="29.700001"
         cy="15.9"
         r="15.9"
         id="circle183309"
         style="fill:#efc6bf" /><circle
         class="st2"
         cx="23.799999"
         cy="29.700001"
         r="15.9"
         id="circle183311"
         style="fill:#add8c0" /><circle
         class="st3"
         cx="15.9"
         cy="15.9"
         r="15.9"
         id="circle183313"
         style="fill:#b2c6de" /><g
         id="g183323"><path
           class="st4"
           d="m 13.9,17.3 c -3.6,2.9 -6,7.3 -6,12.3 2.3,1.4 5.1,2.1 7.9,2.1 2.5,0 4.8,-0.6 6.9,-1.6 -4.8,-2.4 -8.3,-7.2 -8.8,-12.8"
           id="path183315"
           style="fill:#e6f6f7" /><path
           class="st5"
           d="m 22.8,1.6 c -5.3,2.6 -8.9,8 -8.9,14.3 0,0.5 0,1 0.1,1.4 2.7,-2.1 6.1,-3.4 9.8,-3.4 2.9,0 5.6,0.8 7.9,2.1 0,0 0,-0.1 0,-0.1 0,-6.3 -3.6,-11.7 -8.9,-14.3"
           id="path183317"
           style="fill:#faf2f7" /><path
           class="st6"
           d="m 31.7,16 c -0.1,6.2 -3.7,11.6 -8.9,14.1 2.1,1 4.4,1.6 6.9,1.6 3.7,0 7.1,-1.3 9.8,-3.4 C 39.1,23 36,18.5 31.7,16"
           id="path183319"
           style="fill:#faf6ef" /><path
           class="st7"
           d="m 23.8,13.9 c -3.7,0 -7.1,1.3 -9.8,3.4 0.5,5.7 4,10.5 8.9,12.8 5.2,-2.6 8.9,-7.9 8.9,-14.1 -2.4,-1.4 -5.2,-2.1 -8,-2.1"
           id="path183321"
           style="fill:#fdfdfd" /></g></g><g
       id="g2070"
       transform="translate(-0.19935526,-0.31717751)"><g
         id="g867"><path
           style="fill:none;fill-opacity:1;stroke:#12010a;stroke-width:1.5;stroke-linecap:square;stroke-linejoin:round;stroke-dasharray:none;stroke-opacity:1"
           d="M 2.7602905,2.7511108 H 6.7290404"
           id="path1788" /><path
           style="fill:none;fill-opacity:1;stroke:#12010a;stroke-width:1.5;stroke-linecap:square;stroke-linejoin:round;stroke-dasharray:none;stroke-opacity:1"
           d="m 4.7446655,6.9738706 -1e-7,-4.2227598"
           id="path1790"
           sodipodi:nodetypes="cc" /></g></g></g></svg>
