<?xml version="1.0" encoding="UTF-8" standalone="no"?>
<svg
   xmlns:dc="http://purl.org/dc/elements/1.1/"
   xmlns:cc="http://creativecommons.org/ns#"
   xmlns:rdf="http://www.w3.org/1999/02/22-rdf-syntax-ns#"
   xmlns:svg="http://www.w3.org/2000/svg"
   xmlns="http://www.w3.org/2000/svg"
   xmlns:sodipodi="http://sodipodi.sourceforge.net/DTD/sodipodi-0.dtd"
   xmlns:inkscape="http://www.inkscape.org/namespaces/inkscape"
   width="4.1587634mm"
   height="27.407177mm"
   viewBox="0 0 4.1587634 27.407177"
   version="1.1"
   id="svg8"
   sodipodi:docname="fishtop.svg"
   inkscape:version="1.0 (4035a4f, 2020-05-01)"
   inkscape:export-filename="/Users/luigipetrucco/Desktop/fish_embedding.png"
   inkscape:export-xdpi="600"
   inkscape:export-ydpi="600">
  <defs
     id="defs2">
    <clipPath
       id="clipPath902"
       clipPathUnits="userSpaceOnUse">
      <path
         id="path900"
         d="M 0,0 H 186 V 186 H 0 Z" />
    </clipPath>
    <clipPath
       id="clipPath986"
       clipPathUnits="userSpaceOnUse">
      <path
         id="path984"
         d="m 21,129 h 35 v 35 H 21 Z" />
    </clipPath>
    <clipPath
       id="clipPath992"
       clipPathUnits="userSpaceOnUse">
      <path
         id="path990"
         d="m 55.969,146.293 c 0,9.383 -7.606,16.992 -16.989,16.992 -9.382,0 -16.988,-7.609 -16.988,-16.992 0,-9.383 7.606,-16.988 16.988,-16.988 9.383,0 16.989,7.605 16.989,16.988 z" />
    </clipPath>
    <clipPath
       id="clipPath1002"
       clipPathUnits="userSpaceOnUse">
      <path
         id="path1000"
         d="M 0,0 H 186 V 186 H 0 Z" />
    </clipPath>
    <clipPath
       id="clipPath1012"
       clipPathUnits="userSpaceOnUse">
      <path
         id="path1010"
         d="m 21.992,129.305 h 33.973 v 33.98 H 21.992 Z" />
    </clipPath>
    <clipPath
       id="clipPath1024"
       clipPathUnits="userSpaceOnUse">
      <path
         id="path1022"
         d="m 92.363,77.414 h 7.254 v 49.152 h -7.254 z" />
    </clipPath>
    <clipPath
       id="clipPath1032"
       clipPathUnits="userSpaceOnUse">
      <path
         id="path1030"
         d="M 0,0 H 186 V 186 H 0 Z" />
    </clipPath>
    <clipPath
       id="clipPath1036"
       clipPathUnits="userSpaceOnUse">
      <path
         id="path1034"
         d="M 0,0 H 186 V 186 H 0 Z" />
    </clipPath>
    <clipPath
       clipPathUnits="userSpaceOnUse"
       id="clipPath1382">
      <rect
         style="opacity:0.97;fill:#10a8ff;fill-opacity:1;stroke:none;stroke-width:0.865002;stroke-linecap:round;stroke-miterlimit:4;stroke-dasharray:none;stroke-opacity:1"
         id="rect1384"
         width="42"
         height="42"
         x="38.469501"
         y="11.255149" />
    </clipPath>
    <clipPath
       id="clipPath9124"
       clipPathUnits="userSpaceOnUse">
      <path
         inkscape:connector-curvature="0"
         id="path9126"
         d="m 288.556,443.715 h 143.3 v -81.156 h -143.3 z" />
    </clipPath>
    <clipPath
       id="clipPath1382-2"
       clipPathUnits="userSpaceOnUse">
      <rect
         y="11.255149"
         x="38.469501"
         height="42"
         width="42"
         id="rect1384-3"
         style="opacity:0.97;fill:#10a8ff;fill-opacity:1;stroke:none;stroke-width:0.865002;stroke-linecap:round;stroke-miterlimit:4;stroke-dasharray:none;stroke-opacity:1" />
    </clipPath>
    <clipPath
       clipPathUnits="userSpaceOnUse"
       id="clipPath1024-6">
      <path
         d="m 92.363,77.414 h 7.254 v 49.152 h -7.254 z"
         id="path1022-6" />
    </clipPath>
    <clipPath
       clipPathUnits="userSpaceOnUse"
       id="clipPath1032-6">
      <path
         d="M 0,0 H 186 V 186 H 0 Z"
         id="path1030-3" />
    </clipPath>
    <clipPath
       clipPathUnits="userSpaceOnUse"
       id="clipPath1036-1">
      <path
         d="M 0,0 H 186 V 186 H 0 Z"
         id="path1034-6" />
    </clipPath>
    <clipPath
       clipPathUnits="userSpaceOnUse"
       id="clipPath2369">
      <rect
         style="opacity:1;fill:#1a1a1a;fill-opacity:0.5;stroke:none;stroke-width:0.865;stroke-linecap:round;stroke-miterlimit:4;stroke-dasharray:none;stroke-opacity:1"
         id="rect2371"
         width="40.817837"
         height="36.019489"
         x="52.192806"
         y="4.3600869" />
    </clipPath>
    <clipPath
       clipPathUnits="userSpaceOnUse"
       id="clipPath2390">
      <rect
         style="opacity:1;fill:#000000;fill-opacity:0.5;stroke:none;stroke-width:0.865;stroke-linecap:round;stroke-miterlimit:4;stroke-dasharray:none;stroke-opacity:1"
         id="rect2392"
         width="0.78545684"
         height="0.53298861"
         x="77.339447"
         y="24.673765" />
    </clipPath>
    <clipPath
       clipPathUnits="userSpaceOnUse"
       id="clipPath1295">
      <path
         d="m 677.921,558.233 h 29.664 v -201.08 h -29.664 z"
         id="path1293" />
    </clipPath>
  </defs>
  <sodipodi:namedview
     fit-margin-bottom="0"
     fit-margin-right="0"
     fit-margin-left="0"
     fit-margin-top="0"
     id="base"
     pagecolor="#ffffff"
     bordercolor="#666666"
     borderopacity="1.0"
     inkscape:pageopacity="0.0"
     inkscape:pageshadow="2"
     inkscape:zoom="2.0632235"
     inkscape:cx="3.6325224"
     inkscape:cy="25.579314"
     inkscape:document-units="mm"
     inkscape:current-layer="layer1"
     inkscape:document-rotation="0"
     showgrid="false"
     showguides="true"
     inkscape:guide-bbox="true"
     inkscape:window-width="1252"
     inkscape:window-height="784"
     inkscape:window-x="162"
     inkscape:window-y="23"
     inkscape:window-maximized="0"
     lock-margins="true" />
  <metadata
     id="metadata5">
    <rdf:RDF>
      <cc:Work
         rdf:about="">
        <dc:format>image/svg+xml</dc:format>
        <dc:type
           rdf:resource="http://purl.org/dc/dcmitype/StillImage" />
        <dc:title></dc:title>
      </cc:Work>
    </rdf:RDF>
  </metadata>
  <g
     transform="translate(-42.257555,-9.0228199)"
     inkscape:label="Layer 1"
     inkscape:groupmode="layer"
     id="layer1">
    <g
       id="g1289"
       transform="matrix(0.13630014,0,0,-0.13630014,-50.143222,85.110056)">
      <g
         id="g1291" />
      <g
         id="g1303">
        <g
           clip-path="url(#clipPath1295)"
           opacity="0.600006"
           id="g1301">
          <g
             transform="translate(698.6884,357.1534)"
             id="g1299">
            <path
               d="m 0,0 c -13.119,71.131 -12.078,130.721 -12.078,138.779 -5.372,8.506 -3.932,18.626 -3.264,23.963 -6.671,1.112 -2.891,4.002 -2.891,5.114 0,1.112 -2.224,8.005 0.445,9.116 -0.223,3.113 0.222,0 0,1.557 -0.223,1.556 -3.558,3.558 -2.891,8.227 0.667,4.67 3.558,10.228 6.226,9.784 2.224,4.892 5.559,4.669 7.56,4.447 2.001,-0.223 8.672,-0.445 10.228,-6.004 5.115,-1.556 5.562,-4.002 5.559,-6.67 -0.003,-3.341 0.223,-8.45 -3.113,-12.008 C 9.117,172.081 6.448,162.519 2.446,162.519 4.036,154.358 0,148.733 -1.112,141.84 -3.335,106.931 -1.41,39.105 0,0"
               style="fill:#c6c6c6;fill-opacity:1;fill-rule:nonzero;stroke:none"
               id="path1297" />
          </g>
        </g>
      </g>
    </g>
    <g
       id="g1369"
       transform="matrix(0.13630014,0,0,-0.13630014,43.909403,10.922559)">
      <path
         d="M 0,0 C 1.179,5.972 -2.573,8.362 -4.892,8.898 -7.21,9.433 -10.568,5.842 -11.104,2.236 -11.64,-1.37 -10.903,-8.464 -7.519,-8.61 -3.335,-8.789 -1.038,-5.254 0,0"
         style="fill:#494949;fill-opacity:1;fill-rule:nonzero;stroke:none"
         id="path1371" />
    </g>
    <g
       id="g1373"
       transform="matrix(0.13630014,0,0,-0.13630014,43.969766,17.300166)">
      <path
         d="m 0,0 c -0.781,-8.44 0.03,-32.462 1.74,-40.466 1.711,-8.005 0.466,37.358 0.91,42.25 1.226,4.973 4.359,11.115 4.136,16.229 -0.222,5.114 -1.42,6.226 -5.046,6.226 -3.625,0 -9.629,-1.557 -6.516,-11.34 C -1.663,3.115 -1.418,5.691 0,0"
         style="fill:#898989;fill-opacity:1;fill-rule:nonzero;stroke:none"
         id="path1375" />
    </g>
    <g
       id="g1377"
       transform="matrix(0.13630014,0,0,-0.13630014,44.881275,11.07437)">
      <path
         d="M 0,0 C -1.179,5.972 2.573,8.363 4.892,8.898 7.21,9.433 10.568,5.842 11.104,2.236 11.64,-1.37 10.903,-8.464 7.519,-8.61 3.335,-8.789 1.038,-5.254 0,0"
         style="fill:#494949;fill-opacity:1;fill-rule:nonzero;stroke:none"
         id="path1379" />
    </g>
  </g>
</svg>
