<?xml version="1.0" encoding="utf-8" standalone="no"?>
<!DOCTYPE svg PUBLIC "-//W3C//DTD SVG 1.1//EN"
  "http://www.w3.org/Graphics/SVG/1.1/DTD/svg11.dtd">
<svg xmlns:xlink="http://www.w3.org/1999/xlink" width="469.47375pt" height="347.359688pt" viewBox="0 0 469.47375 347.359688" xmlns="http://www.w3.org/2000/svg" version="1.1">
 <metadata>
  <rdf:RDF xmlns:dc="http://purl.org/dc/elements/1.1/" xmlns:cc="http://creativecommons.org/ns#" xmlns:rdf="http://www.w3.org/1999/02/22-rdf-syntax-ns#">
   <cc:Work>
    <dc:type rdf:resource="http://purl.org/dc/dcmitype/StillImage"/>
    <dc:date>2023-08-26T10:42:28.962773</dc:date>
    <dc:format>image/svg+xml</dc:format>
    <dc:creator>
     <cc:Agent>
      <dc:title>Matplotlib v3.7.2, https://matplotlib.org/</dc:title>
     </cc:Agent>
    </dc:creator>
   </cc:Work>
  </rdf:RDF>
 </metadata>
 <defs>
  <style type="text/css">*{stroke-linejoin: round; stroke-linecap: butt}</style>
 </defs>
 <g id="figure_1">
  <g id="patch_1">
   <path d="M 0 347.359688 
L 469.47375 347.359688 
L 469.47375 0 
L 0 0 
z
" style="fill: #ffffff"/>
  </g>
  <g id="axes_1">
   <g id="patch_2">
    <path d="M 71.67375 284.4 
L 462.27375 284.4 
L 462.27375 7.2 
L 71.67375 7.2 
z
" style="fill: #ffffff"/>
   </g>
   <g id="matplotlib.axis_1">
    <g id="xtick_1">
     <g id="text_1">
      <!-- $\mathdefault{10^{0}}$ -->
      <g style="fill: #262626" transform="translate(79.748295 322.258281) scale(0.11 -0.11)">
       <defs>
        <path id="DejaVuSans-31" d="M 794 531 
L 1825 531 
L 1825 4091 
L 703 3866 
L 703 4441 
L 1819 4666 
L 2450 4666 
L 2450 531 
L 3481 531 
L 3481 0 
L 794 0 
L 794 531 
z
" transform="scale(0.015625)"/>
        <path id="DejaVuSans-30" d="M 2034 4250 
Q 1547 4250 1301 3770 
Q 1056 3291 1056 2328 
Q 1056 1369 1301 889 
Q 1547 409 2034 409 
Q 2525 409 2770 889 
Q 3016 1369 3016 2328 
Q 3016 3291 2770 3770 
Q 2525 4250 2034 4250 
z
M 2034 4750 
Q 2819 4750 3233 4129 
Q 3647 3509 3647 2328 
Q 3647 1150 3233 529 
Q 2819 -91 2034 -91 
Q 1250 -91 836 529 
Q 422 1150 422 2328 
Q 422 3509 836 4129 
Q 1250 4750 2034 4750 
z
" transform="scale(0.015625)"/>
       </defs>
       <use xlink:href="#DejaVuSans-31" transform="translate(0 0.765625)"/>
       <use xlink:href="#DejaVuSans-30" transform="translate(63.623047 0.765625)"/>
       <use xlink:href="#DejaVuSans-30" transform="translate(128.203125 39.046875) scale(0.7)"/>
      </g>
     </g>
    </g>
    <g id="xtick_2">
     <g id="text_2">
      <!-- $\mathdefault{10^{1}}$ -->
      <g style="fill: #262626" transform="translate(150.848477 322.258281) scale(0.11 -0.11)">
       <use xlink:href="#DejaVuSans-31" transform="translate(0 0.684375)"/>
       <use xlink:href="#DejaVuSans-30" transform="translate(63.623047 0.684375)"/>
       <use xlink:href="#DejaVuSans-31" transform="translate(128.203125 38.965625) scale(0.7)"/>
      </g>
     </g>
    </g>
    <g id="xtick_3">
     <g id="text_3">
      <!-- $\mathdefault{10^{2}}$ -->
      <g style="fill: #262626" transform="translate(221.948658 322.258281) scale(0.11 -0.11)">
       <defs>
        <path id="DejaVuSans-32" d="M 1228 531 
L 3431 531 
L 3431 0 
L 469 0 
L 469 531 
Q 828 903 1448 1529 
Q 2069 2156 2228 2338 
Q 2531 2678 2651 2914 
Q 2772 3150 2772 3378 
Q 2772 3750 2511 3984 
Q 2250 4219 1831 4219 
Q 1534 4219 1204 4116 
Q 875 4013 500 3803 
L 500 4441 
Q 881 4594 1212 4672 
Q 1544 4750 1819 4750 
Q 2544 4750 2975 4387 
Q 3406 4025 3406 3419 
Q 3406 3131 3298 2873 
Q 3191 2616 2906 2266 
Q 2828 2175 2409 1742 
Q 1991 1309 1228 531 
z
" transform="scale(0.015625)"/>
       </defs>
       <use xlink:href="#DejaVuSans-31" transform="translate(0 0.765625)"/>
       <use xlink:href="#DejaVuSans-30" transform="translate(63.623047 0.765625)"/>
       <use xlink:href="#DejaVuSans-32" transform="translate(128.203125 39.046875) scale(0.7)"/>
      </g>
     </g>
    </g>
    <g id="xtick_4">
     <g id="text_4">
      <!-- $\mathdefault{10^{3}}$ -->
      <g style="fill: #262626" transform="translate(293.048839 322.258281) scale(0.11 -0.11)">
       <defs>
        <path id="DejaVuSans-33" d="M 2597 2516 
Q 3050 2419 3304 2112 
Q 3559 1806 3559 1356 
Q 3559 666 3084 287 
Q 2609 -91 1734 -91 
Q 1441 -91 1130 -33 
Q 819 25 488 141 
L 488 750 
Q 750 597 1062 519 
Q 1375 441 1716 441 
Q 2309 441 2620 675 
Q 2931 909 2931 1356 
Q 2931 1769 2642 2001 
Q 2353 2234 1838 2234 
L 1294 2234 
L 1294 2753 
L 1863 2753 
Q 2328 2753 2575 2939 
Q 2822 3125 2822 3475 
Q 2822 3834 2567 4026 
Q 2313 4219 1838 4219 
Q 1578 4219 1281 4162 
Q 984 4106 628 3988 
L 628 4550 
Q 988 4650 1302 4700 
Q 1616 4750 1894 4750 
Q 2613 4750 3031 4423 
Q 3450 4097 3450 3541 
Q 3450 3153 3228 2886 
Q 3006 2619 2597 2516 
z
" transform="scale(0.015625)"/>
       </defs>
       <use xlink:href="#DejaVuSans-31" transform="translate(0 0.765625)"/>
       <use xlink:href="#DejaVuSans-30" transform="translate(63.623047 0.765625)"/>
       <use xlink:href="#DejaVuSans-33" transform="translate(128.203125 39.046875) scale(0.7)"/>
      </g>
     </g>
    </g>
    <g id="xtick_5">
     <g id="text_5">
      <!-- $\mathdefault{10^{4}}$ -->
      <g style="fill: #262626" transform="translate(364.14902 322.258281) scale(0.11 -0.11)">
       <defs>
        <path id="DejaVuSans-34" d="M 2419 4116 
L 825 1625 
L 2419 1625 
L 2419 4116 
z
M 2253 4666 
L 3047 4666 
L 3047 1625 
L 3713 1625 
L 3713 1100 
L 3047 1100 
L 3047 0 
L 2419 0 
L 2419 1100 
L 313 1100 
L 313 1709 
L 2253 4666 
z
" transform="scale(0.015625)"/>
       </defs>
       <use xlink:href="#DejaVuSans-31" transform="translate(0 0.684375)"/>
       <use xlink:href="#DejaVuSans-30" transform="translate(63.623047 0.684375)"/>
       <use xlink:href="#DejaVuSans-34" transform="translate(128.203125 38.965625) scale(0.7)"/>
      </g>
     </g>
    </g>
    <g id="xtick_6">
     <g id="text_6">
      <!-- $\mathdefault{10^{5}}$ -->
      <g style="fill: #262626" transform="translate(435.249201 322.258281) scale(0.11 -0.11)">
       <defs>
        <path id="DejaVuSans-35" d="M 691 4666 
L 3169 4666 
L 3169 4134 
L 1269 4134 
L 1269 2991 
Q 1406 3038 1543 3061 
Q 1681 3084 1819 3084 
Q 2600 3084 3056 2656 
Q 3513 2228 3513 1497 
Q 3513 744 3044 326 
Q 2575 -91 1722 -91 
Q 1428 -91 1123 -41 
Q 819 9 494 109 
L 494 744 
Q 775 591 1075 516 
Q 1375 441 1709 441 
Q 2250 441 2565 725 
Q 2881 1009 2881 1497 
Q 2881 1984 2565 2268 
Q 2250 2553 1709 2553 
Q 1456 2553 1204 2497 
Q 953 2441 691 2322 
L 691 4666 
z
" transform="scale(0.015625)"/>
       </defs>
       <use xlink:href="#DejaVuSans-31" transform="translate(0 0.684375)"/>
       <use xlink:href="#DejaVuSans-30" transform="translate(63.623047 0.684375)"/>
       <use xlink:href="#DejaVuSans-35" transform="translate(128.203125 38.965625) scale(0.7)"/>
      </g>
     </g>
    </g>
    <g id="xtick_7"/>
    <g id="xtick_8"/>
    <g id="xtick_9"/>
    <g id="xtick_10"/>
    <g id="xtick_11"/>
    <g id="xtick_12"/>
    <g id="xtick_13"/>
    <g id="xtick_14"/>
    <g id="xtick_15"/>
    <g id="xtick_16"/>
    <g id="xtick_17"/>
    <g id="xtick_18"/>
    <g id="xtick_19"/>
    <g id="xtick_20"/>
    <g id="xtick_21"/>
    <g id="xtick_22"/>
    <g id="xtick_23"/>
    <g id="xtick_24"/>
    <g id="xtick_25"/>
    <g id="xtick_26"/>
    <g id="xtick_27"/>
    <g id="xtick_28"/>
    <g id="xtick_29"/>
    <g id="xtick_30"/>
    <g id="xtick_31"/>
    <g id="xtick_32"/>
    <g id="xtick_33"/>
    <g id="xtick_34"/>
    <g id="xtick_35"/>
    <g id="xtick_36"/>
    <g id="xtick_37"/>
    <g id="xtick_38"/>
    <g id="xtick_39"/>
    <g id="xtick_40"/>
    <g id="xtick_41"/>
    <g id="xtick_42"/>
    <g id="xtick_43"/>
    <g id="xtick_44"/>
    <g id="xtick_45"/>
    <g id="xtick_46"/>
    <g id="xtick_47"/>
    <g id="xtick_48"/>
    <g id="xtick_49"/>
    <g id="xtick_50"/>
    <g id="text_7">
     <!-- rank -->
     <g style="fill: #262626" transform="translate(253.553438 337.664062) scale(0.12 -0.12)">
      <defs>
       <path id="DejaVuSans-72" d="M 2631 2963 
Q 2534 3019 2420 3045 
Q 2306 3072 2169 3072 
Q 1681 3072 1420 2755 
Q 1159 2438 1159 1844 
L 1159 0 
L 581 0 
L 581 3500 
L 1159 3500 
L 1159 2956 
Q 1341 3275 1631 3429 
Q 1922 3584 2338 3584 
Q 2397 3584 2469 3576 
Q 2541 3569 2628 3553 
L 2631 2963 
z
" transform="scale(0.015625)"/>
       <path id="DejaVuSans-61" d="M 2194 1759 
Q 1497 1759 1228 1600 
Q 959 1441 959 1056 
Q 959 750 1161 570 
Q 1363 391 1709 391 
Q 2188 391 2477 730 
Q 2766 1069 2766 1631 
L 2766 1759 
L 2194 1759 
z
M 3341 1997 
L 3341 0 
L 2766 0 
L 2766 531 
Q 2569 213 2275 61 
Q 1981 -91 1556 -91 
Q 1019 -91 701 211 
Q 384 513 384 1019 
Q 384 1609 779 1909 
Q 1175 2209 1959 2209 
L 2766 2209 
L 2766 2266 
Q 2766 2663 2505 2880 
Q 2244 3097 1772 3097 
Q 1472 3097 1187 3025 
Q 903 2953 641 2809 
L 641 3341 
Q 956 3463 1253 3523 
Q 1550 3584 1831 3584 
Q 2591 3584 2966 3190 
Q 3341 2797 3341 1997 
z
" transform="scale(0.015625)"/>
       <path id="DejaVuSans-6e" d="M 3513 2113 
L 3513 0 
L 2938 0 
L 2938 2094 
Q 2938 2591 2744 2837 
Q 2550 3084 2163 3084 
Q 1697 3084 1428 2787 
Q 1159 2491 1159 1978 
L 1159 0 
L 581 0 
L 581 3500 
L 1159 3500 
L 1159 2956 
Q 1366 3272 1645 3428 
Q 1925 3584 2291 3584 
Q 2894 3584 3203 3211 
Q 3513 2838 3513 2113 
z
" transform="scale(0.015625)"/>
       <path id="DejaVuSans-6b" d="M 581 4863 
L 1159 4863 
L 1159 1991 
L 2875 3500 
L 3609 3500 
L 1753 1863 
L 3688 0 
L 2938 0 
L 1159 1709 
L 1159 0 
L 581 0 
L 581 4863 
z
" transform="scale(0.015625)"/>
      </defs>
      <use xlink:href="#DejaVuSans-72"/>
      <use xlink:href="#DejaVuSans-61" x="41.113281"/>
      <use xlink:href="#DejaVuSans-6e" x="102.392578"/>
      <use xlink:href="#DejaVuSans-6b" x="165.771484"/>
     </g>
    </g>
   </g>
   <g id="matplotlib.axis_2">
    <g id="ytick_1">
     <g id="text_8">
      <!-- $\mathdefault{10^{0}}$ -->
      <g style="fill: #262626" transform="translate(22.81375 275.979141) scale(0.11 -0.11)">
       <use xlink:href="#DejaVuSans-31" transform="translate(0 0.765625)"/>
       <use xlink:href="#DejaVuSans-30" transform="translate(63.623047 0.765625)"/>
       <use xlink:href="#DejaVuSans-30" transform="translate(128.203125 39.046875) scale(0.7)"/>
      </g>
     </g>
    </g>
    <g id="ytick_2">
     <g id="text_9">
      <!-- $\mathdefault{10^{1}}$ -->
      <g style="fill: #262626" transform="translate(22.81375 230.318036) scale(0.11 -0.11)">
       <use xlink:href="#DejaVuSans-31" transform="translate(0 0.684375)"/>
       <use xlink:href="#DejaVuSans-30" transform="translate(63.623047 0.684375)"/>
       <use xlink:href="#DejaVuSans-31" transform="translate(128.203125 38.965625) scale(0.7)"/>
      </g>
     </g>
    </g>
    <g id="ytick_3">
     <g id="text_10">
      <!-- $\mathdefault{10^{2}}$ -->
      <g style="fill: #262626" transform="translate(22.81375 184.656932) scale(0.11 -0.11)">
       <use xlink:href="#DejaVuSans-31" transform="translate(0 0.765625)"/>
       <use xlink:href="#DejaVuSans-30" transform="translate(63.623047 0.765625)"/>
       <use xlink:href="#DejaVuSans-32" transform="translate(128.203125 39.046875) scale(0.7)"/>
      </g>
     </g>
    </g>
    <g id="ytick_4">
     <g id="text_11">
      <!-- $\mathdefault{10^{3}}$ -->
      <g style="fill: #262626" transform="translate(22.81375 138.995828) scale(0.11 -0.11)">
       <use xlink:href="#DejaVuSans-31" transform="translate(0 0.765625)"/>
       <use xlink:href="#DejaVuSans-30" transform="translate(63.623047 0.765625)"/>
       <use xlink:href="#DejaVuSans-33" transform="translate(128.203125 39.046875) scale(0.7)"/>
      </g>
     </g>
    </g>
    <g id="ytick_5">
     <g id="text_12">
      <!-- $\mathdefault{10^{4}}$ -->
      <g style="fill: #262626" transform="translate(22.81375 93.334724) scale(0.11 -0.11)">
       <use xlink:href="#DejaVuSans-31" transform="translate(0 0.684375)"/>
       <use xlink:href="#DejaVuSans-30" transform="translate(63.623047 0.684375)"/>
       <use xlink:href="#DejaVuSans-34" transform="translate(128.203125 38.965625) scale(0.7)"/>
      </g>
     </g>
    </g>
    <g id="ytick_6">
     <g id="text_13">
      <!-- $\mathdefault{10^{5}}$ -->
      <g style="fill: #262626" transform="translate(22.81375 47.673619) scale(0.11 -0.11)">
       <use xlink:href="#DejaVuSans-31" transform="translate(0 0.684375)"/>
       <use xlink:href="#DejaVuSans-30" transform="translate(63.623047 0.684375)"/>
       <use xlink:href="#DejaVuSans-35" transform="translate(128.203125 38.965625) scale(0.7)"/>
      </g>
     </g>
    </g>
    <g id="ytick_7"/>
    <g id="ytick_8"/>
    <g id="ytick_9"/>
    <g id="ytick_10"/>
    <g id="ytick_11"/>
    <g id="ytick_12"/>
    <g id="ytick_13"/>
    <g id="ytick_14"/>
    <g id="ytick_15"/>
    <g id="ytick_16"/>
    <g id="ytick_17"/>
    <g id="ytick_18"/>
    <g id="ytick_19"/>
    <g id="ytick_20"/>
    <g id="ytick_21"/>
    <g id="ytick_22"/>
    <g id="ytick_23"/>
    <g id="ytick_24"/>
    <g id="ytick_25"/>
    <g id="ytick_26"/>
    <g id="ytick_27"/>
    <g id="ytick_28"/>
    <g id="ytick_29"/>
    <g id="ytick_30"/>
    <g id="ytick_31"/>
    <g id="ytick_32"/>
    <g id="ytick_33"/>
    <g id="ytick_34"/>
    <g id="ytick_35"/>
    <g id="ytick_36"/>
    <g id="ytick_37"/>
    <g id="ytick_38"/>
    <g id="ytick_39"/>
    <g id="ytick_40"/>
    <g id="ytick_41"/>
    <g id="ytick_42"/>
    <g id="ytick_43"/>
    <g id="ytick_44"/>
    <g id="ytick_45"/>
    <g id="ytick_46"/>
    <g id="ytick_47"/>
    <g id="ytick_48"/>
    <g id="ytick_49"/>
    <g id="ytick_50"/>
    <g id="ytick_51"/>
    <g id="ytick_52"/>
    <g id="ytick_53"/>
    <g id="ytick_54"/>
    <g id="ytick_55"/>
    <g id="text_14">
     <!-- word frequency -->
     <g style="fill: #262626" transform="translate(16.318125 192.5475) rotate(-90) scale(0.12 -0.12)">
      <defs>
       <path id="DejaVuSans-77" d="M 269 3500 
L 844 3500 
L 1563 769 
L 2278 3500 
L 2956 3500 
L 3675 769 
L 4391 3500 
L 4966 3500 
L 4050 0 
L 3372 0 
L 2619 2869 
L 1863 0 
L 1184 0 
L 269 3500 
z
" transform="scale(0.015625)"/>
       <path id="DejaVuSans-6f" d="M 1959 3097 
Q 1497 3097 1228 2736 
Q 959 2375 959 1747 
Q 959 1119 1226 758 
Q 1494 397 1959 397 
Q 2419 397 2687 759 
Q 2956 1122 2956 1747 
Q 2956 2369 2687 2733 
Q 2419 3097 1959 3097 
z
M 1959 3584 
Q 2709 3584 3137 3096 
Q 3566 2609 3566 1747 
Q 3566 888 3137 398 
Q 2709 -91 1959 -91 
Q 1206 -91 779 398 
Q 353 888 353 1747 
Q 353 2609 779 3096 
Q 1206 3584 1959 3584 
z
" transform="scale(0.015625)"/>
       <path id="DejaVuSans-64" d="M 2906 2969 
L 2906 4863 
L 3481 4863 
L 3481 0 
L 2906 0 
L 2906 525 
Q 2725 213 2448 61 
Q 2172 -91 1784 -91 
Q 1150 -91 751 415 
Q 353 922 353 1747 
Q 353 2572 751 3078 
Q 1150 3584 1784 3584 
Q 2172 3584 2448 3432 
Q 2725 3281 2906 2969 
z
M 947 1747 
Q 947 1113 1208 752 
Q 1469 391 1925 391 
Q 2381 391 2643 752 
Q 2906 1113 2906 1747 
Q 2906 2381 2643 2742 
Q 2381 3103 1925 3103 
Q 1469 3103 1208 2742 
Q 947 2381 947 1747 
z
" transform="scale(0.015625)"/>
       <path id="DejaVuSans-20" transform="scale(0.015625)"/>
       <path id="DejaVuSans-66" d="M 2375 4863 
L 2375 4384 
L 1825 4384 
Q 1516 4384 1395 4259 
Q 1275 4134 1275 3809 
L 1275 3500 
L 2222 3500 
L 2222 3053 
L 1275 3053 
L 1275 0 
L 697 0 
L 697 3053 
L 147 3053 
L 147 3500 
L 697 3500 
L 697 3744 
Q 697 4328 969 4595 
Q 1241 4863 1831 4863 
L 2375 4863 
z
" transform="scale(0.015625)"/>
       <path id="DejaVuSans-65" d="M 3597 1894 
L 3597 1613 
L 953 1613 
Q 991 1019 1311 708 
Q 1631 397 2203 397 
Q 2534 397 2845 478 
Q 3156 559 3463 722 
L 3463 178 
Q 3153 47 2828 -22 
Q 2503 -91 2169 -91 
Q 1331 -91 842 396 
Q 353 884 353 1716 
Q 353 2575 817 3079 
Q 1281 3584 2069 3584 
Q 2775 3584 3186 3129 
Q 3597 2675 3597 1894 
z
M 3022 2063 
Q 3016 2534 2758 2815 
Q 2500 3097 2075 3097 
Q 1594 3097 1305 2825 
Q 1016 2553 972 2059 
L 3022 2063 
z
" transform="scale(0.015625)"/>
       <path id="DejaVuSans-71" d="M 947 1747 
Q 947 1113 1208 752 
Q 1469 391 1925 391 
Q 2381 391 2643 752 
Q 2906 1113 2906 1747 
Q 2906 2381 2643 2742 
Q 2381 3103 1925 3103 
Q 1469 3103 1208 2742 
Q 947 2381 947 1747 
z
M 2906 525 
Q 2725 213 2448 61 
Q 2172 -91 1784 -91 
Q 1150 -91 751 415 
Q 353 922 353 1747 
Q 353 2572 751 3078 
Q 1150 3584 1784 3584 
Q 2172 3584 2448 3432 
Q 2725 3281 2906 2969 
L 2906 3500 
L 3481 3500 
L 3481 -1331 
L 2906 -1331 
L 2906 525 
z
" transform="scale(0.015625)"/>
       <path id="DejaVuSans-75" d="M 544 1381 
L 544 3500 
L 1119 3500 
L 1119 1403 
Q 1119 906 1312 657 
Q 1506 409 1894 409 
Q 2359 409 2629 706 
Q 2900 1003 2900 1516 
L 2900 3500 
L 3475 3500 
L 3475 0 
L 2900 0 
L 2900 538 
Q 2691 219 2414 64 
Q 2138 -91 1772 -91 
Q 1169 -91 856 284 
Q 544 659 544 1381 
z
M 1991 3584 
L 1991 3584 
z
" transform="scale(0.015625)"/>
       <path id="DejaVuSans-63" d="M 3122 3366 
L 3122 2828 
Q 2878 2963 2633 3030 
Q 2388 3097 2138 3097 
Q 1578 3097 1268 2742 
Q 959 2388 959 1747 
Q 959 1106 1268 751 
Q 1578 397 2138 397 
Q 2388 397 2633 464 
Q 2878 531 3122 666 
L 3122 134 
Q 2881 22 2623 -34 
Q 2366 -91 2075 -91 
Q 1284 -91 818 406 
Q 353 903 353 1747 
Q 353 2603 823 3093 
Q 1294 3584 2113 3584 
Q 2378 3584 2631 3529 
Q 2884 3475 3122 3366 
z
" transform="scale(0.015625)"/>
       <path id="DejaVuSans-79" d="M 2059 -325 
Q 1816 -950 1584 -1140 
Q 1353 -1331 966 -1331 
L 506 -1331 
L 506 -850 
L 844 -850 
Q 1081 -850 1212 -737 
Q 1344 -625 1503 -206 
L 1606 56 
L 191 3500 
L 800 3500 
L 1894 763 
L 2988 3500 
L 3597 3500 
L 2059 -325 
z
" transform="scale(0.015625)"/>
      </defs>
      <use xlink:href="#DejaVuSans-77"/>
      <use xlink:href="#DejaVuSans-6f" x="81.787109"/>
      <use xlink:href="#DejaVuSans-72" x="142.96875"/>
      <use xlink:href="#DejaVuSans-64" x="182.332031"/>
      <use xlink:href="#DejaVuSans-20" x="245.808594"/>
      <use xlink:href="#DejaVuSans-66" x="277.595703"/>
      <use xlink:href="#DejaVuSans-72" x="312.800781"/>
      <use xlink:href="#DejaVuSans-65" x="351.664062"/>
      <use xlink:href="#DejaVuSans-71" x="413.1875"/>
      <use xlink:href="#DejaVuSans-75" x="476.664062"/>
      <use xlink:href="#DejaVuSans-65" x="540.042969"/>
      <use xlink:href="#DejaVuSans-6e" x="601.566406"/>
      <use xlink:href="#DejaVuSans-63" x="664.945312"/>
      <use xlink:href="#DejaVuSans-79" x="719.925781"/>
     </g>
    </g>
   </g>
   <g id="PolyCollection_1"/>
   <g id="line2d_1">
    <path d="M 89.428295 19.8 
L 110.831583 20.223602 
L 123.351703 23.905603 
L 132.23487 34.239186 
L 139.125189 34.277397 
L 144.75499 36.38032 
L 149.514919 37.999459 
L 153.638157 38.306502 
L 157.275111 42.786437 
L 160.528477 44.732042 
L 163.471504 45.117167 
L 166.158277 46.10306 
L 168.629869 49.228161 
L 170.918206 50.433646 
L 173.048597 53.370815 
L 175.041444 58.318889 
L 176.913437 59.452509 
L 178.678398 60.104754 
L 181.931764 60.264408 
L 184.874791 62.231091 
L 186.247391 64.260213 
L 187.561565 64.465264 
L 188.822083 64.778321 
L 190.033157 65.244304 
L 191.198518 65.244304 
L 192.321494 67.434585 
L 193.405058 68.094017 
L 195.464382 68.66998 
L 196.444731 69.137035 
L 197.394912 70.044134 
L 198.316724 70.102467 
L 200.081685 72.456744 
L 200.927722 73.108943 
L 201.751195 73.173498 
L 204.09752 74.716536 
L 204.841614 75.444955 
L 205.568198 75.551519 
L 206.278078 75.959117 
L 206.972005 76.875996 
L 207.650678 78.048002 
L 208.964852 78.472705 
L 209.601543 78.912618 
L 210.22537 79.130307 
L 210.836844 79.493646 
L 212.024622 79.557095 
L 212.601805 79.846397 
L 213.168398 80.653794 
L 213.724781 82.019826 
L 214.271316 82.079416 
L 214.808345 82.685379 
L 215.855171 83.027452 
L 216.36557 84.169062 
L 216.867669 84.913849 
L 217.848019 85.23344 
L 218.798199 85.414884 
L 219.262545 85.652772 
L 219.720011 86.539857 
L 221.053099 86.740739 
L 221.484972 86.75479 
L 221.910888 87.370384 
L 223.154482 88.408354 
L 223.558128 88.446585 
L 223.956564 89.653577 
L 224.349925 90.210357 
L 224.738338 90.507454 
L 225.121926 90.601084 
L 225.500807 91.047602 
L 228.030278 91.555817 
L 229.718043 92.004006 
L 230.044802 92.010875 
L 230.368139 92.211125 
L 230.688125 92.74572 
L 231.00483 93.516257 
L 231.318319 93.905492 
L 231.628658 93.918094 
L 231.935908 94.540445 
L 233.135221 94.884234 
L 233.717849 95.199093 
L 234.005093 95.448093 
L 234.289688 95.491718 
L 234.571685 96.135311 
L 235.128068 96.768447 
L 235.674603 96.935078 
L 235.944285 97.204038 
L 236.211632 97.704268 
L 236.739481 97.860522 
L 237.00006 97.928308 
L 237.258459 98.286463 
L 238.270956 98.377811 
L 238.518977 98.510859 
L 238.765022 98.844204 
L 239.009121 99.421415 
L 239.491606 99.548276 
L 239.966668 100.379293 
L 240.201486 100.480835 
L 240.434532 100.942522 
L 240.895412 100.996493 
L 241.123298 101.422577 
L 241.797036 101.752936 
L 242.018387 102.050859 
L 242.456386 102.123184 
L 242.673078 102.310933 
L 242.888259 102.786261 
L 243.314175 102.920785 
L 243.52495 103.496786 
L 243.734296 103.623892 
L 243.942233 104.060564 
L 244.961415 104.489874 
L 245.161276 104.77116 
L 245.557158 104.902343 
L 245.753212 105.381918 
L 246.141625 105.508169 
L 246.525213 106.123755 
L 247.648188 106.841137 
L 248.013618 106.923552 
L 248.194723 106.981933 
L 248.374773 107.163034 
L 248.908707 107.202409 
L 249.084653 107.425364 
L 249.259602 107.955552 
L 249.433565 108.058167 
L 249.606554 108.437285 
L 250.11978 108.648136 
L 250.288978 109.261661 
L 250.791077 109.55904 
L 251.285142 109.681484 
L 252.250171 110.35723 
L 253.185952 110.777554 
L 253.643419 110.824811 
L 254.538508 111.881547 
L 254.976507 111.975337 
L 255.265092 112.038112 
L 255.551006 112.361388 
L 256.254417 112.761624 
L 258.532817 114.257816 
L 259.549482 115.061472 
L 259.674244 115.149542 
L 259.922264 115.408669 
L 260.412408 115.960283 
L 260.774977 116.160513 
L 261.369955 116.765648 
L 261.604773 116.885711 
L 261.837819 117.291254 
L 261.953685 117.307649 
L 262.184122 117.588467 
L 262.865292 117.747144 
L 263.089049 117.890203 
L 263.531758 118.04281 
L 263.859674 118.351594 
L 264.184143 118.533963 
L 264.611533 118.709222 
L 264.928238 118.735645 
L 265.552065 119.417044 
L 265.757238 119.417044 
L 265.961057 119.591117 
L 266.062464 119.66487 
L 266.264284 119.934548 
L 266.763139 120.103798 
L 266.960446 120.46592 
L 268.40138 121.320767 
L 268.68167 121.675342 
L 268.867126 121.777825 
L 269.051476 122.172163 
L 269.143239 122.25619 
L 269.325952 122.670999 
L 269.50759 122.887136 
L 271.352938 123.901442 
L 272.027903 124.08527 
L 272.524617 124.517016 
L 272.688429 124.659085 
L 273.094196 124.814151 
L 273.574181 125.10365 
L 273.732532 125.323583 
L 274.202771 125.508741 
L 274.435232 125.871693 
L 274.665956 126.049317 
L 274.894969 126.305859 
L 275.122296 126.409412 
L 276.524424 127.01557 
L 276.596486 127.028955 
L 276.811667 127.271449 
L 277.025359 127.339338 
L 277.308001 127.66848 
L 277.796484 127.96103 
L 278.140728 128.415289 
L 278.683659 128.690012 
L 278.951587 128.983366 
L 280.065033 129.583423 
L 280.321287 130.061286 
L 280.448621 130.123794 
L 280.638642 130.566949 
L 281.87642 131.383801 
L 281.937025 131.400486 
L 282.118131 131.703246 
L 283.414743 132.533958 
L 283.701987 132.782953 
L 284.09969 132.96274 
L 284.436549 133.364104 
L 284.769772 133.474992 
L 285.154042 133.830283 
L 285.855242 134.192057 
L 285.908526 134.192057 
L 286.12075 134.443445 
L 286.226317 134.501913 
L 286.488667 134.639012 
L 287.313515 135.015989 
L 287.465751 135.23756 
L 287.918006 135.482131 
L 288.265237 135.875644 
L 288.608606 135.980512 
L 289.569132 136.513331 
L 289.757703 136.599927 
L 290.224154 136.906025 
L 290.362726 137.105327 
L 291.091454 137.578305 
L 292.542237 138.897676 
L 293.72191 139.667643 
L 293.968939 139.922535 
L 294.173297 140.025417 
L 294.376312 140.180747 
L 294.698384 140.28498 
L 296.14577 141.276035 
L 296.298256 141.524782 
L 296.412129 141.552614 
L 296.638622 141.804876 
L 298.605601 143.146854 
L 298.746438 143.237611 
L 299.337929 143.60485 
L 299.509763 143.666724 
L 299.714709 143.822257 
L 301.436138 145.279837 
L 301.500468 145.347173 
L 301.692658 145.51652 
L 302.01034 145.721663 
L 302.199392 145.825036 
L 302.387294 146.033414 
L 302.574059 146.138429 
L 302.759702 146.3147 
L 303.400799 146.889533 
L 303.671532 146.999195 
L 303.850711 147.183322 
L 303.999237 147.257454 
L 304.235402 147.406556 
L 304.35281 147.481529 
L 304.875693 147.975887 
L 304.933249 148.01443 
L 305.105274 148.169356 
L 305.304766 148.28635 
L 305.474739 148.364731 
L 305.727958 148.562049 
L 305.783948 148.64153 
L 306.006897 148.801453 
L 306.17306 148.881901 
L 306.365792 149.003188 
L 306.502726 149.08446 
L 306.720564 149.24801 
L 306.963808 149.330294 
L 307.444624 149.873626 
L 307.576866 149.958553 
L 307.865819 150.215537 
L 308.126179 150.301944 
L 308.25554 150.432265 
L 308.487032 150.519623 
L 308.66589 150.607368 
L 308.742227 150.651387 
L 308.944876 150.962284 
L 309.095994 151.052014 
L 309.371137 151.323667 
L 309.544961 151.415051 
L 309.81615 151.691759 
L 309.987493 151.784859 
L 310.279031 152.114197 
L 310.495891 152.209306 
L 310.687386 152.352832 
L 310.853975 152.449096 
L 311.043269 152.594374 
L 311.137482 152.691821 
L 311.301667 152.789749 
L 311.488244 152.888163 
L 311.673701 153.036705 
L 311.789048 153.136356 
L 312.018458 153.387695 
L 312.15529 153.489129 
L 312.404585 153.796583 
L 312.718986 153.900136 
L 312.874994 154.004232 
L 313.030218 154.108878 
L 313.228652 154.319842 
L 313.425819 154.426171 
L 313.578305 154.533073 
L 313.708411 154.640555 
L 313.902548 154.857283 
L 314.095472 154.966541 
L 314.265953 155.131566 
L 314.56205 155.24235 
L 314.729982 155.409696 
L 314.813607 155.465794 
L 314.959407 155.578466 
L 315.042414 155.635044 
L 315.20776 155.805751 
L 315.351716 155.862982 
L 315.515419 156.035671 
L 315.678259 156.09357 
L 315.840244 156.268288 
L 315.981288 156.326871 
L 316.12169 156.444559 
L 316.301274 156.503666 
L 316.460033 156.682051 
L 316.59828 156.741871 
L 316.716286 156.801872 
L 316.794708 156.862056 
L 316.931468 156.982973 
L 317.087027 157.043709 
L 317.241806 157.165743 
L 317.338151 157.227042 
L 317.510817 157.412086 
L 317.663492 157.474153 
L 317.815416 157.598872 
L 317.92887 157.661528 
L 318.079497 157.787435 
L 318.229392 157.85069 
L 318.397159 158.041674 
L 318.527018 158.105746 
L 318.69318 158.299215 
L 318.785108 158.364126 
L 318.931625 158.494589 
L 319.09563 158.560144 
L 319.240684 158.691908 
L 319.36705 158.75812 
L 319.528765 158.958092 
L 319.725272 159.025199 
L 319.885127 159.227897 
L 320.061777 159.295925 
L 320.219903 159.501423 
L 320.412075 159.570399 
L 320.551089 159.709073 
L 320.68948 159.778776 
L 320.87876 160.131012 
L 320.930181 160.202216 
L 321.049832 160.273677 
L 321.236923 160.345396 
L 321.372281 160.489617 
L 321.507047 160.562123 
L 321.641229 160.707936 
L 321.80814 160.781246 
L 321.941022 160.928684 
L 322.106324 161.002816 
L 322.254343 161.226891 
L 322.450605 161.302148 
L 322.564518 161.377693 
L 322.742678 161.453526 
L 322.871607 161.52965 
L 322.98398 161.606068 
L 323.143807 161.837104 
L 323.271075 161.914718 
L 323.413627 162.070863 
L 323.618382 162.1494 
L 323.743713 162.228248 
L 323.837379 162.307411 
L 323.961826 162.386892 
L 324.070307 162.466692 
L 324.209226 162.627263 
L 324.500461 162.708038 
L 324.637462 162.870583 
L 324.93975 162.952358 
L 325.074819 163.116926 
L 325.268883 163.199726 
L 325.387703 163.282872 
L 325.550339 163.366368 
L 325.697449 163.618988 
L 325.843862 163.703915 
L 325.960494 163.789207 
L 326.221318 163.874867 
L 326.350908 164.047306 
L 326.608468 164.134091 
L 326.736447 164.308809 
L 326.849762 164.396749 
L 326.962663 164.48508 
L 327.075153 164.573807 
L 327.215192 164.75246 
L 327.354598 164.842394 
L 327.479528 164.932737 
L 327.631536 165.023494 
L 327.7828 165.298284 
L 327.987882 165.390734 
L 328.123851 165.576936 
L 328.286227 165.670697 
L 328.407451 165.764903 
L 328.635139 165.859559 
L 328.768293 166.050237 
L 328.900876 166.146268 
L 329.032892 166.339736 
L 329.190569 166.437183 
L 329.321354 166.633525 
L 329.5165 166.73243 
L 329.632998 166.83183 
L 329.749058 166.931731 
L 329.864684 167.032138 
L 330.030938 167.133057 
L 330.158219 167.336447 
L 330.486716 167.438929 
L 330.599617 167.541945 
L 330.84904 167.645498 
L 330.973 167.749594 
L 331.133408 167.85424 
L 331.256234 167.959441 
L 331.463923 168.065204 
L 331.59757 168.278435 
L 331.863141 168.385917 
L 331.995074 168.602645 
L 332.340221 168.711903 
L 332.458348 168.821767 
L 332.552526 168.932243 
L 332.669845 169.043338 
L 332.716648 169.043338 
L 332.833347 169.155058 
L 332.856634 169.155058 
L 332.972806 169.267412 
L 333.019152 169.267412 
L 333.134715 169.380406 
L 333.203846 169.380406 
L 333.330185 169.608344 
L 333.444592 169.608344 
L 333.558577 169.723303 
L 333.604053 169.723303 
L 333.717452 169.838932 
L 333.740082 169.838932 
L 333.852983 169.955239 
L 333.943008 169.955239 
L 334.066364 170.189921 
L 334.144608 170.189921 
L 334.267164 170.308312 
L 334.278281 170.308312 
L 334.411378 170.547234 
L 334.521856 170.547234 
L 334.642926 170.667784 
L 334.675863 170.667784 
L 334.807261 170.911105 
L 334.89455 170.911105 
L 335.01417 171.033894 
L 335.057554 171.033894 
L 335.176546 171.157448 
L 335.219703 171.157448 
L 335.338073 171.281776 
L 335.391728 171.281776 
L 335.509441 171.40689 
L 335.552135 171.40689 
L 335.66924 171.532797 
L 335.711714 171.532797 
L 335.828217 171.659509 
L 335.859914 171.659509 
L 335.97586 171.787036 
L 336.059911 171.787036 
L 336.17511 171.915388 
L 336.300293 171.915388 
L 336.42497 172.174612 
L 336.69339 172.174612 
L 336.806254 172.305506 
L 336.836963 172.305506 
L 336.949304 172.43727 
L 337.010409 172.43727 
L 337.122122 172.569915 
L 337.162645 172.569915 
L 337.283895 172.703454 
L 337.293978 172.703454 
L 337.414715 172.837897 
L 337.504959 172.837897 
L 337.624875 172.973259 
L 337.674703 172.973259 
L 337.793963 173.10955 
L 337.86332 173.10955 
L 337.981855 173.246785 
L 338.021266 173.246785 
L 338.149005 173.524138 
L 338.246907 173.524138 
L 338.363982 173.664282 
L 338.373718 173.664282 
L 338.490314 173.805424 
L 338.529082 173.805424 
L 338.645094 173.947578 
L 338.722193 173.947578 
L 338.837483 174.090758 
L 338.866238 174.090758 
L 338.980993 174.234979 
L 339.019149 174.234979 
L 339.133338 174.380258 
L 339.199753 174.380258 
L 339.313277 174.526608 
L 339.360456 174.526608 
L 339.473391 174.674046 
L 339.53908 174.674046 
L 339.651365 174.822589 
L 339.716677 174.822589 
L 339.828319 174.972253 
L 339.893258 174.972253 
L 340.022728 175.275012 
L 340.2892 175.275012 
L 340.40791 175.428143 
L 340.517086 175.428143 
L 340.634925 175.582466 
L 340.689161 175.582466 
L 340.806347 175.737999 
L 340.958922 175.737999 
L 341.075091 175.894762 
L 341.137462 175.894762 
L 341.252962 176.052773 
L 341.270693 176.052773 
L 341.385697 176.212054 
L 341.491475 176.212054 
L 341.605661 176.372625 
L 341.736891 176.372625 
L 341.850174 176.534506 
L 342.040943 176.534506 
L 342.153118 176.69772 
L 342.247719 176.69772 
L 342.359147 176.862288 
L 342.418981 176.862288 
L 342.538301 177.028234 
L 342.631731 177.028234 
L 342.750233 177.19558 
L 342.809315 177.19558 
L 342.927139 177.36435 
L 342.994266 177.36435 
L 343.111389 177.534569 
L 343.161448 177.534569 
L 343.277939 177.706261 
L 343.352595 177.706261 
L 343.468368 177.879453 
L 343.649426 177.879453 
L 343.764094 178.054171 
L 343.878338 178.054171 
L 343.99216 178.230442 
L 344.145966 178.230442 
L 344.258808 178.408294 
L 344.435302 178.408294 
L 344.547094 178.587756 
L 344.682299 178.587756 
L 344.801108 178.768856 
L 344.943078 178.768856 
L 345.06089 178.951626 
L 345.147 178.951626 
L 345.264038 179.136096 
L 345.504519 179.136096 
L 345.620212 179.322298 
L 345.750809 179.322298 
L 345.865585 179.510265 
L 345.941865 179.510265 
L 346.055934 179.70003 
L 346.199819 179.70003 
L 346.312941 179.89163 
L 346.410645 179.89163 
L 346.522999 180.085098 
L 346.634945 180.085098 
L 346.746487 180.280473 
L 346.916738 180.280473 
L 347.034623 180.477792 
L 347.15206 180.477792 
L 347.269051 180.677093 
L 347.385601 180.677093 
L 347.501713 180.878419 
L 347.646241 180.878419 
L 347.761379 181.081809 
L 348.011755 181.081809 
L 348.12554 181.287307 
L 348.365951 181.287307 
L 348.47844 181.494956 
L 348.611492 181.494956 
L 348.723092 181.704803 
L 348.88974 181.704803 
L 349.007241 181.916895 
L 349.083033 181.916895 
L 349.199802 182.131279 
L 349.32296 182.131279 
L 349.438827 182.348007 
L 349.642242 182.348007 
L 349.756919 182.567129 
L 349.931488 182.567129 
L 350.045098 182.7887 
L 350.118388 182.7887 
L 350.231313 183.012774 
L 350.376841 183.012774 
L 350.488827 183.239409 
L 350.567632 183.239409 
L 350.67893 183.468665 
L 350.802848 183.468665 
L 350.919787 183.700601 
L 351.029825 183.700601 
L 351.145909 183.935283 
L 351.300012 183.935283 
L 351.415087 184.172775 
L 351.561506 184.172775 
L 351.675613 184.413146 
L 351.782994 184.413146 
L 351.896286 184.656467 
L 352.002904 184.656467 
L 352.115394 184.90281 
L 352.31437 184.90281 
L 352.425733 185.152252 
L 352.647261 185.152252 
L 352.763541 185.404871 
L 352.855032 185.404871 
L 352.970534 185.66075 
L 353.115816 185.66075 
L 353.230348 185.919975 
L 353.422289 185.919975 
L 353.535692 186.182632 
L 353.684275 186.182632 
L 353.796721 186.448816 
L 354.002794 186.448816 
L 354.114089 186.718621 
L 354.318062 186.718621 
L 354.434015 186.992147 
L 354.641641 186.992147 
L 354.756388 187.2695 
L 354.995978 187.2695 
L 355.109418 187.550786 
L 355.244999 187.550786 
L 355.357529 187.83612 
L 355.547896 187.83612 
L 355.65933 188.12562 
L 355.875477 188.12562 
L 355.99124 188.419408 
L 356.199619 188.419408 
L 356.314176 188.717615 
L 356.574435 188.717615 
L 356.687612 189.020374 
L 356.880669 189.020374 
L 356.992731 189.327828 
L 357.18919 189.327828 
L 357.305414 189.640124 
L 357.604519 189.640124 
L 357.719192 189.957416 
L 357.926605 189.957416 
L 358.04009 190.279868 
L 358.265818 190.279868 
L 358.378066 190.60765 
L 358.661961 190.60765 
L 358.777809 190.940942 
L 359.043119 190.940942 
L 359.157548 191.279931 
L 359.458996 191.279931 
L 359.571898 191.624815 
L 359.89845 191.624815 
L 360.009759 191.975804 
L 360.341297 191.975804 
L 360.455785 192.333118 
L 360.735444 192.333118 
L 360.848483 192.696988 
L 361.166531 192.696988 
L 361.278005 193.06766 
L 361.554944 193.06766 
L 361.669606 193.445392 
L 361.983881 193.445392 
L 362.096964 193.83046 
L 362.384583 193.83046 
L 362.496211 194.223154 
L 362.877157 194.223154 
L 362.991408 194.623781 
L 363.331646 194.623781 
L 363.44423 195.032669 
L 363.775265 195.032669 
L 363.890507 195.450165 
L 364.246312 195.450165 
L 364.359812 195.876641 
L 364.772448 195.876641 
L 364.884034 196.312491 
L 365.261255 196.312491 
L 365.375153 196.758136 
L 365.810578 196.758136 
L 365.922471 197.214027 
L 366.306994 197.214027 
L 366.421031 197.680645 
L 366.7878 197.680645 
L 366.900078 198.158508 
L 367.322288 198.158508 
L 367.436441 198.648172 
L 367.840185 198.648172 
L 367.952443 199.150233 
L 368.364285 199.150233 
L 368.47833 199.665337 
L 368.89051 199.665337 
L 369.002631 200.194178 
L 369.486207 200.194178 
L 369.599731 200.737509 
L 370.028751 200.737509 
L 370.140301 201.296148 
L 370.637349 201.296148 
L 370.750138 201.870982 
L 371.281167 201.870982 
L 371.394974 202.462977 
L 371.96108 202.462977 
L 372.072413 203.07319 
L 372.526658 203.07319 
L 372.639183 203.702778 
L 373.08839 203.702778 
L 373.202041 204.353012 
L 373.847541 204.353012 
L 373.961512 205.025293 
L 374.594501 205.025293 
L 374.705753 205.721166 
L 375.338523 205.721166 
L 375.450061 206.44235 
L 376.065039 206.44235 
L 376.17685 207.190754 
L 376.864544 207.190754 
L 376.976291 207.968516 
L 377.65751 207.968516 
L 377.769147 208.778031 
L 378.425301 208.778031 
L 378.536852 209.622003 
L 379.234137 209.622003 
L 379.345392 210.503498 
L 380.128263 210.503498 
L 380.241366 211.426007 
L 381.138893 211.426007 
L 381.250789 212.393534 
L 382.067872 212.393534 
L 382.18117 213.410699 
L 383.104922 213.410699 
L 383.216763 214.482871 
L 384.187856 214.482871 
L 384.300249 215.616344 
L 385.319346 215.616344 
L 385.431944 216.818552 
L 386.456 216.818552 
L 386.568624 218.098374 
L 387.639288 218.098374 
L 387.75162 219.466528 
L 388.943999 219.466528 
L 389.055464 220.936116 
L 390.431179 220.936116 
L 390.542803 222.523393 
L 391.925716 222.523393 
L 392.037212 224.24886 
L 393.464258 224.24886 
L 393.57686 226.138896 
L 395.172035 226.138896 
L 395.283214 228.228233 
L 397.072314 228.228233 
L 397.184117 230.563914 
L 399.150683 230.563914 
L 399.261996 233.21189 
L 401.516439 233.21189 
L 401.628342 236.268755 
L 404.191033 236.268755 
L 404.302876 239.884258 
L 407.307678 239.884258 
L 407.419207 244.309276 
L 411.210455 244.309276 
L 411.321603 250.014117 
L 416.321357 250.014117 
L 416.432675 258.054638 
L 424.206333 258.054638 
L 424.317891 271.8 
L 444.519205 271.8 
L 444.519205 271.8 
" clip-path="url(#p3ec2cd0c71)" style="fill: none; stroke: #4c72b0; stroke-width: 1.5; stroke-linecap: round"/>
   </g>
   <g id="patch_3">
    <path d="M 51.67375 284.4 
L 51.67375 7.2 
" style="fill: none; stroke: #262626; stroke-width: 1.25; stroke-linejoin: miter; stroke-linecap: square"/>
   </g>
   <g id="patch_4">
    <path d="M 71.67375 304.4 
L 462.27375 304.4 
" style="fill: none; stroke: #262626; stroke-width: 1.25; stroke-linejoin: miter; stroke-linecap: square"/>
   </g>
  </g>
 </g>
 <defs>
  <clipPath id="p3ec2cd0c71">
   <rect x="71.67375" y="7.2" width="390.6" height="277.2"/>
  </clipPath>
 </defs>
</svg>
