<?xml version="1.0" encoding="utf-8" standalone="no"?>
<!DOCTYPE svg PUBLIC "-//W3C//DTD SVG 1.1//EN"
  "http://www.w3.org/Graphics/SVG/1.1/DTD/svg11.dtd">
<svg xmlns:xlink="http://www.w3.org/1999/xlink" width="245.693941pt" height="327.359688pt" viewBox="0 0 245.693941 327.359688" xmlns="http://www.w3.org/2000/svg" version="1.1">
 <metadata>
  <rdf:RDF xmlns:dc="http://purl.org/dc/elements/1.1/" xmlns:cc="http://creativecommons.org/ns#" xmlns:rdf="http://www.w3.org/1999/02/22-rdf-syntax-ns#">
   <cc:Work>
    <dc:type rdf:resource="http://purl.org/dc/dcmitype/StillImage"/>
    <dc:date>2024-03-10T19:50:34.211001</dc:date>
    <dc:format>image/svg+xml</dc:format>
    <dc:creator>
     <cc:Agent>
      <dc:title>Matplotlib v3.8.3, https://matplotlib.org/</dc:title>
     </cc:Agent>
    </dc:creator>
   </cc:Work>
  </rdf:RDF>
 </metadata>
 <defs>
  <style type="text/css">*{stroke-linejoin: round; stroke-linecap: butt}</style>
 </defs>
 <g id="figure_1">
  <g id="patch_1">
   <path d="M 0 327.359688 
L 245.693941 327.359688 
L 245.693941 0 
L 0 0 
z
" style="fill: #ffffff"/>
  </g>
  <g id="axes_1">
   <g id="patch_2">
    <path d="M 58.16375 284.4 
L 238.493941 284.4 
L 238.493941 7.2 
L 58.16375 7.2 
z
" style="fill: #ffffff"/>
   </g>
   <g id="matplotlib.axis_1">
    <g id="xtick_1">
     <g id="line2d_1">
      <path d="M 60.055325 284.4 
L 60.055325 7.2 
" clip-path="url(#p0f4dc2f0c0)" style="fill: none; stroke: #d3d3d3; stroke-linecap: round"/>
     </g>
     <g id="text_1">
      <!-- $\mathdefault{10^{0}}$ -->
      <g style="fill: #262626" transform="translate(50.375325 302.258281) scale(0.11 -0.11)">
       <defs>
        <path id="DejaVuSans-31" d="M 794 531 
L 1825 531 
L 1825 4091 
L 703 3866 
L 703 4441 
L 1819 4666 
L 2450 4666 
L 2450 531 
L 3481 531 
L 3481 0 
L 794 0 
L 794 531 
z
" transform="scale(0.015625)"/>
        <path id="DejaVuSans-30" d="M 2034 4250 
Q 1547 4250 1301 3770 
Q 1056 3291 1056 2328 
Q 1056 1369 1301 889 
Q 1547 409 2034 409 
Q 2525 409 2770 889 
Q 3016 1369 3016 2328 
Q 3016 3291 2770 3770 
Q 2525 4250 2034 4250 
z
M 2034 4750 
Q 2819 4750 3233 4129 
Q 3647 3509 3647 2328 
Q 3647 1150 3233 529 
Q 2819 -91 2034 -91 
Q 1250 -91 836 529 
Q 422 1150 422 2328 
Q 422 3509 836 4129 
Q 1250 4750 2034 4750 
z
" transform="scale(0.015625)"/>
       </defs>
       <use xlink:href="#DejaVuSans-31" transform="translate(0 0.765625)"/>
       <use xlink:href="#DejaVuSans-30" transform="translate(63.623047 0.765625)"/>
       <use xlink:href="#DejaVuSans-30" transform="translate(128.203125 39.046875) scale(0.7)"/>
      </g>
     </g>
    </g>
    <g id="xtick_2">
     <g id="line2d_2">
      <path d="M 119.955214 284.4 
L 119.955214 7.2 
" clip-path="url(#p0f4dc2f0c0)" style="fill: none; stroke: #d3d3d3; stroke-linecap: round"/>
     </g>
     <g id="text_2">
      <!-- $\mathdefault{10^{1}}$ -->
      <g style="fill: #262626" transform="translate(110.275214 302.258281) scale(0.11 -0.11)">
       <use xlink:href="#DejaVuSans-31" transform="translate(0 0.684375)"/>
       <use xlink:href="#DejaVuSans-30" transform="translate(63.623047 0.684375)"/>
       <use xlink:href="#DejaVuSans-31" transform="translate(128.203125 38.965625) scale(0.7)"/>
      </g>
     </g>
    </g>
    <g id="xtick_3">
     <g id="line2d_3">
      <path d="M 179.855103 284.4 
L 179.855103 7.2 
" clip-path="url(#p0f4dc2f0c0)" style="fill: none; stroke: #d3d3d3; stroke-linecap: round"/>
     </g>
     <g id="text_3">
      <!-- $\mathdefault{10^{2}}$ -->
      <g style="fill: #262626" transform="translate(170.175103 302.258281) scale(0.11 -0.11)">
       <defs>
        <path id="DejaVuSans-32" d="M 1228 531 
L 3431 531 
L 3431 0 
L 469 0 
L 469 531 
Q 828 903 1448 1529 
Q 2069 2156 2228 2338 
Q 2531 2678 2651 2914 
Q 2772 3150 2772 3378 
Q 2772 3750 2511 3984 
Q 2250 4219 1831 4219 
Q 1534 4219 1204 4116 
Q 875 4013 500 3803 
L 500 4441 
Q 881 4594 1212 4672 
Q 1544 4750 1819 4750 
Q 2544 4750 2975 4387 
Q 3406 4025 3406 3419 
Q 3406 3131 3298 2873 
Q 3191 2616 2906 2266 
Q 2828 2175 2409 1742 
Q 1991 1309 1228 531 
z
" transform="scale(0.015625)"/>
       </defs>
       <use xlink:href="#DejaVuSans-31" transform="translate(0 0.765625)"/>
       <use xlink:href="#DejaVuSans-30" transform="translate(63.623047 0.765625)"/>
       <use xlink:href="#DejaVuSans-32" transform="translate(128.203125 39.046875) scale(0.7)"/>
      </g>
     </g>
    </g>
    <g id="xtick_4">
     <g id="line2d_4">
      <path d="M 78.086989 284.4 
L 78.086989 7.2 
" clip-path="url(#p0f4dc2f0c0)" style="fill: none; stroke: #f5f5f5; stroke-linecap: round"/>
     </g>
    </g>
    <g id="xtick_5">
     <g id="line2d_5">
      <path d="M 88.634836 284.4 
L 88.634836 7.2 
" clip-path="url(#p0f4dc2f0c0)" style="fill: none; stroke: #f5f5f5; stroke-linecap: round"/>
     </g>
    </g>
    <g id="xtick_6">
     <g id="line2d_6">
      <path d="M 96.118652 284.4 
L 96.118652 7.2 
" clip-path="url(#p0f4dc2f0c0)" style="fill: none; stroke: #f5f5f5; stroke-linecap: round"/>
     </g>
    </g>
    <g id="xtick_7">
     <g id="line2d_7">
      <path d="M 101.923551 284.4 
L 101.923551 7.2 
" clip-path="url(#p0f4dc2f0c0)" style="fill: none; stroke: #f5f5f5; stroke-linecap: round"/>
     </g>
    </g>
    <g id="xtick_8">
     <g id="line2d_8">
      <path d="M 106.666499 284.4 
L 106.666499 7.2 
" clip-path="url(#p0f4dc2f0c0)" style="fill: none; stroke: #f5f5f5; stroke-linecap: round"/>
     </g>
    </g>
    <g id="xtick_9">
     <g id="line2d_9">
      <path d="M 110.676604 284.4 
L 110.676604 7.2 
" clip-path="url(#p0f4dc2f0c0)" style="fill: none; stroke: #f5f5f5; stroke-linecap: round"/>
     </g>
    </g>
    <g id="xtick_10">
     <g id="line2d_10">
      <path d="M 114.150315 284.4 
L 114.150315 7.2 
" clip-path="url(#p0f4dc2f0c0)" style="fill: none; stroke: #f5f5f5; stroke-linecap: round"/>
     </g>
    </g>
    <g id="xtick_11">
     <g id="line2d_11">
      <path d="M 117.214346 284.4 
L 117.214346 7.2 
" clip-path="url(#p0f4dc2f0c0)" style="fill: none; stroke: #f5f5f5; stroke-linecap: round"/>
     </g>
    </g>
    <g id="xtick_12">
     <g id="line2d_12">
      <path d="M 137.986877 284.4 
L 137.986877 7.2 
" clip-path="url(#p0f4dc2f0c0)" style="fill: none; stroke: #f5f5f5; stroke-linecap: round"/>
     </g>
    </g>
    <g id="xtick_13">
     <g id="line2d_13">
      <path d="M 148.534724 284.4 
L 148.534724 7.2 
" clip-path="url(#p0f4dc2f0c0)" style="fill: none; stroke: #f5f5f5; stroke-linecap: round"/>
     </g>
    </g>
    <g id="xtick_14">
     <g id="line2d_14">
      <path d="M 156.018541 284.4 
L 156.018541 7.2 
" clip-path="url(#p0f4dc2f0c0)" style="fill: none; stroke: #f5f5f5; stroke-linecap: round"/>
     </g>
    </g>
    <g id="xtick_15">
     <g id="line2d_15">
      <path d="M 161.82344 284.4 
L 161.82344 7.2 
" clip-path="url(#p0f4dc2f0c0)" style="fill: none; stroke: #f5f5f5; stroke-linecap: round"/>
     </g>
    </g>
    <g id="xtick_16">
     <g id="line2d_16">
      <path d="M 166.566387 284.4 
L 166.566387 7.2 
" clip-path="url(#p0f4dc2f0c0)" style="fill: none; stroke: #f5f5f5; stroke-linecap: round"/>
     </g>
    </g>
    <g id="xtick_17">
     <g id="line2d_17">
      <path d="M 170.576493 284.4 
L 170.576493 7.2 
" clip-path="url(#p0f4dc2f0c0)" style="fill: none; stroke: #f5f5f5; stroke-linecap: round"/>
     </g>
    </g>
    <g id="xtick_18">
     <g id="line2d_18">
      <path d="M 174.050204 284.4 
L 174.050204 7.2 
" clip-path="url(#p0f4dc2f0c0)" style="fill: none; stroke: #f5f5f5; stroke-linecap: round"/>
     </g>
    </g>
    <g id="xtick_19">
     <g id="line2d_19">
      <path d="M 177.114234 284.4 
L 177.114234 7.2 
" clip-path="url(#p0f4dc2f0c0)" style="fill: none; stroke: #f5f5f5; stroke-linecap: round"/>
     </g>
    </g>
    <g id="xtick_20">
     <g id="line2d_20">
      <path d="M 197.886766 284.4 
L 197.886766 7.2 
" clip-path="url(#p0f4dc2f0c0)" style="fill: none; stroke: #f5f5f5; stroke-linecap: round"/>
     </g>
    </g>
    <g id="xtick_21">
     <g id="line2d_21">
      <path d="M 208.434613 284.4 
L 208.434613 7.2 
" clip-path="url(#p0f4dc2f0c0)" style="fill: none; stroke: #f5f5f5; stroke-linecap: round"/>
     </g>
    </g>
    <g id="xtick_22">
     <g id="line2d_22">
      <path d="M 215.918429 284.4 
L 215.918429 7.2 
" clip-path="url(#p0f4dc2f0c0)" style="fill: none; stroke: #f5f5f5; stroke-linecap: round"/>
     </g>
    </g>
    <g id="xtick_23">
     <g id="line2d_23">
      <path d="M 221.723328 284.4 
L 221.723328 7.2 
" clip-path="url(#p0f4dc2f0c0)" style="fill: none; stroke: #f5f5f5; stroke-linecap: round"/>
     </g>
    </g>
    <g id="xtick_24">
     <g id="line2d_24">
      <path d="M 226.466276 284.4 
L 226.466276 7.2 
" clip-path="url(#p0f4dc2f0c0)" style="fill: none; stroke: #f5f5f5; stroke-linecap: round"/>
     </g>
    </g>
    <g id="xtick_25">
     <g id="line2d_25">
      <path d="M 230.476381 284.4 
L 230.476381 7.2 
" clip-path="url(#p0f4dc2f0c0)" style="fill: none; stroke: #f5f5f5; stroke-linecap: round"/>
     </g>
    </g>
    <g id="xtick_26">
     <g id="line2d_26">
      <path d="M 233.950093 284.4 
L 233.950093 7.2 
" clip-path="url(#p0f4dc2f0c0)" style="fill: none; stroke: #f5f5f5; stroke-linecap: round"/>
     </g>
    </g>
    <g id="xtick_27">
     <g id="line2d_27">
      <path d="M 237.014123 284.4 
L 237.014123 7.2 
" clip-path="url(#p0f4dc2f0c0)" style="fill: none; stroke: #f5f5f5; stroke-linecap: round"/>
     </g>
    </g>
    <g id="text_4">
     <!-- rank -->
     <g style="fill: #262626" transform="translate(134.908533 317.664062) scale(0.12 -0.12)">
      <defs>
       <path id="DejaVuSans-72" d="M 2631 2963 
Q 2534 3019 2420 3045 
Q 2306 3072 2169 3072 
Q 1681 3072 1420 2755 
Q 1159 2438 1159 1844 
L 1159 0 
L 581 0 
L 581 3500 
L 1159 3500 
L 1159 2956 
Q 1341 3275 1631 3429 
Q 1922 3584 2338 3584 
Q 2397 3584 2469 3576 
Q 2541 3569 2628 3553 
L 2631 2963 
z
" transform="scale(0.015625)"/>
       <path id="DejaVuSans-61" d="M 2194 1759 
Q 1497 1759 1228 1600 
Q 959 1441 959 1056 
Q 959 750 1161 570 
Q 1363 391 1709 391 
Q 2188 391 2477 730 
Q 2766 1069 2766 1631 
L 2766 1759 
L 2194 1759 
z
M 3341 1997 
L 3341 0 
L 2766 0 
L 2766 531 
Q 2569 213 2275 61 
Q 1981 -91 1556 -91 
Q 1019 -91 701 211 
Q 384 513 384 1019 
Q 384 1609 779 1909 
Q 1175 2209 1959 2209 
L 2766 2209 
L 2766 2266 
Q 2766 2663 2505 2880 
Q 2244 3097 1772 3097 
Q 1472 3097 1187 3025 
Q 903 2953 641 2809 
L 641 3341 
Q 956 3463 1253 3523 
Q 1550 3584 1831 3584 
Q 2591 3584 2966 3190 
Q 3341 2797 3341 1997 
z
" transform="scale(0.015625)"/>
       <path id="DejaVuSans-6e" d="M 3513 2113 
L 3513 0 
L 2938 0 
L 2938 2094 
Q 2938 2591 2744 2837 
Q 2550 3084 2163 3084 
Q 1697 3084 1428 2787 
Q 1159 2491 1159 1978 
L 1159 0 
L 581 0 
L 581 3500 
L 1159 3500 
L 1159 2956 
Q 1366 3272 1645 3428 
Q 1925 3584 2291 3584 
Q 2894 3584 3203 3211 
Q 3513 2838 3513 2113 
z
" transform="scale(0.015625)"/>
       <path id="DejaVuSans-6b" d="M 581 4863 
L 1159 4863 
L 1159 1991 
L 2875 3500 
L 3609 3500 
L 1753 1863 
L 3688 0 
L 2938 0 
L 1159 1709 
L 1159 0 
L 581 0 
L 581 4863 
z
" transform="scale(0.015625)"/>
      </defs>
      <use xlink:href="#DejaVuSans-72"/>
      <use xlink:href="#DejaVuSans-61" x="41.113281"/>
      <use xlink:href="#DejaVuSans-6e" x="102.392578"/>
      <use xlink:href="#DejaVuSans-6b" x="165.771484"/>
     </g>
    </g>
   </g>
   <g id="matplotlib.axis_2">
    <g id="ytick_1">
     <g id="line2d_28">
      <path d="M 58.16375 240.204924 
L 238.493941 240.204924 
" clip-path="url(#p0f4dc2f0c0)" style="fill: none; stroke: #d3d3d3; stroke-linecap: round"/>
     </g>
     <g id="text_5">
      <!-- $\mathdefault{10^{-1}}$ -->
      <g style="fill: #262626" transform="translate(22.81375 244.384065) scale(0.11 -0.11)">
       <defs>
        <path id="DejaVuSans-2212" d="M 678 2272 
L 4684 2272 
L 4684 1741 
L 678 1741 
L 678 2272 
z
" transform="scale(0.015625)"/>
       </defs>
       <use xlink:href="#DejaVuSans-31" transform="translate(0 0.684375)"/>
       <use xlink:href="#DejaVuSans-30" transform="translate(63.623047 0.684375)"/>
       <use xlink:href="#DejaVuSans-2212" transform="translate(128.203125 38.965625) scale(0.7)"/>
       <use xlink:href="#DejaVuSans-31" transform="translate(186.855469 38.965625) scale(0.7)"/>
      </g>
     </g>
    </g>
    <g id="ytick_2">
     <g id="line2d_29">
      <path d="M 58.16375 180.305036 
L 238.493941 180.305036 
" clip-path="url(#p0f4dc2f0c0)" style="fill: none; stroke: #d3d3d3; stroke-linecap: round"/>
     </g>
     <g id="text_6">
      <!-- $\mathdefault{10^{0}}$ -->
      <g style="fill: #262626" transform="translate(29.30375 184.484176) scale(0.11 -0.11)">
       <use xlink:href="#DejaVuSans-31" transform="translate(0 0.765625)"/>
       <use xlink:href="#DejaVuSans-30" transform="translate(63.623047 0.765625)"/>
       <use xlink:href="#DejaVuSans-30" transform="translate(128.203125 39.046875) scale(0.7)"/>
      </g>
     </g>
    </g>
    <g id="ytick_3">
     <g id="line2d_30">
      <path d="M 58.16375 120.405147 
L 238.493941 120.405147 
" clip-path="url(#p0f4dc2f0c0)" style="fill: none; stroke: #d3d3d3; stroke-linecap: round"/>
     </g>
     <g id="text_7">
      <!-- $\mathdefault{10^{1}}$ -->
      <g style="fill: #262626" transform="translate(29.30375 124.584287) scale(0.11 -0.11)">
       <use xlink:href="#DejaVuSans-31" transform="translate(0 0.684375)"/>
       <use xlink:href="#DejaVuSans-30" transform="translate(63.623047 0.684375)"/>
       <use xlink:href="#DejaVuSans-31" transform="translate(128.203125 38.965625) scale(0.7)"/>
      </g>
     </g>
    </g>
    <g id="ytick_4">
     <g id="line2d_31">
      <path d="M 58.16375 60.505258 
L 238.493941 60.505258 
" clip-path="url(#p0f4dc2f0c0)" style="fill: none; stroke: #d3d3d3; stroke-linecap: round"/>
     </g>
     <g id="text_8">
      <!-- $\mathdefault{10^{2}}$ -->
      <g style="fill: #262626" transform="translate(29.30375 64.684399) scale(0.11 -0.11)">
       <use xlink:href="#DejaVuSans-31" transform="translate(0 0.765625)"/>
       <use xlink:href="#DejaVuSans-30" transform="translate(63.623047 0.765625)"/>
       <use xlink:href="#DejaVuSans-32" transform="translate(128.203125 39.046875) scale(0.7)"/>
      </g>
     </g>
    </g>
    <g id="ytick_5">
     <g id="line2d_32">
      <path d="M 58.16375 282.07315 
L 238.493941 282.07315 
" clip-path="url(#p0f4dc2f0c0)" style="fill: none; stroke: #f5f5f5; stroke-linecap: round"/>
     </g>
    </g>
    <g id="ytick_6">
     <g id="line2d_33">
      <path d="M 58.16375 271.525303 
L 238.493941 271.525303 
" clip-path="url(#p0f4dc2f0c0)" style="fill: none; stroke: #f5f5f5; stroke-linecap: round"/>
     </g>
    </g>
    <g id="ytick_7">
     <g id="line2d_34">
      <path d="M 58.16375 264.041487 
L 238.493941 264.041487 
" clip-path="url(#p0f4dc2f0c0)" style="fill: none; stroke: #f5f5f5; stroke-linecap: round"/>
     </g>
    </g>
    <g id="ytick_8">
     <g id="line2d_35">
      <path d="M 58.16375 258.236588 
L 238.493941 258.236588 
" clip-path="url(#p0f4dc2f0c0)" style="fill: none; stroke: #f5f5f5; stroke-linecap: round"/>
     </g>
    </g>
    <g id="ytick_9">
     <g id="line2d_36">
      <path d="M 58.16375 253.49364 
L 238.493941 253.49364 
" clip-path="url(#p0f4dc2f0c0)" style="fill: none; stroke: #f5f5f5; stroke-linecap: round"/>
     </g>
    </g>
    <g id="ytick_10">
     <g id="line2d_37">
      <path d="M 58.16375 249.483534 
L 238.493941 249.483534 
" clip-path="url(#p0f4dc2f0c0)" style="fill: none; stroke: #f5f5f5; stroke-linecap: round"/>
     </g>
    </g>
    <g id="ytick_11">
     <g id="line2d_38">
      <path d="M 58.16375 246.009823 
L 238.493941 246.009823 
" clip-path="url(#p0f4dc2f0c0)" style="fill: none; stroke: #f5f5f5; stroke-linecap: round"/>
     </g>
    </g>
    <g id="ytick_12">
     <g id="line2d_39">
      <path d="M 58.16375 242.945793 
L 238.493941 242.945793 
" clip-path="url(#p0f4dc2f0c0)" style="fill: none; stroke: #f5f5f5; stroke-linecap: round"/>
     </g>
    </g>
    <g id="ytick_13">
     <g id="line2d_40">
      <path d="M 58.16375 222.173261 
L 238.493941 222.173261 
" clip-path="url(#p0f4dc2f0c0)" style="fill: none; stroke: #f5f5f5; stroke-linecap: round"/>
     </g>
    </g>
    <g id="ytick_14">
     <g id="line2d_41">
      <path d="M 58.16375 211.625414 
L 238.493941 211.625414 
" clip-path="url(#p0f4dc2f0c0)" style="fill: none; stroke: #f5f5f5; stroke-linecap: round"/>
     </g>
    </g>
    <g id="ytick_15">
     <g id="line2d_42">
      <path d="M 58.16375 204.141598 
L 238.493941 204.141598 
" clip-path="url(#p0f4dc2f0c0)" style="fill: none; stroke: #f5f5f5; stroke-linecap: round"/>
     </g>
    </g>
    <g id="ytick_16">
     <g id="line2d_43">
      <path d="M 58.16375 198.336699 
L 238.493941 198.336699 
" clip-path="url(#p0f4dc2f0c0)" style="fill: none; stroke: #f5f5f5; stroke-linecap: round"/>
     </g>
    </g>
    <g id="ytick_17">
     <g id="line2d_44">
      <path d="M 58.16375 193.593751 
L 238.493941 193.593751 
" clip-path="url(#p0f4dc2f0c0)" style="fill: none; stroke: #f5f5f5; stroke-linecap: round"/>
     </g>
    </g>
    <g id="ytick_18">
     <g id="line2d_45">
      <path d="M 58.16375 189.583646 
L 238.493941 189.583646 
" clip-path="url(#p0f4dc2f0c0)" style="fill: none; stroke: #f5f5f5; stroke-linecap: round"/>
     </g>
    </g>
    <g id="ytick_19">
     <g id="line2d_46">
      <path d="M 58.16375 186.109935 
L 238.493941 186.109935 
" clip-path="url(#p0f4dc2f0c0)" style="fill: none; stroke: #f5f5f5; stroke-linecap: round"/>
     </g>
    </g>
    <g id="ytick_20">
     <g id="line2d_47">
      <path d="M 58.16375 183.045904 
L 238.493941 183.045904 
" clip-path="url(#p0f4dc2f0c0)" style="fill: none; stroke: #f5f5f5; stroke-linecap: round"/>
     </g>
    </g>
    <g id="ytick_21">
     <g id="line2d_48">
      <path d="M 58.16375 162.273372 
L 238.493941 162.273372 
" clip-path="url(#p0f4dc2f0c0)" style="fill: none; stroke: #f5f5f5; stroke-linecap: round"/>
     </g>
    </g>
    <g id="ytick_22">
     <g id="line2d_49">
      <path d="M 58.16375 151.725525 
L 238.493941 151.725525 
" clip-path="url(#p0f4dc2f0c0)" style="fill: none; stroke: #f5f5f5; stroke-linecap: round"/>
     </g>
    </g>
    <g id="ytick_23">
     <g id="line2d_50">
      <path d="M 58.16375 144.241709 
L 238.493941 144.241709 
" clip-path="url(#p0f4dc2f0c0)" style="fill: none; stroke: #f5f5f5; stroke-linecap: round"/>
     </g>
    </g>
    <g id="ytick_24">
     <g id="line2d_51">
      <path d="M 58.16375 138.43681 
L 238.493941 138.43681 
" clip-path="url(#p0f4dc2f0c0)" style="fill: none; stroke: #f5f5f5; stroke-linecap: round"/>
     </g>
    </g>
    <g id="ytick_25">
     <g id="line2d_52">
      <path d="M 58.16375 133.693862 
L 238.493941 133.693862 
" clip-path="url(#p0f4dc2f0c0)" style="fill: none; stroke: #f5f5f5; stroke-linecap: round"/>
     </g>
    </g>
    <g id="ytick_26">
     <g id="line2d_53">
      <path d="M 58.16375 129.683757 
L 238.493941 129.683757 
" clip-path="url(#p0f4dc2f0c0)" style="fill: none; stroke: #f5f5f5; stroke-linecap: round"/>
     </g>
    </g>
    <g id="ytick_27">
     <g id="line2d_54">
      <path d="M 58.16375 126.210046 
L 238.493941 126.210046 
" clip-path="url(#p0f4dc2f0c0)" style="fill: none; stroke: #f5f5f5; stroke-linecap: round"/>
     </g>
    </g>
    <g id="ytick_28">
     <g id="line2d_55">
      <path d="M 58.16375 123.146015 
L 238.493941 123.146015 
" clip-path="url(#p0f4dc2f0c0)" style="fill: none; stroke: #f5f5f5; stroke-linecap: round"/>
     </g>
    </g>
    <g id="ytick_29">
     <g id="line2d_56">
      <path d="M 58.16375 102.373484 
L 238.493941 102.373484 
" clip-path="url(#p0f4dc2f0c0)" style="fill: none; stroke: #f5f5f5; stroke-linecap: round"/>
     </g>
    </g>
    <g id="ytick_30">
     <g id="line2d_57">
      <path d="M 58.16375 91.825637 
L 238.493941 91.825637 
" clip-path="url(#p0f4dc2f0c0)" style="fill: none; stroke: #f5f5f5; stroke-linecap: round"/>
     </g>
    </g>
    <g id="ytick_31">
     <g id="line2d_58">
      <path d="M 58.16375 84.34182 
L 238.493941 84.34182 
" clip-path="url(#p0f4dc2f0c0)" style="fill: none; stroke: #f5f5f5; stroke-linecap: round"/>
     </g>
    </g>
    <g id="ytick_32">
     <g id="line2d_59">
      <path d="M 58.16375 78.536921 
L 238.493941 78.536921 
" clip-path="url(#p0f4dc2f0c0)" style="fill: none; stroke: #f5f5f5; stroke-linecap: round"/>
     </g>
    </g>
    <g id="ytick_33">
     <g id="line2d_60">
      <path d="M 58.16375 73.793973 
L 238.493941 73.793973 
" clip-path="url(#p0f4dc2f0c0)" style="fill: none; stroke: #f5f5f5; stroke-linecap: round"/>
     </g>
    </g>
    <g id="ytick_34">
     <g id="line2d_61">
      <path d="M 58.16375 69.783868 
L 238.493941 69.783868 
" clip-path="url(#p0f4dc2f0c0)" style="fill: none; stroke: #f5f5f5; stroke-linecap: round"/>
     </g>
    </g>
    <g id="ytick_35">
     <g id="line2d_62">
      <path d="M 58.16375 66.310157 
L 238.493941 66.310157 
" clip-path="url(#p0f4dc2f0c0)" style="fill: none; stroke: #f5f5f5; stroke-linecap: round"/>
     </g>
    </g>
    <g id="ytick_36">
     <g id="line2d_63">
      <path d="M 58.16375 63.246127 
L 238.493941 63.246127 
" clip-path="url(#p0f4dc2f0c0)" style="fill: none; stroke: #f5f5f5; stroke-linecap: round"/>
     </g>
    </g>
    <g id="ytick_37">
     <g id="line2d_64">
      <path d="M 58.16375 42.473595 
L 238.493941 42.473595 
" clip-path="url(#p0f4dc2f0c0)" style="fill: none; stroke: #f5f5f5; stroke-linecap: round"/>
     </g>
    </g>
    <g id="ytick_38">
     <g id="line2d_65">
      <path d="M 58.16375 31.925748 
L 238.493941 31.925748 
" clip-path="url(#p0f4dc2f0c0)" style="fill: none; stroke: #f5f5f5; stroke-linecap: round"/>
     </g>
    </g>
    <g id="ytick_39">
     <g id="line2d_66">
      <path d="M 58.16375 24.441932 
L 238.493941 24.441932 
" clip-path="url(#p0f4dc2f0c0)" style="fill: none; stroke: #f5f5f5; stroke-linecap: round"/>
     </g>
    </g>
    <g id="ytick_40">
     <g id="line2d_67">
      <path d="M 58.16375 18.637033 
L 238.493941 18.637033 
" clip-path="url(#p0f4dc2f0c0)" style="fill: none; stroke: #f5f5f5; stroke-linecap: round"/>
     </g>
    </g>
    <g id="ytick_41">
     <g id="line2d_68">
      <path d="M 58.16375 13.894085 
L 238.493941 13.894085 
" clip-path="url(#p0f4dc2f0c0)" style="fill: none; stroke: #f5f5f5; stroke-linecap: round"/>
     </g>
    </g>
    <g id="ytick_42">
     <g id="line2d_69">
      <path d="M 58.16375 9.88398 
L 238.493941 9.88398 
" clip-path="url(#p0f4dc2f0c0)" style="fill: none; stroke: #f5f5f5; stroke-linecap: round"/>
     </g>
    </g>
    <g id="text_9">
     <!-- cross-validated singular value -->
     <g style="fill: #262626" transform="translate(16.318125 235.48125) rotate(-90) scale(0.12 -0.12)">
      <defs>
       <path id="DejaVuSans-63" d="M 3122 3366 
L 3122 2828 
Q 2878 2963 2633 3030 
Q 2388 3097 2138 3097 
Q 1578 3097 1268 2742 
Q 959 2388 959 1747 
Q 959 1106 1268 751 
Q 1578 397 2138 397 
Q 2388 397 2633 464 
Q 2878 531 3122 666 
L 3122 134 
Q 2881 22 2623 -34 
Q 2366 -91 2075 -91 
Q 1284 -91 818 406 
Q 353 903 353 1747 
Q 353 2603 823 3093 
Q 1294 3584 2113 3584 
Q 2378 3584 2631 3529 
Q 2884 3475 3122 3366 
z
" transform="scale(0.015625)"/>
       <path id="DejaVuSans-6f" d="M 1959 3097 
Q 1497 3097 1228 2736 
Q 959 2375 959 1747 
Q 959 1119 1226 758 
Q 1494 397 1959 397 
Q 2419 397 2687 759 
Q 2956 1122 2956 1747 
Q 2956 2369 2687 2733 
Q 2419 3097 1959 3097 
z
M 1959 3584 
Q 2709 3584 3137 3096 
Q 3566 2609 3566 1747 
Q 3566 888 3137 398 
Q 2709 -91 1959 -91 
Q 1206 -91 779 398 
Q 353 888 353 1747 
Q 353 2609 779 3096 
Q 1206 3584 1959 3584 
z
" transform="scale(0.015625)"/>
       <path id="DejaVuSans-73" d="M 2834 3397 
L 2834 2853 
Q 2591 2978 2328 3040 
Q 2066 3103 1784 3103 
Q 1356 3103 1142 2972 
Q 928 2841 928 2578 
Q 928 2378 1081 2264 
Q 1234 2150 1697 2047 
L 1894 2003 
Q 2506 1872 2764 1633 
Q 3022 1394 3022 966 
Q 3022 478 2636 193 
Q 2250 -91 1575 -91 
Q 1294 -91 989 -36 
Q 684 19 347 128 
L 347 722 
Q 666 556 975 473 
Q 1284 391 1588 391 
Q 1994 391 2212 530 
Q 2431 669 2431 922 
Q 2431 1156 2273 1281 
Q 2116 1406 1581 1522 
L 1381 1569 
Q 847 1681 609 1914 
Q 372 2147 372 2553 
Q 372 3047 722 3315 
Q 1072 3584 1716 3584 
Q 2034 3584 2315 3537 
Q 2597 3491 2834 3397 
z
" transform="scale(0.015625)"/>
       <path id="DejaVuSans-2d" d="M 313 2009 
L 1997 2009 
L 1997 1497 
L 313 1497 
L 313 2009 
z
" transform="scale(0.015625)"/>
       <path id="DejaVuSans-76" d="M 191 3500 
L 800 3500 
L 1894 563 
L 2988 3500 
L 3597 3500 
L 2284 0 
L 1503 0 
L 191 3500 
z
" transform="scale(0.015625)"/>
       <path id="DejaVuSans-6c" d="M 603 4863 
L 1178 4863 
L 1178 0 
L 603 0 
L 603 4863 
z
" transform="scale(0.015625)"/>
       <path id="DejaVuSans-69" d="M 603 3500 
L 1178 3500 
L 1178 0 
L 603 0 
L 603 3500 
z
M 603 4863 
L 1178 4863 
L 1178 4134 
L 603 4134 
L 603 4863 
z
" transform="scale(0.015625)"/>
       <path id="DejaVuSans-64" d="M 2906 2969 
L 2906 4863 
L 3481 4863 
L 3481 0 
L 2906 0 
L 2906 525 
Q 2725 213 2448 61 
Q 2172 -91 1784 -91 
Q 1150 -91 751 415 
Q 353 922 353 1747 
Q 353 2572 751 3078 
Q 1150 3584 1784 3584 
Q 2172 3584 2448 3432 
Q 2725 3281 2906 2969 
z
M 947 1747 
Q 947 1113 1208 752 
Q 1469 391 1925 391 
Q 2381 391 2643 752 
Q 2906 1113 2906 1747 
Q 2906 2381 2643 2742 
Q 2381 3103 1925 3103 
Q 1469 3103 1208 2742 
Q 947 2381 947 1747 
z
" transform="scale(0.015625)"/>
       <path id="DejaVuSans-74" d="M 1172 4494 
L 1172 3500 
L 2356 3500 
L 2356 3053 
L 1172 3053 
L 1172 1153 
Q 1172 725 1289 603 
Q 1406 481 1766 481 
L 2356 481 
L 2356 0 
L 1766 0 
Q 1100 0 847 248 
Q 594 497 594 1153 
L 594 3053 
L 172 3053 
L 172 3500 
L 594 3500 
L 594 4494 
L 1172 4494 
z
" transform="scale(0.015625)"/>
       <path id="DejaVuSans-65" d="M 3597 1894 
L 3597 1613 
L 953 1613 
Q 991 1019 1311 708 
Q 1631 397 2203 397 
Q 2534 397 2845 478 
Q 3156 559 3463 722 
L 3463 178 
Q 3153 47 2828 -22 
Q 2503 -91 2169 -91 
Q 1331 -91 842 396 
Q 353 884 353 1716 
Q 353 2575 817 3079 
Q 1281 3584 2069 3584 
Q 2775 3584 3186 3129 
Q 3597 2675 3597 1894 
z
M 3022 2063 
Q 3016 2534 2758 2815 
Q 2500 3097 2075 3097 
Q 1594 3097 1305 2825 
Q 1016 2553 972 2059 
L 3022 2063 
z
" transform="scale(0.015625)"/>
       <path id="DejaVuSans-20" transform="scale(0.015625)"/>
       <path id="DejaVuSans-67" d="M 2906 1791 
Q 2906 2416 2648 2759 
Q 2391 3103 1925 3103 
Q 1463 3103 1205 2759 
Q 947 2416 947 1791 
Q 947 1169 1205 825 
Q 1463 481 1925 481 
Q 2391 481 2648 825 
Q 2906 1169 2906 1791 
z
M 3481 434 
Q 3481 -459 3084 -895 
Q 2688 -1331 1869 -1331 
Q 1566 -1331 1297 -1286 
Q 1028 -1241 775 -1147 
L 775 -588 
Q 1028 -725 1275 -790 
Q 1522 -856 1778 -856 
Q 2344 -856 2625 -561 
Q 2906 -266 2906 331 
L 2906 616 
Q 2728 306 2450 153 
Q 2172 0 1784 0 
Q 1141 0 747 490 
Q 353 981 353 1791 
Q 353 2603 747 3093 
Q 1141 3584 1784 3584 
Q 2172 3584 2450 3431 
Q 2728 3278 2906 2969 
L 2906 3500 
L 3481 3500 
L 3481 434 
z
" transform="scale(0.015625)"/>
       <path id="DejaVuSans-75" d="M 544 1381 
L 544 3500 
L 1119 3500 
L 1119 1403 
Q 1119 906 1312 657 
Q 1506 409 1894 409 
Q 2359 409 2629 706 
Q 2900 1003 2900 1516 
L 2900 3500 
L 3475 3500 
L 3475 0 
L 2900 0 
L 2900 538 
Q 2691 219 2414 64 
Q 2138 -91 1772 -91 
Q 1169 -91 856 284 
Q 544 659 544 1381 
z
M 1991 3584 
L 1991 3584 
z
" transform="scale(0.015625)"/>
      </defs>
      <use xlink:href="#DejaVuSans-63"/>
      <use xlink:href="#DejaVuSans-72" x="54.980469"/>
      <use xlink:href="#DejaVuSans-6f" x="93.84375"/>
      <use xlink:href="#DejaVuSans-73" x="155.025391"/>
      <use xlink:href="#DejaVuSans-73" x="207.125"/>
      <use xlink:href="#DejaVuSans-2d" x="259.224609"/>
      <use xlink:href="#DejaVuSans-76" x="292.683594"/>
      <use xlink:href="#DejaVuSans-61" x="351.863281"/>
      <use xlink:href="#DejaVuSans-6c" x="413.142578"/>
      <use xlink:href="#DejaVuSans-69" x="440.925781"/>
      <use xlink:href="#DejaVuSans-64" x="468.708984"/>
      <use xlink:href="#DejaVuSans-61" x="532.185547"/>
      <use xlink:href="#DejaVuSans-74" x="593.464844"/>
      <use xlink:href="#DejaVuSans-65" x="632.673828"/>
      <use xlink:href="#DejaVuSans-64" x="694.197266"/>
      <use xlink:href="#DejaVuSans-20" x="757.673828"/>
      <use xlink:href="#DejaVuSans-73" x="789.460938"/>
      <use xlink:href="#DejaVuSans-69" x="841.560547"/>
      <use xlink:href="#DejaVuSans-6e" x="869.34375"/>
      <use xlink:href="#DejaVuSans-67" x="932.722656"/>
      <use xlink:href="#DejaVuSans-75" x="996.199219"/>
      <use xlink:href="#DejaVuSans-6c" x="1059.578125"/>
      <use xlink:href="#DejaVuSans-61" x="1087.361328"/>
      <use xlink:href="#DejaVuSans-72" x="1148.640625"/>
      <use xlink:href="#DejaVuSans-20" x="1189.753906"/>
      <use xlink:href="#DejaVuSans-76" x="1221.541016"/>
      <use xlink:href="#DejaVuSans-61" x="1280.720703"/>
      <use xlink:href="#DejaVuSans-6c" x="1342"/>
      <use xlink:href="#DejaVuSans-75" x="1369.783203"/>
      <use xlink:href="#DejaVuSans-65" x="1433.162109"/>
     </g>
    </g>
   </g>
   <g id="line2d_70">
    <defs>
     <path id="mc446eb223e" d="M 0 3 
C 0.795609 3 1.55874 2.683901 2.12132 2.12132 
C 2.683901 1.55874 3 0.795609 3 0 
C 3 -0.795609 2.683901 -1.55874 2.12132 -2.12132 
C 1.55874 -2.683901 0.795609 -3 0 -3 
C -0.795609 -3 -1.55874 -2.683901 -2.12132 -2.12132 
C -2.683901 -1.55874 -3 -0.795609 -3 0 
C -3 0.795609 -2.683901 1.55874 -2.12132 2.12132 
C -1.55874 2.683901 -0.795609 3 0 3 
z
" style="stroke: #ffffff; stroke-width: 0.75"/>
    </defs>
    <g clip-path="url(#p0f4dc2f0c0)">
     <use xlink:href="#mc446eb223e" x="66.360577" y="34.482021" style="fill: #514587; stroke: #ffffff; stroke-width: 0.75"/>
     <use xlink:href="#mc446eb223e" x="78.97108" y="22.765301" style="fill: #514587; stroke: #ffffff; stroke-width: 0.75"/>
     <use xlink:href="#mc446eb223e" x="91.581583" y="51.247513" style="fill: #514587; stroke: #ffffff; stroke-width: 0.75"/>
     <use xlink:href="#mc446eb223e" x="104.192086" y="64.344495" style="fill: #514587; stroke: #ffffff; stroke-width: 0.75"/>
     <use xlink:href="#mc446eb223e" x="116.802588" y="87.218551" style="fill: #514587; stroke: #ffffff; stroke-width: 0.75"/>
     <use xlink:href="#mc446eb223e" x="129.413091" y="90.007353" style="fill: #514587; stroke: #ffffff; stroke-width: 0.75"/>
     <use xlink:href="#mc446eb223e" x="142.023594" y="113.367072" style="fill: #514587; stroke: #ffffff; stroke-width: 0.75"/>
     <use xlink:href="#mc446eb223e" x="154.634097" y="126.311212" style="fill: #514587; stroke: #ffffff; stroke-width: 0.75"/>
     <use xlink:href="#mc446eb223e" x="167.2446" y="145.579571" style="fill: #514587; stroke: #ffffff; stroke-width: 0.75"/>
     <use xlink:href="#mc446eb223e" x="179.855103" y="159.34682" style="fill: #514587; stroke: #ffffff; stroke-width: 0.75"/>
     <use xlink:href="#mc446eb223e" x="192.465606" y="177.483477" style="fill: #514587; stroke: #ffffff; stroke-width: 0.75"/>
     <use xlink:href="#mc446eb223e" x="205.076109" y="193.216702" style="fill: #514587; stroke: #ffffff; stroke-width: 0.75"/>
     <use xlink:href="#mc446eb223e" x="217.686612" y="210.303788" style="fill: #514587; stroke: #ffffff; stroke-width: 0.75"/>
     <use xlink:href="#mc446eb223e" x="230.297114" y="223.88366" style="fill: #514587; stroke: #ffffff; stroke-width: 0.75"/>
    </g>
   </g>
   <g id="LineCollection_1">
    <path clip-path="url(#p0f4dc2f0c0)" style="fill: none; stroke: #514587; stroke-width: 1.5; stroke-linecap: round"/>
    <path clip-path="url(#p0f4dc2f0c0)" style="fill: none; stroke: #514587; stroke-width: 1.5; stroke-linecap: round"/>
    <path d="M 91.581583 52.703716 
L 91.581583 49.868522 
" clip-path="url(#p0f4dc2f0c0)" style="fill: none; stroke: #514587; stroke-width: 1.5; stroke-linecap: round"/>
    <path d="M 104.192086 81.592304 
L 104.192086 54.063271 
" clip-path="url(#p0f4dc2f0c0)" style="fill: none; stroke: #514587; stroke-width: 1.5; stroke-linecap: round"/>
    <path d="M 116.802588 99.696466 
L 116.802588 78.820872 
" clip-path="url(#p0f4dc2f0c0)" style="fill: none; stroke: #514587; stroke-width: 1.5; stroke-linecap: round"/>
    <path d="M 129.413091 110.873786 
L 129.413091 78.579307 
" clip-path="url(#p0f4dc2f0c0)" style="fill: none; stroke: #514587; stroke-width: 1.5; stroke-linecap: round"/>
    <path d="M 142.023594 122.582122 
L 142.023594 106.576167 
" clip-path="url(#p0f4dc2f0c0)" style="fill: none; stroke: #514587; stroke-width: 1.5; stroke-linecap: round"/>
    <path d="M 154.634097 135.969958 
L 154.634097 119.283607 
" clip-path="url(#p0f4dc2f0c0)" style="fill: none; stroke: #514587; stroke-width: 1.5; stroke-linecap: round"/>
    <path d="M 167.2446 160.186176 
L 167.2446 136.281525 
" clip-path="url(#p0f4dc2f0c0)" style="fill: none; stroke: #514587; stroke-width: 1.5; stroke-linecap: round"/>
    <path d="M 179.855103 168.367731 
L 179.855103 152.661451 
" clip-path="url(#p0f4dc2f0c0)" style="fill: none; stroke: #514587; stroke-width: 1.5; stroke-linecap: round"/>
    <path d="M 192.465606 187.158167 
L 192.465606 170.447481 
" clip-path="url(#p0f4dc2f0c0)" style="fill: none; stroke: #514587; stroke-width: 1.5; stroke-linecap: round"/>
    <path d="M 205.076109 203.454528 
L 205.076109 185.889293 
" clip-path="url(#p0f4dc2f0c0)" style="fill: none; stroke: #514587; stroke-width: 1.5; stroke-linecap: round"/>
    <path d="M 217.686612 227.904737 
L 217.686612 199.901113 
" clip-path="url(#p0f4dc2f0c0)" style="fill: none; stroke: #514587; stroke-width: 1.5; stroke-linecap: round"/>
    <path d="M 230.297114 248.063485 
L 230.297114 211.571783 
" clip-path="url(#p0f4dc2f0c0)" style="fill: none; stroke: #514587; stroke-width: 1.5; stroke-linecap: round"/>
   </g>
   <g id="line2d_71">
    <defs>
     <path id="mcd314cdb4c" d="M -3 3 
L 3 3 
L 3 -3 
L -3 -3 
z
" style="stroke: #ffffff; stroke-width: 0.75; stroke-linejoin: miter"/>
    </defs>
    <g clip-path="url(#p0f4dc2f0c0)">
     <use xlink:href="#mcd314cdb4c" x="66.360577" y="19.8" style="fill: #cf6016; stroke: #ffffff; stroke-width: 0.75; stroke-linejoin: miter"/>
     <use xlink:href="#mcd314cdb4c" x="78.97108" y="42.584814" style="fill: #cf6016; stroke: #ffffff; stroke-width: 0.75; stroke-linejoin: miter"/>
     <use xlink:href="#mcd314cdb4c" x="91.581583" y="55.179605" style="fill: #cf6016; stroke: #ffffff; stroke-width: 0.75; stroke-linejoin: miter"/>
     <use xlink:href="#mcd314cdb4c" x="104.192086" y="65.229305" style="fill: #cf6016; stroke: #ffffff; stroke-width: 0.75; stroke-linejoin: miter"/>
     <use xlink:href="#mcd314cdb4c" x="116.802588" y="78.696029" style="fill: #cf6016; stroke: #ffffff; stroke-width: 0.75; stroke-linejoin: miter"/>
     <use xlink:href="#mcd314cdb4c" x="129.413091" y="107.120795" style="fill: #cf6016; stroke: #ffffff; stroke-width: 0.75; stroke-linejoin: miter"/>
     <use xlink:href="#mcd314cdb4c" x="142.023594" y="135.507207" style="fill: #cf6016; stroke: #ffffff; stroke-width: 0.75; stroke-linejoin: miter"/>
     <use xlink:href="#mcd314cdb4c" x="154.634097" y="158.805982" style="fill: #cf6016; stroke: #ffffff; stroke-width: 0.75; stroke-linejoin: miter"/>
     <use xlink:href="#mcd314cdb4c" x="167.2446" y="181.420887" style="fill: #cf6016; stroke: #ffffff; stroke-width: 0.75; stroke-linejoin: miter"/>
     <use xlink:href="#mcd314cdb4c" x="179.855103" y="212.357708" style="fill: #cf6016; stroke: #ffffff; stroke-width: 0.75; stroke-linejoin: miter"/>
     <use xlink:href="#mcd314cdb4c" x="192.465606" y="221.749997" style="fill: #cf6016; stroke: #ffffff; stroke-width: 0.75; stroke-linejoin: miter"/>
     <use xlink:href="#mcd314cdb4c" x="205.076109" y="243.222731" style="fill: #cf6016; stroke: #ffffff; stroke-width: 0.75; stroke-linejoin: miter"/>
     <use xlink:href="#mcd314cdb4c" x="217.686612" y="263.826178" style="fill: #cf6016; stroke: #ffffff; stroke-width: 0.75; stroke-linejoin: miter"/>
     <use xlink:href="#mcd314cdb4c" x="230.297114" y="271.8" style="fill: #cf6016; stroke: #ffffff; stroke-width: 0.75; stroke-linejoin: miter"/>
    </g>
   </g>
   <g id="LineCollection_2">
    <path clip-path="url(#p0f4dc2f0c0)" style="fill: none; stroke: #cf6016; stroke-width: 1.5; stroke-linecap: round"/>
    <path clip-path="url(#p0f4dc2f0c0)" style="fill: none; stroke: #cf6016; stroke-width: 1.5; stroke-linecap: round"/>
    <path d="M 91.581583 55.260651 
L 91.581583 55.09881 
" clip-path="url(#p0f4dc2f0c0)" style="fill: none; stroke: #cf6016; stroke-width: 1.5; stroke-linecap: round"/>
    <path d="M 104.192086 70.463357 
L 104.192086 60.874002 
" clip-path="url(#p0f4dc2f0c0)" style="fill: none; stroke: #cf6016; stroke-width: 1.5; stroke-linecap: round"/>
    <path d="M 116.802588 88.379965 
L 116.802588 71.65517 
" clip-path="url(#p0f4dc2f0c0)" style="fill: none; stroke: #cf6016; stroke-width: 1.5; stroke-linecap: round"/>
    <path d="M 129.413091 125.108458 
L 129.413091 96.587631 
" clip-path="url(#p0f4dc2f0c0)" style="fill: none; stroke: #cf6016; stroke-width: 1.5; stroke-linecap: round"/>
    <path d="M 142.023594 173.696802 
L 142.023594 120.659207 
" clip-path="url(#p0f4dc2f0c0)" style="fill: none; stroke: #cf6016; stroke-width: 1.5; stroke-linecap: round"/>
    <path d="M 154.634097 204.62022 
L 154.634097 143.111523 
" clip-path="url(#p0f4dc2f0c0)" style="fill: none; stroke: #cf6016; stroke-width: 1.5; stroke-linecap: round"/>
    <path d="M 167.2446 235.32438 
L 167.2446 165.080958 
" clip-path="url(#p0f4dc2f0c0)" style="fill: none; stroke: #cf6016; stroke-width: 1.5; stroke-linecap: round"/>
    <path d="M 179.855103 328.359688 
L 179.855103 185.142053 
" clip-path="url(#p0f4dc2f0c0)" style="fill: none; stroke: #cf6016; stroke-width: 1.5; stroke-linecap: round"/>
    <path d="M 192.465606 328.359688 
L 192.465606 198.082895 
" clip-path="url(#p0f4dc2f0c0)" style="fill: none; stroke: #cf6016; stroke-width: 1.5; stroke-linecap: round"/>
    <path d="M 205.076109 328.359688 
L 205.076109 218.036047 
" clip-path="url(#p0f4dc2f0c0)" style="fill: none; stroke: #cf6016; stroke-width: 1.5; stroke-linecap: round"/>
    <path d="M 217.686612 328.359688 
L 217.686612 229.674375 
" clip-path="url(#p0f4dc2f0c0)" style="fill: none; stroke: #cf6016; stroke-width: 1.5; stroke-linecap: round"/>
    <path d="M 230.297114 328.359688 
L 230.297114 238.251075 
" clip-path="url(#p0f4dc2f0c0)" style="fill: none; stroke: #cf6016; stroke-width: 1.5; stroke-linecap: round"/>
   </g>
   <g id="line2d_72"/>
   <g id="line2d_73"/>
   <g id="line2d_74"/>
   <g id="line2d_75"/>
   <g id="legend_1">
    <g id="patch_3">
     <path d="M 65.86375 278.9 
L 191.779375 278.9 
Q 193.979375 278.9 193.979375 276.7 
L 193.979375 228.394375 
Q 193.979375 226.194375 191.779375 226.194375 
L 65.86375 226.194375 
Q 63.66375 226.194375 63.66375 228.394375 
L 63.66375 276.7 
Q 63.66375 278.9 65.86375 278.9 
z
" style="fill: #ffffff; opacity: 0.8"/>
    </g>
    <g id="text_10">
     <!-- comparison -->
     <g style="fill: #262626" transform="translate(93.788125 239.7125) scale(0.12 -0.12)">
      <defs>
       <path id="DejaVuSans-6d" d="M 3328 2828 
Q 3544 3216 3844 3400 
Q 4144 3584 4550 3584 
Q 5097 3584 5394 3201 
Q 5691 2819 5691 2113 
L 5691 0 
L 5113 0 
L 5113 2094 
Q 5113 2597 4934 2840 
Q 4756 3084 4391 3084 
Q 3944 3084 3684 2787 
Q 3425 2491 3425 1978 
L 3425 0 
L 2847 0 
L 2847 2094 
Q 2847 2600 2669 2842 
Q 2491 3084 2119 3084 
Q 1678 3084 1418 2786 
Q 1159 2488 1159 1978 
L 1159 0 
L 581 0 
L 581 3500 
L 1159 3500 
L 1159 2956 
Q 1356 3278 1631 3431 
Q 1906 3584 2284 3584 
Q 2666 3584 2933 3390 
Q 3200 3197 3328 2828 
z
" transform="scale(0.015625)"/>
       <path id="DejaVuSans-70" d="M 1159 525 
L 1159 -1331 
L 581 -1331 
L 581 3500 
L 1159 3500 
L 1159 2969 
Q 1341 3281 1617 3432 
Q 1894 3584 2278 3584 
Q 2916 3584 3314 3078 
Q 3713 2572 3713 1747 
Q 3713 922 3314 415 
Q 2916 -91 2278 -91 
Q 1894 -91 1617 61 
Q 1341 213 1159 525 
z
M 3116 1747 
Q 3116 2381 2855 2742 
Q 2594 3103 2138 3103 
Q 1681 3103 1420 2742 
Q 1159 2381 1159 1747 
Q 1159 1113 1420 752 
Q 1681 391 2138 391 
Q 2594 391 2855 752 
Q 3116 1113 3116 1747 
z
" transform="scale(0.015625)"/>
      </defs>
      <use xlink:href="#DejaVuSans-63"/>
      <use xlink:href="#DejaVuSans-6f" x="54.980469"/>
      <use xlink:href="#DejaVuSans-6d" x="116.162109"/>
      <use xlink:href="#DejaVuSans-70" x="213.574219"/>
      <use xlink:href="#DejaVuSans-61" x="277.050781"/>
      <use xlink:href="#DejaVuSans-72" x="338.330078"/>
      <use xlink:href="#DejaVuSans-69" x="379.443359"/>
      <use xlink:href="#DejaVuSans-73" x="407.226562"/>
      <use xlink:href="#DejaVuSans-6f" x="459.326172"/>
      <use xlink:href="#DejaVuSans-6e" x="520.507812"/>
     </g>
    </g>
    <g id="line2d_76">
     <g>
      <use xlink:href="#mc446eb223e" x="79.06375" y="252.216406" style="fill: #514587; stroke: #ffffff; stroke-width: 0.75"/>
     </g>
    </g>
    <g id="text_11">
     <!-- within-individual -->
     <g style="fill: #262626" transform="translate(98.86375 256.066406) scale(0.11 -0.11)">
      <defs>
       <path id="DejaVuSans-77" d="M 269 3500 
L 844 3500 
L 1563 769 
L 2278 3500 
L 2956 3500 
L 3675 769 
L 4391 3500 
L 4966 3500 
L 4050 0 
L 3372 0 
L 2619 2869 
L 1863 0 
L 1184 0 
L 269 3500 
z
" transform="scale(0.015625)"/>
       <path id="DejaVuSans-68" d="M 3513 2113 
L 3513 0 
L 2938 0 
L 2938 2094 
Q 2938 2591 2744 2837 
Q 2550 3084 2163 3084 
Q 1697 3084 1428 2787 
Q 1159 2491 1159 1978 
L 1159 0 
L 581 0 
L 581 4863 
L 1159 4863 
L 1159 2956 
Q 1366 3272 1645 3428 
Q 1925 3584 2291 3584 
Q 2894 3584 3203 3211 
Q 3513 2838 3513 2113 
z
" transform="scale(0.015625)"/>
      </defs>
      <use xlink:href="#DejaVuSans-77"/>
      <use xlink:href="#DejaVuSans-69" x="81.787109"/>
      <use xlink:href="#DejaVuSans-74" x="109.570312"/>
      <use xlink:href="#DejaVuSans-68" x="148.779297"/>
      <use xlink:href="#DejaVuSans-69" x="212.158203"/>
      <use xlink:href="#DejaVuSans-6e" x="239.941406"/>
      <use xlink:href="#DejaVuSans-2d" x="303.320312"/>
      <use xlink:href="#DejaVuSans-69" x="339.404297"/>
      <use xlink:href="#DejaVuSans-6e" x="367.1875"/>
      <use xlink:href="#DejaVuSans-64" x="430.566406"/>
      <use xlink:href="#DejaVuSans-69" x="494.042969"/>
      <use xlink:href="#DejaVuSans-76" x="521.826172"/>
      <use xlink:href="#DejaVuSans-69" x="581.005859"/>
      <use xlink:href="#DejaVuSans-64" x="608.789062"/>
      <use xlink:href="#DejaVuSans-75" x="672.265625"/>
      <use xlink:href="#DejaVuSans-61" x="735.644531"/>
      <use xlink:href="#DejaVuSans-6c" x="796.923828"/>
     </g>
    </g>
    <g id="line2d_77">
     <g>
      <use xlink:href="#mcd314cdb4c" x="79.06375" y="268.362344" style="fill: #cf6016; stroke: #ffffff; stroke-width: 0.75; stroke-linejoin: miter"/>
     </g>
    </g>
    <g id="text_12">
     <!-- cross-individual -->
     <g style="fill: #262626" transform="translate(98.86375 272.212344) scale(0.11 -0.11)">
      <use xlink:href="#DejaVuSans-63"/>
      <use xlink:href="#DejaVuSans-72" x="54.980469"/>
      <use xlink:href="#DejaVuSans-6f" x="93.84375"/>
      <use xlink:href="#DejaVuSans-73" x="155.025391"/>
      <use xlink:href="#DejaVuSans-73" x="207.125"/>
      <use xlink:href="#DejaVuSans-2d" x="259.224609"/>
      <use xlink:href="#DejaVuSans-69" x="295.308594"/>
      <use xlink:href="#DejaVuSans-6e" x="323.091797"/>
      <use xlink:href="#DejaVuSans-64" x="386.470703"/>
      <use xlink:href="#DejaVuSans-69" x="449.947266"/>
      <use xlink:href="#DejaVuSans-76" x="477.730469"/>
      <use xlink:href="#DejaVuSans-69" x="536.910156"/>
      <use xlink:href="#DejaVuSans-64" x="564.693359"/>
      <use xlink:href="#DejaVuSans-75" x="628.169922"/>
      <use xlink:href="#DejaVuSans-61" x="691.548828"/>
      <use xlink:href="#DejaVuSans-6c" x="752.828125"/>
     </g>
    </g>
   </g>
  </g>
 </g>
 <defs>
  <clipPath id="p0f4dc2f0c0">
   <rect x="58.16375" y="7.2" width="180.330191" height="277.2"/>
  </clipPath>
 </defs>
</svg>
