<?xml version="1.0" encoding="utf-8" standalone="no"?>
<!DOCTYPE svg PUBLIC "-//W3C//DTD SVG 1.1//EN"
  "http://www.w3.org/Graphics/SVG/1.1/DTD/svg11.dtd">
<svg xmlns:xlink="http://www.w3.org/1999/xlink" width="245.115938pt" height="327.359688pt" viewBox="0 0 245.115938 327.359688" xmlns="http://www.w3.org/2000/svg" version="1.1">
 <metadata>
  <rdf:RDF xmlns:dc="http://purl.org/dc/elements/1.1/" xmlns:cc="http://creativecommons.org/ns#" xmlns:rdf="http://www.w3.org/1999/02/22-rdf-syntax-ns#">
   <cc:Work>
    <dc:type rdf:resource="http://purl.org/dc/dcmitype/StillImage"/>
    <dc:date>2023-08-25T15:33:58.644526</dc:date>
    <dc:format>image/svg+xml</dc:format>
    <dc:creator>
     <cc:Agent>
      <dc:title>Matplotlib v3.7.2, https://matplotlib.org/</dc:title>
     </cc:Agent>
    </dc:creator>
   </cc:Work>
  </rdf:RDF>
 </metadata>
 <defs>
  <style type="text/css">*{stroke-linejoin: round; stroke-linecap: butt}</style>
 </defs>
 <g id="figure_1">
  <g id="patch_1">
   <path d="M 0 327.359688 
L 245.115938 327.359688 
L 245.115938 0 
L 0 0 
z
" style="fill: #ffffff"/>
  </g>
  <g id="axes_1">
   <g id="patch_2">
    <path d="M 58.16375 284.4 
L 237.915938 284.4 
L 237.915938 7.2 
L 58.16375 7.2 
z
" style="fill: #ffffff"/>
   </g>
   <g id="matplotlib.axis_1">
    <g id="xtick_1">
     <g id="line2d_1">
      <path d="M 60.049262 284.4 
L 60.049262 7.2 
" clip-path="url(#p1384d0ba86)" style="fill: none; stroke: #d3d3d3; stroke-linecap: round"/>
     </g>
     <g id="text_1">
      <!-- $\mathdefault{10^{0}}$ -->
      <g style="fill: #262626" transform="translate(50.369262 302.258281) scale(0.11 -0.11)">
       <defs>
        <path id="DejaVuSans-31" d="M 794 531 
L 1825 531 
L 1825 4091 
L 703 3866 
L 703 4441 
L 1819 4666 
L 2450 4666 
L 2450 531 
L 3481 531 
L 3481 0 
L 794 0 
L 794 531 
z
" transform="scale(0.015625)"/>
        <path id="DejaVuSans-30" d="M 2034 4250 
Q 1547 4250 1301 3770 
Q 1056 3291 1056 2328 
Q 1056 1369 1301 889 
Q 1547 409 2034 409 
Q 2525 409 2770 889 
Q 3016 1369 3016 2328 
Q 3016 3291 2770 3770 
Q 2525 4250 2034 4250 
z
M 2034 4750 
Q 2819 4750 3233 4129 
Q 3647 3509 3647 2328 
Q 3647 1150 3233 529 
Q 2819 -91 2034 -91 
Q 1250 -91 836 529 
Q 422 1150 422 2328 
Q 422 3509 836 4129 
Q 1250 4750 2034 4750 
z
" transform="scale(0.015625)"/>
       </defs>
       <use xlink:href="#DejaVuSans-31" transform="translate(0 0.765625)"/>
       <use xlink:href="#DejaVuSans-30" transform="translate(63.623047 0.765625)"/>
       <use xlink:href="#DejaVuSans-30" transform="translate(128.203125 39.046875) scale(0.7)"/>
      </g>
     </g>
    </g>
    <g id="xtick_2">
     <g id="line2d_2">
      <path d="M 119.757157 284.4 
L 119.757157 7.2 
" clip-path="url(#p1384d0ba86)" style="fill: none; stroke: #d3d3d3; stroke-linecap: round"/>
     </g>
     <g id="text_2">
      <!-- $\mathdefault{10^{1}}$ -->
      <g style="fill: #262626" transform="translate(110.077157 302.258281) scale(0.11 -0.11)">
       <use xlink:href="#DejaVuSans-31" transform="translate(0 0.684375)"/>
       <use xlink:href="#DejaVuSans-30" transform="translate(63.623047 0.684375)"/>
       <use xlink:href="#DejaVuSans-31" transform="translate(128.203125 38.965625) scale(0.7)"/>
      </g>
     </g>
    </g>
    <g id="xtick_3">
     <g id="line2d_3">
      <path d="M 179.465052 284.4 
L 179.465052 7.2 
" clip-path="url(#p1384d0ba86)" style="fill: none; stroke: #d3d3d3; stroke-linecap: round"/>
     </g>
     <g id="text_3">
      <!-- $\mathdefault{10^{2}}$ -->
      <g style="fill: #262626" transform="translate(169.785052 302.258281) scale(0.11 -0.11)">
       <defs>
        <path id="DejaVuSans-32" d="M 1228 531 
L 3431 531 
L 3431 0 
L 469 0 
L 469 531 
Q 828 903 1448 1529 
Q 2069 2156 2228 2338 
Q 2531 2678 2651 2914 
Q 2772 3150 2772 3378 
Q 2772 3750 2511 3984 
Q 2250 4219 1831 4219 
Q 1534 4219 1204 4116 
Q 875 4013 500 3803 
L 500 4441 
Q 881 4594 1212 4672 
Q 1544 4750 1819 4750 
Q 2544 4750 2975 4387 
Q 3406 4025 3406 3419 
Q 3406 3131 3298 2873 
Q 3191 2616 2906 2266 
Q 2828 2175 2409 1742 
Q 1991 1309 1228 531 
z
" transform="scale(0.015625)"/>
       </defs>
       <use xlink:href="#DejaVuSans-31" transform="translate(0 0.765625)"/>
       <use xlink:href="#DejaVuSans-30" transform="translate(63.623047 0.765625)"/>
       <use xlink:href="#DejaVuSans-32" transform="translate(128.203125 39.046875) scale(0.7)"/>
      </g>
     </g>
    </g>
    <g id="xtick_4">
     <g id="line2d_4">
      <path d="M 78.02313 284.4 
L 78.02313 7.2 
" clip-path="url(#p1384d0ba86)" style="fill: none; stroke: #f5f5f5; stroke-linecap: round"/>
     </g>
    </g>
    <g id="xtick_5">
     <g id="line2d_5">
      <path d="M 88.537168 284.4 
L 88.537168 7.2 
" clip-path="url(#p1384d0ba86)" style="fill: none; stroke: #f5f5f5; stroke-linecap: round"/>
     </g>
    </g>
    <g id="xtick_6">
     <g id="line2d_6">
      <path d="M 95.996997 284.4 
L 95.996997 7.2 
" clip-path="url(#p1384d0ba86)" style="fill: none; stroke: #f5f5f5; stroke-linecap: round"/>
     </g>
    </g>
    <g id="xtick_7">
     <g id="line2d_7">
      <path d="M 101.78329 284.4 
L 101.78329 7.2 
" clip-path="url(#p1384d0ba86)" style="fill: none; stroke: #f5f5f5; stroke-linecap: round"/>
     </g>
    </g>
    <g id="xtick_8">
     <g id="line2d_8">
      <path d="M 106.511035 284.4 
L 106.511035 7.2 
" clip-path="url(#p1384d0ba86)" style="fill: none; stroke: #f5f5f5; stroke-linecap: round"/>
     </g>
    </g>
    <g id="xtick_9">
     <g id="line2d_9">
      <path d="M 110.508287 284.4 
L 110.508287 7.2 
" clip-path="url(#p1384d0ba86)" style="fill: none; stroke: #f5f5f5; stroke-linecap: round"/>
     </g>
    </g>
    <g id="xtick_10">
     <g id="line2d_10">
      <path d="M 113.970864 284.4 
L 113.970864 7.2 
" clip-path="url(#p1384d0ba86)" style="fill: none; stroke: #f5f5f5; stroke-linecap: round"/>
     </g>
    </g>
    <g id="xtick_11">
     <g id="line2d_11">
      <path d="M 117.025074 284.4 
L 117.025074 7.2 
" clip-path="url(#p1384d0ba86)" style="fill: none; stroke: #f5f5f5; stroke-linecap: round"/>
     </g>
    </g>
    <g id="xtick_12">
     <g id="line2d_12">
      <path d="M 137.731025 284.4 
L 137.731025 7.2 
" clip-path="url(#p1384d0ba86)" style="fill: none; stroke: #f5f5f5; stroke-linecap: round"/>
     </g>
    </g>
    <g id="xtick_13">
     <g id="line2d_13">
      <path d="M 148.245063 284.4 
L 148.245063 7.2 
" clip-path="url(#p1384d0ba86)" style="fill: none; stroke: #f5f5f5; stroke-linecap: round"/>
     </g>
    </g>
    <g id="xtick_14">
     <g id="line2d_14">
      <path d="M 155.704892 284.4 
L 155.704892 7.2 
" clip-path="url(#p1384d0ba86)" style="fill: none; stroke: #f5f5f5; stroke-linecap: round"/>
     </g>
    </g>
    <g id="xtick_15">
     <g id="line2d_15">
      <path d="M 161.491185 284.4 
L 161.491185 7.2 
" clip-path="url(#p1384d0ba86)" style="fill: none; stroke: #f5f5f5; stroke-linecap: round"/>
     </g>
    </g>
    <g id="xtick_16">
     <g id="line2d_16">
      <path d="M 166.21893 284.4 
L 166.21893 7.2 
" clip-path="url(#p1384d0ba86)" style="fill: none; stroke: #f5f5f5; stroke-linecap: round"/>
     </g>
    </g>
    <g id="xtick_17">
     <g id="line2d_17">
      <path d="M 170.216182 284.4 
L 170.216182 7.2 
" clip-path="url(#p1384d0ba86)" style="fill: none; stroke: #f5f5f5; stroke-linecap: round"/>
     </g>
    </g>
    <g id="xtick_18">
     <g id="line2d_18">
      <path d="M 173.678759 284.4 
L 173.678759 7.2 
" clip-path="url(#p1384d0ba86)" style="fill: none; stroke: #f5f5f5; stroke-linecap: round"/>
     </g>
    </g>
    <g id="xtick_19">
     <g id="line2d_19">
      <path d="M 176.732969 284.4 
L 176.732969 7.2 
" clip-path="url(#p1384d0ba86)" style="fill: none; stroke: #f5f5f5; stroke-linecap: round"/>
     </g>
    </g>
    <g id="xtick_20">
     <g id="line2d_20">
      <path d="M 197.438919 284.4 
L 197.438919 7.2 
" clip-path="url(#p1384d0ba86)" style="fill: none; stroke: #f5f5f5; stroke-linecap: round"/>
     </g>
    </g>
    <g id="xtick_21">
     <g id="line2d_21">
      <path d="M 207.952958 284.4 
L 207.952958 7.2 
" clip-path="url(#p1384d0ba86)" style="fill: none; stroke: #f5f5f5; stroke-linecap: round"/>
     </g>
    </g>
    <g id="xtick_22">
     <g id="line2d_22">
      <path d="M 215.412787 284.4 
L 215.412787 7.2 
" clip-path="url(#p1384d0ba86)" style="fill: none; stroke: #f5f5f5; stroke-linecap: round"/>
     </g>
    </g>
    <g id="xtick_23">
     <g id="line2d_23">
      <path d="M 221.199079 284.4 
L 221.199079 7.2 
" clip-path="url(#p1384d0ba86)" style="fill: none; stroke: #f5f5f5; stroke-linecap: round"/>
     </g>
    </g>
    <g id="xtick_24">
     <g id="line2d_24">
      <path d="M 225.926825 284.4 
L 225.926825 7.2 
" clip-path="url(#p1384d0ba86)" style="fill: none; stroke: #f5f5f5; stroke-linecap: round"/>
     </g>
    </g>
    <g id="xtick_25">
     <g id="line2d_25">
      <path d="M 229.924077 284.4 
L 229.924077 7.2 
" clip-path="url(#p1384d0ba86)" style="fill: none; stroke: #f5f5f5; stroke-linecap: round"/>
     </g>
    </g>
    <g id="xtick_26">
     <g id="line2d_26">
      <path d="M 233.386654 284.4 
L 233.386654 7.2 
" clip-path="url(#p1384d0ba86)" style="fill: none; stroke: #f5f5f5; stroke-linecap: round"/>
     </g>
    </g>
    <g id="xtick_27">
     <g id="line2d_27">
      <path d="M 236.440863 284.4 
L 236.440863 7.2 
" clip-path="url(#p1384d0ba86)" style="fill: none; stroke: #f5f5f5; stroke-linecap: round"/>
     </g>
    </g>
    <g id="text_4">
     <!-- rank -->
     <g style="fill: #262626" transform="translate(134.619532 317.664062) scale(0.12 -0.12)">
      <defs>
       <path id="DejaVuSans-72" d="M 2631 2963 
Q 2534 3019 2420 3045 
Q 2306 3072 2169 3072 
Q 1681 3072 1420 2755 
Q 1159 2438 1159 1844 
L 1159 0 
L 581 0 
L 581 3500 
L 1159 3500 
L 1159 2956 
Q 1341 3275 1631 3429 
Q 1922 3584 2338 3584 
Q 2397 3584 2469 3576 
Q 2541 3569 2628 3553 
L 2631 2963 
z
" transform="scale(0.015625)"/>
       <path id="DejaVuSans-61" d="M 2194 1759 
Q 1497 1759 1228 1600 
Q 959 1441 959 1056 
Q 959 750 1161 570 
Q 1363 391 1709 391 
Q 2188 391 2477 730 
Q 2766 1069 2766 1631 
L 2766 1759 
L 2194 1759 
z
M 3341 1997 
L 3341 0 
L 2766 0 
L 2766 531 
Q 2569 213 2275 61 
Q 1981 -91 1556 -91 
Q 1019 -91 701 211 
Q 384 513 384 1019 
Q 384 1609 779 1909 
Q 1175 2209 1959 2209 
L 2766 2209 
L 2766 2266 
Q 2766 2663 2505 2880 
Q 2244 3097 1772 3097 
Q 1472 3097 1187 3025 
Q 903 2953 641 2809 
L 641 3341 
Q 956 3463 1253 3523 
Q 1550 3584 1831 3584 
Q 2591 3584 2966 3190 
Q 3341 2797 3341 1997 
z
" transform="scale(0.015625)"/>
       <path id="DejaVuSans-6e" d="M 3513 2113 
L 3513 0 
L 2938 0 
L 2938 2094 
Q 2938 2591 2744 2837 
Q 2550 3084 2163 3084 
Q 1697 3084 1428 2787 
Q 1159 2491 1159 1978 
L 1159 0 
L 581 0 
L 581 3500 
L 1159 3500 
L 1159 2956 
Q 1366 3272 1645 3428 
Q 1925 3584 2291 3584 
Q 2894 3584 3203 3211 
Q 3513 2838 3513 2113 
z
" transform="scale(0.015625)"/>
       <path id="DejaVuSans-6b" d="M 581 4863 
L 1159 4863 
L 1159 1991 
L 2875 3500 
L 3609 3500 
L 1753 1863 
L 3688 0 
L 2938 0 
L 1159 1709 
L 1159 0 
L 581 0 
L 581 4863 
z
" transform="scale(0.015625)"/>
      </defs>
      <use xlink:href="#DejaVuSans-72"/>
      <use xlink:href="#DejaVuSans-61" x="41.113281"/>
      <use xlink:href="#DejaVuSans-6e" x="102.392578"/>
      <use xlink:href="#DejaVuSans-6b" x="165.771484"/>
     </g>
    </g>
   </g>
   <g id="matplotlib.axis_2">
    <g id="ytick_1">
     <g id="line2d_28">
      <path d="M 58.16375 239.498476 
L 237.915938 239.498476 
" clip-path="url(#p1384d0ba86)" style="fill: none; stroke: #d3d3d3; stroke-linecap: round"/>
     </g>
     <g id="text_5">
      <!-- $\mathdefault{10^{-1}}$ -->
      <g style="fill: #262626" transform="translate(22.81375 243.677617) scale(0.11 -0.11)">
       <defs>
        <path id="DejaVuSans-2212" d="M 678 2272 
L 4684 2272 
L 4684 1741 
L 678 1741 
L 678 2272 
z
" transform="scale(0.015625)"/>
       </defs>
       <use xlink:href="#DejaVuSans-31" transform="translate(0 0.684375)"/>
       <use xlink:href="#DejaVuSans-30" transform="translate(63.623047 0.684375)"/>
       <use xlink:href="#DejaVuSans-2212" transform="translate(128.203125 38.965625) scale(0.7)"/>
       <use xlink:href="#DejaVuSans-31" transform="translate(186.855469 38.965625) scale(0.7)"/>
      </g>
     </g>
    </g>
    <g id="ytick_2">
     <g id="line2d_29">
      <path d="M 58.16375 179.790582 
L 237.915938 179.790582 
" clip-path="url(#p1384d0ba86)" style="fill: none; stroke: #d3d3d3; stroke-linecap: round"/>
     </g>
     <g id="text_6">
      <!-- $\mathdefault{10^{0}}$ -->
      <g style="fill: #262626" transform="translate(29.30375 183.969722) scale(0.11 -0.11)">
       <use xlink:href="#DejaVuSans-31" transform="translate(0 0.765625)"/>
       <use xlink:href="#DejaVuSans-30" transform="translate(63.623047 0.765625)"/>
       <use xlink:href="#DejaVuSans-30" transform="translate(128.203125 39.046875) scale(0.7)"/>
      </g>
     </g>
    </g>
    <g id="ytick_3">
     <g id="line2d_30">
      <path d="M 58.16375 120.082687 
L 237.915938 120.082687 
" clip-path="url(#p1384d0ba86)" style="fill: none; stroke: #d3d3d3; stroke-linecap: round"/>
     </g>
     <g id="text_7">
      <!-- $\mathdefault{10^{1}}$ -->
      <g style="fill: #262626" transform="translate(29.30375 124.261828) scale(0.11 -0.11)">
       <use xlink:href="#DejaVuSans-31" transform="translate(0 0.684375)"/>
       <use xlink:href="#DejaVuSans-30" transform="translate(63.623047 0.684375)"/>
       <use xlink:href="#DejaVuSans-31" transform="translate(128.203125 38.965625) scale(0.7)"/>
      </g>
     </g>
    </g>
    <g id="ytick_4">
     <g id="line2d_31">
      <path d="M 58.16375 60.374792 
L 237.915938 60.374792 
" clip-path="url(#p1384d0ba86)" style="fill: none; stroke: #d3d3d3; stroke-linecap: round"/>
     </g>
     <g id="text_8">
      <!-- $\mathdefault{10^{2}}$ -->
      <g style="fill: #262626" transform="translate(29.30375 64.553933) scale(0.11 -0.11)">
       <use xlink:href="#DejaVuSans-31" transform="translate(0 0.765625)"/>
       <use xlink:href="#DejaVuSans-30" transform="translate(63.623047 0.765625)"/>
       <use xlink:href="#DejaVuSans-32" transform="translate(128.203125 39.046875) scale(0.7)"/>
      </g>
     </g>
    </g>
    <g id="ytick_5">
     <g id="line2d_32">
      <path d="M 58.16375 281.232504 
L 237.915938 281.232504 
" clip-path="url(#p1384d0ba86)" style="fill: none; stroke: #f5f5f5; stroke-linecap: round"/>
     </g>
    </g>
    <g id="ytick_6">
     <g id="line2d_33">
      <path d="M 58.16375 270.718466 
L 237.915938 270.718466 
" clip-path="url(#p1384d0ba86)" style="fill: none; stroke: #f5f5f5; stroke-linecap: round"/>
     </g>
    </g>
    <g id="ytick_7">
     <g id="line2d_34">
      <path d="M 58.16375 263.258637 
L 237.915938 263.258637 
" clip-path="url(#p1384d0ba86)" style="fill: none; stroke: #f5f5f5; stroke-linecap: round"/>
     </g>
    </g>
    <g id="ytick_8">
     <g id="line2d_35">
      <path d="M 58.16375 257.472344 
L 237.915938 257.472344 
" clip-path="url(#p1384d0ba86)" style="fill: none; stroke: #f5f5f5; stroke-linecap: round"/>
     </g>
    </g>
    <g id="ytick_9">
     <g id="line2d_36">
      <path d="M 58.16375 252.744598 
L 237.915938 252.744598 
" clip-path="url(#p1384d0ba86)" style="fill: none; stroke: #f5f5f5; stroke-linecap: round"/>
     </g>
    </g>
    <g id="ytick_10">
     <g id="line2d_37">
      <path d="M 58.16375 248.747346 
L 237.915938 248.747346 
" clip-path="url(#p1384d0ba86)" style="fill: none; stroke: #f5f5f5; stroke-linecap: round"/>
     </g>
    </g>
    <g id="ytick_11">
     <g id="line2d_38">
      <path d="M 58.16375 245.284769 
L 237.915938 245.284769 
" clip-path="url(#p1384d0ba86)" style="fill: none; stroke: #f5f5f5; stroke-linecap: round"/>
     </g>
    </g>
    <g id="ytick_12">
     <g id="line2d_39">
      <path d="M 58.16375 242.23056 
L 237.915938 242.23056 
" clip-path="url(#p1384d0ba86)" style="fill: none; stroke: #f5f5f5; stroke-linecap: round"/>
     </g>
    </g>
    <g id="ytick_13">
     <g id="line2d_40">
      <path d="M 58.16375 221.524609 
L 237.915938 221.524609 
" clip-path="url(#p1384d0ba86)" style="fill: none; stroke: #f5f5f5; stroke-linecap: round"/>
     </g>
    </g>
    <g id="ytick_14">
     <g id="line2d_41">
      <path d="M 58.16375 211.010571 
L 237.915938 211.010571 
" clip-path="url(#p1384d0ba86)" style="fill: none; stroke: #f5f5f5; stroke-linecap: round"/>
     </g>
    </g>
    <g id="ytick_15">
     <g id="line2d_42">
      <path d="M 58.16375 203.550742 
L 237.915938 203.550742 
" clip-path="url(#p1384d0ba86)" style="fill: none; stroke: #f5f5f5; stroke-linecap: round"/>
     </g>
    </g>
    <g id="ytick_16">
     <g id="line2d_43">
      <path d="M 58.16375 197.764449 
L 237.915938 197.764449 
" clip-path="url(#p1384d0ba86)" style="fill: none; stroke: #f5f5f5; stroke-linecap: round"/>
     </g>
    </g>
    <g id="ytick_17">
     <g id="line2d_44">
      <path d="M 58.16375 193.036704 
L 237.915938 193.036704 
" clip-path="url(#p1384d0ba86)" style="fill: none; stroke: #f5f5f5; stroke-linecap: round"/>
     </g>
    </g>
    <g id="ytick_18">
     <g id="line2d_45">
      <path d="M 58.16375 189.039452 
L 237.915938 189.039452 
" clip-path="url(#p1384d0ba86)" style="fill: none; stroke: #f5f5f5; stroke-linecap: round"/>
     </g>
    </g>
    <g id="ytick_19">
     <g id="line2d_46">
      <path d="M 58.16375 185.576875 
L 237.915938 185.576875 
" clip-path="url(#p1384d0ba86)" style="fill: none; stroke: #f5f5f5; stroke-linecap: round"/>
     </g>
    </g>
    <g id="ytick_20">
     <g id="line2d_47">
      <path d="M 58.16375 182.522665 
L 237.915938 182.522665 
" clip-path="url(#p1384d0ba86)" style="fill: none; stroke: #f5f5f5; stroke-linecap: round"/>
     </g>
    </g>
    <g id="ytick_21">
     <g id="line2d_48">
      <path d="M 58.16375 161.816714 
L 237.915938 161.816714 
" clip-path="url(#p1384d0ba86)" style="fill: none; stroke: #f5f5f5; stroke-linecap: round"/>
     </g>
    </g>
    <g id="ytick_22">
     <g id="line2d_49">
      <path d="M 58.16375 151.302676 
L 237.915938 151.302676 
" clip-path="url(#p1384d0ba86)" style="fill: none; stroke: #f5f5f5; stroke-linecap: round"/>
     </g>
    </g>
    <g id="ytick_23">
     <g id="line2d_50">
      <path d="M 58.16375 143.842847 
L 237.915938 143.842847 
" clip-path="url(#p1384d0ba86)" style="fill: none; stroke: #f5f5f5; stroke-linecap: round"/>
     </g>
    </g>
    <g id="ytick_24">
     <g id="line2d_51">
      <path d="M 58.16375 138.056554 
L 237.915938 138.056554 
" clip-path="url(#p1384d0ba86)" style="fill: none; stroke: #f5f5f5; stroke-linecap: round"/>
     </g>
    </g>
    <g id="ytick_25">
     <g id="line2d_52">
      <path d="M 58.16375 133.328809 
L 237.915938 133.328809 
" clip-path="url(#p1384d0ba86)" style="fill: none; stroke: #f5f5f5; stroke-linecap: round"/>
     </g>
    </g>
    <g id="ytick_26">
     <g id="line2d_53">
      <path d="M 58.16375 129.331557 
L 237.915938 129.331557 
" clip-path="url(#p1384d0ba86)" style="fill: none; stroke: #f5f5f5; stroke-linecap: round"/>
     </g>
    </g>
    <g id="ytick_27">
     <g id="line2d_54">
      <path d="M 58.16375 125.86898 
L 237.915938 125.86898 
" clip-path="url(#p1384d0ba86)" style="fill: none; stroke: #f5f5f5; stroke-linecap: round"/>
     </g>
    </g>
    <g id="ytick_28">
     <g id="line2d_55">
      <path d="M 58.16375 122.81477 
L 237.915938 122.81477 
" clip-path="url(#p1384d0ba86)" style="fill: none; stroke: #f5f5f5; stroke-linecap: round"/>
     </g>
    </g>
    <g id="ytick_29">
     <g id="line2d_56">
      <path d="M 58.16375 102.10882 
L 237.915938 102.10882 
" clip-path="url(#p1384d0ba86)" style="fill: none; stroke: #f5f5f5; stroke-linecap: round"/>
     </g>
    </g>
    <g id="ytick_30">
     <g id="line2d_57">
      <path d="M 58.16375 91.594781 
L 237.915938 91.594781 
" clip-path="url(#p1384d0ba86)" style="fill: none; stroke: #f5f5f5; stroke-linecap: round"/>
     </g>
    </g>
    <g id="ytick_31">
     <g id="line2d_58">
      <path d="M 58.16375 84.134952 
L 237.915938 84.134952 
" clip-path="url(#p1384d0ba86)" style="fill: none; stroke: #f5f5f5; stroke-linecap: round"/>
     </g>
    </g>
    <g id="ytick_32">
     <g id="line2d_59">
      <path d="M 58.16375 78.34866 
L 237.915938 78.34866 
" clip-path="url(#p1384d0ba86)" style="fill: none; stroke: #f5f5f5; stroke-linecap: round"/>
     </g>
    </g>
    <g id="ytick_33">
     <g id="line2d_60">
      <path d="M 58.16375 73.620914 
L 237.915938 73.620914 
" clip-path="url(#p1384d0ba86)" style="fill: none; stroke: #f5f5f5; stroke-linecap: round"/>
     </g>
    </g>
    <g id="ytick_34">
     <g id="line2d_61">
      <path d="M 58.16375 69.623662 
L 237.915938 69.623662 
" clip-path="url(#p1384d0ba86)" style="fill: none; stroke: #f5f5f5; stroke-linecap: round"/>
     </g>
    </g>
    <g id="ytick_35">
     <g id="line2d_62">
      <path d="M 58.16375 66.161085 
L 237.915938 66.161085 
" clip-path="url(#p1384d0ba86)" style="fill: none; stroke: #f5f5f5; stroke-linecap: round"/>
     </g>
    </g>
    <g id="ytick_36">
     <g id="line2d_63">
      <path d="M 58.16375 63.106876 
L 237.915938 63.106876 
" clip-path="url(#p1384d0ba86)" style="fill: none; stroke: #f5f5f5; stroke-linecap: round"/>
     </g>
    </g>
    <g id="ytick_37">
     <g id="line2d_64">
      <path d="M 58.16375 42.400925 
L 237.915938 42.400925 
" clip-path="url(#p1384d0ba86)" style="fill: none; stroke: #f5f5f5; stroke-linecap: round"/>
     </g>
    </g>
    <g id="ytick_38">
     <g id="line2d_65">
      <path d="M 58.16375 31.886887 
L 237.915938 31.886887 
" clip-path="url(#p1384d0ba86)" style="fill: none; stroke: #f5f5f5; stroke-linecap: round"/>
     </g>
    </g>
    <g id="ytick_39">
     <g id="line2d_66">
      <path d="M 58.16375 24.427058 
L 237.915938 24.427058 
" clip-path="url(#p1384d0ba86)" style="fill: none; stroke: #f5f5f5; stroke-linecap: round"/>
     </g>
    </g>
    <g id="ytick_40">
     <g id="line2d_67">
      <path d="M 58.16375 18.640765 
L 237.915938 18.640765 
" clip-path="url(#p1384d0ba86)" style="fill: none; stroke: #f5f5f5; stroke-linecap: round"/>
     </g>
    </g>
    <g id="ytick_41">
     <g id="line2d_68">
      <path d="M 58.16375 13.913019 
L 237.915938 13.913019 
" clip-path="url(#p1384d0ba86)" style="fill: none; stroke: #f5f5f5; stroke-linecap: round"/>
     </g>
    </g>
    <g id="ytick_42">
     <g id="line2d_69">
      <path d="M 58.16375 9.915767 
L 237.915938 9.915767 
" clip-path="url(#p1384d0ba86)" style="fill: none; stroke: #f5f5f5; stroke-linecap: round"/>
     </g>
    </g>
    <g id="text_9">
     <!-- cross-validated singular value -->
     <g style="fill: #262626" transform="translate(16.318125 235.48125) rotate(-90) scale(0.12 -0.12)">
      <defs>
       <path id="DejaVuSans-63" d="M 3122 3366 
L 3122 2828 
Q 2878 2963 2633 3030 
Q 2388 3097 2138 3097 
Q 1578 3097 1268 2742 
Q 959 2388 959 1747 
Q 959 1106 1268 751 
Q 1578 397 2138 397 
Q 2388 397 2633 464 
Q 2878 531 3122 666 
L 3122 134 
Q 2881 22 2623 -34 
Q 2366 -91 2075 -91 
Q 1284 -91 818 406 
Q 353 903 353 1747 
Q 353 2603 823 3093 
Q 1294 3584 2113 3584 
Q 2378 3584 2631 3529 
Q 2884 3475 3122 3366 
z
" transform="scale(0.015625)"/>
       <path id="DejaVuSans-6f" d="M 1959 3097 
Q 1497 3097 1228 2736 
Q 959 2375 959 1747 
Q 959 1119 1226 758 
Q 1494 397 1959 397 
Q 2419 397 2687 759 
Q 2956 1122 2956 1747 
Q 2956 2369 2687 2733 
Q 2419 3097 1959 3097 
z
M 1959 3584 
Q 2709 3584 3137 3096 
Q 3566 2609 3566 1747 
Q 3566 888 3137 398 
Q 2709 -91 1959 -91 
Q 1206 -91 779 398 
Q 353 888 353 1747 
Q 353 2609 779 3096 
Q 1206 3584 1959 3584 
z
" transform="scale(0.015625)"/>
       <path id="DejaVuSans-73" d="M 2834 3397 
L 2834 2853 
Q 2591 2978 2328 3040 
Q 2066 3103 1784 3103 
Q 1356 3103 1142 2972 
Q 928 2841 928 2578 
Q 928 2378 1081 2264 
Q 1234 2150 1697 2047 
L 1894 2003 
Q 2506 1872 2764 1633 
Q 3022 1394 3022 966 
Q 3022 478 2636 193 
Q 2250 -91 1575 -91 
Q 1294 -91 989 -36 
Q 684 19 347 128 
L 347 722 
Q 666 556 975 473 
Q 1284 391 1588 391 
Q 1994 391 2212 530 
Q 2431 669 2431 922 
Q 2431 1156 2273 1281 
Q 2116 1406 1581 1522 
L 1381 1569 
Q 847 1681 609 1914 
Q 372 2147 372 2553 
Q 372 3047 722 3315 
Q 1072 3584 1716 3584 
Q 2034 3584 2315 3537 
Q 2597 3491 2834 3397 
z
" transform="scale(0.015625)"/>
       <path id="DejaVuSans-2d" d="M 313 2009 
L 1997 2009 
L 1997 1497 
L 313 1497 
L 313 2009 
z
" transform="scale(0.015625)"/>
       <path id="DejaVuSans-76" d="M 191 3500 
L 800 3500 
L 1894 563 
L 2988 3500 
L 3597 3500 
L 2284 0 
L 1503 0 
L 191 3500 
z
" transform="scale(0.015625)"/>
       <path id="DejaVuSans-6c" d="M 603 4863 
L 1178 4863 
L 1178 0 
L 603 0 
L 603 4863 
z
" transform="scale(0.015625)"/>
       <path id="DejaVuSans-69" d="M 603 3500 
L 1178 3500 
L 1178 0 
L 603 0 
L 603 3500 
z
M 603 4863 
L 1178 4863 
L 1178 4134 
L 603 4134 
L 603 4863 
z
" transform="scale(0.015625)"/>
       <path id="DejaVuSans-64" d="M 2906 2969 
L 2906 4863 
L 3481 4863 
L 3481 0 
L 2906 0 
L 2906 525 
Q 2725 213 2448 61 
Q 2172 -91 1784 -91 
Q 1150 -91 751 415 
Q 353 922 353 1747 
Q 353 2572 751 3078 
Q 1150 3584 1784 3584 
Q 2172 3584 2448 3432 
Q 2725 3281 2906 2969 
z
M 947 1747 
Q 947 1113 1208 752 
Q 1469 391 1925 391 
Q 2381 391 2643 752 
Q 2906 1113 2906 1747 
Q 2906 2381 2643 2742 
Q 2381 3103 1925 3103 
Q 1469 3103 1208 2742 
Q 947 2381 947 1747 
z
" transform="scale(0.015625)"/>
       <path id="DejaVuSans-74" d="M 1172 4494 
L 1172 3500 
L 2356 3500 
L 2356 3053 
L 1172 3053 
L 1172 1153 
Q 1172 725 1289 603 
Q 1406 481 1766 481 
L 2356 481 
L 2356 0 
L 1766 0 
Q 1100 0 847 248 
Q 594 497 594 1153 
L 594 3053 
L 172 3053 
L 172 3500 
L 594 3500 
L 594 4494 
L 1172 4494 
z
" transform="scale(0.015625)"/>
       <path id="DejaVuSans-65" d="M 3597 1894 
L 3597 1613 
L 953 1613 
Q 991 1019 1311 708 
Q 1631 397 2203 397 
Q 2534 397 2845 478 
Q 3156 559 3463 722 
L 3463 178 
Q 3153 47 2828 -22 
Q 2503 -91 2169 -91 
Q 1331 -91 842 396 
Q 353 884 353 1716 
Q 353 2575 817 3079 
Q 1281 3584 2069 3584 
Q 2775 3584 3186 3129 
Q 3597 2675 3597 1894 
z
M 3022 2063 
Q 3016 2534 2758 2815 
Q 2500 3097 2075 3097 
Q 1594 3097 1305 2825 
Q 1016 2553 972 2059 
L 3022 2063 
z
" transform="scale(0.015625)"/>
       <path id="DejaVuSans-20" transform="scale(0.015625)"/>
       <path id="DejaVuSans-67" d="M 2906 1791 
Q 2906 2416 2648 2759 
Q 2391 3103 1925 3103 
Q 1463 3103 1205 2759 
Q 947 2416 947 1791 
Q 947 1169 1205 825 
Q 1463 481 1925 481 
Q 2391 481 2648 825 
Q 2906 1169 2906 1791 
z
M 3481 434 
Q 3481 -459 3084 -895 
Q 2688 -1331 1869 -1331 
Q 1566 -1331 1297 -1286 
Q 1028 -1241 775 -1147 
L 775 -588 
Q 1028 -725 1275 -790 
Q 1522 -856 1778 -856 
Q 2344 -856 2625 -561 
Q 2906 -266 2906 331 
L 2906 616 
Q 2728 306 2450 153 
Q 2172 0 1784 0 
Q 1141 0 747 490 
Q 353 981 353 1791 
Q 353 2603 747 3093 
Q 1141 3584 1784 3584 
Q 2172 3584 2450 3431 
Q 2728 3278 2906 2969 
L 2906 3500 
L 3481 3500 
L 3481 434 
z
" transform="scale(0.015625)"/>
       <path id="DejaVuSans-75" d="M 544 1381 
L 544 3500 
L 1119 3500 
L 1119 1403 
Q 1119 906 1312 657 
Q 1506 409 1894 409 
Q 2359 409 2629 706 
Q 2900 1003 2900 1516 
L 2900 3500 
L 3475 3500 
L 3475 0 
L 2900 0 
L 2900 538 
Q 2691 219 2414 64 
Q 2138 -91 1772 -91 
Q 1169 -91 856 284 
Q 544 659 544 1381 
z
M 1991 3584 
L 1991 3584 
z
" transform="scale(0.015625)"/>
      </defs>
      <use xlink:href="#DejaVuSans-63"/>
      <use xlink:href="#DejaVuSans-72" x="54.980469"/>
      <use xlink:href="#DejaVuSans-6f" x="93.84375"/>
      <use xlink:href="#DejaVuSans-73" x="155.025391"/>
      <use xlink:href="#DejaVuSans-73" x="207.125"/>
      <use xlink:href="#DejaVuSans-2d" x="259.224609"/>
      <use xlink:href="#DejaVuSans-76" x="292.683594"/>
      <use xlink:href="#DejaVuSans-61" x="351.863281"/>
      <use xlink:href="#DejaVuSans-6c" x="413.142578"/>
      <use xlink:href="#DejaVuSans-69" x="440.925781"/>
      <use xlink:href="#DejaVuSans-64" x="468.708984"/>
      <use xlink:href="#DejaVuSans-61" x="532.185547"/>
      <use xlink:href="#DejaVuSans-74" x="593.464844"/>
      <use xlink:href="#DejaVuSans-65" x="632.673828"/>
      <use xlink:href="#DejaVuSans-64" x="694.197266"/>
      <use xlink:href="#DejaVuSans-20" x="757.673828"/>
      <use xlink:href="#DejaVuSans-73" x="789.460938"/>
      <use xlink:href="#DejaVuSans-69" x="841.560547"/>
      <use xlink:href="#DejaVuSans-6e" x="869.34375"/>
      <use xlink:href="#DejaVuSans-67" x="932.722656"/>
      <use xlink:href="#DejaVuSans-75" x="996.199219"/>
      <use xlink:href="#DejaVuSans-6c" x="1059.578125"/>
      <use xlink:href="#DejaVuSans-61" x="1087.361328"/>
      <use xlink:href="#DejaVuSans-72" x="1148.640625"/>
      <use xlink:href="#DejaVuSans-20" x="1189.753906"/>
      <use xlink:href="#DejaVuSans-76" x="1221.541016"/>
      <use xlink:href="#DejaVuSans-61" x="1280.720703"/>
      <use xlink:href="#DejaVuSans-6c" x="1342"/>
      <use xlink:href="#DejaVuSans-75" x="1369.783203"/>
      <use xlink:href="#DejaVuSans-65" x="1433.162109"/>
     </g>
    </g>
   </g>
   <g id="line2d_70">
    <defs>
     <path id="m74277a792e" d="M -3 3 
L 3 3 
L 3 -3 
L -3 -3 
z
" style="stroke: #ffffff; stroke-width: 0.75; stroke-linejoin: miter"/>
    </defs>
    <g clip-path="url(#p1384d0ba86)">
     <use xlink:href="#m74277a792e" x="66.334304" y="19.8" style="fill: #4c72b0; stroke: #ffffff; stroke-width: 0.75; stroke-linejoin: miter"/>
     <use xlink:href="#m74277a792e" x="78.904387" y="42.51179" style="fill: #4c72b0; stroke: #ffffff; stroke-width: 0.75; stroke-linejoin: miter"/>
     <use xlink:href="#m74277a792e" x="91.47447" y="55.066232" style="fill: #4c72b0; stroke: #ffffff; stroke-width: 0.75; stroke-linejoin: miter"/>
     <use xlink:href="#m74277a792e" x="104.044553" y="65.083724" style="fill: #4c72b0; stroke: #ffffff; stroke-width: 0.75; stroke-linejoin: miter"/>
     <use xlink:href="#m74277a792e" x="116.614636" y="78.507266" style="fill: #4c72b0; stroke: #ffffff; stroke-width: 0.75; stroke-linejoin: miter"/>
     <use xlink:href="#m74277a792e" x="129.18472" y="106.840879" style="fill: #4c72b0; stroke: #ffffff; stroke-width: 0.75; stroke-linejoin: miter"/>
     <use xlink:href="#m74277a792e" x="141.754803" y="135.136428" style="fill: #4c72b0; stroke: #ffffff; stroke-width: 0.75; stroke-linejoin: miter"/>
     <use xlink:href="#m74277a792e" x="154.324886" y="158.360493" style="fill: #4c72b0; stroke: #ffffff; stroke-width: 0.75; stroke-linejoin: miter"/>
     <use xlink:href="#m74277a792e" x="166.894969" y="180.9027" style="fill: #4c72b0; stroke: #ffffff; stroke-width: 0.75; stroke-linejoin: miter"/>
     <use xlink:href="#m74277a792e" x="179.465052" y="211.740603" style="fill: #4c72b0; stroke: #ffffff; stroke-width: 0.75; stroke-linejoin: miter"/>
     <use xlink:href="#m74277a792e" x="192.035135" y="221.102639" style="fill: #4c72b0; stroke: #ffffff; stroke-width: 0.75; stroke-linejoin: miter"/>
     <use xlink:href="#m74277a792e" x="204.605218" y="242.506499" style="fill: #4c72b0; stroke: #ffffff; stroke-width: 0.75; stroke-linejoin: miter"/>
     <use xlink:href="#m74277a792e" x="217.175301" y="263.044389" style="fill: #4c72b0; stroke: #ffffff; stroke-width: 0.75; stroke-linejoin: miter"/>
     <use xlink:href="#m74277a792e" x="229.745384" y="271.8" style="fill: #4c72b0; stroke: #ffffff; stroke-width: 0.75; stroke-linejoin: miter"/>
    </g>
   </g>
   <g id="LineCollection_1">
    <path clip-path="url(#p1384d0ba86)" style="fill: none; stroke: #4c72b0; stroke-width: 1.5; stroke-linecap: round"/>
    <path clip-path="url(#p1384d0ba86)" style="fill: none; stroke: #4c72b0; stroke-width: 1.5; stroke-linecap: round"/>
    <path d="M 91.47447 55.14701 
L 91.47447 54.985706 
" clip-path="url(#p1384d0ba86)" style="fill: none; stroke: #4c72b0; stroke-width: 1.5; stroke-linecap: round"/>
    <path d="M 104.044553 70.301 
L 104.044553 60.742381 
" clip-path="url(#p1384d0ba86)" style="fill: none; stroke: #4c72b0; stroke-width: 1.5; stroke-linecap: round"/>
    <path d="M 116.614636 88.160202 
L 116.614636 71.488955 
" clip-path="url(#p1384d0ba86)" style="fill: none; stroke: #4c72b0; stroke-width: 1.5; stroke-linecap: round"/>
    <path d="M 129.18472 124.771419 
L 129.18472 96.341299 
" clip-path="url(#p1384d0ba86)" style="fill: none; stroke: #4c72b0; stroke-width: 1.5; stroke-linecap: round"/>
    <path d="M 141.754803 173.20383 
L 141.754803 120.335992 
" clip-path="url(#p1384d0ba86)" style="fill: none; stroke: #4c72b0; stroke-width: 1.5; stroke-linecap: round"/>
    <path d="M 154.324886 204.028484 
L 154.324886 142.716282 
" clip-path="url(#p1384d0ba86)" style="fill: none; stroke: #4c72b0; stroke-width: 1.5; stroke-linecap: round"/>
    <path d="M 166.894969 234.632678 
L 166.894969 164.615194 
" clip-path="url(#p1384d0ba86)" style="fill: none; stroke: #4c72b0; stroke-width: 1.5; stroke-linecap: round"/>
    <path d="M 179.465052 328.359688 
L 179.465052 184.611822 
" clip-path="url(#p1384d0ba86)" style="fill: none; stroke: #4c72b0; stroke-width: 1.5; stroke-linecap: round"/>
    <path d="M 192.035135 328.359688 
L 192.035135 197.511365 
" clip-path="url(#p1384d0ba86)" style="fill: none; stroke: #4c72b0; stroke-width: 1.5; stroke-linecap: round"/>
    <path d="M 204.605218 328.359688 
L 204.605218 217.402832 
" clip-path="url(#p1384d0ba86)" style="fill: none; stroke: #4c72b0; stroke-width: 1.5; stroke-linecap: round"/>
    <path d="M 217.175301 328.359688 
L 217.175301 228.998933 
" clip-path="url(#p1384d0ba86)" style="fill: none; stroke: #4c72b0; stroke-width: 1.5; stroke-linecap: round"/>
    <path d="M 229.745384 328.359688 
L 229.745384 237.704826 
" clip-path="url(#p1384d0ba86)" style="fill: none; stroke: #4c72b0; stroke-width: 1.5; stroke-linecap: round"/>
   </g>
   <g id="line2d_71">
    <defs>
     <path id="mdbd06e2a49" d="M 0 3 
C 0.795609 3 1.55874 2.683901 2.12132 2.12132 
C 2.683901 1.55874 3 0.795609 3 0 
C 3 -0.795609 2.683901 -1.55874 2.12132 -2.12132 
C 1.55874 -2.683901 0.795609 -3 0 -3 
C -0.795609 -3 -1.55874 -2.683901 -2.12132 -2.12132 
C -2.683901 -1.55874 -3 -0.795609 -3 0 
C -3 0.795609 -2.683901 1.55874 -2.12132 2.12132 
C -1.55874 2.683901 -0.795609 3 0 3 
z
" style="stroke: #ffffff; stroke-width: 0.75"/>
    </defs>
    <g clip-path="url(#p1384d0ba86)">
     <use xlink:href="#mdbd06e2a49" x="66.334304" y="34.434964" style="fill: #dd8452; stroke: #ffffff; stroke-width: 0.75"/>
     <use xlink:href="#mdbd06e2a49" x="78.904387" y="22.755807" style="fill: #dd8452; stroke: #ffffff; stroke-width: 0.75"/>
     <use xlink:href="#mdbd06e2a49" x="91.47447" y="51.146674" style="fill: #dd8452; stroke: #ffffff; stroke-width: 0.75"/>
     <use xlink:href="#mdbd06e2a49" x="104.044553" y="64.201624" style="fill: #dd8452; stroke: #ffffff; stroke-width: 0.75"/>
     <use xlink:href="#mdbd06e2a49" x="116.614636" y="87.002577" style="fill: #dd8452; stroke: #ffffff; stroke-width: 0.75"/>
     <use xlink:href="#mdbd06e2a49" x="129.18472" y="89.782339" style="fill: #dd8452; stroke: #ffffff; stroke-width: 0.75"/>
     <use xlink:href="#mdbd06e2a49" x="141.754803" y="113.067172" style="fill: #dd8452; stroke: #ffffff; stroke-width: 0.75"/>
     <use xlink:href="#mdbd06e2a49" x="154.324886" y="125.969827" style="fill: #dd8452; stroke: #ffffff; stroke-width: 0.75"/>
     <use xlink:href="#mdbd06e2a49" x="166.894969" y="145.17643" style="fill: #dd8452; stroke: #ffffff; stroke-width: 0.75"/>
     <use xlink:href="#mdbd06e2a49" x="179.465052" y="158.899551" style="fill: #dd8452; stroke: #ffffff; stroke-width: 0.75"/>
     <use xlink:href="#mdbd06e2a49" x="192.035135" y="176.978103" style="fill: #dd8452; stroke: #ffffff; stroke-width: 0.75"/>
     <use xlink:href="#mdbd06e2a49" x="204.605218" y="192.660798" style="fill: #dd8452; stroke: #ffffff; stroke-width: 0.75"/>
     <use xlink:href="#mdbd06e2a49" x="217.175301" y="209.693171" style="fill: #dd8452; stroke: #ffffff; stroke-width: 0.75"/>
     <use xlink:href="#mdbd06e2a49" x="229.745384" y="223.229561" style="fill: #dd8452; stroke: #ffffff; stroke-width: 0.75"/>
    </g>
   </g>
   <g id="LineCollection_2">
    <path clip-path="url(#p1384d0ba86)" style="fill: none; stroke: #dd8452; stroke-width: 1.5; stroke-linecap: round"/>
    <path clip-path="url(#p1384d0ba86)" style="fill: none; stroke: #dd8452; stroke-width: 1.5; stroke-linecap: round"/>
    <path d="M 91.47447 52.598248 
L 91.47447 49.772068 
" clip-path="url(#p1384d0ba86)" style="fill: none; stroke: #dd8452; stroke-width: 1.5; stroke-linecap: round"/>
    <path d="M 104.044553 81.394367 
L 104.044553 53.953279 
" clip-path="url(#p1384d0ba86)" style="fill: none; stroke: #dd8452; stroke-width: 1.5; stroke-linecap: round"/>
    <path d="M 116.614636 99.440625 
L 116.614636 78.631758 
" clip-path="url(#p1384d0ba86)" style="fill: none; stroke: #dd8452; stroke-width: 1.5; stroke-linecap: round"/>
    <path d="M 129.18472 110.581947 
L 129.18472 78.390906 
" clip-path="url(#p1384d0ba86)" style="fill: none; stroke: #dd8452; stroke-width: 1.5; stroke-linecap: round"/>
    <path d="M 141.754803 122.252631 
L 141.754803 106.298063 
" clip-path="url(#p1384d0ba86)" style="fill: none; stroke: #dd8452; stroke-width: 1.5; stroke-linecap: round"/>
    <path d="M 154.324886 135.597641 
L 154.324886 118.964733 
" clip-path="url(#p1384d0ba86)" style="fill: none; stroke: #dd8452; stroke-width: 1.5; stroke-linecap: round"/>
    <path d="M 166.894969 159.736085 
L 166.894969 135.90824 
" clip-path="url(#p1384d0ba86)" style="fill: none; stroke: #dd8452; stroke-width: 1.5; stroke-linecap: round"/>
    <path d="M 179.465052 167.89156 
L 179.465052 152.235604 
" clip-path="url(#p1384d0ba86)" style="fill: none; stroke: #dd8452; stroke-width: 1.5; stroke-linecap: round"/>
    <path d="M 192.035135 186.622228 
L 192.035135 169.964426 
" clip-path="url(#p1384d0ba86)" style="fill: none; stroke: #dd8452; stroke-width: 1.5; stroke-linecap: round"/>
    <path d="M 204.605218 202.863616 
L 204.605218 185.357991 
" clip-path="url(#p1384d0ba86)" style="fill: none; stroke: #dd8452; stroke-width: 1.5; stroke-linecap: round"/>
    <path d="M 217.175301 227.235425 
L 217.175301 199.324615 
" clip-path="url(#p1384d0ba86)" style="fill: none; stroke: #dd8452; stroke-width: 1.5; stroke-linecap: round"/>
    <path d="M 229.745384 247.32419 
L 229.745384 210.959039 
" clip-path="url(#p1384d0ba86)" style="fill: none; stroke: #dd8452; stroke-width: 1.5; stroke-linecap: round"/>
   </g>
   <g id="line2d_72"/>
   <g id="line2d_73"/>
   <g id="line2d_74"/>
   <g id="line2d_75"/>
   <g id="legend_1">
    <g id="patch_3">
     <path d="M 65.86375 278.9 
L 191.779375 278.9 
Q 193.979375 278.9 193.979375 276.7 
L 193.979375 228.394375 
Q 193.979375 226.194375 191.779375 226.194375 
L 65.86375 226.194375 
Q 63.66375 226.194375 63.66375 228.394375 
L 63.66375 276.7 
Q 63.66375 278.9 65.86375 278.9 
z
" style="fill: #ffffff; opacity: 0.8"/>
    </g>
    <g id="text_10">
     <!-- comparison -->
     <g style="fill: #262626" transform="translate(93.788125 239.7125) scale(0.12 -0.12)">
      <defs>
       <path id="DejaVuSans-6d" d="M 3328 2828 
Q 3544 3216 3844 3400 
Q 4144 3584 4550 3584 
Q 5097 3584 5394 3201 
Q 5691 2819 5691 2113 
L 5691 0 
L 5113 0 
L 5113 2094 
Q 5113 2597 4934 2840 
Q 4756 3084 4391 3084 
Q 3944 3084 3684 2787 
Q 3425 2491 3425 1978 
L 3425 0 
L 2847 0 
L 2847 2094 
Q 2847 2600 2669 2842 
Q 2491 3084 2119 3084 
Q 1678 3084 1418 2786 
Q 1159 2488 1159 1978 
L 1159 0 
L 581 0 
L 581 3500 
L 1159 3500 
L 1159 2956 
Q 1356 3278 1631 3431 
Q 1906 3584 2284 3584 
Q 2666 3584 2933 3390 
Q 3200 3197 3328 2828 
z
" transform="scale(0.015625)"/>
       <path id="DejaVuSans-70" d="M 1159 525 
L 1159 -1331 
L 581 -1331 
L 581 3500 
L 1159 3500 
L 1159 2969 
Q 1341 3281 1617 3432 
Q 1894 3584 2278 3584 
Q 2916 3584 3314 3078 
Q 3713 2572 3713 1747 
Q 3713 922 3314 415 
Q 2916 -91 2278 -91 
Q 1894 -91 1617 61 
Q 1341 213 1159 525 
z
M 3116 1747 
Q 3116 2381 2855 2742 
Q 2594 3103 2138 3103 
Q 1681 3103 1420 2742 
Q 1159 2381 1159 1747 
Q 1159 1113 1420 752 
Q 1681 391 2138 391 
Q 2594 391 2855 752 
Q 3116 1113 3116 1747 
z
" transform="scale(0.015625)"/>
      </defs>
      <use xlink:href="#DejaVuSans-63"/>
      <use xlink:href="#DejaVuSans-6f" x="54.980469"/>
      <use xlink:href="#DejaVuSans-6d" x="116.162109"/>
      <use xlink:href="#DejaVuSans-70" x="213.574219"/>
      <use xlink:href="#DejaVuSans-61" x="277.050781"/>
      <use xlink:href="#DejaVuSans-72" x="338.330078"/>
      <use xlink:href="#DejaVuSans-69" x="379.443359"/>
      <use xlink:href="#DejaVuSans-73" x="407.226562"/>
      <use xlink:href="#DejaVuSans-6f" x="459.326172"/>
      <use xlink:href="#DejaVuSans-6e" x="520.507812"/>
     </g>
    </g>
    <g id="line2d_76">
     <path d="M 68.06375 252.216406 
L 79.06375 252.216406 
L 90.06375 252.216406 
" style="fill: none; stroke: #4c72b0; stroke-width: 1.5; stroke-linecap: round"/>
     <defs>
      <path id="m1a16a03535" d="M -3 3 
L 3 3 
L 3 -3 
L -3 -3 
z
" style="stroke: #4c72b0; stroke-linejoin: miter"/>
     </defs>
     <g>
      <use xlink:href="#m1a16a03535" x="79.06375" y="252.216406" style="fill: #4c72b0; stroke: #4c72b0; stroke-linejoin: miter"/>
     </g>
    </g>
    <g id="text_11">
     <!-- cross-individual -->
     <g style="fill: #262626" transform="translate(98.86375 256.066406) scale(0.11 -0.11)">
      <use xlink:href="#DejaVuSans-63"/>
      <use xlink:href="#DejaVuSans-72" x="54.980469"/>
      <use xlink:href="#DejaVuSans-6f" x="93.84375"/>
      <use xlink:href="#DejaVuSans-73" x="155.025391"/>
      <use xlink:href="#DejaVuSans-73" x="207.125"/>
      <use xlink:href="#DejaVuSans-2d" x="259.224609"/>
      <use xlink:href="#DejaVuSans-69" x="295.308594"/>
      <use xlink:href="#DejaVuSans-6e" x="323.091797"/>
      <use xlink:href="#DejaVuSans-64" x="386.470703"/>
      <use xlink:href="#DejaVuSans-69" x="449.947266"/>
      <use xlink:href="#DejaVuSans-76" x="477.730469"/>
      <use xlink:href="#DejaVuSans-69" x="536.910156"/>
      <use xlink:href="#DejaVuSans-64" x="564.693359"/>
      <use xlink:href="#DejaVuSans-75" x="628.169922"/>
      <use xlink:href="#DejaVuSans-61" x="691.548828"/>
      <use xlink:href="#DejaVuSans-6c" x="752.828125"/>
     </g>
    </g>
    <g id="line2d_77">
     <path d="M 68.06375 268.362344 
L 79.06375 268.362344 
L 90.06375 268.362344 
" style="fill: none; stroke: #dd8452; stroke-width: 1.5; stroke-linecap: round"/>
     <defs>
      <path id="m4b9284ef91" d="M 0 3 
C 0.795609 3 1.55874 2.683901 2.12132 2.12132 
C 2.683901 1.55874 3 0.795609 3 0 
C 3 -0.795609 2.683901 -1.55874 2.12132 -2.12132 
C 1.55874 -2.683901 0.795609 -3 0 -3 
C -0.795609 -3 -1.55874 -2.683901 -2.12132 -2.12132 
C -2.683901 -1.55874 -3 -0.795609 -3 0 
C -3 0.795609 -2.683901 1.55874 -2.12132 2.12132 
C -1.55874 2.683901 -0.795609 3 0 3 
z
" style="stroke: #dd8452"/>
     </defs>
     <g>
      <use xlink:href="#m4b9284ef91" x="79.06375" y="268.362344" style="fill: #dd8452; stroke: #dd8452"/>
     </g>
    </g>
    <g id="text_12">
     <!-- within-individual -->
     <g style="fill: #262626" transform="translate(98.86375 272.212344) scale(0.11 -0.11)">
      <defs>
       <path id="DejaVuSans-77" d="M 269 3500 
L 844 3500 
L 1563 769 
L 2278 3500 
L 2956 3500 
L 3675 769 
L 4391 3500 
L 4966 3500 
L 4050 0 
L 3372 0 
L 2619 2869 
L 1863 0 
L 1184 0 
L 269 3500 
z
" transform="scale(0.015625)"/>
       <path id="DejaVuSans-68" d="M 3513 2113 
L 3513 0 
L 2938 0 
L 2938 2094 
Q 2938 2591 2744 2837 
Q 2550 3084 2163 3084 
Q 1697 3084 1428 2787 
Q 1159 2491 1159 1978 
L 1159 0 
L 581 0 
L 581 4863 
L 1159 4863 
L 1159 2956 
Q 1366 3272 1645 3428 
Q 1925 3584 2291 3584 
Q 2894 3584 3203 3211 
Q 3513 2838 3513 2113 
z
" transform="scale(0.015625)"/>
      </defs>
      <use xlink:href="#DejaVuSans-77"/>
      <use xlink:href="#DejaVuSans-69" x="81.787109"/>
      <use xlink:href="#DejaVuSans-74" x="109.570312"/>
      <use xlink:href="#DejaVuSans-68" x="148.779297"/>
      <use xlink:href="#DejaVuSans-69" x="212.158203"/>
      <use xlink:href="#DejaVuSans-6e" x="239.941406"/>
      <use xlink:href="#DejaVuSans-2d" x="303.320312"/>
      <use xlink:href="#DejaVuSans-69" x="339.404297"/>
      <use xlink:href="#DejaVuSans-6e" x="367.1875"/>
      <use xlink:href="#DejaVuSans-64" x="430.566406"/>
      <use xlink:href="#DejaVuSans-69" x="494.042969"/>
      <use xlink:href="#DejaVuSans-76" x="521.826172"/>
      <use xlink:href="#DejaVuSans-69" x="581.005859"/>
      <use xlink:href="#DejaVuSans-64" x="608.789062"/>
      <use xlink:href="#DejaVuSans-75" x="672.265625"/>
      <use xlink:href="#DejaVuSans-61" x="735.644531"/>
      <use xlink:href="#DejaVuSans-6c" x="796.923828"/>
     </g>
    </g>
   </g>
  </g>
 </g>
 <defs>
  <clipPath id="p1384d0ba86">
   <rect x="58.16375" y="7.2" width="179.752188" height="277.2"/>
  </clipPath>
 </defs>
</svg>
